<?xml version="1.0" standalone="no"?>
<!DOCTYPE svg PUBLIC "-//W3C//DTD SVG 1.1//EN" "http://www.w3.org/Graphics/SVG/1.1/DTD/svg11.dtd" >
<svg xmlns="http://www.w3.org/2000/svg" xmlns:xlink="http://www.w3.org/1999/xlink" version="1.1">
<metadata></metadata>
<defs>
<font id="pp_eikomedium" horiz-adv-x="1718" vert-adv-y="2048" >
<font-face units-per-em="2048" ascent="1802" descent="-246" />
<missing-glyph horiz-adv-x="438" />
<glyph horiz-adv-x="0" vert-adv-y="0" />
<glyph horiz-adv-x="682" />
<glyph unicode="&#xd;" horiz-adv-x="1228" />
<glyph unicode=" "  horiz-adv-x="438" />
<glyph unicode="&#x09;" horiz-adv-x="438" />
<glyph unicode="&#xa0;" horiz-adv-x="438" />
<glyph unicode="!" horiz-adv-x="512" d="M106 1548h287l-92 -809q-35 -298 -51 -409q-26 179 -53 409zM117 -16v290h278v-290h-278z" />
<glyph unicode="&#x22;" horiz-adv-x="657" d="M72 1597h229l-113 -671zM356 1597h230l-113 -671z" />
<glyph unicode="#" horiz-adv-x="1308" d="M43 440v211h340l82 267h-277v208h344l127 404h46l-125 -404h352l127 404h45l-125 -404h289v-208h-355l-84 -267h293v-211h-360l-137 -440h-50l140 440h-353l-137 -440h-49l139 440h-272zM430 651h352l82 267h-350z" />
<glyph unicode="$" horiz-adv-x="1224" d="M72 553q83 -204 195.5 -334.5t246.5 -177.5v631q-74 29 -124.5 53t-109.5 63t-94.5 81.5t-59.5 105t-24 137.5q0 162 114 279.5t298 148.5v100h45v-96q46 4 68 4h35v92h45v-96q190 -16 340 -94v-35l61 -391q-177 379 -401 459v-598q54 -22 92 -38.5t87 -42.5t82.5 -51 t68.5 -61t56 -74.5t34.5 -89t13.5 -108.5q0 -178 -118.5 -299t-315.5 -141v-287h-45v282h-27q-49 0 -76 2v-284h-45v287q-235 21 -379 75v35zM285 1233q0 -94 59 -156t170 -114v536q-103 -19 -166 -91.5t-63 -174.5zM559 29q54 -13 103 -13v596q-19 8 -58 23t-45 18v-624z M559 944q70 -30 103 -41v592q-45 10 -84 10h-19v-561zM707 18q114 12 182.5 86.5t68.5 188.5q0 107 -65.5 176t-185.5 123v-574z" />
<glyph unicode="%" horiz-adv-x="1517" d="M170 1227q0 132 70.5 226.5t167.5 94.5t167 -94.5t70 -226.5q0 -133 -70 -228.5t-167 -95.5t-167.5 95.5t-70.5 228.5zM207 0l1022 1516h59l-1024 -1516h-57zM272 1227q0 -130 38 -212.5t98 -82.5q59 0 97 82.5t38 212.5q0 128 -38 209.5t-97 81.5q-60 0 -98 -81 t-38 -210zM870 299q0 131 71.5 226.5t168.5 95.5t167.5 -95t70.5 -227q0 -133 -70.5 -228.5t-167.5 -95.5t-168.5 95.5t-71.5 228.5zM975 299q0 -129 37.5 -212t97.5 -83q59 0 97 83t38 212t-38 211t-97 82q-60 0 -97.5 -82t-37.5 -211z" />
<glyph unicode="&#x26;" horiz-adv-x="1665" d="M76 303q0 67 34 136.5t97 136t134.5 124.5t164.5 121q-101 114 -148 202.5t-47 182.5q0 147 116 244.5t292 97.5q160 0 266 -68t107 -173q0 -34 -10.5 -65.5t-36.5 -63t-51.5 -56.5t-74.5 -60t-85.5 -59t-102.5 -65l445 -479q31 79 40 193t-4 208l-137 86h549l-151 -104 q-92 -207 -271 -414l400 -428h-347l-221 244q-131 -126 -276.5 -197.5t-274.5 -71.5q-182 0 -294.5 91.5t-112.5 236.5zM322 424q0 -142 92 -231t241 -89q187 0 353 166l-480 525q-206 -180 -206 -371zM551 1307q0 -83 38.5 -164t119.5 -178q172 153 172 344 q0 90 -46.5 148.5t-115.5 58.5q-72 0 -120 -59.5t-48 -149.5z" />
<glyph unicode="'" horiz-adv-x="372" d="M72 1597h229l-113 -671z" />
<glyph unicode="(" horiz-adv-x="602" d="M84 588q0 259 136.5 557.5t377.5 574.5q-128 -188 -207.5 -501.5t-79.5 -630.5q0 -367 73 -686.5t191 -470.5q-233 236 -362 542.5t-129 614.5z" />
<glyph unicode=")" horiz-adv-x="602" d="M4 1720q241 -276 377.5 -574.5t136.5 -557.5q0 -308 -129 -614.5t-362 -542.5q118 151 191 470.5t73 686.5q0 317 -79.5 630.5t-207.5 501.5z" />
<glyph unicode="*" horiz-adv-x="772" d="M18 1219l258 45l-153 215l219 -156l43 262l45 -260l215 154l-151 -217l262 -43l-262 -48l151 -215l-215 152l-45 -260l-45 262l-217 -154l156 218z" />
<glyph unicode="+" horiz-adv-x="976" d="M59 618v46h406v362h47v-362h403v-46h-403v-364h-47v364h-406z" />
<glyph unicode="," horiz-adv-x="442" d="M-47 -373l381 367h-254v280h276v-280l-196 -367h-207z" />
<glyph unicode="-" horiz-adv-x="733" d="M123 522v107h485v-107h-485z" />
<glyph unicode="." horiz-adv-x="446" d="M84 -16v290h278v-290h-278z" />
<glyph unicode="/" horiz-adv-x="690" d="M4 -246l633 1813h49l-631 -1813h-51z" />
<glyph unicode="0" horiz-adv-x="1314" d="M76 764q0 159 45.5 303.5t123 250t186 168t228.5 62.5q118 0 226 -62.5t185.5 -168t123 -250t45.5 -303.5q0 -128 -29 -248.5t-82.5 -217.5t-125 -170t-160 -113t-183.5 -40q-96 0 -185.5 40t-161 113t-125 170.5t-82.5 217.5t-29 248zM348 764q0 -345 84 -546.5 t227 -201.5q142 0 226 202t84 546q0 341 -84 541t-226 200q-143 0 -227 -199.5t-84 -541.5z" />
<glyph unicode="1" horiz-adv-x="794" d="M51 1372l512 176v-1435l193 -113h-650l201 113v1179z" />
<glyph unicode="2" horiz-adv-x="1101" d="M39 1196q0 61 70 127.5t166.5 114.5t196 79t161.5 31q167 0 264.5 -93.5t97.5 -244.5q0 -42 -11 -87t-25 -82t-48 -90t-57.5 -87.5t-78 -99.5t-85.5 -101t-101 -116q-24 -27 -36 -41q-109 -130 -240 -270h746v-236h-1004q273 292 467 561q213 286 213 574q0 153 -71 243 t-189 90q-72 0 -133 -41q-31 -21 -48 -65t-24.5 -90t-17.5 -89.5t-36.5 -71.5t-72.5 -28t-75 31t-29 82z" />
<glyph unicode="3" horiz-adv-x="1236" d="M59 322q0 49 29.5 79.5t75.5 30.5t74 -29.5t40 -75t21 -93.5t27.5 -92t50.5 -62q64 -39 176 -39q153 0 247.5 104t94.5 275q0 153 -93 249.5t-243 96.5q-66 0 -182 -25q208 119 306.5 237.5t98.5 254.5q0 100 -61 167.5t-152 67.5q-80 0 -133 -45q-30 -25 -47.5 -70 t-24 -88.5t-16.5 -85t-35 -67t-69 -25.5q-45 0 -74 30t-29 77q0 64 68 131.5t162 114.5t191 77.5t157 30.5q143 0 233 -80t90 -202q0 -48 -15 -90.5t-54.5 -84t-69.5 -69.5t-99.5 -69.5t-102 -59.5t-116.5 -62q-35 -19 -53 -28q75 20 156 20q212 0 342.5 -112.5 t130.5 -294.5q0 -195 -144 -318t-376 -123q-104 0 -241 53t-239 136t-102 158z" />
<glyph unicode="4" horiz-adv-x="1323" d="M55 399l949 1168l-3 -973h259v-195h-259v-286l175 -113h-627l199 113l2 286h-695zM266 594h484v592z" />
<glyph unicode="5" horiz-adv-x="1243" d="M63 324q0 50 29 80t76 30t74.5 -29.5t39 -75.5t19.5 -94t25.5 -93t48.5 -64q60 -37 157 -37q163 0 265 123t102 319q2 172 -91.5 279.5t-244.5 107.5q-177 0 -366 -129l82 775h796v-238h-772l-57 -469q94 69 202.5 107t213.5 38q221 0 360 -132t139 -337 q0 -226 -149.5 -368t-388.5 -142q-93 0 -224.5 53t-233.5 137t-102 159z" />
<glyph unicode="6" horiz-adv-x="1296" d="M94 561q0 178 84 344.5t237 302.5t378 238t495 151q-438 -144 -679.5 -420.5t-241.5 -627.5q0 -232 90 -381.5t229 -149.5q119 0 194.5 118t75.5 302q0 180 -84 289t-219 109q-49 0 -108 -18.5t-107 -47.5q70 64 162 106t174 42q196 0 320.5 -125.5t124.5 -323.5 q0 -219 -152 -356.5t-391 -137.5q-258 0 -420 161t-162 425z" />
<glyph unicode="7" horiz-adv-x="1130" d="M31 1278v238h1069l-666 -1516h-323l847 1278h-927z" />
<glyph unicode="8" horiz-adv-x="1232" vert-adv-y="2031" d="M76 344q0 120 105 220t286 169q-69 43 -121 83.5t-101 94t-75.5 116.5t-26.5 132q0 166 139.5 277.5t348.5 111.5q210 0 350.5 -99.5t140.5 -246.5q0 -241 -385 -360q63 -37 101.5 -61t88.5 -57.5t79.5 -59.5t62 -61t49.5 -67.5t28 -72.5t11 -84q0 -172 -151 -288 t-375 -116q-237 0 -396 106t-159 263zM330 358q0 -152 87 -247t226 -95q117 0 190.5 73.5t73.5 189.5q0 63 -25 117.5t-78 104t-106 87t-139 88.5l-55 35q-174 -138 -174 -353zM391 1253q0 -63 22.5 -117.5t68.5 -103t98.5 -87t130.5 -85.5q72 56 117.5 152.5t45.5 195.5 q0 134 -67.5 215.5t-177.5 81.5q-104 0 -171 -71.5t-67 -180.5z" />
<glyph unicode="9" horiz-adv-x="1257" d="M39 1053q0 218 151 356.5t390 138.5q125 0 233 -44.5t185.5 -123t122 -192t44.5 -246.5q0 -177 -71.5 -340.5t-208 -302.5t-349.5 -245.5t-481 -162.5q410 136 625 407.5t215 635.5q0 252 -92.5 411.5t-222.5 159.5t-205.5 -117.5t-75.5 -306.5q0 -181 87.5 -294 t231.5 -113q49 0 106 15t97 40q-67 -64 -153 -100.5t-172 -36.5q-201 0 -329 129t-128 332z" />
<glyph unicode=":" horiz-adv-x="479" d="M100 -16v290h279v-290h-279zM100 739v289h279v-289h-279z" />
<glyph unicode=";" horiz-adv-x="477" d="M-29 -373l381 367h-254v280h277v-280l-197 -367h-207zM98 739v291h277v-291h-277z" />
<glyph unicode="&#x3c;" horiz-adv-x="958" d="M43 524l727 398h94l-725 -398l733 -405h-94z" />
<glyph unicode="=" horiz-adv-x="991" d="M68 436v45h856v-45h-856zM68 793v45h856v-45h-856z" />
<glyph unicode="&#x3e;" horiz-adv-x="958" d="M84 119l733 405l-725 398h96l727 -398l-735 -405h-96z" />
<glyph unicode="?" horiz-adv-x="897" d="M-31 1382q0 77 85 121.5t225 44.5q169 0 307.5 -63t215.5 -169.5t77 -232.5q0 -127 -62.5 -217t-154.5 -123l-230 -88q-29 -13 -41 -32.5t-12 -51.5v-176q-54 90 -90.5 180t-36.5 144q0 125 147 180l238 88q39 15 63.5 27t53 33t43 51t14.5 69q0 116 -120.5 197.5 t-280.5 81.5q-56 0 -100.5 -17t-72.5 -41.5t-52.5 -49t-53 -41.5t-61.5 -17q-43 0 -72 29.5t-29 72.5zM248 -16v290h276v-290h-276z" />
<glyph unicode="@" horiz-adv-x="1699" d="M88 594q0 180 63.5 338t174.5 271t268.5 178t337.5 65q192 0 349 -76.5t248 -211t95 -300.5q4 -181 -95 -326.5t-259 -203.5l-260 -88v180q-155 -180 -303 -180q-76 0 -128.5 43t-52.5 116q0 34 19.5 67.5t58.5 64.5t79.5 57.5t102.5 56t105 49t107 46.5q8 3 12 5v76 q0 77 -43.5 128.5t-110.5 51.5q-52 0 -98 -32q-22 -14 -34 -56.5t-18 -83t-30 -72.5t-68 -32q-33 0 -51 21t-18 51q0 56 81 119.5t178.5 102.5t153.5 38q104 0 171 -62t67 -164v-454l67 -23q112 61 181 196.5t63 307.5q-6 235 -167 390t-402 155q-151 0 -284.5 -58 t-229.5 -159.5t-151.5 -246.5t-55.5 -312q0 -217 93.5 -381.5t264 -254t394.5 -89.5q209 0 375.5 77.5t256.5 213.5q-91 -184 -268 -289t-403 -105q-245 0 -435 98.5t-295.5 280t-105.5 416.5zM715 459q0 -50 34 -82.5t82 -32.5q77 0 179 109v266q-140 -59 -217.5 -121 t-77.5 -139z" />
<glyph unicode="A" d="M20 0l197 113l506 1224l-100 148l307 53l602 -1429l164 -109h-670l217 106l-180 433h-619l-170 -426l234 -113h-488zM463 582h581l-284 680h-23z" />
<glyph unicode="B" horiz-adv-x="1466" d="M39 0l158 123v1270l-158 123h731q247 0 411.5 -103.5t164.5 -257.5q0 -132 -114.5 -224.5t-313.5 -121.5v-23q220 -33 351 -134q132 -102 132 -248q0 -181 -179 -292q-180 -112 -466 -112h-717zM453 43h290q94 0 169.5 31t122 83.5t71 117t24.5 135.5q0 70 -24.5 134 t-70.5 116t-121.5 83t-168.5 31h-292v-731zM453 815h305q143 0 233 94.5t90 245.5q0 142 -90 230t-237 88h-301v-658z" />
<glyph unicode="C" horiz-adv-x="1509" d="M68 770q0 210 109 389.5t296 284t406 104.5q134 0 273 -27.5t230 -72.5v-35l56 -395q-111 244 -248 365q-136 120 -308 120h-3q-240 0 -386.5 -203t-146.5 -530q0 -338 147 -544t392 -206h3q173 0 312 129q140 130 260 400l-67 -438v-35q-91 -46 -232 -74 q-136 -27 -267 -27h-9q-164 0 -315 63t-261 169.5t-175.5 254t-65.5 308.5z" />
<glyph unicode="D" horiz-adv-x="1599" d="M39 0l158 123v1270l-158 123h620q184 0 346.5 -58t278 -157.5t182 -237.5t66.5 -293q0 -213 -113 -389.5t-313.5 -278.5t-446.5 -102h-620zM453 43h192q176 0 314 92.5t215 258t77 376.5q0 204 -77 364.5t-214.5 249.5t-312.5 89h-194v-1430z" />
<glyph unicode="E" horiz-adv-x="1394" d="M39 0l158 123v1270l-158 123h1173v-39l58 -404l-299 400h-518v-662h319l164 264v-571l-164 266h-319v-727h585l301 455l-55 -459v-39h-1245z" />
<glyph unicode="F" horiz-adv-x="1363" d="M39 0l158 117v1276l-158 123h1225v-39l57 -416l-311 412h-557v-662h344l164 264v-571l-164 266h-344v-657l186 -113h-600z" />
<glyph unicode="G" horiz-adv-x="1691" d="M68 770q0 158 65 302t174.5 248t261 166t318.5 62q139 0 276 -25.5t223 -68.5v-33l56 -403q-130 254 -256 370q-126 115 -300 115h-3q-160 0 -282.5 -92.5t-188.5 -259t-66 -381.5q0 -337 144 -543.5t380 -206.5q134 0 242.5 79.5t155.5 215.5v412h-340v43h749l-157 -121 v-682l-164 160q-97 -71 -228 -111.5t-264 -40.5q-161 0 -308 63t-254 169.5t-170.5 254t-63.5 308.5z" />
<glyph unicode="H" horiz-adv-x="1603" d="M39 0l158 113v1290l-158 113h600l-186 -113v-565h696v565l-184 113h600l-158 -113v-1290l158 -113h-600l184 113v684h-696v-684l186 -113h-600z" />
<glyph unicode="I" horiz-adv-x="649" d="M39 0l158 113v1290l-158 113h573l-159 -113v-1290l159 -113h-573z" />
<glyph unicode="J" horiz-adv-x="641" d="M-373 -242q0 47 30 78t77 31q38 0 68.5 -26.5t51.5 -64.5t42.5 -76t52 -64.5t69.5 -26.5q52 0 87.5 28t55 85.5t28 133t8.5 183.5v1364l-164 113h579l-159 -113v-1380q0 -203 -135.5 -329t-344.5 -126q-154 0 -250 54.5t-96 135.5z" />
<glyph unicode="K" horiz-adv-x="1617" d="M39 0l158 113v1292l-158 111h588l-174 -111v-567h82l690 678h305l-848 -596l946 -920h-358l-817 805v-692l159 -113h-573z" />
<glyph unicode="L" horiz-adv-x="1368" d="M39 0l158 117v1286l-158 113h600l-186 -113v-1356h551l313 500l-60 -508v-39h-1218z" />
<glyph unicode="M" horiz-adv-x="2033" d="M27 0l217 117v1276l-168 123h422l563 -1178h29l503 1178h404l-160 -113v-1290l160 -113h-574l158 113v1185h-25l-591 -1361l-650 1361h-20v-1181l217 -117h-485z" />
<glyph unicode="N" horiz-adv-x="1691" d="M27 0l217 123v1229l-160 157l348 29l942 -1102h27v957l-217 123h487l-217 -123v-1456l-1135 1325h-24v-1139l217 -123h-485z" />
<glyph unicode="O" horiz-adv-x="1679" d="M68 770q0 157 62 301.5t166 248.5t246.5 166t297.5 62t298 -62t247 -166t166.5 -248.5t62.5 -301.5q0 -129 -40 -250.5t-112.5 -219t-168 -171.5t-213 -114t-240.5 -40q-153 0 -295.5 63t-247 169.5t-167 254t-62.5 308.5zM344 770q0 -350 132.5 -550t363.5 -200 q230 0 362.5 198.5t132.5 551.5q0 341 -132 537t-363 196q-230 0 -363 -195t-133 -538z" />
<glyph unicode="P" horiz-adv-x="1398" d="M39 0l158 113v1280l-158 123h690q171 0 310.5 -54.5t218.5 -150.5t79 -213q0 -187 -173.5 -311.5t-434.5 -124.5h-276v-549l186 -113h-600zM453 702h249q162 0 265.5 111t103.5 285q0 166 -103 270.5t-266 104.5h-249v-771z" />
<glyph unicode="Q" horiz-adv-x="1673" d="M68 770q0 157 61.5 301.5t165.5 248.5t247 166t298 62q209 0 387 -104.5t282.5 -284t104.5 -389.5q0 -129 -39.5 -250.5t-111.5 -219t-167.5 -171.5t-213 -114t-242.5 -40q-40 0 -60 2v-26l885 -195l-229 -200l-908 487q-220 119 -340 311t-120 416zM344 770 q0 -346 134 -548t362 -202t361.5 201.5t133.5 548.5q0 337 -134 535t-361 198t-361.5 -198t-134.5 -535z" />
<glyph unicode="R" horiz-adv-x="1521" d="M39 0l158 113v1280l-158 123h672q249 0 411 -106t162 -263q0 -130 -112.5 -232.5t-297.5 -140.5v-35l652 -739h-330l-627 745h-116v-632l159 -113h-573zM453 788h200q169 0 269 98t100 253q0 151 -95.5 242.5t-258.5 91.5h-215v-685z" />
<glyph unicode="S" horiz-adv-x="1224" d="M72 553q106 -260 258 -398.5t334 -138.5q131 0 212.5 76.5t81.5 200.5q0 69 -29.5 123.5t-79 92.5t-113.5 69.5t-135 59t-142 56t-135 66.5t-113.5 84t-79 114.5t-29.5 153.5q0 188 149 312t376 124q106 0 219.5 -26.5t200.5 -71.5v-35l61 -391q-223 481 -530 481 q-128 0 -210.5 -77t-82.5 -195q0 -63 29.5 -114t79 -86t113.5 -65t135 -57.5t142 -56.5t135 -68.5t113.5 -87.5t79 -119.5t29.5 -158.5q0 -194 -140 -319.5t-366 -125.5q-125 0 -265 22.5t-235 57.5v35z" />
<glyph unicode="T" horiz-adv-x="1550" d="M51 1036l70 441v39h1309v-39l69 -441l-334 437h-262v-1360l187 -113h-629l186 113v1360h-262z" />
<glyph unicode="U" horiz-adv-x="1540" d="M16 1516h574l-158 -123l2 -889q0 -166 120 -273.5t304 -107.5q177 0 290.5 105t113.5 268v897l-218 123h488l-217 -123l2 -916q0 -218 -157.5 -360t-399.5 -142q-255 0 -419.5 135.5t-164.5 344.5v938z" />
<glyph unicode="V" horiz-adv-x="1640" d="M23 1516h686l-215 -125l446 -1026h29l393 1026l-223 125h479l-201 -127l-569 -1455l-647 1452z" />
<glyph unicode="W" horiz-adv-x="2437" d="M23 1516h688l-213 -130l444 -1019h29l225 612l-176 405l-199 132h717l-227 -132l436 -1017h31l383 1022l-226 127h482l-199 -125l-561 -1457l-430 979l-371 -979l-651 1450z" />
<glyph unicode="X" horiz-adv-x="1619" d="M18 0l213 131l461 586l-465 669l-194 130h735l-227 -130l338 -487h32l361 487l-232 130h500l-209 -130l-411 -548l489 -707l197 -131h-734l228 129l-367 530h-35l-409 -530l229 -129h-500z" />
<glyph unicode="Y" horiz-adv-x="1546" d="M25 1516h700l-225 -130l379 -655h32l363 658l-223 127h475l-199 -127l-407 -727v-549l172 -113h-603l173 113v495l-459 781z" />
<glyph unicode="Z" horiz-adv-x="1312" d="M51 0l873 1473h-531l-315 -416l63 420v39h1096l-872 -1473h587l318 459l-66 -465v-37h-1153z" />
<glyph unicode="[" horiz-adv-x="706" d="M166 -475v2099h536v-35h-319v-2029h319v-35h-536z" />
<glyph unicode="\" horiz-adv-x="690" d="M4 1567h49l633 -1813h-51z" />
<glyph unicode="]" horiz-adv-x="706" d="M4 -440h320v2029h-320v35h537v-2099h-537v35z" />
<glyph unicode="^" horiz-adv-x="804" d="M84 829l317 578l318 -578h-51l-267 482l-264 -482h-53z" />
<glyph unicode="_" horiz-adv-x="1206" d="M123 -25h958v-49h-958v49z" />
<glyph unicode="`" horiz-adv-x="862" d="M193 1647h268l131 -476z" />
<glyph unicode="a" horiz-adv-x="1124" d="M66 725q0 63 67.5 129t161.5 112.5t189.5 76.5t154.5 30q146 0 236 -88t90 -229v-594l135 -39l-377 -148v238q-220 -238 -410 -238q-107 0 -174 61t-67 157q0 29 11.5 58.5t29 54.5t48.5 51.5t59.5 47.5t73 46t79 42.5t87.5 42t87.5 39t90.5 38t85 36.5v99 q0 110 -62 180.5t-157 70.5q-72 0 -127 -36q-32 -21 -50 -65.5t-26.5 -91.5t-19.5 -92t-38 -73.5t-73 -28.5t-75 31.5t-29 81.5zM311 268q0 -72 46 -117t118 -45q112 0 248 154v354q-76 -32 -130.5 -58t-111 -60t-91.5 -67t-57 -74.5t-22 -86.5z" />
<glyph unicode="b" horiz-adv-x="1245" d="M-4 1518l387 170v-791q257 176 371 176q196 0 318 -143.5t122 -374.5q0 -258 -148.5 -419t-396.5 -161q-94 0 -189.5 29t-168.5 80l-152 -109v1483zM383 295q15 -131 90.5 -209t177.5 -78q126 0 204.5 132.5t78.5 342.5q0 207 -91 339t-229 132q-78 0 -231 -90v-569z" />
<glyph unicode="c" horiz-adv-x="1034" d="M59 504q0 250 145.5 409.5t368.5 159.5q159 0 270 -69.5t111 -163.5q0 -47 -27.5 -78t-70.5 -31q-48 0 -78 32t-45.5 77.5t-31.5 90.5t-47 77t-81 32q-119 0 -193.5 -123t-74.5 -311q0 -201 98.5 -326.5t260.5 -125.5q252 0 337 280q-32 -215 -151.5 -337t-294.5 -122 q-220 0 -358 145t-138 384z" />
<glyph unicode="d" horiz-adv-x="1267" d="M51 500q0 258 144.5 415.5t377.5 157.5q160 0 287 -78l2 463l-143 60l387 170v-1524l133 -41l-379 -154v178q-78 -51 -126.5 -80t-124 -60.5t-126.5 -31.5q-193 0 -312.5 146t-119.5 379zM309 571q0 -217 87 -349t227 -132q85 0 237 90v535q-9 141 -82 232t-178 91 q-132 0 -211.5 -128t-79.5 -339z" />
<glyph unicode="e" horiz-adv-x="1042" d="M59 500q0 251 141.5 412t360.5 161q183 0 296.5 -109t113.5 -286v-16h-664q0 -12 -1 -33t-1 -33q0 -198 99 -323.5t260 -125.5q250 0 337 287q-32 -215 -151.5 -337t-294.5 -122q-219 0 -357.5 145t-138.5 380zM311 694h361q69 0 69 84q0 106 -51.5 184t-128.5 78 q-95 0 -163 -94.5t-87 -251.5z" />
<glyph unicode="f" horiz-adv-x="735" d="M43 954l164 133v150q0 204 151.5 333.5t389.5 129.5q157 0 259.5 -53t102.5 -140q0 -44 -28.5 -74t-69.5 -30q-45 0 -77.5 26.5t-52 64t-39.5 75t-53.5 64t-80.5 26.5q-124 0 -190 -110.5t-66 -321.5v-203h299v-86h-299v-848l151 -90h-524l127 90v805z" />
<glyph unicode="g" horiz-adv-x="1120" d="M-18 -313q0 74 69.5 132.5t173.5 86.5v18q-69 22 -108 68.5t-39 109.5q0 126 198 275q-77 53 -121 132t-44 169q0 166 126.5 280.5t309.5 114.5q66 0 152 -25.5t155 -25.5h244v-86h-221q100 -111 100 -258q0 -160 -125 -271.5t-305 -111.5q-137 0 -246 67 q-84 -71 -84 -141q0 -44 33.5 -71t87.5 -27h506q119 0 191.5 -54.5t72.5 -150.5t-64.5 -190.5t-162.5 -162t-218 -109.5t-229 -42q-194 0 -323 78t-129 195zM182 -238q0 -97 113 -160q108 -61 271 -61h16q183 3 303.5 76.5t120.5 177.5q0 111 -152 111h-487 q-87 0 -136 -40.5t-49 -103.5zM344 678q0 -164 54 -257t149 -93q91 0 142.5 92t51.5 258q0 170 -51.5 266t-142.5 96q-96 0 -149.5 -95.5t-53.5 -266.5z" />
<glyph unicode="h" horiz-adv-x="1253" d="M33 1518l387 170v-799q82 53 139 86.5t131 65.5t119 32q127 0 208 -85t81 -222v-676l127 -90h-508l137 90v664q0 86 -50.5 144t-123.5 58q-92 0 -260 -96v-770l139 -90h-510l127 90v1368z" />
<glyph unicode="i" horiz-adv-x="587" d="M43 903l387 170v-983l131 -90h-504l129 90v756zM158 1268v280h276v-280h-276z" />
<glyph unicode="j" horiz-adv-x="522" d="M-115 -541q133 37 203 153.5t70 305.5v928l-144 57l387 170v-1194q0 -172 -132 -280t-384 -140zM135 1268v280h279v-280h-279z" />
<glyph unicode="k" horiz-adv-x="1300" d="M33 1518l387 170v-1100h106l422 456h273l-564 -393l639 -651h-333l-543 567v-477l127 -90h-500l127 90v1370z" />
<glyph unicode="l" horiz-adv-x="575" d="M33 1518l387 170v-1598l127 -90h-500l127 90v1370z" />
<glyph unicode="m" horiz-adv-x="1871" d="M43 903l387 170v-162q249 162 354 162q91 0 162 -47t105 -129q268 176 379 176q125 0 206.5 -85.5t81.5 -221.5v-676l127 -90h-508l138 90v664q0 86 -51.5 144t-125.5 58q-92 0 -239 -84q14 -46 14 -106v-676l135 -90h-516l139 90v664q0 86 -50.5 144t-123.5 58 q-94 0 -227 -75v-791l137 -90h-510l129 90v754z" />
<glyph unicode="n" horiz-adv-x="1261" d="M43 903l387 170v-184q82 53 139 86.5t130 65.5t118 32q128 0 209.5 -85t81.5 -222v-676l127 -90h-510l139 90v664q0 86 -51 144t-125 58q-90 0 -258 -96v-770l137 -90h-510l129 90v754z" />
<glyph unicode="o" horiz-adv-x="1212" d="M59 532q0 109 44 209.5t117.5 173t175 115.5t212.5 43q148 0 273.5 -73t198.5 -197.5t73 -270.5q0 -151 -73 -279.5t-198.5 -203t-273.5 -74.5t-274.5 74.5t-200.5 203t-74 279.5zM322 530q0 -251 74 -386.5t212 -135.5q136 0 210.5 135t74.5 387q0 244 -74 377t-211 133 q-138 0 -212 -131t-74 -379z" />
<glyph unicode="p" horiz-adv-x="1269" d="M20 903l388 170v-176q79 52 126 81.5t120.5 62t121.5 32.5q197 0 320 -144t123 -374q0 -257 -149 -418.5t-396 -161.5q-143 0 -266 68v-453l139 -90h-510l127 90v1254zM408 295q15 -130 91.5 -208.5t178.5 -78.5q123 0 201.5 133t78.5 342q0 207 -91.5 340t-227.5 133 q-80 0 -231 -92v-569z" />
<glyph unicode="q" horiz-adv-x="1222" d="M51 500q0 258 144.5 415.5t377.5 157.5q102 0 199.5 -33t167.5 -90l166 127v-1487l127 -90h-510l137 90v562q-72 -49 -125 -82t-127 -64t-125 -31q-193 0 -312.5 146t-119.5 379zM309 571q0 -218 87 -351.5t227 -133.5q76 0 237 92v537q-9 141 -82 232t-178 91 q-132 0 -211.5 -128t-79.5 -339z" />
<glyph unicode="r" horiz-adv-x="933" d="M43 903l387 170v-201q65 87 145 144t164 57q76 0 124 -41t48 -106q0 -57 -31 -92t-81 -35q-41 0 -72.5 22.5t-48.5 49t-40.5 49t-49.5 22.5q-71 0 -158 -121v-731l152 -90h-525l129 90v756z" />
<glyph unicode="s" horiz-adv-x="937" d="M61 414q26 -67 69 -134t100 -129t132 -100.5t152 -38.5q90 0 146.5 52t56.5 135q0 48 -26.5 84.5t-70 59t-99 44.5t-114 39.5t-114 45.5t-99 60.5t-70 86t-26.5 122.5q0 144 112.5 238t289.5 94q176 0 305 -61v-37l41 -287q-85 165 -182 256.5t-215 91.5 q-86 0 -141.5 -47.5t-55.5 -122.5q0 -47 26.5 -83t70 -57.5t99.5 -43.5t114 -39.5t114 -46.5t99.5 -63.5t70 -91.5t26.5 -130q0 -149 -108 -242.5t-289 -93.5q-196 0 -360 52v39z" />
<glyph unicode="t" horiz-adv-x="821" d="M20 954l164 133v142l248 112v-317h346v-86h-346v-674q0 -72 51 -117t135 -45q65 0 131 34t105 89q-61 -110 -165.5 -180t-213.5 -70q-135 -1 -215 73q-76 70 -76 190v12l29 635z" />
<glyph unicode="u" horiz-adv-x="1271" d="M39 903l387 170v-784q0 -78 51.5 -133.5t128.5 -55.5q103 0 252 88v656l-143 59l387 170v-915l135 -41l-379 -148v191q-78 -52 -130 -84.5t-129.5 -66.5t-127.5 -34q-127 0 -208 84.5t-81 221.5v563z" />
<glyph unicode="v" horiz-adv-x="1228" d="M10 1044h600l-174 -102l289 -631h31l245 631l-184 102h404l-172 -104l-408 -1006l-479 1006z" />
<glyph unicode="w" horiz-adv-x="1802" d="M10 1044h572l-154 -102l274 -629h23l160 422l-92 209l-158 100h604l-178 -102l264 -629h23l229 633l-184 98h401l-170 -102l-385 -1008l-332 748l-293 -748l-454 1010z" />
<glyph unicode="x" horiz-adv-x="1234" d="M6 0l187 106l313 379l-324 457l-149 102h614l-172 -102l217 -305h27l233 305l-182 102h408l-177 -104l-276 -350l346 -488l158 -102h-629l180 100l-237 334h-33l-268 -336l176 -98h-412z" />
<glyph unicode="y" horiz-adv-x="1228" d="M10 1044h600l-174 -102l289 -631h31l245 631l-184 102h404l-172 -104l-394 -969l-174 -471h-307l444 482l-456 958z" />
<glyph unicode="z" horiz-adv-x="1015" d="M55 0l604 1010h-346l-223 -330l33 326v38h829l-604 -1009h379l231 358l-40 -354v-39h-863z" />
<glyph unicode="{" horiz-adv-x="868" d="M72 588q152 34 220 95.5t68 170.5q0 34 -34.5 248t-34.5 266q0 119 89.5 204t215.5 85q120 0 268 -101q-77 25 -127 25q-89 0 -154 -65t-65 -154q0 -50 35 -260t35 -242q0 -239 -361 -262v-18q60 -4 110 -13.5t96 -29t77.5 -48t50.5 -72.5t19 -100q0 -32 -35 -255.5 t-35 -272.5q0 -91 64 -155t153 -64q60 0 127 24q-53 -38 -125.5 -68t-140.5 -30q-126 0 -216.5 84t-90.5 201q0 53 34.5 281t34.5 260q0 109 -66.5 171t-211.5 95z" />
<glyph unicode="|" horiz-adv-x="454" d="M199 -246v1843h57v-1843h-57z" />
<glyph unicode="}" horiz-adv-x="868" d="M4 1556q148 101 268 101q126 0 216 -85t90 -204q0 -52 -35 -266t-35 -248q0 -109 68.5 -170.5t220.5 -95.5q-145 -33 -212 -95t-67 -171q0 -32 35 -259.5t35 -281.5q0 -117 -90.5 -201t-216.5 -84q-68 0 -141.5 30t-125.5 68q67 -24 127 -24q89 0 153 64t64 155 q0 49 -34.5 272.5t-34.5 255.5q0 70 27.5 120.5t78 79.5t110 43.5t136.5 19.5v18q-61 4 -111 13.5t-97.5 28.5t-80 47.5t-52 72.5t-19.5 100q0 32 34.5 242t34.5 260q0 89 -65 154t-154 65q-50 0 -127 -25z" />
<glyph unicode="~" horiz-adv-x="1400" d="M102 377q127 202 214 288.5t188 86.5q67 0 164.5 -33t193.5 -65.5t160 -32.5q78 0 139.5 32t136.5 125q-55 -80 -89 -126.5t-77.5 -98t-77.5 -78t-74.5 -44t-82.5 -17.5q-65 0 -165.5 32.5t-198.5 65.5t-156 33q-77 0 -138 -33t-137 -135z" />
<glyph unicode="&#xa1;" horiz-adv-x="512" d="M106 -459l91 809q27 235 53 410q16 -107 51 -410l92 -809h-287zM117 815v291h278v-291h-278z" />
<glyph unicode="&#xa2;" horiz-adv-x="1128" d="M94 705q0 239 133 396t340 171v102h47v-100q156 -1 264.5 -71.5t108.5 -162.5q0 -47 -27.5 -77.5t-68.5 -30.5q-48 0 -78.5 31t-46 75.5l-31 89t-45 77.5t-76.5 36v-876q50 -11 82 -11q253 0 338 281q-31 -207 -142.5 -328.5t-277.5 -130.5v-282h-47v282 q-212 8 -342.5 152t-130.5 377zM338 807q0 -157 61 -270.5t168 -157.5v858q-102 -20 -165.5 -139.5t-63.5 -290.5z" />
<glyph unicode="&#xa3;" horiz-adv-x="1187" d="M82 0v236q129 0 212 73.5t83 190.5q0 37 -14.5 83t-30 78t-45.5 89h-189v84h140q-91 170 -91 288q0 184 154 305t387 121q178 0 295 -63.5t117 -155.5q0 -43 -25 -70.5t-65 -27.5q-44 0 -76 28.5t-53.5 69t-44.5 81t-63 69t-97 28.5q-125 0 -202 -86t-77 -217 q0 -44 6 -84t22.5 -84.5t25.5 -65.5t35.5 -73.5t31.5 -62.5h436v-84h-401q49 -100 49 -175q0 -111 -83.5 -196.5t-223.5 -124.5v-18h842v-236h-1055z" />
<glyph unicode="&#xa4;" horiz-adv-x="1148" d="M109 283q0 36 35 64.5t101.5 63t96.5 56.5q-86 86 -86 223q0 134 86 223q-30 22 -96.5 56t-101.5 62.5t-35 64.5q0 28 18.5 45.5t46.5 17.5q29 0 55 -23t43 -53t44 -75.5t49 -73.5q87 74 210 74q124 0 207 -74q26 32 61.5 95.5t64.5 96.5t67 33q28 0 46.5 -17.5 t18.5 -45.5q0 -36 -36 -64.5t-102 -62.5t-97 -58q86 -92 86 -221q0 -132 -84 -223q30 -22 96.5 -56.5t101.5 -63t35 -64.5q0 -28 -18.5 -46t-46.5 -18q-37 0 -66 33.5t-64.5 97t-60.5 94.5q-85 -73 -209 -73q-125 0 -210 73q-25 -31 -60.5 -94.5t-64.5 -97t-66 -33.5 q-28 0 -46.5 18t-18.5 46zM332 690q0 -106 68.5 -178t172.5 -72q103 0 172.5 72t69.5 178q0 104 -69.5 176t-172.5 72q-104 0 -172.5 -71.5t-68.5 -176.5z" />
<glyph unicode="&#xa5;" horiz-adv-x="1523" d="M25 1516h690l-217 -109l372 -594h41l344 594l-237 109h483l-196 -113l-390 -666v-28h373v-39h-375v-103h375v-39h-375v-415l174 -113h-602l172 113v415h-374v39h374v103h-374v39h354l-436 696z" />
<glyph unicode="&#xa6;" horiz-adv-x="454" d="M199 -246v832h57v-832h-57zM199 791v806h57v-806h-57z" />
<glyph unicode="&#xa7;" horiz-adv-x="2048" d="M547 354q23 -63 53 -119t74.5 -110t97.5 -92.5t124.5 -62t152.5 -23.5q120 0 189 49.5t69 140.5q0 58 -42 100.5t-109 68t-148 48t-162 48.5t-148 60.5t-109 93t-42 136.5q0 85 63 156t170 108v19q-198 91 -198 254q0 135 132.5 227t334.5 92q107 0 208.5 -20.5 t165.5 -52.5v-39l41 -283q-39 79 -81.5 139.5t-98 111.5t-126.5 78t-154 27q-117 0 -194 -47.5t-77 -118.5q0 -57 42.5 -99t110.5 -68.5t150 -50t164 -50.5t150 -62t110.5 -93.5t42.5 -135.5q0 -85 -58 -157.5t-155 -112.5v-18q191 -89 191 -244q0 -150 -130.5 -246 t-344.5 -96q-103 0 -217 17t-189 44v37zM678 815q0 -50 32.5 -88t94 -65t123.5 -46.5t149.5 -44.5t143.5 -47q65 9 108 45.5t43 85.5q0 47 -30.5 83t-88.5 62.5t-116.5 46t-141.5 45.5t-137 48q-79 -6 -129.5 -41t-50.5 -84z" />
<glyph unicode="&#xa8;" horiz-adv-x="862" d="M94 1288v252h248v-252h-248zM520 1288v252h246v-252h-246z" />
<glyph unicode="&#xa9;" horiz-adv-x="1693" d="M59 745q0 161 62.5 307.5t168 252t251 167.5t305.5 62q161 0 306.5 -62t251 -167.5t168 -252t62.5 -307.5q0 -160 -62.5 -305t-167.5 -250t-251 -167t-307 -62q-160 0 -305.5 62t-251 167t-168 250t-62.5 305zM150 745q0 -193 93 -355t253 -255.5t350 -93.5 q114 0 220.5 35t192 100t149.5 151t99 194t35 224q0 146 -54.5 277.5t-148 226t-222 150t-271.5 55.5q-142 0 -271 -55.5t-222 -150t-148 -226t-55 -277.5zM446 733q0 203 131.5 339t325.5 136q129 0 246 -57v-27l33 -266q-61 152 -135.5 234t-155.5 82q-121 0 -205 -111.5 t-84 -274.5q0 -161 91 -264.5t233 -103.5q107 0 188.5 61.5t110.5 165.5q-29 -168 -123 -262t-232 -94q-183 0 -303.5 125t-120.5 317z" />
<glyph unicode="&#xaa;" horiz-adv-x="708" d="M55 1049q0 19 7.5 37t23 35t33 32t45 30.5t49.5 27.5t56 27.5t56.5 25t58.5 24.5t54 23v49q0 61 -35 99t-90 38q-36 0 -75 -24q-17 -13 -27 -49t-14.5 -69.5t-23.5 -60t-52 -26.5q-27 0 -44.5 17t-17.5 44q0 52 65.5 105.5t141.5 83.5t121 30q91 0 146 -50t55 -132v-324 l80 -24l-230 -92v143q-63 -68 -118.5 -105.5t-118.5 -37.5q-62 0 -104 35t-42 88zM217 1104q0 -39 23.5 -63.5t58.5 -24.5q60 0 139 86v182q-113 -44 -167 -83t-54 -97zM233 518v291h277v-291h-277z" />
<glyph unicode="&#xab;" horiz-adv-x="921" d="M39 547l459 381l-174 -381l174 -381zM424 549l459 381l-174 -381l174 -381z" />
<glyph unicode="&#xac;" horiz-adv-x="1060" d="M59 715v45h859v-522h-52v477h-807z" />
<glyph unicode="&#xad;" horiz-adv-x="733" d="M123 522v107h485v-107h-485z" />
<glyph unicode="&#xae;" horiz-adv-x="1230" d="M68 987q0 111 43.5 212t116.5 174.5t174.5 117t213.5 43.5q149 0 275 -73.5t199 -199.5t73 -274q0 -149 -73 -275.5t-199 -200t-275 -73.5t-275 73.5t-199.5 200t-73.5 275.5zM150 987q0 -96 37 -184.5t99.5 -152.5t149 -102t180.5 -38q125 0 231.5 64t169 174t62.5 239 q0 195 -136.5 335t-326.5 140q-126 0 -233.5 -64t-170 -173.5t-62.5 -237.5zM358 711l60 63v457l-56 63h248q104 0 169 -40t65 -105q0 -56 -48 -95.5t-122 -47.5l270 -295h-145l-250 290h-21v-227l66 -63h-236zM528 1020h74q56 0 90.5 35.5t34.5 93.5q0 55 -34.5 89 t-90.5 34h-74v-252z" />
<glyph unicode="&#xaf;" horiz-adv-x="862" d="M141 1327v121h578v-121h-578z" />
<glyph unicode="&#xb0;" horiz-adv-x="813" d="M59 1212q0 136 104 236t247 100q141 0 242.5 -99.5t101.5 -236.5q0 -141 -101.5 -241.5t-242.5 -100.5q-143 0 -247 100.5t-104 241.5zM139 1212q0 -114 79 -194t192 -80q110 0 188 80t78 194q0 109 -78 187t-188 78q-112 0 -191.5 -78t-79.5 -187z" />
<glyph unicode="&#xb1;" horiz-adv-x="1026" d="M84 166v45h856v-45h-856zM84 729v45h405v363h48v-363h403v-45h-403v-364h-48v364h-405z" />
<glyph unicode="&#xb2;" horiz-adv-x="516" d="M20 1352q0 42 50.5 87.5t117 74t115.5 28.5q71 0 117.5 -40t46.5 -103q0 -28 -11.5 -56.5t-25 -50t-46.5 -54t-54.5 -51.5t-71.5 -61.5t-76 -64.5h310v-125h-459q153 148 219.5 248.5t66.5 197.5q0 50 -24.5 82.5t-63.5 32.5q-34 0 -59 -22q-16 -14 -24.5 -46t-11 -60 t-17.5 -50.5t-45 -22.5q-22 0 -38 16.5t-16 39.5z" />
<glyph unicode="&#xb3;" horiz-adv-x="618" d="M59 1092q0 25 17.5 42t44.5 17q33 0 48 -22.5t15.5 -50.5t5 -57.5t17.5 -39.5q28 -16 61 -16q56 0 89.5 39t33.5 100q0 54 -32 86.5t-87 32.5q-36 0 -79 -17q34 22 55.5 37.5t50 41.5t43 56.5t14.5 63.5q0 40 -21 67t-54 27q-32 0 -56 -18q-15 -12 -22 -42.5t-8.5 -57.5 t-16.5 -48.5t-45 -21.5q-25 0 -39 15t-14 40q0 57 96 116.5t172 59.5q68 0 110 -31t42 -79q0 -26 -14.5 -51t-31 -41t-52.5 -36.5t-54 -29t-61 -27.5q21 6 61 6q86 0 140.5 -41.5t54.5 -111.5q0 -78 -65.5 -126t-166.5 -48q-43 0 -101.5 23.5t-104.5 63.5t-46 79z" />
<glyph unicode="&#xb4;" horiz-adv-x="862" d="M260 1171l131 476h268z" />
<glyph unicode="&#xb5;" horiz-adv-x="1253" d="M20 903l388 170v-784q0 -78 51.5 -133.5t128.5 -55.5q103 0 252 88v656l-144 59l387 170v-915l136 -41l-379 -148v191q-270 -185 -387 -185q-10 0 -45 5v-351l133 -47l-377 -147l2 809q-2 12 -2 37v563z" />
<glyph unicode="&#xb6;" horiz-adv-x="2048" d="M348 1038q0 129 69 239t186 174.5t253 64.5h817l-157 -119v-1409q0 -185 -132 -299.5t-346 -114.5q-157 0 -260.5 54.5t-103.5 140.5q0 44 29 73t75 29q39 0 69.5 -26.5t53 -64t46 -75t61 -64t86.5 -26.5q117 0 173 98.5t56 298.5v1465h-129v-1663h-186v737h-152 q-136 0 -253 65.5t-186 178t-69 243.5z" />
<glyph unicode="&#xb7;" horiz-adv-x="446" d="M84 459v291h278v-291h-278z" />
<glyph unicode="&#xb8;" horiz-adv-x="862" d="M256 -246l172 246h33l-45 -111l112 -69q82 -52 82 -129q0 -89 -90.5 -157t-226.5 -77q71 22 111 57.5t40 77.5q0 26 -12.5 41.5t-40.5 32.5z" />
<glyph unicode="&#xb9;" horiz-adv-x="434" d="M43 1460l260 80v-536l98 -68h-338l99 68v411z" />
<glyph unicode="&#xba;" horiz-adv-x="708" d="M45 1241q0 126 91.5 216.5t219.5 90.5q126 0 217 -90.5t91 -216.5q0 -130 -91 -222.5t-217 -92.5q-128 0 -219.5 92.5t-91.5 222.5zM207 1241q0 -138 39 -213.5t110 -75.5q69 0 107.5 75.5t38.5 213.5q0 133 -38.5 207t-107.5 74q-71 0 -110 -74t-39 -207zM217 518v291 h277v-291h-277z" />
<glyph unicode="&#xbb;" horiz-adv-x="919" d="M39 168l174 381l-174 381l459 -381zM422 166l174 381l-174 381l459 -381z" />
<glyph unicode="&#xbc;" horiz-adv-x="905" d="M127 737v47h651v-47h-651zM166 152l440 491v-403h94v-88h-94v-93l58 -59h-267l70 59v93h-301zM270 1460l260 80v-536l99 -68h-338l96 68v411zM279 240h188v209z" />
<glyph unicode="&#xbd;" horiz-adv-x="905" d="M127 737v47h651v-47h-651zM231 416q0 42 50.5 87.5t117 74t115.5 28.5q71 0 116.5 -40t45.5 -103q0 -28 -11.5 -56.5t-24.5 -49.5t-46.5 -54.5t-53.5 -51.5t-71.5 -61.5t-75.5 -64.5h309v-125h-458q153 148 219.5 248.5t66.5 197.5q0 50 -24.5 82.5t-63.5 32.5 q-34 0 -59 -22q-16 -14 -24.5 -46t-11 -60t-17.5 -50.5t-45 -22.5q-23 0 -38.5 16.5t-15.5 39.5zM274 1460l263 80v-536l98 -68h-338l96 68v411z" />
<glyph unicode="&#xbe;" horiz-adv-x="905" d="M127 737v47h651v-47h-651zM170 152l440 491v-403h95v-88h-95v-93l58 -59h-267l70 59v93h-301zM221 1092q0 25 16.5 42t43.5 17q33 0 48 -22.5t16 -50.5t5.5 -57.5t18.5 -39.5q28 -16 61 -16q55 0 89 39t34 100q0 54 -33 86.5t-88 32.5q-34 0 -80 -17q36 23 56.5 37.5 t50.5 41.5t44.5 57t14.5 63q0 40 -22 67t-54 27q-34 0 -55 -18q-15 -12 -22 -42.5t-9.5 -57.5t-17.5 -48.5t-45 -21.5q-25 0 -39 15t-14 40q0 57 96 116.5t172 59.5q68 0 111 -31t43 -79q0 -22 -8 -42t-28.5 -38.5t-34 -30t-48.5 -29t-46 -22.5t-51 -23q21 6 62 6 q87 0 140.5 -41.5t53.5 -111.5q0 -78 -64.5 -126t-164.5 -48q-44 0 -102.5 23.5t-104 63.5t-45.5 79zM283 240h188v209z" />
<glyph unicode="&#xbf;" horiz-adv-x="897" d="M18 -37q0 127 63 218t155 122l229 88q29 13 41 32.5t12 51.5v176q127 -217 127 -321q0 -128 -147 -183l-238 -88q-39 -14 -64 -26.5t-53.5 -33.5t-42.5 -51t-14 -69q0 -116 120.5 -197t280.5 -81q56 0 100.5 17t72.5 41.5t52.5 49t53 41.5t61.5 17q42 0 70.5 -30 t28.5 -73q0 -76 -84.5 -120t-223.5 -44q-169 0 -307.5 62.5t-215.5 168.5t-77 232zM373 774v289h276v-289h-276z" />
<glyph unicode="&#xc0;" d="M20 0l197 113l506 1224l-100 148l307 53l602 -1429l164 -109h-670l217 106l-180 433h-619l-170 -426l234 -113h-488zM446 2023h287l172 -401zM463 582h581l-284 680h-23z" />
<glyph unicode="&#xc1;" d="M20 0l197 113l506 1224l-100 148l307 53l602 -1429l164 -109h-670l217 106l-180 433h-619l-170 -426l234 -113h-488zM463 582h581l-284 680h-23zM702 1622l172 401h287z" />
<glyph unicode="&#xc2;" d="M20 0l197 113l506 1224l-100 148l307 53l602 -1429l164 -109h-670l217 106l-180 433h-619l-170 -426l234 -113h-488zM463 582h581l-284 680h-23zM498 1620l309 401l307 -401l-307 180z" />
<glyph unicode="&#xc3;" d="M20 0l197 113l506 1224l-100 148l307 53l602 -1429l164 -109h-670l217 106l-180 433h-619l-170 -426l234 -113h-488zM461 1659q119 295 239 295q32 0 136 -34t147 -34q49 0 94.5 36.5t71.5 96.5q-26 -137 -83 -223t-134 -86q-38 0 -145 35t-154 35q-43 0 -89 -32.5 t-83 -88.5zM463 582h581l-284 680h-23z" />
<glyph unicode="&#xc4;" d="M20 0l197 113l506 1224l-100 148l307 53l602 -1429l164 -109h-670l217 106l-180 433h-619l-170 -426l234 -113h-488zM463 582h581l-284 680h-23zM469 1702v250h248v-250h-248zM895 1702v252h246v-252h-246z" />
<glyph unicode="&#xc5;" d="M20 0l197 113l506 1224l-100 148l307 53l602 -1429l164 -109h-670l217 106l-180 433h-619l-170 -426l234 -113h-488zM463 582h581l-284 680h-23zM606 1827q0 78 60 134t143 56q80 0 137.5 -56t57.5 -134q0 -82 -57.5 -140.5t-137.5 -58.5q-83 0 -143 58.5t-60 140.5z M686 1823q0 -51 34.5 -86t84.5 -35q51 0 86 35t35 86t-35 86t-86 35q-50 0 -84.5 -35t-34.5 -86z" />
<glyph unicode="&#xc6;" horiz-adv-x="2207" d="M20 0l199 113l746 1337v66h1058v-39l60 -404l-301 400h-510v-662h313l164 264v-571l-164 266h-313v-727h579l301 455l-55 -459v-39h-1241l158 123v416h-500l-235 -424l223 -115h-482zM537 580h477v825h-23z" />
<glyph unicode="&#xc7;" horiz-adv-x="1509" d="M68 770q0 210 109 389.5t296 284t406 104.5q134 0 273 -27.5t230 -72.5v-35l56 -395q-111 244 -248 365t-311 120q-240 0 -386.5 -203t-146.5 -530q0 -338 147 -544t392 -206q175 -1 315 129t260 400l-67 -438v-35q-91 -46 -232 -74t-276 -27h-13l-34 -86l112 -69 q82 -52 82 -129q0 -89 -90.5 -157t-226.5 -77q71 22 111 57.5t40 77.5q0 26 -12.5 41.5t-40.5 32.5l-135 88l156 223q-157 9 -298.5 75.5t-244 171.5t-163 248t-60.5 298z" />
<glyph unicode="&#xc8;" horiz-adv-x="1394" d="M39 0l158 123v1270l-158 123h1173v-39l58 -404l-299 400h-518v-662h319l164 264v-571l-164 266h-319v-727h585l301 455l-55 -459v-39h-1245zM311 2023h287l172 -401z" />
<glyph unicode="&#xc9;" horiz-adv-x="1394" d="M39 0l158 123v1270l-158 123h1173v-39l58 -404l-299 400h-518v-662h319l164 264v-571l-164 266h-319v-727h585l301 455l-55 -459v-39h-1245zM567 1622l172 401h287z" />
<glyph unicode="&#xca;" horiz-adv-x="1394" d="M39 0l158 123v1270l-158 123h1173v-39l58 -404l-299 400h-518v-662h319l164 264v-571l-164 266h-319v-727h585l301 455l-55 -459v-39h-1245zM362 1620l310 401l307 -401l-307 180z" />
<glyph unicode="&#xcb;" horiz-adv-x="1394" d="M39 0l158 123v1270l-158 123h1173v-39l58 -404l-299 400h-518v-662h319l164 264v-571l-164 266h-319v-727h585l301 455l-55 -459v-39h-1245zM334 1702v250h248v-250h-248zM760 1702v252h246v-252h-246z" />
<glyph unicode="&#xcc;" horiz-adv-x="649" d="M-33 2023h287l172 -401zM39 0l158 113v1290l-158 113h573l-159 -113v-1290l159 -113h-573z" />
<glyph unicode="&#xcd;" horiz-adv-x="649" d="M39 0l158 113v1290l-158 113h573l-159 -113v-1290l159 -113h-573zM221 1622l172 401h287z" />
<glyph unicode="&#xce;" horiz-adv-x="649" d="M18 1620l310 401l307 -401l-307 180zM39 0l158 113v1290l-158 113h573l-159 -113v-1290l159 -113h-573z" />
<glyph unicode="&#xcf;" horiz-adv-x="649" d="M-10 1702v250h248v-250h-248zM39 0l158 113v1290l-158 113h573l-159 -113v-1290l159 -113h-573zM416 1702v252h246v-252h-246z" />
<glyph unicode="&#xd0;" horiz-adv-x="1599" d="M39 0l158 123v635h-142v39h142v596l-158 123h620q184 0 346.5 -58t278 -157.5t182 -237.5t66.5 -293q0 -213 -113 -389.5t-313.5 -278.5t-446.5 -102h-620zM453 43h192q176 0 314 92.5t215 258t77 376.5q0 204 -77 364.5t-214.5 249.5t-312.5 89h-194v-676h368v-39h-368 v-715z" />
<glyph unicode="&#xd1;" horiz-adv-x="1691" d="M27 0l217 123v1229l-160 157l348 29l942 -1102h27v957l-217 123h487l-217 -123v-1456l-1135 1325h-24v-1139l217 -123h-485zM512 1659q56 139 117.5 217t122.5 78q32 0 135.5 -34t146.5 -34q49 0 94.5 36.5t71.5 96.5q-26 -137 -83 -223t-134 -86q-37 0 -144.5 35 t-154.5 35q-43 0 -89 -32.5t-83 -88.5z" />
<glyph unicode="&#xd2;" horiz-adv-x="1679" d="M68 770q0 157 62 301.5t166 248.5t246.5 166t297.5 62t298 -62t247 -166t166.5 -248.5t62.5 -301.5q0 -129 -40 -250.5t-112.5 -219t-168 -171.5t-213 -114t-240.5 -40q-153 0 -295.5 63t-247 169.5t-167 254t-62.5 308.5zM344 770q0 -350 132.5 -550t363.5 -200 q230 0 362.5 198.5t132.5 551.5q0 341 -132 537t-363 196q-230 0 -363 -195t-133 -538zM481 2023h287l172 -401z" />
<glyph unicode="&#xd3;" horiz-adv-x="1679" d="M68 770q0 157 62 301.5t166 248.5t246.5 166t297.5 62t298 -62t247 -166t166.5 -248.5t62.5 -301.5q0 -129 -40 -250.5t-112.5 -219t-168 -171.5t-213 -114t-240.5 -40q-153 0 -295.5 63t-247 169.5t-167 254t-62.5 308.5zM344 770q0 -350 132.5 -550t363.5 -200 q230 0 362.5 198.5t132.5 551.5q0 341 -132 537t-363 196q-230 0 -363 -195t-133 -538zM735 1622l172 401h287z" />
<glyph unicode="&#xd4;" horiz-adv-x="1679" d="M68 770q0 157 62 301.5t166 248.5t246.5 166t297.5 62t298 -62t247 -166t166.5 -248.5t62.5 -301.5q0 -129 -40 -250.5t-112.5 -219t-168 -171.5t-213 -114t-240.5 -40q-153 0 -295.5 63t-247 169.5t-167 254t-62.5 308.5zM344 770q0 -350 132.5 -550t363.5 -200 q230 0 362.5 198.5t132.5 551.5q0 341 -132 537t-363 196q-230 0 -363 -195t-133 -538zM530 1620l310 401l307 -401l-307 180z" />
<glyph unicode="&#xd5;" horiz-adv-x="1679" d="M68 770q0 157 62 301.5t166 248.5t246.5 166t297.5 62t298 -62t247 -166t166.5 -248.5t62.5 -301.5q0 -129 -40 -250.5t-112.5 -219t-168 -171.5t-213 -114t-240.5 -40q-153 0 -295.5 63t-247 169.5t-167 254t-62.5 308.5zM344 770q0 -350 132.5 -550t363.5 -200 q230 0 362.5 198.5t132.5 551.5q0 341 -132 537t-363 196q-230 0 -363 -195t-133 -538zM494 1659q119 295 239 295q32 0 136 -34t147 -34q49 0 94.5 36.5t71.5 96.5q-26 -137 -83 -223t-134 -86q-37 0 -145 35t-154 35q-43 0 -89 -32.5t-83 -88.5z" />
<glyph unicode="&#xd6;" horiz-adv-x="1679" d="M68 770q0 157 62 301.5t166 248.5t246.5 166t297.5 62t298 -62t247 -166t166.5 -248.5t62.5 -301.5q0 -129 -40 -250.5t-112.5 -219t-168 -171.5t-213 -114t-240.5 -40q-153 0 -295.5 63t-247 169.5t-167 254t-62.5 308.5zM344 770q0 -350 132.5 -550t363.5 -200 q230 0 362.5 198.5t132.5 551.5q0 341 -132 537t-363 196q-230 0 -363 -195t-133 -538zM502 1702v250h248v-250h-248zM928 1702v252h246v-252h-246z" />
<glyph unicode="&#xd7;" horiz-adv-x="1007" d="M84 256l387 383l-387 385h68l354 -352l350 352h68l-385 -383l385 -385h-68l-352 352l-352 -352h-68z" />
<glyph unicode="&#xd8;" horiz-adv-x="1679" d="M68 770q0 157 62 301.5t166 248.5t246.5 166t297.5 62q276 0 493 -182l129 150h58l-154 -179q117 -110 182.5 -256.5t65.5 -310.5q0 -129 -40 -250.5t-112.5 -219t-168 -171.5t-213 -114t-240.5 -40q-134 0 -259.5 47.5t-226.5 133.5l-135 -156h-55l158 184 q-119 113 -186.5 265t-67.5 321zM344 770q0 -270 88 -457l799 932q-62 126 -161.5 192t-229.5 66q-230 0 -363 -195t-133 -538zM453 272q63 -123 161.5 -187.5t225.5 -64.5q230 0 362.5 198.5t132.5 551.5q0 255 -84 434z" />
<glyph unicode="&#xd9;" horiz-adv-x="1540" d="M16 1516h574l-158 -123l2 -889q0 -166 120 -273.5t304 -107.5q177 0 290.5 105t113.5 268v897l-218 123h488l-217 -123l2 -916q0 -218 -157.5 -360t-399.5 -142q-255 0 -419.5 135.5t-164.5 344.5v938zM440 2023h287l172 -401z" />
<glyph unicode="&#xda;" horiz-adv-x="1540" d="M16 1516h574l-158 -123l2 -889q0 -166 120 -273.5t304 -107.5q177 0 290.5 105t113.5 268v897l-218 123h488l-217 -123l2 -916q0 -218 -157.5 -360t-399.5 -142q-255 0 -419.5 135.5t-164.5 344.5v938zM696 1622l172 401h287z" />
<glyph unicode="&#xdb;" horiz-adv-x="1540" d="M16 1516h574l-158 -123l2 -889q0 -166 120 -273.5t304 -107.5q177 0 290.5 105t113.5 268v897l-218 123h488l-217 -123l2 -916q0 -218 -157.5 -360t-399.5 -142q-255 0 -419.5 135.5t-164.5 344.5v938zM492 1620l309 401l307 -401l-307 180z" />
<glyph unicode="&#xdc;" horiz-adv-x="1540" d="M16 1516h574l-158 -123l2 -889q0 -166 120 -273.5t304 -107.5q177 0 290.5 105t113.5 268v897l-218 123h488l-217 -123l2 -916q0 -218 -157.5 -360t-399.5 -142q-255 0 -419.5 135.5t-164.5 344.5v938zM463 1702v250h248v-250h-248zM889 1702v252h246v-252h-246z" />
<glyph unicode="&#xdd;" horiz-adv-x="1546" d="M25 1516h700l-225 -130l379 -655h32l363 658l-223 127h475l-199 -127l-407 -727v-549l172 -113h-603l173 113v495l-459 781zM717 1622l172 401h287z" />
<glyph unicode="&#xde;" horiz-adv-x="1404" d="M39 0l158 102v1309l-158 105h573l-159 -105v-194h305q165 0 302.5 -56.5t215.5 -153.5t78 -212q0 -86 -46 -165.5t-124 -138.5t-189.5 -94t-236.5 -35h-305v-260l159 -102h-573zM453 399h278q158 0 258.5 112t100.5 284q0 170 -99 275.5t-260 105.5h-278v-777z" />
<glyph unicode="&#xdf;" horiz-adv-x="1456" d="M43 958l164 123v158q0 127 74 229.5t207 161t298 58.5q183 0 296.5 -69.5t113.5 -184.5q0 -66 -43.5 -123t-105.5 -98.5t-124 -81.5t-105.5 -89.5t-43.5 -105.5q0 -37 17.5 -67.5t55 -58t70 -45t89.5 -44.5l42 -21q47 -23 71.5 -35.5t67.5 -37.5t66.5 -44t54 -49.5 t46.5 -60.5t27.5 -70t11.5 -84q0 -152 -111.5 -248t-294.5 -96q-89 0 -187 14t-167 38v36l-53 345q28 -81 69.5 -150t97 -126t127.5 -89.5t152 -32.5q91 0 147 52t56 137q0 35 -14.5 66t-35 53t-57.5 46.5t-65.5 39t-77.5 39t-76 38.5q-45 24 -73.5 40.5t-66.5 46t-59.5 59 t-37 73t-15.5 93.5q0 68 32.5 130t78.5 112.5t92 102.5t78.5 122.5t32.5 150.5q0 105 -62 171.5t-164 66.5q-288 0 -288 -432v-1127l127 -90h-498l127 90v805z" />
<glyph unicode="&#xe0;" horiz-adv-x="1124" d="M66 725q0 63 67.5 129t161.5 112.5t189.5 76.5t154.5 30q146 0 236 -88t90 -229v-594l135 -39l-377 -148v238q-220 -238 -410 -238q-107 0 -174 61t-67 157q0 29 11.5 58.5t29 54.5t48.5 51.5t59.5 47.5t73 46t79 42.5t87.5 42t87.5 39t90.5 38t85 36.5v99 q0 110 -62 180.5t-157 70.5q-72 0 -127 -36q-32 -21 -50 -65.5t-26.5 -91.5t-19.5 -92t-38 -73.5t-73 -28.5t-75 31.5t-29 81.5zM213 1647h268l131 -476zM311 268q0 -72 46 -117t118 -45q112 0 248 154v354q-76 -32 -130.5 -58t-111 -60t-91.5 -67t-57 -74.5t-22 -86.5z" />
<glyph unicode="&#xe1;" horiz-adv-x="1124" d="M66 725q0 63 67.5 129t161.5 112.5t189.5 76.5t154.5 30q146 0 236 -88t90 -229v-594l135 -39l-377 -148v238q-220 -238 -410 -238q-107 0 -174 61t-67 157q0 29 11.5 58.5t29 54.5t48.5 51.5t59.5 47.5t73 46t79 42.5t87.5 42t87.5 39t90.5 38t85 36.5v99 q0 110 -62 180.5t-157 70.5q-72 0 -127 -36q-32 -21 -50 -65.5t-26.5 -91.5t-19.5 -92t-38 -73.5t-73 -28.5t-75 31.5t-29 81.5zM311 268q0 -72 46 -117t118 -45q112 0 248 154v354q-76 -32 -130.5 -58t-111 -60t-91.5 -67t-57 -74.5t-22 -86.5zM422 1171l131 476h268z" />
<glyph unicode="&#xe2;" horiz-adv-x="1124" d="M66 725q0 63 67.5 129t161.5 112.5t189.5 76.5t154.5 30q146 0 236 -88t90 -229v-594l135 -39l-377 -148v238q-220 -238 -410 -238q-107 0 -174 61t-67 157q0 29 11.5 58.5t29 54.5t48.5 51.5t59.5 47.5t73 46t79 42.5t87.5 42t87.5 39t90.5 38t85 36.5v99 q0 110 -62 180.5t-157 70.5q-72 0 -127 -36q-32 -21 -50 -65.5t-26.5 -91.5t-19.5 -92t-38 -73.5t-73 -28.5t-75 31.5t-29 81.5zM211 1169l309 451l307 -451l-307 222zM311 268q0 -72 46 -117t118 -45q112 0 248 154v354q-76 -32 -130.5 -58t-111 -60t-91.5 -67t-57 -74.5 t-22 -86.5z" />
<glyph unicode="&#xe3;" horiz-adv-x="1124" d="M66 725q0 63 67.5 129t161.5 112.5t189.5 76.5t154.5 30q146 0 236 -88t90 -229v-594l135 -39l-377 -148v238q-220 -238 -410 -238q-107 0 -174 61t-67 157q0 29 11.5 58.5t29 54.5t48.5 51.5t59.5 47.5t73 46t79 42.5t87.5 42t87.5 39t90.5 38t85 36.5v99 q0 110 -62 180.5t-157 70.5q-72 0 -127 -36q-32 -21 -50 -65.5t-26.5 -91.5t-19.5 -92t-38 -73.5t-73 -28.5t-75 31.5t-29 81.5zM172 1241q56 139 117.5 217t122.5 78q32 0 135.5 -34t146.5 -34q49 0 94.5 37t71.5 97q-26 -137 -83.5 -224.5t-133.5 -87.5q-37 0 -145 36 t-154 36q-43 0 -89 -32.5t-83 -88.5zM311 268q0 -72 46 -117t118 -45q112 0 248 154v354q-76 -32 -130.5 -58t-111 -60t-91.5 -67t-57 -74.5t-22 -86.5z" />
<glyph unicode="&#xe4;" horiz-adv-x="1124" d="M66 725q0 63 67.5 129t161.5 112.5t189.5 76.5t154.5 30q146 0 236 -88t90 -229v-594l135 -39l-377 -148v238q-220 -238 -410 -238q-107 0 -174 61t-67 157q0 29 11.5 58.5t29 54.5t48.5 51.5t59.5 47.5t73 46t79 42.5t87.5 42t87.5 39t90.5 38t85 36.5v99 q0 110 -62 180.5t-157 70.5q-72 0 -127 -36q-32 -21 -50 -65.5t-26.5 -91.5t-19.5 -92t-38 -73.5t-73 -28.5t-75 31.5t-29 81.5zM182 1288v252h248v-252h-248zM311 268q0 -72 46 -117t118 -45q112 0 248 154v354q-76 -32 -130.5 -58t-111 -60t-91.5 -67t-57 -74.5t-22 -86.5 zM608 1288v252h246v-252h-246z" />
<glyph unicode="&#xe5;" horiz-adv-x="1124" d="M66 725q0 63 67.5 129t161.5 112.5t189.5 76.5t154.5 30q146 0 236 -88t90 -229v-594l135 -39l-377 -148v238q-220 -238 -410 -238q-107 0 -174 61t-67 157q0 29 11.5 58.5t29 54.5t48.5 51.5t59.5 47.5t73 46t79 42.5t87.5 42t87.5 39t90.5 38t85 36.5v99 q0 110 -62 180.5t-157 70.5q-72 0 -127 -36q-32 -21 -50 -65.5t-26.5 -91.5t-19.5 -92t-38 -73.5t-73 -28.5t-75 31.5t-29 81.5zM311 268q0 -72 46 -117t118 -45q112 0 248 154v354q-76 -32 -130.5 -58t-111 -60t-91.5 -67t-57 -74.5t-22 -86.5zM317 1413q0 79 60 136 t143 57q80 0 137.5 -57t57.5 -136q0 -81 -57.5 -138.5t-137.5 -57.5q-84 0 -143.5 57.5t-59.5 138.5zM397 1411q0 -51 35 -86t86 -35t86 35t35 86t-35 86t-86 35t-86 -35t-35 -86z" />
<glyph unicode="&#xe6;" horiz-adv-x="1792" d="M68 190q0 137 260 282q104 58 371 173q12 6 22 10v93q0 114 -61 186t-158 72q-64 0 -129 -41q-31 -22 -49.5 -66.5t-27.5 -90.5t-21 -90t-38.5 -72t-70.5 -28t-71 30.5t-27 76.5q0 63 67 129t159.5 112.5t186.5 76.5t150 30q104 0 186 -50t117 -136q67 89 164 137.5 t213 48.5q183 0 296 -109t113 -286v-16h-663q0 -12 -1 -33t-1 -33q0 -198 98.5 -323.5t259.5 -125.5q251 0 338 287q-32 -215 -151.5 -337t-294.5 -122q-176 0 -302 94.5t-172 258.5q-225 -219 -325.5 -286t-200.5 -67q-99 0 -168 58.5t-69 156.5zM315 270 q0 -72 45.5 -115.5t112.5 -43.5q111 0 248 155v359q-92 -39 -159.5 -75.5t-126.5 -80.5t-89.5 -94t-30.5 -105zM1061 694h360q70 0 70 84q0 106 -51.5 184t-128.5 78q-95 0 -163 -94.5t-87 -251.5z" />
<glyph unicode="&#xe7;" horiz-adv-x="1034" d="M59 504q0 250 145.5 409.5t368.5 159.5q159 0 270 -69.5t111 -163.5q0 -47 -27.5 -78t-70.5 -31q-48 0 -78 32t-45.5 77.5t-31.5 90.5t-47 77t-81 32q-119 0 -193.5 -123t-74.5 -311q0 -201 98.5 -326.5t260.5 -125.5q252 0 337 280q-32 -215 -151.5 -337t-294.5 -122 l-35 -86l113 -69q82 -52 82 -129q0 -89 -91 -157t-227 -77q72 22 112 58t40 77q0 26 -12.5 41.5t-40.5 32.5l-136 88l156 223q-204 12 -330.5 155.5t-126.5 371.5z" />
<glyph unicode="&#xe8;" horiz-adv-x="1042" d="M59 500q0 251 141.5 412t360.5 161q183 0 296.5 -109t113.5 -286v-16h-664q0 -12 -1 -33t-1 -33q0 -198 99 -323.5t260 -125.5q250 0 337 287q-32 -215 -151.5 -337t-294.5 -122q-219 0 -357.5 145t-138.5 380zM233 1647h269l131 -476zM311 694h361q69 0 69 84 q0 106 -51.5 184t-128.5 78q-95 0 -163 -94.5t-87 -251.5z" />
<glyph unicode="&#xe9;" horiz-adv-x="1042" d="M59 500q0 251 141.5 412t360.5 161q183 0 296.5 -109t113.5 -286v-16h-664q0 -12 -1 -33t-1 -33q0 -198 99 -323.5t260 -125.5q250 0 337 287q-32 -215 -151.5 -337t-294.5 -122q-219 0 -357.5 145t-138.5 380zM311 694h361q69 0 69 84q0 106 -51.5 184t-128.5 78 q-95 0 -163 -94.5t-87 -251.5zM444 1171l131 476h269z" />
<glyph unicode="&#xea;" horiz-adv-x="1042" d="M59 500q0 251 141.5 412t360.5 161q183 0 296.5 -109t113.5 -286v-16h-664q0 -12 -1 -33t-1 -33q0 -198 99 -323.5t260 -125.5q250 0 337 287q-32 -215 -151.5 -337t-294.5 -122q-219 0 -357.5 145t-138.5 380zM231 1169l310 451l307 -451l-307 222zM311 694h361 q69 0 69 84q0 106 -51.5 184t-128.5 78q-95 0 -163 -94.5t-87 -251.5z" />
<glyph unicode="&#xeb;" horiz-adv-x="1042" d="M59 500q0 251 141.5 412t360.5 161q183 0 296.5 -109t113.5 -286v-16h-664q0 -12 -1 -33t-1 -33q0 -198 99 -323.5t260 -125.5q250 0 337 287q-32 -215 -151.5 -337t-294.5 -122q-219 0 -357.5 145t-138.5 380zM203 1288v252h248v-252h-248zM311 694h361q69 0 69 84 q0 106 -51.5 184t-128.5 78q-95 0 -163 -94.5t-87 -251.5zM629 1288v252h245v-252h-245z" />
<glyph unicode="&#xec;" horiz-adv-x="589" d="M-8 1647h268l131 -476zM43 903l387 170v-983l131 -90h-502l127 90v768z" />
<glyph unicode="&#xed;" horiz-adv-x="589" d="M43 903l387 170v-983l131 -90h-502l127 90v768zM203 1171l131 476h268z" />
<glyph unicode="&#xee;" horiz-adv-x="589" d="M-10 1169l309 451l307 -451l-307 222zM43 903l387 170v-983l131 -90h-502l127 90v768z" />
<glyph unicode="&#xef;" horiz-adv-x="589" d="M-39 1288v252h248v-252h-248zM43 903l387 170v-983l131 -90h-502l127 90v768zM387 1288v252h246v-252h-246z" />
<glyph unicode="&#xf0;" horiz-adv-x="1232" d="M51 532q-3 236 136 388.5t378 152.5q150 0 258 -84q-71 188 -198 354l-389 -194v41l364 184q-191 237 -469 404q355 -126 608 -334l308 153v-43l-277 -137q197 -170 300.5 -373.5t103.5 -418.5q0 -189 -72 -337.5t-203 -230.5t-299 -82q-241 0 -395 154t-154 403z M309 530q0 -236 78.5 -378t212.5 -142t218.5 160.5t84.5 413.5q0 191 -65 368q-71 64 -189 64q-156 0 -244 -128.5t-96 -357.5z" />
<glyph unicode="&#xf1;" horiz-adv-x="1261" d="M43 903l387 170v-184q82 53 139 86.5t130 65.5t118 32q128 0 209.5 -85t81.5 -222v-676l127 -90h-510l139 90v664q0 86 -51 144t-125 58q-90 0 -258 -96v-770l137 -90h-510l129 90v754zM322 1241q119 295 239 295q32 0 136 -34t147 -34q49 0 94.5 37t71.5 97 q-26 -137 -83.5 -224.5t-133.5 -87.5q-37 0 -145 36t-154 36q-43 0 -89 -32.5t-83 -88.5z" />
<glyph unicode="&#xf2;" horiz-adv-x="1212" d="M59 532q0 109 44 209.5t117.5 173t175 115.5t212.5 43q148 0 273.5 -73t198.5 -197.5t73 -270.5q0 -151 -73 -279.5t-198.5 -203t-273.5 -74.5t-274.5 74.5t-200.5 203t-74 279.5zM303 1647h268l131 -476zM322 530q0 -251 74 -386.5t212 -135.5q136 0 210.5 135t74.5 387 q0 244 -74 377t-211 133q-138 0 -212 -131t-74 -379z" />
<glyph unicode="&#xf3;" horiz-adv-x="1212" d="M59 532q0 109 44 209.5t117.5 173t175 115.5t212.5 43q148 0 273.5 -73t198.5 -197.5t73 -270.5q0 -151 -73 -279.5t-198.5 -203t-273.5 -74.5t-274.5 74.5t-200.5 203t-74 279.5zM322 530q0 -251 74 -386.5t212 -135.5q136 0 210.5 135t74.5 387q0 244 -74 377t-211 133 q-138 0 -212 -131t-74 -379zM512 1171l131 476h268z" />
<glyph unicode="&#xf4;" horiz-adv-x="1212" d="M59 532q0 109 44 209.5t117.5 173t175 115.5t212.5 43q148 0 273.5 -73t198.5 -197.5t73 -270.5q0 -151 -73 -279.5t-198.5 -203t-273.5 -74.5t-274.5 74.5t-200.5 203t-74 279.5zM299 1169l309 451l307 -451l-307 222zM322 530q0 -251 74 -386.5t212 -135.5 q136 0 210.5 135t74.5 387q0 244 -74 377t-211 133q-138 0 -212 -131t-74 -379z" />
<glyph unicode="&#xf5;" horiz-adv-x="1212" d="M59 532q0 109 44 209.5t117.5 173t175 115.5t212.5 43q148 0 273.5 -73t198.5 -197.5t73 -270.5q0 -151 -73 -279.5t-198.5 -203t-273.5 -74.5t-274.5 74.5t-200.5 203t-74 279.5zM262 1241q56 139 117.5 217t122.5 78q32 0 135.5 -34t146.5 -34q49 0 94.5 37t71.5 97 q-26 -137 -83.5 -224.5t-133.5 -87.5q-37 0 -145 36t-154 36q-43 0 -89 -32.5t-83 -88.5zM322 530q0 -251 74 -386.5t212 -135.5q136 0 210.5 135t74.5 387q0 244 -74 377t-211 133q-138 0 -212 -131t-74 -379z" />
<glyph unicode="&#xf6;" horiz-adv-x="1212" d="M59 532q0 109 44 209.5t117.5 173t175 115.5t212.5 43q148 0 273.5 -73t198.5 -197.5t73 -270.5q0 -151 -73 -279.5t-198.5 -203t-273.5 -74.5t-274.5 74.5t-200.5 203t-74 279.5zM270 1288v252h248v-252h-248zM322 530q0 -251 74 -386.5t212 -135.5q136 0 210.5 135 t74.5 387q0 244 -74 377t-211 133q-138 0 -212 -131t-74 -379zM696 1288v252h246v-252h-246z" />
<glyph unicode="&#xf7;" horiz-adv-x="976" d="M59 618v46h856v-46h-856zM397 862v211h183v-211h-183zM401 217v199h174v-199h-174z" />
<glyph unicode="&#xf8;" horiz-adv-x="1212" d="M59 532q0 109 44 209.5t117.5 173t175 115.5t212.5 43q191 0 344 -121l80 92h49l-102 -116q83 -74 128.5 -177t45.5 -219q0 -151 -73 -279.5t-198.5 -203t-273.5 -74.5q-200 0 -350 131l-94 -106h-49l114 131q-80 77 -125 181t-45 220zM322 530q0 -149 30 -260l492 559 q-69 211 -236 211q-138 0 -212 -131t-74 -379zM367 229q70 -221 241 -221q136 0 210.5 135t74.5 387q0 151 -35 258z" />
<glyph unicode="&#xf9;" horiz-adv-x="1271" d="M39 903l387 170v-784q0 -78 51.5 -133.5t128.5 -55.5q103 0 252 88v656l-143 59l387 170v-915l135 -41l-379 -148v191q-78 -52 -130 -84.5t-129.5 -66.5t-127.5 -34q-127 0 -208 84.5t-81 221.5v563zM346 1647h268l131 -476z" />
<glyph unicode="&#xfa;" horiz-adv-x="1271" d="M39 903l387 170v-784q0 -78 51.5 -133.5t128.5 -55.5q103 0 252 88v656l-143 59l387 170v-915l135 -41l-379 -148v191q-78 -52 -130 -84.5t-129.5 -66.5t-127.5 -34q-127 0 -208 84.5t-81 221.5v563zM555 1171l131 476h268z" />
<glyph unicode="&#xfb;" horiz-adv-x="1271" d="M39 903l387 170v-784q0 -78 51.5 -133.5t128.5 -55.5q103 0 252 88v656l-143 59l387 170v-915l135 -41l-379 -148v191q-78 -52 -130 -84.5t-129.5 -66.5t-127.5 -34q-127 0 -208 84.5t-81 221.5v563zM342 1169l309 451l307 -451l-307 222z" />
<glyph unicode="&#xfc;" horiz-adv-x="1271" d="M39 903l387 170v-784q0 -78 51.5 -133.5t128.5 -55.5q103 0 252 88v656l-143 59l387 170v-915l135 -41l-379 -148v191q-78 -52 -130 -84.5t-129.5 -66.5t-127.5 -34q-127 0 -208 84.5t-81 221.5v563zM313 1288v252h248v-252h-248zM739 1288v252h246v-252h-246z" />
<glyph unicode="&#xfd;" horiz-adv-x="1228" d="M10 1044h600l-174 -102l289 -631h31l245 631l-184 102h404l-172 -104l-394 -969l-174 -471h-307l444 482l-456 958zM561 1171l131 476h269z" />
<glyph unicode="&#xfe;" horiz-adv-x="1277" d="M31 1516l385 172v-803q57 39 92.5 61.5t90.5 54t101.5 47t85.5 15.5q195 0 318 -143.5t123 -370.5q0 -252 -146.5 -413t-378.5 -161q-152 0 -286 93v-478l139 -90h-510l127 90v1883zM416 303q26 -138 99.5 -216.5t174.5 -78.5q122 0 200.5 132t78.5 343q0 201 -92 333 t-230 132q-73 0 -231 -92v-553z" />
<glyph unicode="&#xff;" horiz-adv-x="1228" d="M10 1044h600l-174 -102l289 -631h31l245 631l-184 102h404l-172 -104l-394 -969l-174 -471h-307l444 482l-456 958zM319 1288v252h248v-252h-248zM745 1288v252h246v-252h-246z" />
<glyph unicode="&#x152;" horiz-adv-x="2172" d="M68 770q0 154 68.5 292t186 237.5t282 158t347.5 58.5h1037v-39l59 -404l-313 400h-498v-662h301l176 264v-571l-176 266h-301v-727h567l314 455l-58 -461v-37h-1106q-184 0 -348 60.5t-282 163t-187 245t-69 301.5zM346 770q0 -308 157.5 -509t411.5 -218l64 72v1286 l-66 72q-252 -17 -409.5 -212t-157.5 -491z" />
<glyph unicode="&#x153;" horiz-adv-x="1970" d="M59 532q0 109 44 209.5t117.5 173t175 115.5t212.5 43q142 0 263 -67.5t196 -182.5q65 118 175 184t247 66q183 0 296 -109t113 -286v-16h-663q0 -12 -1 -33t-1 -33q0 -198 98.5 -323.5t259.5 -125.5q251 0 338 287q-34 -215 -152.5 -337t-293.5 -122q-141 0 -252.5 63.5 t-173.5 176.5q-77 -111 -194.5 -175.5t-254.5 -64.5q-148 0 -274.5 74.5t-200.5 203t-74 279.5zM322 530q0 -251 74 -386.5t212 -135.5q136 0 210.5 135t74.5 387q0 244 -74 377t-211 133q-138 0 -212 -131t-74 -379zM1239 694h360q70 0 70 84q0 106 -51.5 184t-128.5 78 q-95 0 -163 -94.5t-87 -251.5z" />
<glyph unicode="&#x178;" horiz-adv-x="1546" d="M25 1516h700l-225 -130l379 -655h32l363 658l-223 127h475l-199 -127l-407 -727v-549l172 -113h-603l173 113v495l-459 781zM485 1702v250h248v-250h-248zM911 1702v252h246v-252h-246z" />
<glyph unicode="&#x2c6;" horiz-adv-x="862" d="M123 1169l309 451l307 -451l-307 222z" />
<glyph unicode="&#x2dc;" horiz-adv-x="862" d="M86 1241q56 139 117.5 217t122.5 78q32 0 135.5 -34t146.5 -34q49 0 94.5 37t71.5 97q-26 -137 -83.5 -224.5t-133.5 -87.5q-37 0 -145 36t-154 36q-43 0 -89 -32.5t-83 -88.5z" />
<glyph unicode="&#x2000;" horiz-adv-x="1011" vert-adv-y="0" />
<glyph unicode="&#x2001;" horiz-adv-x="2023" vert-adv-y="0" />
<glyph unicode="&#x2002;" horiz-adv-x="1011" vert-adv-y="0" />
<glyph unicode="&#x2003;" horiz-adv-x="2023" vert-adv-y="0" />
<glyph unicode="&#x2004;" horiz-adv-x="674" vert-adv-y="0" />
<glyph unicode="&#x2005;" horiz-adv-x="505" vert-adv-y="0" />
<glyph unicode="&#x2006;" horiz-adv-x="337" vert-adv-y="0" />
<glyph unicode="&#x2007;" horiz-adv-x="337" vert-adv-y="0" />
<glyph unicode="&#x2008;" horiz-adv-x="252" vert-adv-y="0" />
<glyph unicode="&#x2009;" horiz-adv-x="404" vert-adv-y="0" />
<glyph unicode="&#x200a;" horiz-adv-x="112" vert-adv-y="0" />
<glyph unicode="&#x2010;" horiz-adv-x="733" d="M123 522v107h485v-107h-485z" />
<glyph unicode="&#x2011;" horiz-adv-x="733" d="M123 522v107h485v-107h-485z" />
<glyph unicode="&#x2012;" horiz-adv-x="733" d="M123 522v107h485v-107h-485z" />
<glyph unicode="&#x2013;" horiz-adv-x="1112" d="M123 608v47h864v-47h-864z" />
<glyph unicode="&#x2014;" horiz-adv-x="3670" d="M123 608v47h3422v-47h-3422z" />
<glyph unicode="&#x2018;" horiz-adv-x="473" d="M51 936v281l197 366h207l-381 -366h256v-281h-279z" />
<glyph unicode="&#x2019;" horiz-adv-x="497" d="M43 928l379 366h-254v281h278v-281l-196 -366h-207z" />
<glyph unicode="&#x201a;" horiz-adv-x="442" d="M-47 -373l381 367h-254v280h276v-280l-196 -367h-207z" />
<glyph unicode="&#x201c;" horiz-adv-x="833" d="M51 936v281l197 366h207l-381 -366h256v-281h-279zM412 936v281l196 366h207l-379 -366h254v-281h-278z" />
<glyph unicode="&#x201d;" horiz-adv-x="858" d="M43 926l379 366h-254v281h278v-281l-196 -366h-207zM403 926l381 366h-254v281h277v-281l-197 -366h-207z" />
<glyph unicode="&#x201e;" horiz-adv-x="802" d="M-47 -373l381 367h-254v280h276v-280l-196 -367h-207zM313 -373l381 367h-254v280h279v-280l-197 -367h-209z" />
<glyph unicode="&#x2022;" horiz-adv-x="530" d="M86 453v376h360v-376h-360z" />
<glyph unicode="&#x2026;" horiz-adv-x="1292" d="M84 -16v290h278v-290h-278zM506 -16v290h278v-290h-278zM930 -16v290h276v-290h-276z" />
<glyph unicode="&#x202f;" horiz-adv-x="404" vert-adv-y="0" />
<glyph unicode="&#x2039;" horiz-adv-x="536" d="M39 547l459 381l-174 -381l174 -381z" />
<glyph unicode="&#x203a;" horiz-adv-x="536" d="M39 166l174 381l-174 381l459 -381z" />
<glyph unicode="&#x205f;" horiz-adv-x="505" vert-adv-y="0" />
<glyph unicode="&#x20ac;" horiz-adv-x="1624" d="M51 700v37h129v33q0 22 4 72h-133v37h137q27 186 140.5 339.5t288 241.5t374.5 88q135 0 274 -27.5t230 -72.5v-35l55 -395q-109 243 -247 364.5t-312 120.5q-218 0 -359.5 -170t-166.5 -454h985v-37h-987q-2 -23 -2 -72v-33h989v-37h-987q15 -309 159.5 -494.5 t376.5 -185.5q175 -1 314.5 129t259.5 400l-66 -438v-35q-93 -46 -233 -74t-275 -27q-209 0 -390 96t-294.5 262.5t-130.5 366.5h-133z" />
<glyph unicode="&#x2122;" horiz-adv-x="1398" d="M20 1300l23 175v20h510v-20l22 -175l-131 173h-90v-431l70 -63h-250l70 63v431h-94zM610 979l68 63v406l-62 47h185l188 -362h10l160 362h180l-61 -63v-390l70 -63h-250l69 63v371h-12l-199 -450l-235 450h-14v-371l69 -63h-166z" />
<glyph unicode="&#x25fc;" horiz-adv-x="1044" vert-adv-y="2088" d="M0 0v1044h1044v-1044h-1044z" />
<glyph unicode="&#xfb01;" horiz-adv-x="1257" d="M43 954l164 133v150q0 204 151.5 333.5t389.5 129.5q157 0 259.5 -53t102.5 -140q0 -44 -28.5 -74t-69.5 -30q-45 0 -77.5 26.5t-52 64t-39.5 75t-53.5 64t-80.5 26.5q-124 0 -190 -110.5t-66 -321.5v-203h438l211 98v-1032l127 -90h-502l131 90v848h-405v-848l151 -90 h-524l127 90v805z" />
<glyph unicode="&#xfb02;" horiz-adv-x="1343" d="M43 954l164 133v158q0 199 153.5 327t399.5 128q173 0 301 -62l117 50v-1598l139 -90h-524l137 90v1419q-37 68 -96.5 109t-120.5 41q-127 0 -193.5 -110t-66.5 -320v-205h307v-86h-307v-848l151 -90h-524l127 90v805z" />
<glyph unicode="&#xfb03;" horiz-adv-x="1918" d="M43 954l164 133v97q0 198 151 326t387 128q163 0 287 -59q146 121 377 121q156 0 259.5 -53.5t103.5 -139.5q0 -44 -29 -74t-72 -30q-45 0 -77.5 26.5t-52 64t-39.5 75t-53 64t-79 26.5q-124 0 -190 -110.5t-66 -321.5v-203h438l211 98v-1032l127 -90h-501l131 90v848 h-406v-848l152 -90h-527l127 90v848h-413v-848l151 -90h-524l127 90v805zM453 1024h346l67 57v156q0 102 43 193q-93 167 -211 167t-181.5 -110.5t-63.5 -319.5v-143z" />
</font>
</defs>
</svg>
