<?xml version="1.0" standalone="no"?>
<!DOCTYPE svg PUBLIC "-//W3C//DTD SVG 1.1//EN" "http://www.w3.org/Graphics/SVG/1.1/DTD/svg11.dtd" >
<svg xmlns="http://www.w3.org/2000/svg" xmlns:xlink="http://www.w3.org/1999/xlink" version="1.1">
<metadata></metadata>
<defs>
<font id="pp_eiko_italicblack" horiz-adv-x="1212" vert-adv-y="2048" >
<font-face units-per-em="2048" ascent="1802" descent="-246" />
<missing-glyph horiz-adv-x="432" />
<glyph horiz-adv-x="0" vert-adv-y="0" />
<glyph horiz-adv-x="682" />
<glyph unicode="&#xd;" horiz-adv-x="1228" />
<glyph unicode=" "  horiz-adv-x="432" />
<glyph unicode="&#x09;" horiz-adv-x="432" />
<glyph unicode="&#xa0;" horiz-adv-x="432" />
<glyph unicode="!" horiz-adv-x="604" d="M-2 -16l82 374h366l-81 -374h-367zM276 403q9 201 21 410l43 758h432l-317 -758q-41 -101 -179 -410z" />
<glyph unicode="&#x22;" horiz-adv-x="735" d="M305 1597h645l-321 -671l-6 651l-312 -651z" />
<glyph unicode="#" horiz-adv-x="1384" d="M27 375l77 323h369l90 162h-274l78 324h376l193 350h51l-194 -350h350l192 350h51l-194 -350h295l-78 -324h-395l-90 -162h301l-78 -323h-404l-206 -375h-52l209 375h-350l-207 -375h-51l209 375h-268zM524 698h348l91 162h-349z" />
<glyph unicode="$" horiz-adv-x="1177" d="M59 47l11 41l16 535q38 -190 117.5 -332.5t183.5 -210.5l131 545q-63 50 -103.5 88.5t-84.5 94.5t-66 120.5t-22 138.5q0 194 145.5 337t357.5 165l21 80h47l-18 -78h14q28 0 86 -4l20 82h48l-21 -88q157 -25 287 -88l-10 -41l-45 -451q-80 383 -252 498l-131 -545 q57 -47 91 -76.5t80 -79t71.5 -92t44 -100.5t18.5 -119q0 -132 -65 -241t-188.5 -176.5t-283.5 -74.5l-67 -282h-48l68 282q-18 0 -100 5l-70 -287h-47l70 291q-181 20 -306 63zM430 55q48 -22 94 -30l121 497q-26 22 -86 70zM522 1288q0 -105 105 -213l108 447 q-93 -12 -153 -77t-60 -157zM571 23q105 2 169.5 63.5t64.5 167.5q0 117 -123 233zM666 1038q31 -28 86 -73l129 536q-44 20 -99 23z" />
<glyph unicode="%" horiz-adv-x="1495" d="M43 0l1403 1532h70l-1403 -1532h-70zM274 1155q0 98 44.5 194.5t120 159t157.5 62.5q76 0 124 -67.5t48 -166.5t-43.5 -196t-118.5 -160t-157 -63q-77 0 -126 67.5t-49 169.5zM389 1085q0 -139 64 -139q53 0 101.5 83t74.5 188.5t26 187.5q0 62 -17 98.5t-46 36.5 q-54 0 -102.5 -82.5t-74.5 -187t-26 -185.5zM854 213q0 99 44 195t119.5 158.5t158.5 62.5q76 0 123 -67t47 -167q0 -98 -44 -195t-119 -161t-157 -64q-76 0 -124 68t-48 170zM967 145q0 -139 63 -139q53 0 101.5 83t75 188t26.5 186q0 62 -16.5 98.5t-45.5 36.5 q-54 0 -103 -82.5t-75 -186.5t-26 -184z" />
<glyph unicode="&#x26;" horiz-adv-x="1628" d="M-10 225q0 65 30.5 132t77 121.5t115 111.5t130 98t136.5 86q-66 104 -98.5 180.5t-32.5 157.5q0 125 74 230.5t200.5 167t274.5 61.5q177 0 288 -65.5t111 -168.5q0 -59 -41 -116.5t-112 -106t-150.5 -88t-173.5 -74.5l37 -55l297 -442q34 66 50 180t5 211l-78 112 l580 -8l-145 -123q-142 -185 -398 -395l306 -455l-386 -127l-219 334q-142 -96 -295 -152.5t-272 -56.5q-141 0 -226 70t-85 180zM362 399q0 -112 66.5 -180.5t181.5 -68.5q114 0 236 67l-314 477l-30 45q-57 -69 -98.5 -168.5t-41.5 -171.5zM690 1288q0 -83 29.5 -156.5 t85.5 -154.5q86 76 140 186t54 217q0 71 -29.5 115.5t-80.5 44.5q-84 0 -141.5 -73.5t-57.5 -178.5z" />
<glyph unicode="'" horiz-adv-x="417" d="M305 1597h328l-322 -671z" />
<glyph unicode="(" horiz-adv-x="743" d="M127 604q66 278 283.5 557t625.5 604q-170 -164 -329 -487t-244 -674q-55 -232 -75 -481t-4 -438t60 -277q-210 249 -298 577.5t-19 618.5z" />
<glyph unicode=")" horiz-adv-x="702" d="M-272 -592q135 138 303.5 493t251.5 703q85 350 81 673.5t-96 487.5q251 -326 335 -604.5t18 -556.5q-70 -290 -316.5 -618.5t-576.5 -577.5z" />
<glyph unicode="*" horiz-adv-x="798" d="M193 1229l251 57l-77 211l180 -131l115 242v-240l241 129l-178 -211l227 -57l-258 -60l80 -211l-178 129l-117 -239l2 239l-243 -129l180 213z" />
<glyph unicode="+" horiz-adv-x="931" d="M61 616l13 50h403l86 360h49l-86 -360h404l-12 -50h-404l-86 -362h-49l86 362h-404z" />
<glyph unicode="," horiz-adv-x="485" d="M-170 -373l442 367h-333l81 364h359l-80 -364l-186 -367h-283z" />
<glyph unicode="-" horiz-adv-x="647" d="M80 514l26 123h494l-29 -123h-491z" />
<glyph unicode="." horiz-adv-x="499" d="M-57 -16l82 374h368l-82 -374h-368z" />
<glyph unicode="/" horiz-adv-x="704" d="M-174 -246l1075 1821h49l-1071 -1821h-53z" />
<glyph unicode="0" horiz-adv-x="1400" d="M96 557q0 145 43.5 293t123 276t183.5 228.5t234.5 158.5t265.5 58q148 0 260 -75.5t170 -205.5t58 -295q0 -142 -43.5 -290t-124 -277.5t-184.5 -231.5t-234 -161.5t-264 -59.5q-148 0 -260 76.5t-170 208t-58 297.5zM465 281q0 -265 129 -265q60 0 121.5 68.5t112 179 t95.5 248.5t75.5 278t48.5 267t18 215q0 125 -33 191.5t-96 66.5q-73 0 -146.5 -95t-130 -242.5t-101.5 -317.5t-69 -328t-24 -266z" />
<glyph unicode="1" horiz-adv-x="825" d="M20 0l152 129l274 1151l-206 90l675 201l-344 -1440l82 -131h-633z" />
<glyph unicode="2" horiz-adv-x="1216" d="M-29 0q273 257 471 471q154 162 254.5 339.5t132.5 334.5q31 147 -1.5 239.5t-116.5 92.5q-62 0 -123 -39q-44 -31 -69.5 -87t-36.5 -111.5t-25.5 -108t-48.5 -85t-93 -32.5q-67 0 -102 44.5t-20 112.5q15 71 112 147.5t217.5 130t234.5 88.5t169 34q172 -1 258 -96 t55 -246q-12 -60 -48.5 -121.5t-84 -114.5t-126 -123.5t-149 -127.5t-181.5 -148t-197 -166q-57 -57 -72 -70h766l-86 -358h-1090z" />
<glyph unicode="3" horiz-adv-x="1255" d="M14 340q0 69 46.5 117.5t113.5 48.5q119 0 119 -127q1 -40 -8 -117.5t-6 -124t28 -65.5q34 -27 99 -27q111 0 202.5 75.5t139 187t47.5 229.5q0 110 -56.5 171.5t-165.5 61.5q-51 0 -161 -20q204 95 331 248t127 329q0 66 -33 109t-87 43q-58 0 -119 -41 q-44 -31 -70.5 -87t-37.5 -111t-25.5 -107t-47.5 -84.5t-90 -32.5q-59 0 -94 34t-35 87q0 61 58.5 126.5t148.5 118.5t191.5 97t193 68t146.5 24q134 0 213.5 -65t79.5 -169q0 -61 -25 -115.5t-73 -99.5t-101.5 -82t-129.5 -73t-135.5 -62t-140 -59t-125.5 -53 q106 36 224 36q121 0 216.5 -35t154.5 -110t59 -180q0 -115 -56 -215.5t-148.5 -168.5t-213.5 -106.5t-250 -38.5q-97 0 -214.5 51.5t-203.5 138.5t-86 175z" />
<glyph unicode="4" horiz-adv-x="1406" d="M-2 336l1372 1270l-240 -994h252l-65 -276h-254l-49 -209l82 -127h-631l149 127l52 209h-668zM360 612h373l107 443z" />
<glyph unicode="5" horiz-adv-x="1245" d="M12 332q0 67 46.5 115.5t111.5 48.5q54 0 82.5 -26.5t33 -66.5t2.5 -91t-8 -97t0.5 -86.5t28.5 -58.5q32 -25 94 -25q81 0 155.5 54.5t125.5 138.5t81 183t30 189q0 109 -51 178.5t-146 69.5q-151 0 -348 -115l268 789h828l-86 -361h-822l-127 -362q105 64 225 101.5 t232 37.5q187 0 303.5 -99.5t116.5 -266.5t-92.5 -307.5t-247 -220t-332.5 -79.5q-70 0 -158 30.5t-164.5 79t-129 115.5t-52.5 132z" />
<glyph unicode="6" horiz-adv-x="1335" d="M66 416q0 152 61.5 297.5t169.5 266.5t253 227t313.5 185.5t349.5 135t362 82.5q-240 -77 -444 -208t-353.5 -300.5t-234 -380t-84.5 -436.5q0 -123 39 -195t110 -72q66 0 124.5 60t96.5 150.5t60 191t22 186.5q0 106 -37 162.5t-102 56.5q-36 0 -84.5 -14.5t-83.5 -36.5 q67 61 174 106.5t193 45.5q158 0 248 -90.5t90 -241.5q0 -129 -56 -243.5t-152 -197t-231 -130.5t-288 -48q-236 0 -376 120t-140 321z" />
<glyph unicode="7" horiz-adv-x="1198" d="M-20 0l1187 1171h-985l88 361h1147l-921 -1532h-516z" />
<glyph unicode="8" horiz-adv-x="1282" vert-adv-y="2031" d="M20 291q0 76 42.5 144.5t115.5 120t158.5 89.5t183.5 64q-106 85 -171.5 178.5t-65.5 206.5q0 135 89.5 246t230 171t294.5 60q196 0 327.5 -90t131.5 -224q0 -80 -38.5 -144t-107 -107.5t-147 -72t-174.5 -46.5q178 -142 253 -239.5t75 -203.5q0 -142 -93.5 -251 t-238 -163.5t-310.5 -54.5q-252 0 -403.5 87t-151.5 229zM399 268q0 -115 52.5 -181.5t146.5 -66.5q100 0 166.5 79t66.5 198q0 93 -54.5 168.5t-166.5 167.5l-57 47q-69 -76 -111.5 -191t-42.5 -221zM664 1235q0 -94 46.5 -167.5t147.5 -154.5q61 81 103.5 200t42.5 218 q0 90 -34 143.5t-93 53.5q-93 0 -153 -90.5t-60 -202.5z" />
<glyph unicode="9" horiz-adv-x="1329" d="M-49 -131q318 120 550.5 322t360 475.5t127.5 590.5q0 125 -34 197t-95 72t-120 -61.5t-98.5 -153t-64 -194.5t-24.5 -187q0 -113 43.5 -175.5t122.5 -62.5q91 0 155 39q-71 -64 -166.5 -100.5t-187.5 -36.5q-171 0 -268.5 94.5t-97.5 251.5q0 135 57 253t154 200.5 t228 130t275 47.5q241 -1 376.5 -128.5t135.5 -338.5q0 -151 -56.5 -295t-156.5 -265.5t-235 -229.5t-295.5 -192.5t-333.5 -148.5t-352 -104z" />
<glyph unicode=":" horiz-adv-x="587" d="M-12 -16l82 374h368l-84 -374h-366zM158 698l82 373h366l-82 -373h-366z" />
<glyph unicode=";" horiz-adv-x="573" d="M-129 -373l440 367h-331l79 364h359l-80 -364l-186 -367h-281zM145 698l82 375h369l-82 -375h-369z" />
<glyph unicode="&#x3c;" horiz-adv-x="925" d="M29 524l839 398h103l-846 -402l653 -401h-90z" />
<glyph unicode="=" horiz-adv-x="944" d="M25 434l12 49h856l-12 -49h-856zM111 791l12 49h856l-12 -49h-856z" />
<glyph unicode="&#x3e;" horiz-adv-x="921" d="M-39 119l838 409l-627 394h92l633 -398l-831 -405h-105z" />
<glyph unicode="?" horiz-adv-x="927" d="M51 -16l82 374h367l-82 -374h-367zM184 1313q0 117 114 187.5t302 70.5q204 0 332.5 -105t128.5 -270q0 -79 -31.5 -146t-78.5 -111.5t-118.5 -87t-133 -68.5t-142 -61t-127.5 -60q-46 -25 -66 -47t-30 -64l-31 -131q-49 110 -75.5 190t-26.5 148q1 78 39 131t110 92 q41 22 117 53t133.5 57t116 62t91 85.5t32.5 109.5q0 83 -63 134.5t-163 51.5q-37 0 -62 -8t-38 -21t-19.5 -33.5t-8 -40t-1.5 -46.5v-17q0 -86 -44 -136t-117 -50q-62 0 -101 36.5t-39 94.5z" />
<glyph unicode="@" horiz-adv-x="1658" d="M66 457q0 143 45.5 287t135.5 273t213 229t290 159t354 59q274 0 437 -133t163 -356q0 -110 -41.5 -211t-114.5 -181t-168 -142.5t-206 -102.5l-267 -94l80 315h-16q-30 -64 -63.5 -117.5t-75 -99.5t-90.5 -72t-101 -26q-103 0 -163 71t-60 191q0 106 41 209t110 181.5 t166.5 126.5t202.5 48q167 0 264 -78l195 78l-162 -653h43q126 81 204.5 238.5t78.5 318.5q0 203 -125.5 323.5t-337.5 120.5q-157 0 -298 -52.5t-244.5 -142t-179.5 -205t-114.5 -244.5t-38.5 -257q0 -97 22.5 -184.5t71.5 -163.5t119 -132t171.5 -88t223.5 -32 q208 0 386.5 81.5t300.5 236.5q-282 -443 -750 -443q-141 0 -257.5 35.5t-198 97t-137.5 146t-82.5 181.5t-26.5 204zM705 514q0 -66 20 -105.5t57 -39.5q40 0 97 82t104 187.5t74 197.5q15 96 -8 150t-80 54q-67 0 -130.5 -94.5t-98.5 -216t-35 -215.5z" />
<glyph unicode="A" horiz-adv-x="1703" d="M-121 0l225 125l955 1192l-29 190l424 47v-1427l131 -127h-676l152 127v410h-565l-332 -416l201 -121h-486zM530 584h531v641h-19z" />
<glyph unicode="B" horiz-adv-x="1529" d="M-78 0l129 127l305 1278l-59 127h711q136 0 245 -28t177 -75t103.5 -106t35.5 -125q0 -145 -155.5 -258t-422.5 -131l-6 -25q227 -25 350 -107.5t123 -211.5q0 -206 -222.5 -335.5t-584.5 -129.5h-729zM430 43h223q91 0 169 42.5t129 110.5t79.5 150t28.5 164 q0 117 -60.5 192.5t-173.5 75.5h-219zM614 821h224q96 0 175.5 67t121 164.5t41.5 196.5q0 104 -52 171t-153 67h-197z" />
<glyph unicode="C" horiz-adv-x="1531" d="M98 618q0 188 84.5 364t225 305t332 206.5t397.5 77.5q128 0 259.5 -31t219.5 -82l-8 -35l-58 -483q-44 278 -154 431t-266 153q-166 0 -309 -134.5t-227 -361.5t-84 -489q0 -229 83 -372.5t216 -143.5q152 0 329 158.5t359 451.5l-168 -535l-8 -37q-89 -39 -230.5 -62.5 t-293.5 -23.5q-147 0 -277 49t-222.5 134t-146 204.5t-53.5 255.5z" />
<glyph unicode="D" horiz-adv-x="1607" d="M-78 0l129 127l305 1278l-59 127h637q139 0 255.5 -32.5t197.5 -89.5t137.5 -135t83 -168t26.5 -189q0 -129 -44 -259t-134.5 -248.5t-215 -210t-299 -146t-372.5 -54.5h-647zM430 43h143q116 0 221 59t182 157t134.5 221.5t86 257t28.5 259.5q0 138 -34.5 246.5 t-109 176t-180.5 67.5h-127z" />
<glyph unicode="E" horiz-adv-x="1443" d="M-78 0l129 127l305 1278l-59 127h1212l-10 -41l-45 -465l-252 461h-428l-160 -674h232l272 297l-153 -641l-129 299h-234l-172 -725h449l516 518l-174 -522l-7 -39h-1292z" />
<glyph unicode="F" horiz-adv-x="1423" d="M-78 0l129 127l305 1278l-59 127h1257l-10 -41l-49 -475l-264 471h-455l-162 -674h250l277 297l-154 -641l-133 299h-250l-153 -641l71 -127h-600z" />
<glyph unicode="G" horiz-adv-x="1644" d="M98 621q0 188 84.5 363t225.5 303.5t333 206t398 77.5q126 0 258 -31t221 -82l-8 -35l-58 -483q-44 278 -153.5 430t-265.5 152h-2q-165 0 -308 -132q-144 -134 -228.5 -361t-84.5 -488q0 -229 82 -373.5t211 -144.5h3q76 0 150 53t127 147l125 514h-284l10 47h749 l-118 -133l-162 -678l-164 115q-187 -113 -465 -113q-186 0 -341 83.5t-245 232t-90 330.5z" />
<glyph unicode="H" horiz-adv-x="1599" d="M-78 0l129 127l307 1278l-61 127h610l-149 -127l-135 -565h514l135 565l-86 127h614l-129 -127l-307 -1286l61 -119h-610l150 127l161 668h-516l-161 -676l83 -119h-610z" />
<glyph unicode="I" horiz-adv-x="686" d="M-78 0l129 127l305 1278l-59 127h588l-127 -127l-307 -1278l61 -127h-590z" />
<glyph unicode="J" horiz-adv-x="690" d="M-627 -225q0 66 44.5 114t107.5 48q62 0 98.5 -35t50.5 -84.5t24.5 -99t34 -84.5t66.5 -35q41 0 74.5 28.5t60.5 87t47.5 125t43.5 164.5l335 1401l-77 127h606l-129 -127l-326 -1362q-52 -214 -246.5 -349.5t-431.5 -135.5q-175 0 -279 60.5t-104 156.5z" />
<glyph unicode="K" horiz-adv-x="1714" d="M-78 0l129 127l305 1278l-59 127h592l-131 -127l-137 -569h69l780 696h365l-903 -559l663 -1063l-401 -90l-584 968l-159 -661l67 -127h-596z" />
<glyph unicode="L" horiz-adv-x="1394" d="M-78 0l129 127l305 1278l-59 127h590l-131 -127l-324 -1358h393l555 576l-190 -584l-8 -39h-1260z" />
<glyph unicode="M" horiz-adv-x="2029" d="M-96 0l196 123l299 1245l-92 164h473l242 -1059h31l702 1059h475l-129 -127l-307 -1278l64 -127h-592l129 127l272 1135h-29l-899 -1342l-295 1317h-20l-268 -1116l141 -121h-393z" />
<glyph unicode="N" horiz-adv-x="1662" d="M-74 0l197 123l293 1220l-127 189l461 22l645 -1007h30l207 862l-137 123h391l-196 -123l-361 -1489l-856 1337h-20l-275 -1136l144 -121h-396z" />
<glyph unicode="O" horiz-adv-x="1708" d="M98 612q0 189 80 366t213.5 307t315.5 208t378 78q180 0 327.5 -77t235 -223.5t87.5 -336.5q0 -125 -36.5 -247.5t-101 -228t-156 -195t-199 -153t-233.5 -99.5t-255 -36q-182 0 -332.5 82.5t-237 229t-86.5 325.5zM506 487q0 -220 66 -343.5t192 -123.5 q120 0 228.5 105.5t181 266.5t115 349t42.5 357q0 199 -65 313.5t-181 114.5t-224.5 -89.5t-185.5 -234.5t-123 -333.5t-46 -381.5z" />
<glyph unicode="P" horiz-adv-x="1466" d="M-78 0l129 127l305 1278l-59 127h682q272 0 423.5 -98.5t151.5 -278.5q0 -96 -54 -188t-151 -166.5t-247 -118.5q-144 -43 -311 -43h-15h-203l-122 -512l69 -127h-598zM584 682h168q72 0 138 31.5t114.5 84t84.5 119.5t54 140.5t18 144.5q0 126 -57.5 205.5t-167.5 79.5 h-160z" />
<glyph unicode="Q" horiz-adv-x="1705" d="M104 653q0 175 79 342.5t211 294t315.5 204t380.5 77.5q134 0 252 -45.5t205 -126.5t137.5 -201.5t50.5 -263.5q0 -189 -80.5 -366t-213.5 -307t-313.5 -208t-371.5 -78q-47 0 -101 7l-8 -33l885 -137l-467 -230l-500 352q-226 163 -343.5 339t-117.5 380zM508 487 q0 -218 68 -342.5t190 -124.5q96 0 186 69t157.5 182.5t119 254t78 289.5t26.5 283q0 199 -65.5 313.5t-180.5 114.5q-116 0 -224.5 -89.5t-185.5 -234.5t-123 -333.5t-46 -381.5z" />
<glyph unicode="R" horiz-adv-x="1617" d="M-78 0l129 127l305 1278l-59 127h704q234 0 376.5 -90t142.5 -230q0 -100 -69 -186t-175.5 -142t-241.5 -89l-8 -35l475 -838l-399 -80l-471 897l-33 2l-147 -614l65 -127h-594zM612 797h133q82 0 155.5 44t122.5 112.5t78 151t29 161.5q0 99 -48.5 160t-145.5 61h-160z " />
<glyph unicode="S" horiz-adv-x="1177" d="M59 47l11 41l16 535q54 -269 185.5 -434.5t295.5 -165.5q106 0 172 62t66 169q0 62 -31 119.5t-80.5 104.5t-109.5 94t-120.5 98.5t-110 107t-80.5 130.5t-31 159q0 137 76.5 253t207 183.5t283.5 67.5q100 0 216.5 -27.5t203.5 -70.5l-10 -41l-45 -451q-55 265 -158 404 t-244 139q-106 0 -178 -67.5t-72 -168.5q0 -60 31.5 -117t82.5 -105.5t112 -97.5t122 -102.5t112 -110.5t82.5 -131.5t31.5 -156.5q0 -136 -69.5 -247.5t-200.5 -178t-300 -66.5q-251 0 -467 72z" />
<glyph unicode="T" horiz-adv-x="1642" d="M156 981l198 510l11 41h1386l-10 -41l-37 -510l-285 506h-168l-327 -1364l98 -123h-647l151 127l326 1360h-154z" />
<glyph unicode="U" horiz-adv-x="1519" d="M127 463l221 930l-74 139h603l-127 -141l-207 -865q-13 -53 -13 -99q0 -93 53 -157q79 -94 248 -94q168 0 292.5 92t162.5 250l207 873l-133 141h387l-197 -141l-215 -906q-56 -224 -257.5 -367t-463.5 -143q-267 1 -403 137q-98 99 -98 238q0 54 14 113z" />
<glyph unicode="V" horiz-adv-x="1544" d="M242 1532h676l-152 -127v-897h20l719 903l-186 121h473l-223 -123l-1196 -1491v1487z" />
<glyph unicode="W" horiz-adv-x="2344" d="M242 1532h676l-152 -127v-870h25l458 616v254l-131 127h676l-152 -127v-870h23l649 874l-194 123h473l-215 -123l-1129 -1491v1153l-876 -1153v1487z" />
<glyph unicode="X" horiz-adv-x="1636" d="M-119 0l236 133l596 553l-310 705l-129 141h746l-191 -141l209 -482h37l502 498l-193 125h474l-222 -127l-569 -557l309 -703l133 -145h-794l237 141l-215 486h-32l-533 -504l195 -123h-486z" />
<glyph unicode="Y" horiz-adv-x="1544" d="M248 1532h723l-191 -141l201 -625h35l495 639l-194 127h473l-221 -127l-551 -705l-139 -573l69 -127h-600l131 127l135 553l-239 713z" />
<glyph unicode="Z" horiz-adv-x="1402" d="M-63 0l1173 1487h-389l-522 -488l194 492l10 41h1180l-1175 -1489h458l482 510l-152 -514l-6 -39h-1253z" />
<glyph unicode="[" horiz-adv-x="733" d="M-119 -475l508 2124h604l-8 -35h-274l-492 -2052h275l-9 -37h-604z" />
<glyph unicode="\" horiz-adv-x="704" d="M264 1575h51l199 -1821h-53z" />
<glyph unicode="]" horiz-adv-x="733" d="M-225 -475l8 37h274l492 2052h-273l9 35h604l-510 -2124h-604z" />
<glyph unicode="^" horiz-adv-x="743" d="M131 829l457 578l178 -578h-53l-148 471l-372 -471h-62z" />
<glyph unicode="_" horiz-adv-x="1112" d="M-63 -76l12 51h958l-12 -51h-958z" />
<glyph unicode="`" horiz-adv-x="690" d="M301 1663h393l90 -477z" />
<glyph unicode="a" horiz-adv-x="1343" d="M23 322q0 202 89 380.5t244.5 287t337.5 108.5q97 0 184 -29.5t148 -81.5l274 113l-206 -860q-9 -31 -4 -49.5t24 -18.5q37 0 97.5 90t131.5 248q-81 -270 -188.5 -402.5t-255.5 -132.5q-113 1 -165 71q-33 45 -32 111q0 39 11 85l41 166h-17q-189 -433 -426 -433 q-143 0 -215.5 97t-72.5 250zM412 334q0 -88 21.5 -140.5t62.5 -52.5t93 66t99 164t82 186t57 156l13 55q12 66 12 118t-12 92q-25 78 -92 79q-69 0 -134 -75.5t-108 -187t-68.5 -235.5t-25.5 -225z" />
<glyph unicode="b" horiz-adv-x="1331" d="M39 -25l354 1479l-117 78l560 168l-244 -1010h20q185 408 428 408q125 0 202 -97t77 -258q0 -97 -24.5 -193t-68.5 -180.5t-108 -157.5t-138.5 -125.5t-164 -82t-182.5 -29.5q-178 0 -305 136zM514 356q-5 -51 -5 -96q-1 -88 19 -150q30 -94 95 -96h2q79 0 151 128 q74 130 114 302t40 310q0 84 -19.5 133t-56.5 49q-40 0 -85 -46t-82.5 -112.5t-74 -150.5t-59.5 -150.5t-39 -120.5z" />
<glyph unicode="c" horiz-adv-x="997" d="M41 420q0 95 26.5 191t80.5 183.5t128.5 155.5t178 108t221.5 40q147 0 242.5 -68t95.5 -170q0 -70 -43 -121t-105 -51q-61 0 -97 39t-36 104v16q-1 23 1 51q2 40 3 64.5t-3 50t-20.5 38t-45.5 12.5q-77 0 -142 -67t-102 -179t-37 -242q0 -146 72 -243.5t192 -100.5h6 q101 0 185 69q87 71 145 206q-73 -258 -211 -394.5t-323 -136.5q-103 0 -183.5 36t-129.5 98.5t-74 141t-25 169.5z" />
<glyph unicode="d" horiz-adv-x="1339" d="M20 319q0 152 53 294.5t142.5 249t214.5 171t262 64.5q117 0 215 -45l99 401l-119 78l557 168l-352 -1460q-8 -35 -4 -51.5t22 -16.5q37 0 97.5 90t129.5 248q-81 -270 -186.5 -402.5t-249.5 -132.5q-117 1 -169 71q-33 45 -33 113q0 38 10 83l41 166h-15 q-185 -433 -426 -433q-143 0 -216 95.5t-73 248.5zM410 334q0 -88 21.5 -140.5t62.5 -52.5q40 0 91 63t97 159t81.5 183t59.5 161l17 67q11 62 11 112q1 55 -13 95q-26 76 -93 76q-69 0 -134 -75.5t-107.5 -187t-68 -235t-25.5 -225.5z" />
<glyph unicode="e" horiz-adv-x="1024" d="M41 418q0 120 43.5 240t120.5 218.5t197 160t260 61.5q169 0 261 -111q72 -87 71 -221q0 -38 -5 -80l-2 -16h-594q-6 -47 -6 -95q0 -146 72 -244.5t192 -99.5h3q104 -1 190 69t145 206q-73 -258 -211 -394.5t-323 -136.5q-103 0 -184 36t-130.5 98.5t-74.5 140.5t-25 168 zM397 702h236q76 0 96 113q8 46 8 87q0 47 -11 87q-21 74 -77 74q-84 0 -155.5 -103t-96.5 -258z" />
<glyph unicode="f" horiz-adv-x="813" d="M-535 -233q0 65 44 108t106 43q58 0 94 -33t51 -80t27 -93.5t35 -79.5t61 -33q39 0 64.5 27t40.5 81t24 109t22 139t27 143l193 799l-139 72l188 131l33 135q51 214 248.5 347.5t462.5 133.5q173 0 281 -64q106 -62 106 -159q0 -70 -44 -115q-42 -43 -100 -43 q-64 0 -100 35t-48.5 84.5t-22.5 99t-37 84.5t-78 35q-103 0 -163.5 -106t-117.5 -342l-41 -164h256l-31 -133h-256l-168 -692q-166 -678 -661 -678q-161 0 -259 54.5t-98 154.5z" />
<glyph unicode="g" horiz-adv-x="1126" d="M-272 -367q0 48 27.5 87.5t82.5 72t119.5 57.5t155.5 52l6 20q-60 54 -60 113q0 44 35.5 81.5t105.5 69.5t144 56.5t180 52.5h-28q-180 3 -285 89.5t-105 227.5q0 134 79.5 247t210.5 176t280 63q76 0 174 -18.5t143 -18.5h258l-32 -133h-191q33 -71 33 -154 q0 -158 -106.5 -280.5t-270.5 -171.5q-14 -4 -51 -16t-56.5 -18.5t-52 -18.5t-51 -22.5t-38.5 -24t-29 -28.5t-9 -32q0 -24 40 -53t99.5 -55t129 -60t129 -68t99.5 -80t40 -94q0 -84 -95.5 -163t-252 -127t-324.5 -48q-251 0 -392.5 59.5t-141.5 159.5zM70 -307 q0 -102 79.5 -165t200.5 -63q103 0 172.5 40.5t69.5 107.5q0 37 -45.5 73.5t-104.5 62.5t-141.5 64.5t-130.5 69.5q-100 -76 -100 -190zM418 496q0 -77 22.5 -121t65.5 -45h1q48 0 94 62q47 64 79 155t52 188.5t20 167.5q0 74 -22 117t-62 43q-65 0 -125 -104t-92.5 -234.5 t-32.5 -228.5z" />
<glyph unicode="h" horiz-adv-x="1388" d="M43 0l348 1456l-115 76l558 168l-279 -1155h14q227 553 512 553q127 0 191 -90q40 -56 40 -130q0 -44 -14 -94l-157 -551q-6 -20 -6 -34q0 -27 24 -27q37 0 98.5 90t131.5 248q-83 -271 -189 -403t-250 -132q-122 0 -174 76q-29 43 -29 105q0 47 17 104l166 576 q5 19 5 35q0 21 -8 37q-14 28 -46 28q-94 0 -223 -256t-234 -680h-381z" />
<glyph unicode="i" horiz-adv-x="733" d="M25 602q75 237 195 366.5t263 129.5q97 0 145 -60q30 -39 31 -97q0 -33 -10 -71l-164 -634q-5 -20 -5 -34q0 -30 24 -30q37 0 97.5 90t131.5 248q-83 -271 -188.5 -403t-249.5 -132q-119 -1 -171 71q-32 44 -33 109q0 41 13 89l154 592q6 21 6 35q0 26 -20 26 q-33 0 -93 -78.5t-126 -216.5zM330 1212l78 357h370l-78 -357h-370z" />
<glyph unicode="j" horiz-adv-x="702" d="M-319 -541q127 35 219.5 152.5t132.5 288.5l225 940q5 19 5 32q0 25 -19 25q-33 0 -93 -78.5t-126 -216.5q75 237 195 366.5t263 129.5q100 0 145 -66q29 -41 29 -100q0 -35 -10 -76l-235 -971q-40 -170 -231.5 -281t-499.5 -145zM326 1212l77 357h377l-78 -357h-376z " />
<glyph unicode="k" horiz-adv-x="1460" d="M41 0l350 1456l-115 76l558 170l-269 -1114h103l491 473h344l-606 -363l227 -456q16 -35 34 -51.5t44 -16.5q107 0 258 332q-91 -271 -198 -401t-269 -130q-172 0 -241 152l-193 428l-135 -555h-383z" />
<glyph unicode="l" horiz-adv-x="731" d="M100 242l291 1212l-115 78l558 168l-353 -1467q-4 -18 -4 -30q0 -31 23 -31q37 0 97.5 90t131.5 248q-83 -271 -188.5 -403t-247.5 -132q-119 0 -171 70q-33 44 -33 112q0 39 11 85z" />
<glyph unicode="m" horiz-adv-x="2025" d="M25 602q75 237 195 366.5t263 129.5q95 0 143 -61q31 -40 32 -95q0 -29 -9 -63l-69 -289h16q105 262 221 385t246 123q121 0 181 -88q39 -58 39 -134q0 -41 -11 -88l-47 -198h18q108 264 224.5 386t256.5 122q128 0 188 -88q37 -54 38 -127q0 -45 -15 -97l-157 -553 q-6 -21 -6 -35q0 -26 22 -26q38 0 99 90t130 248q-81 -270 -186.5 -402.5t-249.5 -132.5q-119 -1 -171 71q-32 44 -32 108q0 41 13 90l168 590q7 25 7 45q0 17 -5 29q-11 28 -41 28q-64 0 -144.5 -129.5t-156.5 -338.5t-142 -468h-374l198 834q5 25 5 44q0 16 -4 30 q-9 28 -34 28q-64 0 -142 -129.5t-151 -336t-141 -470.5h-383l201 844q5 18 5 29q0 24 -19 24q-33 0 -93 -78.5t-126 -216.5z" />
<glyph unicode="n" horiz-adv-x="1404" d="M25 602q75 237 195 366.5t263 129.5q97 0 143 -60q31 -40 31 -98q0 -28 -8 -61l-80 -334h17q224 553 512 553q135 0 195 -88q36 -53 36 -124q0 -47 -16 -102l-156 -551q-6 -21 -6 -34q0 -27 23 -27q38 0 99 90t130 248q-81 -271 -188 -403t-257 -132q-118 0 -168 76 q-29 43 -28 105q0 47 16 104l166 576q6 20 6 37q0 19 -8 35q-14 28 -45 28q-95 0 -223 -255t-234 -681h-383l201 844q11 53 -14 53q-33 0 -93 -78.5t-126 -216.5z" />
<glyph unicode="o" d="M41 410q0 184 94 343t254.5 252t347.5 93q200 0 324.5 -122.5t124.5 -318.5q0 -95 -29.5 -191.5t-89.5 -184.5t-142 -156.5t-195 -109t-241 -40.5q-189 0 -318.5 125.5t-129.5 309.5zM401 240q0 -228 107 -228q61 0 120 87.5t100 216t66 273t25 259.5q0 215 -92 215 q-64 0 -126 -85.5t-105 -211.5t-69 -268.5t-26 -257.5z" />
<glyph unicode="p" horiz-adv-x="1341" d="M-80 -565l340 1413q13 49 -16 49q-33 0 -93 -78.5t-126 -216.5q75 237 195 366.5t263 129.5q99 0 145 -62q30 -41 30 -97q0 -30 -9 -65l-45 -184h21q36 82 78 150.5t95.5 129t118.5 94.5t134 34q126 0 202 -97t76 -258q0 -97 -24.5 -193t-68.5 -180.5t-108 -157.5 t-138.5 -125.5t-164 -82t-182.5 -29.5q-110 0 -199 56l-90 -379l113 -68zM526 356q-5 -51 -5 -96q0 -88 19 -150q30 -95 95 -96h2q78 0 151 128q73 131 113.5 302.5t40.5 309.5q0 85 -19.5 133.5t-58.5 48.5q-49 0 -104 -66.5t-101.5 -167t-79.5 -188t-53 -158.5z" />
<glyph unicode="q" horiz-adv-x="1286" d="M20 319q0 152 53 294.5t142.5 249t214.5 171t262 64.5q97 0 184 -29.5t148 -81.5l279 113l-349 -1450l109 -66l-545 -149l234 973h-17q-185 -433 -426 -433q-143 0 -216 95.5t-73 248.5zM410 334q0 -88 21.5 -140.5t62.5 -52.5t93.5 66.5t99.5 164t83 187.5t57 158l13 53 q11 62 11 112q0 56 -13 97q-26 78 -93 78q-69 0 -134 -75.5t-107.5 -187t-68 -235t-25.5 -225.5z" />
<glyph unicode="r" horiz-adv-x="1153" d="M25 602q75 237 194.5 366.5t261.5 129.5q103 0 147 -60q29 -40 29 -96q0 -29 -8 -63l-78 -324h17q199 543 459 543q80 0 128 -44.5t48 -113.5q0 -71 -43.5 -121.5t-108.5 -50.5q-35 0 -62.5 12t-43 30t-29.5 39t-22.5 39t-21.5 30t-28 12q-159 0 -418 -910q-4 -14 -6 -20 h-383l201 844q5 18 5 29q0 24 -19 24q-33 0 -93 -78.5t-126 -216.5z" />
<glyph unicode="s" horiz-adv-x="925" d="M18 31l9 41l41 407q37 -209 136 -338t224 -129q67 0 108.5 37t41.5 101q0 40 -24 75.5t-63 64.5t-85.5 58t-93.5 64t-86 74.5t-63 97t-24 125.5q0 167 131.5 278t327.5 111q84 0 171 -16t140 -42l-8 -39l-31 -329q-47 174 -133 281.5t-188 107.5q-65 0 -108.5 -40.5 t-43.5 -100.5q0 -40 24 -78t62 -69t84.5 -63t93 -68t84.5 -76t62 -95t24 -117q0 -164 -129.5 -271.5t-330.5 -107.5q-85 0 -184 15.5t-169 40.5z" />
<glyph unicode="t" horiz-adv-x="866" d="M94 303l176 588l-155 78l178 129l35 141l415 121l-71 -299h295l-31 -133h-297l-158 -660q-6 -23 -5 -41q0 -24 9 -41q17 -30 60 -30q70 0 157.5 74.5t149.5 185.5q-92 -207 -224 -324t-280 -117q-155 -1 -226 91q-44 57 -44 135q0 47 16 102z" />
<glyph unicode="u" horiz-adv-x="1406" d="M25 602q75 238 194 367t262 129q107 0 151 -62q27 -38 26 -93q0 -36 -11 -79l-164 -602q-6 -24 -5 -42q0 -54 52 -54q84 0 197 218.5t244 676.5h383l-195 -821q-5 -22 -5 -36q0 -32 22 -32q37 0 97.5 90t131.5 248q-81 -269 -187 -402t-249 -133q-119 0 -171 71 q-33 45 -33 112q0 38 11 84l80 340h-14q-128 -333 -251 -470t-282 -137q-127 -1 -185 85q-35 52 -34 124q0 46 14 99l150 546q8 27 8 44q0 24 -18 24q-33 0 -92.5 -77t-126.5 -218z" />
<glyph unicode="v" horiz-adv-x="1099" d="M25 184q0 44 19.5 98t45.5 103.5t80 126.5t95 132t118 155q6 7 9 11.5t8.5 11t9.5 12.5h-301l51 227h428l30 41h46q-213 -575 -213 -778q0 -172 131 -172q98 0 195.5 85.5t156.5 206t59 224.5q0 44 -17 80.5t-41.5 61t-49 47t-41.5 49t-17 55.5q0 58 43.5 97.5 t106.5 39.5q71 0 111 -50.5t40 -140.5q0 -89 -30 -193.5t-83 -207.5t-130.5 -199t-165.5 -170t-195.5 -118t-214.5 -44q-132 0 -208 55t-76 154z" />
<glyph unicode="w" horiz-adv-x="1691" d="M4 164q0 48 22 106.5t76.5 145t99.5 151t137 190.5q37 51 56 77h-286l51 227h407l31 41h43q-235 -661 -235 -871q0 -79 47 -79q78 0 190.5 225.5t282.5 683.5h360l-186 -789q-4 -21 -5 -38q-1 -30 13 -50q20 -32 70 -32q66 0 141.5 56.5t133.5 136t97 168.5t39 153 q0 47 -25.5 90t-55.5 70t-55.5 63.5t-25.5 71.5q0 58 44.5 97.5t107.5 39.5q68 0 109 -47t41 -123q0 -77 -29.5 -177.5t-80.5 -206t-125.5 -208t-159.5 -182.5t-189 -129.5t-207 -49.5q-127 -1 -182 75q-35 48 -35 119q0 41 12 91l115 475h-17q-49 -128 -87 -219 t-84.5 -183.5t-91 -153t-97.5 -109.5t-113.5 -72t-130.5 -23q-103 0 -163 51.5t-60 137.5z" />
<glyph unicode="x" horiz-adv-x="1196" d="M-78 109q0 58 37.5 96.5t91.5 38.5q33 0 61 -17t45 -37.5t42 -37.5t53 -17q86 0 188 246l-108 469q-6 28 -15.5 37.5t-25.5 9.5q-38 0 -101 -80.5t-129 -214.5q74 236 193.5 366t257.5 130q76 0 118.5 -35t59.5 -109l43 -194h15q165 338 362 338q69 0 112.5 -38.5 t43.5 -98.5t-35.5 -100t-89.5 -40q-38 0 -67.5 17.5t-44 38t-36.5 38t-47 17.5q-92 0 -201 -227l103 -447q10 -44 28.5 -65t53.5 -21q114 0 262 338q-78 -264 -195 -399.5t-266 -135.5q-104 0 -161 45t-76 134l-39 163h-15q-76 -177 -155.5 -259.5t-194.5 -82.5 q-72 0 -120 38.5t-48 95.5z" />
<glyph unicode="y" horiz-adv-x="1130" d="M-471 -213q0 55 37 93t96 38q44 0 77.5 -24.5t58 -59.5t53 -69.5t79 -59t119.5 -24.5q89 0 182 38q20 312 29 619q4 158 4 279q0 114 -4 194q-3 82 -27 82q-30 0 -86 -77t-120 -212q76 240 184 367t240 127q92 0 136 -61t50 -177q6 -93 6 -241q0 -64 -1 -139 q-4 -247 -17 -476h18q157 144 261 318.5t104 336.5q0 40 -16 75.5t-38.5 62t-45 51.5t-38.5 54t-16 59q0 58 43.5 97.5t106.5 39.5q70 0 109.5 -51t39.5 -144q0 -131 -51.5 -280t-135.5 -283.5t-185 -251.5t-206 -203q-331 -280 -720 -280q-160 0 -243 49t-83 133z" />
<glyph unicode="z" horiz-adv-x="974" d="M-102 49l727 739h-457l65 273h658l47 47h49l-538 -557l182 -262q27 -39 47.5 -55.5t52.5 -16.5q55 0 112 70t130 223q-174 -535 -477 -535q-69 0 -118.5 25.5t-88.5 85.5l-113 184l-215 -221h-63z" />
<glyph unicode="{" horiz-adv-x="931" d="M70 -238q16 61 113 295t108 281q26 110 -24 172t-191 94q168 35 250 95.5t108 170.5q10 44 21 261t28 282q28 114 141 194.5t246 80.5q87 0 174.5 -41.5t131.5 -77.5q-63 24 -117 24q-81 0 -154 -55t-90 -133q-10 -43 -22 -262t-21 -258q-64 -256 -504 -269l-4 -24 q212 -6 312 -72.5t67 -197.5q-9 -36 -106.5 -272t-108.5 -281q-19 -79 19 -132t112 -53q56 0 131 21q-57 -34 -167 -76.5t-197 -42.5q-134 0 -209 80.5t-47 195.5z" />
<glyph unicode="|" horiz-adv-x="319" d="M-51 -246l446 1860h58l-445 -1860h-59z" />
<glyph unicode="}" horiz-adv-x="929" d="M-195 -395q65 -21 121 -21q74 0 136.5 53t82.5 132q12 46 28 281.5t24 271.5q61 257 508 270l8 24q-211 6 -308 71.5t-67 197.5q9 42 103.5 261.5t105.5 258.5q18 78 -28.5 133t-127.5 55q-52 0 -129 -24q35 20 85.5 43.5t134 49.5t145.5 26q132 0 207 -80.5t47 -194.5 q-15 -64 -107.5 -281t-103.5 -262q-28 -110 25 -170.5t204 -95.5q-157 -32 -236.5 -94t-105.5 -172q-12 -46 -27 -280.5t-30 -295.5q-26 -115 -139.5 -195.5t-247.5 -80.5q-87 0 -176 42.5t-132 76.5z" />
<glyph unicode="~" horiz-adv-x="1316" d="M27 377q180 214 246 280q147 149 252 159q9 1 18 1q61 0 137 -22.5t136.5 -49t135 -49t131.5 -22.5q64 0 119 22.5t119 81.5q-18 -20 -65 -73t-65 -73t-58 -63t-60 -61.5t-53.5 -49.5t-55.5 -44t-50.5 -29.5t-53 -22.5t-49.5 -6q-76 0 -181 35.5t-204 71t-162 35.5 q-56 0 -112 -26t-125 -95z" />
<glyph unicode="&#xa1;" horiz-adv-x="604" d="M-156 -496l320 758q134 312 178 410q-6 -197 -18 -410l-48 -758h-432zM166 717l98 375h367l-99 -375h-366z" />
<glyph unicode="&#xa2;" horiz-adv-x="997" d="M90 621q0 94 26 188.5t78.5 181t125 154t173 109t214.5 44.5l24 101h45l-24 -101q137 -8 224 -74t87 -163q0 -70 -43 -121t-105 -51q-61 0 -97 39t-36 104q-1 25 1 60.5t3 59.5t-1 48.5t-12.5 39.5t-29.5 20l-188 -777q64 -48 145 -51q104 -2 191 69t145 206 q-73 -258 -211 -394.5t-323 -136.5h-21l-67 -282h-45l69 286q-171 21 -259.5 144t-88.5 297zM436 776q0 -162 84 -258l178 744q-111 -12 -186.5 -153.5t-75.5 -332.5z" />
<glyph unicode="&#xa3;" d="M-68 0l86 358q128 0 226.5 71t126.5 185q17 68 -19 170h-211l23 101h141q-14 31 -22 50.5t-18 50t-13.5 55t-3 55.5t7.5 61q29 119 129.5 214t251.5 147.5t324 52.5q123 -1 216 -30.5t139.5 -84.5t29.5 -127q-12 -57 -56 -94t-102 -37q-60 0 -92 34t-41 82t-17 96t-33 82 t-75 34q-91 0 -164 -67.5t-98 -168.5q-10 -43 -11.5 -84.5t4 -74t16.5 -68t22.5 -61.5t25 -59t20.5 -58h342l-24 -101h-305q0 -6 1 -18t0.5 -20.5t-3.5 -16.5q-29 -123 -163.5 -217t-330.5 -133l-4 -21h885l-84 -358h-1127z" />
<glyph unicode="&#xa4;" horiz-adv-x="1099" d="M31 256q9 46 50.5 76t116.5 62.5t111 54.5q-64 98 -33 245q35 147 138 242q-23 22 -65 49t-69.5 45.5t-46 48.5t-10.5 66q8 33 32 53.5t56 20.5q36 0 58 -26.5t30.5 -60t21 -86t25.5 -83.5q104 77 224 77q115 0 186 -84q30 35 74.5 107.5t79.5 109t77 35.5 q35 0 54.5 -23.5t13.5 -60.5q-10 -46 -51.5 -76t-117.5 -63t-112 -55q60 -97 29 -244q-32 -151 -133 -242q23 -22 64.5 -50t69.5 -47t47 -49t12 -65q-8 -34 -31 -54.5t-55 -20.5q-30 1 -50.5 17t-31.5 45t-18 59t-17 70t-21 67q-100 -78 -219 -78q-121 0 -190 82 q-27 -31 -59.5 -82t-53.5 -84.5t-52.5 -59.5t-64.5 -26q-37 0 -56.5 24.5t-12.5 63.5zM367 694q-23 -110 26 -185t144 -75q95 -2 175 71t103 183q23 107 -25.5 181.5t-142.5 74.5q-96 1 -175.5 -70.5t-104.5 -179.5z" />
<glyph unicode="&#xa5;" horiz-adv-x="1550" d="M248 1532h731l-195 -141l203 -613h37l492 629l-201 125h481l-225 -127l-553 -700h336l-11 -39h-329l-25 -103h332l-10 -39h-332l-96 -397l69 -127h-600l131 127l97 397h-322l10 39h322l22 103h-321l10 39h313l-235 688z" />
<glyph unicode="&#xa6;" horiz-adv-x="319" d="M-51 -246l201 840h59l-201 -840h-59zM199 799l196 815h58l-195 -815h-59z" />
<glyph unicode="&#xa7;" horiz-adv-x="2048" d="M481 -25l11 39l36 379q13 -125 69.5 -226.5t145 -160t191.5 -59.5q107 -2 173.5 48.5t66.5 133.5q0 40 -26 72t-68 53t-96 43t-110.5 40.5t-110.5 46.5t-96 60t-68 81.5t-26 111.5q0 88 62.5 169t169.5 142l6 25q-82 79 -82 180q0 117 74.5 213.5t199.5 150.5t271 54 q95 0 195.5 -22.5t158.5 -55.5l-8 -39l-31 -311q-43 178 -141.5 283.5t-228.5 105.5q-97 0 -165.5 -46.5t-68.5 -119.5q0 -42 33.5 -76.5t86.5 -59t117.5 -48.5t129 -52.5t117.5 -63t86.5 -87t33.5 -117.5q0 -89 -63.5 -174.5t-171.5 -148.5l-6 -31q84 -81 84 -182 q0 -119 -72.5 -214.5t-198 -148.5t-278.5 -53q-184 0 -402 65zM784 854q0 -43 36 -77t97.5 -59.5t127.5 -49t140.5 -57t123.5 -70.5q59 27 59 86q0 40 -36 72t-96.5 58t-126.5 50t-139.5 59t-121.5 74q-29 -12 -46.5 -35.5t-17.5 -50.5z" />
<glyph unicode="&#xa8;" horiz-adv-x="1224" d="M391 1251l76 324h328l-74 -324h-330zM858 1251l74 324h330l-74 -324h-330z" />
<glyph unicode="&#xa9;" horiz-adv-x="1628" d="M72 549q0 156 50 306.5t141 273.5t211.5 217t270 146t306.5 52q282 0 449 -167t167 -439q0 -195 -78.5 -377t-209.5 -316.5t-313 -215.5t-378 -80q-186 1 -326 76.5t-215 211t-75 312.5zM184 569q0 -233 141.5 -377.5t385.5 -144.5q172 0 329 72t269 190.5t178.5 277.5 t66.5 328q0 236 -141.5 382.5t-384.5 146.5q-171 0 -328 -72.5t-269.5 -192.5t-179.5 -280t-67 -330zM457 629q0 154 79.5 288t216 213.5t296.5 79.5q140 0 231 -61l-6 -27l-39 -309q-15 90 -31.5 152.5t-40 112.5t-56 74t-75.5 24q-82 0 -149.5 -65.5t-102.5 -163 t-35 -199.5q0 -118 51.5 -194.5t155.5 -76.5q90 0 168.5 51t122.5 138q-64 -176 -181 -275.5t-269 -99.5q-84 0 -149.5 27t-105.5 74t-60.5 107t-20.5 130z" />
<glyph unicode="&#xaa;" horiz-adv-x="802" d="M201 1128q0 113 50.5 214.5t142.5 165t202 63.5q118 0 192 -64l156 64l-119 -500l70 -43l-326 -102l58 237h-11q-88 -237 -243 -237q-79 0 -125.5 54.5t-46.5 147.5zM240 449l82 374h366l-82 -374h-366zM426 1139q0 -115 53 -115q23 0 53 36t56.5 89t48 106t33.5 93l4 14 q21 88 4 136t-62 48q-49 0 -94.5 -71t-70.5 -165t-25 -171z" />
<glyph unicode="&#xab;" horiz-adv-x="1112" d="M33 547l665 381l-241 -381l57 -381zM522 549l668 381l-242 -381l58 -381z" />
<glyph unicode="&#xac;" horiz-adv-x="995" d="M88 713l12 49h858l-127 -524h-53l117 475h-807z" />
<glyph unicode="&#xad;" horiz-adv-x="647" d="M80 514l26 123h494l-29 -123h-491z" />
<glyph unicode="&#xae;" horiz-adv-x="1185" d="M139 852q0 136 55.5 264t149 223t223 152t269.5 57q197 0 317.5 -117.5t120.5 -308.5q0 -109 -35 -214t-99.5 -191.5t-149.5 -152.5t-191 -103t-219 -37q-199 0 -320 118t-121 310zM244 870q0 -159 96.5 -258.5t261.5 -99.5q156 0 288 85t205.5 221t73.5 288 q0 157 -96 255.5t-258 98.5q-117 0 -224.5 -50t-182.5 -132t-119.5 -189t-44.5 -219zM367 711l63 69l109 453l-21 61h256q104 0 162.5 -33t58.5 -90q0 -63 -60.5 -109t-141.5 -56l188 -297l-160 -39l-182 323l-6 4l-51 -219l30 -67h-245zM639 1020h55q62 0 105 52t43 112 q0 39 -21.5 63.5t-60.5 24.5h-62z" />
<glyph unicode="&#xaf;" horiz-adv-x="1009" d="M393 1292l41 166h596l-43 -166h-594z" />
<glyph unicode="&#xb0;" horiz-adv-x="759" d="M199 1139q0 172 127 302t303 130q123 0 196.5 -72.5t73.5 -189.5q0 -83 -33.5 -163t-90 -141t-136.5 -98t-168 -37q-123 0 -197.5 74.5t-74.5 194.5zM295 1161q0 -92 51 -150.5t141 -58.5q85 0 159.5 48.5t116.5 126.5t42 163q0 88 -52.5 143.5t-142.5 55.5 q-132 0 -223.5 -98t-91.5 -230z" />
<glyph unicode="&#xb1;" horiz-adv-x="964" d="M-31 164l13 49h858l-13 -49h-858zM106 727l13 49h403l86 361h47l-86 -361h406l-12 -49h-406l-86 -362h-47l86 362h-404z" />
<glyph unicode="&#xb2;" horiz-adv-x="563" d="M141 936q361 327 361 510q0 61 -43 61q-24 0 -43 -16q-19 -14 -29 -51t-13.5 -70.5t-24.5 -60.5t-60 -27q-30 0 -49 15t-19 42q0 47 62.5 99.5t144.5 85t141 32.5q65 0 103.5 -31t38.5 -81q0 -32 -17.5 -64.5t-42 -57.5t-65.5 -54.5t-74 -49.5t-82 -49t-76 -47h322 l-43 -186h-492z" />
<glyph unicode="&#xb3;" horiz-adv-x="610" d="M195 1112q0 41 25 65.5t59 24.5q36 0 51.5 -19t12 -46.5t-9 -58.5t-12 -54.5t2.5 -34.5q12 -16 45 -16q56 0 92.5 62t36.5 126q0 33 -16 52.5t-46 19.5q-21 0 -61 -12q71 38 116.5 95.5t45.5 125.5q0 30 -12 47.5t-31 17.5q-23 0 -45 -16q-19 -14 -28 -51t-12.5 -70.5 t-24 -60.5t-60.5 -27q-30 0 -49 15t-19 42q0 47 62.5 99.5t144.5 85t141 32.5q67 0 106.5 -26.5t39.5 -69.5q0 -20 -6 -38t-19.5 -33.5t-27 -28t-35.5 -25t-38.5 -21.5t-43.5 -19t-41.5 -15.5t-41.5 -14.5l-36 -12q27 9 76 9q82 0 129 -33.5t47 -93.5q0 -95 -88 -152 t-209 -57q-74 0 -147.5 58.5t-73.5 127.5z" />
<glyph unicode="&#xb4;" horiz-adv-x="581" d="M225 1186l205 477h401z" />
<glyph unicode="&#xb5;" horiz-adv-x="1409" d="M-125 -565l379 1394q21 68 -10 68q-33 0 -93 -78.5t-126 -216.5q75 237 195 366.5t263 129.5q99 0 146.5 -62t17.5 -174l-164 -602q-11 -43 2 -69.5t45 -26.5q84 0 201 225t244 672h383l-195 -821q-17 -68 17 -68q37 0 97.5 90t129.5 248q-81 -270 -186.5 -402.5 t-249.5 -132.5q-118 0 -169.5 71.5t-21.5 197.5l80 342h-14q-99 -262 -195 -400.5t-205 -179.5q-19 -3 -32 2l-99 -362l107 -62z" />
<glyph unicode="&#xb6;" horiz-adv-x="2048" d="M420 901q0 121 52 237.5t136 202.5t196.5 138.5t227.5 52.5h901l-121 -129l-348 -1452q-41 -173 -219.5 -282t-421.5 -109q-178 0 -286.5 61t-108.5 162q0 69 43.5 111.5t106.5 42.5q44 0 74.5 -18.5t46.5 -48t27.5 -65t23.5 -71t28.5 -65t48 -48t76.5 -18.5 q101 0 178 100t123 291l359 1497h-97l-401 -1677h-264l162 671h-154q-171 0 -280 119.5t-109 296.5z" />
<glyph unicode="&#xb7;" horiz-adv-x="499" d="M57 459l82 375h369l-82 -375h-369z" />
<glyph unicode="&#xb8;" horiz-adv-x="817" d="M4 -289l283 289h35l-52 -86l95 -68q42 -28 56.5 -62t4.5 -83q-25 -97 -145 -169t-267 -75q117 33 131 101q6 20 -0.5 33t-25.5 28z" />
<glyph unicode="&#xb9;" horiz-adv-x="446" d="M156 936l88 74l96 403l-92 55l346 88l-131 -548l57 -72h-364z" />
<glyph unicode="&#xba;" horiz-adv-x="729" d="M176 449l82 374h367l-82 -374h-367zM211 1182q0 105 56.5 195t150.5 142t200 52q116 0 187.5 -72t71.5 -180q0 -100 -57.5 -191.5t-152.5 -146.5t-198 -55q-115 0 -186.5 71.5t-71.5 184.5zM414 1067q0 -113 63 -113q38 0 75.5 56.5t62.5 135.5t40 159t15 133 q0 104 -58 104q-41 0 -79 -54t-63.5 -130.5t-40.5 -155.5t-15 -135z" />
<glyph unicode="&#xbb;" horiz-adv-x="1112" d="M-57 168l239 381l-57 381l483 -381zM432 166l240 381l-58 381l484 -381z" />
<glyph unicode="&#xbc;" horiz-adv-x="843" d="M20 137l635 531l-100 -410h96l-26 -121h-99l-16 -65l53 -72h-356l88 72l16 65h-291zM143 739l13 49h667l-12 -49h-668zM201 258h137l37 143zM330 936l88 74l98 403l-94 55l348 88l-133 -548l57 -72h-364z" />
<glyph unicode="&#xbd;" horiz-adv-x="843" d="M80 0q362 324 362 510q0 61 -43 61q-23 0 -45 -16q-18 -14 -27.5 -51t-13 -70.5t-24.5 -60.5t-60 -27q-30 0 -48.5 15t-18.5 42q0 47 62.5 99.5t144.5 85.5t141 33q65 0 103 -31.5t38 -81.5q0 -39 -21 -75t-64.5 -71t-80.5 -59.5t-99.5 -61.5t-90.5 -55h321l-45 -186 h-491zM143 739l13 49h667l-12 -49h-668zM330 936l88 74l98 403l-94 55l348 88l-133 -548l57 -72h-364z" />
<glyph unicode="&#xbe;" horiz-adv-x="843" d="M20 137l633 531l-98 -410h96l-28 -121h-97l-16 -65l51 -72h-354l88 72l14 65h-289zM143 739l13 49h667l-12 -49h-668zM201 258h137l37 143zM303 1112q0 41 24.5 65.5t59.5 24.5q36 0 51.5 -19t11.5 -46.5t-10 -58.5t-12.5 -54.5t2.5 -34.5q16 -16 47 -16q54 0 90.5 62 t36.5 126q0 72 -61 72q-20 0 -60 -12q71 39 116.5 96t45.5 125q0 30 -12 47.5t-31 17.5q-26 0 -45 -16q-19 -14 -28 -51t-12.5 -70.5t-24.5 -60.5t-62 -27q-29 0 -47 15t-18 42q0 47 62 99.5t143.5 85t140.5 32.5q68 0 107.5 -26.5t39.5 -69.5q0 -20 -6 -38t-19.5 -33.5 t-26.5 -28t-36.5 -25t-39 -21t-43.5 -19.5t-41.5 -15.5l-42 -14t-36.5 -12.5q30 9 78 9q80 0 128 -34t48 -93q0 -95 -88.5 -152t-208.5 -57q-75 0 -148 58t-73 128z" />
<glyph unicode="&#xbf;" horiz-adv-x="927" d="M-123 -133q0 80 31.5 147t78.5 111.5t118.5 87t133 68.5t142 60.5t127.5 59.5q44 25 65 48t31 65l29 129q33 -75 51.5 -121.5t35 -108t15.5 -108.5q-1 -78 -39 -131t-110 -92q-41 -22 -117 -53t-133.5 -57t-116 -62t-91 -85.5t-32.5 -109.5q0 -83 63 -133.5t165 -50.5 q37 0 62 9t38 20.5t19 36t7 40.5t1 49v11q2 85 46 135.5t117 50.5q61 0 99.5 -37t38.5 -96q0 -116 -113.5 -186t-300.5 -70q-204 0 -332.5 104.5t-128.5 268.5zM436 707l82 372h367l-82 -372h-367z" />
<glyph unicode="&#xc0;" horiz-adv-x="1703" d="M-121 0l225 125l955 1192l-29 190l424 47v-1427l131 -127h-676l152 127v410h-565l-332 -416l201 -121h-486zM530 584h531v641h-19zM809 2048h418l131 -428z" />
<glyph unicode="&#xc1;" horiz-adv-x="1703" d="M-121 0l225 125l955 1192l-29 190l424 47v-1427l131 -127h-676l152 127v410h-565l-332 -416l201 -121h-486zM530 584h531v641h-19zM1143 1620l235 428h418z" />
<glyph unicode="&#xc2;" horiz-adv-x="1703" d="M-121 0l225 125l955 1192l-29 190l424 47v-1427l131 -127h-676l152 127v410h-565l-332 -416l201 -121h-486zM530 584h531v641h-19zM903 1616l465 442l248 -442l-320 141z" />
<glyph unicode="&#xc3;" horiz-adv-x="1703" d="M-121 0l225 125l955 1192l-29 190l424 47v-1427l131 -127h-676l152 127v410h-565l-332 -416l201 -121h-486zM530 584h531v641h-19zM883 1636q227 365 362 365q34 0 140.5 -33t158.5 -33q47 0 100.5 33.5t90.5 85.5q-72 -163 -160.5 -269t-175.5 -106q-42 0 -154 33 t-170 33q-43 0 -95.5 -30t-96.5 -79z" />
<glyph unicode="&#xc4;" horiz-adv-x="1703" d="M-121 0l225 125l955 1192l-29 190l424 47v-1427l131 -127h-676l152 127v410h-565l-332 -416l201 -121h-486zM530 584h531v641h-19zM874 1677l74 324h330l-76 -324h-328zM1341 1677l74 324h328l-74 -324h-328z" />
<glyph unicode="&#xc5;" horiz-adv-x="1703" d="M-121 0l225 125l955 1192l-29 190l424 47v-1427l131 -127h-676l152 127v410h-565l-332 -416l201 -121h-486zM530 584h531v641h-19zM1071 1808q0 112 77 186t191 74q88 0 145.5 -55.5t57.5 -140.5q0 -115 -76 -190.5t-190 -75.5q-88 0 -146.5 57.5t-58.5 144.5zM1174 1823 q0 -53 32.5 -87t81.5 -34q66 0 109 45t43 111q0 49 -32.5 81.5t-80.5 32.5q-66 0 -109.5 -42.5t-43.5 -106.5z" />
<glyph unicode="&#xc6;" horiz-adv-x="2265" d="M-121 0l223 133l1031 1311l20 88h1178l-11 -41l-55 -465l-242 461h-424l-163 -674h237l264 297l-151 -641l-123 299h-238l-174 -725h459l506 518l-174 -522l-10 -39h-1276l121 139l96 398h-490l-311 -398l193 -139h-486zM518 582h465l199 821h-21z" />
<glyph unicode="&#xc7;" horiz-adv-x="1531" d="M98 618q0 188 84.5 364t225 305t332 206.5t397.5 77.5q128 0 259.5 -31t219.5 -82l-8 -35l-58 -483q-44 278 -154 431t-266 153q-166 0 -309 -134.5t-227 -361.5t-84 -489q0 -229 83 -372.5t216 -143.5q152 0 329 158.5t359 451.5l-168 -535l-8 -37q-89 -39 -230.5 -62.5 t-293.5 -23.5h-2l-37 -61l94 -68q42 -28 56.5 -62t4.5 -83q-25 -97 -144.5 -169t-266.5 -75q117 33 131 101q6 20 -1 33t-26 28l-114 92l260 266q-186 9 -335.5 94t-234 228.5t-84.5 318.5z" />
<glyph unicode="&#xc8;" horiz-adv-x="1443" d="M-78 0l129 127l305 1278l-59 127h1212l-10 -41l-45 -465l-252 461h-428l-160 -674h232l272 297l-153 -641l-129 299h-234l-172 -725h449l516 518l-174 -522l-7 -39h-1292zM516 2048h418l131 -428z" />
<glyph unicode="&#xc9;" horiz-adv-x="1443" d="M-78 0l129 127l305 1278l-59 127h1212l-10 -41l-45 -465l-252 461h-428l-160 -674h232l272 297l-153 -641l-129 299h-234l-172 -725h449l516 518l-174 -522l-7 -39h-1292zM850 1620l235 428h418z" />
<glyph unicode="&#xca;" horiz-adv-x="1443" d="M-78 0l129 127l305 1278l-59 127h1212l-10 -41l-45 -465l-252 461h-428l-160 -674h232l272 297l-153 -641l-129 299h-234l-172 -725h449l516 518l-174 -522l-7 -39h-1292zM610 1616l465 442l248 -442l-319 141z" />
<glyph unicode="&#xcb;" horiz-adv-x="1443" d="M-78 0l129 127l305 1278l-59 127h1212l-10 -41l-45 -465l-252 461h-428l-160 -674h232l272 297l-153 -641l-129 299h-234l-172 -725h449l516 518l-174 -522l-7 -39h-1292zM584 1677l73 324h330l-76 -324h-327zM1051 1677l73 324h328l-74 -324h-327z" />
<glyph unicode="&#xcc;" horiz-adv-x="686" d="M-78 0l129 127l305 1278l-59 127h588l-127 -127l-307 -1278l61 -127h-590zM154 2048h417l131 -428z" />
<glyph unicode="&#xcd;" horiz-adv-x="686" d="M-78 0l129 127l305 1278l-59 127h588l-127 -127l-307 -1278l61 -127h-590zM487 1620l236 428h418z" />
<glyph unicode="&#xce;" horiz-adv-x="686" d="M-78 0l129 127l305 1278l-59 127h588l-127 -127l-307 -1278l61 -127h-590zM248 1616l465 442l248 -442l-320 141z" />
<glyph unicode="&#xcf;" horiz-adv-x="686" d="M-78 0l129 127l305 1278l-59 127h588l-127 -127l-307 -1278l61 -127h-590zM221 1677l74 324h330l-76 -324h-328zM688 1677l74 324h328l-74 -324h-328z" />
<glyph unicode="&#xd0;" horiz-adv-x="1611" d="M-74 0l129 127l156 645h-98l10 41h98l141 592l-61 127h637q139 0 255.5 -32.5t197.5 -89.5t137.5 -135t83 -168t26.5 -189q0 -129 -44 -259t-134.5 -248.5t-215 -210t-299 -146t-372.5 -54.5h-647zM434 43h144q117 0 222 59t182 157t133.5 221.5t85 257t28.5 259.5 q0 138 -34.5 246.5t-108.5 176t-179 67.5h-127l-162 -674h289l-10 -41h-289z" />
<glyph unicode="&#xd1;" horiz-adv-x="1662" d="M-74 0l197 123l293 1220l-127 189l461 22l645 -1007h30l207 862l-137 123h391l-196 -123l-361 -1489l-856 1337h-20l-275 -1136l144 -121h-396zM752 1636q227 365 362 365q34 0 140.5 -33t158.5 -33q47 0 100.5 33.5t90.5 85.5q-72 -163 -160.5 -269t-175.5 -106 q-42 0 -154 33t-170 33q-43 0 -95.5 -30t-96.5 -79z" />
<glyph unicode="&#xd2;" horiz-adv-x="1708" d="M98 612q0 189 80 366t213.5 307t315.5 208t378 78q180 0 327.5 -77t235 -223.5t87.5 -336.5q0 -125 -36.5 -247.5t-101 -228t-156 -195t-199 -153t-233.5 -99.5t-255 -36q-182 0 -332.5 82.5t-237 229t-86.5 325.5zM506 487q0 -220 66 -343.5t192 -123.5 q120 0 228.5 105.5t181 266.5t115 349t42.5 357q0 199 -65 313.5t-181 114.5t-224.5 -89.5t-185.5 -234.5t-123 -333.5t-46 -381.5zM662 2048h417l131 -428z" />
<glyph unicode="&#xd3;" horiz-adv-x="1708" d="M98 612q0 189 80 366t213.5 307t315.5 208t378 78q180 0 327.5 -77t235 -223.5t87.5 -336.5q0 -125 -36.5 -247.5t-101 -228t-156 -195t-199 -153t-233.5 -99.5t-255 -36q-182 0 -332.5 82.5t-237 229t-86.5 325.5zM506 487q0 -220 66 -343.5t192 -123.5 q120 0 228.5 105.5t181 266.5t115 349t42.5 357q0 199 -65 313.5t-181 114.5t-224.5 -89.5t-185.5 -234.5t-123 -333.5t-46 -381.5zM995 1620l236 428h418z" />
<glyph unicode="&#xd4;" horiz-adv-x="1708" d="M98 612q0 189 80 366t213.5 307t315.5 208t378 78q180 0 327.5 -77t235 -223.5t87.5 -336.5q0 -125 -36.5 -247.5t-101 -228t-156 -195t-199 -153t-233.5 -99.5t-255 -36q-182 0 -332.5 82.5t-237 229t-86.5 325.5zM506 487q0 -220 66 -343.5t192 -123.5 q120 0 228.5 105.5t181 266.5t115 349t42.5 357q0 199 -65 313.5t-181 114.5t-224.5 -89.5t-185.5 -234.5t-123 -333.5t-46 -381.5zM756 1616l465 442l247 -442l-319 141z" />
<glyph unicode="&#xd5;" horiz-adv-x="1708" d="M98 612q0 189 80 366t213.5 307t315.5 208t378 78q180 0 327.5 -77t235 -223.5t87.5 -336.5q0 -125 -36.5 -247.5t-101 -228t-156 -195t-199 -153t-233.5 -99.5t-255 -36q-182 0 -332.5 82.5t-237 229t-86.5 325.5zM506 487q0 -220 66 -343.5t192 -123.5 q120 0 228.5 105.5t181 266.5t115 349t42.5 357q0 199 -65 313.5t-181 114.5t-224.5 -89.5t-185.5 -234.5t-123 -333.5t-46 -381.5zM735 1636q104 168 198.5 266.5t164.5 98.5q34 0 140.5 -33t158.5 -33q47 0 100 33t90 86q-72 -163 -160.5 -269t-175.5 -106 q-42 0 -153.5 33t-169.5 33q-43 0 -96 -30t-97 -79z" />
<glyph unicode="&#xd6;" horiz-adv-x="1708" d="M98 612q0 189 80 366t213.5 307t315.5 208t378 78q180 0 327.5 -77t235 -223.5t87.5 -336.5q0 -125 -36.5 -247.5t-101 -228t-156 -195t-199 -153t-233.5 -99.5t-255 -36q-182 0 -332.5 82.5t-237 229t-86.5 325.5zM506 487q0 -220 66 -343.5t192 -123.5 q120 0 228.5 105.5t181 266.5t115 349t42.5 357q0 199 -65 313.5t-181 114.5t-224.5 -89.5t-185.5 -234.5t-123 -333.5t-46 -381.5zM729 1677l74 324h330l-76 -324h-328zM1196 1677l74 324h327l-73 -324h-328z" />
<glyph unicode="&#xd7;" horiz-adv-x="952" d="M-8 256l483 387l-291 381h62l268 -350l434 350h72l-479 -385l293 -383h-62l-270 352l-439 -352h-71z" />
<glyph unicode="&#xd8;" horiz-adv-x="1708" d="M57 0l199 190q-158 179 -158 422q0 189 80 366t213.5 307t315.5 208t378 78q265 0 443 -158l123 119h59l-151 -146q176 -179 176 -452q0 -125 -36.5 -247.5t-101 -228t-156 -195t-199 -153t-233.5 -99.5t-255 -36q-138 0 -259 49t-210 138l-168 -162h-60zM506 487 q0 -37 2 -55l817 787q-19 146 -81 226.5t-159 80.5q-116 0 -224.5 -89.5t-185.5 -234.5t-123 -333.5t-46 -381.5zM510 379q15 -171 80 -265t174 -94q120 0 228.5 105.5t181 266.5t115 349t42.5 357q0 44 -2 67z" />
<glyph unicode="&#xd9;" horiz-adv-x="1519" d="M127 463l221 930l-74 139h603l-127 -141l-207 -865q-39 -161 40 -255.5t248 -94.5q168 0 292.5 92t162.5 250l207 873l-133 141h387l-197 -141l-215 -906q-56 -224 -257.5 -367t-463.5 -143q-267 0 -403 136.5t-84 351.5zM629 2048h418l131 -428z" />
<glyph unicode="&#xda;" horiz-adv-x="1519" d="M127 463l221 930l-74 139h603l-127 -141l-207 -865q-39 -161 40 -255.5t248 -94.5q168 0 292.5 92t162.5 250l207 873l-133 141h387l-197 -141l-215 -906q-56 -224 -257.5 -367t-463.5 -143q-267 0 -403 136.5t-84 351.5zM961 1620l235 428h418z" />
<glyph unicode="&#xdb;" horiz-adv-x="1519" d="M127 463l221 930l-74 139h603l-127 -141l-207 -865q-39 -161 40 -255.5t248 -94.5q168 0 292.5 92t162.5 250l207 873l-133 141h387l-197 -141l-215 -906q-56 -224 -257.5 -367t-463.5 -143q-267 0 -403 136.5t-84 351.5zM721 1616l465 442l248 -442l-320 141z" />
<glyph unicode="&#xdc;" horiz-adv-x="1519" d="M127 463l221 930l-74 139h603l-127 -141l-207 -865q-39 -161 40 -255.5t248 -94.5q168 0 292.5 92t162.5 250l207 873l-133 141h387l-197 -141l-215 -906q-56 -224 -257.5 -367t-463.5 -143q-267 0 -403 136.5t-84 351.5zM694 1677l74 324h330l-76 -324h-328zM1161 1677 l74 324h328l-74 -324h-328z" />
<glyph unicode="&#xdd;" horiz-adv-x="1544" d="M248 1532h723l-191 -141l201 -625h35l495 639l-194 127h473l-221 -127l-551 -705l-139 -573l69 -127h-600l131 127l135 553l-239 713zM973 1620l235 428h418z" />
<glyph unicode="&#xde;" horiz-adv-x="1531" d="M-78 0l121 127l307 1278l-53 127h571l-118 -127l-41 -166h260q142 0 254 -30.5t181 -83.5t104.5 -120t35.5 -143q0 -95 -54 -187t-151 -166t-247 -119.5t-326 -45.5h-270l-54 -217l54 -127h-574zM506 389h237q89 0 167.5 48t130 124t81 168t29.5 182q0 124 -57.5 203.5 t-169.5 79.5h-226z" />
<glyph unicode="&#xdf;" horiz-adv-x="1511" d="M68 0l223 930l-125 76l170 114l31 123q23 95 92.5 181.5t169.5 150t229 100.5t264 37q187 0 296.5 -66t109.5 -171q0 -63 -32 -112.5t-83 -81.5t-112.5 -58.5t-123 -50.5t-112.5 -50.5t-83 -66.5t-32 -90q0 -42 26.5 -82.5t69 -76t93.5 -72t102 -77t93.5 -84.5t69 -101 t26.5 -120q0 -161 -128.5 -269t-320.5 -108q-206 0 -369 56l9 41l41 403q13 -114 61 -218.5t127.5 -174.5t169.5 -70q68 0 111 39.5t43 102.5q0 40 -23.5 75.5t-61.5 64.5t-83.5 58.5t-91.5 64t-84 74.5t-61.5 97.5t-23.5 124.5q0 64 24.5 123.5t64 108t87.5 96t95.5 97.5 t87 102.5t64 121t24.5 143.5q0 76 -32.5 121t-90.5 45q-216 0 -328 -457l-292 -1214h-381z" />
<glyph unicode="&#xe0;" horiz-adv-x="1343" d="M23 322q0 202 89 380.5t244.5 287t337.5 108.5q97 0 184 -29.5t148 -81.5l274 113l-206 -860q-9 -31 -4 -49.5t24 -18.5q37 0 97.5 90t131.5 248q-81 -270 -188.5 -402.5t-255.5 -132.5q-113 0 -164.5 70.5t-21.5 196.5l41 166h-17q-189 -433 -426 -433q-143 0 -215.5 97 t-72.5 250zM389 1663h393l90 -477zM412 334q0 -88 21.5 -140.5t62.5 -52.5t93 66t99 164t82 186t57 156l13 55q25 132 0 210.5t-92 78.5q-69 0 -134 -75.5t-108 -187t-68.5 -235.5t-25.5 -225z" />
<glyph unicode="&#xe1;" horiz-adv-x="1343" d="M23 322q0 202 89 380.5t244.5 287t337.5 108.5q97 0 184 -29.5t148 -81.5l274 113l-206 -860q-9 -31 -4 -49.5t24 -18.5q37 0 97.5 90t131.5 248q-81 -270 -188.5 -402.5t-255.5 -132.5q-113 0 -164.5 70.5t-21.5 196.5l41 166h-17q-189 -433 -426 -433q-143 0 -215.5 97 t-72.5 250zM412 334q0 -88 21.5 -140.5t62.5 -52.5t93 66t99 164t82 186t57 156l13 55q25 132 0 210.5t-92 78.5q-69 0 -134 -75.5t-108 -187t-68.5 -235.5t-25.5 -225zM657 1186l205 477h402z" />
<glyph unicode="&#xe2;" horiz-adv-x="1343" d="M23 322q0 202 89 380.5t244.5 287t337.5 108.5q97 0 184 -29.5t148 -81.5l274 113l-206 -860q-9 -31 -4 -49.5t24 -18.5q37 0 97.5 90t131.5 248q-81 -270 -188.5 -402.5t-255.5 -132.5q-113 0 -164.5 70.5t-21.5 196.5l41 166h-17q-189 -433 -426 -433q-143 0 -215.5 97 t-72.5 250zM412 334q0 -88 21.5 -140.5t62.5 -52.5t93 66t99 164t82 186t57 156l13 55q25 132 0 210.5t-92 78.5q-69 0 -134 -75.5t-108 -187t-68.5 -235.5t-25.5 -225zM412 1180l467 456l247 -456l-319 151z" />
<glyph unicode="&#xe3;" horiz-adv-x="1343" d="M23 322q0 202 89 380.5t244.5 287t337.5 108.5q97 0 184 -29.5t148 -81.5l274 113l-206 -860q-9 -31 -4 -49.5t24 -18.5q37 0 97.5 90t131.5 248q-81 -270 -188.5 -402.5t-255.5 -132.5q-113 0 -164.5 70.5t-21.5 196.5l41 166h-17q-189 -433 -426 -433q-143 0 -215.5 97 t-72.5 250zM395 1208q103 168 197 266.5t166 98.5q33 0 140 -32t159 -32q46 0 99 32.5t91 84.5q-72 -162 -161 -268.5t-175 -106.5q-44 0 -155.5 34t-169.5 34q-41 0 -94 -30.5t-97 -80.5zM412 334q0 -88 21.5 -140.5t62.5 -52.5t93 66t99 164t82 186t57 156l13 55 q25 132 0 210.5t-92 78.5q-69 0 -134 -75.5t-108 -187t-68.5 -235.5t-25.5 -225z" />
<glyph unicode="&#xe4;" horiz-adv-x="1343" d="M23 322q0 202 89 380.5t244.5 287t337.5 108.5q97 0 184 -29.5t148 -81.5l274 113l-206 -860q-9 -31 -4 -49.5t24 -18.5q37 0 97.5 90t131.5 248q-81 -270 -188.5 -402.5t-255.5 -132.5q-113 0 -164.5 70.5t-21.5 196.5l41 166h-17q-189 -433 -426 -433q-143 0 -215.5 97 t-72.5 250zM387 1251l76 324h328l-74 -324h-330zM412 334q0 -88 21.5 -140.5t62.5 -52.5t93 66t99 164t82 186t57 156l13 55q25 132 0 210.5t-92 78.5q-69 0 -134 -75.5t-108 -187t-68.5 -235.5t-25.5 -225zM854 1251l74 324h329l-73 -324h-330z" />
<glyph unicode="&#xe5;" horiz-adv-x="1343" d="M23 322q0 202 89 380.5t244.5 287t337.5 108.5q97 0 184 -29.5t148 -81.5l274 113l-206 -860q-9 -31 -4 -49.5t24 -18.5q37 0 97.5 90t131.5 248q-81 -270 -188.5 -402.5t-255.5 -132.5q-113 0 -164.5 70.5t-21.5 196.5l41 166h-17q-189 -433 -426 -433q-143 0 -215.5 97 t-72.5 250zM412 334q0 -88 21.5 -140.5t62.5 -52.5t93 66t99 164t82 186t57 156l13 55q25 132 0 210.5t-92 78.5q-69 0 -134 -75.5t-108 -187t-68.5 -235.5t-25.5 -225zM584 1370q0 112 76 186t190 74q88 0 145.5 -56t57.5 -142q0 -114 -75.5 -190.5t-189.5 -76.5 q-88 0 -146 58.5t-58 146.5zM684 1384q0 -52 32.5 -86t82.5 -34q67 0 110 44t43 111q0 49 -32.5 82t-79.5 33q-66 0 -111 -43t-45 -107z" />
<glyph unicode="&#xe6;" horiz-adv-x="1814" d="M23 166q0 50 35 100.5t85.5 90.5t130 86.5t145 78.5t155 75t137.5 69l8 49q25 136 -4.5 213.5t-104.5 77.5q-60 0 -118 -39q-44 -30 -71 -86.5t-39.5 -113t-28 -109.5t-49 -86t-89.5 -33q-53 0 -87 32.5t-34 85.5q0 72 86 154.5t200.5 143.5t224 102t161.5 41 q100 0 176 -44.5t109 -117.5q169 162 401 162q170 0 262.5 -111t65.5 -301l-2 -16h-592q-8 -62 -8 -95q0 -146 72 -244.5t192 -99.5q106 -1 192.5 69.5t145.5 205.5q-73 -258 -210.5 -394.5t-322.5 -136.5q-161 0 -262 83.5t-137 220.5q-213 -179 -334.5 -241.5 t-228.5 -62.5q-118 0 -190 54t-72 137zM401 260q0 -55 35.5 -90t93.5 -35q49 0 97 25l78 465q-304 -193 -304 -365zM1188 702h235q79 0 99 113q16 101 -5 174.5t-77 73.5q-84 0 -154.5 -103t-97.5 -258z" />
<glyph unicode="&#xe7;" horiz-adv-x="997" d="M41 420q0 95 26.5 191t80.5 183.5t128.5 155.5t178 108t221.5 40q147 0 242.5 -68t95.5 -170q0 -70 -43 -121t-105 -51q-61 0 -97 39t-36 104q-1 26 1.5 66.5t3 65t-3.5 50t-20.5 38t-45.5 12.5q-77 0 -142 -67t-102 -179t-37 -242q0 -146 72 -243.5t192 -100.5 q104 -2 191 69t145 206q-72 -250 -204.5 -386.5t-309.5 -144.5l-47 -77l94 -68q42 -28 57 -62t5 -83q-25 -97 -145 -169t-267 -75q117 33 131 100q6 20 -1 33.5t-26 28.5l-114 92l274 280q-98 3 -174.5 40t-123.5 99t-71 139.5t-24 166.5z" />
<glyph unicode="&#xe8;" horiz-adv-x="1024" d="M41 418q0 120 43.5 240t120.5 218.5t197 160t260 61.5q169 0 261 -111t66 -301l-2 -16h-594q-6 -47 -6 -95q0 -146 72 -244.5t192 -99.5q106 -1 192.5 69.5t145.5 205.5q-73 -258 -211 -394.5t-323 -136.5q-103 0 -184 36t-130.5 98.5t-74.5 140.5t-25 168zM264 1663h393 l91 -477zM397 702h236q76 0 96 113q18 100 -3 174t-77 74q-84 0 -155.5 -103t-96.5 -258z" />
<glyph unicode="&#xe9;" horiz-adv-x="1024" d="M41 418q0 120 43.5 240t120.5 218.5t197 160t260 61.5q169 0 261 -111t66 -301l-2 -16h-594q-6 -47 -6 -95q0 -146 72 -244.5t192 -99.5q106 -1 192.5 69.5t145.5 205.5q-73 -258 -211 -394.5t-323 -136.5q-103 0 -184 36t-130.5 98.5t-74.5 140.5t-25 168zM397 702h236 q76 0 96 113q18 100 -3 174t-77 74q-84 0 -155.5 -103t-96.5 -258zM532 1186l205 477h402z" />
<glyph unicode="&#xea;" horiz-adv-x="1024" d="M41 418q0 120 43.5 240t120.5 218.5t197 160t260 61.5q169 0 261 -111t66 -301l-2 -16h-594q-6 -47 -6 -95q0 -146 72 -244.5t192 -99.5q106 -1 192.5 69.5t145.5 205.5q-73 -258 -211 -394.5t-323 -136.5q-103 0 -184 36t-130.5 98.5t-74.5 140.5t-25 168zM287 1180 l467 456l247 -456l-319 151zM397 702h236q76 0 96 113q18 100 -3 174t-77 74q-84 0 -155.5 -103t-96.5 -258z" />
<glyph unicode="&#xeb;" horiz-adv-x="1024" d="M41 418q0 120 43.5 240t120.5 218.5t197 160t260 61.5q169 0 261 -111t66 -301l-2 -16h-594q-6 -47 -6 -95q0 -146 72 -244.5t192 -99.5q106 -1 192.5 69.5t145.5 205.5q-73 -258 -211 -394.5t-323 -136.5q-103 0 -184 36t-130.5 98.5t-74.5 140.5t-25 168zM260 1251 l76 324h328l-74 -324h-330zM397 702h236q76 0 96 113q18 100 -3 174t-77 74q-84 0 -155.5 -103t-96.5 -258zM727 1251l74 324h329l-73 -324h-330z" />
<glyph unicode="&#xec;" horiz-adv-x="733" d="M25 602q75 237 195 366.5t263 129.5q98 0 145.5 -60.5t20.5 -167.5l-164 -634q-16 -64 19 -64q37 0 97.5 90t131.5 248q-83 -271 -188.5 -403t-249.5 -132q-119 0 -171.5 71.5t-19.5 197.5l154 592q16 61 -14 61q-33 0 -93 -78.5t-126 -216.5zM100 1663h394l90 -477z" />
<glyph unicode="&#xed;" horiz-adv-x="733" d="M25 602q75 237 195 366.5t263 129.5q98 0 145.5 -60.5t20.5 -167.5l-164 -634q-16 -64 19 -64q37 0 97.5 90t131.5 248q-83 -271 -188.5 -403t-249.5 -132q-119 0 -171.5 71.5t-19.5 197.5l154 592q16 61 -14 61q-33 0 -93 -78.5t-126 -216.5zM369 1186l204 477h402z" />
<glyph unicode="&#xee;" horiz-adv-x="733" d="M25 602q75 237 195 366.5t263 129.5q98 0 145.5 -60.5t20.5 -167.5l-164 -634q-16 -64 19 -64q37 0 97.5 90t131.5 248q-83 -271 -188.5 -403t-249.5 -132q-119 0 -171.5 71.5t-19.5 197.5l154 592q16 61 -14 61q-33 0 -93 -78.5t-126 -216.5zM123 1180l467 456l248 -456 l-320 151z" />
<glyph unicode="&#xef;" horiz-adv-x="733" d="M25 602q75 237 195 366.5t263 129.5q98 0 145.5 -60.5t20.5 -167.5l-164 -634q-16 -64 19 -64q37 0 97.5 90t131.5 248q-83 -271 -188.5 -403t-249.5 -132q-119 0 -171.5 71.5t-19.5 197.5l154 592q16 61 -14 61q-33 0 -93 -78.5t-126 -216.5zM98 1251l76 324h328 l-74 -324h-330zM565 1251l74 324h330l-74 -324h-330z" />
<glyph unicode="&#xf0;" horiz-adv-x="1314" d="M53 453q0 137 43 255.5t121 204.5t192 135.5t250 49.5q57 0 118 -13t95 -32q-30 152 -102 295l-473 -211l10 43l445 200q-62 115 -144.5 211t-175.5 158q285 -105 500 -289l371 166l-11 -45l-331 -147q159 -147 245 -320.5t86 -355.5q0 -158 -61 -302.5t-163.5 -250 t-244 -168t-295.5 -62.5q-219 0 -347 132.5t-128 345.5zM412 260q0 -117 33.5 -181.5t95.5 -64.5q52 0 100.5 39t86.5 106t69.5 152.5t52 181t32 190t10.5 182t-13 153.5q-26 22 -72 22q-69 0 -133 -52.5t-110.5 -137t-81.5 -187.5t-52.5 -208t-17.5 -195z" />
<glyph unicode="&#xf1;" horiz-adv-x="1404" d="M25 602q75 237 195 366.5t263 129.5q96 0 142.5 -60.5t23.5 -158.5l-80 -334h17q224 553 512 553q135 0 195 -88t20 -226l-156 -551q-18 -61 17 -61q38 0 99 90t130 248q-81 -271 -188 -403t-257 -132q-117 0 -167.5 76t-12.5 209l166 576q12 43 -1.5 71.5t-45.5 28.5 q-95 0 -223 -255t-234 -681h-383l201 844q11 53 -14 53q-33 0 -93 -78.5t-126 -216.5zM539 1208q103 168 196.5 266.5t165.5 98.5q33 0 140 -32t159 -32q46 0 99.5 32.5t91.5 84.5q-72 -162 -161 -268.5t-175 -106.5q-44 0 -156 34t-170 34q-41 0 -93.5 -30.5t-96.5 -80.5z " />
<glyph unicode="&#xf2;" d="M41 410q0 184 94 343t254.5 252t347.5 93q200 0 324.5 -122.5t124.5 -318.5q0 -95 -29.5 -191.5t-89.5 -184.5t-142 -156.5t-195 -109t-241 -40.5q-189 0 -318.5 125.5t-129.5 309.5zM377 1663h393l90 -477zM401 240q0 -228 107 -228q61 0 120 87.5t100 216t66 273 t25 259.5q0 215 -92 215q-64 0 -126 -85.5t-105 -211.5t-69 -268.5t-26 -257.5z" />
<glyph unicode="&#xf3;" d="M41 410q0 184 94 343t254.5 252t347.5 93q200 0 324.5 -122.5t124.5 -318.5q0 -95 -29.5 -191.5t-89.5 -184.5t-142 -156.5t-195 -109t-241 -40.5q-189 0 -318.5 125.5t-129.5 309.5zM401 240q0 -228 107 -228q61 0 120 87.5t100 216t66 273t25 259.5q0 215 -92 215 q-64 0 -126 -85.5t-105 -211.5t-69 -268.5t-26 -257.5zM645 1186l205 477h401z" />
<glyph unicode="&#xf4;" d="M41 410q0 184 94 343t254.5 252t347.5 93q200 0 324.5 -122.5t124.5 -318.5q0 -95 -29.5 -191.5t-89.5 -184.5t-142 -156.5t-195 -109t-241 -40.5q-189 0 -318.5 125.5t-129.5 309.5zM399 1180l467 456l248 -456l-319 151zM401 240q0 -228 107 -228q61 0 120 87.5 t100 216t66 273t25 259.5q0 215 -92 215q-64 0 -126 -85.5t-105 -211.5t-69 -268.5t-26 -257.5z" />
<glyph unicode="&#xf5;" d="M41 410q0 184 94 343t254.5 252t347.5 93q200 0 324.5 -122.5t124.5 -318.5q0 -95 -29.5 -191.5t-89.5 -184.5t-142 -156.5t-195 -109t-241 -40.5q-189 0 -318.5 125.5t-129.5 309.5zM385 1208q103 168 197 266.5t166 98.5q33 0 140 -32t159 -32q46 0 99 32.5t91 84.5 q-72 -162 -161 -268.5t-175 -106.5q-44 0 -156 34t-170 34q-41 0 -93.5 -30.5t-96.5 -80.5zM401 240q0 -228 107 -228q61 0 120 87.5t100 216t66 273t25 259.5q0 215 -92 215q-64 0 -126 -85.5t-105 -211.5t-69 -268.5t-26 -257.5z" />
<glyph unicode="&#xf6;" d="M41 410q0 184 94 343t254.5 252t347.5 93q200 0 324.5 -122.5t124.5 -318.5q0 -95 -29.5 -191.5t-89.5 -184.5t-142 -156.5t-195 -109t-241 -40.5q-189 0 -318.5 125.5t-129.5 309.5zM375 1251l76 324h327l-73 -324h-330zM401 240q0 -228 107 -228q61 0 120 87.5t100 216 t66 273t25 259.5q0 215 -92 215q-64 0 -126 -85.5t-105 -211.5t-69 -268.5t-26 -257.5zM842 1251l73 324h330l-74 -324h-329z" />
<glyph unicode="&#xf7;" horiz-adv-x="931" d="M61 616l13 50h856l-12 -50h-857zM293 203l53 227h205l-55 -227h-203zM449 854l53 227h205l-56 -227h-202z" />
<glyph unicode="&#xf8;" d="M41 410q0 184 94 343t254.5 252t347.5 93q198 0 320 -119l84 82h55l-113 -109q103 -119 103 -295q0 -95 -29.5 -191.5t-89.5 -184.5t-142 -156.5t-195 -109t-241 -40.5q-173 0 -296 107l-84 -82h-56l111 109q-123 123 -123 301zM401 240q0 -228 107 -228q67 0 131.5 107 t107.5 257t62 306l-406 -395q-2 -16 -2 -47zM406 344l409 399q4 74 4 105q0 215 -92 215q-58 0 -114 -69t-97.5 -176.5t-70.5 -232t-39 -241.5z" />
<glyph unicode="&#xf9;" horiz-adv-x="1406" d="M25 602q75 238 194 367t262 129q106 0 150.5 -62t15.5 -172l-164 -602q-23 -96 47 -96q84 0 197 218.5t244 676.5h383l-195 -821q-15 -68 17 -68q37 0 97.5 90t131.5 248q-81 -269 -187 -402t-249 -133q-118 0 -170.5 71t-22.5 196l80 340h-14q-128 -333 -251 -470 t-282 -137q-127 0 -184.5 85.5t-20.5 222.5l150 546q21 68 -10 68q-33 0 -92.5 -77t-126.5 -218zM463 1663h393l90 -477z" />
<glyph unicode="&#xfa;" horiz-adv-x="1406" d="M25 602q75 238 194 367t262 129q106 0 150.5 -62t15.5 -172l-164 -602q-23 -96 47 -96q84 0 197 218.5t244 676.5h383l-195 -821q-15 -68 17 -68q37 0 97.5 90t131.5 248q-81 -269 -187 -402t-249 -133q-118 0 -170.5 71t-22.5 196l80 340h-14q-128 -333 -251 -470 t-282 -137q-127 0 -184.5 85.5t-20.5 222.5l150 546q21 68 -10 68q-33 0 -92.5 -77t-126.5 -218zM731 1186l205 477h401z" />
<glyph unicode="&#xfb;" horiz-adv-x="1406" d="M25 602q75 238 194 367t262 129q106 0 150.5 -62t15.5 -172l-164 -602q-23 -96 47 -96q84 0 197 218.5t244 676.5h383l-195 -821q-15 -68 17 -68q37 0 97.5 90t131.5 248q-81 -269 -187 -402t-249 -133q-118 0 -170.5 71t-22.5 196l80 340h-14q-128 -333 -251 -470 t-282 -137q-127 0 -184.5 85.5t-20.5 222.5l150 546q21 68 -10 68q-33 0 -92.5 -77t-126.5 -218zM485 1180l467 456l248 -456l-319 151z" />
<glyph unicode="&#xfc;" horiz-adv-x="1406" d="M25 602q75 238 194 367t262 129q106 0 150.5 -62t15.5 -172l-164 -602q-23 -96 47 -96q84 0 197 218.5t244 676.5h383l-195 -821q-15 -68 17 -68q37 0 97.5 90t131.5 248q-81 -269 -187 -402t-249 -133q-118 0 -170.5 71t-22.5 196l80 340h-14q-128 -333 -251 -470 t-282 -137q-127 0 -184.5 85.5t-20.5 222.5l150 546q21 68 -10 68q-33 0 -92.5 -77t-126.5 -218zM461 1251l76 324h327l-73 -324h-330zM928 1251l73 324h330l-74 -324h-329z" />
<glyph unicode="&#xfd;" horiz-adv-x="1130" d="M-471 -213q0 55 37 93t96 38q44 0 77.5 -24.5t58 -59.5t53 -69.5t79 -59t119.5 -24.5q89 0 182 38q20 312 28.5 619t0.5 473q-3 82 -27 82q-30 0 -86 -77t-120 -212q76 240 184 367t240 127q92 0 136 -61t50 -177q8 -134 4.5 -380.5t-16.5 -475.5h18q157 144 261 318.5 t104 336.5q0 40 -16 75.5t-38.5 62t-45 51.5t-38.5 54t-16 59q0 58 43.5 97.5t106.5 39.5q70 0 109.5 -51t39.5 -144q0 -131 -51.5 -280t-135.5 -283.5t-185 -251.5t-206 -203q-331 -280 -720 -280q-160 0 -243 49t-83 133zM621 1186l204 477h402z" />
<glyph unicode="&#xfe;" horiz-adv-x="1275" d="M-147 -565l489 2031l-96 66l540 194l-247 -1036h18q37 82 78.5 150t94.5 129t118.5 95t136.5 34q125 0 202 -97t77 -258q0 -97 -24.5 -193t-68.5 -180.5t-108 -157.5t-138.5 -125.5t-164 -82t-182.5 -29.5q-113 0 -199 50l-82 -344l119 -72zM459 356q-15 -152 14 -246.5 t94 -95.5q79 -2 152.5 128.5t114 302t40.5 309.5q0 85 -19 133.5t-56 48.5q-49 0 -104 -66t-101.5 -165.5t-80 -187.5t-54.5 -161z" />
<glyph unicode="&#xff;" horiz-adv-x="1130" d="M-471 -213q0 55 37 93t96 38q44 0 77.5 -24.5t58 -59.5t53 -69.5t79 -59t119.5 -24.5q89 0 182 38q20 312 28.5 619t0.5 473q-3 82 -27 82q-30 0 -86 -77t-120 -212q76 240 184 367t240 127q92 0 136 -61t50 -177q8 -134 4.5 -380.5t-16.5 -475.5h18q157 144 261 318.5 t104 336.5q0 40 -16 75.5t-38.5 62t-45 51.5t-38.5 54t-16 59q0 58 43.5 97.5t106.5 39.5q70 0 109.5 -51t39.5 -144q0 -131 -51.5 -280t-135.5 -283.5t-185 -251.5t-206 -203q-331 -280 -720 -280q-160 0 -243 49t-83 133zM350 1251l76 324h328l-74 -324h-330zM817 1251 l74 324h330l-74 -324h-330z" />
<glyph unicode="&#x152;" horiz-adv-x="2285" d="M100 627q0 156 59.5 298t164 251t240.5 190t296 123.5t324 42.5h1167l-8 -41l-55 -465l-242 461h-426l-162 -674h238l264 297l-154 -641l-120 299h-238l-174 -725h459l503 518l-174 -522l-10 -39h-1229q-153 0 -287.5 48t-230 131.5t-150.5 199.5t-55 248zM500 547 q0 -219 90.5 -358t236.5 -142l70 92l303 1264l-26 82q-183 -2 -338 -127.5t-245.5 -341t-90.5 -469.5z" />
<glyph unicode="&#x153;" horiz-adv-x="1914" d="M41 410q0 184 94 343t254.5 252t347.5 93q127 0 226 -51.5t157 -143.5q82 91 192 143t240 52q171 0 263 -111t65 -301l-2 -16h-592q-6 -46 -6 -95q0 -146 71.5 -244.5t190.5 -99.5q216 -3 340 275q-75 -258 -212.5 -394.5t-321.5 -136.5q-130 0 -221.5 55t-139.5 150 q-202 -205 -498 -205q-189 0 -318.5 125.5t-129.5 309.5zM401 240q0 -228 107 -228q61 0 120 87.5t100 216t66 273t25 259.5q0 215 -92 215q-64 0 -126 -85.5t-105 -211.5t-69 -268.5t-26 -257.5zM1290 702h234q78 0 98 113q16 101 -5 174.5t-75 73.5q-84 0 -155.5 -103 t-96.5 -258z" />
<glyph unicode="&#x178;" horiz-adv-x="1544" d="M248 1532h723l-191 -141l201 -625h35l495 639l-194 127h473l-221 -127l-551 -705l-139 -573l69 -127h-600l131 127l135 553l-239 713zM707 1677l73 324h330l-76 -324h-327zM1174 1677l73 324h328l-74 -324h-327z" />
<glyph unicode="&#x2c6;" horiz-adv-x="876" d="M242 1180l467 456l247 -456l-319 151z" />
<glyph unicode="&#x2dc;" horiz-adv-x="911" d="M248 1208q103 168 196.5 266.5t165.5 98.5q33 0 140 -32t159 -32q46 0 99.5 32.5t91.5 84.5q-72 -162 -161 -268.5t-175 -106.5q-44 0 -156 34t-170 34q-41 0 -93.5 -30.5t-96.5 -80.5z" />
<glyph unicode="&#x2000;" horiz-adv-x="1034" vert-adv-y="0" />
<glyph unicode="&#x2001;" horiz-adv-x="2068" vert-adv-y="0" />
<glyph unicode="&#x2002;" horiz-adv-x="1034" vert-adv-y="0" />
<glyph unicode="&#x2003;" horiz-adv-x="2068" vert-adv-y="0" />
<glyph unicode="&#x2004;" horiz-adv-x="689" vert-adv-y="0" />
<glyph unicode="&#x2005;" horiz-adv-x="517" vert-adv-y="0" />
<glyph unicode="&#x2006;" horiz-adv-x="344" vert-adv-y="0" />
<glyph unicode="&#x2007;" horiz-adv-x="344" vert-adv-y="0" />
<glyph unicode="&#x2008;" horiz-adv-x="258" vert-adv-y="0" />
<glyph unicode="&#x2009;" horiz-adv-x="413" vert-adv-y="0" />
<glyph unicode="&#x200a;" horiz-adv-x="114" vert-adv-y="0" />
<glyph unicode="&#x2010;" horiz-adv-x="647" d="M80 514l26 123h494l-29 -123h-491z" />
<glyph unicode="&#x2011;" horiz-adv-x="647" d="M80 514l26 123h494l-29 -123h-491z" />
<glyph unicode="&#x2012;" horiz-adv-x="647" d="M80 514l26 123h494l-29 -123h-491z" />
<glyph unicode="&#x2013;" horiz-adv-x="1017" d="M98 606l13 51h864l-12 -51h-865z" />
<glyph unicode="&#x2014;" horiz-adv-x="3575" d="M98 606l13 51h3422l-12 -51h-3423z" />
<glyph unicode="&#x2018;" horiz-adv-x="493" d="M131 866l80 367l188 366h281l-440 -366h331l-79 -367h-361z" />
<glyph unicode="&#x2019;" horiz-adv-x="493" d="M160 858l440 367h-332l80 364h359l-80 -364l-187 -367h-280z" />
<glyph unicode="&#x201a;" horiz-adv-x="485" d="M-170 -373l442 367h-333l81 364h359l-80 -364l-186 -367h-283z" />
<glyph unicode="&#x201c;" horiz-adv-x="927" d="M131 866l80 367l188 366h281l-440 -366h331l-79 -367h-361zM565 866l80 367l186 366h283l-442 -366h332l-80 -367h-359z" />
<glyph unicode="&#x201d;" horiz-adv-x="927" d="M160 858l440 367h-332l80 364h359l-80 -364l-187 -367h-280zM592 858l440 367h-332l82 364h359l-80 -364l-189 -367h-280z" />
<glyph unicode="&#x201e;" horiz-adv-x="919" d="M-170 -373l442 367h-333l81 364h359l-80 -364l-186 -367h-283zM264 -373l441 367h-332l80 364h360l-80 -364l-188 -367h-281z" />
<glyph unicode="&#x2022;" horiz-adv-x="614" d="M59 453l107 485h477l-106 -485h-478z" />
<glyph unicode="&#x2026;" horiz-adv-x="1452" d="M-57 -16l82 374h368l-82 -374h-368zM420 -16l82 374h366l-82 -374h-366zM895 -16l82 374h369l-84 -374h-367z" />
<glyph unicode="&#x202f;" horiz-adv-x="413" vert-adv-y="0" />
<glyph unicode="&#x2039;" horiz-adv-x="620" d="M33 547l665 381l-241 -381l57 -381z" />
<glyph unicode="&#x203a;" horiz-adv-x="620" d="M-57 166l239 381l-59 381l483 -381z" />
<glyph unicode="&#x205f;" horiz-adv-x="517" vert-adv-y="0" />
<glyph unicode="&#x20ac;" horiz-adv-x="1648" d="M76 698l10 41h139q10 58 23 101h-137l10 41h139q63 195 209 351.5t352 247.5t432 91q128 0 260 -31t220 -82l-9 -35l-55 -483q-44 277 -154.5 430.5t-265.5 153.5q-128 0 -245.5 -83.5t-204 -229t-131.5 -330.5h872l-10 -41h-873q-12 -66 -16 -101h864l-8 -41h-862 q-8 -68 -8 -159q0 -229 83 -372.5t218 -143.5q150 0 327 159t359 451l-168 -535l-8 -37q-89 -39 -231 -62.5t-294 -23.5q-147 0 -276.5 49t-221.5 134t-145 204.5t-53 255.5q0 26 4 80h-145z" />
<glyph unicode="&#x2122;" horiz-adv-x="1386" d="M199 1286l69 189l4 20h543l-4 -20l-25 -189l-108 187h-66l-100 -424l31 -70h-244l63 70l101 424h-64zM739 979l70 70l94 395l-43 51h199l98 -326h14l220 326h200l-63 -70l-90 -376l30 -70h-245l65 70l82 350h-14l-291 -436l-133 436h-10l-86 -350l36 -70h-133z" />
<glyph unicode="&#x25fc;" horiz-adv-x="1095" vert-adv-y="2191" d="M0 0v1096h1096v-1096h-1096z" />
<glyph unicode="&#xfb01;" horiz-adv-x="1431" d="M-535 -233q0 65 44 108t106 43q58 0 94 -33t51 -80t27 -93.5t35 -79.5t61 -33q39 0 64.5 27t40.5 81t24 109t22 139t27 143l193 799l-139 72l188 131l33 135q34 141 136 250.5t253 170t326 60.5q172 0 280 -63.5t105 -163.5q0 -68 -42 -111t-102 -43q-64 0 -99.5 35 t-47.5 84.5t-22 99t-37 84.5t-78 35q-103 0 -166 -107t-119 -341l-41 -164h455l268 100l-221 -925q-7 -29 -4 -46.5t22 -17.5q37 0 98.5 90t131.5 248q-83 -271 -189 -403t-250 -132q-117 0 -168.5 70t-21.5 197l164 686h-316l-168 -692q-166 -678 -661 -678 q-161 0 -259 54.5t-98 154.5z" />
<glyph unicode="&#xfb02;" horiz-adv-x="1507" d="M-535 -233q0 65 44 108t106 43q58 0 94 -33t51 -80t27 -93.5t35 -79.5t61 -33q39 0 64.5 27t40.5 81.5t24.5 110t23 140.5t27.5 146l191 795l-139 70l188 129l31 137q35 141 137 250.5t253.5 170t326.5 60.5q93 0 189 -24.5t157 -63.5l219 98l-356 -1493q-16 -61 16 -61 q38 0 99 90t130 248q-81 -270 -186.5 -402.5t-249.5 -132.5q-118 0 -169.5 70t-22.5 197l297 1233q-17 96 -60 147t-106 51q-103 0 -167 -107.5t-120 -340.5l-41 -164h258l-31 -133h-258l-166 -692q-162 -678 -661 -678q-161 0 -259 54.5t-98 154.5z" />
<glyph unicode="&#xfb03;" horiz-adv-x="2138" d="M-535 -233q0 65 44 108t106 43q58 0 94 -33t51 -80t27 -93.5t35 -79.5t61 -33q39 0 64.5 27t40.5 81.5t24.5 110t23 140.5t27.5 146l189 787l-137 74l188 133l29 129q35 141 137 250.5t253.5 170t326.5 60.5q87 0 177 -21t150 -55q176 84 379 84q201 0 308.5 -75.5 t76.5 -196.5q-12 -46 -51 -77.5t-88 -31.5q-56 0 -91.5 25t-48 62.5t-23.5 81.5t-20 81.5t-35.5 62.5t-70.5 25q-103 0 -164.5 -106.5t-120.5 -341.5l-45 -185h455l270 101l-217 -905q-16 -64 19 -64q37 0 97.5 90t129.5 248q-81 -270 -186.5 -402.5t-249.5 -132.5 q-118 0 -171 71.5t-20 195.5l166 696h-317l-168 -700q-80 -338 -244 -509t-418 -171q-125 0 -212.5 33t-122.5 96q-153 -129 -371 -129q-161 0 -259 54.5t-98 154.5zM367 -88q42 -12 68.5 -49.5t39 -80.5t24.5 -85t33.5 -70t57.5 -28q33 0 56.5 21t36.5 54t24.5 86t18 103.5 t18 121t24.5 124.5l201 829h-316l-170 -702q-51 -204 -116 -324zM676 1040h254l78 56l32 139q34 133 127 240q-19 92 -60 141t-101 49q-103 0 -167 -107.5t-120 -340.5z" />
</font>
</defs>
</svg>
