<?xml version="1.0" standalone="no"?>
<!DOCTYPE svg PUBLIC "-//W3C//DTD SVG 1.1//EN" "http://www.w3.org/Graphics/SVG/1.1/DTD/svg11.dtd" >
<svg xmlns="http://www.w3.org/2000/svg" xmlns:xlink="http://www.w3.org/1999/xlink" version="1.1">
<metadata></metadata>
<defs>
<font id="pp_eiko_italiclight" horiz-adv-x="1157" vert-adv-y="2048" >
<font-face units-per-em="2048" ascent="1802" descent="-246" />
<missing-glyph horiz-adv-x="458" />
<glyph horiz-adv-x="0" vert-adv-y="0" />
<glyph horiz-adv-x="682" />
<glyph unicode="&#xd;" horiz-adv-x="1228" />
<glyph unicode=" "  horiz-adv-x="458" />
<glyph unicode="&#x09;" horiz-adv-x="458" />
<glyph unicode="&#xa0;" horiz-adv-x="458" />
<glyph unicode="!" horiz-adv-x="466" d="M8 -14l47 215h201l-47 -215h-201zM174 266q12 94 70 410l153 852h160l-256 -852q-79 -263 -127 -410z" />
<glyph unicode="&#x22;" horiz-adv-x="567" d="M258 926l86 671h143zM514 926l86 671h143z" />
<glyph unicode="#" horiz-adv-x="1310" d="M57 498l29 112h313l195 353h-279l29 114h311l250 449h45l-248 -449h353l250 449h45l-248 -449h284l-28 -114h-320l-194 -353h284l-28 -112h-320l-274 -498h-47l276 498h-354l-275 -498h-47l277 498h-279zM444 610h355l194 353h-354z" />
<glyph unicode="$" horiz-adv-x="1040" d="M37 76l6 33l35 358q15 -159 76 -265.5t161 -154.5l170 709q-97 91 -150.5 175.5t-53.5 188.5q0 163 110 274t279 130l26 108h45l-24 -104h14q43 0 86 -6l27 110h45l-29 -116q123 -24 223 -86l-8 -35l-22 -340q-46 311 -207 399l-164 -678q52 -48 87 -86t70.5 -88 t53.5 -105.5t18 -115.5q0 -169 -116.5 -281.5t-305.5 -122.5l-67 -284h-45l67 282h-4q-38 0 -96 7l-70 -289h-45l72 295q-163 25 -264 88zM356 33q50 -16 99 -19l151 631q-56 52 -84 76zM397 1186q0 -126 129 -262l136 563q-118 -15 -191.5 -97.5t-73.5 -203.5zM500 14 q129 6 208.5 92.5t79.5 221.5q0 77 -38 144t-107 136zM561 887q15 -13 42 -38t42 -38l160 662q-50 16 -98 16z" />
<glyph unicode="%" horiz-adv-x="1585" d="M121 0l1378 1501h62l-1377 -1501h-63zM352 1114q0 97 41.5 192.5t113.5 158.5t152 63q75 0 118.5 -61t43.5 -160q0 -94 -40.5 -190t-113 -162t-153.5 -66q-74 0 -118 62.5t-44 162.5zM430 1077q0 -75 24 -118.5t66 -43.5q60 0 113.5 74.5t82.5 172t29 179.5 q0 73 -25 116.5t-65 43.5q-61 0 -114.5 -73t-82 -170t-28.5 -181zM881 199q0 97 41.5 192.5t113.5 158t152 62.5q74 0 118 -61t44 -158q0 -94 -40.5 -190t-113.5 -162t-154 -66q-74 0 -117.5 62.5t-43.5 161.5zM958 164q0 -75 24.5 -119.5t66.5 -44.5q59 0 112 74.5 t82 172.5t29 181q0 73 -24.5 116.5t-65.5 43.5q-61 0 -114.5 -73t-81.5 -170t-28 -181z" />
<glyph unicode="&#x26;" horiz-adv-x="1519" d="M33 242q0 70 32.5 142t83 133t126 125t148 114t161.5 104q-117 191 -117 314q0 101 54 183t142.5 126.5t190.5 44.5q114 0 185 -55.5t71 -143.5q0 -58 -31 -114.5t-90 -110.5t-123.5 -99.5t-152.5 -97.5l313 -479q130 185 199 428l-152 74h481l-184 -78 q-124 -230 -326 -453l293 -446l-143 -47l-250 389q-161 -154 -317.5 -237t-280.5 -83q-144 0 -228.5 74t-84.5 193zM176 297q0 -107 70 -172.5t190 -65.5q223 0 492 263l-307 479l-23 37q-85 -57 -156 -117t-133 -130t-97.5 -146t-35.5 -148zM598 1214q0 -118 104 -286 q283 208 283 411q0 70 -37.5 115t-99.5 45q-105 0 -177.5 -84t-72.5 -201z" />
<glyph unicode="'" horiz-adv-x="311" d="M258 926l86 671h143z" />
<glyph unicode="(" horiz-adv-x="559" d="M100 -49.5q-36 312.5 35 616.5q65 269 239 548t449 548q-173 -202 -325.5 -508t-223.5 -592q-75 -309 -77 -641.5t69 -476.5q-130 193 -166 505.5z" />
<glyph unicode=")" horiz-adv-x="544" d="M-236 -555q141 145 298.5 476.5t230.5 641.5q67 286 61.5 591.5t-82.5 508.5q147 -270 188 -550.5t-24 -545.5q-75 -305 -261.5 -617t-410.5 -505z" />
<glyph unicode="*" horiz-adv-x="774" d="M195 1208l288 33l-123 221l181 -178l100 283l-35 -283l264 178l-233 -223l276 -31l-290 -32l122 -224l-178 178l-100 -282l35 282l-264 -178l233 226z" />
<glyph unicode="+" horiz-adv-x="985" d="M90 618l12 46h406l86 362h45l-86 -362h405l-12 -46h-405l-86 -364h-45l86 364h-406z" />
<glyph unicode="," horiz-adv-x="407" d="M-139 -373l297 367h-176l47 209h194l-45 -209l-192 -367h-125z" />
<glyph unicode="-" horiz-adv-x="761" d="M145 530l23 91h477l-20 -91h-480z" />
<glyph unicode="." horiz-adv-x="415" d="M-16 -14l47 215h200l-47 -215h-200z" />
<glyph unicode="/" horiz-adv-x="706" d="M-168 -246l1063 1807h49l-1061 -1807h-51z" />
<glyph unicode="0" horiz-adv-x="1183" d="M125 496q0 133 35.5 278.5t101.5 278t151 240t193.5 171.5t220.5 64q160 0 254.5 -145.5t94.5 -372.5q0 -131 -36 -276.5t-102.5 -279t-152 -242t-194 -173t-218.5 -64.5q-160 0 -254 145.5t-94 375.5zM262 401q0 -180 58 -283.5t163 -103.5q111 0 217 114t177.5 282.5 t115 355.5t43.5 338q0 177 -57.5 281t-161.5 104q-91 0 -179 -74.5t-154 -194t-117.5 -263.5t-78 -290t-26.5 -266z" />
<glyph unicode="1" horiz-adv-x="735" d="M-25 0l242 90l303 1268l-254 14l439 156l-345 -1438l191 -90h-576z" />
<glyph unicode="2" horiz-adv-x="1042" d="M-37 0q417 378 617 600q316 345 323 598q5 119 -58 193.5t-177 74.5q-84 0 -164 -45q-39 -21 -66 -60t-40 -77.5t-26 -74.5t-34 -58.5t-53 -22.5q-31 0 -50 20t-16 52q3 62 108 142t231.5 133.5t195.5 52.5q135 -2 219 -80.5t80 -208.5q-3 -77 -39 -161.5t-103 -173 t-135 -163t-164 -168.5q-180 -187 -467 -442h779l-33 -131h-928z" />
<glyph unicode="3" horiz-adv-x="1103" d="M23 287q0 37 23.5 63.5t59.5 26.5q60 0 64 -64q3 -19 2.5 -73.5t8.5 -91t36 -58.5q30 -24 79.5 -38.5t102.5 -14.5q126 0 232.5 63.5t167.5 170t61 229.5t-75.5 195.5t-204.5 72.5q-70 0 -174 -23q102 54 172 96t143 96t116.5 104.5t71 113.5t27.5 131q0 81 -52 131.5 t-134 50.5q-73 0 -156 -47q-40 -21 -67 -59.5t-40.5 -76t-26 -73t-32 -57.5t-49.5 -22q-31 0 -50.5 17.5t-19.5 47.5q0 47 64 107t151 108t178 81.5t144 33.5q106 0 169.5 -62.5t63.5 -158.5q0 -49 -18 -95.5t-43.5 -84t-72.5 -78.5t-85 -69t-103 -65.5t-104 -58t-108 -55.5 q64 18 137 18q141 0 232.5 -86t91.5 -223q0 -147 -76.5 -270.5t-206 -194t-281.5 -70.5q-83 0 -182 49.5t-168 124t-69 138.5z" />
<glyph unicode="4" horiz-adv-x="1251" d="M61 457l1104 1075l-231 -965h256l-25 -110h-258l-88 -369l197 -88h-578l240 88l90 369h-707zM223 567h570l172 717z" />
<glyph unicode="5" horiz-adv-x="1138" d="M31 279q0 38 23 64t59 26t52 -22.5t17 -58t1 -73t10.5 -75.5t37.5 -58q26 -20 70 -32.5t88 -12.5q106 0 203.5 47t166 123.5t109.5 175.5t41 201q0 126 -73.5 203t-202.5 77q-183 0 -389 -129l258 766h696l-33 -131h-667l-195 -575q216 143 397 143q164 0 260.5 -93.5 t96.5 -248.5q0 -123 -49 -237.5t-131.5 -198.5t-196.5 -134.5t-238 -50.5q-73 0 -170 47t-169 120t-72 137z" />
<glyph unicode="6" horiz-adv-x="1171" d="M113 397q0 172 70.5 336t193.5 298t287 245t353 188t388 117q-235 -69 -441 -187t-363 -272t-248 -349.5t-91 -403.5q0 -162 71 -259.5t193 -97.5q116 0 214.5 85.5t151 210.5t52.5 251q0 132 -70 210.5t-192 78.5q-116 0 -254 -72q188 135 338 135q153 0 240.5 -91 t87.5 -245q0 -158 -77.5 -296t-214 -221t-298.5 -83q-178 0 -284.5 115t-106.5 307z" />
<glyph unicode="7" horiz-adv-x="1052" d="M10 0l1114 1370h-876l33 131h964l-1046 -1501h-189z" />
<glyph unicode="8" horiz-adv-x="1095" vert-adv-y="2031" d="M49 279q0 284 477 487q-53 38 -87.5 68t-71 72t-54.5 90.5t-18 103.5q0 117 72 216.5t188 155.5t244 56q154 0 251 -81.5t97 -205.5q0 -77 -36.5 -146.5t-101 -124t-140.5 -97t-167 -76.5q46 -32 66.5 -47t60 -45t58 -49t45 -50t38.5 -57.5t21.5 -60.5t9.5 -70 q0 -95 -45.5 -178.5t-121.5 -141t-175.5 -90.5t-205.5 -33q-182 0 -293 86t-111 218zM193 274q0 -116 74 -188t200 -72q161 0 273 108t112 259q0 25 -5 48.5t-10 42.5t-19.5 40.5t-23 35.5t-31 35t-32 31t-38 31.5t-38 28.5t-43 30t-41.5 29l-24 17q-159 -81 -256.5 -205.5 t-97.5 -270.5zM438 1133q0 -87 56.5 -159.5t185.5 -162.5q141 73 235.5 192t94.5 254q0 101 -61.5 165.5t-160.5 64.5q-143 0 -246.5 -108t-103.5 -246z" />
<glyph unicode="9" horiz-adv-x="1155" d="M-72 -82q225 61 422.5 178.5t343.5 273.5t230 351.5t84 402.5q0 157 -66 259.5t-190 105.5q-90 2 -170.5 -45.5t-135 -124.5t-86.5 -173.5t-32 -191.5q0 -136 70 -217t194 -84q109 -3 252 70q-188 -133 -336 -133q-150 0 -237 94t-87 252q0 163 75 299t208 215t295 78 q188 -3 290.5 -122.5t102.5 -309.5q0 -172 -65 -335.5t-180 -298t-268.5 -245.5t-336 -187t-377.5 -112z" />
<glyph unicode=":" horiz-adv-x="428" d="M-10 -14l47 215h201l-48 -215h-200zM178 776l47 215h201l-47 -215h-201z" />
<glyph unicode=";" horiz-adv-x="423" d="M-133 -373l297 367h-176l45 209h196l-45 -209l-192 -367h-125zM176 776l45 215h203l-47 -215h-201z" />
<glyph unicode="&#x3c;" horiz-adv-x="987" d="M51 524l840 398h98l-846 -402l654 -401h-86z" />
<glyph unicode="=" horiz-adv-x="989" d="M47 436l12 45h856l-12 -45h-856zM133 793l12 45h856l-12 -45h-856z" />
<glyph unicode="&#x3e;" horiz-adv-x="980" d="M2 119l838 407l-641 396h88l649 -398l-830 -405h-104z" />
<glyph unicode="?" horiz-adv-x="722" d="M63 -14l48 215h200l-47 -215h-201zM166 1329q0 83 92 141t219 58q165 0 271 -88.5t106 -225.5q0 -38 -8 -74t-18.5 -65.5t-33 -60.5t-40 -53t-51.5 -50t-55 -44t-63.5 -43.5t-64.5 -40.5t-70.5 -41t-68.5 -40q-71 -43 -90.5 -65t-30.5 -66l-47 -196q-42 225 -31 284 q5 27 16.5 48t35 40.5t42 31t56.5 34.5q26 16 73.5 44t75.5 44.5t69 44.5t65.5 49t53.5 52.5t44.5 61t26 68t10.5 80.5q0 109 -74 173.5t-199 64.5q-28 0 -49.5 -4t-36 -9.5t-24.5 -16.5t-15.5 -19.5t-9 -24.5t-4.5 -26t-2 -29t-2 -29q-4 -41 -29 -65.5t-59 -24.5 q-35 0 -57.5 22.5t-22.5 59.5z" />
<glyph unicode="@" horiz-adv-x="1611" d="M106 418q0 195 78.5 380.5t210.5 324t316.5 223t384.5 84.5q235 0 376.5 -129.5t141.5 -335.5q0 -215 -134 -396t-347 -266l-172 -67l86 350h-19q-77 -152 -174 -251t-170 -99q-90 0 -145.5 72t-55.5 192q0 95 34 192.5t91 176t139 128.5t171 50q68 0 131.5 -27.5 t103.5 -73.5l113 107l-174 -717h51q167 89 273 263.5t106 358.5q0 190 -120 310.5t-319 120.5q-144 0 -279.5 -50.5t-242 -140t-187 -206t-124 -255t-43.5 -280.5q0 -93 21 -176.5t66 -156t110.5 -125t161 -82.5t210.5 -30q187 0 351 67t288 196q-134 -169 -309 -258 t-377 -89q-127 0 -231 33t-176 89.5t-121.5 135t-72 168t-22.5 189.5zM602 504q0 -93 33.5 -147t89.5 -54q42 0 109.5 62t139.5 172t118 231q12 115 -37.5 183.5t-136.5 68.5q-63 0 -123 -51t-101.5 -128.5t-66.5 -167.5t-25 -169z" />
<glyph unicode="A" horiz-adv-x="1517" d="M-119 0l195 90l981 1294l-21 113l164 27v-1436l199 -88h-574l236 88v453h-592l-338 -453l203 -88h-453zM498 578h563v727h-19z" />
<glyph unicode="B" horiz-adv-x="1370" d="M-72 0l187 94l317 1319l-135 88h717q173 0 282 -86.5t109 -212.5q0 -144 -126 -256.5t-306 -144.5l-6 -21q147 -32 231 -116t84 -201q0 -134 -91 -241.5t-236 -164.5t-312 -57h-715zM244 37h403q210 0 346.5 130.5t136.5 324.5q0 130 -83 205t-232 75h-393zM430 809h412 q113 0 209 58t151 153t55 201q0 108 -70 174.5t-192 66.5h-407z" />
<glyph unicode="C" horiz-adv-x="1396" d="M129 588q0 177 76 349.5t200 301.5t292 209t343 80q247 0 420 -103l-8 -32l-20 -322q-65 414 -408 414q-126 0 -243 -53.5t-206.5 -146.5t-157 -213.5t-103 -260t-35.5 -279.5q0 -234 113 -375t313 -141q160 0 325 120.5t287 324.5l-143 -371l-9 -35q-196 -80 -471 -80 q-164 0 -293.5 80.5t-200.5 220t-71 312.5z" />
<glyph unicode="D" horiz-adv-x="1472" d="M-72 0l187 94l317 1319l-135 88h541q156 0 278 -47t196 -128t112 -184t38 -222q0 -128 -41.5 -258t-124.5 -248.5t-196.5 -211t-270.5 -147.5t-333 -55h-568zM244 37h252q147 0 279 54t227.5 144.5t166 206t105.5 241.5t35 249q0 109 -30 203.5t-88 168t-153.5 116 t-216.5 42.5h-233z" />
<glyph unicode="E" horiz-adv-x="1345" d="M-72 0l187 96l315 1317l-133 88h1079l-8 -35l-25 -354l-133 350h-622l-158 -653h397l177 235l-123 -509l-62 237h-399l-176 -735h678l340 405l-164 -409l-6 -33h-1164z" />
<glyph unicode="F" horiz-adv-x="1320" d="M-70 0l187 90l317 1323l-137 88h1143l-8 -35l-27 -360l-133 356h-682l-158 -653h422l176 235l-121 -509l-63 237h-422l-164 -684l201 -88h-531z" />
<glyph unicode="G" horiz-adv-x="1554" d="M129 590q0 143 49.5 284t138.5 258t203 207.5t252 140.5q133 48 266 48h11q118 0 228 -27t191 -74l-6 -34l-22 -320q-34 204 -134.5 306.5t-273.5 105.5h-9q-121 0 -235 -50q-117 -52 -207.5 -144.5t-159 -213t-104.5 -260t-36 -280.5q0 -234 112 -376t309 -145h10 q133 0 258 74q131 76 220 213l102 420h-350l10 39h645l-182 -96l-172 -705l-57 178q-104 -79 -233 -122q-126 -42 -255 -42h-6q-161 3 -290 84t-201 220.5t-72 310.5z" />
<glyph unicode="H" horiz-adv-x="1521" d="M-72 0l189 88l319 1325l-139 88h510l-227 -88l-140 -577h799l137 577l-192 88h524l-188 -88l-320 -1325l139 -88h-508l226 88l172 711h-797l-172 -711l193 -88h-525z" />
<glyph unicode="I" horiz-adv-x="579" d="M-72 0l189 90l317 1323l-137 88h469l-188 -90l-320 -1323l139 -88h-469z" />
<glyph unicode="J" horiz-adv-x="577" d="M-539 -285q0 37 25 60.5t57 23.5q27 0 49.5 -18.5t39.5 -45.5t35.5 -54t48 -45.5t67.5 -18.5q120 0 194.5 100.5t122.5 305.5l334 1390l-139 88h471l-186 -90l-340 -1409q-45 -192 -188.5 -308t-332.5 -116q-113 0 -185.5 39t-72.5 98z" />
<glyph unicode="K" horiz-adv-x="1527" d="M-70 0l187 90l317 1323l-137 88h502l-219 -88l-140 -573h74l905 661h191l-1039 -651l846 -936l-151 -45l-830 946l-176 -727l174 -88h-504z" />
<glyph unicode="L" horiz-adv-x="1300" d="M-72 0l187 96l317 1317l-135 88h498l-220 -90l-329 -1370h647l352 440l-168 -448l-8 -33h-1141z" />
<glyph unicode="M" horiz-adv-x="1935" d="M-86 0l207 90l317 1317l-131 94h283l309 -1308h27l889 1308h307l-189 -90l-317 -1323l139 -88h-469l187 90l296 1239h-20l-946 -1378l-318 1376h-18l-297 -1239l158 -88h-414z" />
<glyph unicode="N" horiz-adv-x="1615" d="M-82 0l205 92l305 1264l-109 145l175 23l761 -1284h27l281 1173l-158 88h412l-205 -92l-352 -1458l-785 1325h-16l-287 -1188l162 -88h-416z" />
<glyph unicode="O" horiz-adv-x="1579" d="M127 582q0 175 75.5 347.5t198.5 304t291.5 213t343.5 81.5q151 0 273.5 -77t192 -213.5t69.5 -305.5q0 -172 -73 -346t-191.5 -308t-282.5 -218.5t-334 -84.5q-156 0 -285.5 79t-203.5 218.5t-74 309.5zM281 528q0 -145 44.5 -258.5t141 -183.5t233.5 -70 q127 0 242.5 59t200.5 157t148.5 222.5t95.5 259.5t32 263q0 145 -41.5 257.5t-131.5 181.5t-220 69q-134 0 -254 -57.5t-208 -153.5t-153 -219.5t-97.5 -259t-32.5 -267.5z" />
<glyph unicode="P" horiz-adv-x="1314" d="M-70 0l187 90l317 1323l-137 88h682q184 0 300 -95t116 -241q0 -128 -84.5 -240.5t-223.5 -178.5t-292 -66h-394l-141 -592l191 -88h-521zM412 719h370q127 0 234 65t168 172t61 228q0 126 -78.5 202t-212.5 76h-364z" />
<glyph unicode="Q" horiz-adv-x="1572" d="M127 588q0 138 48 277t134.5 257t199 210t250 144t277.5 52q231 0 383 -169.5t152 -426.5q0 -115 -33 -233.5t-91 -223.5t-141 -197.5t-178.5 -159t-208 -105t-225.5 -38.5h-20l-6 -24l669 -205l-202 -98l-648 356q-173 98 -266.5 245t-93.5 339zM281 530q0 -144 52 -261 t148.5 -185t218.5 -68q127 0 242.5 59t200.5 157t148.5 222.5t95.5 259.5t32 263q0 145 -41.5 257.5t-131.5 181.5t-220 69q-112 0 -215 -40.5t-183.5 -110.5t-146.5 -163t-109.5 -199.5t-67 -219.5t-23.5 -222z" />
<glyph unicode="R" horiz-adv-x="1486" d="M-70 0l187 90l317 1323l-137 88h600q190 0 307 -88t117 -221q0 -112 -74 -209t-190.5 -156.5t-251.5 -76.5l-6 -29l565 -817l-150 -41l-581 880h-215l-158 -655l156 -88h-486zM426 778h287q128 0 234.5 59t166.5 158.5t60 216.5q0 116 -80 183t-230 67h-274z" />
<glyph unicode="S" horiz-adv-x="1040" d="M37 76l6 33l35 358q20 -217 124.5 -335t274.5 -118h6q135 0 219 86q86 88 86 228q0 63 -28 123.5t-72.5 110t-98.5 99t-108.5 100t-99 103.5t-72.5 119t-28 137q0 179 129 293.5t321 114.5q91 0 185 -26.5t167 -71.5l-8 -35l-22 -340q-32 217 -120 325.5t-226 108.5 q-134 0 -222 -85.5t-88 -217.5q0 -63 28.5 -123t73.5 -110t100 -100t110 -102t100 -106t73.5 -122.5t28.5 -141.5q1 -181 -131 -295q-128 -111 -329 -111h-11q-114 1 -223 29t-180 72z" />
<glyph unicode="T" horiz-adv-x="1482" d="M186 1083l160 383l10 35h1239l-10 -35l-24 -383l-142 379h-381l-329 -1374l192 -88h-563l225 88l332 1374h-367z" />
<glyph unicode="U" horiz-adv-x="1495" d="M180 446l230 957l-140 98h469l-186 -98l-219 -918q-13 -55 -14 -104q0 -113 72 -197q102 -120 300 -121q187 0 339.5 118t193.5 296l221 926l-148 98h404l-205 -98l-223 -934q-51 -212 -234 -353t-407 -141q-242 1 -371 135q-95 99 -95 233q0 49 13 103z" />
<glyph unicode="V" horiz-adv-x="1499" d="M238 1501h571l-236 -88v-1192h19l895 1192l-203 88h451l-193 -88l-1108 -1464v1464z" />
<glyph unicode="W" horiz-adv-x="2056" d="M238 1501h571l-236 -88v-1169h13l573 889v280l-196 88h573l-236 -88v-1169h9l739 1169l-205 88h451l-193 -90l-942 -1462v1112l-725 -1112v1464z" />
<glyph unicode="X" horiz-adv-x="1466" d="M-113 0l197 90l647 649l-313 676l-144 86h525l-226 -88l265 -569h24l547 569l-203 88h451l-195 -92l-600 -616l328 -705l145 -88h-530l229 88l-280 602h-25l-594 -604l203 -86h-451z" />
<glyph unicode="Y" horiz-adv-x="1398" d="M242 1501h522l-223 -86l252 -715h26l574 711l-209 90h450l-190 -90l-635 -776l-131 -547l190 -88h-553l220 88l135 553l-281 770z" />
<glyph unicode="Z" horiz-adv-x="1247" d="M-55 0l1229 1462h-629l-334 -360l154 364l8 35h999l-1229 -1464h697l325 416l-147 -420l-8 -33h-1065z" />
<glyph unicode="[" horiz-adv-x="692" d="M-39 -475l494 2058h481l-8 -33h-355l-477 -1992h355l-9 -33h-481z" />
<glyph unicode="\" horiz-adv-x="706" d="M266 1561h47l197 -1807h-47z" />
<glyph unicode="]" horiz-adv-x="692" d="M-223 -475l8 33h354l479 1992h-356l8 33h482l-494 -2058h-481z" />
<glyph unicode="^" horiz-adv-x="829" d="M172 829l457 578l178 -578h-47l-150 484l-381 -484h-57z" />
<glyph unicode="_" horiz-adv-x="1245" d="M2 -72l12 47h959l-12 -47h-959z" />
<glyph unicode="`" horiz-adv-x="540" d="M305 1632h160l164 -473z" />
<glyph unicode="a" d="M61 326q0 98 25.5 200.5t75 196t116 167t156 117.5t187.5 44q84 0 157.5 -38t124.5 -104l152 150l-219 -909q-12 -40 -4.5 -62t32.5 -22q21 0 47.5 20t62 64.5t81 131t94.5 205.5q-88 -279 -169 -395.5t-173 -116.5q-71 0 -97 51q-14 27 -13 66q0 34 10 76l69 285h-16 q-210 -478 -432 -478q-90 0 -151.5 48.5t-88.5 125.5t-27 177zM205 332q0 -128 42.5 -205.5t129.5 -77.5q58 0 119.5 49.5t119.5 138t110.5 196t102.5 237.5l5 28q3 27 3 52q-1 104 -47 177q-58 91 -167 91q-90 0 -171 -67t-133.5 -169.5t-83 -222t-30.5 -227.5z" />
<glyph unicode="b" horiz-adv-x="1146" d="M82 -25l362 1510l-159 16l331 141l-284 -1177h16q240 586 498 586q117 0 178 -92.5t61 -239.5q0 -123 -40.5 -254t-109 -240t-172 -179.5t-218.5 -70.5q-178 0 -307 164zM299 281q23 -126 91.5 -200.5t162.5 -74.5h2q81 0 155 68q75 69 125 174.5t79.5 227.5t29.5 231 q0 121 -39 195.5t-117 74.5q-228 0 -489 -696z" />
<glyph unicode="c" horiz-adv-x="919" d="M74 389q0 123 41 242t112 212t175 150.5t221 57.5q127 0 207.5 -56t80.5 -131q0 -40 -20.5 -65t-50.5 -25q-59 0 -76 72q-2 8 -7 32t-8.5 35t-11 31t-17 30.5t-24 23t-35.5 17.5t-47 5q-116 0 -212 -88t-146.5 -220.5t-50.5 -273.5q0 -102 29.5 -181.5t95.5 -130 t162 -50.5h6q114 0 211 76q100 78 170 227q-76 -197 -191 -300.5t-254 -103.5q-91 0 -161.5 33.5t-113 91t-64 131t-21.5 158.5z" />
<glyph unicode="d" d="M61 326q0 98 25 200.5t74.5 196t115.5 167t155.5 117.5t186.5 44q81 0 151.5 -34t119.5 -93l137 561l-162 16l332 141l-365 -1505q-4 -19 -4 -33q0 -41 35 -41q22 0 49 20t62.5 65.5t81 132t94.5 206.5q-89 -279 -170.5 -395.5t-171.5 -116.5q-67 1 -95 47q-17 28 -18 69 q0 28 8 61l74 301h-16q-210 -478 -432 -478q-90 0 -151.5 48.5t-88.5 125.5t-27 177zM205 332q0 -128 42.5 -205.5t129.5 -77.5q59 0 121 50.5t120.5 140.5t111 199.5t101.5 240.5l3 16q3 27 3 53q0 103 -46 177q-57 92 -168 92q-90 0 -171 -67t-133.5 -169.5t-83 -222 t-30.5 -227.5z" />
<glyph unicode="e" horiz-adv-x="946" d="M74 385q0 165 69 317t196.5 250.5t281.5 98.5q149 0 223 -111q52 -78 52 -192q0 -48 -9 -103l-2 -12h-654q-26 -102 -26 -195q0 -102 29.5 -181.5t95.5 -130t162 -50.5h6q114 0 211 76q100 78 170 227q-77 -198 -191 -302q-112 -102 -249 -102h-5q-91 1 -161.5 34 t-113 90t-64 129.5t-21.5 156.5zM242 662h456q65 0 80 77q6 34 6 64q0 75 -34 134q-48 83 -140 83q-123 0 -222.5 -101.5t-145.5 -256.5z" />
<glyph unicode="f" horiz-adv-x="690" d="M-506 -287q0 36 24.5 59t55.5 23q27 0 49.5 -18.5t39 -44.5t34 -52t44 -44.5t60.5 -18.5q187 0 279 406l217 913l-176 25l215 131l35 149q48 200 201.5 322.5t363.5 122.5q134 0 212 -48q65 -39 65 -94q0 -12 -3 -24q-4 -26 -25 -43t-46 -17q-33 0 -56.5 19.5t-39 47 t-32 55.5t-47 47.5t-73.5 19.5q-137 0 -238.5 -107t-150.5 -311l-47 -201h323l-20 -82h-324l-207 -872q-62 -258 -184.5 -378t-310.5 -120q-99 0 -168.5 38.5t-69.5 96.5z" />
<glyph unicode="g" horiz-adv-x="989" d="M-236 -348q0 205 433 330l4 16q-74 51 -74 102q0 53 70 96t229 99h-2q-144 3 -222.5 86t-78.5 209q0 83 34.5 165.5t93 148t145.5 106.5t184 41q52 0 123 -10.5t120 -10.5h250l-20 -82h-236q70 -88 70 -203q0 -148 -92.5 -267t-229.5 -163q-169 -53 -222 -78 q-97 -44 -97 -85q0 -33 56.5 -70t137 -73t161.5 -74.5t137.5 -89t56.5 -103.5q0 -81 -92 -158t-235 -123.5t-286 -46.5q-179 0 -298.5 66.5t-119.5 171.5zM-111 -313q0 -93 110.5 -153t270.5 -60q66 0 135 12.5t132 37t103 67.5t40 96q0 33 -28.5 65t-80 60.5t-104 53 t-119 54.5t-106.5 53q-168 -46 -260.5 -120t-92.5 -166zM246 582q0 -111 51 -184.5t149 -73.5q68 0 129 43t101.5 109.5t64 145.5t23.5 152q0 107 -49.5 177.5t-141.5 70.5q-74 0 -138 -42t-104 -107t-62.5 -141.5t-22.5 -149.5z" />
<glyph unicode="h" horiz-adv-x="1196" d="M90 0l354 1485l-159 16l331 141l-309 -1286h8q42 107 85 199t99 186.5t112.5 160.5t123.5 107.5t133 41.5q112 -1 161 -93q28 -52 28 -117q0 -51 -17 -110l-166 -581q-7 -26 -6 -45q0 -42 35 -42q21 0 48 20.5t62.5 65.5t81.5 132t95 206q-89 -279 -170.5 -395.5 t-171.5 -116.5q-73 0 -99 52q-13 27 -13 63q0 35 12 80l163 575q14 48 14 89q0 43 -16 77q-31 66 -106 66q-60 0 -124 -52t-121 -139t-110 -190t-97.5 -216.5t-76.5 -207.5t-53 -172h-131z" />
<glyph unicode="i" horiz-adv-x="589" d="M33 618q66 199 157.5 316t180.5 117q53 0 79 -42q14 -23 15 -58q0 -29 -10 -66l-187 -735q-6 -26 -6 -45q0 -42 33 -42q22 0 49 20t62.5 65.5t81 132t94.5 206.5q-89 -280 -170 -396t-172 -116q-70 1 -98 49q-15 26 -15 65q0 32 10 73l182 710q8 37 8 57q0 9 -2 15 q-5 18 -28 19q-42 0 -114.5 -94t-149.5 -251zM354 1321l45 201h195l-45 -201h-195z" />
<glyph unicode="j" horiz-adv-x="534" d="M-305 -541q153 41 253 155.5t148 319.5l223 938q8 37 8 57q0 10 -2 15q-5 19 -28 19q-42 0 -114.5 -94t-149.5 -251q66 199 157.5 316t180.5 117q54 0 79 -43q13 -23 13 -57q0 -30 -10 -68l-236 -989q-41 -182 -175.5 -294t-346.5 -141zM354 1321l43 201h197l-45 -201 h-195z" />
<glyph unicode="k" horiz-adv-x="1220" d="M88 0l358 1485l-161 16l336 150l-259 -1063h80l584 442h176l-706 -434l311 -436q4 -5 18 -24t21 -26.5t20 -19.5t25.5 -17t26.5 -5q65 0 131.5 89.5t162.5 329.5q-84 -284 -161.5 -398t-182.5 -114q-43 0 -79.5 20.5t-60.5 48.5t-60 79l-308 448l-139 -571h-133z" />
<glyph unicode="l" horiz-adv-x="585" d="M123 152l321 1333l-159 16l333 141l-362 -1490q-6 -26 -6 -44q0 -45 33 -45q21 0 48 20t62 65.5t80.5 132t95.5 206.5q-89 -280 -170 -396t-172 -116q-71 1 -97 47q-15 26 -16 65q0 29 9 65z" />
<glyph unicode="m" horiz-adv-x="1732" d="M33 618q66 199 157.5 316t180.5 117q53 0 78 -42q14 -24 15 -60q0 -27 -9 -62l-105 -443h15q37 100 71.5 180t81 162.5t93 138.5t104.5 91t119 35q98 1 144 -85q27 -50 26 -117q0 -47 -13 -101l-73 -304h14q38 100 74 179.5t84 163t97 138.5t110 90.5t126 35.5 q100 0 147 -88q25 -48 26 -110q0 -53 -19 -116l-166 -587q-6 -27 -6 -45q0 -13 3 -22q8 -20 30 -20t48.5 20t62.5 65.5t81.5 132t95.5 206.5q-89 -279 -171 -395.5t-173 -116.5q-74 0 -100 52q-12 25 -12 60q0 36 14 83l164 575q14 56 14 99.5t-14 73.5q-27 60 -92 59 q-51 0 -103 -37t-97 -101t-87.5 -144t-79 -172t-67.5 -180t-57 -171.5t-44 -143.5q-1 -6 -2.5 -9.5t-3 -9t-2.5 -9.5h-133l180 745q11 49 11 90q0 45 -14 79q-27 64 -91 63q-34 0 -68 -18.5t-67 -56.5t-63 -81.5t-61 -106.5t-56 -117.5t-52.5 -130t-46.5 -128.5t-42 -127.5 t-34.5 -112.5t-29.5 -98h-135l208 874q8 36 8 56q0 8 -2 14q-5 18 -28 19q-42 0 -114.5 -94t-149.5 -251z" />
<glyph unicode="n" horiz-adv-x="1220" d="M33 618q66 199 157.5 316t180.5 117q53 0 78 -42q14 -24 15 -60q0 -27 -9 -62l-125 -531h10q40 106 83 199t99 186.5t112.5 160t124 108t134.5 41.5q112 1 160 -91q27 -51 27 -117q0 -52 -17 -112l-164 -581q-8 -28 -8 -47q0 -40 35 -40q22 0 48.5 20t62 65.5t81 132 t94.5 206.5q-88 -279 -169.5 -395.5t-174.5 -116.5q-72 0 -98 52q-13 26 -12 62q0 35 12 81l166 575q14 47 14 86q0 43 -18 79q-32 66 -107 67q-71 0 -148.5 -75t-141 -186t-124 -250t-100 -254t-65.5 -212h-135l208 874q8 36 8 56q0 8 -2 14q-5 18 -28 19q-42 0 -114.5 -94 t-149.5 -251z" />
<glyph unicode="o" horiz-adv-x="1103" d="M72 375q0 130 47.5 253.5t128 216.5t194 149.5t238.5 56.5q158 0 256 -113t98 -287q0 -120 -45.5 -241t-123 -217.5t-190 -157t-237.5 -60.5q-159 0 -262.5 110.5t-103.5 289.5zM213 356q0 -98 24.5 -175t79 -125t132.5 -48q98 0 184 63.5t141.5 163t87 216.5t31.5 229 q0 149 -55.5 244.5t-163.5 95.5q-83 0 -157.5 -41t-129 -109t-94.5 -154.5t-60 -179t-20 -180.5z" />
<glyph unicode="p" horiz-adv-x="1165" d="M-29 -565l348 1439q7 29 7 49q0 40 -29 40q-42 0 -114.5 -94t-149.5 -251q66 199 157.5 316t180.5 117q53 0 78 -43q14 -24 14 -60q0 -28 -8 -63l-103 -420h15q240 586 497 586q117 0 178.5 -92.5t61.5 -239.5q0 -123 -40.5 -254t-109.5 -240t-172 -179.5t-217 -70.5 q-166 0 -295 150l-135 -555l168 -14zM317 281q25 -127 93 -201t161 -74h2q81 0 155 68q75 69 125.5 174.5t80 227.5t29.5 231q0 121 -39 195.5t-117 74.5q-49 0 -98.5 -30.5t-95 -88t-86 -122t-81 -150.5t-69 -154t-60.5 -151z" />
<glyph unicode="q" horiz-adv-x="1091" d="M61 326q0 98 25 200.5t74.5 196t115.5 167t155.5 117.5t186.5 44q87 0 160.5 -38t124.5 -106l152 152l-359 -1489l166 -14l-330 -121l244 1018h-16q-210 -478 -432 -478q-90 0 -151.5 48.5t-88.5 125.5t-27 177zM205 332q0 -128 42.5 -205.5t129.5 -77.5q59 0 121.5 51 t121 141.5t110.5 199.5t101 241l3 12q3 27 3 53q0 104 -46 179q-57 92 -168 92q-90 0 -171 -67t-133.5 -169.5t-83 -222t-30.5 -227.5z" />
<glyph unicode="r" horiz-adv-x="927" d="M33 618q66 199 157 316t179 117q53 1 79 -41q15 -24 16 -61q0 -27 -9 -62l-109 -459h10q49 127 98 228t112.5 195.5t138 147t153.5 52.5q52 0 84.5 -26.5t32.5 -66.5q0 -37 -22.5 -62.5t-55.5 -25.5q-27 0 -47.5 12.5t-31 27.5t-29 27.5t-41.5 12.5q-52 0 -108.5 -54 t-107 -146.5t-96 -193.5t-85 -216.5t-64 -193.5t-43.5 -146h-133l208 874q8 36 8 56q0 8 -2 14q-5 18 -28 19q-42 0 -114.5 -94t-149.5 -251z" />
<glyph unicode="s" horiz-adv-x="835" d="M25 45l6 35l18 326q19 -189 103.5 -293.5t222.5 -104.5q100 0 164.5 59t64.5 154q0 48 -24 90t-62.5 72.5t-85 60t-93 60.5t-85 66t-62.5 83.5t-24 106.5q0 125 103.5 208t258.5 83q73 0 150 -20t119 -50l-6 -33l-23 -270q-10 72 -29.5 131t-51 108t-79.5 76t-110 27 q-96 0 -164 -59.5t-68 -143.5q0 -48 24 -90t62.5 -73t85 -61t93.5 -61.5t85.5 -66.5t62.5 -84.5t24 -108.5q0 -128 -103.5 -212.5t-263.5 -84.5q-79 0 -166.5 19.5t-146.5 50.5z" />
<glyph unicode="t" horiz-adv-x="741" d="M121 961l217 131l31 129l153 69l-61 -260h344l-21 -82h-344l-172 -712q-8 -35 -8 -63q0 -39 16 -67q28 -48 95 -47q82 0 168 74t163 209q-77 -169 -181 -268t-216 -99q-105 -1 -155 71q-32 46 -31 108q0 35 10 75l186 705z" />
<glyph unicode="u" horiz-adv-x="1206" d="M33 618q70 208 153 320.5t174 112.5q60 0 88 -44q15 -24 15 -60q0 -28 -10 -64l-156 -580q-15 -57 -15 -100q0 -46 16 -78q32 -62 116 -62q71 0 131.5 48t126.5 167t133 295.5t158 456.5h133l-211 -880q-6 -26 -6 -44q0 -43 32 -43q22 0 49 20t62.5 65.5t81.5 132 t96 206.5q-89 -279 -171 -395.5t-173 -116.5q-68 0 -96 48q-15 27 -16 65q0 30 10 68l118 493h-12q-52 -141 -94.5 -240t-91 -186t-96.5 -138.5t-105 -80.5t-123 -29q-120 1 -174 87q-31 49 -31 120q0 53 17 117l155 571q9 39 9 60q0 8 -2 14q-6 18 -27 19 q-44 0 -112.5 -83.5t-151.5 -261.5z" />
<glyph unicode="v" horiz-adv-x="1036" d="M117 172q0 98 61 272t195 494h-250l20 92h271l16 37h35q-197 -645 -197 -827q0 -83 39 -126.5t113 -43.5q101 0 200.5 71.5t168.5 177.5t112 228t43 223q0 45 -14 80.5t-31 53.5t-31 37.5t-14 37.5q0 31 22 51.5t56 20.5q94 0 94 -133q0 -88 -25.5 -192.5t-69.5 -209 t-109.5 -202.5t-140 -173t-166 -120.5t-183.5 -45.5q-101 0 -158 53t-57 144z" />
<glyph unicode="w" horiz-adv-x="1527" d="M84 139q0 87 60 253t216 546h-237l20 92h256l17 37h35q-105 -340 -161.5 -559t-56.5 -330q0 -112 86 -112q30 0 62.5 17t65 51.5t64 75t65 99.5t61.5 111.5t60.5 125t56.5 126.5t54 129t47 119t42 110h121l-191 -805q-8 -33 -8 -59q0 -34 13 -58q23 -42 88 -42 q93 0 190 75.5t166 184.5t113.5 232t44.5 218q0 42 -13 76.5t-28 51.5t-28 37t-13 38q0 31 22 51.5t56 20.5q46 0 71 -33t25 -92q0 -80 -27 -183t-73 -208t-111.5 -206t-138.5 -179.5t-159 -126.5t-167 -48q-95 1 -137 61q-26 38 -26 91q0 32 9 70l133 557h-14 q-41 -104 -76 -184t-81.5 -176.5t-92 -165.5t-97.5 -129.5t-109 -92t-115 -31.5q-75 0 -117.5 43t-42.5 121z" />
<glyph unicode="x" horiz-adv-x="1077" d="M-84 66q0 32 21.5 52.5t52.5 20.5q26 0 51 -20.5t52 -41t57 -20.5q39 0 83.5 38t87.5 104t80.5 139.5t73.5 157.5l-90 395q-9 40 -20 55t-33 15q-46 0 -118.5 -92.5t-150.5 -250.5q66 199 156 316t178 117q42 0 68 -26t41 -87l74 -324h14q42 91 84 163t94 137t112.5 101 t123.5 36q50 0 81 -23t31 -59q0 -31 -19.5 -52.5t-49.5 -21.5q-33 0 -74 30.5t-78 30.5q-66 0 -145.5 -109.5t-161.5 -285.5l90 -393q6 -27 11 -42t14.5 -30.5t23.5 -22.5t35 -7q126 0 299 421q-89 -279 -172.5 -395.5t-179.5 -116.5q-120 0 -148 129l-76 326h-16 q-107 -234 -203.5 -344.5t-216.5 -110.5q-59 0 -98 25.5t-39 65.5z" />
<glyph unicode="y" horiz-adv-x="1017" d="M-436 -233q0 29 21 49t53 20q25 0 50.5 -17t47 -37t68.5 -37t110 -17q185 0 377 100q31 663 31 929v44q-1 94 -10 127t-31 33q-38 0 -100.5 -79t-145.5 -255q142 424 305 424q33 0 55.5 -17t34 -50.5t16.5 -69.5t7 -87v-63q0 -253 -25 -838h18q205 150 336 373.5 t131 445.5q0 53 -14 93t-31 58t-31 40t-14 43q0 31 23 51.5t57 20.5q94 0 94 -158q0 -289 -165 -576.5t-429 -459.5q-136 -92 -293 -142.5t-317 -50.5q-229 0 -229 103z" />
<glyph unicode="z" horiz-adv-x="983" d="M-49 59l831 863h-528l25 108h608l35 37h45l-602 -631l163 -268q47 -84 121 -84q33 0 64 16.5t70.5 59t87.5 124t106 203.5q-104 -281 -195.5 -396.5t-195.5 -115.5q-58 0 -98.5 26t-73.5 81l-148 250l-260 -273h-55z" />
<glyph unicode="{" horiz-adv-x="827" d="M102 565q152 35 236 97t111 169q5 23 24 230t29 250q34 131 136 215t228 84q47 0 87.5 -19.5t103.5 -64.5q-67 26 -123 26q-108 0 -193.5 -69.5t-111.5 -179.5q-13 -53 -30.5 -251t-23.5 -223q-14 -58 -44 -103t-64 -71t-79.5 -44t-80.5 -25.5t-78 -12.5l-2 -14 q25 -4 44 -7.5t44.5 -10.5t44.5 -16.5t39.5 -23t32.5 -32.5t20.5 -42.5t8 -55t-9.5 -68.5q-7 -29 -86.5 -240.5t-92.5 -261.5q-26 -109 24.5 -178t154.5 -69q58 0 137 28q-79 -44 -130.5 -64t-101.5 -20q-126 0 -188 83t-33 212q11 44 94 264.5t88 241.5q26 107 -28 170 t-187 96z" />
<glyph unicode="|" horiz-adv-x="514" d="M47 -246l438 1829h58l-441 -1829h-55z" />
<glyph unicode="}" horiz-adv-x="827" d="M-205 -418q64 -28 123 -28q105 0 188 69t109 178q13 53 35.5 265t28.5 237q13 58 43 103t63 70.5t80.5 44t81.5 25.5t78 13l4 14q-24 3 -44 7t-44.5 10.5t-44 16.5t-39 23.5t-32 32.5t-21 42.5t-8 55t9.5 68.5q7 28 84 225.5t90 248.5q28 110 -24.5 179.5t-160.5 69.5 q-54 0 -137 -26q90 47 137 65.5t94 18.5q127 0 189 -84t33 -215q-11 -43 -91 -250t-85 -230q-25 -107 29.5 -169t189.5 -97q-150 -33 -233.5 -95.5t-110.5 -170.5q-5 -22 -28.5 -242.5t-33.5 -263.5q-32 -129 -133.5 -212t-228.5 -83q-50 0 -91 20t-100 64z" />
<glyph unicode="~" horiz-adv-x="1327" d="M33 377q165 183 265.5 250t203.5 67q46 0 108.5 -19t114 -41.5t113.5 -41.5t108 -19q87 0 169 41.5t212 163.5q-170 -176 -271.5 -245.5t-199.5 -69.5q-57 0 -140 30.5t-165.5 60.5t-138.5 30q-61 0 -106 -11.5t-115 -58.5t-158 -137z" />
<glyph unicode="&#xa1;" horiz-adv-x="464" d="M-88 -494l254 852q125 399 129 410q-12 -80 -38.5 -230t-31.5 -180l-153 -852h-160zM207 834l55 215h201l-55 -215h-201z" />
<glyph unicode="&#xa2;" horiz-adv-x="919" d="M123 590q0 118 38.5 233.5t105.5 207.5t165 151.5t209 66.5l25 105h45l-25 -103q122 -3 198.5 -58t76.5 -128q0 -40 -21 -65t-51 -25q-59 0 -76 72q-2 8 -8.5 36t-10 39.5t-13.5 33.5t-22 32.5t-33 20.5t-48 12l-223 -932q44 -13 86 -13q117 -2 217 76.5t170 227.5 q-76 -197 -191 -300.5t-254 -103.5q-19 0 -55 4l-68 -286h-45l70 292q-129 32 -195.5 142.5t-66.5 261.5zM254 639q0 -116 40 -205t120 -129l219 914q-108 -11 -196.5 -100.5t-135.5 -217.5t-47 -262z" />
<glyph unicode="&#xa3;" horiz-adv-x="1150" d="M-27 0l29 131q129 0 233 75t134 195q7 28 9 55.5t-4 68t-8.5 56.5t-16 74t-15.5 66h-174l16 70h143q-34 175 -2 303q29 122 115.5 222t212 156.5t262.5 55.5q146 -2 240.5 -57t79.5 -134q-6 -28 -25.5 -46.5t-46.5 -18.5q-35 0 -57 22t-35.5 54t-29 63.5t-50.5 54 t-88 23.5q-155 1 -274 -101t-158 -258q-35 -149 0 -339h514l-16 -70h-484q1 -6 5.5 -28.5t5.5 -29.5t4.5 -27.5t4.5 -29t3 -27t2 -28.5v-26.5t-1 -28.5t-3.5 -26t-5.5 -28q-23 -98 -101 -174.5t-190 -117.5l-6 -19h804l-30 -131h-996z" />
<glyph unicode="&#xa4;" horiz-adv-x="1105" d="M88 287q7 36 45.5 63.5t103.5 59.5t99 57q-61 93 -31 227q27 133 129 226q-21 25 -71 60.5t-76 66.5t-19 67q4 23 21 37t39 14q33 0 53 -34t39.5 -97t36.5 -94q98 72 207 72t176 -80q30 31 72.5 93.5t75.5 96t69 33.5q24 0 37.5 -16t7.5 -41q-7 -34 -46 -63t-104 -64 t-98 -60q56 -92 29 -225q-31 -135 -125 -223q21 -26 70.5 -63.5t75.5 -68.5t18 -67q-5 -22 -20.5 -35.5t-37.5 -13.5q-35 0 -55.5 33.5t-40.5 98t-35 93.5q-95 -73 -207 -73q-110 0 -176 79q-30 -31 -73.5 -93.5t-76 -95.5t-65.5 -32q-25 0 -39 18t-8 44zM360 694 q-25 -115 26.5 -192.5t152.5 -79.5q100 -1 181.5 73.5t106.5 190.5q25 115 -25 191.5t-149 78.5q-100 2 -184 -73t-109 -189z" />
<glyph unicode="&#xa5;" horiz-adv-x="1443" d="M242 1501h583l-254 -86l265 -631h34l547 631l-239 86h501l-215 -88l-587 -678h393l-8 -37h-410l-25 -104h410l-10 -37h-408l-114 -469l190 -88h-555l221 88l113 469h-408l10 37h408l25 104h-410l10 37h391l-286 676z" />
<glyph unicode="&#xa6;" horiz-adv-x="514" d="M47 -246l197 824h55l-197 -824h-55zM293 782l192 801h58l-195 -801h-55z" />
<glyph unicode="&#xa7;" horiz-adv-x="2048" d="M528 -16l7 32l20 324q14 -191 114.5 -294t278.5 -103q133 0 228.5 66.5t95.5 170.5q0 53 -35 94t-90.5 68t-122.5 50.5t-134.5 48t-123 54t-90.5 76t-35 105.5q0 111 101.5 190t250.5 107l4 16q-96 38 -149 89t-53 128q0 98 70 173.5t176 112t227 36.5q99 0 193.5 -23 t144.5 -59l-9 -33l-22 -266q-10 74 -30.5 132.5t-58 110t-100.5 79.5t-149 28t-162.5 -25t-128 -78.5t-51.5 -125.5q0 -50 34 -88.5t88.5 -63.5t120.5 -47.5t132 -47t120.5 -53.5t88.5 -75.5t34 -106.5q0 -110 -94 -192t-231 -113l-6 -20q89 -39 138.5 -92.5t49.5 -132.5 q0 -101 -66.5 -176t-170.5 -111.5t-228 -36.5q-96 0 -203 22t-174 50zM731 731q0 -33 17 -60.5t40.5 -46.5t66 -39t75.5 -31.5t89 -30.5t87 -31q124 5 219.5 73.5t95.5 163.5q0 23 -9 44t-21.5 37t-36.5 32t-44 26.5t-54.5 24.5t-57 22t-63.5 21.5t-62 21.5 q-137 -5 -239.5 -67t-102.5 -160z" />
<glyph unicode="&#xa8;" horiz-adv-x="985" d="M408 1321l41 186h180l-41 -186h-180zM784 1321l43 186h181l-43 -186h-181z" />
<glyph unicode="&#xa9;" horiz-adv-x="1615" d="M104 561q0 184 76 360.5t202.5 309t300.5 213t359 80.5q264 0 423 -165.5t159 -428.5q0 -185 -76.5 -361t-202.5 -307t-299.5 -211t-357.5 -80q-175 0 -308.5 76t-204.5 210t-71 304zM178 571q0 -237 143.5 -386.5t380.5 -149.5q168 0 325 73.5t270.5 194.5t182 283.5 t68.5 333.5q0 238 -142 389t-380 151q-167 0 -324.5 -74.5t-271.5 -196t-183 -284.5t-69 -334zM481 614q0 110 42 217t112.5 189.5t170.5 133t208 50.5q135 0 223 -61l-6 -27l-23 -227q-22 139 -72 209.5t-135 70.5q-113 0 -208 -77t-146 -193.5t-51 -239.5 q0 -125 60.5 -204.5t181.5 -79.5q107 0 199.5 65t152.5 183q-63 -158 -169.5 -245t-234.5 -87q-77 0 -137 25.5t-96 70.5t-54 102t-18 125z" />
<glyph unicode="&#xaa;" horiz-adv-x="718" d="M227 1118q0 99 41.5 193t118.5 155.5t168 61.5q101 0 172 -68l86 70l-121 -506l90 -8l-204 -90l61 256h-8q-58 -115 -128 -185.5t-136 -70.5q-62 0 -101 52t-39 140zM311 582l47 213h201l-47 -213h-201zM324 1126q0 -66 21 -103.5t56 -37.5q68 0 140.5 93t130.5 243l2 6 q6 67 -29.5 122.5t-93.5 55.5q-60 0 -114 -63.5t-83.5 -150.5t-29.5 -165z" />
<glyph unicode="&#xab;" horiz-adv-x="741" d="M51 547l453 381l-285 -381l100 -381zM346 549l453 381l-287 -381l102 -381z" />
<glyph unicode="&#xac;" horiz-adv-x="1091" d="M119 715l12 45h856l-127 -522h-51l117 477h-807z" />
<glyph unicode="&#xad;" horiz-adv-x="761" d="M145 530l23 91h477l-20 -91h-480z" />
<glyph unicode="&#xae;" horiz-adv-x="1171" d="M166 854q0 94 29.5 189.5t87 181.5t136 153t184 106.5t222.5 39.5q184 0 297 -110t113 -294q0 -94 -29 -189.5t-86.5 -182t-135 -153.5t-182 -106.5t-220.5 -39.5q-187 0 -301.5 110t-114.5 295zM236 864q0 -160 98 -259t264 -99q124 0 233 55t181 142.5t113.5 195 t41.5 213.5q0 158 -97 256t-259 98q-102 0 -194.5 -36t-160.5 -96.5t-118.5 -138t-76 -163t-25.5 -168.5zM369 711l94 51l117 485l-68 47h246q84 0 134 -32.5t50 -85.5q0 -68 -65 -118.5t-160 -58.5l225 -301l-86 -20l-223 321h-35l-57 -239l86 -49h-258zM604 1020h82 q77 0 125.5 48t48.5 116q0 42 -28.5 65t-81.5 23h-86z" />
<glyph unicode="&#xaf;" horiz-adv-x="991" d="M416 1356l20 84h563l-20 -84h-563z" />
<glyph unicode="&#xb0;" horiz-adv-x="778" d="M227 1122q0 72 28.5 143.5t79 130.5t128.5 95.5t168 36.5q122 0 186 -71.5t64 -180.5q0 -71 -28 -142.5t-78 -130.5t-127.5 -96t-166.5 -37q-122 0 -188 72t-66 180zM293 1137q0 -90 51.5 -149t149.5 -60q142 -1 231.5 102t89.5 230q0 91 -51 150.5t-148 59.5t-172.5 -51 t-113 -126t-37.5 -156z" />
<glyph unicode="&#xb1;" horiz-adv-x="1050" d="M12 166l13 45h856l-13 -45h-856zM147 729l13 45h405l86 363h45l-86 -363h406l-12 -45h-406l-86 -364h-45l86 364h-406z" />
<glyph unicode="&#xb2;" horiz-adv-x="491" d="M147 936q77 59 123.5 96.5t104.5 90.5t89.5 93.5t54 87.5t22.5 91q0 42 -23.5 68t-64.5 26q-32 0 -68 -19q-22 -13 -35.5 -39.5t-18 -49t-17.5 -39.5t-35 -17q-17 0 -28 10t-11 27q0 48 98 106t160 58q58 0 90.5 -31.5t32.5 -83.5q0 -47 -24.5 -94t-85.5 -104 t-98.5 -87.5t-129.5 -98.5q-17 -13 -25 -19h311l-14 -72h-408z" />
<glyph unicode="&#xb3;" horiz-adv-x="561" d="M213 1063q0 23 12.5 36t34.5 13q21 0 29.5 -17.5t8 -39.5t3.5 -45.5t16 -32.5q24 -16 66 -16q70 0 119 50.5t49 114.5q0 42 -28 65t-81 23q-45 0 -98 -16q6 3 34.5 19t40.5 22.5t38.5 23t40 27.5t33 29t29 33.5t17 35t7.5 39.5q0 28 -18 45t-50 17q-31 0 -67 -19 q-22 -14 -36.5 -40t-20 -48.5t-17.5 -39.5t-33 -17q-17 0 -28 10t-11 27q0 48 97.5 106t160.5 58q48 0 75.5 -24.5t27.5 -59.5q0 -28 -14.5 -55t-35 -47t-53.5 -41.5t-58 -34t-61 -29.5q19 8 58 8q61 0 97 -31t36 -84q0 -85 -69 -143.5t-163 -58.5q-57 0 -122.5 45t-65.5 92 z" />
<glyph unicode="&#xb4;" horiz-adv-x="425" d="M219 1159l277 473h163z" />
<glyph unicode="&#xb5;" horiz-adv-x="1226" d="M-72 -565l389 1435q14 56 8.5 74.5t-28.5 18.5q-42 0 -114.5 -94t-149.5 -251q66 199 157.5 316t180.5 117q55 0 80 -45.5t0 -137.5l-162 -600q-24 -87 17 -148t120 -61q50 0 99 32t96 96t91.5 147t91.5 197t89 232t90 267h133l-211 -880q-22 -87 27 -87q22 0 49 20 t62.5 65.5t81 132t94.5 206.5q-89 -279 -170.5 -395.5t-171.5 -116.5q-72 0 -97.5 51.5t-3.5 143.5l125 516h-14q-132 -360 -249 -531.5t-259 -177.5q-95 0 -154 68l-129 -479l174 -12z" />
<glyph unicode="&#xb6;" horiz-adv-x="2048" d="M522 907q0 115 49.5 224.5t130.5 190t189 130t219 49.5h741l-184 -94l-340 -1419q-46 -187 -185 -298.5t-327 -111.5q-114 0 -187 39.5t-73 99.5q0 35 23.5 58.5t58.5 23.5q27 0 49.5 -18.5t39.5 -45.5t36.5 -54t50.5 -45.5t72 -18.5q124 0 202 100.5t127 305.5l347 1439 h-160l-397 -1648h-119l168 696h-154q-167 1 -272 114.5t-105 282.5z" />
<glyph unicode="&#xb7;" horiz-adv-x="415" d="M98 461l47 215h201l-47 -215h-201z" />
<glyph unicode="&#xb8;" horiz-adv-x="704" d="M-39 -543q93 27 153 70t72 96q7 30 -1.5 49t-34.5 37l-115 82l184 209h33l-90 -133l94 -70q63 -42 47 -116q-21 -79 -116.5 -144t-225.5 -80z" />
<glyph unicode="&#xb9;" horiz-adv-x="436" d="M166 936l131 55l109 453l-125 8l223 74l-127 -537l112 -53h-323z" />
<glyph unicode="&#xba;" horiz-adv-x="681" d="M231 1161q0 95 51 180.5t132.5 136t169.5 50.5q95 0 155 -66t60 -166q0 -88 -50 -174.5t-132.5 -141t-170.5 -54.5q-95 0 -155 66t-60 169zM268 582l47 213h201l-47 -213h-201zM328 1118q0 -78 32.5 -123t90.5 -45q71 0 130.5 66t89 154t29.5 169q0 77 -32.5 120.5 t-92.5 43.5q-68 0 -126.5 -62t-89.5 -150t-31 -173z" />
<glyph unicode="&#xbb;" horiz-adv-x="741" d="M-37 168l285 381l-103 381l269 -381zM256 166l285 381l-103 381l271 -381z" />
<glyph unicode="&#xbc;" horiz-adv-x="944" d="M156 166l493 455l-96 -400h90l-12 -55h-90l-29 -121l82 -45h-291l131 45l29 121h-307zM207 733l12 47h635l-12 -47h-635zM246 221h229l66 268zM414 936l131 55l108 453l-125 8l224 74l-127 -537l112 -53h-323z" />
<glyph unicode="&#xbd;" horiz-adv-x="944" d="M195 0q97 74 153.5 121.5t119 110t91.5 118t29 109.5q0 42 -23.5 68t-62.5 26q-36 0 -70 -18q-22 -13 -35.5 -39.5t-18 -49t-17.5 -40t-35 -17.5q-17 0 -28 10t-11 27q0 48 98 106t160 58q58 0 91.5 -31.5t33.5 -83.5q0 -46 -23.5 -92t-83.5 -102.5t-96 -85.5t-126 -97 q-23 -17 -34 -26h309l-14 -72h-407zM207 733l12 47h635l-12 -47h-635zM414 936l131 55l108 453l-125 8l224 74l-127 -537l112 -53h-323z" />
<glyph unicode="&#xbe;" horiz-adv-x="944" d="M154 166l493 455l-96 -400h90l-12 -55h-90l-29 -121l82 -45h-291l131 45l29 121h-307zM207 733l12 47h635l-12 -47h-635zM244 221h229l66 268zM399 1063q0 23 13 36t34 13t30.5 -17.5t9.5 -39.5t4 -45.5t16 -32.5q21 -16 63 -16q71 0 120.5 50.5t49.5 114.5 q0 42 -28.5 65t-81.5 23q-46 0 -99 -16q3 2 31 17t36.5 19.5t34 20t36 24t31 24t30 28t21 29t16 33t4.5 34.5q0 28 -17.5 45t-47.5 17q-34 0 -70 -19q-22 -14 -36 -40t-19 -48.5t-17 -39.5t-33 -17q-18 0 -29.5 10t-11.5 27q0 48 98.5 106t160.5 58q49 0 76.5 -24t27.5 -60 q0 -28 -15 -55t-35 -47t-53.5 -41.5t-57.5 -34t-60 -29.5q19 8 57 8q59 0 95 -31t36 -84q0 -85 -68.5 -143.5t-160.5 -58.5q-57 0 -124 45t-67 92z" />
<glyph unicode="&#xbf;" horiz-adv-x="722" d="M-129 -182q0 38 7.5 74t18.5 65.5t33 60t40.5 53t51 49.5t55.5 44.5t63.5 43t65 40.5t70 41.5t68.5 40.5q72 43 92 65t29 66l47 196q44 -211 31 -286q-5 -26 -16.5 -46.5t-35.5 -40.5t-41 -31t-57 -36q-25 -15 -74 -43.5t-75.5 -44.5t-68.5 -44t-66 -49t-53 -52.5 t-44 -61t-26 -68t-11 -79.5q0 -109 74.5 -173.5t200.5 -64.5q31 0 54.5 4t38 14t23.5 18.5t13.5 26.5t6 28t3 33t2.5 32q6 42 30 66t60 24q34 0 56 -22t22 -58q0 -84 -91.5 -141.5t-219.5 -57.5q-166 0 -271.5 88t-105.5 226zM414 831l47 216h201l-48 -216h-200z" />
<glyph unicode="&#xc0;" horiz-adv-x="1517" d="M-119 0l195 90l981 1294l-21 113l164 27v-1436l199 -88h-574l236 88v453h-592l-338 -453l203 -88h-453zM498 578h563v727h-19zM807 2003h174l205 -377z" />
<glyph unicode="&#xc1;" horiz-adv-x="1517" d="M-119 0l195 90l981 1294l-21 113l164 27v-1436l199 -88h-574l236 88v453h-592l-338 -453l203 -88h-453zM498 578h563v727h-19zM1061 1626l295 377h176z" />
<glyph unicode="&#xc2;" horiz-adv-x="1517" d="M-119 0l195 90l981 1294l-21 113l164 27v-1436l199 -88h-574l236 88v453h-592l-338 -453l203 -88h-453zM498 578h563v727h-19zM870 1624l355 365l176 -365l-211 207z" />
<glyph unicode="&#xc3;" horiz-adv-x="1517" d="M-119 0l195 90l981 1294l-21 113l164 27v-1436l199 -88h-574l236 88v453h-592l-338 -453l203 -88h-453zM498 578h563v727h-19zM827 1679q73 112 143 173t126 61q29 0 113.5 -35t121.5 -35q51 0 107.5 40.5t97.5 107.5q-51 -118 -118 -187t-138 -69q-33 0 -120.5 36.5 t-125.5 36.5q-43 0 -98 -34.5t-109 -94.5z" />
<glyph unicode="&#xc4;" horiz-adv-x="1517" d="M-119 0l195 90l981 1294l-21 113l164 27v-1436l199 -88h-574l236 88v453h-592l-338 -453l203 -88h-453zM498 578h563v727h-19zM879 1724l43 187h178l-41 -187h-180zM1257 1724l41 187h181l-41 -187h-181z" />
<glyph unicode="&#xc5;" horiz-adv-x="1517" d="M-119 0l195 90l981 1294l-21 113l164 27v-1436l199 -88h-574l236 88v453h-592l-338 -453l203 -88h-453zM498 578h563v727h-19zM1016 1792q0 79 53.5 132.5t134.5 53.5q59 0 99 -38.5t40 -96.5q0 -83 -53 -138.5t-133 -55.5q-61 0 -101 40.5t-40 102.5zM1071 1798 q0 -42 25.5 -69t66.5 -27q54 0 89.5 37.5t35.5 93.5q0 40 -26 66t-66 26q-54 0 -89.5 -36.5t-35.5 -90.5z" />
<glyph unicode="&#xc6;" horiz-adv-x="2115" d="M-119 0l199 92l1100 1364l12 45h954l-10 -35l-25 -354l-122 350h-623l-156 -653h392l170 235l-121 -509l-58 237h-391l-178 -735h676l330 405l-162 -409l-10 -33h-1147l184 98l106 443h-507l-365 -453l205 -88h-453zM522 578h488l200 833h-14z" />
<glyph unicode="&#xc7;" horiz-adv-x="1396" d="M129 588q0 177 76 349.5t200 301.5t292 209t343 80q247 0 420 -103l-8 -32l-20 -322q-65 414 -408 414q-126 0 -243 -53.5t-206.5 -146.5t-157 -213.5t-103 -260t-35.5 -279.5q0 -234 113 -375t313 -141q160 0 325 120.5t287 324.5l-143 -371l-9 -35q-193 -80 -465 -80 l-73 -108l94 -70q63 -42 47 -116q-21 -79 -116.5 -144t-225.5 -80q93 27 153 70t72 96q7 29 -2 48.5t-35 37.5l-114 82l164 184q-236 12 -385.5 185t-149.5 428z" />
<glyph unicode="&#xc8;" horiz-adv-x="1345" d="M-72 0l187 96l315 1317l-133 88h1079l-8 -35l-25 -354l-133 350h-622l-158 -653h397l177 235l-123 -509l-62 237h-399l-176 -735h678l340 405l-164 -409l-6 -33h-1164zM567 2003h174l205 -377z" />
<glyph unicode="&#xc9;" horiz-adv-x="1345" d="M-72 0l187 96l315 1317l-133 88h1079l-8 -35l-25 -354l-133 350h-622l-158 -653h397l177 235l-123 -509l-62 237h-399l-176 -735h678l340 405l-164 -409l-6 -33h-1164zM821 1626l295 377h176z" />
<glyph unicode="&#xca;" horiz-adv-x="1345" d="M-72 0l187 96l315 1317l-133 88h1079l-8 -35l-25 -354l-133 350h-622l-158 -653h397l177 235l-123 -509l-62 237h-399l-176 -735h678l340 405l-164 -409l-6 -33h-1164zM631 1624l354 365l176 -365l-211 207z" />
<glyph unicode="&#xcb;" horiz-adv-x="1345" d="M-72 0l187 96l315 1317l-133 88h1079l-8 -35l-25 -354l-133 350h-622l-158 -653h397l177 235l-123 -509l-62 237h-399l-176 -735h678l340 405l-164 -409l-6 -33h-1164zM639 1724l43 187h178l-41 -187h-180zM1018 1724l41 187h180l-41 -187h-180z" />
<glyph unicode="&#xcc;" horiz-adv-x="579" d="M-72 0l189 90l317 1323l-137 88h469l-188 -90l-320 -1323l139 -88h-469zM227 2003h174l205 -377z" />
<glyph unicode="&#xcd;" horiz-adv-x="579" d="M-72 0l189 90l317 1323l-137 88h469l-188 -90l-320 -1323l139 -88h-469zM481 1626l295 377h176z" />
<glyph unicode="&#xce;" horiz-adv-x="579" d="M-72 0l189 90l317 1323l-137 88h469l-188 -90l-320 -1323l139 -88h-469zM291 1624l354 365l176 -365l-211 207z" />
<glyph unicode="&#xcf;" horiz-adv-x="579" d="M-72 0l189 90l317 1323l-137 88h469l-188 -90l-320 -1323l139 -88h-469zM299 1724l43 187h178l-41 -187h-180zM678 1724l41 187h180l-41 -187h-180z" />
<glyph unicode="&#xd0;" horiz-adv-x="1472" d="M-72 0l187 94l155 649h-155l10 39h156l151 631l-135 88h541q156 0 278 -47t196 -128t112 -184t38 -222q0 -128 -41.5 -258t-124.5 -248.5t-196.5 -211t-270.5 -147.5t-333 -55h-568zM244 37h252q147 0 279 54t227.5 144.5t166 206t105.5 241.5t35 249q0 109 -30 203.5 t-88 168t-153.5 116t-216.5 42.5h-233l-164 -680h369l-9 -39h-370z" />
<glyph unicode="&#xd1;" horiz-adv-x="1615" d="M-82 0l205 92l305 1264l-109 145l175 23l761 -1284h27l281 1173l-158 88h412l-205 -92l-352 -1458l-785 1325h-16l-287 -1188l162 -88h-416zM731 1679q74 113 143.5 173.5t124.5 60.5q29 0 114 -35t122 -35q51 0 107.5 40.5t97.5 107.5q-51 -118 -118 -187t-138 -69 q-33 0 -120.5 36.5t-125.5 36.5q-43 0 -98 -34.5t-109 -94.5z" />
<glyph unicode="&#xd2;" horiz-adv-x="1579" d="M127 582q0 175 75.5 347.5t198.5 304t291.5 213t343.5 81.5q151 0 273.5 -77t192 -213.5t69.5 -305.5q0 -172 -73 -346t-191.5 -308t-282.5 -218.5t-334 -84.5q-156 0 -285.5 79t-203.5 218.5t-74 309.5zM281 528q0 -145 44.5 -258.5t141 -183.5t233.5 -70 q127 0 242.5 59t200.5 157t148.5 222.5t95.5 259.5t32 263q0 145 -41.5 257.5t-131.5 181.5t-220 69q-134 0 -254 -57.5t-208 -153.5t-153 -219.5t-97.5 -259t-32.5 -267.5zM735 2003h174l205 -377z" />
<glyph unicode="&#xd3;" horiz-adv-x="1579" d="M127 582q0 175 75.5 347.5t198.5 304t291.5 213t343.5 81.5q151 0 273.5 -77t192 -213.5t69.5 -305.5q0 -172 -73 -346t-191.5 -308t-282.5 -218.5t-334 -84.5q-156 0 -285.5 79t-203.5 218.5t-74 309.5zM281 528q0 -145 44.5 -258.5t141 -183.5t233.5 -70 q127 0 242.5 59t200.5 157t148.5 222.5t95.5 259.5t32 263q0 145 -41.5 257.5t-131.5 181.5t-220 69q-134 0 -254 -57.5t-208 -153.5t-153 -219.5t-97.5 -259t-32.5 -267.5zM989 1626l295 377h176z" />
<glyph unicode="&#xd4;" horiz-adv-x="1579" d="M127 582q0 175 75.5 347.5t198.5 304t291.5 213t343.5 81.5q151 0 273.5 -77t192 -213.5t69.5 -305.5q0 -172 -73 -346t-191.5 -308t-282.5 -218.5t-334 -84.5q-156 0 -285.5 79t-203.5 218.5t-74 309.5zM281 528q0 -145 44.5 -258.5t141 -183.5t233.5 -70 q127 0 242.5 59t200.5 157t148.5 222.5t95.5 259.5t32 263q0 145 -41.5 257.5t-131.5 181.5t-220 69q-134 0 -254 -57.5t-208 -153.5t-153 -219.5t-97.5 -259t-32.5 -267.5zM799 1624l354 365l176 -365l-211 207z" />
<glyph unicode="&#xd5;" horiz-adv-x="1579" d="M127 582q0 175 75.5 347.5t198.5 304t291.5 213t343.5 81.5q151 0 273.5 -77t192 -213.5t69.5 -305.5q0 -172 -73 -346t-191.5 -308t-282.5 -218.5t-334 -84.5q-156 0 -285.5 79t-203.5 218.5t-74 309.5zM281 528q0 -145 44.5 -258.5t141 -183.5t233.5 -70 q127 0 242.5 59t200.5 157t148.5 222.5t95.5 259.5t32 263q0 145 -41.5 257.5t-131.5 181.5t-220 69q-134 0 -254 -57.5t-208 -153.5t-153 -219.5t-97.5 -259t-32.5 -267.5zM756 1679q74 113 143.5 173.5t124.5 60.5q29 0 114 -35t122 -35q51 0 107 40.5t97 107.5 q-51 -118 -118 -187t-138 -69q-33 0 -120 36.5t-125 36.5q-43 0 -98 -34.5t-109 -94.5z" />
<glyph unicode="&#xd6;" horiz-adv-x="1579" d="M127 582q0 175 75.5 347.5t198.5 304t291.5 213t343.5 81.5q151 0 273.5 -77t192 -213.5t69.5 -305.5q0 -172 -73 -346t-191.5 -308t-282.5 -218.5t-334 -84.5q-156 0 -285.5 79t-203.5 218.5t-74 309.5zM281 528q0 -145 44.5 -258.5t141 -183.5t233.5 -70 q127 0 242.5 59t200.5 157t148.5 222.5t95.5 259.5t32 263q0 145 -41.5 257.5t-131.5 181.5t-220 69q-134 0 -254 -57.5t-208 -153.5t-153 -219.5t-97.5 -259t-32.5 -267.5zM807 1724l43 187h178l-41 -187h-180zM1186 1724l41 187h180l-41 -187h-180z" />
<glyph unicode="&#xd7;" horiz-adv-x="1032" d="M33 256l483 387l-291 381h58l268 -352l438 352h72l-481 -387l290 -381h-57l-270 352l-439 -352h-71z" />
<glyph unicode="&#xd8;" horiz-adv-x="1579" d="M20 0l220 211q-113 157 -113 371q0 175 75.5 347.5t198.5 304t291.5 213t343.5 81.5q235 0 389 -178l158 151h57l-190 -182q121 -162 121 -387q0 -172 -73 -346t-191.5 -308t-282.5 -218.5t-334 -84.5q-127 0 -237.5 54t-188.5 149l-186 -178h-58zM281 528 q0 -140 38 -241l1037 995q-101 203 -330 203q-134 0 -254 -57.5t-208 -153.5t-153 -219.5t-97.5 -259t-32.5 -267.5zM336 248q52 -109 143.5 -170.5t220.5 -61.5q127 0 242.5 59t200.5 157t148.5 222.5t95.5 259.5t32 263q0 157 -47 268z" />
<glyph unicode="&#xd9;" horiz-adv-x="1495" d="M180 446l230 957l-140 98h469l-186 -98l-219 -918q-44 -181 58 -301.5t300 -120.5q187 0 339.5 118t193.5 296l221 926l-148 98h404l-205 -98l-223 -934q-51 -212 -234 -353t-407 -141q-242 0 -371 134.5t-82 336.5zM694 2003h174l205 -377z" />
<glyph unicode="&#xda;" horiz-adv-x="1495" d="M180 446l230 957l-140 98h469l-186 -98l-219 -918q-44 -181 58 -301.5t300 -120.5q187 0 339.5 118t193.5 296l221 926l-148 98h404l-205 -98l-223 -934q-51 -212 -234 -353t-407 -141q-242 0 -371 134.5t-82 336.5zM948 1626l295 377h176z" />
<glyph unicode="&#xdb;" horiz-adv-x="1495" d="M180 446l230 957l-140 98h469l-186 -98l-219 -918q-44 -181 58 -301.5t300 -120.5q187 0 339.5 118t193.5 296l221 926l-148 98h404l-205 -98l-223 -934q-51 -212 -234 -353t-407 -141q-242 0 -371 134.5t-82 336.5zM758 1624l354 365l176 -365l-211 207z" />
<glyph unicode="&#xdc;" horiz-adv-x="1495" d="M180 446l230 957l-140 98h469l-186 -98l-219 -918q-44 -181 58 -301.5t300 -120.5q187 0 339.5 118t193.5 296l221 926l-148 98h404l-205 -98l-223 -934q-51 -212 -234 -353t-407 -141q-242 0 -371 134.5t-82 336.5zM766 1724l43 187h178l-41 -187h-180zM1145 1724 l41 187h180l-41 -187h-180z" />
<glyph unicode="&#xdd;" horiz-adv-x="1398" d="M242 1501h522l-223 -86l252 -715h26l574 711l-209 90h450l-190 -90l-635 -776l-131 -547l190 -88h-553l220 88l135 553l-281 770zM918 1626l294 377h177z" />
<glyph unicode="&#xde;" horiz-adv-x="1363" d="M-72 0l185 90l319 1323l-137 88h465l-185 -90l-53 -215h426q185 0 299.5 -96.5t114.5 -239.5q0 -128 -84.5 -240.5t-223 -178.5t-290.5 -66h-438l-70 -287l137 -88h-465zM336 414h416q126 0 232.5 65t167 172.5t60.5 229.5q0 125 -77.5 200.5t-212.5 75.5h-408z" />
<glyph unicode="&#xdf;" horiz-adv-x="1273" d="M92 0l225 938l-157 10l190 129l39 160q30 125 116 223t208 151.5t258 53.5q132 0 208 -56.5t76 -148.5q0 -70 -48.5 -139t-117.5 -126t-137.5 -112.5t-117 -119.5t-48.5 -127q0 -42 21 -80.5t54 -70t73.5 -62t80.5 -63.5t73 -68.5t54 -83t21 -101.5q0 -142 -106.5 -236.5 t-270.5 -93.5q-88 0 -177.5 19t-147.5 49l6 35l20 323q14 -183 98.5 -289t221.5 -106q111 0 181.5 70t70.5 176q0 45 -20 85.5t-52.5 71.5t-71.5 60.5t-78.5 60t-72 63t-52.5 76t-20 93.5q0 53 24 103.5t62 92.5t84.5 84.5t93 87t84.5 91t62 106t24 123.5q0 80 -51 129 t-141 49q-147 0 -256 -100.5t-162 -312.5l-293 -1217h-131z" />
<glyph unicode="&#xe0;" d="M61 326q0 98 25.5 200.5t75 196t116 167t156 117.5t187.5 44q84 0 157.5 -38t124.5 -104l152 150l-219 -909q-12 -40 -4.5 -62t32.5 -22q21 0 47.5 20t62 64.5t81 131t94.5 205.5q-88 -279 -169 -395.5t-173 -116.5q-71 0 -96.5 51t-3.5 142l69 285h-16 q-210 -478 -432 -478q-90 0 -151.5 48.5t-88.5 125.5t-27 177zM205 332q0 -128 42.5 -205.5t129.5 -77.5q58 0 119.5 49.5t119.5 138t110.5 196t102.5 237.5l5 28q14 138 -43.5 229t-167.5 91q-90 0 -171 -67t-133.5 -169.5t-83 -222t-30.5 -227.5zM381 1632h160l164 -473z " />
<glyph unicode="&#xe1;" d="M61 326q0 98 25.5 200.5t75 196t116 167t156 117.5t187.5 44q84 0 157.5 -38t124.5 -104l152 150l-219 -909q-12 -40 -4.5 -62t32.5 -22q21 0 47.5 20t62 64.5t81 131t94.5 205.5q-88 -279 -169 -395.5t-173 -116.5q-71 0 -96.5 51t-3.5 142l69 285h-16 q-210 -478 -432 -478q-90 0 -151.5 48.5t-88.5 125.5t-27 177zM205 332q0 -128 42.5 -205.5t129.5 -77.5q58 0 119.5 49.5t119.5 138t110.5 196t102.5 237.5l5 28q14 138 -43.5 229t-167.5 91q-90 0 -171 -67t-133.5 -169.5t-83 -222t-30.5 -227.5zM582 1159l276 473h164z " />
<glyph unicode="&#xe2;" d="M61 326q0 98 25.5 200.5t75 196t116 167t156 117.5t187.5 44q84 0 157.5 -38t124.5 -104l152 150l-219 -909q-12 -40 -4.5 -62t32.5 -22q21 0 47.5 20t62 64.5t81 131t94.5 205.5q-88 -279 -169 -395.5t-173 -116.5q-71 0 -96.5 51t-3.5 142l69 285h-16 q-210 -478 -432 -478q-90 0 -151.5 48.5t-88.5 125.5t-27 177zM205 332q0 -128 42.5 -205.5t129.5 -77.5q58 0 119.5 49.5t119.5 138t110.5 196t102.5 237.5l5 28q14 138 -43.5 229t-167.5 91q-90 0 -171 -67t-133.5 -169.5t-83 -222t-30.5 -227.5zM397 1159l373 447 l160 -447l-199 271z" />
<glyph unicode="&#xe3;" d="M61 326q0 98 25.5 200.5t75 196t116 167t156 117.5t187.5 44q84 0 157.5 -38t124.5 -104l152 150l-219 -909q-12 -40 -4.5 -62t32.5 -22q21 0 47.5 20t62 64.5t81 131t94.5 205.5q-88 -279 -169 -395.5t-173 -116.5q-71 0 -96.5 51t-3.5 142l69 285h-16 q-210 -478 -432 -478q-90 0 -151.5 48.5t-88.5 125.5t-27 177zM205 332q0 -128 42.5 -205.5t129.5 -77.5q58 0 119.5 49.5t119.5 138t110.5 196t102.5 237.5l5 28q14 138 -43.5 229t-167.5 91q-90 0 -171 -67t-133.5 -169.5t-83 -222t-30.5 -227.5zM371 1270 q155 233 270 233q29 0 113 -34.5t123 -34.5q50 0 106 40t98 107q-52 -118 -119.5 -187t-136.5 -69q-33 0 -120 36t-125 36q-44 0 -99 -34t-110 -93z" />
<glyph unicode="&#xe4;" d="M61 326q0 98 25.5 200.5t75 196t116 167t156 117.5t187.5 44q84 0 157.5 -38t124.5 -104l152 150l-219 -909q-12 -40 -4.5 -62t32.5 -22q21 0 47.5 20t62 64.5t81 131t94.5 205.5q-88 -279 -169 -395.5t-173 -116.5q-71 0 -96.5 51t-3.5 142l69 285h-16 q-210 -478 -432 -478q-90 0 -151.5 48.5t-88.5 125.5t-27 177zM205 332q0 -128 42.5 -205.5t129.5 -77.5q58 0 119.5 49.5t119.5 138t110.5 196t102.5 237.5l5 28q14 138 -43.5 229t-167.5 91q-90 0 -171 -67t-133.5 -169.5t-83 -222t-30.5 -227.5zM424 1321l41 186h180 l-41 -186h-180zM801 1321l43 186h180l-43 -186h-180z" />
<glyph unicode="&#xe5;" d="M61 326q0 98 25.5 200.5t75 196t116 167t156 117.5t187.5 44q84 0 157.5 -38t124.5 -104l152 150l-219 -909q-12 -40 -4.5 -62t32.5 -22q21 0 47.5 20t62 64.5t81 131t94.5 205.5q-88 -279 -169 -395.5t-173 -116.5q-71 0 -96.5 51t-3.5 142l69 285h-16 q-210 -478 -432 -478q-90 0 -151.5 48.5t-88.5 125.5t-27 177zM205 332q0 -128 42.5 -205.5t129.5 -77.5q58 0 119.5 49.5t119.5 138t110.5 196t102.5 237.5l5 28q14 138 -43.5 229t-167.5 91q-90 0 -171 -67t-133.5 -169.5t-83 -222t-30.5 -227.5zM557 1386 q0 78 54.5 132.5t133.5 54.5q60 0 100 -38.5t40 -96.5q0 -83 -53.5 -139t-131.5 -56q-62 0 -102.5 40t-40.5 103zM612 1393q0 -41 27 -69t68 -28q53 0 87.5 37.5t34.5 93.5q0 40 -25.5 66.5t-64.5 26.5q-55 0 -91 -36.5t-36 -90.5z" />
<glyph unicode="&#xe6;" horiz-adv-x="1574" d="M41 184q0 47 20.5 90t75 85.5t92.5 70t131 69.5t129 57t144 58q15 6 23.5 9.5t21 8.5l22.5 9l11 55q30 127 -22 211t-152 84q-69 0 -136 -37q-40 -22 -66 -60t-38.5 -75t-24 -71.5t-32 -56t-52.5 -21.5q-28 0 -45.5 17.5t-17.5 43.5q0 59 92.5 137t204 130.5t170.5 52.5 q103 0 172.5 -62t81.5 -160q77 103 180 162.5t223 59.5q150 0 224 -111t43 -295l-3 -12h-653q-26 -102 -26 -195q0 -102 29 -181.5t95 -130t162 -50.5q117 -2 217 76t170 227q-77 -198 -191 -301.5t-253 -102.5q-140 1 -226.5 75t-117.5 196q-65 -62 -94 -88.5t-83 -70.5 t-89 -62.5t-82.5 -34t-94.5 -15.5q-101 0 -168 60t-67 149zM178 207q0 -69 47 -115.5t119 -46.5q69 0 129 33.5t135 101.5l84 428q-56 -24 -87 -38t-82 -37.5t-80.5 -39.5t-71 -40.5t-65.5 -43.5t-51.5 -44.5t-42 -49t-24.5 -51.5t-10 -57zM870 662h457q65 0 80 77 q20 115 -28.5 198t-139.5 83q-123 0 -223 -101.5t-146 -256.5z" />
<glyph unicode="&#xe7;" horiz-adv-x="919" d="M74 389q0 123 41 242t112 212t175 150.5t221 57.5q127 0 207.5 -56t80.5 -131q0 -40 -20.5 -65t-50.5 -25q-59 0 -76 72q-2 8 -7 32t-8.5 35t-11 31t-17 30.5t-24 23t-35.5 17.5t-47 5q-116 0 -212 -88t-146.5 -220.5t-50.5 -273.5q0 -102 29.5 -181.5t95.5 -130 t162 -50.5q117 -2 217 76t170 227q-76 -195 -189.5 -298.5t-249.5 -105.5l-75 -110l94 -70q63 -42 47 -117q-21 -79 -116.5 -143.5t-225.5 -79.5q93 27 153 70t72 96q7 29 -2 48.5t-35 37.5l-114 82l165 188q-83 5 -147.5 40t-103.5 92.5t-58.5 128t-19.5 151.5z" />
<glyph unicode="&#xe8;" horiz-adv-x="946" d="M74 385q0 165 69 317t196.5 250.5t281.5 98.5q150 0 223.5 -111t42.5 -295l-2 -12h-654q-26 -102 -26 -195q0 -102 29.5 -181.5t95.5 -130t162 -50.5q117 -2 217 76t170 227q-76 -198 -190.5 -302t-254.5 -102q-91 1 -161.5 34t-113 90t-64 129.5t-21.5 156.5zM242 662 h456q65 0 80 77q20 115 -28.5 198t-139.5 83q-123 0 -222.5 -101.5t-145.5 -256.5zM324 1632h159l164 -473z" />
<glyph unicode="&#xe9;" horiz-adv-x="946" d="M74 385q0 165 69 317t196.5 250.5t281.5 98.5q150 0 223.5 -111t42.5 -295l-2 -12h-654q-26 -102 -26 -195q0 -102 29.5 -181.5t95.5 -130t162 -50.5q117 -2 217 76t170 227q-76 -198 -190.5 -302t-254.5 -102q-91 1 -161.5 34t-113 90t-64 129.5t-21.5 156.5zM242 662 h456q65 0 80 77q20 115 -28.5 198t-139.5 83q-123 0 -222.5 -101.5t-145.5 -256.5zM524 1159l277 473h164z" />
<glyph unicode="&#xea;" horiz-adv-x="946" d="M74 385q0 165 69 317t196.5 250.5t281.5 98.5q150 0 223.5 -111t42.5 -295l-2 -12h-654q-26 -102 -26 -195q0 -102 29.5 -181.5t95.5 -130t162 -50.5q117 -2 217 76t170 227q-76 -198 -190.5 -302t-254.5 -102q-91 1 -161.5 34t-113 90t-64 129.5t-21.5 156.5zM242 662 h456q65 0 80 77q20 115 -28.5 198t-139.5 83q-123 0 -222.5 -101.5t-145.5 -256.5zM340 1159l373 447l159 -447l-198 271z" />
<glyph unicode="&#xeb;" horiz-adv-x="946" d="M74 385q0 165 69 317t196.5 250.5t281.5 98.5q150 0 223.5 -111t42.5 -295l-2 -12h-654q-26 -102 -26 -195q0 -102 29.5 -181.5t95.5 -130t162 -50.5q117 -2 217 76t170 227q-76 -198 -190.5 -302t-254.5 -102q-91 1 -161.5 34t-113 90t-64 129.5t-21.5 156.5zM242 662 h456q65 0 80 77q20 115 -28.5 198t-139.5 83q-123 0 -222.5 -101.5t-145.5 -256.5zM367 1321l41 186h180l-41 -186h-180zM743 1321l43 186h181l-43 -186h-181z" />
<glyph unicode="&#xec;" horiz-adv-x="589" d="M33 618q66 199 157.5 316t180.5 117q54 0 79.5 -42t4.5 -124l-187 -735q-21 -87 27 -87q22 0 49 20t62.5 65.5t81 132t94.5 206.5q-89 -280 -170 -396t-172 -116q-71 0 -98.5 48.5t-4.5 138.5l182 710q11 54 6 72.5t-28 18.5q-42 0 -114.5 -94t-149.5 -251zM109 1632h159 l164 -473z" />
<glyph unicode="&#xed;" horiz-adv-x="589" d="M33 618q66 199 157.5 316t180.5 117q54 0 79.5 -42t4.5 -124l-187 -735q-21 -87 27 -87q22 0 49 20t62.5 65.5t81 132t94.5 206.5q-89 -280 -170 -396t-172 -116q-71 0 -98.5 48.5t-4.5 138.5l182 710q11 54 6 72.5t-28 18.5q-42 0 -114.5 -94t-149.5 -251zM309 1159 l277 473h164z" />
<glyph unicode="&#xee;" horiz-adv-x="589" d="M33 618q66 199 157.5 316t180.5 117q54 0 79.5 -42t4.5 -124l-187 -735q-21 -87 27 -87q22 0 49 20t62.5 65.5t81 132t94.5 206.5q-89 -280 -170 -396t-172 -116q-71 0 -98.5 48.5t-4.5 138.5l182 710q11 54 6 72.5t-28 18.5q-42 0 -114.5 -94t-149.5 -251zM125 1159 l373 447l159 -447l-198 271z" />
<glyph unicode="&#xef;" horiz-adv-x="589" d="M33 618q66 199 157.5 316t180.5 117q54 0 79.5 -42t4.5 -124l-187 -735q-21 -87 27 -87q22 0 49 20t62.5 65.5t81 132t94.5 206.5q-89 -280 -170 -396t-172 -116q-71 0 -98.5 48.5t-4.5 138.5l182 710q11 54 6 72.5t-28 18.5q-42 0 -114.5 -94t-149.5 -251zM150 1321 l40 186h181l-41 -186h-180zM526 1321l43 186h181l-43 -186h-181z" />
<glyph unicode="&#xf0;" horiz-adv-x="1116" d="M72 369q0 126 42.5 249t115 219t177.5 155t222 59q83 0 160.5 -33.5t125.5 -87.5q-21 225 -149 440l-397 -178l2 37l377 170q-126 195 -330 350q259 -122 420 -309l297 133l-7 -41l-268 -121q211 -259 211 -580q0 -125 -32 -250t-92.5 -233t-140 -192t-182.5 -132.5 t-212 -48.5q-154 0 -247 108.5t-93 285.5zM205 322q0 -144 57 -230t156 -86q74 0 144.5 40.5t126 108t101.5 157t75.5 187t44 198t10.5 190.5q-31 44 -100 74t-140 30q-102 0 -192.5 -60.5t-151 -156.5t-96 -215t-35.5 -237z" />
<glyph unicode="&#xf1;" horiz-adv-x="1220" d="M33 618q66 199 157.5 316t180.5 117q53 0 78 -42t6 -122l-125 -531h10q40 106 83 199t99 186.5t112.5 160t124 108t134.5 41.5q112 0 160 -91.5t10 -228.5l-164 -581q-25 -87 27 -87q22 0 48.5 20t62 65.5t81 132t94.5 206.5q-88 -279 -169.5 -395.5t-174.5 -116.5 q-72 0 -97.5 52t-0.5 143l166 575q29 99 -3.5 165.5t-107.5 66.5q-71 0 -148.5 -75t-141 -186t-124 -250t-100 -254t-65.5 -212h-135l208 874q11 52 6 70.5t-28 18.5q-42 0 -114.5 -94t-149.5 -251zM526 1270q155 233 271 233q29 0 112.5 -34.5t122.5 -34.5q50 0 106.5 40 t98.5 107q-52 -118 -119.5 -187t-136.5 -69q-33 0 -120.5 36t-125.5 36q-44 0 -99 -34t-110 -93z" />
<glyph unicode="&#xf2;" horiz-adv-x="1103" d="M72 375q0 130 47.5 253.5t128 216.5t194 149.5t238.5 56.5q158 0 256 -113t98 -287q0 -120 -45.5 -241t-123 -217.5t-190 -157t-237.5 -60.5q-159 0 -262.5 110.5t-103.5 289.5zM213 356q0 -98 24.5 -175t79 -125t132.5 -48q98 0 184 63.5t141.5 163t87 216.5t31.5 229 q0 149 -55.5 244.5t-163.5 95.5q-83 0 -157.5 -41t-129 -109t-94.5 -154.5t-60 -179t-20 -180.5zM432 1634h160l164 -473z" />
<glyph unicode="&#xf3;" horiz-adv-x="1103" d="M72 375q0 130 47.5 253.5t128 216.5t194 149.5t238.5 56.5q158 0 256 -113t98 -287q0 -120 -45.5 -241t-123 -217.5t-190 -157t-237.5 -60.5q-159 0 -262.5 110.5t-103.5 289.5zM213 356q0 -98 24.5 -175t79 -125t132.5 -48q98 0 184 63.5t141.5 163t87 216.5t31.5 229 q0 149 -55.5 244.5t-163.5 95.5q-83 0 -157.5 -41t-129 -109t-94.5 -154.5t-60 -179t-20 -180.5zM633 1161l276 473h164z" />
<glyph unicode="&#xf4;" horiz-adv-x="1103" d="M72 375q0 130 47.5 253.5t128 216.5t194 149.5t238.5 56.5q158 0 256 -113t98 -287q0 -120 -45.5 -241t-123 -217.5t-190 -157t-237.5 -60.5q-159 0 -262.5 110.5t-103.5 289.5zM213 356q0 -98 24.5 -175t79 -125t132.5 -48q98 0 184 63.5t141.5 163t87 216.5t31.5 229 q0 149 -55.5 244.5t-163.5 95.5q-83 0 -157.5 -41t-129 -109t-94.5 -154.5t-60 -179t-20 -180.5zM449 1161l372 447l160 -447l-199 271z" />
<glyph unicode="&#xf5;" horiz-adv-x="1103" d="M72 375q0 130 47.5 253.5t128 216.5t194 149.5t238.5 56.5q158 0 256 -113t98 -287q0 -120 -45.5 -241t-123 -217.5t-190 -157t-237.5 -60.5q-159 0 -262.5 110.5t-103.5 289.5zM213 356q0 -98 24.5 -175t79 -125t132.5 -48q98 0 184 63.5t141.5 163t87 216.5t31.5 229 q0 149 -55.5 244.5t-163.5 95.5q-83 0 -157.5 -41t-129 -109t-94.5 -154.5t-60 -179t-20 -180.5zM422 1272q155 233 270 233q29 0 113 -34.5t123 -34.5q50 0 106.5 40t98.5 107q-52 -118 -119.5 -187t-136.5 -69q-33 0 -120.5 36t-125.5 36q-44 0 -99 -34t-110 -93z" />
<glyph unicode="&#xf6;" horiz-adv-x="1103" d="M72 375q0 130 47.5 253.5t128 216.5t194 149.5t238.5 56.5q158 0 256 -113t98 -287q0 -120 -45.5 -241t-123 -217.5t-190 -157t-237.5 -60.5q-159 0 -262.5 110.5t-103.5 289.5zM213 356q0 -98 24.5 -175t79 -125t132.5 -48q98 0 184 63.5t141.5 163t87 216.5t31.5 229 q0 149 -55.5 244.5t-163.5 95.5q-83 0 -157.5 -41t-129 -109t-94.5 -154.5t-60 -179t-20 -180.5zM475 1323l41 186h180l-41 -186h-180zM852 1323l43 186h180l-43 -186h-180z" />
<glyph unicode="&#xf7;" horiz-adv-x="985" d="M90 618l12 46h856l-12 -46h-856zM336 219l47 195h174l-47 -195h-174zM494 870l47 195h174l-47 -195h-174z" />
<glyph unicode="&#xf8;" horiz-adv-x="1103" d="M-10 0l143 141q-61 99 -61 234q0 130 47.5 253.5t128 216.5t194 149.5t238.5 56.5q164 0 264 -121l103 100h51l-133 -129q69 -104 69 -250q0 -120 -45.5 -241t-123 -217.5t-190 -157t-237.5 -60.5q-177 0 -282 134l-113 -109h-53zM213 356q0 -68 12 -127l643 627 q-55 164 -194 164q-83 0 -157.5 -41t-129 -109t-94.5 -154.5t-60 -179t-20 -180.5zM236 188q26 -84 79.5 -132t133.5 -48q98 0 184 63.5t141.5 163t87 216.5t31.5 229q0 77 -14 137z" />
<glyph unicode="&#xf9;" horiz-adv-x="1206" d="M33 618q70 208 153 320.5t174 112.5q60 0 87.5 -44t5.5 -124l-156 -580q-30 -116 1.5 -178t115.5 -62q71 0 131.5 48t126.5 167t133 295.5t158 456.5h133l-211 -880q-19 -87 26 -87q22 0 49 20t62.5 65.5t81.5 132t96 206.5q-89 -279 -171 -395.5t-173 -116.5 q-69 0 -96.5 48t-5.5 133l118 493h-12q-52 -141 -94.5 -240t-91 -186t-96.5 -138.5t-105 -80.5t-123 -29q-121 0 -174.5 86.5t-13.5 237.5l155 571q13 56 7.5 74.5t-27.5 18.5q-44 0 -112.5 -83.5t-151.5 -261.5zM434 1632h160l164 -473z" />
<glyph unicode="&#xfa;" horiz-adv-x="1206" d="M33 618q70 208 153 320.5t174 112.5q60 0 87.5 -44t5.5 -124l-156 -580q-30 -116 1.5 -178t115.5 -62q71 0 131.5 48t126.5 167t133 295.5t158 456.5h133l-211 -880q-19 -87 26 -87q22 0 49 20t62.5 65.5t81.5 132t96 206.5q-89 -279 -171 -395.5t-173 -116.5 q-69 0 -96.5 48t-5.5 133l118 493h-12q-52 -141 -94.5 -240t-91 -186t-96.5 -138.5t-105 -80.5t-123 -29q-121 0 -174.5 86.5t-13.5 237.5l155 571q13 56 7.5 74.5t-27.5 18.5q-44 0 -112.5 -83.5t-151.5 -261.5zM635 1159l276 473h164z" />
<glyph unicode="&#xfb;" horiz-adv-x="1206" d="M33 618q70 208 153 320.5t174 112.5q60 0 87.5 -44t5.5 -124l-156 -580q-30 -116 1.5 -178t115.5 -62q71 0 131.5 48t126.5 167t133 295.5t158 456.5h133l-211 -880q-19 -87 26 -87q22 0 49 20t62.5 65.5t81.5 132t96 206.5q-89 -279 -171 -395.5t-173 -116.5 q-69 0 -96.5 48t-5.5 133l118 493h-12q-52 -141 -94.5 -240t-91 -186t-96.5 -138.5t-105 -80.5t-123 -29q-121 0 -174.5 86.5t-13.5 237.5l155 571q13 56 7.5 74.5t-27.5 18.5q-44 0 -112.5 -83.5t-151.5 -261.5zM451 1159l372 447l160 -447l-199 271z" />
<glyph unicode="&#xfc;" horiz-adv-x="1206" d="M33 618q70 208 153 320.5t174 112.5q60 0 87.5 -44t5.5 -124l-156 -580q-30 -116 1.5 -178t115.5 -62q71 0 131.5 48t126.5 167t133 295.5t158 456.5h133l-211 -880q-19 -87 26 -87q22 0 49 20t62.5 65.5t81.5 132t96 206.5q-89 -279 -171 -395.5t-173 -116.5 q-69 0 -96.5 48t-5.5 133l118 493h-12q-52 -141 -94.5 -240t-91 -186t-96.5 -138.5t-105 -80.5t-123 -29q-121 0 -174.5 86.5t-13.5 237.5l155 571q13 56 7.5 74.5t-27.5 18.5q-44 0 -112.5 -83.5t-151.5 -261.5zM475 1321l41 186h180l-41 -186h-180zM852 1321l43 186h180 l-43 -186h-180z" />
<glyph unicode="&#xfd;" horiz-adv-x="1017" d="M-436 -233q0 29 21 49t53 20q25 0 50.5 -17t47 -37t68.5 -37t110 -17q185 0 377 100q34 722 31 973q-1 94 -10 127t-31 33q-38 0 -100.5 -79t-145.5 -255q142 424 305 424q33 0 55.5 -17t34 -50.5t16.5 -69.5t7 -87q4 -235 -25 -901h18q205 150 336 373.5t131 445.5 q0 53 -14 93t-31 58t-31 40t-14 43q0 31 23 51.5t57 20.5q94 0 94 -158q0 -289 -165 -576.5t-429 -459.5q-136 -92 -293 -142.5t-317 -50.5q-229 0 -229 103zM543 1159l276 473h164z" />
<glyph unicode="&#xfe;" horiz-adv-x="1126" d="M-72 -565l494 2050l-158 16l332 154l-287 -1190h17q39 92 76.5 169t87.5 157t100 135t110.5 90t122.5 35q117 0 178.5 -92.5t61.5 -239.5q0 -123 -40.5 -254t-109.5 -240t-172 -179.5t-217 -70.5q-170 0 -295 152l-133 -553l168 -14zM276 279q25 -125 93.5 -199 t160.5 -74q82 -1 157 68t125.5 174.5t80 227.5t29.5 231q0 121 -39 195.5t-117 74.5q-49 0 -98.5 -30.5t-95 -88t-86 -122.5t-80.5 -150.5t-69 -154.5t-61 -152z" />
<glyph unicode="&#xff;" horiz-adv-x="1017" d="M-436 -233q0 29 21 49t53 20q25 0 50.5 -17t47 -37t68.5 -37t110 -17q185 0 377 100q34 722 31 973q-1 94 -10 127t-31 33q-38 0 -100.5 -79t-145.5 -255q142 424 305 424q33 0 55.5 -17t34 -50.5t16.5 -69.5t7 -87q4 -235 -25 -901h18q205 150 336 373.5t131 445.5 q0 53 -14 93t-31 58t-31 40t-14 43q0 31 23 51.5t57 20.5q94 0 94 -158q0 -289 -165 -576.5t-429 -459.5q-136 -92 -293 -142.5t-317 -50.5q-229 0 -229 103zM385 1321l41 186h180l-41 -186h-180zM762 1321l43 186h180l-43 -186h-180z" />
<glyph unicode="&#x152;" horiz-adv-x="2035" d="M131 608q0 142 54.5 278.5t149.5 246t217 193.5t265 129.5t285 45.5h964l-8 -35l-26 -354l-123 350h-625l-158 -653h396l170 235l-121 -509l-58 237h-395l-178 -735h680l330 405l-162 -409l-8 -33h-1018q-137 0 -255 47t-200 128t-129 193t-47 240zM281 569 q0 -230 124 -374t338 -156l70 57l315 1311l-43 53q-164 -4 -313.5 -77.5t-256.5 -194t-170.5 -282.5t-63.5 -337z" />
<glyph unicode="&#x153;" horiz-adv-x="1773" d="M72 375q0 130 47.5 253.5t128 216.5t194 149.5t238.5 56.5t214.5 -72.5t123.5 -194.5q75 122 186.5 194.5t243.5 72.5q151 0 225 -111t43 -295l-2 -12h-653q-27 -106 -27 -195q0 -76 17 -140t51 -114.5t89.5 -79t127.5 -28.5q118 -1 217.5 76t171.5 227 q-78 -199 -192 -302t-254 -102q-144 1 -231.5 79.5t-115.5 207.5q-83 -130 -207.5 -208.5t-269.5 -78.5q-159 0 -262.5 110.5t-103.5 289.5zM213 356q0 -98 24.5 -175t79 -125t132.5 -48q98 0 184 63.5t141.5 163t87 216.5t31.5 229q0 149 -55.5 244.5t-163.5 95.5 q-83 0 -157.5 -41t-129 -109t-94.5 -154.5t-60 -179t-20 -180.5zM1069 662h459q30 0 51 20t27 57q22 114 -27 197.5t-139 83.5q-123 0 -223 -101t-148 -257z" />
<glyph unicode="&#x178;" horiz-adv-x="1398" d="M242 1501h522l-223 -86l252 -715h26l574 711l-209 90h450l-190 -90l-635 -776l-131 -547l190 -88h-553l220 88l135 553l-281 770zM735 1724l43 187h178l-41 -187h-180zM1114 1724l41 187h180l-41 -187h-180z" />
<glyph unicode="&#x2c6;" horiz-adv-x="702" d="M240 1159l372 447l160 -447l-199 271z" />
<glyph unicode="&#x2dc;" horiz-adv-x="804" d="M266 1270q155 233 271 233q29 0 112.5 -34.5t122.5 -34.5q50 0 106.5 40t98.5 107q-52 -118 -119.5 -187t-136.5 -69q-33 0 -120.5 36t-125.5 36q-44 0 -99 -34t-110 -93z" />
<glyph unicode="&#x2000;" horiz-adv-x="1001" vert-adv-y="0" />
<glyph unicode="&#x2001;" horiz-adv-x="2003" vert-adv-y="0" />
<glyph unicode="&#x2002;" horiz-adv-x="1001" vert-adv-y="0" />
<glyph unicode="&#x2003;" horiz-adv-x="2003" vert-adv-y="0" />
<glyph unicode="&#x2004;" horiz-adv-x="667" vert-adv-y="0" />
<glyph unicode="&#x2005;" horiz-adv-x="500" vert-adv-y="0" />
<glyph unicode="&#x2006;" horiz-adv-x="333" vert-adv-y="0" />
<glyph unicode="&#x2007;" horiz-adv-x="333" vert-adv-y="0" />
<glyph unicode="&#x2008;" horiz-adv-x="250" vert-adv-y="0" />
<glyph unicode="&#x2009;" horiz-adv-x="400" vert-adv-y="0" />
<glyph unicode="&#x200a;" horiz-adv-x="111" vert-adv-y="0" />
<glyph unicode="&#x2010;" horiz-adv-x="761" d="M145 530l23 91h477l-20 -91h-480z" />
<glyph unicode="&#x2011;" horiz-adv-x="761" d="M145 530l23 91h477l-20 -91h-480z" />
<glyph unicode="&#x2012;" horiz-adv-x="761" d="M145 530l23 91h477l-20 -91h-480z" />
<glyph unicode="&#x2013;" horiz-adv-x="1148" d="M164 608l12 47h864l-12 -47h-864z" />
<glyph unicode="&#x2014;" horiz-adv-x="3706" d="M164 608l12 47h3422l-12 -47h-3422z" />
<glyph unicode="&#x2018;" horiz-adv-x="344" d="M170 993l45 209l193 367h124l-296 -367h176l-47 -209h-195z" />
<glyph unicode="&#x2019;" horiz-adv-x="344" d="M180 989l295 367h-174l45 207h197l-45 -207l-195 -367h-123z" />
<glyph unicode="&#x201a;" horiz-adv-x="407" d="M-139 -373l297 367h-176l47 209h194l-45 -209l-192 -367h-125z" />
<glyph unicode="&#x201c;" horiz-adv-x="628" d="M170 993l45 209l193 367h124l-296 -367h176l-47 -209h-195zM455 993l45 209l194 367h123l-295 -367h174l-45 -209h-196z" />
<glyph unicode="&#x201d;" horiz-adv-x="628" d="M178 987l297 367h-176l45 207h197l-45 -207l-193 -367h-125zM465 987l295 367h-174l45 207h196l-45 -207l-194 -367h-123z" />
<glyph unicode="&#x201e;" horiz-adv-x="692" d="M-139 -373l297 367h-176l47 209h194l-45 -209l-192 -367h-125zM147 -373l295 367h-174l45 209h197l-45 -209l-195 -367h-123z" />
<glyph unicode="&#x2022;" horiz-adv-x="477" d="M98 455l60 278h262l-62 -278h-260z" />
<glyph unicode="&#x2026;" horiz-adv-x="1161" d="M-16 -14l47 215h200l-47 -215h-200zM356 -14l45 215h203l-47 -215h-201zM727 -14l47 215h203l-49 -215h-201z" />
<glyph unicode="&#x202f;" horiz-adv-x="400" vert-adv-y="0" />
<glyph unicode="&#x2039;" horiz-adv-x="446" d="M51 547l453 381l-285 -381l100 -381z" />
<glyph unicode="&#x203a;" horiz-adv-x="446" d="M-39 166l287 381l-105 381l271 -381z" />
<glyph unicode="&#x205f;" horiz-adv-x="500" vert-adv-y="0" />
<glyph unicode="&#x20ac;" horiz-adv-x="1552" d="M106 700l9 37h184q7 44 25 105h-185l8 37h189q66 180 195.5 327t305.5 234.5t361 87.5q247 0 420 -103l-8 -32l-21 -322q-65 414 -407 414q-118 0 -229 -47.5t-199 -130.5t-156 -192.5t-109 -235.5h971l-8 -37h-973q-10 -35 -26 -105h974l-8 -37h-973q-12 -82 -12 -168 q0 -234 114 -375t314 -141q160 0 325.5 120.5t287.5 324.5l-146 -371l-6 -35q-196 -80 -471 -80q-164 0 -294 80.5t-201.5 220t-71.5 312.5q0 63 8 112h-187z" />
<glyph unicode="&#x2122;" horiz-adv-x="1380" d="M217 1315l59 160l5 20h481l-4 -20l-15 -160l-69 158h-119l-104 -443l55 -51h-227l94 51l104 443h-110zM705 979l94 51l98 422l-68 43h164l113 -410h12l281 410h164l-84 -51l-99 -414l56 -51h-228l95 51l92 393h-15l-319 -460l-125 460h-14l-95 -393l62 -51h-184z" />
<glyph unicode="&#x25fc;" horiz-adv-x="1054" vert-adv-y="2109" d="M0 0v1055h1055v-1055h-1055z" />
<glyph unicode="&#xfb01;" horiz-adv-x="1204" d="M-506 -287q0 36 24.5 59t55.5 23q27 0 49.5 -18.5t39 -44.5t34 -52t44 -44.5t60.5 -18.5q187 0 279 408l219 911l-168 25l205 129l37 151q46 196 211.5 320.5t378.5 124.5q134 0 212.5 -48t61.5 -118q-4 -26 -25.5 -43t-46.5 -17q-33 0 -56.5 19.5t-38.5 47t-32 55.5 t-47 47.5t-73 19.5q-140 0 -253 -108.5t-161 -309.5l-49 -201h497l162 68l-231 -948q-22 -87 26 -87q22 0 49 20t62.5 65.5t81 132t94.5 206.5q-89 -280 -170 -396t-172 -116q-68 0 -96 46t-8 131l194 796h-508l-209 -870q-62 -259 -184.5 -379.5t-310.5 -120.5 q-99 0 -168.5 38.5t-69.5 96.5z" />
<glyph unicode="&#xfb02;" horiz-adv-x="1273" d="M-506 -287q0 36 24.5 59t55.5 23q27 0 49.5 -18.5t39 -44.5t34 -52t44 -44.5t60.5 -18.5q186 0 281 406l217 913l-176 25l213 129l37 151q46 196 211.5 320.5t378.5 124.5q75 0 147 -22.5t113 -59.5l96 51l-365 -1503q-19 -89 25 -89q22 0 49 20t62.5 65.5t81.5 132 t96 206.5q-89 -279 -171 -395.5t-173 -116.5q-70 0 -96.5 46.5t-6.5 130.5l320 1329q-19 74 -80 121t-143 47q-140 0 -253 -109t-161 -309l-47 -201h323l-20 -82h-324l-209 -872q-62 -258 -184.5 -378t-310.5 -120q-99 0 -168.5 38.5t-69.5 96.5z" />
<glyph unicode="&#xfb03;" horiz-adv-x="1837" d="M-506 -287q0 36 24.5 59t55.5 23q27 0 49.5 -18.5t39 -44.5t34 -52t44 -44.5t60.5 -18.5q187 0 281 410l219 905l-168 10l203 137l26 107q46 197 211.5 321.5t378.5 124.5q76 0 146.5 -22.5t107.5 -57.5q169 134 391 134q137 0 216 -49t57 -124q-8 -23 -27.5 -38 t-44.5 -15q-33 0 -56.5 19.5t-38.5 47t-31.5 55.5t-46.5 47.5t-73 19.5q-141 0 -254 -109t-161 -309l-54 -221h496l160 67l-223 -927q-21 -87 26 -87q22 0 49 20t62.5 65.5t81 132t94.5 206.5q-88 -279 -169 -395.5t-173 -116.5q-69 0 -96.5 46t-6.5 131l189 786h-506 l-207 -860q-62 -260 -183.5 -380t-309.5 -120q-101 0 -170.5 38.5t-69.5 96.5q0 37 24.5 59.5t57.5 22.5q27 0 49 -18.5t38.5 -44.5t34 -52t44 -44.5t59.5 -18.5q185 0 281 408l219 913h-498l-207 -858q-63 -261 -186 -381.5t-311 -120.5q-99 0 -168.5 38.5t-69.5 96.5z M453 1010h411l103 67l39 164q26 109 98 207q-20 66 -75 106.5t-122 40.5q-140 0 -252.5 -108.5t-160.5 -310.5z" />
</font>
</defs>
</svg>
