<?xml version="1.0" standalone="no"?>
<!DOCTYPE svg PUBLIC "-//W3C//DTD SVG 1.1//EN" "http://www.w3.org/Graphics/SVG/1.1/DTD/svg11.dtd" >
<svg xmlns="http://www.w3.org/2000/svg" xmlns:xlink="http://www.w3.org/1999/xlink" version="1.1">
<metadata></metadata>
<defs>
<font id="pp_eikothin" horiz-adv-x="1601" vert-adv-y="2048" >
<font-face units-per-em="2048" ascent="1802" descent="-246" />
<missing-glyph horiz-adv-x="462" />
<glyph horiz-adv-x="0" vert-adv-y="0" />
<glyph horiz-adv-x="682" />
<glyph unicode="&#xd;" horiz-adv-x="1228" />
<glyph unicode=" "  horiz-adv-x="462" />
<glyph unicode="&#x09;" horiz-adv-x="462" />
<glyph unicode="&#xa0;" horiz-adv-x="462" />
<glyph unicode="!" horiz-adv-x="434" d="M133 -16v190h168v-190h-168zM162 1520h110l-34 -869q-13 -303 -21 -409q-5 72 -20 409z" />
<glyph unicode="&#x22;" horiz-adv-x="538" d="M90 1597h113l-56 -671zM336 1597h113l-56 -671z" />
<glyph unicode="#" horiz-adv-x="1282" d="M53 518v78h303l121 385h-278v78h303l147 467h45l-147 -467h354l148 467h45l-148 -467h283v-78h-307l-121 -385h282v-78h-307l-162 -518h-45l162 518h-354l-162 -518h-45l162 518h-279zM401 596h355l121 385h-355z" />
<glyph unicode="$" horiz-adv-x="1146" d="M90 446q43 -178 140 -279t229 -136v727q-61 26 -105.5 49t-92 58t-77 73.5t-48.5 93t-19 119.5q0 137 95 237t247 125v117h45v-112q14 2 43 2q39 0 59 -2v112h45v-117q162 -19 303 -88v-32l58 -318q-127 331 -361 393v-680q70 -27 118 -50t103.5 -60t89 -77.5t56 -99.5 t22.5 -130q0 -163 -105 -270t-284 -124v-284h-45v282h-14q-16 0 -88 5v-287h-45v293q-185 23 -328 88v32zM199 1169q0 -110 67 -179t193 -126v611q-116 -22 -188 -106.5t-72 -199.5zM504 20q44 -8 102 -8v688q-71 28 -102 39v-719zM504 846q50 -21 102 -39v670q-35 6 -71 6 q-21 0 -31 -2v-635zM651 14q138 14 222.5 103.5t84.5 228.5q0 66 -23.5 119.5t-69.5 93t-95 67t-119 56.5v-668z" />
<glyph unicode="%" horiz-adv-x="1583" d="M213 1204q0 132 67 224t166 92t165.5 -92t66.5 -224q0 -133 -66.5 -226t-165.5 -93t-166 93t-67 226zM246 0l1011 1495h56l-1012 -1495h-55zM291 1204q0 -129 43.5 -211t111.5 -82q66 0 110 82.5t44 210.5q0 127 -44 208t-110 81q-68 0 -111.5 -81t-43.5 -208zM905 295 q0 131 67.5 223t166.5 92t165 -91.5t66 -223.5q0 -133 -66 -226.5t-165 -93.5t-166.5 93.5t-67.5 226.5zM983 295q0 -128 44 -210.5t112 -82.5q66 0 109.5 82.5t43.5 210.5q0 127 -43.5 208t-109.5 81q-68 0 -112 -81t-44 -208z" />
<glyph unicode="&#x26;" horiz-adv-x="1558" d="M96 317q0 251 449 557q-109 126 -157 210t-48 171q0 114 87.5 189.5t219.5 75.5q125 0 209 -67t84 -167q0 -91 -65 -177t-232 -206l432 -479q108 184 142 440l-185 62h473l-190 -68q-82 -269 -215 -463l358 -395h-133l-281 315q-140 -166 -279.5 -253t-266.5 -87 q-179 0 -290.5 95t-111.5 247zM197 340q0 -131 94.5 -213t245.5 -82q245 0 483 297l-455 508q-368 -276 -368 -510zM436 1276q0 -80 43.5 -158t145.5 -194q128 106 173.5 186t45.5 170t-56.5 150.5t-140.5 60.5q-90 0 -150.5 -61.5t-60.5 -153.5z" />
<glyph unicode="'" horiz-adv-x="292" d="M90 1597h113l-56 -671z" />
<glyph unicode="(" horiz-adv-x="499" d="M106 559q0 259 102.5 545.5t285.5 540.5q-124 -209 -202.5 -511.5t-78.5 -574.5q0 -337 72 -645.5t186 -462.5q-172 197 -268.5 489.5t-96.5 618.5z" />
<glyph unicode=")" horiz-adv-x="499" d="M6 1645q183 -253 285 -539.5t102 -546.5q0 -327 -96 -619t-268 -489q114 154 186 462.5t72 645.5q0 272 -78.5 574.5t-202.5 511.5z" />
<glyph unicode="*" horiz-adv-x="753" d="M20 1204l293 27l-188 225l227 -188l25 293l26 -293l226 188l-189 -227l293 -25l-293 -26l189 -226l-228 189l-24 -293l-27 293l-225 -189l188 228z" />
<glyph unicode="+" horiz-adv-x="1003" d="M74 618v46h405v362h45v-362h406v-46h-406v-364h-45v364h-405z" />
<glyph unicode="," horiz-adv-x="382" d="M-33 -373l291 367h-152v180h170v-180l-206 -367h-103z" />
<glyph unicode="-" horiz-adv-x="782" d="M154 532v86h475v-86h-475z" />
<glyph unicode="." horiz-adv-x="380" d="M106 -16v190h168v-190h-168z" />
<glyph unicode="/" horiz-adv-x="688" d="M6 -246l629 1805h47l-627 -1805h-49z" />
<glyph unicode="0" horiz-adv-x="1185" d="M96 750q0 209 66.5 386t181 280.5t250.5 103.5q135 0 249 -103.5t180.5 -280.5t66.5 -386q0 -210 -66.5 -388.5t-180.5 -282.5t-249 -104q-136 0 -250.5 104t-181 282.5t-66.5 388.5zM205 750q0 -212 49 -379.5t138 -262t202 -94.5t201.5 94.5t137 262t48.5 379.5 q0 211 -48.5 377.5t-137 260t-201.5 93.5t-202 -93.5t-138 -260t-49 -377.5z" />
<glyph unicode="1" horiz-adv-x="743" d="M63 1372l383 148v-1438l244 -82h-606l264 82v1290h-285z" />
<glyph unicode="2" horiz-adv-x="1001" d="M47 0q168 180 289 323t231 298q101 141 150 260t49 258q0 142 -78.5 232.5t-230.5 90.5q-85 0 -168 -49q-33 -19 -56.5 -53.5t-35.5 -68.5t-23 -66t-27.5 -52t-40.5 -20t-39.5 17t-15.5 44q0 56 88.5 130t201 125t183.5 51q152 0 248 -97t96 -256q0 -123 -60.5 -260.5 t-195.5 -310.5q-145 -187 -436 -506h772v-90h-901z" />
<glyph unicode="3" horiz-adv-x="1130" d="M74 287q0 26 15 42.5t38 16.5q31 0 50.5 -31t28.5 -71.5t34.5 -87t66.5 -70.5q84 -51 221 -51q177 0 290.5 106.5t113.5 274.5q0 149 -111.5 249.5t-277.5 100.5q-65 0 -178 -25q136 81 217 137.5t137 114t77 110.5t21 120q0 103 -73 173t-181 70q-82 0 -168 -51 q-33 -19 -56.5 -53t-35 -68t-22.5 -66t-26.5 -51.5t-39.5 -19.5q-23 0 -38 17t-15 43q0 55 84.5 128.5t194.5 124t180 50.5q127 0 210.5 -81.5t83.5 -197.5q0 -64 -27.5 -121.5t-84.5 -112t-126.5 -102t-170.5 -104.5q59 16 121 16q169 0 288 -115t119 -286 q0 -194 -128.5 -317.5t-332.5 -123.5q-89 0 -208 52t-205 127t-86 133z" />
<glyph unicode="4" horiz-adv-x="1216" d="M70 477l809 1043v-961h258v-82h-258v-395l243 -82h-604l264 82v395h-712zM176 559h606v768z" />
<glyph unicode="5" horiz-adv-x="1161" d="M80 285q0 28 15 45.5t40 17.5q29 0 48.5 -31t29 -71.5t36 -88t66.5 -73.5q77 -49 193 -49q199 0 324.5 126t125.5 326q2 173 -107 283.5t-282 110.5q-192 0 -383 -140l82 754h729v-90h-698l-70 -602q198 149 375 149q202 0 329.5 -129.5t127.5 -333.5q0 -227 -138 -370.5 t-358 -143.5q-77 0 -192.5 50.5t-204 125.5t-88.5 134z" />
<glyph unicode="6" horiz-adv-x="1189" d="M117 559q0 169 71.5 328t205 292.5t335.5 237t451 160.5q-448 -135 -701.5 -406t-253.5 -614q0 -240 118 -392.5t298 -152.5q156 0 253 119t97 305q0 183 -107.5 298.5t-279.5 115.5q-126 0 -266 -80q174 137 319 137q193 0 315 -128.5t122 -332.5q0 -209 -131.5 -340 t-335.5 -131q-107 0 -201 42.5t-162 118.5t-107.5 185.5t-39.5 237.5z" />
<glyph unicode="7" horiz-adv-x="1028" d="M37 1405v90h954l-715 -1495h-118l757 1405h-878z" />
<glyph unicode="8" horiz-adv-x="1132" vert-adv-y="2031" d="M96 346q0 240 385 428q-73 42 -123 77t-99 83.5t-74 106.5t-25 126q0 143 120 248t298 105q179 0 299 -99t120 -247q0 -118 -97 -217.5t-263 -174.5q54 -28 85 -44.5t79.5 -46t76.5 -52t62 -56.5t52 -66.5t31 -74.5t13 -88q0 -162 -131 -270.5t-327 -108.5 q-136 0 -246.5 48.5t-173 133.5t-62.5 189zM199 346q0 -143 109.5 -238.5t273.5 -95.5q154 0 252 91.5t98 236.5q0 54 -23 103.5t-50.5 83.5t-87.5 76.5t-96 63.5t-113 63l-27 15l-27 15q-309 -156 -309 -414zM262 1186q0 -117 78 -202t272 -187q122 60 202.5 156.5 t80.5 222.5q0 131 -91.5 219t-225.5 88q-136 0 -226 -84.5t-90 -212.5z" />
<glyph unicode="9" horiz-adv-x="1159" d="M47 -74q178 47 324 123.5t249.5 172.5t174.5 211.5t105 240.5t34 260q0 239 -119 394t-287 155t-265 -117t-97 -301q0 -182 110.5 -299t278.5 -117q126 0 266 80q-174 -137 -319 -137q-189 0 -311.5 129.5t-122.5 331.5q0 208 128 337.5t334 129.5q106 0 200 -43 t163 -118.5t109 -186.5t40 -240q0 -134 -35.5 -260t-113.5 -245t-192.5 -215.5t-281.5 -171.5t-372 -114z" />
<glyph unicode=":" horiz-adv-x="380" d="M106 -16v190h168v-190h-168zM106 788v191h168v-191h-168z" />
<glyph unicode=";" horiz-adv-x="382" d="M-33 -373l291 367h-152v180h170v-180l-206 -367h-103zM104 788v191h168v-191h-168z" />
<glyph unicode="&#x3c;" horiz-adv-x="987" d="M53 524l727 398h92l-725 -398l734 -405h-93z" />
<glyph unicode="=" horiz-adv-x="1028" d="M86 436v45h856v-45h-856zM86 793v45h856v-45h-856z" />
<glyph unicode="&#x3e;" horiz-adv-x="987" d="M106 119l734 405l-725 398h92l727 -398l-735 -405h-93z" />
<glyph unicode="?" horiz-adv-x="782" d="M-37 1397q0 55 71.5 89t190.5 34q141 0 265 -56t198 -153t74 -209q0 -116 -61 -200.5t-132 -119.5l-204 -102q-37 -19 -49.5 -39.5t-12.5 -60.5v-213q-27 64 -52.5 149.5t-25.5 116.5q0 78 117 135l195 96q27 14 47.5 25.5t49.5 34.5t48 46.5t33 59t14 74.5q0 94 -64 174 t-168 125t-221 45q-55 0 -97.5 -16.5t-63.5 -36t-46.5 -36t-50.5 -16.5q-24 0 -39.5 15.5t-15.5 38.5zM215 -16v190h168v-190h-168z" />
<glyph unicode="@" horiz-adv-x="1685" d="M113 596q0 174 60.5 326.5t167.5 263t260.5 174t332.5 63.5q182 0 331 -74.5t235 -206.5t89 -296q3 -181 -86 -326t-246 -211l-182 -76v201q-83 -94 -158 -147.5t-157 -53.5q-78 0 -131.5 41.5t-53.5 120.5q0 35 18.5 68t55.5 62.5t76.5 54t99 51t104 44t109.5 42.5 q8 3 12.5 4.5t11.5 4.5t13 5v76q0 78 -55 134t-137 56q-62 0 -127 -39q-22 -13 -38 -45.5t-23.5 -62.5t-25.5 -54t-46 -24q-20 0 -31.5 12t-11.5 31q0 42 65.5 97.5t148 93t132.5 36.5q96 0 158.5 -62.5t62.5 -166.5v-500h55q139 71 222 213t79 320q-4 150 -79.5 273 t-204.5 193t-285 70q-151 0 -285.5 -58t-231.5 -159t-153.5 -245t-56.5 -308q0 -214 94 -381t263 -258.5t386 -91.5q192 0 351.5 69t257.5 191q-100 -160 -269 -248t-366 -88q-237 0 -421.5 99.5t-287 279.5t-102.5 412zM659 399q0 -50 40.5 -81t95.5 -31q68 0 133 46.5 t147 133.5v240q-65 -26 -108 -44t-96.5 -43t-87 -48t-64.5 -50.5t-45.5 -58.5t-14.5 -64z" />
<glyph unicode="A" horiz-adv-x="1660" d="M27 0l190 82l551 1309l-82 104l143 25l607 -1436l198 -84h-536l231 80l-196 461h-676l-189 -459l242 -82h-483zM471 578h647l-317 749h-21z" />
<glyph unicode="B" horiz-adv-x="1372" d="M53 0l203 88v1319l-203 88h731q189 0 324 -102t135 -246q0 -124 -94.5 -217.5t-243.5 -126.5v-21q170 -37 277 -141q108 -105 108 -245q0 -114 -72 -205q-72 -92 -195 -141.5t-273 -49.5h-697zM354 37h391q200 0 317.5 97t117.5 267t-119 270.5t-316 100.5h-391v-735z M354 807h414q164 0 266.5 94.5t102.5 245.5q0 138 -98.5 224.5t-260.5 86.5h-424v-651z" />
<glyph unicode="C" horiz-adv-x="1421" d="M86 760q0 154 59 295t157.5 242.5t233 162t279.5 60.5h16q254 0 449 -95v-32l55 -293q-79 192 -207 286q-126 93 -309 93h-4q-181 0 -321 -92.5t-216.5 -256t-76.5 -370.5q0 -216 77 -384.5t220.5 -264t330.5 -95.5h7q184 0 310 100q128 102 216 324l-68 -338v-32 q-195 -95 -449 -95h-16q-148 0 -285 62.5t-237.5 167.5t-160.5 250.5t-60 304.5z" />
<glyph unicode="D" horiz-adv-x="1521" d="M53 0l203 88v1319l-203 88h572q169 0 320 -58.5t258.5 -157.5t170 -234.5t62.5 -284.5q0 -154 -62.5 -294.5t-170 -242.5t-258.5 -162.5t-320 -60.5h-572zM354 37h262q204 0 364.5 92t250.5 257t90 374q0 202 -90 361.5t-250 248t-363 88.5h-264v-1421z" />
<glyph unicode="E" horiz-adv-x="1355" d="M53 0l203 88v1319l-203 88h1092v-33l61 -336l-188 332h-664v-649h432l101 223v-485l-101 225h-432v-735h740l192 385l-65 -389v-33h-1168z" />
<glyph unicode="F" horiz-adv-x="1320" d="M53 0l203 82v1325l-203 88h1153v-33l62 -342l-193 338h-721v-649h451l106 223v-485l-106 225h-451v-690l244 -82h-545z" />
<glyph unicode="G" horiz-adv-x="1626" d="M86 760q0 154 59 294.5t159 242.5t238 162.5t289 60.5h15q245 0 440 -95v-32l55 -293q-79 192 -206 286q-126 93 -308 93h-4q-184 0 -326.5 -93t-219 -256t-76.5 -370q0 -216 76.5 -384.5t219 -264t328.5 -95.5q156 0 289 72.5t197 204.5v424h-379v37h674l-203 -88v-707 l-72 213q-97 -94 -233 -145.5t-273 -51.5q-146 0 -282.5 62.5t-236.5 167.5t-160 250.5t-60 304.5z" />
<glyph unicode="H" horiz-adv-x="1574" d="M53 0l203 82v1331l-203 82h545l-244 -82v-577h867v577l-244 82h545l-203 -82v-1331l203 -82h-545l244 82v717h-867v-717l244 -82h-545z" />
<glyph unicode="I" horiz-adv-x="610" d="M53 0l203 82v1331l-203 82h504l-203 -82v-1331l203 -82h-504z" />
<glyph unicode="J" horiz-adv-x="593" d="M-313 -281q0 27 15.5 43.5t41.5 16.5q20 0 43 -16.5t46 -40t49 -47t60.5 -40t71.5 -16.5q127 0 181.5 100.5t54.5 307.5v1386l-203 82h504l-203 -82v-1419q0 -189 -106.5 -300.5t-286.5 -111.5q-112 0 -190 40.5t-78 96.5z" />
<glyph unicode="K" horiz-adv-x="1505" d="M53 0l203 82v1335l-203 78h545l-244 -78v-577h84l797 655h149l-915 -661l1026 -834h-158l-983 815v-733l203 -82h-504z" />
<glyph unicode="L" horiz-adv-x="1325" d="M53 0l203 88v1325l-203 82h545l-244 -82v-1372h713l195 416l-62 -424v-33h-1147z" />
<glyph unicode="M" horiz-adv-x="1966" d="M47 0l203 82v1329l-187 84h285l643 -1352h23l598 1352h301l-203 -82v-1331l203 -82h-504l203 82v1259h-21l-620 -1386l-656 1386h-16v-1259l203 -82h-455z" />
<glyph unicode="N" horiz-adv-x="1652" d="M47 0l203 84v1278l-146 133l144 25l1085 -1317h25v1208l-203 84h455l-203 -84v-1456l-1090 1325h-18v-1196l203 -84h-455z" />
<glyph unicode="O" d="M86 760q0 153 59 294.5t156 243t228.5 162t271.5 60.5t271.5 -60.5t228.5 -162t156 -243t59 -294.5q0 -158 -59.5 -304t-157.5 -251t-229 -167.5t-269 -62.5t-269 62.5t-229 167.5t-157.5 251t-59.5 304zM199 760q0 -215 76 -384.5t213.5 -264.5t312.5 -95t312.5 95 t213.5 264.5t76 384.5q0 206 -76 370t-214 256.5t-312 92.5t-312 -92.5t-214 -256.5t-76 -370z" />
<glyph unicode="P" horiz-adv-x="1323" d="M53 0l203 82v1325l-203 88h697q134 0 248 -53t180.5 -144.5t66.5 -199.5q0 -111 -66.5 -205.5t-180.5 -149.5t-248 -55h-396v-606l244 -82h-545zM354 725h379q178 0 291 104.5t113 268.5q0 160 -112.5 260t-291.5 100h-379v-733z" />
<glyph unicode="Q" d="M86 760q0 153 59 294.5t156 243t228.5 162t271.5 60.5t271.5 -60.5t228.5 -162t156 -243t59 -294.5q0 -158 -59.5 -304t-157.5 -251t-229 -167.5t-269 -62.5q-35 0 -51 2v-22l804 -324l-151 -71l-885 481q-189 102 -310.5 295.5t-121.5 423.5zM199 760q0 -215 76 -384.5 t213.5 -264.5t312.5 -95t312.5 95t213.5 264.5t76 384.5q0 206 -76 370t-214 256.5t-312 92.5t-312 -92.5t-214 -256.5t-76 -370z" />
<glyph unicode="R" horiz-adv-x="1435" d="M53 0l203 82v1325l-203 88h590q219 0 364.5 -106t145.5 -261q0 -143 -113.5 -249.5t-298.5 -130.5v-27l689 -721h-142l-682 741h-252v-659l203 -82h-504zM354 776h279q196 0 305 97.5t109 254.5q0 152 -111.5 241t-312.5 89h-269v-682z" />
<glyph unicode="S" horiz-adv-x="1146" d="M90 446q29 -117 82.5 -203t123.5 -135.5t147 -72.5t163 -23q156 0 254 91.5t98 242.5q0 72 -29 129.5t-77.5 96.5t-111.5 70.5t-133 58t-139.5 53.5t-132.5 62.5t-111.5 79t-77.5 108.5t-29 147q0 158 123 263.5t307 105.5q212 0 407 -95v-32l58 -318q-155 408 -477 408 q-144 0 -240 -90t-96 -224q0 -69 29 -124t77.5 -92t111.5 -68t133 -57.5t139.5 -54t132.5 -63.5t111.5 -80.5t77.5 -110.5t29 -148q0 -176 -122 -286t-326 -110q-120 0 -250 30.5t-211 68.5v32z" />
<glyph unicode="T" horiz-adv-x="1470" d="M63 1100l66 362v33h1212v-33l66 -362l-201 358h-422v-1376l244 -82h-586l244 82v1376h-422z" />
<glyph unicode="U" horiz-adv-x="1525" d="M27 1495h499l-202 -88l4 -928q0 -186 136 -311t339 -125q190 0 317 122.5t127 305.5v936l-203 88h455l-203 -88v-940q0 -138 -66.5 -251t-182.5 -177t-259 -64q-156 0 -284.5 61t-201.5 168.5t-73 239.5v963z" />
<glyph unicode="V" horiz-adv-x="1552" d="M29 1495h536l-237 -80l493 -1245h23l442 1245l-244 80h484l-189 -80l-532 -1460l-586 1462z" />
<glyph unicode="W" horiz-adv-x="2291" d="M29 1495h536l-233 -78l493 -1247h23l287 807l-177 442l-196 76h551l-246 -76l494 -1249h22l442 1245l-245 80h485l-188 -80l-533 -1460l-385 960l-350 -960l-584 1460z" />
<glyph unicode="X" horiz-adv-x="1511" d="M20 0l187 78l498 674l-478 671l-180 72h571l-266 -80l408 -573h28l408 575l-283 78h525l-189 -78l-452 -626l508 -715l188 -76h-565l256 78l-443 622h-28l-451 -622l279 -78h-521z" />
<glyph unicode="Y" horiz-adv-x="1474" d="M31 1495h542l-239 -80l438 -727h23l419 727l-253 80h487l-184 -78l-461 -790v-545l244 -82h-586l244 82v545l-484 792z" />
<glyph unicode="Z" horiz-adv-x="1228" d="M63 0l932 1458h-723l-196 -338l65 342v33h989l-931 -1458h794l183 399l-50 -403v-33h-1063z" />
<glyph unicode="[" horiz-adv-x="671" d="M207 -475v2046h459v-33h-369v-1980h369v-33h-459z" />
<glyph unicode="\" horiz-adv-x="688" d="M6 1559h47l629 -1805h-49z" />
<glyph unicode="]" horiz-adv-x="671" d="M6 -442h369v1980h-369v33h459v-2046h-459v33z" />
<glyph unicode="^" horiz-adv-x="847" d="M106 829l318 578l317 -578h-49l-268 488l-268 -488h-50z" />
<glyph unicode="_" horiz-adv-x="1265" d="M154 -25h958v-47h-958v47z" />
<glyph unicode="`" horiz-adv-x="819" d="M207 1626h119l178 -471z" />
<glyph unicode="a" horiz-adv-x="1036" d="M82 745q0 58 85.5 130t194 119.5t177.5 47.5q122 0 206 -83.5t84 -219.5v-651h179l-265 -113v275q-53 -61 -96.5 -104t-98.5 -85t-112.5 -64t-116.5 -22q-97 0 -166 55.5t-69 159.5q0 47 27 92.5t73 83.5t108 74t132.5 67t145 60t145.5 56q7 2 10 3.5t8.5 3t9.5 3.5v98 q0 109 -74 184.5t-188 75.5q-81 0 -162 -47q-40 -23 -66.5 -69.5t-36.5 -87t-30 -72t-49 -31.5q-24 0 -39.5 17t-15.5 44zM178 195q0 -76 54.5 -119t132.5 -43q92 0 181 66.5t197 187.5v319q-76 -30 -125 -50t-114.5 -49.5t-107 -53.5t-87.5 -56t-71.5 -61.5t-42.5 -66 t-17 -74.5z" />
<glyph unicode="b" horiz-adv-x="1140" d="M-6 1495l260 147v-761q72 46 125.5 76t128 57.5t131.5 27.5q197 0 317.5 -145t120.5 -377q0 -236 -131 -390.5t-342 -154.5q-95 0 -190.5 37t-165.5 101l-82 -138v1520h-172zM254 233q50 -105 144.5 -167t209.5 -62q160 0 265.5 140.5t105.5 357.5t-110 353t-285 136 q-108 0 -330 -139v-619z" />
<glyph unicode="c" horiz-adv-x="966" d="M74 500q0 238 132 390t335 152q136 0 233.5 -60t97.5 -132q0 -25 -13.5 -41t-33.5 -16q-27 0 -48.5 23t-39.5 55.5t-40.5 64.5t-62 55t-93.5 23q-164 0 -268.5 -138t-104.5 -354q0 -214 106 -345.5t283 -131.5q130 0 225 76t142 221q-43 -178 -142.5 -272.5t-242.5 -94.5 q-208 0 -336.5 143t-128.5 382z" />
<glyph unicode="d" horiz-adv-x="1183" d="M63 500q0 240 131 391t343 151q95 0 189.5 -40.5t158.5 -106.5v600h-172l260 147v-1554h176l-264 -113v162q-73 -46 -125.5 -76t-127.5 -58t-132 -28q-196 0 -316.5 146t-120.5 379zM160 518q0 -218 110 -354.5t287 -136.5q109 0 328 141v508q-20 151 -117 244.5 t-231 93.5q-167 0 -272 -138.5t-105 -357.5z" />
<glyph unicode="e" horiz-adv-x="976" d="M74 500q0 238 130 390t328 152q166 0 268.5 -107t102.5 -282v-12h-725q-10 -62 -10 -119q0 -214 106 -345.5t283 -131.5q130 0 225 76t142 221q-43 -178 -142.5 -272.5t-242.5 -94.5q-208 0 -336.5 143t-128.5 382zM182 672h551q64 0 64 63q0 104 -77.5 191.5 t-187.5 87.5q-128 0 -222 -93.5t-128 -248.5z" />
<glyph unicode="f" horiz-adv-x="651" d="M53 0l172 68v870h-172l172 139v164q0 193 132 315.5t339 122.5q120 0 200.5 -40.5t80.5 -98.5q0 -25 -15 -42t-38 -17q-22 0 -44.5 17t-44 41t-46 48t-60 41t-76.5 17q-148 0 -244 -108.5t-96 -305.5v-227h336v-66h-336v-870l203 -68h-463z" />
<glyph unicode="g" horiz-adv-x="1042" d="M0 -266q0 84 63 150t166 96v18q-61 19 -96 60.5t-35 97.5q0 50 42.5 110t115.5 117q-135 112 -135 279q0 157 112.5 268.5t270.5 111.5q58 0 127.5 -19t136.5 -19h236v-66h-238q117 -114 117 -276q0 -152 -111 -259.5t-268 -107.5q-127 0 -228 72q-46 -34 -74 -80.5 t-28 -89.5q0 -58 43 -94.5t111 -36.5h438q117 0 189.5 -55t72.5 -146q0 -71 -37.5 -141t-98 -124.5t-134.5 -97t-151.5 -65.5t-143.5 -23q-192 0 -327.5 92.5t-135.5 227.5zM94 -240q0 -127 124 -214q121 -83 298 -83h12q105 2 203.5 50.5t161.5 130.5t63 172 q0 75 -49 121.5t-135 46.5h-410q-120 0 -194 -63t-74 -161zM217 662q0 -149 80 -243.5t207 -94.5q124 0 202 94.5t78 243.5q0 157 -77.5 254.5t-202.5 97.5q-128 0 -207.5 -97.5t-79.5 -254.5z" />
<glyph unicode="h" horiz-adv-x="1187" d="M43 0l172 68v1427h-172l260 147v-759q260 159 391 159q122 0 204.5 -83.5t82.5 -219.5v-671l172 -68h-442l182 68v663q0 109 -73.5 185.5t-182.5 76.5q-112 0 -334 -139v-786l203 -68h-463z" />
<glyph unicode="i" horiz-adv-x="534" d="M53 903l262 139v-974l183 -68h-443l172 68v835h-174zM170 1333v187h164v-187h-164z" />
<glyph unicode="j" horiz-adv-x="450" d="M-100 -541q146 41 219.5 156.5t73.5 325.5v962h-173l261 139v-1148q0 -183 -97.5 -294.5t-283.5 -140.5zM143 1333v187h164v-187h-164z" />
<glyph unicode="k" horiz-adv-x="1142" d="M43 0l172 68v1427h-172l262 147v-1054h86l518 436h135l-624 -446l717 -578h-144l-688 573v-505l172 -68h-434z" />
<glyph unicode="l" horiz-adv-x="512" d="M43 0l172 68v1427h-172l262 147v-1574l172 -68h-434z" />
<glyph unicode="m" horiz-adv-x="1787" d="M53 0l172 68v835h-172l260 139v-133q224 133 349 133q82 0 149 -39.5t104 -111.5q249 151 379 151q122 0 204.5 -83.5t82.5 -219.5v-671l172 -68h-442l182 68v663q0 109 -73.5 185.5t-182.5 76.5q-105 0 -311 -125q22 -61 22 -129v-671l182 -68h-452l182 68v663 q0 109 -73.5 185.5t-182.5 76.5q-97 0 -291 -112v-813l183 -68h-443z" />
<glyph unicode="n" horiz-adv-x="1198" d="M53 0l172 68v835h-172l260 139v-163q73 45 127.5 74.5t132 59t132.5 29.5q122 0 204 -83.5t82 -219.5v-671l172 -68h-442l182 68v663q0 109 -73.5 185.5t-182.5 76.5q-106 0 -334 -143v-782l183 -68h-443z" />
<glyph unicode="o" horiz-adv-x="1128" d="M74 518q0 106 40 203.5t107 167.5t157 111.5t187 41.5q128 0 241 -70t181 -191.5t68 -262.5q0 -146 -68 -272t-181 -198.5t-241 -72.5q-97 0 -187 43t-157 116t-107 173.5t-40 210.5zM178 518q0 -222 108.5 -366t278.5 -144q165 0 275 142t110 368q0 216 -108 355 t-277 139q-166 0 -276.5 -137.5t-110.5 -356.5z" />
<glyph unicode="p" horiz-adv-x="1171" d="M27 -500l172 68v1327h-172l260 147v-165q76 49 126 77.5t126 58t133 29.5q196 0 316 -145.5t120 -376.5q0 -155 -58 -278.5t-166 -195t-247 -71.5q-94 0 -187 35.5t-163 98.5v-541l202 -68h-462zM287 233q50 -105 144.5 -167t209.5 -62q160 0 265.5 140.5t105.5 357.5 t-110.5 353t-285.5 136q-44 0 -104.5 -24t-105.5 -49.5t-119 -71.5v-613z" />
<glyph unicode="q" horiz-adv-x="1134" d="M63 500q0 240 131 391t343 151q96 0 191 -41t159 -108l86 158v-1483l172 -68h-463l203 68v573q-78 -50 -126.5 -78t-125 -58t-133.5 -30q-196 0 -316.5 146t-120.5 379zM160 518q0 -218 110 -354.5t287 -136.5q62 0 142 38.5t186 106.5v504q-20 151 -117 244.5t-231 93.5 q-167 0 -272 -138.5t-105 -357.5z" />
<glyph unicode="r" horiz-adv-x="782" d="M53 0l172 68v835h-172l260 139v-192q168 192 316 192q57 0 92 -25t35 -65q0 -27 -16.5 -44t-43.5 -17q-36 0 -81 37t-83 37q-30 0 -61 -14t-63 -43.5t-48 -46.5t-47 -52v-741l203 -68h-463z" />
<glyph unicode="s" horiz-adv-x="874" d="M78 381q25 -83 58.5 -147t82 -117.5t118 -82t155.5 -28.5q100 0 165.5 65t65.5 167q0 61 -33 106t-85.5 72t-116 49.5t-127 47t-116 56.5t-85.5 86t-33 127q0 110 90.5 185t231.5 75q71 0 152 -19.5t132 -49.5v-33l41 -258q-24 69 -55.5 126t-73.5 104.5t-97.5 74.5 t-119.5 27q-103 0 -168 -58t-65 -149q0 -62 33 -107t85.5 -72t116.5 -49.5t128 -47.5t116.5 -57.5t85.5 -88t33 -131.5q0 -122 -90.5 -200.5t-243.5 -78.5q-77 0 -167.5 17t-156.5 45v33z" />
<glyph unicode="t" horiz-adv-x="761" d="M27 938l194 139v140l92 61v-274h371v-66h-371v-709q0 -90 51 -139t130 -49q159 0 264 133q-126 -199 -299 -199q-109 0 -175 63q-63 60 -63 167v10l19 723h-213z" />
<glyph unicode="u" horiz-adv-x="1187" d="M47 903l246 139v-755q0 -108 73 -185t179 -77q111 0 336 145v733h-158l246 139v-954h176l-264 -113v166q-76 -49 -126.5 -78t-127.5 -58.5t-135 -29.5q-122 0 -204.5 84t-82.5 220v624h-158z" />
<glyph unicode="v" horiz-adv-x="1183" d="M12 1024h469l-211 -61l361 -832h22l305 825l-213 68h429l-175 -70l-381 -999l-444 1003z" />
<glyph unicode="w" horiz-adv-x="1648" d="M12 1024h434l-178 -61l344 -832h19l194 565l-106 260l-150 68h435l-189 -68l324 -825h14l274 823l-196 70h407l-170 -68l-344 -1001l-280 696l-246 -696l-426 1003z" />
<glyph unicode="x" horiz-adv-x="1177" d="M8 0l205 70l340 426l-346 465l-166 63h459l-191 -61l289 -388h27l280 388l-192 61h413l-178 -68l-319 -421l352 -472l188 -63h-467l177 59l-295 396h-27l-297 -389l195 -66h-447z" />
<glyph unicode="y" horiz-adv-x="1183" d="M12 1024h469l-211 -61l361 -832h22l305 825l-213 68h429l-175 -70l-362 -950l-186 -504h-125l274 498l-426 960z" />
<glyph unicode="z" horiz-adv-x="954" d="M70 0l673 993h-479l-149 -299l32 297v33h717l-671 -993h532l160 319l-41 -317v-33h-774z" />
<glyph unicode="{" horiz-adv-x="794" d="M90 559q140 33 209.5 96t69.5 170q0 18 -28 222.5t-28 244.5q0 125 84.5 214t202.5 89q40 0 76.5 -15.5t111.5 -61.5q-73 28 -131 28q-100 0 -175.5 -77.5t-75.5 -184.5q0 -54 27.5 -248t27.5 -217q0 -50 -12 -89.5t-36 -65.5t-46.5 -43.5t-58 -29t-54 -16t-49.5 -10.5 v-12q31 -6 49.5 -10.5t54 -16t58 -29t46.5 -43.5t36 -65.5t12 -89.5q0 -23 -27.5 -230.5t-27.5 -261.5q0 -106 75 -182t176 -76q55 0 131 29q-76 -46 -111.5 -62t-76.5 -16q-119 0 -203 87.5t-84 211.5q0 40 28 258t28 236q0 107 -69.5 170t-209.5 96z" />
<glyph unicode="|" horiz-adv-x="555" d="M250 -246v1823h55v-1823h-55z" />
<glyph unicode="}" horiz-adv-x="794" d="M6 -422q76 -29 131 -29q101 0 176.5 76t75.5 182q0 54 -27.5 261.5t-27.5 230.5q0 50 12 89.5t36 65.5t46.5 43.5t58 29t54 16t49.5 10.5v12q-31 6 -49.5 10.5t-54 16t-58 29t-46.5 43.5t-36 65.5t-12 89.5q0 23 27.5 217t27.5 248q0 106 -75.5 184t-176.5 78 q-58 0 -131 -28q75 46 112 61.5t77 15.5q118 0 202 -89t84 -214q0 -40 -27.5 -244.5t-27.5 -222.5q0 -107 69.5 -170t209.5 -96q-140 -33 -209.5 -96t-69.5 -170q0 -18 27.5 -236t27.5 -258q0 -124 -83.5 -211.5t-202.5 -87.5q-41 0 -77.5 16t-111.5 62z" />
<glyph unicode="~" horiz-adv-x="1449" d="M127 377q119 178 202 237.5t189 59.5q66 0 227 -58.5t226 -58.5q92 0 167.5 44.5t184.5 176.5q-125 -170 -208 -233.5t-183 -63.5q-66 0 -227 58.5t-226 58.5q-50 0 -83.5 -6t-77 -27t-90 -67t-101.5 -121z" />
<glyph unicode="&#xa1;" horiz-adv-x="434" d="M133 852v190h168v-190h-168zM162 -494l35 869q15 338 20 409q8 -106 21 -409l34 -869h-110z" />
<glyph unicode="&#xa2;" horiz-adv-x="1083" d="M117 700q0 222 114.5 370.5t296.5 168.5v107h45v-103h11q136 0 233.5 -60t97.5 -132q0 -25 -13.5 -41.5t-33.5 -16.5q-27 0 -48.5 23t-39.5 55.5t-40.5 64.5t-62 55t-93.5 23h-11v-968h27q130 0 225 76t142 221q-43 -178 -142.5 -272.5t-242.5 -94.5h-9v-282h-45v284 q-187 19 -299 159t-112 363zM211 723q0 -191 85 -318t232 -153v958q-142 -25 -229.5 -158.5t-87.5 -328.5z" />
<glyph unicode="&#xa3;" horiz-adv-x="1138" d="M100 0v90q129 0 215 77t86 198q0 24 -5.5 52.5t-11.5 50.5t-20.5 59.5t-22.5 55.5t-28.5 64t-27.5 62h-172v65h145q-70 172 -70 309q0 186 133.5 311.5t331.5 125.5q164 0 268.5 -58.5t104.5 -132.5q0 -25 -13.5 -40t-33.5 -15q-25 0 -47.5 21.5t-44 52t-49 61.5 t-75 52.5t-110.5 21.5q-167 0 -267.5 -107.5t-100.5 -273.5q0 -158 69 -328h539v-65h-512q4 -9 22 -53.5t23 -57.5t17.5 -49.5t16.5 -56t8.5 -48t4.5 -53.5q0 -94 -50 -168t-138 -114v-19h790v-90h-975z" />
<glyph unicode="&#xa4;" horiz-adv-x="1142" d="M139 299q0 31 33 59t91.5 61.5t86.5 57.5q-82 85 -82 213q0 126 84 213q-28 24 -87.5 57.5t-92.5 61.5t-33 59q0 19 12.5 32t32.5 13q32 0 60.5 -30.5t65.5 -89t61 -86.5q84 71 200 71q119 0 199 -71q26 29 62 86t64.5 88.5t61.5 31.5q20 0 33 -13t13 -32 q0 -31 -33.5 -59.5t-92.5 -62.5t-87 -58q79 -85 79 -211t-79 -211q28 -24 87 -58t92.5 -62.5t33.5 -59.5q0 -19 -13 -32t-33 -13q-32 0 -60.5 31t-65 89.5t-60.5 86.5q-83 -74 -201 -74t-200 72q-24 -28 -60.5 -85.5t-65.5 -88.5t-61 -31q-20 0 -32.5 13t-12.5 32zM322 690 q0 -109 71 -182.5t178 -73.5q105 0 176.5 74t71.5 182q0 107 -72 180.5t-176 73.5q-107 0 -178 -73t-71 -181z" />
<glyph unicode="&#xa5;" horiz-adv-x="1474" d="M31 1495h557l-248 -78l428 -633h35l405 633l-266 78h506l-193 -80l-438 -674h410v-36h-424v-105h424v-37h-424v-481l244 -82h-586l244 82v481h-424v37h424v105h-424v36h409l-461 674z" />
<glyph unicode="&#xa6;" horiz-adv-x="555" d="M250 -246v821h55v-821h-55zM250 780v797h55v-797h-55z" />
<glyph unicode="&#xa7;" horiz-adv-x="2048" d="M578 322q20 -67 44.5 -119.5t64.5 -103.5t90.5 -84t123.5 -53.5t164 -20.5q149 0 234 60t85 169q0 62 -44 108t-114.5 74t-155.5 51t-170 48t-155.5 56.5t-114.5 84.5t-44 125q0 95 88 164.5t231 93.5v20q-65 21 -111.5 43t-89 53.5t-64.5 75t-22 97.5q0 108 116 182 t304 74q106 0 209.5 -21t161.5 -55v-33l41 -258q-20 57 -43 102.5t-60 91t-81.5 76t-108 49.5t-139.5 19q-141 0 -235.5 -58.5t-94.5 -144.5q0 -63 43 -109t112 -74t152 -51t166 -48.5t152 -57.5t112 -87.5t43 -129.5q0 -92 -79.5 -163.5t-200.5 -96.5v-20q60 -20 104.5 -42 t83.5 -53t59.5 -73.5t20.5 -94.5q0 -123 -114 -200.5t-302 -77.5q-108 0 -220 18.5t-185 48.5v33zM653 741q0 -107 139 -171q67 -30 237 -74q32 -9 48 -13q136 0 229 68t93 164q0 35 -13.5 64t-40 51.5t-57 40.5t-76 34t-83.5 27.5t-92 26.5q-10 3 -15 4q-159 -2 -264 -64 t-105 -158z" />
<glyph unicode="&#xa8;" horiz-adv-x="819" d="M154 1333v164h149v-164h-149zM514 1333v164h150v-164h-150z" />
<glyph unicode="&#xa9;" horiz-adv-x="1691" d="M74 745q0 158 61 302t164 247.5t246 164.5t301 61t301 -61t246 -164.5t164 -247.5t61 -302q0 -157 -61 -299.5t-164 -245.5t-246 -164t-301 -61t-301 61t-246 164t-164 245.5t-61 299.5zM139 745q0 -146 56 -278t150.5 -227t225.5 -151t275 -56q193 0 355 94.5 t256.5 258.5t94.5 359q0 197 -94.5 362t-256.5 260t-355 95q-144 0 -275 -56t-225.5 -151.5t-150.5 -228.5t-56 -281zM461 737q0 198 126 332.5t302 134.5q129 0 246 -57v-27l32 -213q-107 262 -284 262q-142 0 -241 -118t-99 -289q0 -173 97 -287.5t249 -114.5 q117 0 201.5 67.5t119.5 190.5q-29 -155 -118 -241t-220 -86q-177 0 -294 125t-117 321z" />
<glyph unicode="&#xaa;" horiz-adv-x="667" d="M70 1049q0 25 12 48t37.5 42.5t51 35.5t67 33t71 28t77 28t71.5 26v51q0 60 -40.5 99t-103.5 39q-46 0 -96 -31q-16 -10 -29 -39t-20 -57t-21.5 -50t-33.5 -22q-17 0 -27 10.5t-10 26.5q0 40 51 89.5t114.5 81.5t100.5 32q85 0 133.5 -46.5t48.5 -121.5v-330h90l-157 -96 v151q-64 -71 -119.5 -111t-116.5 -40q-64 0 -107.5 35t-43.5 88zM154 1065q0 -39 27 -63.5t69 -24.5q90 0 207 131v162q-17 -7 -53 -20t-52 -19.5t-45.5 -18.5t-44 -20t-35.5 -20t-31.5 -22.5t-21.5 -24.5t-15.5 -28.5t-4.5 -31.5zM268 602v191h168v-191h-168z" />
<glyph unicode="&#xab;" horiz-adv-x="677" d="M47 547l324 381l-203 -381l203 -381zM307 549l324 381l-203 -381l203 -381z" />
<glyph unicode="&#xac;" horiz-adv-x="1110" d="M74 715v45h856v-522h-49v477h-807z" />
<glyph unicode="&#xad;" horiz-adv-x="782" d="M154 532v86h475v-86h-475z" />
<glyph unicode="&#xae;" horiz-adv-x="1239" d="M86 987q0 108 42.5 206.5t114 170t170.5 114t208 42.5q144 0 266.5 -71.5t194 -194.5t71.5 -267q0 -145 -71.5 -268t-194 -194.5t-266.5 -71.5q-145 0 -268.5 71.5t-195 194.5t-71.5 268zM147 987q0 -130 64 -241t173 -175.5t237 -64.5q193 0 331 141.5t138 339.5 q0 130 -63 240.5t-171 174.5t-235 64q-128 0 -237 -64t-173 -174.5t-64 -240.5zM350 711l101 47v489l-93 47h252q89 0 148 -41.5t59 -103.5q0 -61 -52 -102.5t-134 -47.5l284 -288h-88l-268 288h-43v-241l111 -47h-277zM516 1020h90q66 0 104 34t38 95q0 58 -38 90.5 t-104 32.5h-90v-252z" />
<glyph unicode="&#xaf;" horiz-adv-x="819" d="M129 1366v70h559v-70h-559z" />
<glyph unicode="&#xb0;" horiz-adv-x="815" d="M74 1198q0 132 99 227t237 95q136 0 233.5 -95t97.5 -227q0 -135 -97.5 -231.5t-233.5 -96.5q-138 0 -237 96.5t-99 231.5zM137 1198q0 -114 80 -194t193 -80q111 0 189.5 80t78.5 194q0 110 -79 189t-189 79q-112 0 -192.5 -79t-80.5 -189z" />
<glyph unicode="&#xb1;" horiz-adv-x="1069" d="M106 166v45h857v-45h-857zM106 729v45h406v363h45v-363h406v-45h-406v-364h-45v364h-406z" />
<glyph unicode="&#xb2;" horiz-adv-x="477" d="M27 1350q0 48 89.5 109t145.5 61q63 0 104.5 -44t41.5 -110q0 -75 -66.5 -160t-220.5 -219h323v-51h-415q186 158 251.5 242t65.5 176q0 57 -32.5 93t-82.5 36q-38 0 -77 -27q-20 -14 -34 -39t-20 -46t-17 -36.5t-28 -15.5q-12 0 -20 9t-8 22z" />
<glyph unicode="&#xb3;" horiz-adv-x="581" d="M74 1059q0 14 9 24.5t23 10.5q23 0 36 -24.5t26 -55.5t33 -41q30 -15 73 -15q67 0 108.5 38t41.5 98q0 54 -41 86t-109 32q-49 0 -104 -20q7 4 40 23t49 29t44.5 31t43 38.5t26.5 42t12 49.5q0 37 -25 59.5t-65 22.5q-35 0 -70 -21q-20 -12 -33 -35.5t-18.5 -44t-16 -36 t-26.5 -15.5q-13 0 -22 8.5t-9 22.5q0 47 82 100.5t140 53.5q53 0 86.5 -29.5t33.5 -73.5q0 -51 -42 -92.5t-121 -85.5q20 4 43 4q72 0 117.5 -40.5t45.5 -106.5q0 -75 -53.5 -122.5t-134.5 -47.5q-64 0 -143.5 45t-79.5 88z" />
<glyph unicode="&#xb4;" horiz-adv-x="819" d="M291 1155l178 471h119z" />
<glyph unicode="&#xb5;" horiz-adv-x="1167" d="M27 903l245 139v-755q0 -108 73 -185t179 -77q111 0 336 145v733h-158l246 139v-954h176l-264 -113v166q-76 -49 -126.5 -78t-127.5 -58.5t-135 -29.5q-118 0 -199 78v-506h191l-279 -112v1468h-157z" />
<glyph unicode="&#xb6;" horiz-adv-x="2048" d="M410 1038q0 124 66.5 229.5t180.5 166.5t248 61h715l-203 -88v-1413q0 -189 -106 -300.5t-283 -111.5q-112 0 -190 40.5t-78 96.5q0 26 16 43t41 17q20 0 43 -16.5t46 -40t49 -47t60.5 -40t71.5 -16.5q127 0 181.5 100.5t54.5 307.5v1431h-172v-1644h-94v751h-152 q-134 0 -248 63.5t-180.5 172.5t-66.5 237z" />
<glyph unicode="&#xb7;" horiz-adv-x="380" d="M106 459v190h168v-190h-168z" />
<glyph unicode="&#xb8;" horiz-adv-x="819" d="M258 -543q92 29 146.5 75t54.5 103q0 30 -15.5 50.5t-48.5 40.5l-131 79l125 195h27l-66 -141l115 -70q70 -43 70 -113q0 -76 -76.5 -139t-200.5 -80z" />
<glyph unicode="&#xb9;" horiz-adv-x="434" d="M53 936l142 51v463h-132l187 70v-533l141 -51h-338z" />
<glyph unicode="&#xba;" horiz-adv-x="681" d="M59 1229q0 120 83.5 205.5t199.5 85.5q114 0 197.5 -85.5t83.5 -205.5q0 -124 -83.5 -213.5t-197.5 -89.5q-116 0 -199.5 89.5t-83.5 213.5zM145 1229q0 -126 54 -203.5t141 -77.5q88 0 142.5 77.5t54.5 203.5q0 120 -54.5 194t-142.5 74q-87 0 -141 -74t-54 -194z M258 602v191h168v-191h-168z" />
<glyph unicode="&#xbb;" horiz-adv-x="677" d="M47 168l203 381l-203 381l324 -381zM307 166l203 381l-203 381l324 -381z" />
<glyph unicode="&#xbc;" horiz-adv-x="950" d="M160 733v45h631v-45h-631zM227 170l365 442v-397h88v-45h-88v-129l102 -41h-297l142 41v129h-312zM293 215h246v293zM324 936l141 51v463h-131l186 70v-533l142 -51h-338z" />
<glyph unicode="&#xbd;" horiz-adv-x="950" d="M160 733v45h631v-45h-631zM295 414q0 48 89.5 109t145.5 61q63 0 104.5 -44t41.5 -110q0 -75 -66.5 -160t-220.5 -219h324v-51h-416q186 158 251.5 242t65.5 176q0 57 -32 93t-82 36q-39 0 -78 -27q-20 -14 -34 -39t-19.5 -46t-16.5 -36.5t-28 -15.5q-12 0 -20.5 9 t-8.5 22zM324 936l141 51v463h-131l186 70v-533l142 -51h-338z" />
<glyph unicode="&#xbe;" horiz-adv-x="950" d="M160 733v45h631v-45h-631zM231 170l365 442v-397h88v-45h-88v-129l102 -41h-297l142 41v129h-312zM270 1059q0 14 9.5 24.5t23.5 10.5q18 0 30.5 -15.5t18 -35.5t17.5 -41t28 -29q30 -15 74 -15q67 0 108.5 38t41.5 98q0 54 -41 86t-109 32q-49 0 -104 -20q7 4 40 23 t49 29t44.5 31t43 38.5t26.5 42t12 49.5q0 37 -25 59.5t-65 22.5q-35 0 -70 -21q-20 -12 -33 -35.5t-18.5 -44t-16 -36t-26.5 -15.5q-14 0 -22.5 8.5t-8.5 22.5q0 47 81.5 100.5t139.5 53.5q53 0 87 -29.5t34 -73.5q0 -51 -42.5 -92.5t-121.5 -85.5q20 4 43 4 q72 0 118 -40.5t46 -106.5q0 -75 -53.5 -122.5t-134.5 -47.5q-64 0 -144 45t-80 88zM297 215h246v293z" />
<glyph unicode="&#xbf;" horiz-adv-x="782" d="M20 -76q0 116 61 200.5t132 119.5l205 102q36 19 48.5 39.5t12.5 60.5v213q27 -64 52.5 -149.5t25.5 -116.5q0 -78 -117 -135l-194 -96q-35 -18 -61 -34.5t-60 -46t-53 -70.5t-19 -89q0 -94 64 -174t168 -125t221 -45q55 0 97.5 16.5t63.5 36t46.5 36t50.5 16.5 q24 0 39.5 -15.5t15.5 -38.5q0 -55 -71.5 -89t-190.5 -34q-141 0 -265 56t-198 153t-74 209zM399 852v190h168v-190h-168z" />
<glyph unicode="&#xc0;" horiz-adv-x="1660" d="M27 0l190 82l551 1309l-82 104l143 25l607 -1436l198 -84h-536l231 80l-196 461h-676l-189 -459l242 -82h-483zM471 578h647l-317 749h-21zM504 1995h131l219 -369z" />
<glyph unicode="&#xc1;" horiz-adv-x="1660" d="M27 0l190 82l551 1309l-82 104l143 25l607 -1436l198 -84h-536l231 80l-196 461h-676l-189 -459l242 -82h-483zM471 578h647l-317 749h-21zM692 1626l219 369h131z" />
<glyph unicode="&#xc2;" horiz-adv-x="1660" d="M27 0l190 82l551 1309l-82 104l143 25l607 -1436l198 -84h-536l231 80l-196 461h-676l-189 -459l242 -82h-483zM471 578h647l-317 749h-21zM528 1626l250 350l250 -350l-250 223z" />
<glyph unicode="&#xc3;" horiz-adv-x="1660" d="M27 0l190 82l551 1309l-82 104l143 25l607 -1436l198 -84h-536l231 80l-196 461h-676l-189 -459l242 -82h-483zM471 578h647l-317 749h-21zM471 1688q92 210 201 210q30 0 119 -35.5t124 -35.5q51 0 97.5 41.5t72.5 111.5q-20 -109 -69.5 -172t-116.5 -63q-31 0 -122 37 t-126 37q-44 0 -91.5 -34.5t-88.5 -96.5z" />
<glyph unicode="&#xc4;" horiz-adv-x="1660" d="M27 0l190 82l551 1309l-82 104l143 25l607 -1436l198 -84h-536l231 80l-196 461h-676l-189 -459l242 -82h-483zM471 578h647l-317 749h-21zM522 1733v163h150v-163h-150zM883 1733v163h149v-163h-149z" />
<glyph unicode="&#xc5;" horiz-adv-x="1660" d="M27 0l190 82l551 1309l-82 104l143 25l607 -1436l198 -84h-536l231 80l-196 461h-676l-189 -459l242 -82h-483zM471 578h647l-317 749h-21zM625 1808q0 62 45.5 106t109.5 44q63 0 107.5 -44t44.5 -106q0 -63 -44.5 -108t-107.5 -45q-64 0 -109.5 45t-45.5 108zM672 1806 q0 -46 31 -77t75 -31q46 0 77.5 31t31.5 77t-31.5 77.5t-77.5 31.5q-44 0 -75 -31.5t-31 -77.5z" />
<glyph unicode="&#xc6;" horiz-adv-x="2131" d="M27 0l192 84l787 1374v37h915v-33l61 -336l-188 332h-651v-649h420l100 223v-485l-100 225h-420v-735h727l192 385l-65 -389v-33h-1155l202 88v453h-512l-262 -461l240 -80h-483zM553 578h491v835h-16z" />
<glyph unicode="&#xc7;" horiz-adv-x="1421" d="M86 760q0 154 59 295t157.5 242.5t233 162t279.5 60.5q264 3 465 -95v-32l55 -293q-79 192 -206.5 286t-313.5 93q-181 0 -321 -92.5t-216.5 -256t-76.5 -370.5q0 -216 77 -384.5t220.5 -264t330.5 -95.5q189 -2 317.5 99.5t215.5 324.5l-68 -338v-32q-201 -98 -465 -95 h-18l-53 -116l114 -70q70 -43 70 -113q0 -76 -76 -139t-200 -80q92 29 146 75t54 103q0 31 -15 51t-48 40l-131 79l110 172q-141 10 -269 75.5t-222 169.5t-149.5 244.5t-55.5 293.5z" />
<glyph unicode="&#xc8;" horiz-adv-x="1355" d="M53 0l203 88v1319l-203 88h1092v-33l61 -336l-188 332h-664v-649h432l101 223v-485l-101 225h-432v-735h740l192 385l-65 -389v-33h-1168zM369 1995h131l219 -369z" />
<glyph unicode="&#xc9;" horiz-adv-x="1355" d="M53 0l203 88v1319l-203 88h1092v-33l61 -336l-188 332h-664v-649h432l101 223v-485l-101 225h-432v-735h740l192 385l-65 -389v-33h-1168zM557 1626l219 369h131z" />
<glyph unicode="&#xca;" horiz-adv-x="1355" d="M53 0l203 88v1319l-203 88h1092v-33l61 -336l-188 332h-664v-649h432l101 223v-485l-101 225h-432v-735h740l192 385l-65 -389v-33h-1168zM393 1626l250 350l250 -350l-250 223z" />
<glyph unicode="&#xcb;" horiz-adv-x="1355" d="M53 0l203 88v1319l-203 88h1092v-33l61 -336l-188 332h-664v-649h432l101 223v-485l-101 225h-432v-735h740l192 385l-65 -389v-33h-1168zM387 1733v163h150v-163h-150zM748 1733v163h149v-163h-149z" />
<glyph unicode="&#xcc;" horiz-adv-x="610" d="M31 1995h131l219 -369zM53 0l203 82v1331l-203 82h504l-203 -82v-1331l203 -82h-504z" />
<glyph unicode="&#xcd;" horiz-adv-x="610" d="M53 0l203 82v1331l-203 82h504l-203 -82v-1331l203 -82h-504zM219 1626l219 369h131z" />
<glyph unicode="&#xce;" horiz-adv-x="610" d="M53 0l203 82v1331l-203 82h504l-203 -82v-1331l203 -82h-504zM55 1626l250 350l250 -350l-250 223z" />
<glyph unicode="&#xcf;" horiz-adv-x="610" d="M49 1733v163h150v-163h-150zM53 0l203 82v1331l-203 82h504l-203 -82v-1331l203 -82h-504zM410 1733v163h149v-163h-149z" />
<glyph unicode="&#xd0;" horiz-adv-x="1521" d="M53 0l203 88v651h-174v37h174v631l-203 88h572q169 0 320 -58.5t258.5 -157.5t170 -234.5t62.5 -284.5q0 -154 -62.5 -294.5t-170 -242.5t-258.5 -162.5t-320 -60.5h-572zM354 37h262q204 0 364.5 92t250.5 257t90 374q0 202 -90 361.5t-250 248t-363 88.5h-264v-682h408 v-37h-408v-702z" />
<glyph unicode="&#xd1;" horiz-adv-x="1652" d="M47 0l203 84v1278l-146 133l144 25l1085 -1317h25v1208l-203 84h455l-203 -84v-1456l-1090 1325h-18v-1196l203 -84h-455zM516 1688q92 210 201 210q30 0 119.5 -35.5t124.5 -35.5q51 0 97 41.5t72 111.5q-20 -109 -69.5 -172t-116.5 -63q-31 0 -122 37t-126 37 q-44 0 -91.5 -34.5t-88.5 -96.5z" />
<glyph unicode="&#xd2;" d="M86 760q0 153 59 294.5t156 243t228.5 162t271.5 60.5t271.5 -60.5t228.5 -162t156 -243t59 -294.5q0 -158 -59.5 -304t-157.5 -251t-229 -167.5t-269 -62.5t-269 62.5t-229 167.5t-157.5 251t-59.5 304zM199 760q0 -215 76 -384.5t213.5 -264.5t312.5 -95t312.5 95 t213.5 264.5t76 384.5q0 206 -76 370t-214 256.5t-312 92.5t-312 -92.5t-214 -256.5t-76 -370zM526 1995h131l220 -369z" />
<glyph unicode="&#xd3;" d="M86 760q0 153 59 294.5t156 243t228.5 162t271.5 60.5t271.5 -60.5t228.5 -162t156 -243t59 -294.5q0 -158 -59.5 -304t-157.5 -251t-229 -167.5t-269 -62.5t-269 62.5t-229 167.5t-157.5 251t-59.5 304zM199 760q0 -215 76 -384.5t213.5 -264.5t312.5 -95t312.5 95 t213.5 264.5t76 384.5q0 206 -76 370t-214 256.5t-312 92.5t-312 -92.5t-214 -256.5t-76 -370zM715 1626l219 369h131z" />
<glyph unicode="&#xd4;" d="M86 760q0 153 59 294.5t156 243t228.5 162t271.5 60.5t271.5 -60.5t228.5 -162t156 -243t59 -294.5q0 -158 -59.5 -304t-157.5 -251t-229 -167.5t-269 -62.5t-269 62.5t-229 167.5t-157.5 251t-59.5 304zM199 760q0 -215 76 -384.5t213.5 -264.5t312.5 -95t312.5 95 t213.5 264.5t76 384.5q0 206 -76 370t-214 256.5t-312 92.5t-312 -92.5t-214 -256.5t-76 -370zM551 1626l250 350l250 -350l-250 223z" />
<glyph unicode="&#xd5;" d="M86 760q0 153 59 294.5t156 243t228.5 162t271.5 60.5t271.5 -60.5t228.5 -162t156 -243t59 -294.5q0 -158 -59.5 -304t-157.5 -251t-229 -167.5t-269 -62.5t-269 62.5t-229 167.5t-157.5 251t-59.5 304zM199 760q0 -215 76 -384.5t213.5 -264.5t312.5 -95t312.5 95 t213.5 264.5t76 384.5q0 206 -76 370t-214 256.5t-312 92.5t-312 -92.5t-214 -256.5t-76 -370zM494 1688q92 210 200 210q30 0 119.5 -35.5t124.5 -35.5q51 0 97.5 41.5t72.5 111.5q-20 -109 -69.5 -172t-116.5 -63q-31 0 -122 37t-126 37q-44 0 -91.5 -34.5t-88.5 -96.5z " />
<glyph unicode="&#xd6;" d="M86 760q0 153 59 294.5t156 243t228.5 162t271.5 60.5t271.5 -60.5t228.5 -162t156 -243t59 -294.5q0 -158 -59.5 -304t-157.5 -251t-229 -167.5t-269 -62.5t-269 62.5t-229 167.5t-157.5 251t-59.5 304zM199 760q0 -215 76 -384.5t213.5 -264.5t312.5 -95t312.5 95 t213.5 264.5t76 384.5q0 206 -76 370t-214 256.5t-312 92.5t-312 -92.5t-214 -256.5t-76 -370zM545 1733v163h149v-163h-149zM905 1733v163h150v-163h-150z" />
<glyph unicode="&#xd7;" horiz-adv-x="1048" d="M106 256l388 385l-388 383h64l354 -352l355 352h63l-385 -383l385 -385h-63l-355 352l-354 -352h-64z" />
<glyph unicode="&#xd8;" d="M86 760q0 153 59 294.5t156 243t228.5 162t271.5 60.5q128 0 249 -51t220 -142l145 170h53l-170 -199q102 -105 160 -244t58 -294q0 -158 -59.5 -304t-157.5 -251t-229 -167.5t-269 -62.5q-127 0 -247.5 52.5t-217.5 146.5l-150 -174h-53l174 203q-104 108 -162.5 252.5 t-58.5 304.5zM199 760q0 -302 149 -510l883 1030q-81 95 -191 147t-239 52q-174 0 -312 -92.5t-214 -256.5t-76 -370zM373 217q168 -201 428 -201q175 0 312.5 95t213.5 264.5t76 384.5q0 289 -148 489z" />
<glyph unicode="&#xd9;" horiz-adv-x="1525" d="M27 1495h499l-202 -88l4 -928q0 -186 136 -311t339 -125q190 0 317 122.5t127 305.5v936l-203 88h455l-203 -88v-940q0 -138 -66.5 -251t-182.5 -177t-259 -64q-156 0 -284.5 61t-201.5 168.5t-73 239.5v963zM514 1995h131l219 -369z" />
<glyph unicode="&#xda;" horiz-adv-x="1525" d="M27 1495h499l-202 -88l4 -928q0 -186 136 -311t339 -125q190 0 317 122.5t127 305.5v936l-203 88h455l-203 -88v-940q0 -138 -66.5 -251t-182.5 -177t-259 -64q-156 0 -284.5 61t-201.5 168.5t-73 239.5v963zM702 1626l220 369h131z" />
<glyph unicode="&#xdb;" horiz-adv-x="1525" d="M27 1495h499l-202 -88l4 -928q0 -186 136 -311t339 -125q190 0 317 122.5t127 305.5v936l-203 88h455l-203 -88v-940q0 -138 -66.5 -251t-182.5 -177t-259 -64q-156 0 -284.5 61t-201.5 168.5t-73 239.5v963zM539 1626l249 350l250 -350l-250 223z" />
<glyph unicode="&#xdc;" horiz-adv-x="1525" d="M27 1495h499l-202 -88l4 -928q0 -186 136 -311t339 -125q190 0 317 122.5t127 305.5v936l-203 88h455l-203 -88v-940q0 -138 -66.5 -251t-182.5 -177t-259 -64q-156 0 -284.5 61t-201.5 168.5t-73 239.5v963zM532 1733v163h150v-163h-150zM893 1733v163h149v-163h-149z " />
<glyph unicode="&#xdd;" horiz-adv-x="1474" d="M31 1495h542l-239 -80l438 -727h23l419 727l-253 80h487l-184 -78l-461 -790v-545l244 -82h-586l244 82v545l-484 792zM674 1626l219 369h131z" />
<glyph unicode="&#xde;" horiz-adv-x="1333" d="M53 0l203 68v1359l-203 68h504l-203 -68v-239h432q133 0 247 -52t181.5 -144t67.5 -201q0 -108 -65.5 -202.5t-180.5 -151t-250 -56.5h-432v-313l203 -68h-504zM354 418h416q177 0 290.5 106t113.5 267q0 163 -110 261.5t-294 98.5h-416v-733z" />
<glyph unicode="&#xdf;" horiz-adv-x="1286" d="M53 0l172 68v870h-172l172 139v156q0 189 130.5 307.5t336.5 118.5q141 0 234.5 -67.5t93.5 -172.5q0 -60 -34 -121t-82.5 -112.5t-97 -102.5t-82.5 -108.5t-34 -112.5q0 -67 38 -116.5t108 -94.5q28 -18 79.5 -47t85.5 -48.5t76.5 -52t68 -63.5t43 -76.5t17.5 -97.5 q0 -130 -92 -210.5t-246 -80.5q-77 0 -167 17t-156 45v33l-58 311q25 -83 58.5 -147t82 -117.5t116 -82t151.5 -28.5q105 0 171.5 65t66.5 167q0 50 -19.5 92t-60.5 77.5t-76.5 59t-95.5 58.5t-90 55q-81 53 -125.5 111t-44.5 140q0 45 22.5 91.5t56 84t73 83.5t73 88.5 t56 99t22.5 115.5q0 101 -71.5 167t-190.5 66q-158 0 -253.5 -106.5t-95.5 -307.5v-1144l172 -68h-432z" />
<glyph unicode="&#xe0;" horiz-adv-x="1036" d="M82 745q0 58 85.5 130t194 119.5t177.5 47.5q122 0 206 -83.5t84 -219.5v-651h179l-265 -113v275q-53 -61 -96.5 -104t-98.5 -85t-112.5 -64t-116.5 -22q-97 0 -166 55.5t-69 159.5q0 47 27 92.5t73 83.5t108 74t132.5 67t145 60t145.5 56q7 2 10 3.5t8.5 3t9.5 3.5v98 q0 109 -74 184.5t-188 75.5q-81 0 -162 -47q-40 -23 -66.5 -69.5t-37 -87t-30 -72t-48.5 -31.5q-24 0 -39.5 17t-15.5 44zM178 195q0 -76 54.5 -119t132.5 -43q92 0 181 66.5t197 187.5v319q-76 -30 -125 -50t-114.5 -49.5t-107 -53.5t-87.5 -56t-71.5 -61.5t-42.5 -66 t-17 -74.5zM221 1626h119l178 -471z" />
<glyph unicode="&#xe1;" horiz-adv-x="1036" d="M82 745q0 58 85.5 130t194 119.5t177.5 47.5q122 0 206 -83.5t84 -219.5v-651h179l-265 -113v275q-53 -61 -96.5 -104t-98.5 -85t-112.5 -64t-116.5 -22q-97 0 -166 55.5t-69 159.5q0 47 27 92.5t73 83.5t108 74t132.5 67t145 60t145.5 56q7 2 10 3.5t8.5 3t9.5 3.5v98 q0 109 -74 184.5t-188 75.5q-81 0 -162 -47q-40 -23 -66.5 -69.5t-37 -87t-30 -72t-48.5 -31.5q-24 0 -39.5 17t-15.5 44zM178 195q0 -76 54.5 -119t132.5 -43q92 0 181 66.5t197 187.5v319q-76 -30 -125 -50t-114.5 -49.5t-107 -53.5t-87.5 -56t-71.5 -61.5t-42.5 -66 t-17 -74.5zM385 1155l178 471h119z" />
<glyph unicode="&#xe2;" horiz-adv-x="1036" d="M82 745q0 58 85.5 130t194 119.5t177.5 47.5q122 0 206 -83.5t84 -219.5v-651h179l-265 -113v275q-53 -61 -96.5 -104t-98.5 -85t-112.5 -64t-116.5 -22q-97 0 -166 55.5t-69 159.5q0 47 27 92.5t73 83.5t108 74t132.5 67t145 60t145.5 56q7 2 10 3.5t8.5 3t9.5 3.5v98 q0 109 -74 184.5t-188 75.5q-81 0 -162 -47q-40 -23 -66.5 -69.5t-37 -87t-30 -72t-48.5 -31.5q-24 0 -39.5 17t-15.5 44zM178 195q0 -76 54.5 -119t132.5 -43q92 0 181 66.5t197 187.5v319q-76 -30 -125 -50t-114.5 -49.5t-107 -53.5t-87.5 -56t-71.5 -61.5t-42.5 -66 t-17 -74.5zM205 1155l250 444l250 -444l-250 303z" />
<glyph unicode="&#xe3;" horiz-adv-x="1036" d="M82 745q0 58 85.5 130t194 119.5t177.5 47.5q122 0 206 -83.5t84 -219.5v-651h179l-265 -113v275q-53 -61 -96.5 -104t-98.5 -85t-112.5 -64t-116.5 -22q-97 0 -166 55.5t-69 159.5q0 47 27 92.5t73 83.5t108 74t132.5 67t145 60t145.5 56q7 2 10 3.5t8.5 3t9.5 3.5v98 q0 109 -74 184.5t-188 75.5q-81 0 -162 -47q-40 -23 -66.5 -69.5t-37 -87t-30 -72t-48.5 -31.5q-24 0 -39.5 17t-15.5 44zM147 1280q93 211 201 211q30 0 119.5 -36t124.5 -36q51 0 97.5 42t72.5 112q-20 -109 -70 -172.5t-117 -63.5q-31 0 -121.5 37t-125.5 37 q-44 0 -92 -34.5t-89 -96.5zM178 195q0 -76 54.5 -119t132.5 -43q92 0 181 66.5t197 187.5v319q-76 -30 -125 -50t-114.5 -49.5t-107 -53.5t-87.5 -56t-71.5 -61.5t-42.5 -66t-17 -74.5z" />
<glyph unicode="&#xe4;" horiz-adv-x="1036" d="M82 745q0 58 85.5 130t194 119.5t177.5 47.5q122 0 206 -83.5t84 -219.5v-651h179l-265 -113v275q-53 -61 -96.5 -104t-98.5 -85t-112.5 -64t-116.5 -22q-97 0 -166 55.5t-69 159.5q0 47 27 92.5t73 83.5t108 74t132.5 67t145 60t145.5 56q7 2 10 3.5t8.5 3t9.5 3.5v98 q0 109 -74 184.5t-188 75.5q-81 0 -162 -47q-40 -23 -66.5 -69.5t-37 -87t-30 -72t-48.5 -31.5q-24 0 -39.5 17t-15.5 44zM178 195q0 -76 54.5 -119t132.5 -43q92 0 181 66.5t197 187.5v319q-76 -30 -125 -50t-114.5 -49.5t-107 -53.5t-87.5 -56t-71.5 -61.5t-42.5 -66 t-17 -74.5zM199 1333v164h149v-164h-149zM559 1333v164h150v-164h-150z" />
<glyph unicode="&#xe5;" horiz-adv-x="1036" d="M82 745q0 58 85.5 130t194 119.5t177.5 47.5q122 0 206 -83.5t84 -219.5v-651h179l-265 -113v275q-53 -61 -96.5 -104t-98.5 -85t-112.5 -64t-116.5 -22q-97 0 -166 55.5t-69 159.5q0 47 27 92.5t73 83.5t108 74t132.5 67t145 60t145.5 56q7 2 10 3.5t8.5 3t9.5 3.5v98 q0 109 -74 184.5t-188 75.5q-81 0 -162 -47q-40 -23 -66.5 -69.5t-37 -87t-30 -72t-48.5 -31.5q-24 0 -39.5 17t-15.5 44zM178 195q0 -76 54.5 -119t132.5 -43q92 0 181 66.5t197 187.5v319q-76 -30 -125 -50t-114.5 -49.5t-107 -53.5t-87.5 -56t-71.5 -61.5t-42.5 -66 t-17 -74.5zM299 1413q0 62 46 106t110 44q63 0 107 -44t44 -106q0 -63 -44 -108t-107 -45q-64 0 -110 45t-46 108zM344 1411q0 -46 32.5 -78.5t76.5 -32.5q46 0 78 32.5t32 78.5t-32 78.5t-78 32.5q-44 0 -76.5 -32.5t-32.5 -78.5z" />
<glyph unicode="&#xe6;" horiz-adv-x="1667" d="M82 745q0 58 85.5 130t194 119.5t177.5 47.5q110 0 191.5 -70t96.5 -186q59 120 163 188t233 68q166 0 268 -107t102 -282v-12h-725q-10 -62 -10 -119q0 -214 106 -345.5t283 -131.5q130 0 225 76t142 221q-43 -178 -142.5 -272.5t-242.5 -94.5q-160 0 -275 86t-161 240 q-51 -59 -84 -96t-85.5 -86t-95 -76.5t-97 -47.5t-107.5 -20q-97 0 -166.5 55.5t-69.5 159.5q0 40 19.5 78t50 69.5t80.5 64.5t96.5 57.5t115 54t118.5 49t122 46.5q36 13 53 20v102q0 109 -74 184.5t-188 75.5q-81 0 -162 -47q-40 -23 -66.5 -69.5t-37 -87t-30 -72 t-48.5 -31.5q-24 0 -39.5 17t-15.5 44zM182 195q0 -76 54.5 -119t132.5 -43q63 0 131.5 37.5t120.5 85.5t122 125v323q-59 -23 -96.5 -38.5t-91 -38.5t-88 -40t-77.5 -40.5t-70.5 -44t-56 -46t-44.5 -50t-26.5 -53t-10.5 -58.5zM872 672h551q64 0 64 63q0 105 -77 192 t-187 87q-128 0 -222.5 -93.5t-128.5 -248.5z" />
<glyph unicode="&#xe7;" horiz-adv-x="966" d="M74 500q0 238 132 390t335 152q136 0 233.5 -60t97.5 -132q0 -25 -13.5 -41t-33.5 -16q-27 0 -48.5 23t-39.5 55.5t-40.5 64.5t-62 55t-93.5 23q-164 0 -268.5 -138t-104.5 -354q0 -214 106 -345.5t283 -131.5q130 0 225 76t142 221q-43 -178 -142.5 -272.5t-242.5 -94.5 h-9l-53 -116l115 -70q70 -43 70 -113q0 -76 -76.5 -139t-200.5 -80q92 29 146.5 75t54.5 103q0 30 -15.5 50.5t-48.5 40.5l-131 79l111 172q-192 12 -310 153.5t-118 369.5z" />
<glyph unicode="&#xe8;" horiz-adv-x="976" d="M74 500q0 238 130 390t328 152q166 0 268.5 -107t102.5 -282v-12h-725q-10 -62 -10 -119q0 -214 106 -345.5t283 -131.5q130 0 225 76t142 221q-43 -178 -142.5 -272.5t-242.5 -94.5q-208 0 -336.5 143t-128.5 382zM182 672h551q64 0 64 63q0 104 -77.5 191.5 t-187.5 87.5q-128 0 -222 -93.5t-128 -248.5zM279 1626h118l178 -471z" />
<glyph unicode="&#xe9;" horiz-adv-x="976" d="M74 500q0 238 130 390t328 152q166 0 268.5 -107t102.5 -282v-12h-725q-10 -62 -10 -119q0 -214 106 -345.5t283 -131.5q130 0 225 76t142 221q-43 -178 -142.5 -272.5t-242.5 -94.5q-208 0 -336.5 143t-128.5 382zM182 672h551q64 0 64 63q0 104 -77.5 191.5 t-187.5 87.5q-128 0 -222 -93.5t-128 -248.5zM442 1155l179 471h118z" />
<glyph unicode="&#xea;" horiz-adv-x="976" d="M74 500q0 238 130 390t328 152q166 0 268.5 -107t102.5 -282v-12h-725q-10 -62 -10 -119q0 -214 106 -345.5t283 -131.5q130 0 225 76t142 221q-43 -178 -142.5 -272.5t-242.5 -94.5q-208 0 -336.5 143t-128.5 382zM182 672h551q64 0 64 63q0 104 -77.5 191.5 t-187.5 87.5q-128 0 -222 -93.5t-128 -248.5zM262 1155l250 444l250 -444l-250 303z" />
<glyph unicode="&#xeb;" horiz-adv-x="976" d="M74 500q0 238 130 390t328 152q166 0 268.5 -107t102.5 -282v-12h-725q-10 -62 -10 -119q0 -214 106 -345.5t283 -131.5q130 0 225 76t142 221q-43 -178 -142.5 -272.5t-242.5 -94.5q-208 0 -336.5 143t-128.5 382zM182 672h551q64 0 64 63q0 104 -77.5 191.5 t-187.5 87.5q-128 0 -222 -93.5t-128 -248.5zM256 1333v164h150v-164h-150zM616 1333v164h150v-164h-150z" />
<glyph unicode="&#xec;" horiz-adv-x="534" d="M18 1626h119l178 -471zM53 903l262 139v-974l183 -68h-443l172 68v835h-174z" />
<glyph unicode="&#xed;" horiz-adv-x="534" d="M53 903l262 139v-974l183 -68h-443l172 68v835h-174zM182 1155l178 471h119z" />
<glyph unicode="&#xee;" horiz-adv-x="534" d="M2 1155l250 444l250 -444l-250 303zM53 903l262 139v-974l183 -68h-443l172 68v835h-174z" />
<glyph unicode="&#xef;" horiz-adv-x="534" d="M-4 1333v164h149v-164h-149zM53 903l262 139v-974l183 -68h-443l172 68v835h-174zM356 1333v164h150v-164h-150z" />
<glyph unicode="&#xf0;" horiz-adv-x="1112" d="M63 498q-3 241 128.5 392.5t343.5 151.5q97 0 190 -34t156 -93q-77 232 -254 435l-361 -181v39l336 168q-182 203 -459 373q316 -130 531 -336l299 150v-39l-273 -138q163 -163 250.5 -359.5t87.5 -408.5q0 -182 -61.5 -328.5t-175 -230.5t-258.5 -84q-208 0 -344 145.5 t-136 377.5zM158 504q0 -220 106 -360t279 -140q168 0 277.5 174.5t109.5 446.5q0 117 -35 245q-52 54 -133.5 84.5t-179.5 30.5q-192 0 -305 -130t-119 -351z" />
<glyph unicode="&#xf1;" horiz-adv-x="1198" d="M53 0l172 68v835h-172l260 139v-163q73 45 127.5 74.5t132 59t132.5 29.5q122 0 204 -83.5t82 -219.5v-671l172 -68h-442l182 68v663q0 109 -73.5 185.5t-182.5 76.5q-106 0 -334 -143v-782l183 -68h-443zM307 1280q93 211 201 211q30 0 119.5 -36t124.5 -36 q51 0 97.5 42t72.5 112q-20 -109 -70 -172.5t-117 -63.5q-31 0 -122 37t-126 37q-44 0 -91.5 -34.5t-88.5 -96.5z" />
<glyph unicode="&#xf2;" horiz-adv-x="1128" d="M74 518q0 106 40 203.5t107 167.5t157 111.5t187 41.5q128 0 241 -70t181 -191.5t68 -262.5q0 -146 -68 -272t-181 -198.5t-241 -72.5q-97 0 -187 43t-157 116t-107 173.5t-40 210.5zM178 518q0 -222 108.5 -366t278.5 -144q165 0 275 142t110 368q0 216 -108 355 t-277 139q-166 0 -276.5 -137.5t-110.5 -356.5zM332 1626h119l178 -471z" />
<glyph unicode="&#xf3;" horiz-adv-x="1128" d="M74 518q0 106 40 203.5t107 167.5t157 111.5t187 41.5q128 0 241 -70t181 -191.5t68 -262.5q0 -146 -68 -272t-181 -198.5t-241 -72.5q-97 0 -187 43t-157 116t-107 173.5t-40 210.5zM178 518q0 -222 108.5 -366t278.5 -144q165 0 275 142t110 368q0 216 -108 355 t-277 139q-166 0 -276.5 -137.5t-110.5 -356.5zM496 1155l178 471h119z" />
<glyph unicode="&#xf4;" horiz-adv-x="1128" d="M74 518q0 106 40 203.5t107 167.5t157 111.5t187 41.5q128 0 241 -70t181 -191.5t68 -262.5q0 -146 -68 -272t-181 -198.5t-241 -72.5q-97 0 -187 43t-157 116t-107 173.5t-40 210.5zM178 518q0 -222 108.5 -366t278.5 -144q165 0 275 142t110 368q0 216 -108 355 t-277 139q-166 0 -276.5 -137.5t-110.5 -356.5zM315 1155l250 444l250 -444l-250 303z" />
<glyph unicode="&#xf5;" horiz-adv-x="1128" d="M74 518q0 106 40 203.5t107 167.5t157 111.5t187 41.5q128 0 241 -70t181 -191.5t68 -262.5q0 -146 -68 -272t-181 -198.5t-241 -72.5q-97 0 -187 43t-157 116t-107 173.5t-40 210.5zM178 518q0 -222 108.5 -366t278.5 -144q165 0 275 142t110 368q0 216 -108 355 t-277 139q-166 0 -276.5 -137.5t-110.5 -356.5zM258 1280q93 211 201 211q30 0 119 -36t124 -36q51 0 97.5 42t72.5 112q-20 -110 -69.5 -173t-116.5 -63q-31 0 -122 37t-126 37q-44 0 -91.5 -34.5t-88.5 -96.5z" />
<glyph unicode="&#xf6;" horiz-adv-x="1128" d="M74 518q0 106 40 203.5t107 167.5t157 111.5t187 41.5q128 0 241 -70t181 -191.5t68 -262.5q0 -146 -68 -272t-181 -198.5t-241 -72.5q-97 0 -187 43t-157 116t-107 173.5t-40 210.5zM178 518q0 -222 108.5 -366t278.5 -144q165 0 275 142t110 368q0 216 -108 355 t-277 139q-166 0 -276.5 -137.5t-110.5 -356.5zM309 1333v164h150v-164h-150zM670 1333v164h149v-164h-149z" />
<glyph unicode="&#xf7;" horiz-adv-x="1003" d="M74 618v46h856v-46h-856zM418 221v191h168v-191h-168zM418 872v191h168v-191h-168z" />
<glyph unicode="&#xf8;" horiz-adv-x="1128" d="M74 518q0 106 40 203.5t107 167.5t157 111.5t187 41.5q183 0 324 -135l102 117h47l-125 -141q66 -72 104 -167t38 -198q0 -146 -68 -272t-181 -198.5t-241 -72.5q-183 0 -325 142l-103 -117h-47l125 141q-66 75 -103.5 173t-37.5 204zM178 518q0 -192 82 -325l590 669 q-112 150 -285 150q-166 0 -276.5 -137.5t-110.5 -356.5zM281 162q109 -154 284 -154q165 0 275 142t110 368q0 184 -80 316z" />
<glyph unicode="&#xf9;" horiz-adv-x="1187" d="M47 903l246 139v-755q0 -108 73 -185t179 -77q111 0 336 145v733h-158l246 139v-954h176l-264 -113v166q-76 -49 -126.5 -78t-127.5 -58.5t-135 -29.5q-122 0 -204.5 84t-82.5 220v624h-158zM346 1626h119l178 -471z" />
<glyph unicode="&#xfa;" horiz-adv-x="1187" d="M47 903l246 139v-755q0 -108 73 -185t179 -77q111 0 336 145v733h-158l246 139v-954h176l-264 -113v166q-76 -49 -126.5 -78t-127.5 -58.5t-135 -29.5q-122 0 -204.5 84t-82.5 220v624h-158zM510 1155l178 471h119z" />
<glyph unicode="&#xfb;" horiz-adv-x="1187" d="M47 903l246 139v-755q0 -108 73 -185t179 -77q111 0 336 145v733h-158l246 139v-954h176l-264 -113v166q-76 -49 -126.5 -78t-127.5 -58.5t-135 -29.5q-122 0 -204.5 84t-82.5 220v624h-158zM330 1155l250 444l249 -444l-249 303z" />
<glyph unicode="&#xfc;" horiz-adv-x="1187" d="M47 903l246 139v-755q0 -108 73 -185t179 -77q111 0 336 145v733h-158l246 139v-954h176l-264 -113v166q-76 -49 -126.5 -78t-127.5 -58.5t-135 -29.5q-122 0 -204.5 84t-82.5 220v624h-158zM324 1333v164h149v-164h-149zM684 1333v164h150v-164h-150z" />
<glyph unicode="&#xfd;" horiz-adv-x="1183" d="M12 1024h469l-211 -61l361 -832h22l305 825l-213 68h429l-175 -70l-362 -950l-186 -504h-125l274 498l-426 960zM535 1155l178 471h118z" />
<glyph unicode="&#xfe;" horiz-adv-x="1181" d="M37 -500l172 68v1927h-172l260 147v-765q76 49 126 77.5t126 58t133 29.5q196 0 316 -145.5t120 -376.5q0 -155 -58 -278.5t-166 -195t-247 -71.5q-94 0 -187 35.5t-163 98.5v-541l203 -68h-463zM297 233q50 -105 144.5 -167t209.5 -62q160 0 265.5 140.5t105.5 357.5 t-110 353t-285 136q-44 0 -104.5 -23.5t-106.5 -49.5t-119 -72v-613z" />
<glyph unicode="&#xff;" horiz-adv-x="1183" d="M12 1024h469l-211 -61l361 -832h22l305 825l-213 68h429l-175 -70l-362 -950l-186 -504h-125l274 498l-426 960zM348 1333v164h150v-164h-150zM709 1333v164h149v-164h-149z" />
<glyph unicode="&#x152;" horiz-adv-x="2013" d="M86 760q0 198 110 367.5t297 268.5t404 99h905v-33l62 -336l-187 332h-655v-649h428l90 223v-485l-90 225h-428v-735h731l191 375l-66 -379v-33h-981q-218 0 -404.5 102t-296.5 277.5t-110 380.5zM201 760q0 -202 84.5 -363.5t235.5 -255.5t345 -104l58 51v1319l-58 51 q-294 -14 -479.5 -207.5t-185.5 -490.5z" />
<glyph unicode="&#x153;" horiz-adv-x="1865" d="M74 518q0 106 40 203.5t107 167.5t157 111.5t187 41.5q140 0 260 -83t181 -216q55 138 165 218.5t250 80.5q166 0 268.5 -107t102.5 -282v-12h-725q-10 -62 -10 -119q0 -214 106 -345.5t283 -131.5q130 0 224.5 76t141.5 221q-43 -178 -142.5 -272.5t-242.5 -94.5 q-151 0 -263 78.5t-165 218.5q-62 -134 -180 -215.5t-254 -81.5q-97 0 -187 43t-157 116t-107 173.5t-40 210.5zM178 518q0 -222 108.5 -366t278.5 -144q165 0 275 142t110 368q0 216 -108 355t-277 139q-166 0 -276.5 -137.5t-110.5 -356.5zM1071 672h551q64 0 64 63 q0 104 -77.5 191.5t-187.5 87.5q-128 0 -222 -93.5t-128 -248.5z" />
<glyph unicode="&#x178;" horiz-adv-x="1474" d="M31 1495h542l-239 -80l438 -727h23l419 727l-253 80h487l-184 -78l-461 -790v-545l244 -82h-586l244 82v545l-484 792zM504 1733v163h149v-163h-149zM864 1733v163h150v-163h-150z" />
<glyph unicode="&#x2c6;" horiz-adv-x="819" d="M160 1155l250 444l249 -444l-249 303z" />
<glyph unicode="&#x2dc;" horiz-adv-x="819" d="M102 1280q93 211 201 211q30 0 119.5 -36t124.5 -36q51 0 97.5 42t72.5 112q-20 -109 -70 -172.5t-117 -63.5q-31 0 -121.5 37t-125.5 37q-44 0 -92 -34.5t-89 -96.5z" />
<glyph unicode="&#x2000;" horiz-adv-x="997" vert-adv-y="0" />
<glyph unicode="&#x2001;" horiz-adv-x="1995" vert-adv-y="0" />
<glyph unicode="&#x2002;" horiz-adv-x="997" vert-adv-y="0" />
<glyph unicode="&#x2003;" horiz-adv-x="1995" vert-adv-y="0" />
<glyph unicode="&#x2004;" horiz-adv-x="665" vert-adv-y="0" />
<glyph unicode="&#x2005;" horiz-adv-x="498" vert-adv-y="0" />
<glyph unicode="&#x2006;" horiz-adv-x="332" vert-adv-y="0" />
<glyph unicode="&#x2007;" horiz-adv-x="332" vert-adv-y="0" />
<glyph unicode="&#x2008;" horiz-adv-x="249" vert-adv-y="0" />
<glyph unicode="&#x2009;" horiz-adv-x="399" vert-adv-y="0" />
<glyph unicode="&#x200a;" horiz-adv-x="110" vert-adv-y="0" />
<glyph unicode="&#x2010;" horiz-adv-x="782" d="M154 532v86h475v-86h-475z" />
<glyph unicode="&#x2011;" horiz-adv-x="782" d="M154 532v86h475v-86h-475z" />
<glyph unicode="&#x2012;" horiz-adv-x="782" d="M154 532v86h475v-86h-475z" />
<glyph unicode="&#x2013;" horiz-adv-x="1171" d="M154 608v47h864v-47h-864z" />
<glyph unicode="&#x2014;" horiz-adv-x="3729" d="M154 608v47h3422v-47h-3422z" />
<glyph unicode="&#x2018;" horiz-adv-x="393" d="M63 1016v180l207 367h103l-291 -367h151v-180h-170z" />
<glyph unicode="&#x2019;" horiz-adv-x="425" d="M53 1012l291 366h-151v181h169v-181l-206 -366h-103z" />
<glyph unicode="&#x201a;" horiz-adv-x="382" d="M-33 -373l291 367h-152v180h170v-180l-206 -367h-103z" />
<glyph unicode="&#x201c;" horiz-adv-x="655" d="M63 1016v180l207 367h103l-291 -367h151v-180h-170zM326 1016v180l206 367h103l-291 -367h152v-180h-170z" />
<glyph unicode="&#x201d;" horiz-adv-x="688" d="M53 1010l291 366h-151v180h169v-180l-206 -366h-103zM315 1010l291 366h-151v180h170v-180l-207 -366h-103z" />
<glyph unicode="&#x201e;" horiz-adv-x="645" d="M-33 -373l291 367h-152v180h170v-180l-206 -367h-103zM229 -373l291 367h-151v180h170v-180l-207 -367h-103z" />
<glyph unicode="&#x2022;" horiz-adv-x="430" d="M106 453v247h218v-247h-218z" />
<glyph unicode="&#x2026;" horiz-adv-x="1089" d="M106 -16v190h168v-190h-168zM461 -16v190h168v-190h-168zM815 -16v190h168v-190h-168z" />
<glyph unicode="&#x202f;" horiz-adv-x="399" vert-adv-y="0" />
<glyph unicode="&#x2039;" horiz-adv-x="417" d="M47 547l324 381l-203 -381l203 -381z" />
<glyph unicode="&#x203a;" horiz-adv-x="417" d="M47 166l203 381l-203 381l324 -381z" />
<glyph unicode="&#x205f;" horiz-adv-x="498" vert-adv-y="0" />
<glyph unicode="&#x20ac;" horiz-adv-x="1517" d="M63 700v37h119v23q0 28 4 82h-123v37h127q28 179 132 326t259.5 231t329.5 84q264 3 465 -95v-32l56 -293q-79 192 -207 286t-314 93q-245 0 -410 -166t-198 -434h1055v-37h-1057q-4 -54 -4 -82v-23h1061v-37h-1059q15 -305 186.5 -494.5t440.5 -189.5q189 -2 317 99.5 t215 324.5l-67 -338v-32q-201 -98 -465 -95q-189 0 -354 96t-269 262.5t-119 366.5h-121z" />
<glyph unicode="&#x2122;" horiz-adv-x="1406" d="M27 1319l22 156v20h471v-20l23 -156l-103 154h-123v-447l103 -47h-268l100 47v447h-125zM573 979l101 47v426l-84 43h164l213 -422h10l188 422h168l-92 -47v-422l102 -47h-268l101 47v401h-9l-213 -464l-237 464h-15v-401l103 -47h-232z" />
<glyph unicode="&#x25fc;" horiz-adv-x="1024" d="M0 0v1024h1024v-1024h-1024z" />
<glyph unicode="&#xfb01;" horiz-adv-x="1134" d="M53 0l172 68v870h-172l172 139v164q0 193 132 315.5t339 122.5q120 0 200.5 -40.5t80.5 -98.5q0 -25 -15 -42t-38 -17q-22 0 -44.5 17t-44 41t-46 48t-60 41t-76.5 17q-148 0 -244 -108.5t-96 -305.5v-227h451l162 94v-1030l172 -68h-443l183 68v870h-525v-870l203 -68 h-463z" />
<glyph unicode="&#xfb02;" horiz-adv-x="1232" d="M53 0l172 68v870h-172l172 139v176q0 186 135.5 306t354.5 120q142 0 233 -61l47 24v-1574l203 -68h-496l203 68v1441q-32 56 -103.5 93.5t-144.5 37.5q-154 0 -249 -107.5t-95 -301.5v-227h336v-66h-336v-870l203 -68h-463z" />
<glyph unicode="&#xfb03;" horiz-adv-x="1753" d="M53 0l172 68v870h-172l172 139v115q0 184 130.5 305t330.5 121q74 0 146 -23t118 -63q64 70 158 108.5t207 38.5q120 0 200 -40.5t80 -98.5q0 -25 -15 -42t-38 -17q-22 0 -44 17t-43.5 41t-46 48t-60 41t-76.5 17q-148 0 -244 -108.5t-96 -305.5v-227h450l162 94v-1030 l172 -68h-442l182 68v870h-524v-870l203 -68h-463l172 68v870h-531v-870l203 -68h-463zM313 1004h441l90 73v164q0 110 43 195q-63 74 -121.5 108.5t-132.5 34.5q-137 0 -228.5 -108t-91.5 -302v-165z" />
</font>
</defs>
</svg>
