<?xml version="1.0" standalone="no"?>
<!DOCTYPE svg PUBLIC "-//W3C//DTD SVG 1.1//EN" "http://www.w3.org/Graphics/SVG/1.1/DTD/svg11.dtd" >
<svg xmlns="http://www.w3.org/2000/svg" xmlns:xlink="http://www.w3.org/1999/xlink" version="1.1">
<metadata></metadata>
<defs>
<font id="pp_neue_worldCnRg" horiz-adv-x="864" >
<font-face units-per-em="2048" ascent="1434" descent="-614" />
<missing-glyph horiz-adv-x="301" />
<glyph horiz-adv-x="0" />
<glyph horiz-adv-x="682" />
<glyph unicode=" "  horiz-adv-x="301" />
<glyph unicode="&#x09;" horiz-adv-x="301" />
<glyph unicode="&#xa0;" horiz-adv-x="301" />
<glyph unicode="!" horiz-adv-x="309" d="M57 92q0 47 27 79t72 32q43 0 69.5 -32t26.5 -79q0 -48 -26 -79t-70 -31q-45 0 -72 31t-27 79zM61 1348q0 55 23.5 87.5t71.5 32.5q92 0 92 -120q0 -54 -17.5 -184.5t-35 -333t-17.5 -431.5h-41q0 229 -19 431.5t-38 333t-19 184.5z" />
<glyph unicode="&#x22;" horiz-adv-x="501" d="M55 1354q0 43 20 73.5t58 30.5t59 -30.5t21 -73.5q0 -41 -28.5 -166t-28.5 -234h-41q0 109 -30 234t-30 166zM291 1354q0 43 20 73.5t58 30.5t59 -30.5t21 -73.5q0 -41 -29 -166t-29 -234h-41q0 109 -29.5 234t-29.5 166z" />
<glyph unicode="#" horiz-adv-x="901" d="M61 385v188h207l45 287h-200v189h231l62 385h43l-62 -385h236l61 385h43l-61 -385h174v-189h-205l-47 -287h203v-188h-234l-61 -385h-41l61 385h-237l-62 -385h-41l62 385h-177zM309 573h238l45 287h-236z" />
<glyph unicode="$" horiz-adv-x="712" d="M76 1202q0 103 63.5 168.5t179.5 65.5l35 -2v118h41v-122q112 -19 152 -19l41 -465h-45q-28 224 -63 323t-85 120v-498l29 -57q104 -176 156.5 -302t52.5 -258q0 -135 -67.5 -205.5t-180.5 -70.5h-27v-133h-41v137q-14 2 -42 6.5t-46.5 7t-46 5t-53.5 2.5l-37 493h45 q21 -170 49 -274.5t59 -148.5t72 -52v577l-67 127q-47 82 -69.5 124.5t-51.5 106.5t-41 117.5t-12 108.5zM262 1262q0 -59 22.5 -123.5t69.5 -165.5v422q-43 -1 -67.5 -38t-24.5 -95zM358 41q91 12 91 170q0 138 -91 328v-498z" />
<glyph unicode="%" horiz-adv-x="1155" d="M55 1112q0 165 59 252.5t173 87.5q113 0 172 -87.5t59 -252.5q0 -168 -58.5 -256t-172.5 -88q-113 0 -172.5 88.5t-59.5 255.5zM209 1112q0 -174 14 -238.5t64 -64.5t64 64.5t14 238.5q0 170 -14 234.5t-64 64.5t-64 -64.5t-14 -234.5zM250 0l610 1434h45l-610 -1434h-45 zM635 324q0 166 59.5 254t173.5 88q112 0 172 -88t60 -254t-60 -254t-172 -88q-113 0 -173 88.5t-60 253.5zM791 324q0 -174 14 -237.5t63 -63.5q48 0 62 64.5t14 236.5q0 171 -14 236t-62 65q-49 0 -63 -64t-14 -237z" />
<glyph unicode="&#x26;" horiz-adv-x="899" d="M49 391q0 111 30 209t80.5 168.5t106.5 120.5t119 84q-102 221 -235 420v41h593l37 -486h-41q-12 110 -21 180.5t-21.5 122.5t-22.5 78.5t-28.5 42t-35.5 18.5t-47 3h-360q326 -360 532 -949q43 155 66 355l41 -4q-31 -246 -82 -420q60 -182 106 -375h-200l-21 123 q-104 -141 -266 -141q-150 0 -240 106.5t-90 302.5zM250 420q0 -172 51 -267.5t148 -95.5q104 0 184 127q-84 416 -225 742q-73 -94 -115.5 -213t-42.5 -293z" />
<glyph unicode="'" horiz-adv-x="268" d="M55 1354q0 43 20 73.5t58 30.5t59 -30.5t21 -73.5q0 -41 -28.5 -166t-28.5 -234h-41q0 109 -30 234t-30 166z" />
<glyph unicode="(" horiz-adv-x="538" d="M61 614q0 169 33.5 316t94 259.5t131 197t157.5 153.5l21 -20q-248 -392 -248 -906q0 -513 248 -905l-21 -20q-416 330 -416 925z" />
<glyph unicode=")" horiz-adv-x="538" d="M41 -291q248 392 248 905q0 514 -248 906l20 20q87 -69 157.5 -153.5t131 -197t94 -259.5t33.5 -316q0 -595 -416 -925z" />
<glyph unicode="*" horiz-adv-x="600" d="M62.5 1259q-5.5 20 7.5 41q14 22 36.5 25t40.5 -12q15 -10 33.5 -34.5t46 -55.5t64.5 -56q0 69 -21.5 141t-21.5 89q0 27 14 44t39 17q24 0 38.5 -17t14.5 -44q0 -17 -21.5 -89t-21.5 -141q37 25 64.5 56t46 55.5t33.5 34.5q17 15 39 12t36 -25q13 -21 7.5 -40.5 t-23.5 -32.5q-15 -10 -79 -27.5t-113 -48.5q49 -31 113 -48.5t79 -27.5q18 -13 23.5 -33t-7.5 -41q-14 -22 -36 -24.5t-39 12.5q-15 10 -33.5 34.5t-46 55.5t-64.5 56q0 -69 21.5 -141t21.5 -89q0 -27 -14.5 -44t-38.5 -17q-25 0 -39 17t-14 44q0 17 21.5 89t21.5 141 q-37 -25 -64.5 -56t-46 -55.5t-33.5 -34.5q-18 -15 -40.5 -12.5t-36.5 24.5q-13 21 -7 41.5t25 32.5q14 11 78.5 28t112.5 48q-48 31 -112.5 48t-78.5 28q-20 12 -25.5 32z" />
<glyph unicode="+" horiz-adv-x="595" d="M102 492v40h174v175h41v-175h175v-40h-175v-175h-41v175h-174z" />
<glyph unicode="," horiz-adv-x="305" d="M55 111q0 43 26.5 67.5t65.5 24.5q47 0 75 -30t28 -89q0 -140 -150 -322l-28 29q52 70 68 103.5t16 62.5q0 24 -16 42t-34.5 28t-34.5 31.5t-16 52.5z" />
<glyph unicode="-" horiz-adv-x="610" d="M61 492v40h488v-40h-488z" />
<glyph unicode="." horiz-adv-x="299" d="M51 92q0 47 28 79t71 32q45 0 71.5 -32t26.5 -79q0 -48 -26.5 -79t-71.5 -31q-44 0 -71.5 31t-27.5 79z" />
<glyph unicode="/" horiz-adv-x="409" d="M20 -410l328 1844h41l-328 -1844h-41z" />
<glyph unicode="0" horiz-adv-x="808" d="M61 717q0 164 16.5 290t46 209.5t73 137t94 76t112.5 22.5q78 0 138.5 -37t108 -119.5t73 -228.5t25.5 -350q0 -203 -25 -348.5t-72.5 -228.5t-108 -120.5t-139.5 -37.5q-78 0 -138 37.5t-107 121t-72 228.5t-25 348zM264 717q0 -276 14 -426t43 -209t82 -59t83 58.5 t45.5 210t15.5 425.5t-15.5 425.5t-45.5 210t-83 58.5q-52 0 -81 -59t-43.5 -210t-14.5 -425z" />
<glyph unicode="1" horiz-adv-x="477" d="M16 1163v41q137 6 201.5 57.5t110.5 190.5h20v-1266q0 -96 17 -124t79 -42v-20h-370v20q42 10 60 23t26 44.5t8 98.5v856q0 75 -27 98t-125 23z" />
<glyph unicode="2" horiz-adv-x="681" d="M25 0v41q14 30 42 89q184 385 251 564q116 308 116 529q0 99 -25.5 143.5t-89.5 44.5q-37 0 -62.5 -15.5t-52.5 -62t-49.5 -141.5t-41.5 -244h-41l39 475q32 0 101.5 14.5t125.5 14.5q297 0 297 -289q0 -77 -16 -156.5t-37.5 -146.5t-64.5 -150t-76.5 -140t-94.5 -144 t-97.5 -135t-105.5 -139h236q36 0 56 3t42.5 16t35 37t26.5 68.5t24.5 107.5t22.5 157h41l-49 -541h-553z" />
<glyph unicode="3" horiz-adv-x="694" d="M41 541h41q20 -167 42 -273t48.5 -158t51.5 -69.5t61 -17.5q77 0 116 113.5t39 312.5q0 350 -121 350q-31 0 -58.5 -18t-67.5 -56l-27 33q113 141 167 256.5t54 261.5q0 135 -88 135q-33 0 -57 -16.5t-49 -63.5t-47 -141.5t-42 -241.5h-41l37 475q36 0 112 14.5t130 14.5 q233 0 233 -205q0 -256 -227 -399q60 14 113 -3t95.5 -64t67.5 -133.5t25 -203.5q0 -228 -100 -345t-258 -117q-55 0 -117.5 14t-93.5 14z" />
<glyph unicode="4" horiz-adv-x="786" d="M39 358v41l377 1065h20q37 -39 76.5 -53.5t97.5 -17.5v-887h138v-148h-138v-172q0 -67 7.5 -98.5t24 -44.5t54.5 -23v-20h-356v20q39 10 55.5 23t23.5 44.5t7 98.5v172h-387zM133 506h293v856z" />
<glyph unicode="5" horiz-adv-x="688" d="M45 541h41q27 -219 56 -334t58.5 -149.5t75.5 -34.5q38 0 65.5 23.5t50.5 80t34.5 163t11.5 261.5q0 170 -17.5 269t-47.5 135t-78 36q-56 0 -102 -55t-93 -182h-41l64 680h446v-148h-422l-30 -330q5 3 34 23.5t47 30.5t57 21t83 11q65 0 119 -27.5t97 -85t67 -156.5 t24 -232q0 -124 -18.5 -221.5t-49.5 -160t-74 -103t-90 -57.5t-100 -17q-63 0 -132 14t-97 14z" />
<glyph unicode="6" horiz-adv-x="772" d="M45 682q0 367 102.5 568.5t286.5 201.5q46 0 107 -14.5t94 -14.5l33 -399h-43q-8 100 -22.5 172.5t-31 113.5t-38.5 64.5t-40.5 30t-43.5 6.5q-52 0 -89 -44t-58 -126t-31.5 -176.5t-14.5 -218.5q97 100 215 100q110 0 183 -112.5t73 -337.5q0 -264 -89 -389t-243 -125 q-350 0 -350 700zM254 633q0 -248 15 -382t43 -181t79 -47q46 0 72.5 37t40.5 135.5t14 275.5q0 156 -13.5 245t-38.5 122.5t-67 33.5q-61 0 -143 -71q-2 -55 -2 -168z" />
<glyph unicode="7" horiz-adv-x="729" d="M43 948l43 486h629v-41q-88 -143 -142 -261t-96.5 -279t-60 -365t-17.5 -488h-202q0 398 88.5 710t306.5 578h-328q-26 0 -39.5 -1t-31.5 -5.5t-26.5 -13t-20.5 -26t-18.5 -41t-15 -60.5t-14.5 -83t-14 -110h-41z" />
<glyph unicode="8" horiz-adv-x="796" d="M49 285q0 -142 90 -226t254 -84q165 0 260 87.5t95 238.5q0 68 -14 124.5t-51.5 118.5t-69.5 105t-102 128q-24 29 -36 44q109 97 167 188.5t58 194.5q0 115 -79 184.5t-213 69.5q-152 0 -237 -73.5t-85 -194.5q0 -62 15 -115.5t51 -108t71.5 -96.5t98.5 -108 q-132 -123 -202.5 -235.5t-70.5 -241.5zM229 281q0 243 136 428q167 -216 167 -447q0 -246 -147 -246q-75 0 -115.5 74.5t-40.5 190.5zM295 1231q0 88 31 137t90 49q58 0 86 -55.5t28 -142.5q0 -78 -27 -172t-75 -168q-133 170 -133 352zM322 762q2 -2 6 -7t6 -7l31 -39 q32 40 63 71l47 41q0 2 -4 6q-16 16 -43 52q-39 -56 -76 -88z" />
<glyph unicode="9" horiz-adv-x="772" d="M45 938q0 264 89 389t243 125q350 0 350 -700q0 -367 -102.5 -568.5t-286.5 -201.5q-46 0 -107 14t-94 14l-33 400h43q8 -100 22.5 -172.5t31 -113.5t38.5 -64.5t41 -30t44 -6.5q52 0 88.5 43.5t57.5 126t31.5 176.5t14.5 219q-98 -101 -215 -101q-110 0 -183 113 t-73 338zM254 963q0 -156 13.5 -245t38.5 -123t67 -34q60 0 143 72q2 55 2 168q0 248 -15 382t-43 181t-79 47q-46 0 -72.5 -37t-40.5 -135.5t-14 -275.5z" />
<glyph unicode=":" horiz-adv-x="299" d="M51 92q0 47 28 79t71 32q45 0 71.5 -32t26.5 -79q0 -48 -26.5 -79t-71.5 -31q-44 0 -71.5 31t-27.5 79zM51 879q0 47 27.5 78.5t71.5 31.5q45 0 71.5 -31.5t26.5 -78.5q0 -48 -26.5 -79.5t-71.5 -31.5q-44 0 -71.5 31.5t-27.5 79.5z" />
<glyph unicode=";" horiz-adv-x="389" d="M51 879q0 47 27.5 78.5t71.5 31.5q45 0 71.5 -31.5t26.5 -78.5q0 -48 -26.5 -79.5t-71.5 -31.5q-44 0 -71.5 31.5t-27.5 79.5zM59 111q0 42 27 67t66 25q46 0 74 -30t28 -89q0 -140 -150 -322l-28 29q52 70 68 103.5t16 62.5q0 24 -16 42t-34.5 28t-34.5 31.5t-16 52.5z " />
<glyph unicode="&#x3c;" horiz-adv-x="595" d="M102 475v74l392 233v-49l-371 -221l371 -219v-49z" />
<glyph unicode="=" horiz-adv-x="661" d="M102 385v41h469v-41h-469zM102 598v41h469v-41h-469z" />
<glyph unicode="&#x3e;" horiz-adv-x="595" d="M102 244v49l371 219l-371 221v49l392 -233v-74z" />
<glyph unicode="?" horiz-adv-x="600" d="M55 926l37 497q43 0 107 14.5t118 14.5q228 0 228 -199q0 -53 -14.5 -102.5t-43.5 -94t-51 -71.5t-57 -65q-82 -89 -106.5 -186.5t-24.5 -334.5h-41q0 277 10 382t49 202q29 82 39 111t21.5 86.5t11.5 111.5q0 60 -15 89.5t-49 29.5q-29 0 -50.5 -16t-45 -63t-44 -148 t-38.5 -258h-41zM127 88q0 46 28 77.5t72 31.5t71.5 -31.5t27.5 -77.5q0 -48 -27.5 -80.5t-71.5 -32.5t-72 32.5t-28 80.5z" />
<glyph unicode="@" horiz-adv-x="1396" d="M61 455q0 184 51 348.5t141 287t223 194.5t288 73q144 1 255 -57t179 -161t102.5 -237t34.5 -293q0 -282 -81 -447t-203 -165q-79 0 -127.5 49t-57.5 133q-83 -145 -229 -145q-50 0 -92 14t-80.5 48.5t-64 88t-39 138.5t-9.5 194q10 231 109 368.5t235 137.5 q80 0 131 -42t88 -136q54 65 54 178h41v-698q0 -118 18 -175t70 -57q78 0 136 145t58 371q0 116 -17 217.5t-57 192.5t-100 156t-150.5 103t-203.5 38q-146 0 -268.5 -69.5t-204 -188t-127 -274.5t-45.5 -330q0 -186 45.5 -331.5t128 -238t194 -140.5t246.5 -48 q104 0 187.5 22t146.5 66t107.5 91.5t91.5 115.5l32 -21q-41 -72 -89 -128.5t-115.5 -105.5t-159 -75.5t-201.5 -26.5q-144 0 -264 49.5t-212 147t-144 257t-52 366.5zM512 545q-11 -212 31 -329.5t137 -117.5q53 0 93.5 32t90.5 106v387q0 84 -9 148t-23.5 102.5t-35 62.5 t-40.5 32.5t-43 8.5q-176 0 -201 -432z" />
<glyph unicode="A" horiz-adv-x="876" d="M20 0v20q54 14 75.5 42.5t39.5 119.5l203 1145l-10 59v21q65 0 98 8t66 37h20l229 -1270q18 -91 40 -119.5t75 -42.5v-20h-397v20q39 7 58 14.5t29.5 26t9 45t-10.5 76.5l-37 201h-297l-35 -201q-9 -51 -10.5 -77t8.5 -44.5t29 -26t59 -14.5v-20h-242zM219 424h283 l-144 790z" />
<glyph unicode="B" horiz-adv-x="821" d="M51 0v20q37 10 52.5 23t22.5 44.5t7 98.5v1061q0 67 -7 98.5t-22.5 44.5t-52.5 23v21h109q72 1 153.5 9.5t120.5 8.5q141 0 215 -81t74 -259q0 -263 -186 -330q237 -71 237 -405q0 -395 -338 -395q-42 0 -122.5 8.5t-153.5 9.5h-109zM317 35q43 -12 78 -12q90 0 134 78 t44 272q0 389 -170 389q-38 0 -86 10v-737zM317 813q38 -10 68 -10q74 0 110.5 71t36.5 238q0 117 -17.5 184.5t-47 91t-76.5 23.5q-32 0 -74 -10v-588z" />
<glyph unicode="C" horiz-adv-x="792" d="M51 748q0 187 31.5 325t90 219.5t135 120.5t173.5 39q50 0 111 -11t92 -11l37 -494h-41q-16 152 -35 247.5t-44.5 145t-52.5 66t-67 16.5q-104 0 -162.5 -157t-58.5 -486q0 -319 64 -501.5t168 -182.5q43 0 75.5 21.5t63.5 75t53.5 154t36.5 249.5l41 -4 q-16 -180 -43.5 -298.5t-69 -183.5t-91 -90.5t-118.5 -25.5q-179 0 -284 199t-105 567z" />
<glyph unicode="D" horiz-adv-x="858" d="M51 0v20q37 10 52.5 23t22.5 44.5t7 98.5v1061q0 67 -7 98.5t-22.5 44.5t-52.5 23v21h109q47 1 130 9.5t120 8.5q397 0 397 -745q0 -174 -23 -306t-59.5 -210t-90 -126.5t-107 -65.5t-117.5 -17q-37 0 -120 8.5t-130 9.5h-109zM317 35q47 -12 78 -12q36 0 64 15.5 t55.5 60.5t45.5 119t29 198t11 291q0 209 -16 352.5t-45.5 217.5t-64 104t-79.5 30q-31 0 -78 -12v-1364z" />
<glyph unicode="E" horiz-adv-x="757" d="M51 0v20q37 10 52.5 23t22.5 44.5t7 98.5v1061q0 67 -7 98.5t-22.5 44.5t-52.5 23v21h617l39 -498h-41q-13 112 -23 185.5t-22.5 126.5t-23 80.5t-29.5 43t-36 18.5t-47 3h-168v-613h113q40 0 54 12q14 14 18 62q2 16 2 37q0 43 -6 108h41l39 -503h-41q-19 165 -29 196 q-12 37 -42 44q-16 3 -42 3h-107v-698h183q29 0 45.5 3.5t35 19t29.5 44.5t24 82.5t23 129.5t23 190h41l-37 -510h-633z" />
<glyph unicode="F" horiz-adv-x="745" d="M51 0v20q37 10 52.5 23t22.5 44.5t7 98.5v1061q0 67 -7 98.5t-22.5 44.5t-52.5 23v21h633l37 -510h-41q-13 116 -23.5 191t-24 130t-24.5 82.5t-31.5 43.5t-38.5 19t-51 3h-170v-648h125q34 0 49.5 6.5t25.5 28.5q8 18 8 51q-1 9 -1 17q-2 44 -4 119h41l41 -504h-43v1v2 q-18 160 -32 194q-14 37 -52 43q-14 2 -39 2h-119v-519q0 -67 7 -98.5t22 -44.5t51 -23v-20h-346z" />
<glyph unicode="G" horiz-adv-x="866" d="M51 743q0 191 32 331t91 221t133.5 119t167.5 38q48 0 118.5 -11t106.5 -11l37 -494h-39q-29 203 -60 307t-65 136t-90 32q-71 0 -119 -61t-76 -206.5t-28 -375.5q0 -212 15.5 -358t46.5 -227t70.5 -115.5t94.5 -34.5q50 0 86 8v477q0 66 -5.5 102.5t-25.5 61t-50 34.5 t-86 17v41l419 -35v-41q-26 0 -42 -15t-22.5 -48.5t-7.5 -56.5t-1 -70v-508q-64 0 -150.5 -9t-136.5 -9q-414 0 -414 761z" />
<glyph unicode="H" horiz-adv-x="931" d="M51 0v20q37 10 52.5 23t22.5 44.5t7 98.5v1061q0 67 -7 98.5t-22.5 44.5t-52.5 23v21h346v-21q-36 -10 -51 -23t-22 -44.5t-7 -98.5v-504h299v504q0 67 -6.5 98.5t-22 44.5t-52.5 23v21h346v-21q-36 -10 -51 -23t-22 -44.5t-7 -98.5v-1061q0 -67 7 -98.5t22 -44.5t51 -23 v-20h-346v20q37 10 52.5 23t22 44.5t6.5 98.5v516h-299v-516q0 -67 7 -98.5t22 -44.5t51 -23v-20h-346z" />
<glyph unicode="I" horiz-adv-x="448" d="M51 0v20q37 10 52.5 23t22.5 44.5t7 98.5v1061q0 67 -7 98.5t-22.5 44.5t-52.5 23v21h346v-21q-36 -10 -51 -23t-22 -44.5t-7 -98.5v-1061q0 -67 7 -98.5t22 -44.5t51 -23v-20h-346z" />
<glyph unicode="J" horiz-adv-x="532" d="M31 516h41q29 -207 55.5 -317t49.5 -143t56 -33q64 0 64 110q0 48 -28.5 164.5t-28.5 202.5v747q0 67 -7 98.5t-22 44.5t-51 23v21h344v-21q-36 -10 -51 -23t-22 -44.5t-7 -98.5v-958q0 -75 -7 -126t-26.5 -94.5t-57 -65t-95.5 -21.5q-43 0 -92 17t-76 17z" />
<glyph unicode="K" horiz-adv-x="960" d="M51 0v20q37 10 52.5 23t22.5 44.5t7 98.5v1061q0 67 -7 98.5t-22.5 44.5t-52.5 23v21h346v-21q-36 -10 -51 -23t-22 -44.5t-7 -98.5v-542l322 612q25 39 25 60q0 5 -2 9q-8 20 -72 21v27h254v-27q-66 0 -97.5 -20.5t-62.5 -75.5l-182 -355l293 -782q31 -85 59.5 -112 t85.5 -42v-20h-412v20q74 14 82 38q2 5 1 12q0 30 -27 104l-203 547l-64 -125v-410q0 -67 7 -98.5t22 -44.5t51 -23v-20h-346z" />
<glyph unicode="L" horiz-adv-x="735" d="M51 0v20q37 10 52.5 23t22.5 44.5t7 98.5v1061q0 67 -7 98.5t-22.5 44.5t-52.5 23v21h346v-21q-36 -10 -51 -23t-22 -44.5t-7 -98.5v-1206h162q33 0 51.5 3.5t39 19.5t31.5 43.5t24.5 83t24 129.5t24.5 190h41l-37 -510h-627z" />
<glyph unicode="M" horiz-adv-x="1193" d="M41 0v20q53 14 69.5 42.5t22.5 123.5l64 1061q2 30 2 53q0 30 -3 46q-5 30 -20.5 43.5t-54.5 23.5v21h278l203 -1031l191 1031h272v-21q-39 -10 -54.5 -23.5t-20.5 -43.5q-3 -17 -3 -46q0 -23 2 -53l70 -1061q7 -95 24 -123.5t70 -42.5v-20h-358v20q40 10 55 22t22 46 q4 17 4 41.5t-4 56.5l-69 1069l-234 -1255h-86l-243 1255l-66 -1069q-2 -30 -2 -53q0 -29 3 -45q5 -30 21.5 -44t57.5 -24v-20h-213z" />
<glyph unicode="N" horiz-adv-x="829" d="M45 1413v21h279l364 -1100v913q0 67 -7 98.5t-22.5 44.5t-52.5 23v21h203v-21q-36 -10 -51 -23t-22 -44.5t-7 -98.5v-1247h-123l-436 1251v-1065q0 -67 7 -98.5t22 -44.5t51 -23v-20h-201v20q36 10 51 23t22 44.5t7 98.5v1162q-12 21 -26 33.5t-25.5 18.5t-32.5 13z" />
<glyph unicode="O" d="M51 717q0 376 102 555.5t279 179.5q176 0 278.5 -179t102.5 -556q0 -378 -102 -556.5t-279 -178.5t-279 179.5t-102 555.5zM260 717q0 -266 19 -419t55 -214t98 -61q63 0 99 61.5t54.5 213.5t18.5 419q0 268 -18.5 420t-54.5 213t-99 61q-62 0 -98 -61t-55 -214t-19 -419 z" />
<glyph unicode="P" horiz-adv-x="798" d="M51 0v20q37 10 52.5 23t22.5 44.5t7 98.5v1061q0 67 -7 98.5t-22.5 44.5t-52.5 23v21h109q72 1 148 9.5t112 8.5q57 0 103 -10.5t94 -41.5t80 -82.5t52.5 -139.5t20.5 -205q0 -111 -18 -200t-49 -148.5t-74 -99t-91 -57t-102 -17.5q-55 0 -119 20v-285q0 -67 9 -98.5 t28.5 -44.5t65.5 -23v-20h-369zM317 516q39 -24 80 -24q36 0 63.5 17.5t53 64t39.5 142.5t14 238q0 114 -10 197.5t-25.5 132.5t-39 78.5t-47.5 39t-54 9.5q-32 0 -74 -10v-885z" />
<glyph unicode="Q" d="M51 717q0 376 102 555.5t279 179.5q176 0 278.5 -179t102.5 -556q0 -378 -102 -556.5t-279 -178.5h-14l39 -39t45.5 -42.5t44 -24.5t61.5 -13q86 0 135 114l29 -10q-11 -45 -24.5 -79.5t-35.5 -69t-56 -53.5t-78 -19q-45 0 -82 19.5t-60 49t-46 63.5t-42 63.5t-47.5 49 t-62.5 19.5q-82 0 -144 -112l-22 16q74 127 166 139q-187 159 -187 664zM260 717q0 -266 19 -419t55 -214t98 -61q63 0 99 61.5t54.5 213.5t18.5 419q0 268 -18.5 420t-54.5 213t-99 61q-62 0 -98 -61t-55 -214t-19 -419z" />
<glyph unicode="R" horiz-adv-x="854" d="M51 0v20q37 10 52.5 23t22.5 44.5t7 98.5v1061q0 67 -7 98.5t-22.5 44.5t-52.5 23v21h109q77 1 158.5 9.5t113.5 8.5q135 0 210 -72t75 -239q0 -130 -54 -216.5t-149 -119.5q102 -24 144 -108.5t51 -272.5q9 -235 17.5 -295.5t35.5 -60.5q21 0 29 25t14 114l41 -4 q-5 -117 -38.5 -169t-109.5 -52q-93 0 -128 79t-46 291q-3 64 -5.5 106t-6 89.5t-7.5 76.5t-10.5 59.5t-14.5 47t-18.5 31t-24.5 20.5t-31 6h-3q-33 0 -86 9v-611q0 -67 7 -98.5t22 -44.5t51 -23v-20h-346zM317 840q37 -11 72 -11q137 0 137 308q0 143 -33.5 208.5 t-101.5 65.5q-40 0 -74 -10v-561z" />
<glyph unicode="S" horiz-adv-x="684" d="M43 1219q0 103 71.5 168t202.5 65q46 0 125 -11t125 -11l39 -494h-41q-23 195 -53.5 299.5t-67.5 140t-96 35.5q-57 0 -87 -38.5t-30 -102.5q0 -25 4.5 -51.5t16 -58.5t21 -55.5t30.5 -65t33 -63.5t40.5 -73t41.5 -74q53 -87 83 -141.5t68 -134.5t56 -152.5t18 -142.5 q0 -141 -72 -208.5t-202 -67.5q-51 0 -140 11t-139 11l-37 506h41q17 -146 41 -244t55.5 -150t64.5 -72.5t77 -20.5q125 0 125 176q0 26 -3.5 53.5t-7.5 49.5t-15 53.5t-16.5 49.5t-23.5 55t-24.5 51.5t-29.5 57t-29.5 53.5t-34 60t-33.5 59q-15 27 -48.5 85.5t-48 85.5 t-38.5 75.5t-34.5 80t-19 72.5t-8.5 79z" />
<glyph unicode="T" horiz-adv-x="804" d="M31 936l39 498h667l37 -498h-41q-12 108 -22 178t-21.5 124t-22.5 82.5t-28 46t-34.5 22t-45.5 4.5h-63v-1207q0 -67 6.5 -98.5t21.5 -44.5t51 -23v-20h-346v20q37 10 52.5 23t22.5 44.5t7 98.5v1207h-65q-55 0 -81.5 -29.5t-47 -121.5t-45.5 -306h-41z" />
<glyph unicode="U" horiz-adv-x="847" d="M29 1413v21h346v-21q-37 -10 -52.5 -23t-22.5 -44.5t-7 -98.5v-837q0 -181 48.5 -262.5t152.5 -81.5t154 82t50 255v844q0 67 -7 98.5t-22 44.5t-51 23v21h201v-21q-36 -10 -51 -23t-22 -44.5t-7 -98.5v-866q0 -197 -73 -298t-230 -101q-159 0 -243 105.5t-84 322.5v837 q0 67 -7 98.5t-22 44.5t-51 23z" />
<glyph unicode="V" horiz-adv-x="913" d="M20 1413v21h394v-21q-37 -7 -54 -14t-25.5 -25.5t-6 -44.5t13.5 -78l193 -929l196 929q11 52 13.5 78t-6 44.5t-25.5 25.5t-54 14v21h234v-21q-55 -14 -77.5 -42t-43.5 -120l-274 -1269h-80l-277 1269q-21 92 -43.5 120t-77.5 42z" />
<glyph unicode="W" horiz-adv-x="1271" d="M20 1413v21h861v-27q-43 -6 -66.5 -39.5t-40.5 -114.5l-35 -168l156 -774l195 942q12 52 12 84q0 19 -4 31q-11 33 -64 39v27h217v-21q-37 -10 -55 -22t-34 -44t-29 -96l-269 -1269h-90l-135 628l-133 -628h-92l-273 1269q-21 92 -43.5 120t-77.5 42zM340 1368 q-5 -17 -4 -40q0 -31 8 -75l193 -942l81 396l-118 546q-18 83 -41 118.5t-62 35.5q-45 -1 -57 -39zM694 1352q-1 -6 -1 -13q0 -32 12 -86l12 -61l12 61q12 56 12 89v8q-2 34 -22 47q-22 -12 -25 -45z" />
<glyph unicode="X" horiz-adv-x="876" d="M20 0v20q58 15 86 42t58 114l182 510l-186 571q-20 60 -40.5 91.5t-40.5 43t-59 21.5v21h396v-21q-66 -13 -74 -39q-1 -5 -2 -12q0 -31 25 -105l143 -442l154 442q27 74 27 105q0 8 -2 12q-8 26 -75 39v21h234v-21q-55 -15 -83 -42.5t-58 -113.5l-177 -505l189 -576 q29 -86 56.5 -113.5t82.5 -42.5v-20h-395v20q67 12 75 38q1 5 1 13q0 31 -25 105l-145 445l-158 -445q-28 -78 -28 -108q0 -6 1 -10q7 -24 74 -38v-20h-236z" />
<glyph unicode="Y" horiz-adv-x="860" d="M20 1413v21h402v-21q-29 -6 -44 -12t-25.5 -15t-10.5 -27.5t4.5 -41t15.5 -64.5l156 -565l152 565q17 67 17.5 95.5t-16 41.5t-63.5 23v21h232v-21q-38 -10 -57 -22t-36.5 -43.5t-33.5 -94.5l-172 -663v-404q0 -67 7 -98.5t22 -44.5t51 -23v-20h-347v20q36 10 51 23 t22 44.5t7 98.5v377l-200 692q-18 61 -37.5 93t-38.5 43.5t-58 21.5z" />
<glyph unicode="Z" horiz-adv-x="772" d="M72 0v41l409 1352h-159q-32 0 -50.5 -4t-38.5 -20t-32 -44t-25.5 -80.5t-24.5 -125.5t-24 -183h-41l43 498h561v-41l-409 -1352h176q31 0 49 4t38.5 20t32.5 45.5t25.5 82.5t25 129t23.5 188h41l-41 -510h-579z" />
<glyph unicode="[" horiz-adv-x="462" d="M68 -311v1851h352v-41h-170v-1769h170v-41h-352z" />
<glyph unicode="\" horiz-adv-x="409" d="M20 1434h41l328 -1844h-41z" />
<glyph unicode="]" horiz-adv-x="462" d="M43 -270h170v1769h-170v41h352v-1851h-352v41z" />
<glyph unicode="^" horiz-adv-x="593" d="M61 954l203 480h64l204 -480h-45l-190 449l-191 -449h-45z" />
<glyph unicode="_" horiz-adv-x="681" d="M61 -123h560v-41h-560v41z" />
<glyph unicode="`" horiz-adv-x="569" d="M131 1253q0 31 12 54.5t35.5 37t66 5.5t97.5 -39l158 -92l-6 -27z" />
<glyph unicode="a" horiz-adv-x="841" d="M61 387q0 206 75.5 306t193.5 100q143 0 202 -160v63q0 171 -33.5 238t-113.5 67q-151 0 -240 -194h-43l74 205q36 0 116.5 15t129.5 15q137 0 213 -83t76 -257v-489q0 -101 12 -119q6 -9 25.5 -9t52.5 9l10 -18l-133 -66q-53 -26 -88 -26q-58 0 -58 71v88 q-63 -161 -204 -161q-116 0 -191.5 100.5t-75.5 304.5zM250 387q0 -156 35.5 -237.5t103.5 -81.5q65 0 104 80.5t39 238.5q0 159 -39 239.5t-102 80.5q-69 0 -105 -81.5t-36 -238.5z" />
<glyph unicode="b" horiz-adv-x="821" d="M25 1395v20h120q89 3 127 49h21v-544q43 61 93 91.5t118 30.5q119 0 187.5 -129.5t68.5 -375.5q0 -260 -81 -407.5t-218 -147.5q-94 0 -144.5 63.5t-80.5 210.5q-28 -49 -45 -108.5t-35 -165.5h-41v1247q0 67 -8 98t-25 44t-57 24zM293 350q3 -142 40.5 -221.5 t92.5 -79.5q48 0 78 44t45.5 147.5t15.5 275.5q0 244 -31.5 344.5t-103.5 100.5q-35 0 -66.5 -22.5t-70.5 -74.5v-514z" />
<glyph unicode="c" horiz-adv-x="716" d="M61 524q0 242 93 380t258 138q45 0 104 -14t88 -14l37 -348h-41q-15 106 -33.5 176t-41.5 103t-44 44.5t-49 11.5q-59 0 -99 -56t-58.5 -151t-18.5 -225q0 -103 10 -188.5t31.5 -155.5t59.5 -109.5t89 -39.5q145 0 189 317l41 -4q-16 -115 -44.5 -195.5t-67.5 -126 t-83.5 -65.5t-99.5 -20q-156 0 -238 138.5t-82 403.5z" />
<glyph unicode="d" horiz-adv-x="823" d="M61 487q0 257 79.5 406t209.5 149q64 0 107.5 -28t72.5 -88v295q0 67 -8 98t-25 44t-57 23v21l121 2q89 3 127 49h21v-1247q0 -67 8 -98.5t25 -44.5t57 -23v-20h-121q-91 -7 -127 -52h-21v129q-85 -120 -211 -120q-118 0 -188 130.5t-70 374.5zM256 508q0 -243 33 -344 t104 -101q34 0 65.5 22t71.5 71v518q-1 142 -39.5 221.5t-93.5 79.5q-73 0 -107 -106.5t-34 -360.5z" />
<glyph unicode="e" horiz-adv-x="731" d="M61 524q0 245 88 381.5t242 136.5q131 0 205 -104t74 -289h-414v-45q0 -115 11 -209t34.5 -166.5t62.5 -112.5t91 -40q64 0 116.5 72.5t79.5 244.5l41 -4q-16 -117 -45.5 -199t-70.5 -126t-86.5 -63t-100.5 -19q-159 0 -243.5 140.5t-84.5 401.5zM258 690h236 q0 163 -26.5 237t-78.5 74q-62 0 -93.5 -79t-37.5 -232z" />
<glyph unicode="f" horiz-adv-x="485" d="M18 983v41h175q-160 87 -160 252q0 86 53.5 131t146.5 45q51 0 104 -14.5t79 -14.5l49 -327h-41q-28 132 -54.5 202.5t-51 91.5t-60.5 21t-58 -32.5t-22 -100.5q0 -97 54 -175.5t133 -78.5h67v-41q-81 0 -102 -16.5t-21 -77.5v-703q0 -67 11 -98.5t34.5 -44.5t77.5 -23 v-20h-391v20q40 10 57 23t25 44.5t8 98.5v703q0 62 -18.5 78t-94.5 16z" />
<glyph unicode="g" horiz-adv-x="745" d="M49 578q0 222 81.5 346.5t238.5 124.5q56 0 108 -19q29 65 69.5 106.5t100.5 69.5l60 -106q-78 -8 -121.5 -26.5t-73.5 -59.5q174 -98 174 -436q0 -224 -80.5 -348t-236.5 -124q-97 0 -168 50q-33 -26 -33 -50q0 -28 41.5 -51t173.5 -73q170 -64 219 -94q80 -48 90 -122 q2 -13 2 -28q0 -89 -76 -136.5t-184 -47.5q-119 0 -185.5 41t-66.5 116q0 56 38 97.5t102 64.5q-147 50 -206 88t-59 92q0 46 30 75.5t83 51.5q-121 121 -121 398zM240 578q0 -226 28 -328.5t101 -102.5q72 0 99.5 103t27.5 328t-27.5 327.5t-99.5 102.5q-74 0 -101.5 -102 t-27.5 -328zM287 -283q0 -123 147 -123q68 0 104.5 28.5t36.5 74.5q0 53 -37 79.5t-159 73.5q-92 -45 -92 -133z" />
<glyph unicode="h" d="M25 0v20q40 10 57 23t25 44.5t8 98.5v1031q0 67 -8 98t-25 44t-57 23v21h120q84 6 127 49h21v-551q119 141 252 141q98 0 147 -59t49 -188v-609q0 -67 8 -98.5t25 -44.5t57 -23v-20h-356v20q40 10 57 23t25 44.5t8 98.5v637q0 142 -88 142q-44 0 -87 -30.5t-97 -88.5 v-660q0 -67 8 -98.5t25 -44.5t57 -23v-20h-358z" />
<glyph unicode="i" horiz-adv-x="419" d="M31 0v20q40 10 57 23t25 44.5t8 98.5v621q0 67 -8 98.5t-25 44.5t-57 23v20h121q87 7 127 49h20v-856q0 -67 8 -98.5t25 -44.5t57 -23v-20h-358zM70 1321q0 57 39 95t96 38t96 -38t39 -95t-39 -95t-96 -38t-96 38t-39 95z" />
<glyph unicode="j" horiz-adv-x="415" d="M-61 -31h41q17 -121 34.5 -196.5t36 -108.5t33.5 -42t37 -9q34 0 46.5 37t12.5 110q0 72 -29.5 179t-29.5 184v688q0 67 -8 98.5t-25 44.5t-57 23v20l121 2q82 3 124 50h21v-1117q0 -62 -1.5 -101t-6.5 -85.5t-15.5 -73.5t-28.5 -52.5t-46 -36.5t-66 -11q-37 0 -84 14.5 t-74 14.5zM63 1321q0 57 39.5 95t96.5 38t96 -38t39 -95t-39 -95t-96 -38t-96.5 38t-39.5 95z" />
<glyph unicode="k" horiz-adv-x="925" d="M25 0v20q40 10 57 23t25 44.5t8 98.5v1031q0 67 -8 98t-25 44t-57 23v21h120q84 6 127 49h21v-963l278 422q30 43 30 62q1 5 -1 8q-10 16 -84 16v27h283v-27q-69 0 -108 -19t-75 -75l-110 -170l235 -561q35 -84 67 -110.5t95 -41.5v-20h-411v20q25 5 39.5 8.5t24 12.5 t12 16t-1.5 26t-10.5 36.5t-20.5 52.5l-152 375l-90 -137v-224q0 -67 8 -98.5t25 -44.5t57 -23v-20h-358z" />
<glyph unicode="l" horiz-adv-x="407" d="M25 0v20q40 10 57 23t25 44.5t8 98.5v1031q0 67 -8 98t-25 44t-57 23v21h120q84 6 127 49h21v-1266q0 -67 8 -98.5t25 -44.5t57 -23v-20h-358z" />
<glyph unicode="m" horiz-adv-x="1245" d="M25 0v20q40 10 57 23t25 44.5t8 98.5v621q0 67 -8 98.5t-25 44.5t-57 23v20h120q84 6 127 49h21v-141q108 141 235 141q142 0 170 -151q119 151 246 151q88 0 133 -58t45 -185v-613q0 -67 8 -98.5t25 -44.5t57 -23v-20h-358v20q40 10 57 23t25 44.5t8 98.5v641 q0 72 -16 105t-51 33q-70 0 -172 -117q2 -14 2 -49v-613q0 -67 8 -98.5t25 -44.5t57 -23v-20h-357v20q40 10 57 23t25 44.5t8 98.5v641q0 138 -69 138q-75 0 -168 -117v-662q0 -67 8 -98.5t25 -44.5t57 -23v-20h-358z" />
<glyph unicode="n" d="M25 0v20q40 10 57 23t25 44.5t8 98.5v621q0 67 -8 98.5t-25 44.5t-57 23v20h120q84 6 127 49h21v-141q119 141 252 141q98 0 147 -59t49 -188v-609q0 -67 8 -98.5t25 -44.5t57 -23v-20h-356v20q40 10 57 23t25 44.5t8 98.5v637q0 142 -88 142q-44 0 -87 -30.5t-97 -88.5 v-660q0 -67 8 -98.5t25 -44.5t57 -23v-20h-358z" />
<glyph unicode="o" horiz-adv-x="802" d="M55 512q0 530 346 530q347 0 347 -530t-347 -530q-346 0 -346 530zM250 512q0 -186 15.5 -292.5t47.5 -151.5t88 -45t88.5 45t48 151.5t15.5 292.5q0 187 -15.5 293.5t-48 151t-88.5 44.5q-54 0 -86.5 -45t-48.5 -152t-16 -292z" />
<glyph unicode="p" horiz-adv-x="821" d="M25 -389q40 10 57 23t25 44.5t8 98.5v1030q0 67 -8 98.5t-25 44.5t-57 23v20h120q84 6 127 49h21v-122q43 61 93 91.5t118 30.5q118 0 187 -130t69 -375q0 -256 -79 -405.5t-208 -149.5q-64 0 -107.5 28t-72.5 88v-321q0 -67 8 -98.5t25 -44.5t57 -23v-21h-358v21z M293 350q3 -142 40.5 -221.5t92.5 -79.5q48 0 78 44t45.5 147.5t15.5 275.5q0 245 -31.5 345t-103.5 100q-35 0 -67 -22t-70 -73v-516z" />
<glyph unicode="q" horiz-adv-x="817" d="M61 487q0 259 82 407t219 148q94 0 145 -63t81 -207q55 104 80 266h41v-1261q0 -67 8 -98.5t25 -44.5t57 -23v-21h-359v21q40 10 57 23t25 44.5t8 98.5v327q-43 -61 -93 -91.5t-118 -30.5q-120 0 -189 130t-69 375zM256 508q0 -241 33 -341.5t104 -100.5q35 0 66.5 22 t70.5 72v514q-1 142 -39.5 221.5t-93.5 79.5q-73 0 -107 -106.5t-34 -360.5z" />
<glyph unicode="r" horiz-adv-x="671" d="M25 0v20q40 10 57 23t25 44.5t8 98.5v621q0 67 -8 98.5t-25 44.5t-57 23v20h120q84 6 127 49h21v-155q60 77 103 116t85 39q26 0 43.5 -14.5t25 -31.5t18.5 -31.5t24 -14.5q14 0 39 19l12 -23q-35 -151 -133 -151q-38 0 -59 25t-33 62t-19 46q-10 11 -33 -13t-73 -90 v-639q0 -51 5.5 -79t25.5 -46t46.5 -26t78.5 -15v-20h-424z" />
<glyph unicode="s" horiz-adv-x="645" d="M53 406h41q21 -122 44 -200t51 -117t55.5 -52.5t66.5 -13.5q99 0 99 114q0 70 -35 140.5t-112 188.5q-15 22 -23 34q-48 63 -70 94t-50 79t-39 90t-11 89q0 95 64 142.5t167 47.5q46 0 116 -14t109 -14l41 -348h-39q-18 111 -39 182t-47 102.5t-48 41t-54 9.5 q-41 0 -64.5 -22.5t-23.5 -67.5q0 -43 25 -100.5t49.5 -95.5t89.5 -133q85 -115 129.5 -203.5t44.5 -181.5q0 -109 -64.5 -162t-181.5 -53q-59 0 -138.5 14t-115.5 14z" />
<glyph unicode="t" horiz-adv-x="524" d="M20 983v41q140 3 191.5 64t73.5 241h24v-305h172v-41q-81 0 -116 -7.5t-45.5 -25.5t-10.5 -61v-637q0 -95 9 -129.5t38 -34.5q33 0 55.5 74t41.5 237l36 -8q-24 -226 -66 -317.5t-136 -91.5q-85 0 -120.5 59t-35.5 205v643q0 34 -2 49t-14 27t-33 15t-62 3z" />
<glyph unicode="u" horiz-adv-x="870" d="M33 977v20l121 2q83 3 127 50h20v-852q0 -142 88 -142q79 0 184 115v641q0 67 -8 98.5t-25 44.5t-57 23v20l121 2q84 3 125 50h21v-826q0 -67 8 -98t25 -44t57 -24v-20h-121q-86 -7 -125 -51h-21v133q-118 -144 -251 -144q-199 0 -199 250v586q0 67 -8 98.5t-25 44.5 t-57 23z" />
<glyph unicode="v" horiz-adv-x="831" d="M20 1004v20h398v-20q-40 -7 -58.5 -14t-27.5 -25.5t-5.5 -44t15.5 -76.5l154 -633l149 633q10 40 13 64t1.5 41.5t-13.5 27t-28.5 15.5t-48.5 12v20h242v-20q-38 -10 -57 -22t-36 -43.5t-32 -94.5l-211 -862h-104l-224 862q-16 63 -33.5 94.5t-36.5 43.5t-57 22z" />
<glyph unicode="w" horiz-adv-x="1157" d="M20 1004v20h768v-27q-40 -6 -63.5 -37t-44.5 -116l-4 -21l145 -610l150 631q13 58 13 91q0 17 -4 27q-10 29 -62 35v27h217v-20q-37 -10 -55.5 -22t-35.5 -43.5t-32 -94.5l-211 -862h-99l-120 464l-113 -464h-98l-224 862q-16 63 -33.5 94.5t-36.5 43.5t-57 22zM329 964 q-3 -11 -3 -29q0 -33 12 -89l154 -633l71 307l-84 326q-20 84 -43 117.5t-59 33.5q-38 0 -48 -33z" />
<glyph unicode="x" horiz-adv-x="772" d="M25 1004v20h391v-20q-74 -14 -82 -38q-2 -5 -1 -12q0 -30 27 -104l93 -254l96 254q16 41 22 62t8 39.5t-8.5 26.5t-26 14t-46.5 12v20h243v-20q-57 -15 -85.5 -41.5t-61.5 -112.5l-121 -311l133 -365q30 -85 58 -112t84 -42v-20h-394v20q74 14 82 38q2 5 1 12 q0 30 -27 104l-95 258l-96 -258q-29 -75 -29 -105q0 -7 1 -11q8 -24 81 -38v-20h-243v20q56 15 84 41.5t61 112.5l121 318l-129 358q-31 85 -59 112t-82 42z" />
<glyph unicode="y" horiz-adv-x="837" d="M20 1004v20h398v-20q-40 -7 -58.5 -14t-27.5 -25.5t-5.5 -44t15.5 -76.5l158 -635l151 635q12 51 15.5 76.5t-5.5 44t-27.5 25.5t-58.5 14v20h242v-20q-38 -10 -57 -22t-36 -43.5t-32 -94.5l-243 -1024q-15 -60 -24 -93t-23 -71t-28 -56.5t-34.5 -31t-46.5 -12.5 q-30 0 -69.5 15t-67.5 15l-43 387h41q19 -128 37 -208t36.5 -114.5t32.5 -44t35 -9.5q36 0 60.5 49.5t54.5 179.5l36 156h-69l-227 862q-17 63 -35.5 94.5t-37.5 43.5t-57 22z" />
<glyph unicode="z" horiz-adv-x="655" d="M51 0v41l346 942h-116q-29 0 -46.5 -3t-35 -15.5t-27.5 -31.5t-21.5 -57t-20.5 -86t-21 -124h-41l43 358h485v-41l-346 -942h141q35 0 55 6.5t38 24.5t30 62.5t23.5 107t25.5 170.5h41l-41 -412h-512z" />
<glyph unicode="{" horiz-adv-x="534" d="M43 594v41q87 0 129.5 50.5t45.5 148t-17 239.5q-12 73 -12.5 132t14.5 117.5t48 100.5t94 73t147 44v-20q-79 -36 -100 -131.5t3 -266.5q52 -427 -205 -508q257 -81 205 -505q-24 -172 -3 -268t100 -132v-20q-86 13 -147 44t-94 73t-48 100.5t-14.5 117.5t12.5 132 q21 142 17.5 239.5t-46 148t-129.5 50.5z" />
<glyph unicode="|" horiz-adv-x="163" d="M61 -123v1679h41v-1679h-41z" />
<glyph unicode="}" horiz-adv-x="534" d="M43 -291q79 36 99.5 132t-3.5 268q-52 424 205 505q-257 81 -205 508q25 171 4 266.5t-100 131.5v20q86 -13 147 -44t94 -73t48 -100.5t14.5 -117.5t-12.5 -132q-20 -142 -17 -239.5t45.5 -148t129.5 -50.5v-41q-87 0 -129.5 -50.5t-46 -148t17.5 -239.5 q12 -73 12.5 -132t-14.5 -117.5t-48 -100.5t-94 -73t-147 -44v20z" />
<glyph unicode="~" horiz-adv-x="673" d="M102 469q36 63 67 91t79 28q28 0 50.5 -11t38 -27t30.5 -31.5t33.5 -26.5t39.5 -11q34 0 53.5 20.5t41.5 71.5l36 -16q-25 -60 -54 -88.5t-77 -28.5q-34 0 -61.5 16.5t-43.5 37t-39 37t-48 16.5q-34 0 -53.5 -19t-55.5 -75z" />
<glyph unicode="&#xa1;" horiz-adv-x="397" d="M145 932q0 48 26.5 79t70.5 31q45 0 71.5 -31t26.5 -79q0 -47 -26.5 -79t-71.5 -32q-43 0 -70 32t-27 79zM150 -324q0 54 17 184.5t34.5 333t17.5 431.5h41q0 -229 19 -431.5t38 -333t19 -184.5q0 -55 -23 -87.5t-71 -32.5q-92 0 -92 120z" />
<glyph unicode="&#xa2;" horiz-adv-x="716" d="M61 729q0 239 90 377t252 141v309h41v-311q28 -3 79 -14.5t81 -11.5l37 -349h-41q-14 100 -31.5 167.5t-38.5 102.5t-41 49.5t-45 16.5v-925h2q145 0 189 317l41 -4q-28 -190 -86 -284t-146 -115v-318h-41v309h-22q-156 0 -238 139t-82 404zM256 774q0 -191 35 -323 t112 -162v913q-73 -20 -110 -133.5t-37 -294.5z" />
<glyph unicode="&#xa3;" horiz-adv-x="831" d="M72 195q0 97 48.5 167t133.5 70t158 -84q-2 21 -5.5 41.5t-10 44t-11 39.5t-15.5 42.5t-15.5 38.5t-19 42.5t-18.5 38.5t-21 42.5t-20 39.5h-178v41h158q-53 106 -82 199t-29 194q0 148 81 224.5t220 76.5q50 0 119 -14.5t111 -14.5l39 -467h-43q-28 194 -57 296 t-56.5 130.5t-69.5 28.5q-124 0 -124 -283q0 -179 36 -370h242v-41h-233q5 -26 17 -82.5t17.5 -85.5t13 -73.5t10.5 -82t3 -74.5l-2 -51l14 -21t14 -20.5t13 -18.5t13.5 -18.5t13 -16t14.5 -15t14.5 -11t15.5 -9.5t15.5 -5t17.5 -2q42 0 67.5 55.5t35.5 186.5h43 q-5 -99 -15 -170.5t-22.5 -113.5t-30.5 -66.5t-35.5 -32.5t-40.5 -8t-44.5 10.5t-35.5 22t-32.5 39t-26.5 41.5t-28 50q-25 -77 -73.5 -120t-113.5 -43q-79 0 -134.5 53.5t-55.5 159.5zM145 176q0 -71 31.5 -112t87.5 -41q59 0 95 52.5t49 139.5q-67 96 -148 96 q-51 0 -83 -35.5t-32 -99.5z" />
<glyph unicode="&#xa4;" horiz-adv-x="923" d="M55 240l168 168q-92 122 -92 309q0 184 92 309l-168 168l29 29l164 -166q90 90 213 90q127 0 211 -90l166 166l28 -29l-168 -168q93 -123 93 -309t-93 -309l168 -168l-28 -29l-166 166q-84 -90 -211 -90t-211 90l-166 -166zM172 717q0 -167 78 -278t211 -111t211 111 t78 278t-78 278t-211 111t-211 -111t-78 -278z" />
<glyph unicode="&#xa5;" horiz-adv-x="860" d="M20 1413v21h402v-21q-29 -6 -44 -12t-25.5 -15t-10.5 -27.5t4.5 -41t15.5 -64.5l113 -407h86l109 407q17 67 17.5 95.5t-16 41.5t-63.5 23v21h232v-21q-38 -10 -57 -22t-36.5 -43.5t-33.5 -94.5l-107 -407h230v-41h-240l-31 -123h271v-41h-283l-12 -51v-404 q0 -67 7 -98.5t22 -44.5t51 -23v-20h-347v20q36 10 51 23t22 44.5t7 98.5v377l-22 78h-285v41h272l-34 123h-238v41h225l-118 409q-18 61 -37.5 93t-38.5 43.5t-58 21.5zM485 805l33 -117l31 117h-64z" />
<glyph unicode="&#xa6;" horiz-adv-x="163" d="M61 -123v655h41v-655h-41zM61 901v655h41v-655h-41z" />
<glyph unicode="&#xa7;" horiz-adv-x="712" d="M66 655q0 182 178 222q-62 83 -90.5 143t-28.5 137q0 92 62.5 136t158.5 44q55 0 122 -14t103 -14l37 -342h-41q-12 90 -26.5 153t-28.5 97t-33 52.5t-33.5 22.5t-37.5 4q-82 0 -82 -96q0 -27 6 -54.5t12 -46.5t25 -52t29 -48t40 -60.5t43 -64.5q42 -63 61.5 -93.5 t48.5 -85t41.5 -102.5t12.5 -97q0 -179 -176 -222q61 -81 90 -141.5t29 -136.5q0 -92 -61.5 -137t-157.5 -45q-57 0 -125 15t-103 15l-37 340h41q12 -90 26.5 -152.5t28 -97t32.5 -52.5t34.5 -22.5t38.5 -4.5q40 0 61 25.5t21 72.5q0 27 -6 53.5t-13 46t-25 50.5t-29 48.5 t-39.5 59.5t-43.5 65q-43 63 -62 93.5t-48.5 85.5t-42 103t-12.5 97zM231 700q0 -48 21 -100.5t42 -85t84 -120.5q16 -24 25 -36l27 -34q51 39 51 129q0 23 -3 44.5t-13.5 46.5t-17 40t-27.5 47t-30 45.5t-39.5 56t-41.5 58.5l-26 36q-52 -39 -52 -127z" />
<glyph unicode="&#xa8;" horiz-adv-x="677" d="M41 1296q0 41 27 69t67 28q41 0 68.5 -28t27.5 -69q0 -39 -27.5 -65.5t-68.5 -26.5q-40 0 -67 27t-27 65zM354 1296q0 41 27 69t68 28t68.5 -28t27.5 -69q0 -39 -27.5 -65.5t-68.5 -26.5t-68 26.5t-27 65.5z" />
<glyph unicode="&#xa9;" horiz-adv-x="1505" d="M129 717q0 216 79 385t221.5 262.5t324.5 93.5t324 -93.5t221 -262.5t79 -385q0 -328 -174.5 -535t-449.5 -207q-182 0 -324.5 93.5t-221.5 262.5t-79 386zM170 717q0 -313 162 -507t422 -194q258 0 420.5 195.5t162.5 505.5t-162.5 505t-420.5 195q-259 0 -421.5 -194.5 t-162.5 -505.5zM475 705q0 203 93 322.5t225 119.5q35 0 81 -10.5t74 -10.5l39 -280h-33q-38 160 -71 214t-76 54q-59 0 -87 -77.5t-28 -254.5q0 -411 146 -411q46 0 88.5 54.5t70.5 190.5l33 -8q-33 -173 -95.5 -246t-164.5 -73q-141 0 -218 109.5t-77 306.5z" />
<glyph unicode="&#xaa;" horiz-adv-x="602" d="M43 989q0 144 54 213.5t139 69.5q100 0 143 -115v47q0 120 -24.5 167.5t-80.5 47.5q-110 0 -172 -139h-30l53 145q25 0 82.5 11.5t93.5 11.5q98 0 154.5 -59.5t56.5 -180.5v-286q0 -100 13 -118t81 -3l8 -21l-137 -61q-35 -14 -55 -14q-43 0 -43 53v61 q-44 -117 -146 -117q-83 0 -136.5 71t-53.5 216zM182 989q0 -108 25.5 -165.5t73.5 -57.5q44 0 71 56.5t27 166.5q0 109 -27 164t-69 55q-101 0 -101 -219z" />
<glyph unicode="&#xab;" horiz-adv-x="677" d="M102 514q0 25 14 51t48 66l184 205l29 -19l-144 -303l144 -303l-29 -18l-184 204q-34 40 -48 66t-14 51zM342 514q0 45 61 117l185 205l28 -19l-143 -303l143 -303l-28 -18l-185 204q-61 72 -61 117z" />
<glyph unicode="&#xac;" horiz-adv-x="595" d="M102 551v41h392v-195h-41v154h-351z" />
<glyph unicode="&#xad;" horiz-adv-x="610" d="M61 492v40h488v-40h-488z" />
<glyph unicode="&#xae;" horiz-adv-x="782" d="M55 1085q0 168 93 270.5t243 102.5t242 -102.5t92 -270.5t-92 -270t-242 -102t-243 102t-93 270zM96 1085q0 -153 81 -243t214 -90q132 0 212.5 90.5t80.5 242.5q0 153 -80 243.5t-213 90.5t-214 -90.5t-81 -243.5zM260 877v8q18 5 23.5 15.5t5.5 47.5v295q0 37 -5.5 48 t-23.5 16v8h37q21 1 50.5 4.5t47.5 3.5q109 0 109 -111q0 -40 -20 -68.5t-52 -39.5q39 -10 54 -37.5t18 -77.5q6 -63 13.5 -78.5t29.5 -15.5v-18q-39 0 -58.5 3t-32 16t-16.5 31t-6 56q-6 64 -15.5 88.5t-29.5 24.5q-17 0 -29 2v-150q0 -38 4.5 -48t22.5 -15v-8h-127z M360 1118q12 -4 25 -4q43 0 43 98q0 93 -41 93q-2 0 -27 -5v-182z" />
<glyph unicode="&#xaf;" horiz-adv-x="620" d="M102 1237v82h416v-82h-416z" />
<glyph unicode="&#xb0;" horiz-adv-x="514" d="M61 1182q0 119 53.5 194.5t141.5 75.5q89 0 143 -75.5t54 -194.5t-54 -195t-143 -76q-88 0 -141.5 76t-53.5 195zM102 1182q0 -102 41.5 -166t112.5 -64q72 0 114 64.5t42 165.5q0 102 -42 165.5t-114 63.5q-71 0 -112.5 -63.5t-41.5 -165.5z" />
<glyph unicode="&#xb1;" horiz-adv-x="595" d="M102 250v41h390v-41h-390zM102 553v41h174v174h41v-174h175v-41h-175v-174h-41v174h-174z" />
<glyph unicode="&#xb2;" horiz-adv-x="409" d="M12 922v20q45 84 58.5 110t50 98t50 107t34 91t28 99.5t7.5 84.5q0 48 -14 71t-48 23q-42 0 -68.5 -50t-48.5 -194h-20l20 252q17 0 58.5 7.5t73.5 7.5q194 0 194 -164q0 -55 -18.5 -109.5t-42.5 -95t-71 -93t-77.5 -81.5t-89.5 -82h148q25 0 37.5 2t27.5 10.5t23 27.5 t16 51.5t16 84.5h21l-25 -278h-340z" />
<glyph unicode="&#xb3;" horiz-adv-x="419" d="M20 1200h21q15 -112 33.5 -172t37 -78t46.5 -18q44 0 66 58t22 159q0 80 -16.5 130t-49.5 50q-18 0 -31.5 -9.5t-35.5 -31.5l-15 17q61 77 89 135.5t28 122.5q0 65 -47 65q-25 0 -42.5 -16.5t-36 -72.5t-34.5 -157h-20l20 252q19 0 66.5 7.5t81.5 7.5q147 0 147 -113 q0 -118 -131 -180q70 10 125 -44.5t55 -166.5q0 -118 -65.5 -176t-169.5 -58q-32 0 -69 7.5t-54 7.5z" />
<glyph unicode="&#xb4;" horiz-adv-x="507" d="M70 1219l157 92q55 31 97.5 39t66 -5.5t35.5 -37t12 -54.5l-362 -61z" />
<glyph unicode="&#xb6;" horiz-adv-x="839" d="M51 1112q0 132 95.5 227t256.5 95h381v-1534h-41v1493h-217v-1493h-41v888h-82q-162 0 -257 95.5t-95 228.5z" />
<glyph unicode="&#xb7;" horiz-adv-x="307" d="M55 502q0 47 27.5 78.5t71.5 31.5q45 0 71.5 -31.5t26.5 -78.5q0 -48 -26.5 -79.5t-71.5 -31.5q-44 0 -71.5 31.5t-27.5 79.5z" />
<glyph unicode="&#xb8;" horiz-adv-x="428" d="M63 -180h39q20 -110 39.5 -145t46.5 -35q45 0 45 67q0 121 -96 187v20l33 86h43l-33 -90q185 -38 185 -178q0 -63 -43.5 -96t-112.5 -33q-24 0 -59.5 8t-57.5 8z" />
<glyph unicode="&#xb9;" horiz-adv-x="296" d="M20 1503v21q78 6 121.5 33.5t77.5 91.5h10v-633q0 -41 10.5 -57.5t39.5 -22.5v-14h-228v14q27 6 36 21t9 59v422q0 38 -14 51.5t-62 13.5z" />
<glyph unicode="&#xba;" horiz-adv-x="575" d="M39 1075q0 373 248 373q250 0 250 -373t-250 -373q-248 0 -248 373zM182 1075q0 -189 24.5 -266.5t80.5 -77.5q58 0 81 75.5t23 268.5t-23 268.5t-81 75.5q-56 0 -80.5 -77.5t-24.5 -266.5z" />
<glyph unicode="&#xbb;" horiz-adv-x="677" d="M61 211l144 303l-144 303l29 19l184 -205q34 -40 48 -66t14 -51t-14 -51t-48 -66l-184 -204zM301 211l143 303l-143 303l29 19l184 -205q61 -72 61 -117t-61 -117l-184 -204z" />
<glyph unicode="&#xbc;" horiz-adv-x="837" d="M20 1298v21q78 6 121.5 33.5t77.5 91.5h10v-633q0 -41 10.5 -57.5t39.5 -22.5v-14h-228v14q27 6 36 21t9 59v422q0 38 -14 51.5t-62 13.5zM98 0l508 1434h39l-504 -1434h-43zM397 172v21l213 540h11q32 -21 59.5 -28t69.5 -9v-424h69v-100h-69v-78q0 -41 9.5 -57.5 t35.5 -22.5v-14h-226v14q26 6 35.5 22.5t9.5 57.5v78h-217zM457 272h157v410z" />
<glyph unicode="&#xbd;" horiz-adv-x="845" d="M20 1298v21q78 6 121.5 33.5t77.5 91.5h10v-633q0 -41 10.5 -57.5t39.5 -22.5v-14h-228v14q27 6 36 21t9 59v422q0 38 -14 51.5t-62 13.5zM98 0l508 1434h39l-504 -1434h-43zM451 0v20q61 113 87 165t66.5 141t57 156t16.5 128q0 48 -14 71.5t-48 23.5q-42 0 -68 -50 t-48 -194h-21l21 252q17 0 58 7t73 7q194 0 194 -164q0 -55 -18.5 -109.5t-42.5 -95t-71 -93t-77.5 -81.5t-89.5 -82h148q25 0 37.5 2t27.5 10.5t23.5 28t16.5 52t16 84.5h20l-24 -279h-340z" />
<glyph unicode="&#xbe;" horiz-adv-x="950" d="M20 995h21q15 -112 33.5 -172t37 -78t46.5 -18q44 0 66 58t22 159q0 80 -16.5 130t-49.5 50q-18 0 -31.5 -9.5t-35.5 -31.5l-15 17q61 77 89 135.5t28 122.5q0 65 -47 65q-25 0 -42.5 -16t-36 -72t-34.5 -157h-20l20 252q19 0 66.5 7t81.5 7q147 0 147 -113 q0 -118 -131 -180q70 10 125 -44.5t55 -166.5q0 -118 -65.5 -175.5t-169.5 -57.5q-32 0 -69 7t-54 7zM213 0l508 1434h39l-504 -1434h-43zM512 172v21l213 540h10q32 -21 59.5 -28t69.5 -9v-424h70v-100h-70v-78q0 -41 9.5 -57.5t35.5 -22.5v-14h-225v14q26 6 35.5 22.5 t9.5 57.5v78h-217zM571 272h158v410z" />
<glyph unicode="&#xbf;" horiz-adv-x="600" d="M55 -229q0 53 14.5 102.5t43.5 94t51 71.5t57 65q82 89 106.5 186.5t24.5 334.5h41q0 -277 -10 -382t-49 -202q-29 -82 -39 -111t-21.5 -86.5t-11.5 -111.5q0 -60 15 -89.5t49 -29.5q29 0 50.5 16t45 63t44 148t38.5 258h41l-37 -497q-43 0 -107 -14.5t-118 -14.5 q-228 0 -228 199zM274 936q0 48 27.5 80.5t71.5 32.5t72 -32.5t28 -80.5q0 -46 -28 -77.5t-72 -31.5t-71.5 31.5t-27.5 77.5z" />
<glyph unicode="&#xc0;" horiz-adv-x="876" d="M20 0v20q54 14 75.5 42.5t39.5 119.5l203 1145l-10 59v21q65 0 98 8t66 37h20l229 -1270q18 -91 40 -119.5t75 -42.5v-20h-397v20q39 7 58 14.5t29.5 26t9 45t-10.5 76.5l-37 201h-297l-35 -201q-9 -51 -10.5 -77t8.5 -44.5t29 -26t59 -14.5v-20h-242zM219 424h283 l-144 790zM246 1622q0 31 11.5 54t35.5 36.5t66 5.5t96 -39l159 -92l-8 -26z" />
<glyph unicode="&#xc1;" horiz-adv-x="876" d="M20 0v20q54 14 75.5 42.5t39.5 119.5l203 1145l-10 59v21q65 0 98 8t66 37h20l229 -1270q18 -91 40 -119.5t75 -42.5v-20h-397v20q39 7 58 14.5t29.5 26t9 45t-10.5 76.5l-37 201h-297l-35 -201q-9 -51 -10.5 -77t8.5 -44.5t29 -26t59 -14.5v-20h-242zM219 424h283 l-144 790zM246 1587l157 92q44 25 80.5 35t60.5 5.5t40 -18.5t23 -34.5t7 -44.5l-362 -61z" />
<glyph unicode="&#xc2;" horiz-adv-x="876" d="M20 0v20q54 14 75.5 42.5t39.5 119.5l203 1145l-10 59v21q65 0 98 8t66 37h20l229 -1270q18 -91 40 -119.5t75 -42.5v-20h-397v20q39 7 58 14.5t29.5 26t9 45t-10.5 76.5l-37 201h-297l-35 -201q-9 -51 -10.5 -77t8.5 -44.5t29 -26t59 -14.5v-20h-242zM203 1575l139 174 q39 45 84 45t84 -45l143 -174l-26 -27l-201 127l-197 -127zM219 424h283l-144 790z" />
<glyph unicode="&#xc3;" horiz-adv-x="876" d="M20 0v20q54 14 75.5 42.5t39.5 119.5l203 1145l-10 59v21q65 0 98 8t66 37h20l229 -1270q18 -91 40 -119.5t75 -42.5v-20h-397v20q39 7 58 14.5t29.5 26t9 45t-10.5 76.5l-37 201h-297l-35 -201q-9 -51 -10.5 -77t8.5 -44.5t29 -26t59 -14.5v-20h-242zM168 1622 q13 36 22.5 59t26 54t33.5 48.5t41.5 30.5t52.5 13q32 0 62.5 -18t50.5 -39.5t45 -39.5t47 -18q30 0 52 21.5t50 72.5l37 -16q-13 -42 -26 -73.5t-33.5 -64t-49 -50t-63.5 -17.5q-32 0 -63 18t-51 39.5t-44.5 39.5t-46.5 18q-31 0 -54.5 -22t-51.5 -72zM219 424h283 l-144 790z" />
<glyph unicode="&#xc4;" horiz-adv-x="876" d="M20 0v20q54 14 75.5 42.5t39.5 119.5l203 1145l-10 59v21q65 0 98 8t66 37h20l229 -1270q18 -91 40 -119.5t75 -42.5v-20h-397v20q39 7 58 14.5t29.5 26t9 45t-10.5 76.5l-37 201h-297l-35 -201q-9 -51 -10.5 -77t8.5 -44.5t29 -26t59 -14.5v-20h-242zM160 1677 q0 48 31.5 79.5t80.5 31.5t82 -32t33 -79q0 -49 -32.5 -80.5t-82.5 -31.5t-81 31.5t-31 80.5zM219 424h283l-144 790zM471 1677q0 47 33 79t82 32q47 0 79.5 -32t32.5 -79q0 -49 -32 -80.5t-80 -31.5q-50 0 -82.5 31.5t-32.5 80.5z" />
<glyph unicode="&#xc5;" horiz-adv-x="876" d="M20 0v20q54 14 75.5 42.5t39.5 119.5l203 1145l-10 59v21q65 0 98 8t66 37h20l229 -1270q18 -91 40 -119.5t75 -42.5v-20h-397v20q39 7 58 14.5t29.5 26t9 45t-10.5 76.5l-37 201h-297l-35 -201q-9 -51 -10.5 -77t8.5 -44.5t29 -26t59 -14.5v-20h-242zM219 424h283 l-144 790zM281 1665q0 57 41.5 97t107.5 40q65 0 106.5 -40t41.5 -97q0 -60 -41.5 -100.5t-106.5 -40.5q-66 0 -107.5 40.5t-41.5 100.5zM324 1665q0 -43 28.5 -73.5t77.5 -30.5q48 0 77.5 30.5t29.5 73.5q0 42 -29.5 72t-77.5 30q-49 0 -77.5 -30t-28.5 -72z" />
<glyph unicode="&#xc6;" horiz-adv-x="1155" d="M14 0v20q34 8 52.5 15t37.5 23.5t32 44.5t28 75l352 1190q-7 19 -21.5 28t-45.5 17v21h616l39 -498h-41q-13 113 -23 185.5t-22.5 126t-23 80.5t-29 43t-35.5 19t-47 3h-168v-613h112q40 0 54 12.5t18.5 61t-4.5 145.5h41l39 -503h-41q-19 165 -29 196q-12 37 -42 44 q-16 3 -42 3h-106v-698h182q29 0 45.5 3.5t35 19t29.5 44.5t24 82.5t23 129.5t23 190h41l-37 -510h-632v20q37 10 52.5 23t22 44.5t6.5 98.5v201h-262l-61 -209q-28 -94 -15 -119.5t97 -38.5v-20h-275zM281 428h249v819v19z" />
<glyph unicode="&#xc7;" horiz-adv-x="792" d="M51 748q0 187 31.5 325t90 219.5t135 120.5t173.5 39q50 0 111 -11t92 -11l37 -494h-41q-16 152 -35 247.5t-44.5 145t-52.5 66t-67 16.5q-104 0 -162.5 -157t-58.5 -486q0 -319 64 -501.5t168 -182.5q43 0 75.5 21.5t63.5 75t53.5 154t36.5 249.5l41 -4 q-16 -180 -43.5 -298.5t-69 -183.5t-91 -90.5t-118.5 -25.5l-26 -72q184 -37 184 -178q0 -63 -43.5 -96t-112.5 -33q-24 0 -59 8t-57 8l-29 201h39q20 -110 39.5 -145t46.5 -35q45 0 45 67q0 121 -96 187v20l26 72q-160 24 -253 220.5t-93 541.5z" />
<glyph unicode="&#xc8;" horiz-adv-x="757" d="M51 0v20q37 10 52.5 23t22.5 44.5t7 98.5v1061q0 67 -7 98.5t-22.5 44.5t-52.5 23v21h617l39 -498h-41q-13 112 -23 185.5t-22.5 126.5t-23 80.5t-29.5 43t-36 18.5t-47 3h-168v-613h113q40 0 54 12.5t18.5 61t-4.5 145.5h41l39 -503h-41q-19 165 -29 196q-12 37 -42 44 q-16 3 -42 3h-107v-698h183q29 0 45.5 3.5t35 19t29.5 44.5t24 82.5t23 129.5t23 190h41l-37 -510h-633zM209 1622q0 31 11.5 54t35.5 36.5t66 5.5t96 -39l160 -92l-9 -26z" />
<glyph unicode="&#xc9;" horiz-adv-x="757" d="M51 0v20q37 10 52.5 23t22.5 44.5t7 98.5v1061q0 67 -7 98.5t-22.5 44.5t-52.5 23v21h617l39 -498h-41q-13 112 -23 185.5t-22.5 126.5t-23 80.5t-29.5 43t-36 18.5t-47 3h-168v-613h113q40 0 54 12.5t18.5 61t-4.5 145.5h41l39 -503h-41q-19 165 -29 196q-12 37 -42 44 q-16 3 -42 3h-107v-698h183q29 0 45.5 3.5t35 19t29.5 44.5t24 82.5t23 129.5t23 190h41l-37 -510h-633zM211 1587l158 92q44 25 80.5 35t60.5 5.5t40 -18.5t23 -34.5t7 -44.5l-363 -61z" />
<glyph unicode="&#xca;" horiz-adv-x="757" d="M51 0v20q37 10 52.5 23t22.5 44.5t7 98.5v1061q0 67 -7 98.5t-22.5 44.5t-52.5 23v21h617l39 -498h-41q-13 112 -23 185.5t-22.5 126.5t-23 80.5t-29.5 43t-36 18.5t-47 3h-168v-613h113q40 0 54 12.5t18.5 61t-4.5 145.5h41l39 -503h-41q-19 165 -29 196q-12 37 -42 44 q-16 3 -42 3h-107v-698h183q29 0 45.5 3.5t35 19t29.5 44.5t24 82.5t23 129.5t23 190h41l-37 -510h-633zM168 1575l139 174q39 45 84 45t84 -45l143 -174l-26 -27l-201 127l-196 -127z" />
<glyph unicode="&#xcb;" horiz-adv-x="757" d="M51 0v20q37 10 52.5 23t22.5 44.5t7 98.5v1061q0 67 -7 98.5t-22.5 44.5t-52.5 23v21h617l39 -498h-41q-13 112 -23 185.5t-22.5 126.5t-23 80.5t-29.5 43t-36 18.5t-47 3h-168v-613h113q40 0 54 12.5t18.5 61t-4.5 145.5h41l39 -503h-41q-19 165 -29 196q-12 37 -42 44 q-16 3 -42 3h-107v-698h183q29 0 45.5 3.5t35 19t29.5 44.5t24 82.5t23 129.5t23 190h41l-37 -510h-633zM125 1677q0 48 32 79.5t81 31.5t81.5 -32t32.5 -79q0 -49 -32 -80.5t-82 -31.5t-81.5 31.5t-31.5 80.5zM436 1677q0 47 33 79t82 32q47 0 80 -32t33 -79 q0 -49 -32.5 -80.5t-80.5 -31.5q-50 0 -82.5 31.5t-32.5 80.5z" />
<glyph unicode="&#xcc;" horiz-adv-x="448" d="M41 1636q0 31 11.5 54.5t35.5 37t66 5.5t96 -39l160 -92l-9 -27zM51 0v20q37 10 52.5 23t22.5 44.5t7 98.5v1061q0 67 -7 98.5t-22.5 44.5t-52.5 23v21h346v-21q-36 -10 -51 -23t-22 -44.5t-7 -98.5v-1061q0 -67 7 -98.5t22 -44.5t51 -23v-20h-346z" />
<glyph unicode="&#xcd;" horiz-adv-x="448" d="M43 1602l158 92q55 31 97.5 39t66 -5.5t35.5 -37t12 -54.5l-363 -61zM51 0v20q37 10 52.5 23t22.5 44.5t7 98.5v1061q0 67 -7 98.5t-22.5 44.5t-52.5 23v21h346v-21q-36 -10 -51 -23t-22 -44.5t-7 -98.5v-1061q0 -67 7 -98.5t22 -44.5t51 -23v-20h-346z" />
<glyph unicode="&#xce;" horiz-adv-x="448" d="M0 1589l139 174q39 45 84 45t84 -45l144 -174l-27 -26l-201 127l-196 -127zM51 0v20q37 10 52.5 23t22.5 44.5t7 98.5v1061q0 67 -7 98.5t-22.5 44.5t-52.5 23v21h346v-21q-36 -10 -51 -23t-22 -44.5t-7 -98.5v-1061q0 -67 7 -98.5t22 -44.5t51 -23v-20h-346z" />
<glyph unicode="&#xcf;" horiz-adv-x="448" d="M-43 1692q0 47 32 78.5t81 31.5t81.5 -31.5t32.5 -78.5q0 -49 -32 -81t-82 -32t-81.5 31.5t-31.5 81.5zM51 0v20q37 10 52.5 23t22.5 44.5t7 98.5v1061q0 67 -7 98.5t-22.5 44.5t-52.5 23v21h346v-21q-36 -10 -51 -23t-22 -44.5t-7 -98.5v-1061q0 -67 7 -98.5t22 -44.5 t51 -23v-20h-346zM268 1692q0 47 33 78.5t82 31.5q48 0 80.5 -31.5t32.5 -78.5q0 -49 -32.5 -81t-80.5 -32q-50 0 -82.5 32t-32.5 81z" />
<glyph unicode="&#xd0;" horiz-adv-x="980" d="M51 0v20q37 10 52.5 23t22.5 44.5t7 98.5v510h-82v41h82v510q0 67 -7 98.5t-22.5 44.5t-52.5 23v21h109q47 1 130 9.5t120 8.5q397 0 397 -745q0 -174 -23 -306t-59.5 -210t-90 -126.5t-107 -65.5t-117.5 -17q-37 0 -120 8.5t-130 9.5h-109zM317 35q47 -12 78 -12 q36 0 64 15.5t55.5 60.5t45.5 119t29 198t11 291q0 209 -16 352.5t-45.5 217.5t-64 104t-79.5 30q-31 0 -78 -12v-662h158v-41h-158v-661z" />
<glyph unicode="&#xd1;" horiz-adv-x="829" d="M45 1413v21h279l364 -1100v913q0 67 -7 98.5t-22.5 44.5t-52.5 23v21h203v-21q-36 -10 -51 -23t-22 -44.5t-7 -98.5v-1247h-123l-436 1251v-1065q0 -67 7 -98.5t22 -44.5t51 -23v-20h-201v20q36 10 51 23t22 44.5t7 98.5v1162q-12 21 -26 33.5t-25.5 18.5t-32.5 13z M156 1663q13 36 22.5 59t26 54t33.5 48.5t41.5 30.5t52.5 13q32 0 62.5 -18t50.5 -39.5t45 -39.5t47 -18q30 0 52 21.5t50 72.5l37 -16q-13 -42 -26 -73.5t-33.5 -64t-49 -50t-63.5 -17.5q-32 0 -63 18t-51 39.5t-44.5 39.5t-46.5 18q-31 0 -54.5 -22t-51.5 -72z" />
<glyph unicode="&#xd2;" d="M51 717q0 376 102 555.5t279 179.5q176 0 278.5 -179t102.5 -556q0 -378 -102 -556.5t-279 -178.5t-279 179.5t-102 555.5zM248 1622q0 31 11.5 54t35.5 36.5t66 5.5t96 -39l159 -92l-8 -26zM260 717q0 -266 19 -419t55 -214t98 -61q63 0 99 61.5t54.5 213.5t18.5 419 q0 268 -18.5 420t-54.5 213t-99 61q-62 0 -98 -61t-55 -214t-19 -419z" />
<glyph unicode="&#xd3;" d="M51 717q0 376 102 555.5t279 179.5q176 0 278.5 -179t102.5 -556q0 -378 -102 -556.5t-279 -178.5t-279 179.5t-102 555.5zM248 1587l158 92q55 31 97.5 39t66 -5.5t35 -36.5t11.5 -54l-362 -61zM260 717q0 -266 19 -419t55 -214t98 -61q63 0 99 61.5t54.5 213.5 t18.5 419q0 268 -18.5 420t-54.5 213t-99 61q-62 0 -98 -61t-55 -214t-19 -419z" />
<glyph unicode="&#xd4;" d="M51 717q0 376 102 555.5t279 179.5q176 0 278.5 -179t102.5 -556q0 -378 -102 -556.5t-279 -178.5t-279 179.5t-102 555.5zM207 1575l139 174q39 45 84 45t84 -45l143 -174l-26 -27l-201 127l-197 -127zM260 717q0 -266 19 -419t55 -214t98 -61q63 0 99 61.5t54.5 213.5 t18.5 419q0 268 -18.5 420t-54.5 213t-99 61q-62 0 -98 -61t-55 -214t-19 -419z" />
<glyph unicode="&#xd5;" d="M51 717q0 376 102 555.5t279 179.5q176 0 278.5 -179t102.5 -556q0 -378 -102 -556.5t-279 -178.5t-279 179.5t-102 555.5zM172 1622q13 36 22.5 59t26 54t33.5 48.5t41.5 30.5t52.5 13q32 0 62.5 -18t50.5 -39.5t45 -39.5t47 -18q30 0 52 21.5t50 72.5l37 -16 q-13 -42 -26 -73.5t-33.5 -64t-49 -50t-63.5 -17.5q-32 0 -63 18t-51 39.5t-44.5 39.5t-46.5 18q-31 0 -54.5 -22t-51.5 -72zM260 717q0 -266 19 -419t55 -214t98 -61q63 0 99 61.5t54.5 213.5t18.5 419q0 268 -18.5 420t-54.5 213t-99 61q-62 0 -98 -61t-55 -214t-19 -419z " />
<glyph unicode="&#xd6;" d="M51 717q0 376 102 555.5t279 179.5q176 0 278.5 -179t102.5 -556q0 -378 -102 -556.5t-279 -178.5t-279 179.5t-102 555.5zM162 1677q0 48 31.5 79.5t80.5 31.5t82 -32t33 -79q0 -49 -32.5 -80.5t-82.5 -31.5t-81 31.5t-31 80.5zM260 717q0 -266 19 -419t55 -214t98 -61 q63 0 99 61.5t54.5 213.5t18.5 419q0 268 -18.5 420t-54.5 213t-99 61q-62 0 -98 -61t-55 -214t-19 -419zM473 1677q0 47 33 79t82 32q47 0 79.5 -32t32.5 -79q0 -49 -32 -80.5t-80 -31.5q-50 0 -82.5 31.5t-32.5 80.5z" />
<glyph unicode="&#xd7;" horiz-adv-x="509" d="M102 317l129 197l-127 195h50l102 -158l102 158h50l-127 -195l127 -197h-50l-102 158l-104 -158h-50z" />
<glyph unicode="&#xd8;" d="M51 717q0 376 102 555.5t279 179.5q46 0 90 -12l31 198h41l-33 -215q252 -119 252 -706q0 -378 -102 -556.5t-279 -178.5q-51 0 -92 14l-31 -201h-41l33 215q-250 122 -250 707zM260 717q0 -457 57 -600l195 1259q-32 35 -80 35q-62 0 -98 -61t-55 -214t-19 -419zM350 61 q32 -38 82 -38q63 0 99 61.5t54.5 213.5t18.5 419q0 466 -59 604z" />
<glyph unicode="&#xd9;" horiz-adv-x="847" d="M29 1413v21h346v-21q-37 -10 -52.5 -23t-22.5 -44.5t-7 -98.5v-837q0 -181 48.5 -262.5t152.5 -81.5t154 82t50 255v844q0 67 -7 98.5t-22 44.5t-51 23v21h201v-21q-36 -10 -51 -23t-22 -44.5t-7 -98.5v-866q0 -197 -73 -298t-230 -101q-159 0 -243 105.5t-84 322.5v837 q0 67 -7 98.5t-22 44.5t-51 23zM256 1622q0 31 11.5 54t35.5 36.5t66 5.5t96 -39l160 -92l-9 -26z" />
<glyph unicode="&#xda;" horiz-adv-x="847" d="M29 1413v21h346v-21q-37 -10 -52.5 -23t-22.5 -44.5t-7 -98.5v-837q0 -181 48.5 -262.5t152.5 -81.5t154 82t50 255v844q0 67 -7 98.5t-22 44.5t-51 23v21h201v-21q-36 -10 -51 -23t-22 -44.5t-7 -98.5v-866q0 -197 -73 -298t-230 -101q-159 0 -243 105.5t-84 322.5v837 q0 67 -7 98.5t-22 44.5t-51 23zM256 1587l158 92q44 25 80.5 35t60.5 5.5t40 -18.5t23 -34.5t7 -44.5l-363 -61z" />
<glyph unicode="&#xdb;" horiz-adv-x="847" d="M29 1413v21h346v-21q-37 -10 -52.5 -23t-22.5 -44.5t-7 -98.5v-837q0 -181 48.5 -262.5t152.5 -81.5t154 82t50 255v844q0 67 -7 98.5t-22 44.5t-51 23v21h201v-21q-36 -10 -51 -23t-22 -44.5t-7 -98.5v-866q0 -197 -73 -298t-230 -101q-159 0 -243 105.5t-84 322.5v837 q0 67 -7 98.5t-22 44.5t-51 23zM213 1575l139 174q39 45 84 45t84 -45l144 -174l-27 -27l-201 127l-196 -127z" />
<glyph unicode="&#xdc;" horiz-adv-x="847" d="M29 1413v21h346v-21q-37 -10 -52.5 -23t-22.5 -44.5t-7 -98.5v-837q0 -181 48.5 -262.5t152.5 -81.5t154 82t50 255v844q0 67 -7 98.5t-22 44.5t-51 23v21h201v-21q-36 -10 -51 -23t-22 -44.5t-7 -98.5v-866q0 -197 -73 -298t-230 -101q-159 0 -243 105.5t-84 322.5v837 q0 67 -7 98.5t-22 44.5t-51 23zM170 1677q0 48 32 79.5t81 31.5t81.5 -32t32.5 -79q0 -49 -32 -80.5t-82 -31.5t-81.5 31.5t-31.5 80.5zM481 1677q0 47 33 79t82 32q47 0 80 -32t33 -79q0 -49 -32.5 -80.5t-80.5 -31.5q-50 0 -82.5 31.5t-32.5 80.5z" />
<glyph unicode="&#xdd;" horiz-adv-x="860" d="M20 1413v21h402v-21q-29 -6 -44 -12t-25.5 -15t-10.5 -27.5t4.5 -41t15.5 -64.5l156 -565l152 565q17 67 17.5 95.5t-16 41.5t-63.5 23v21h232v-21q-38 -10 -57 -22t-36.5 -43.5t-33.5 -94.5l-172 -663v-404q0 -67 7 -98.5t22 -44.5t51 -23v-20h-347v20q36 10 51 23 t22 44.5t7 98.5v377l-200 692q-18 61 -37.5 93t-38.5 43.5t-58 21.5zM289 1587l157 92q44 25 80.5 35t60.5 5.5t40 -18.5t23 -34.5t7 -44.5l-362 -61z" />
<glyph unicode="&#xde;" horiz-adv-x="780" d="M51 0v20q37 10 52.5 23t22.5 44.5t7 98.5v1061q0 67 -7 98.5t-22.5 44.5t-52.5 23v21h346v-21q-36 -10 -51 -23t-22 -44.5t-7 -98.5v-82q86 21 129 21q60 0 112 -25.5t95 -78.5t67.5 -146.5t24.5 -218.5t-24.5 -218.5t-67.5 -146.5t-95 -78.5t-112 -25.5q-47 0 -129 20 v-82q0 -67 7 -98.5t22 -44.5t51 -23v-20h-346zM317 313q39 -24 78 -24q34 0 59.5 18t47 63t32.5 132t11 215q0 103 -7.5 180t-20.5 124t-33 75t-41 38.5t-48 10.5q-37 0 -78 -25v-807z" />
<glyph unicode="&#xdf;" horiz-adv-x="872" d="M29 0v20q36 10 51 23t22 44.5t7 98.5v707q0 104 -80 104v27h80q0 428 315 428q262 0 262 -350q-115 -29 -166 -79.5t-51 -131.5q0 -46 20 -89.5t52 -80.5t70.5 -75.5t77 -81.5t70.5 -90t52 -111t20 -136q0 -128 -62 -186.5t-159 -58.5q-55 0 -107.5 14t-82.5 14l-33 418 h41q16 -131 32.5 -214t35.5 -122t36 -51t41 -12q70 0 70 149q0 90 -24.5 172t-60 144.5t-71 120.5t-60 123.5t-24.5 129.5q0 94 45.5 151t118.5 97q0 149 -32 223t-103 74q-44 0 -73.5 -24t-44.5 -70.5t-21 -101.5t-6 -132v-1085h-258z" />
<glyph unicode="&#xe0;" horiz-adv-x="841" d="M61 387q0 206 75.5 306t193.5 100q143 0 202 -160v63q0 171 -33.5 238t-113.5 67q-151 0 -240 -194h-43l74 205q36 0 116.5 15t129.5 15q137 0 213 -83t76 -257v-489q0 -101 12 -119t78 0l10 -18l-133 -66q-53 -26 -88 -26q-58 0 -58 71v88q-63 -161 -204 -161 q-116 0 -191.5 100.5t-75.5 304.5zM238 1253q0 31 11.5 54.5t35 37t65.5 5.5t96 -39l160 -92l-8 -27zM250 387q0 -156 35.5 -237.5t103.5 -81.5q65 0 104 80.5t39 238.5q0 159 -39 239.5t-102 80.5q-69 0 -105 -81.5t-36 -238.5z" />
<glyph unicode="&#xe1;" horiz-adv-x="841" d="M61 387q0 206 75.5 306t193.5 100q143 0 202 -160v63q0 171 -33.5 238t-113.5 67q-151 0 -240 -194h-43l74 205q36 0 116.5 15t129.5 15q137 0 213 -83t76 -257v-489q0 -101 12 -119t78 0l10 -18l-133 -66q-53 -26 -88 -26q-58 0 -58 71v88q-63 -161 -204 -161 q-116 0 -191.5 100.5t-75.5 304.5zM240 1219l157 92q55 31 97.5 39t66 -5.5t35.5 -37t12 -54.5l-362 -61zM250 387q0 -156 35.5 -237.5t103.5 -81.5q65 0 104 80.5t39 238.5q0 159 -39 239.5t-102 80.5q-69 0 -105 -81.5t-36 -238.5z" />
<glyph unicode="&#xe2;" horiz-adv-x="841" d="M61 387q0 206 75.5 306t193.5 100q143 0 202 -160v63q0 171 -33.5 238t-113.5 67q-151 0 -240 -194h-43l74 205q36 0 116.5 15t129.5 15q137 0 213 -83t76 -257v-489q0 -101 12 -119t78 0l10 -18l-133 -66q-53 -26 -88 -26q-58 0 -58 71v88q-63 -161 -204 -161 q-116 0 -191.5 100.5t-75.5 304.5zM197 1206l139 174q39 45 84 45t84 -45l143 -174l-26 -26l-201 127l-197 -127zM250 387q0 -156 35.5 -237.5t103.5 -81.5q65 0 104 80.5t39 238.5q0 159 -39 239.5t-102 80.5q-69 0 -105 -81.5t-36 -238.5z" />
<glyph unicode="&#xe3;" horiz-adv-x="841" d="M61 387q0 206 75.5 306t193.5 100q143 0 202 -160v63q0 171 -33.5 238t-113.5 67q-151 0 -240 -194h-43l74 205q36 0 116.5 15t129.5 15q137 0 213 -83t76 -257v-489q0 -101 12 -119t78 0l10 -18l-133 -66q-53 -26 -88 -26q-58 0 -58 71v88q-63 -161 -204 -161 q-116 0 -191.5 100.5t-75.5 304.5zM162 1253q13 36 22.5 59t26 54t33.5 48.5t41.5 30.5t52.5 13q32 0 62.5 -18t50.5 -39.5t45 -39.5t47 -18q30 0 51.5 21.5t50.5 73.5l37 -17q-13 -42 -26 -73.5t-33.5 -63.5t-49 -49.5t-63.5 -17.5q-32 0 -63 18t-51 39t-44.5 39t-46.5 18 q-31 0 -54.5 -22t-51.5 -72zM250 387q0 -156 35.5 -237.5t103.5 -81.5q65 0 104 80.5t39 238.5q0 159 -39 239.5t-102 80.5q-69 0 -105 -81.5t-36 -238.5z" />
<glyph unicode="&#xe4;" horiz-adv-x="841" d="M61 387q0 206 75.5 306t193.5 100q143 0 202 -160v63q0 171 -33.5 238t-113.5 67q-151 0 -240 -194h-43l74 205q36 0 116.5 15t129.5 15q137 0 213 -83t76 -257v-489q0 -101 12 -119t78 0l10 -18l-133 -66q-53 -26 -88 -26q-58 0 -58 71v88q-63 -161 -204 -161 q-116 0 -191.5 100.5t-75.5 304.5zM154 1309q0 48 31.5 79t80.5 31t82 -31.5t33 -78.5q0 -49 -32.5 -81t-82.5 -32q-49 0 -80.5 31.5t-31.5 81.5zM250 387q0 -156 35.5 -237.5t103.5 -81.5q65 0 104 80.5t39 238.5q0 159 -39 239.5t-102 80.5q-69 0 -105 -81.5t-36 -238.5z M465 1309q0 47 33 78.5t82 31.5q47 0 79.5 -31.5t32.5 -78.5q0 -49 -32 -81t-80 -32q-50 0 -82.5 32t-32.5 81z" />
<glyph unicode="&#xe5;" horiz-adv-x="841" d="M61 387q0 206 75.5 306t193.5 100q143 0 202 -160v63q0 171 -33.5 238t-113.5 67q-151 0 -240 -194h-43l74 205q36 0 116.5 15t129.5 15q137 0 213 -83t76 -257v-489q0 -101 12 -119t78 0l10 -18l-133 -66q-53 -26 -88 -26q-58 0 -58 71v88q-63 -161 -204 -161 q-116 0 -191.5 100.5t-75.5 304.5zM250 387q0 -156 35.5 -237.5t103.5 -81.5q65 0 104 80.5t39 238.5q0 159 -39 239.5t-102 80.5q-69 0 -105 -81.5t-36 -238.5zM272 1296q0 57 42 97.5t108 40.5q64 0 105.5 -40.5t41.5 -97.5q0 -60 -41 -100.5t-106 -40.5q-66 0 -108 40.5 t-42 100.5zM315 1296q0 -43 29 -73.5t78 -30.5q48 0 77 30.5t29 73.5q0 42 -29 72.5t-77 30.5q-49 0 -78 -30.5t-29 -72.5z" />
<glyph unicode="&#xe6;" horiz-adv-x="1189" d="M61 381q0 211 79.5 313.5t199.5 102.5q126 0 180 -133v32q0 172 -32 238.5t-109 66.5q-63 0 -124 -40t-122 -150h-41l92 201q34 0 110 15t128 15q146 0 213 -100q83 100 215 100q131 0 204.5 -103.5t73.5 -289.5h-413v-45q0 -116 11 -209.5t34 -166t62 -112.5t91 -40 q64 0 117 72.5t80 244.5l41 -4q-16 -117 -45.5 -199t-70.5 -126t-86.5 -63t-100.5 -19q-176 0 -260 170q-75 -170 -250 -170q-124 0 -200.5 95.5t-76.5 303.5zM248 395q0 -323 151 -323q110 0 166 137q-42 122 -45 287q0 105 -36.5 162t-94.5 57q-79 0 -110 -79t-31 -241z M717 690h235q0 164 -26 237.5t-78 73.5q-62 0 -93.5 -79t-37.5 -232z" />
<glyph unicode="&#xe7;" horiz-adv-x="716" d="M61 524q0 242 93 380t258 138q45 0 104 -14t88 -14l37 -348h-41q-15 106 -33.5 176t-41.5 103t-44 44.5t-49 11.5q-59 0 -99 -56t-58.5 -151t-18.5 -225q0 -103 10 -188.5t31.5 -155.5t59.5 -109.5t89 -39.5q145 0 189 317l41 -4q-32 -220 -105 -312.5t-184 -94.5 l-27 -72q185 -38 185 -178q0 -63 -43.5 -96t-112.5 -33q-24 0 -59.5 8t-57.5 8l-28 201h39q20 -110 39.5 -145t46.5 -35q45 0 45 67q0 56 -25 105.5t-72 81.5v20l27 70q-138 17 -210.5 154.5t-72.5 385.5z" />
<glyph unicode="&#xe8;" horiz-adv-x="731" d="M61 524q0 245 88 381.5t242 136.5q131 0 205 -104t74 -289h-414v-45q0 -115 11 -209t34.5 -166.5t62.5 -112.5t91 -40q64 0 116.5 72.5t79.5 244.5l41 -4q-16 -117 -45.5 -199t-70.5 -126t-86.5 -63t-100.5 -19q-159 0 -243.5 140.5t-84.5 401.5zM211 1253 q0 31 11.5 54.5t35.5 37t66 5.5t96 -39l160 -92l-9 -27zM258 690h236q0 163 -26.5 237t-78.5 74q-62 0 -93.5 -79t-37.5 -232z" />
<glyph unicode="&#xe9;" horiz-adv-x="731" d="M61 524q0 245 88 381.5t242 136.5q131 0 205 -104t74 -289h-414v-45q0 -115 11 -209t34.5 -166.5t62.5 -112.5t91 -40q64 0 116.5 72.5t79.5 244.5l41 -4q-16 -117 -45.5 -199t-70.5 -126t-86.5 -63t-100.5 -19q-159 0 -243.5 140.5t-84.5 401.5zM211 1219l158 92 q55 31 97.5 39t66 -5.5t35.5 -37t12 -54.5l-363 -61zM258 690h236q0 163 -26.5 237t-78.5 74q-62 0 -93.5 -79t-37.5 -232z" />
<glyph unicode="&#xea;" horiz-adv-x="731" d="M61 524q0 245 88 381.5t242 136.5q131 0 205 -104t74 -289h-414v-45q0 -115 11 -209t34.5 -166.5t62.5 -112.5t91 -40q64 0 116.5 72.5t79.5 244.5l41 -4q-16 -117 -45.5 -199t-70.5 -126t-86.5 -63t-100.5 -19q-159 0 -243.5 140.5t-84.5 401.5zM170 1206l139 174 q39 45 84 45t84 -45l144 -174l-27 -26l-201 127l-196 -127zM258 690h236q0 163 -26.5 237t-78.5 74q-62 0 -93.5 -79t-37.5 -232z" />
<glyph unicode="&#xeb;" horiz-adv-x="731" d="M61 524q0 245 88 381.5t242 136.5q131 0 205 -104t74 -289h-414v-45q0 -115 11 -209t34.5 -166.5t62.5 -112.5t91 -40q64 0 116.5 72.5t79.5 244.5l41 -4q-16 -117 -45.5 -199t-70.5 -126t-86.5 -63t-100.5 -19q-159 0 -243.5 140.5t-84.5 401.5zM125 1309q0 47 32 78.5 t81 31.5t81.5 -31.5t32.5 -78.5q0 -49 -32 -81t-82 -32t-81.5 32t-31.5 81zM258 690h236q0 163 -26.5 237t-78.5 74q-62 0 -93.5 -79t-37.5 -232zM436 1309q0 47 33 78.5t82 31.5q48 0 80.5 -31.5t32.5 -78.5q0 -49 -32.5 -81t-80.5 -32q-50 0 -82.5 32t-32.5 81z" />
<glyph unicode="&#xec;" horiz-adv-x="419" d="M12 1253q0 31 11.5 54.5t35.5 37t66 5.5t96 -39l160 -92l-8 -27zM31 0v20q40 10 57 23t25 44.5t8 98.5v621q0 67 -8 98.5t-25 44.5t-57 23v20h121q87 7 127 49h20v-856q0 -67 8 -98.5t25 -44.5t57 -23v-20h-358z" />
<glyph unicode="&#xed;" horiz-adv-x="419" d="M14 1219l158 92q55 31 97.5 39t66 -5.5t35.5 -37t12 -54.5l-363 -61zM31 0v20q40 10 57 23t25 44.5t8 98.5v621q0 67 -8 98.5t-25 44.5t-57 23v20h121q87 7 127 49h20v-856q0 -67 8 -98.5t25 -44.5t57 -23v-20h-358z" />
<glyph unicode="&#xee;" horiz-adv-x="419" d="M-29 1206l140 174q39 45 84 45t84 -45l143 -174l-27 -26l-200 127l-197 -127zM31 0v20q40 10 57 23t25 44.5t8 98.5v621q0 67 -8 98.5t-25 44.5t-57 23v20h121q87 7 127 49h20v-856q0 -67 8 -98.5t25 -44.5t57 -23v-20h-358z" />
<glyph unicode="&#xef;" horiz-adv-x="419" d="M-72 1309q0 47 32 78.5t81 31.5t82 -31.5t33 -78.5q0 -49 -32.5 -81t-82.5 -32q-49 0 -81 32t-32 81zM31 0v20q40 10 57 23t25 44.5t8 98.5v621q0 67 -8 98.5t-25 44.5t-57 23v20h121q87 7 127 49h20v-856q0 -67 8 -98.5t25 -44.5t57 -23v-20h-358zM240 1309 q0 47 32.5 78.5t81.5 31.5q48 0 80.5 -31.5t32.5 -78.5q0 -49 -32.5 -81t-80.5 -32q-50 0 -82 32t-32 81z" />
<glyph unicode="&#xf0;" horiz-adv-x="761" d="M55 524q0 114 17 204.5t44 148t64.5 96t76 54t79.5 15.5q96 0 151 -79q-32 209 -120 354l-123 -113l-27 31l129 117q-58 88 -147 168l12 36q106 -72 190 -153l146 131l26 -29l-143 -131q140 -143 206 -325t66 -437q0 -143 -19.5 -255t-51.5 -181t-75.5 -114t-87.5 -62.5 t-93 -17.5q-147 0 -233.5 132.5t-86.5 409.5zM250 498q0 -475 127 -475q131 0 131 575q0 181 -12 289q-28 51 -52 71.5t-55 20.5q-139 0 -139 -481z" />
<glyph unicode="&#xf1;" d="M25 0v20q40 10 57 23t25 44.5t8 98.5v621q0 67 -8 98.5t-25 44.5t-57 23v20h120q84 6 127 49h21v-141q119 141 252 141q98 0 147 -59t49 -188v-609q0 -67 8 -98.5t25 -44.5t57 -23v-20h-356v20q40 10 57 23t25 44.5t8 98.5v637q0 142 -88 142q-44 0 -87 -30.5t-97 -88.5 v-660q0 -67 8 -98.5t25 -44.5t57 -23v-20h-358zM168 1253q13 36 22.5 59t26 54t33.5 48.5t41.5 30.5t52.5 13q32 0 62.5 -18t50.5 -39.5t45 -39.5t47 -18q30 0 51.5 21.5t50.5 73.5l37 -17q-13 -42 -26 -73.5t-33.5 -63.5t-49 -49.5t-63.5 -17.5q-32 0 -63 18t-51 39 t-44.5 39t-46.5 18q-31 0 -54.5 -22t-51.5 -72z" />
<glyph unicode="&#xf2;" horiz-adv-x="802" d="M55 512q0 530 346 530q347 0 347 -530t-347 -530q-346 0 -346 530zM217 1253q0 31 11.5 54.5t35.5 37t66 5.5t96 -39l160 -92l-8 -27zM250 512q0 -186 15.5 -292.5t47.5 -151.5t88 -45t88.5 45t48 151.5t15.5 292.5q0 187 -15.5 293.5t-48 151t-88.5 44.5 q-54 0 -86.5 -45t-48.5 -152t-16 -292z" />
<glyph unicode="&#xf3;" horiz-adv-x="802" d="M55 512q0 530 346 530q347 0 347 -530t-347 -530q-346 0 -346 530zM217 1219l158 92q55 31 97.5 39t66 -5.5t35.5 -37t12 -54.5l-363 -61zM250 512q0 -186 15.5 -292.5t47.5 -151.5t88 -45t88.5 45t48 151.5t15.5 292.5q0 187 -15.5 293.5t-48 151t-88.5 44.5 q-54 0 -86.5 -45t-48.5 -152t-16 -292z" />
<glyph unicode="&#xf4;" horiz-adv-x="802" d="M55 512q0 530 346 530q347 0 347 -530t-347 -530q-346 0 -346 530zM174 1206l139 174q39 45 84 45t84 -45l144 -174l-27 -26l-201 127l-196 -127zM250 512q0 -186 15.5 -292.5t47.5 -151.5t88 -45t88.5 45t48 151.5t15.5 292.5q0 187 -15.5 293.5t-48 151t-88.5 44.5 q-54 0 -86.5 -45t-48.5 -152t-16 -292z" />
<glyph unicode="&#xf5;" horiz-adv-x="802" d="M55 512q0 530 346 530q347 0 347 -530t-347 -530q-346 0 -346 530zM139 1253q13 36 22.5 59t26 54t33.5 48.5t41.5 30.5t52.5 13q32 0 62.5 -18t50.5 -39.5t45 -39.5t47 -18q30 0 52.5 22t50.5 73l36 -17q-13 -42 -26 -73.5t-33.5 -63.5t-49 -49.5t-63.5 -17.5 q-32 0 -63 18t-50.5 39t-44 39t-46.5 18q-31 0 -55.5 -22.5t-51.5 -71.5zM250 512q0 -186 15.5 -292.5t47.5 -151.5t88 -45t88.5 45t48 151.5t15.5 292.5q0 187 -15.5 293.5t-48 151t-88.5 44.5q-54 0 -86.5 -45t-48.5 -152t-16 -292z" />
<glyph unicode="&#xf6;" horiz-adv-x="802" d="M55 512q0 530 346 530q347 0 347 -530t-347 -530q-346 0 -346 530zM131 1309q0 47 32 78.5t81 31.5t81.5 -31.5t32.5 -78.5q0 -49 -32 -81t-82 -32t-81.5 32t-31.5 81zM250 512q0 -186 15.5 -292.5t47.5 -151.5t88 -45t88.5 45t48 151.5t15.5 292.5q0 187 -15.5 293.5 t-48 151t-88.5 44.5q-54 0 -86.5 -45t-48.5 -152t-16 -292zM442 1309q0 47 33 78.5t82 31.5q48 0 80.5 -31.5t32.5 -78.5q0 -49 -32.5 -81t-80.5 -32q-50 0 -82.5 32t-32.5 81z" />
<glyph unicode="&#xf7;" horiz-adv-x="661" d="M102 492v40h469v-40h-469zM274 313q0 25 17.5 44.5t40.5 19.5t40 -19.5t17 -44.5q0 -27 -16.5 -46t-40.5 -19t-41 19t-17 46zM274 713q0 25 17.5 44t40.5 19t40 -19t17 -44q0 -28 -17 -47t-40 -19q-24 0 -41 19.5t-17 46.5z" />
<glyph unicode="&#xf8;" horiz-adv-x="802" d="M55 512q0 530 346 530q53 0 99 -12l47 199h43l-51 -213q209 -91 209 -504q0 -530 -347 -530q-59 0 -102 14l-47 -201h-43l51 215q-205 92 -205 502zM250 512q0 -285 37 -389l196 840q-28 38 -82 38t-86.5 -45t-48.5 -152t-16 -292zM315 66q32 -43 86 -43q56 0 88.5 45 t48 151.5t15.5 292.5q0 288 -39 395z" />
<glyph unicode="&#xf9;" horiz-adv-x="870" d="M33 977v20l121 2q83 3 127 50h20v-852q0 -142 88 -142q79 0 184 115v641q0 67 -8 98.5t-25 44.5t-57 23v20l121 2q84 3 125 50h21v-826q0 -67 8 -98t25 -44t57 -24v-20h-121q-86 -7 -125 -51h-21v133q-118 -144 -251 -144q-199 0 -199 250v586q0 67 -8 98.5t-25 44.5 t-57 23zM244 1253q0 31 11.5 54.5t35.5 37t66 5.5t96 -39l159 -92l-8 -27z" />
<glyph unicode="&#xfa;" horiz-adv-x="870" d="M33 977v20l121 2q83 3 127 50h20v-852q0 -142 88 -142q79 0 184 115v641q0 67 -8 98.5t-25 44.5t-57 23v20l121 2q84 3 125 50h21v-826q0 -67 8 -98t25 -44t57 -24v-20h-121q-86 -7 -125 -51h-21v133q-118 -144 -251 -144q-199 0 -199 250v586q0 67 -8 98.5t-25 44.5 t-57 23zM244 1219l157 92q55 31 97.5 39t66 -5.5t35.5 -37t12 -54.5l-362 -61z" />
<glyph unicode="&#xfb;" horiz-adv-x="870" d="M33 977v20l121 2q83 3 127 50h20v-852q0 -142 88 -142q79 0 184 115v641q0 67 -8 98.5t-25 44.5t-57 23v20l121 2q84 3 125 50h21v-826q0 -67 8 -98t25 -44t57 -24v-20h-121q-86 -7 -125 -51h-21v133q-118 -144 -251 -144q-199 0 -199 250v586q0 67 -8 98.5t-25 44.5 t-57 23zM201 1206l139 174q39 45 84 45t84 -45l143 -174l-26 -26l-201 127l-197 -127z" />
<glyph unicode="&#xfc;" horiz-adv-x="870" d="M33 977v20l121 2q83 3 127 50h20v-852q0 -142 88 -142q79 0 184 115v641q0 67 -8 98.5t-25 44.5t-57 23v20l121 2q84 3 125 50h21v-826q0 -67 8 -98t25 -44t57 -24v-20h-121q-86 -7 -125 -51h-21v133q-118 -144 -251 -144q-199 0 -199 250v586q0 67 -8 98.5t-25 44.5 t-57 23zM158 1309q0 48 31.5 79t80.5 31t82 -31.5t33 -78.5q0 -49 -32.5 -81t-82.5 -32q-49 0 -80.5 31.5t-31.5 81.5zM469 1309q0 47 33 78.5t82 31.5q47 0 79.5 -31.5t32.5 -78.5q0 -49 -32 -81t-80 -32q-50 0 -82.5 32t-32.5 81z" />
<glyph unicode="&#xfd;" horiz-adv-x="837" d="M20 1004v20h398v-20q-40 -7 -58.5 -14t-27.5 -25.5t-5.5 -44t15.5 -76.5l158 -635l151 635q12 51 15.5 76.5t-5.5 44t-27.5 25.5t-58.5 14v20h242v-20q-38 -10 -57 -22t-36 -43.5t-32 -94.5l-243 -1024q-15 -60 -24 -93t-23 -71t-28 -56.5t-34.5 -31t-46.5 -12.5 q-30 0 -69.5 15t-67.5 15l-43 387h41q19 -128 37 -208t36.5 -114.5t32.5 -44t35 -9.5q36 0 60.5 49.5t54.5 179.5l36 156h-69l-227 862q-17 63 -35.5 94.5t-37.5 43.5t-57 22zM276 1219l158 92q55 31 97.5 39t66 -5.5t35.5 -37t12 -54.5l-362 -61z" />
<glyph unicode="&#xfe;" horiz-adv-x="821" d="M25 -389q40 10 57 23t25 44.5t8 98.5v1444q0 67 -8 98t-25 44t-57 23v21l120 2q89 3 127 49h21v-538q43 61 93 91.5t118 30.5q118 0 187 -130t69 -375q0 -256 -79 -405.5t-208 -149.5q-64 0 -107.5 28t-72.5 88v-321q0 -67 8 -98.5t25 -44.5t57 -23v-21h-358v21zM293 350 q3 -142 40.5 -221.5t92.5 -79.5q48 0 78 44t45.5 147.5t15.5 275.5q0 245 -31.5 345t-103.5 100q-35 0 -67 -22t-70 -73v-516z" />
<glyph unicode="&#xff;" horiz-adv-x="837" d="M20 1004v20h398v-20q-40 -7 -58.5 -14t-27.5 -25.5t-5.5 -44t15.5 -76.5l158 -635l151 635q12 51 15.5 76.5t-5.5 44t-27.5 25.5t-58.5 14v20h242v-20q-38 -10 -57 -22t-36 -43.5t-32 -94.5l-243 -1024q-15 -60 -24 -93t-23 -71t-28 -56.5t-34.5 -31t-46.5 -12.5 q-30 0 -69.5 15t-67.5 15l-43 387h41q19 -128 37 -208t36.5 -114.5t32.5 -44t35 -9.5q36 0 60.5 49.5t54.5 179.5l36 156h-69l-227 862q-17 63 -35.5 94.5t-37.5 43.5t-57 22zM190 1309q0 47 32 78.5t81 31.5t82 -31.5t33 -78.5q0 -49 -32.5 -81t-82.5 -32q-49 0 -81 32 t-32 81zM502 1309q0 47 32.5 78.5t81.5 31.5q48 0 80.5 -31.5t32.5 -78.5q0 -49 -32.5 -81t-80.5 -32q-50 0 -82 32t-32 81z" />
<glyph unicode="&#x152;" horiz-adv-x="1148" d="M51 717q0 197 27 340t78.5 229t121.5 126t162 40q48 0 135.5 -9t149.5 -9h332l39 -498h-41q-12 113 -21.5 186t-22 126t-22.5 80.5t-28.5 43t-35 18.5t-46.5 3h-162v-613h112q56 0 66 33.5t2 185.5h41l39 -503h-43q-17 165 -29 198q-12 36 -45 42q-14 3 -39 3h-104v-698 h176q29 0 45 3.5t34.5 19t29.5 44.5t23.5 82.5t22.5 130t21 189.5h43l-39 -510h-348q-62 0 -149.5 -9t-135.5 -9q-92 0 -162 40t-121.5 126t-78.5 229t-27 340zM260 717q0 -260 17.5 -409t57.5 -217t109 -68q57 0 88 36v1315q-29 37 -88 37q-69 0 -109 -68t-57.5 -217 t-17.5 -409z" />
<glyph unicode="&#x153;" horiz-adv-x="1224" d="M55 512q0 530 346 530q166 0 252 -120q88 120 232 120q131 0 204.5 -103.5t73.5 -289.5h-413v-45q0 -116 11 -209.5t34 -166t62 -112.5t91 -40q64 0 117 72.5t80 244.5l41 -4q-16 -117 -45.5 -199t-70.5 -126t-86.5 -63t-100.5 -19q-147 0 -230 120q-84 -120 -252 -120 q-346 0 -346 530zM250 512q0 -186 15.5 -292.5t47.5 -151.5t88 -45t88.5 45t48 151.5t15.5 292.5q0 187 -15.5 293.5t-48 151t-88.5 44.5q-54 0 -86.5 -45t-48.5 -152t-16 -292zM752 690h235q0 164 -26 237.5t-78 73.5q-62 0 -93.5 -79t-37.5 -232z" />
<glyph unicode="&#x178;" horiz-adv-x="860" d="M20 1413v21h402v-21q-29 -6 -44 -12t-25.5 -15t-10.5 -27.5t4.5 -41t15.5 -64.5l156 -565l152 565q17 67 17.5 95.5t-16 41.5t-63.5 23v21h232v-21q-38 -10 -57 -22t-36.5 -43.5t-33.5 -94.5l-172 -663v-404q0 -67 7 -98.5t22 -44.5t51 -23v-20h-347v20q36 10 51 23 t22 44.5t7 98.5v377l-200 692q-18 61 -37.5 93t-38.5 43.5t-58 21.5zM203 1677q0 48 31.5 79.5t80.5 31.5t82 -32t33 -79q0 -49 -32.5 -80.5t-82.5 -31.5q-49 0 -80.5 31.5t-31.5 80.5zM514 1677q0 47 33 79t82 32q47 0 79.5 -32t32.5 -79q0 -49 -32 -80.5t-80 -31.5 q-50 0 -82.5 31.5t-32.5 80.5z" />
<glyph unicode="&#x2c6;" horiz-adv-x="655" d="M102 1206l140 174q39 45 84 45t84 -45l143 -174l-27 -26l-200 127l-197 -127z" />
<glyph unicode="&#x2dc;" horiz-adv-x="724" d="M102 1253q17 46 29.5 74.5t34.5 62.5t50 51t63 17q32 0 62.5 -18t50 -39.5t44.5 -39.5t47 -18q30 0 52.5 22t50.5 73l37 -17q-13 -42 -26 -73.5t-33.5 -63.5t-49 -49.5t-63.5 -17.5q-32 0 -63 18t-51 39t-44.5 39t-46.5 18q-31 0 -55.5 -22.5t-51.5 -71.5z" />
<glyph unicode="&#x2000;" horiz-adv-x="934" />
<glyph unicode="&#x2001;" horiz-adv-x="1868" />
<glyph unicode="&#x2002;" horiz-adv-x="934" />
<glyph unicode="&#x2003;" horiz-adv-x="1868" />
<glyph unicode="&#x2004;" horiz-adv-x="622" />
<glyph unicode="&#x2005;" horiz-adv-x="467" />
<glyph unicode="&#x2006;" horiz-adv-x="311" />
<glyph unicode="&#x2007;" horiz-adv-x="311" />
<glyph unicode="&#x2008;" horiz-adv-x="233" />
<glyph unicode="&#x2009;" horiz-adv-x="373" />
<glyph unicode="&#x200a;" horiz-adv-x="103" />
<glyph unicode="&#x2010;" horiz-adv-x="610" d="M61 492v40h488v-40h-488z" />
<glyph unicode="&#x2011;" horiz-adv-x="610" d="M61 492v40h488v-40h-488z" />
<glyph unicode="&#x2012;" horiz-adv-x="610" d="M61 492v40h488v-40h-488z" />
<glyph unicode="&#x2013;" horiz-adv-x="851" d="M61 492v40h730v-40h-730z" />
<glyph unicode="&#x2014;" horiz-adv-x="1277" d="M61 492v40h1217v-40h-1217z" />
<glyph unicode="&#x2018;" horiz-adv-x="305" d="M55 1135q0 80 39 157t111 164l28 -29q-52 -70 -67.5 -103t-15.5 -62q0 -24 15.5 -42t34.5 -28t34.5 -31.5t15.5 -52.5q0 -43 -26.5 -67.5t-65.5 -24.5q-47 0 -75 30t-28 89z" />
<glyph unicode="&#x2019;" horiz-adv-x="305" d="M55 1366q0 43 26.5 67.5t65.5 24.5q47 0 75 -30t28 -89q0 -80 -39 -157t-111 -164l-28 29q52 71 68 103.5t16 61.5q0 24 -16 42t-34.5 28t-34.5 31.5t-16 52.5z" />
<glyph unicode="&#x201a;" horiz-adv-x="305" d="M55 111q0 43 26.5 67.5t65.5 24.5q47 0 75 -30t28 -89q0 -140 -150 -322l-28 29q52 70 68 103.5t16 62.5q0 24 -16 42t-34.5 28t-34.5 31.5t-16 52.5z" />
<glyph unicode="&#x201c;" horiz-adv-x="563" d="M55 1135q0 80 39 157t111 164l28 -29q-52 -70 -67.5 -103t-15.5 -62q0 -24 15.5 -42t34.5 -28t34.5 -31.5t15.5 -52.5q0 -43 -26.5 -67.5t-65.5 -24.5q-47 0 -75 30t-28 89zM313 1135q0 80 39 157t111 164l29 -29q-52 -71 -68 -103.5t-16 -61.5q0 -24 15.5 -42t34.5 -28 t34.5 -31.5t15.5 -52.5q0 -43 -26.5 -67.5t-65.5 -24.5q-47 0 -75 30t-28 89z" />
<glyph unicode="&#x201d;" horiz-adv-x="567" d="M55 1366q0 43 26.5 67.5t65.5 24.5q47 0 75 -30t28 -89q0 -80 -39 -157t-111 -164l-28 29q52 71 68 103.5t16 61.5q0 24 -16 42t-34.5 28t-34.5 31.5t-16 52.5zM319 1366q0 42 27 67t66 25q46 0 74 -30t28 -89q0 -80 -39 -157.5t-110 -163.5l-29 29q52 71 68 103.5 t16 61.5q0 24 -16 42t-34.5 28t-34.5 31.5t-16 52.5z" />
<glyph unicode="&#x201e;" horiz-adv-x="577" d="M55 111q0 43 26.5 67.5t65.5 24.5q47 0 75 -30t28 -89q0 -140 -150 -322l-28 29q52 70 68 103.5t16 62.5q0 24 -16 42t-34.5 28t-34.5 31.5t-16 52.5zM328 111q0 43 26.5 67.5t65.5 24.5q46 0 74 -30t28 -89q0 -141 -149 -322l-29 29q52 70 68 103.5t16 62.5 q0 24 -15.5 42t-34.5 28t-34.5 31.5t-15.5 52.5z" />
<glyph unicode="&#x2022;" horiz-adv-x="530" d="M70 508q0 93 53.5 155t140.5 62q88 0 140.5 -62t52.5 -155q0 -96 -52 -157.5t-141 -61.5q-88 0 -141 62t-53 157z" />
<glyph unicode="&#x2026;" horiz-adv-x="1107" d="M51 92q0 47 28 79t71 32q45 0 71.5 -32t26.5 -79q0 -48 -26.5 -79t-71.5 -31q-44 0 -71.5 31t-27.5 79zM412 92q0 47 27.5 79t70.5 32q45 0 71.5 -32t26.5 -79q0 -48 -26.5 -79t-71.5 -31q-44 0 -71 31t-27 79zM770 92q0 47 27.5 79t70.5 32q45 0 72 -32t27 -79 q0 -48 -27 -79t-72 -31q-44 0 -71 31t-27 79z" />
<glyph unicode="&#x202f;" horiz-adv-x="373" />
<glyph unicode="&#x2039;" horiz-adv-x="438" d="M102 514q0 25 14 51t48 66l184 205l29 -19l-144 -303l144 -303l-29 -18l-184 204q-34 40 -48 66t-14 51z" />
<glyph unicode="&#x203a;" horiz-adv-x="438" d="M61 211l144 303l-144 303l29 19l184 -205q34 -40 48 -66t14 -51t-14 -51t-48 -66l-184 -204z" />
<glyph unicode="&#x205f;" horiz-adv-x="467" />
<glyph unicode="&#x20ac;" horiz-adv-x="759" d="M-10 637v41h100v67v23h-100v41h100q10 331 114.5 487t276.5 156q47 0 104 -11t87 -11l39 -482h-41q-22 193 -50 297t-57.5 135t-75.5 31q-86 0 -136 -147t-54 -455h266v-41h-266v-4v-86h266v-41h-264q9 -274 59 -417.5t138 -143.5q171 0 194 493l41 -4q-9 -172 -32 -288 t-61.5 -180t-84 -89.5t-109.5 -25.5q-156 0 -247.5 166t-104.5 489h-102z" />
<glyph unicode="&#x2122;" horiz-adv-x="993" d="M41 1221l20 213h347l18 -213h-20q-14 78 -26 114.5t-26 47t-41 10.5h-32v-410q0 -62 11 -79.5t52 -26.5v-13h-219v13q41 9 53 27t12 79v410h-36q-27 0 -40.5 -10.5t-25.5 -46.5t-27 -115h-20zM418 864v13q38 9 50.5 27t16.5 79l19 332q3 62 -6.5 79.5t-48.5 26.5v13h157 l78 -334l74 334h157v-13q-39 -9 -48.5 -26.5t-6.5 -79.5l23 -332q3 -60 15.5 -78t51.5 -28v-13h-215v13q38 9 47 26.5t6 79.5l-24 379l-102 -498h-25l-111 498l-20 -379q-4 -61 5.5 -79t47.5 -27v-13h-141z" />
<glyph unicode="&#x25fc;" horiz-adv-x="1024" d="M0 0v1024h1024v-1024h-1024z" />
<glyph unicode="&#xfb01;" horiz-adv-x="841" d="M18 983v41h175q-160 87 -160 250q0 178 260 178q68 0 155 -14.5t130 -14.5l67 -321h-78q-37 177 -92 243t-149 66q-69 0 -108.5 -38.5t-39.5 -108.5q0 -90 56.5 -165t142.5 -75h51q145 0 192.5 2.5t79.5 15.5h21v-856q0 -67 8 -98.5t25 -44.5t57 -23v-20h-358v20 q40 10 57 23t25 44.5t8 98.5v703q0 60 -21 77t-94 17q-77 0 -98 -17t-21 -77v-703q0 -67 10 -98.5t31.5 -44.5t71.5 -23v-20h-381v20q40 10 57 23t25 44.5t8 98.5v703q0 62 -18.5 78t-94.5 16z" />
<glyph unicode="&#xfb02;" horiz-adv-x="833" d="M18 983v41h175q-160 100 -160 244q0 184 239 184q64 0 156 -14.5t137 -14.5q29 0 46 1t42 10t43 26h21v-1274q0 -67 8 -98.5t25 -44.5t57 -23v-20h-358v20q40 10 57 23t25 44.5t8 98.5v1006q0 63 -17.5 107.5t-48.5 68t-66.5 33.5t-78.5 10q-75 0 -112.5 -39.5 t-37.5 -111.5q0 -85 54.5 -160.5t132.5 -75.5h88v-41q-98 0 -123 -16.5t-25 -77.5v-703q0 -67 10 -98.5t31.5 -44.5t71.5 -23v-20h-381v20q40 10 57 23t25 44.5t8 98.5v703q0 61 -18 77.5t-91 16.5z" />
<glyph unicode="&#xfb03;" horiz-adv-x="1255" d="M18 983v41h177q-162 89 -162 233q0 86 59.5 131.5t155.5 45.5q56 0 99.5 -8t82 -20.5t57.5 -16.5q60 63 220 63q68 0 154.5 -14.5t129.5 -14.5l68 -321h-78q-37 177 -92.5 243t-149.5 66q-69 0 -108 -38.5t-39 -108.5q0 -90 56.5 -165t142.5 -75h51q145 0 192.5 2.5 t79.5 15.5h21v-856q0 -67 8 -98.5t25 -44.5t57 -23v-20h-359v20q40 10 57 23t25 44.5t8 98.5v703q0 60 -20.5 77t-93.5 17q-77 0 -98 -17t-21 -77v-703q0 -67 10 -98.5t31.5 -44.5t71.5 -23v-20h-381v20q40 10 57 23t25 44.5t8 98.5v703q0 62 -18.5 78t-94.5 16 q-81 0 -102 -16.5t-21 -77.5v-703q0 -67 9.5 -98.5t31 -44.5t72.5 -23v-20h-383v20q59 14 75.5 42t16.5 124v703q0 62 -18.5 78t-94.5 16zM172 1251q0 -93 52.5 -156.5t142.5 -70.5h239q-160 87 -160 250q0 32 9 59q-41 29 -76 43.5t-80 14.5q-58 0 -92.5 -33.5 t-34.5 -106.5z" />
</font>
</defs>
</svg>
