<?xml version="1.0" standalone="no"?>
<!DOCTYPE svg PUBLIC "-//W3C//DTD SVG 1.1//EN" "http://www.w3.org/Graphics/SVG/1.1/DTD/svg11.dtd" >
<svg xmlns="http://www.w3.org/2000/svg" xmlns:xlink="http://www.w3.org/1999/xlink" version="1.1">
<metadata></metadata>
<defs>
<font id="pp_neue_montrealbook" horiz-adv-x="1075" vert-adv-y="2048" >
<font-face units-per-em="2048" ascent="1638" descent="-410" />
<missing-glyph horiz-adv-x="448" />
<glyph horiz-adv-x="0" vert-adv-y="0" />
<glyph horiz-adv-x="682" />
<glyph unicode="&#xd;" horiz-adv-x="448" vert-adv-y="2457" />
<glyph unicode=" " horiz-adv-x="448" vert-adv-y="2457" />
<glyph unicode="!" horiz-adv-x="425" vert-adv-y="2457" d="M125 0v172h172v-172h-172zM135 1022v442h154v-442l-35 -645h-84z" />
<glyph unicode="&#x22;" horiz-adv-x="612" vert-adv-y="2457" d="M98 1464h138l-17 -485h-104zM379 1464h137l-16 -485h-105z" />
<glyph unicode="#" horiz-adv-x="1157" vert-adv-y="2457" d="M66 436l20 119h197l65 334h-217l21 117h219l78 405h118l-78 -405h271l78 405h118l-77 -405h219l-23 -117h-219l-63 -334h239l-20 -119h-242l-84 -436h-121l84 436h-268l-84 -436h-121l84 436h-194zM403 555h269l65 334h-270z" />
<glyph unicode="$" horiz-adv-x="1196" vert-adv-y="2457" d="M57 463h142q14 -157 103.5 -250.5t260.5 -110.5v574q-73 16 -131 34.5t-119 50t-101.5 69.5t-66.5 94.5t-26 124.5q0 167 119.5 268.5t324.5 107.5v152h103v-156q183 -21 295 -130t124 -292h-141q-27 259 -278 293v-512q82 -22 139 -41.5t112.5 -45.5t91 -55.5t64 -68.5 t41 -89t12.5 -113q0 -80 -29 -149.5t-84.5 -123t-144.5 -85.5t-202 -36v-180h-103v184q-217 19 -355 145.5t-151 340.5zM260 1061q0 -55 21 -95.5t65 -70t93 -48.5t124 -40v491q-141 -4 -222 -67.5t-81 -169.5zM666 98q164 6 239.5 75.5t77.5 186.5q3 120 -67.5 182 t-249.5 109v-553z" />
<glyph unicode="%" horiz-adv-x="1603" vert-adv-y="2457" d="M49 1036q0 112 33.5 200t108 143t180.5 55q155 0 237 -112.5t82 -285.5q0 -111 -32.5 -198t-106.5 -142t-180 -55t-180 55t-108 142t-34 198zM172 1036q0 -126 50 -204t149 -78q98 0 147 78t49 204q0 128 -49 206.5t-147 78.5q-100 0 -149.5 -78.5t-49.5 -206.5zM332 0 l805 1411h135l-803 -1411h-137zM915 371q0 82 19.5 153t58 126t101.5 86.5t143 31.5q155 0 238.5 -113t83.5 -284q0 -111 -33.5 -199t-108 -143.5t-180.5 -55.5q-105 0 -179.5 55.5t-108.5 143.5t-34 199zM1040 371q0 -128 49 -206.5t148 -78.5t148 78.5t49 206.5 q0 126 -49 204t-148 78t-148 -78t-49 -204z" />
<glyph unicode="&#x26;" horiz-adv-x="1216" vert-adv-y="2457" d="M66 360q0 67 21 126.5t52 103t81 86.5t92.5 70.5t101.5 60.5q-90 112 -133 192.5t-43 171.5q0 61 20.5 117t60 102t103.5 73.5t145 27.5q153 0 241.5 -93t88.5 -229q0 -63 -20 -116t-64 -99.5t-93.5 -83.5t-127.5 -84l321 -403q69 137 91 311h135q-28 -240 -135 -422 l217 -272h-160l-133 166q-168 -193 -426 -193q-200 0 -318 109t-118 278zM201 371q0 -120 82.5 -193.5t220.5 -73.5q207 0 340 166l-361 451q-53 -31 -88.5 -55t-75.5 -58t-63.5 -67.5t-39 -77t-15.5 -92.5zM373 1171q0 -70 39 -141t112 -160q121 70 179.5 135.5t58.5 155.5 t-52.5 147.5t-142.5 57.5q-92 0 -143 -57t-51 -138z" />
<glyph unicode="'" horiz-adv-x="333" vert-adv-y="2457" d="M98 1464h138l-17 -485h-104z" />
<glyph unicode="(" horiz-adv-x="512" vert-adv-y="2457" d="M76 649q0 269 77.5 497t202.5 400h121q-121 -210 -186.5 -421.5t-65.5 -475.5q0 -258 65.5 -469t186.5 -420h-121q-124 171 -202 399.5t-78 489.5z" />
<glyph unicode=")" horiz-adv-x="512" vert-adv-y="2457" d="M35 -240q121 210 186.5 421.5t65.5 475.5q0 258 -65.5 469t-186.5 420h121q124 -171 202 -399.5t78 -489.5q0 -269 -77.5 -497t-202.5 -400h-121z" />
<glyph unicode="*" horiz-adv-x="901" vert-adv-y="2457" d="M82 1171l37 91l276 -86l-2 288h113l-2 -288l278 86l37 -91l-278 -90l178 -227l-86 -61l-182 237l-183 -237l-86 61l178 227z" />
<glyph unicode="+" horiz-adv-x="1110" vert-adv-y="2457" d="M102 602v131h387l-2 400h136v-400h387v-131h-387v-401h-136l2 401h-387z" />
<glyph unicode="," horiz-adv-x="372" vert-adv-y="2457" d="M100 0v172h172v-172q0 -95 -37 -156.5t-135 -91.5v88q50 19 67.5 53t16.5 107h-84z" />
<glyph unicode="-" horiz-adv-x="718" vert-adv-y="2457" d="M84 457v131h549v-131h-549z" />
<glyph unicode="." horiz-adv-x="374" vert-adv-y="2457" d="M100 0v172h172v-172h-172z" />
<glyph unicode="/" horiz-adv-x="763" vert-adv-y="2457" d="M27 0l575 1464h135l-575 -1464h-135z" />
<glyph unicode="0" horiz-adv-x="1259" vert-adv-y="2457" d="M96 707q0 154 31 284.5t94 232.5t167.5 160t240.5 58t240.5 -58t167.5 -160t94.5 -232.5t31.5 -284.5t-31.5 -284.5t-94.5 -232.5t-167.5 -159.5t-240.5 -57.5q-110 0 -199 38t-150.5 104.5t-103.5 160t-61 201t-19 230.5zM252 707q0 -126 20.5 -231t63 -190.5 t117.5 -133.5t176 -48q82 0 147 32t108 87t71.5 133t40.5 164.5t12 186.5q0 101 -12 188t-40.5 164.5t-71.5 132.5t-108 87t-147 32q-101 0 -176 -48t-117.5 -133.5t-63 -190.5t-20.5 -232z" />
<glyph unicode="1" horiz-adv-x="632" vert-adv-y="2457" d="M25 1034v125q92 2 152.5 17.5t96 49t52 77.5t22.5 112h119v-1415h-148v1116q-47 -50 -116 -66t-178 -16z" />
<glyph unicode="2" horiz-adv-x="1124" vert-adv-y="2457" d="M63 0q0 367 418 600q20 11 58 33q61 34 89.5 51t73.5 45.5t65.5 47.5t47.5 48.5t38 57t19.5 63.5t8.5 78q0 44 -8.5 83.5t-29.5 77.5t-52.5 65.5t-81.5 44t-113 16.5q-89 0 -156 -29.5t-106 -82t-57.5 -118t-18.5 -143.5h-154q0 105 31 195t90.5 159.5t155 109.5 t217.5 40q188 0 313 -112t125 -304q0 -56 -13.5 -107t-32.5 -90t-54.5 -79t-65 -67t-80 -60.5t-83 -53t-89.5 -51.5q-44 -25 -58 -33t-54.5 -32.5t-56.5 -36t-49 -36t-47.5 -41t-38 -42.5t-35 -49.5t-22.5 -52.5t-15 -60v-4h780v-131h-959z" />
<glyph unicode="3" horiz-adv-x="1198" vert-adv-y="2457" d="M74 473h155q0 -172 92 -270.5t287 -98.5q344 0 344 287q0 77 -27.5 134.5t-73.5 88.5t-98 45.5t-110 14.5h-151v131h143q120 0 192 65t72 189q0 106 -70.5 179t-212.5 73q-348 0 -348 -314h-155q0 96 31.5 176.5t92.5 141t158 94t221 33.5q118 0 216.5 -44t160.5 -132.5 t62 -206.5q0 -116 -55.5 -190.5t-165.5 -118.5v-5q274 -85 274 -354q0 -197 -133.5 -307.5t-356.5 -110.5q-257 0 -400.5 132.5t-143.5 367.5z" />
<glyph unicode="4" horiz-adv-x="1148" vert-adv-y="2457" d="M51 344v131l692 940h148v-940h201v-131h-201v-344h-148v344h-692zM205 475h538v729z" />
<glyph unicode="5" horiz-adv-x="1140" vert-adv-y="2457" d="M76 399h153q12 -130 93 -212.5t241 -82.5q156 0 250 96.5t94 278.5q0 168 -87.5 250t-237.5 82q-108 0 -192 -40.5t-134 -108.5h-160l150 753h743v-131h-622l-97 -473v-4q120 135 344 135q200 0 324.5 -132t124.5 -331q0 -225 -139 -365.5t-355 -140.5 q-117 0 -211.5 35.5t-154 95.5t-92.5 135.5t-35 159.5z" />
<glyph unicode="6" horiz-adv-x="1185" vert-adv-y="2457" d="M98 690q0 358 138 555t393 197q181 0 298.5 -107.5t131.5 -271.5h-154q-12 117 -83.5 182.5t-192.5 65.5q-381 0 -381 -600v-41l2 -2q48 123 155 187.5t238 64.5q203 0 329 -129t126 -336q0 -134 -57 -242.5t-168 -174t-257 -65.5q-135 0 -234.5 49t-161.5 143.5t-92 225 t-30 299.5zM279 432q0 -142 89 -235t248 -93q155 0 240.5 92.5t85.5 249.5q0 159 -84 250.5t-227 91.5q-152 0 -252 -96t-100 -260z" />
<glyph unicode="7" horiz-adv-x="1026" vert-adv-y="2457" d="M16 1284v131h963v-115q-137 -111 -249.5 -270.5t-184.5 -333t-111 -353t-39 -343.5h-155q0 336 165.5 706.5t403.5 573.5v4h-793z" />
<glyph unicode="8" horiz-adv-x="1208" vert-adv-y="2457" d="M86 395q0 250 272 361v4q-202 98 -202 307q0 175 124.5 275t323.5 100q200 0 324.5 -100t124.5 -275q0 -208 -203 -307v-4q272 -112 272 -361q0 -135 -70.5 -232t-186 -143.5t-261.5 -46.5t-261.5 46.5t-186 143.5t-70.5 232zM242 401q0 -140 99 -218.5t263 -78.5 t263.5 78.5t99.5 218.5q0 136 -99.5 213.5t-263.5 77.5t-263 -77.5t-99 -213.5zM311 1067q0 -120 78.5 -182t214.5 -62t214.5 62t78.5 182t-78.5 182t-214.5 62t-214.5 -62t-78.5 -182z" />
<glyph unicode="9" horiz-adv-x="1187" vert-adv-y="2457" d="M88 961q0 134 56.5 242.5t167.5 173.5t257 65q518 0 518 -717q0 -358 -137.5 -555t-392.5 -197q-181 0 -298.5 107.5t-131.5 271.5h154q14 -116 84.5 -182t191.5 -66q86 0 152.5 31.5t109.5 85t70.5 131.5t39 164t11.5 189v40l-4 3q-48 -123 -154.5 -187.5t-238.5 -64.5 q-203 0 -329 129t-126 336zM244 969q0 -158 84.5 -249t226.5 -91q153 0 252.5 95t99.5 259q0 142 -89.5 235t-248.5 93q-155 0 -240 -92.5t-85 -249.5z" />
<glyph unicode=":" horiz-adv-x="393" vert-adv-y="2457" d="M111 0v172h172v-172h-172zM111 625v172h172v-172h-172z" />
<glyph unicode=";" horiz-adv-x="393" vert-adv-y="2457" d="M111 0v172h172v-172q0 -95 -37 -156.5t-135 -91.5v88q50 19 67.5 53t16.5 107h-84zM111 625v172h172v-172h-172z" />
<glyph unicode="&#x3c;" horiz-adv-x="1038" vert-adv-y="2457" d="M96 563v154l824 344v-135l-711 -285v-4l711 -287v-133z" />
<glyph unicode="=" horiz-adv-x="1105" vert-adv-y="2457" d="M106 459v131h895v-131h-895zM106 748v131h895v-131h-895z" />
<glyph unicode="&#x3e;" horiz-adv-x="1038" vert-adv-y="2457" d="M117 217v133l710 285v4l-710 287v135l825 -346v-154z" />
<glyph unicode="?" horiz-adv-x="976" vert-adv-y="2457" d="M33 1006q0 139 53.5 247.5t162.5 173t259 64.5q194 0 312 -100.5t118 -266.5q0 -50 -13.5 -95t-29.5 -75t-50 -66t-53 -52.5t-61 -50.5q-11 -9 -16 -13q-87 -73 -110 -98q-77 -84 -92 -217q-5 -40 -5 -88h-150q0 78 13.5 142t31.5 106t55 86t63.5 68t78.5 67 q90 74 117 104q71 79 71 180q0 107 -73 171.5t-203 64.5q-148 0 -239 -87.5t-91 -264.5h-149zM352 0v172h172v-172h-172z" />
<glyph unicode="@" horiz-adv-x="1775" vert-adv-y="2457" d="M68 600q0 241 107.5 437t298 307.5t425.5 111.5q231 0 413.5 -99t285 -277t102.5 -404q0 -130 -31.5 -231t-84.5 -159.5t-114.5 -88t-128.5 -29.5q-191 0 -237 201q-94 -199 -303 -199q-150 0 -246 114.5t-96 305.5q0 203 110 336t277 133q103 0 183 -55t108 -144h4 l22 184h117l-68 -534q-14 -105 20.5 -164t117.5 -59q106 0 167.5 102t61.5 283q0 200 -87.5 352t-241.5 233.5t-351 81.5q-155 0 -289 -59t-226 -159.5t-144 -236t-52 -284.5q0 -309 191.5 -501.5t494.5 -192.5q211 0 375 67l43 -96q-179 -90 -420 -90q-236 0 -418 98.5 t-284 284t-102 430.5zM578 586q0 -134 62.5 -215.5t180.5 -81.5q131 0 207 104t76 262q0 137 -68.5 212t-171.5 75q-91 0 -157.5 -50.5t-97.5 -129.5t-31 -176z" />
<glyph unicode="A" horiz-adv-x="1300" vert-adv-y="2457" d="M18 0l547 1464h168l551 -1464h-160l-147 406h-658l-147 -406h-154zM369 539h561l-279 784h-4z" />
<glyph unicode="B" horiz-adv-x="1339" vert-adv-y="2457" d="M156 0v1464h583q217 0 340 -98t123 -270q0 -231 -231 -310v-4q130 -25 210.5 -117.5t80.5 -244.5q0 -203 -130.5 -311.5t-353.5 -108.5h-622zM305 131h479q166 0 244 77t78 212q0 129 -77.5 207t-207.5 78h-516v-574zM305 836h463q279 0 279 245q0 116 -71 184t-208 68 h-463v-497z" />
<glyph unicode="C" horiz-adv-x="1427" vert-adv-y="2457" d="M82 731q0 219 84 392t238 270.5t352 97.5q125 0 232.5 -38.5t183.5 -105.5t124 -157t62 -193h-156q-9 52 -28.5 101t-56 97.5t-85 84t-120.5 58t-158 22.5q-103 0 -189 -34t-146 -93t-101 -139t-60.5 -171.5t-19.5 -191.5q0 -126 32 -237t93.5 -199t162 -139.5 t228.5 -51.5q111 0 198 36t139.5 96.5t81.5 132t35 151.5h156q-27 -244 -190.5 -395.5t-419.5 -151.5q-196 0 -349.5 96.5t-238 269t-84.5 392.5z" />
<glyph unicode="D" horiz-adv-x="1406" vert-adv-y="2457" d="M156 0v1464h530q304 0 470.5 -196t166.5 -539q0 -342 -168.5 -535.5t-474.5 -193.5h-524zM305 131h375q107 0 191 31.5t139 85.5t91 131t51 163t15 187q0 102 -14.5 188.5t-49.5 164.5t-89 132.5t-138 86.5t-192 32h-379v-1202z" />
<glyph unicode="E" horiz-adv-x="1234" vert-adv-y="2457" d="M156 0v1464h993v-131h-844v-504h754v-131h-754v-567h866v-131h-1015z" />
<glyph unicode="F" horiz-adv-x="1161" vert-adv-y="2457" d="M156 0v1464h979v-131h-830v-518h684v-131h-684v-684h-149z" />
<glyph unicode="G" horiz-adv-x="1492" vert-adv-y="2457" d="M84 731q0 217 82.5 389t238 271.5t359.5 99.5q255 0 408.5 -123.5t193.5 -337.5h-154q-32 158 -150.5 244t-297.5 86q-107 0 -195 -36.5t-148 -97t-101.5 -142.5t-60.5 -170.5t-19 -182.5q0 -96 15.5 -183.5t53.5 -169.5t94.5 -142t144 -96t197.5 -36q216 0 356 143 t140 371h-485v134h635v-752h-103l-45 260h-4q-154 -287 -494 -287q-210 0 -361 99.5t-225.5 268.5t-74.5 390z" />
<glyph unicode="H" horiz-adv-x="1439" vert-adv-y="0" d="M156 0v1464h149v-633h830v633h147v-1464h-147v700h-830v-700h-149z" />
<glyph unicode="I" horiz-adv-x="460" vert-adv-y="2457" d="M156 0v1464h149v-1464h-149z" />
<glyph unicode="J" horiz-adv-x="1015" vert-adv-y="2457" d="M41 424v47h149v-47q0 -58 7.5 -105t26 -88t48 -68.5t75.5 -43t106 -15.5q146 0 206 84t60 236v1040h149v-1040q0 -91 -22.5 -169t-69.5 -143t-129.5 -102t-193.5 -37t-193 37t-128.5 102t-68.5 142.5t-22 169.5z" />
<glyph unicode="K" horiz-adv-x="1288" vert-adv-y="2457" d="M156 0v1464h149v-827l791 827h170l-584 -608l631 -856h-174l-553 756l-281 -293v-463h-149z" />
<glyph unicode="L" horiz-adv-x="1124" vert-adv-y="2457" d="M156 0v1464h149v-1333h791v-131h-940z" />
<glyph unicode="M" horiz-adv-x="1718" vert-adv-y="2457" d="M156 0v1464h206l494 -1263h4l496 1263h207v-1464h-150v1253h-4l-483 -1253h-135l-482 1253h-4v-1253h-149z" />
<glyph unicode="N" horiz-adv-x="1439" vert-adv-y="2457" d="M156 0v1464h182l792 -1253h5v1253h149v-1464h-182l-793 1253h-4v-1253h-149z" />
<glyph unicode="O" horiz-adv-x="1570" vert-adv-y="2457" d="M82 733q0 219 87 391t247.5 269.5t369.5 97.5q208 0 368.5 -97.5t247.5 -269.5t87 -391t-87 -391.5t-247.5 -270.5t-368.5 -98t-369 98t-248 270.5t-87 391.5zM238 733q0 -131 35.5 -244.5t102.5 -199.5t172.5 -135.5t237.5 -49.5q131 0 236.5 49.5t172.5 135.5 t102.5 199.5t35.5 244.5t-35.5 244t-102.5 199t-172.5 135t-236.5 49q-132 0 -237.5 -49t-172.5 -135t-102.5 -199t-35.5 -244z" />
<glyph unicode="P" horiz-adv-x="1239" vert-adv-y="2457" d="M156 0v1464h563q105 0 188.5 -23.5t148.5 -72t100.5 -131.5t35.5 -195t-35.5 -195t-100.5 -132.5t-149 -73t-188 -23.5h-414v-618h-149zM305 750h428q151 0 227 71.5t76 220.5q0 291 -303 291h-428v-583z" />
<glyph unicode="Q" horiz-adv-x="1570" vert-adv-y="2457" d="M82 733q0 219 87 391t247.5 269.5t369.5 97.5q208 0 368.5 -97.5t247.5 -269.5t87 -391q0 -324 -184 -536l180 -181l-94 -94l-185 184q-179 -133 -420 -133q-208 0 -369 98t-248 270.5t-87 391.5zM238 733q0 -131 35.5 -244.5t102.5 -199.5t172.5 -135.5t237.5 -49.5 q187 0 322 101l-197 198l95 93l196 -197q131 172 131 434q0 131 -35.5 244t-102.5 199t-172.5 135t-236.5 49q-132 0 -237.5 -49t-172.5 -135t-102.5 -199t-35.5 -244z" />
<glyph unicode="R" horiz-adv-x="1310" vert-adv-y="2457" d="M156 0v1464h573q233 0 357 -106t124 -307q0 -143 -74.5 -240t-197.5 -129v-4q68 -14 117.5 -57t75 -101t41 -125t20.5 -132t9 -119.5t12 -90.5t24 -41v-12h-160q-12 10 -17.5 43.5t-6.5 77.5t-5.5 98t-11.5 108t-27.5 105t-50.5 90t-83 62.5t-123 23.5h-447v-608h-149z M305 739h387q177 0 273 79t96 231q0 142 -86.5 213t-272.5 71h-397v-594z" />
<glyph unicode="S" horiz-adv-x="1261" vert-adv-y="2457" d="M55 485h156q16 -178 130.5 -279.5t334.5 -101.5q191 0 276.5 79.5t85.5 211.5v6q0 60 -20 105q-20 47 -48 76t-95.5 55t-121 40.5t-165.5 39.5q-59 14 -102.5 25.5t-95.5 30.5t-89 39t-74 50.5t-59.5 65.5t-36.5 82.5t-14 103.5q0 175 130.5 276t356.5 101 q239 0 381.5 -117.5t159.5 -331.5h-156q-19 157 -111.5 237.5t-273.5 80.5q-160 0 -246 -62.5t-86 -177.5q0 -41 11.5 -75.5t27.5 -58.5t48 -45.5t58 -34.5t74.5 -27.5t80 -22t90.5 -20.5q64 -14 110 -25.5t99.5 -28.5t91.5 -35t77.5 -42.5t65 -54.5t47 -66.5t31.5 -83 t10 -101.5q0 -188 -131 -307t-381 -119q-270 0 -441 134.5t-186 377.5z" />
<glyph unicode="T" horiz-adv-x="1204" vert-adv-y="2457" d="M31 1333v131h1145v-131h-500v-1333h-148v1333h-497z" />
<glyph unicode="U" horiz-adv-x="1392" vert-adv-y="2457" d="M145 494v970h150v-970q0 -197 99.5 -293.5t301.5 -96.5q203 0 302.5 97t99.5 293v970h149v-970q0 -243 -136.5 -382t-414.5 -139t-414.5 139t-136.5 382z" />
<glyph unicode="V" horiz-adv-x="1261" vert-adv-y="2457" d="M20 1464h162l451 -1312h2l446 1312h156l-526 -1464h-156z" />
<glyph unicode="W" horiz-adv-x="1845" vert-adv-y="2457" d="M35 1464h158l299 -1251h4l344 1251h166l344 -1251h6l299 1251h155l-366 -1464h-166l-352 1288h-6l-353 -1288h-164z" />
<glyph unicode="X" horiz-adv-x="1173" vert-adv-y="0" d="M-2 0l506 752l-471 712h168l389 -606h2l389 606h166l-473 -714l497 -750h-176l-413 641h-2l-404 -641h-178z" />
<glyph unicode="Y" horiz-adv-x="1265" vert-adv-y="2457" d="M23 1464h161l447 -747h4l448 747h160l-536 -864v-600h-150v600z" />
<glyph unicode="Z" horiz-adv-x="1204" vert-adv-y="2457" d="M37 0v131l919 1198v4h-878v131h1061v-131l-920 -1198v-4h940v-131h-1122z" />
<glyph unicode="[" horiz-adv-x="540" vert-adv-y="2457" d="M145 -240v1786h359v-131h-211v-1524h211v-131h-359z" />
<glyph unicode="\" horiz-adv-x="763" vert-adv-y="2457" d="M29 1464h133l577 -1464h-135z" />
<glyph unicode="]" horiz-adv-x="540" vert-adv-y="2457" d="M39 -109h209v1524h-209v131h358v-1786h-358v131z" />
<glyph unicode="^" horiz-adv-x="942" vert-adv-y="2457" d="M53 901l350 563h138l348 -563h-148l-268 440h-2l-268 -440h-150z" />
<glyph unicode="_" horiz-adv-x="1136" vert-adv-y="2457" d="M43 -156h1053v-131h-1053v131z" />
<glyph unicode="`" horiz-adv-x="430" vert-adv-y="2457" d="M72 1485h161l113 -271h-110z" />
<glyph unicode="a" horiz-adv-x="1052" vert-adv-y="2457" d="M68 264q0 83 28 141.5t87 97.5t132.5 62.5t182.5 42.5q147 27 187 41q78 29 92 92q3 16 3 35q0 83 -58 130.5t-179 47.5q-149 0 -213 -53.5t-72 -171.5h-141q4 72 29.5 131.5t75 108t132.5 75.5t193 27q76 0 138.5 -17.5t114 -54.5t80.5 -103t29 -157v-522 q0 -66 13 -94.5t47 -28.5q16 0 28 2v-96q-46 -8 -69 -8q-70 0 -106 36t-42 130h-4q-112 -185 -366 -185q-156 0 -249 80t-93 211zM207 276q0 -186 219 -186q161 0 257.5 80.5t96.5 220.5v195q-37 -51 -266 -88q-161 -29 -234 -78t-73 -144z" />
<glyph unicode="b" horiz-adv-x="1140" vert-adv-y="2457" d="M123 0v1464h133v-587h4q118 194 352 194q198 0 329.5 -149t131.5 -400q0 -125 -36 -229t-98.5 -173t-146.5 -107t-180 -38q-242 0 -352 203h-4v-178h-133zM256 522q0 -195 95 -312.5t247 -117.5q105 0 182.5 59.5t115.5 155.5t38 215q0 120 -38 217t-115.5 157t-182.5 60 q-152 0 -247 -119t-95 -315z" />
<glyph unicode="c" horiz-adv-x="1069" vert-adv-y="2457" d="M66 522q0 245 137.5 396t361.5 151q186 0 308.5 -110.5t140.5 -280.5h-140q-3 47 -21.5 92.5t-53.5 87.5t-96 68t-138 26q-74 0 -135.5 -24.5t-102.5 -65.5t-69 -96.5t-40.5 -116.5t-12.5 -127q0 -84 21 -159t62.5 -138t113 -100t163.5 -37q78 0 138.5 26t95.5 69.5 t53.5 91t21.5 98.5h140q-11 -171 -136 -285.5t-313 -114.5q-224 0 -361.5 151.5t-137.5 397.5z" />
<glyph unicode="d" horiz-adv-x="1140" vert-adv-y="2457" d="M68 522q0 250 131 398.5t327 148.5q243 0 353 -201h4v596h133v-1464h-133v170h-4q-50 -86 -138 -141.5t-215 -55.5q-95 0 -178.5 38t-145.5 107t-98 173.5t-36 230.5zM207 522q0 -120 38 -216.5t115.5 -156t182.5 -59.5q152 0 246 118t94 314q0 195 -94 312.5t-246 117.5 q-105 0 -182.5 -59.5t-115.5 -155.5t-38 -215z" />
<glyph unicode="e" horiz-adv-x="1099" vert-adv-y="2457" d="M68 522q0 250 135.5 399.5t361.5 149.5q221 0 346 -139t125 -363q0 -57 -2 -73h-827q1 -110 38.5 -200.5t120.5 -150t201 -59.5q76 0 137 23.5t97 61.5t56.5 74.5t29.5 73.5h135q-41 -154 -156 -251t-301 -97q-233 0 -365 153.5t-132 397.5zM207 612h688q0 146 -90 245 t-246 99q-150 0 -247 -97.5t-105 -246.5z" />
<glyph unicode="f" horiz-adv-x="536" vert-adv-y="2457" d="M39 928v116h147v154q0 83 16 139t48.5 86t74 42t101.5 12q30 0 100 -9v-112q-74 4 -82 4q-75 0 -100 -31.5t-25 -128.5v-156h207v-116h-207v-928h-133v928h-147z" />
<glyph unicode="g" horiz-adv-x="1140" vert-adv-y="2457" d="M72 561q0 125 36 223.5t99.5 160t145.5 93t177 31.5q125 0 214.5 -52t138.5 -136h4v163h133v-978q0 -217 -125 -329t-346 -112q-205 0 -320.5 88.5t-128.5 231.5h140q16 -91 92 -147t219 -56q336 0 336 305v195h-4q-49 -88 -138.5 -140.5t-214.5 -52.5q-95 0 -177 31.5 t-145.5 93t-99.5 161t-36 226.5zM211 561q0 -182 89 -288.5t249 -106.5q152 0 245 100.5t93 294.5q0 191 -93.5 291t-244.5 100q-159 0 -248.5 -106t-89.5 -285z" />
<glyph unicode="h" vert-adv-y="2457" d="M123 0v1464h133v-569h4q51 75 140.5 124.5t217.5 49.5q149 0 246 -85.5t97 -250.5v-733h-134v705q0 110 -57.5 178.5t-183.5 68.5q-145 0 -237.5 -86.5t-92.5 -206.5v-659h-133z" />
<glyph unicode="i" horiz-adv-x="378" vert-adv-y="2457" d="M102 1253v172h172v-172h-172zM123 0v1044h133v-1044h-133z" />
<glyph unicode="j" horiz-adv-x="378" vert-adv-y="2457" d="M-49 -246q47 -6 78 -6q52 0 73 35.5t21 126.5v1134h133v-1144q0 -142 -56.5 -205.5t-148.5 -63.5q-38 0 -100 9v114zM102 1253v172h172v-172h-172z" />
<glyph unicode="k" horiz-adv-x="962" vert-adv-y="2457" d="M123 0v1464h133v-911l518 491h164l-412 -382l463 -662h-158l-395 578l-180 -168v-410h-133z" />
<glyph unicode="l" horiz-adv-x="378" vert-adv-y="2457" d="M123 0v1464h133v-1464h-133z" />
<glyph unicode="m" horiz-adv-x="1630" vert-adv-y="2457" d="M123 0v1044h133v-147h4q113 172 318 172q220 0 280 -192h4q126 192 346 192q149 0 228.5 -86.5t79.5 -249.5v-733h-134v705q0 55 -8 95t-28.5 76.5t-62 56t-103.5 19.5q-133 0 -213 -86.5t-80 -206.5v-659h-133v705q0 54 -8 94.5t-29 77t-63 56t-105 19.5 q-131 0 -212 -87t-81 -206v-659h-133z" />
<glyph unicode="n" vert-adv-y="2457" d="M123 0v1044h133v-149h4q51 75 140.5 124.5t217.5 49.5q149 0 246 -85.5t97 -250.5v-733h-134v705q0 110 -57.5 178.5t-183.5 68.5q-145 0 -237.5 -86.5t-92.5 -206.5v-659h-133z" />
<glyph unicode="o" horiz-adv-x="1134" vert-adv-y="2457" d="M66 520q0 248 134.5 399.5t366.5 151.5t367 -151.5t135 -399.5q0 -246 -135 -397.5t-367 -151.5t-366.5 151.5t-134.5 397.5zM205 520q0 -123 38.5 -218.5t122 -154.5t201.5 -59t201.5 58.5t122.5 154.5t39 219q0 124 -39 220t-122.5 155t-201.5 59t-201.5 -59t-122 -155 t-38.5 -220z" />
<glyph unicode="p" horiz-adv-x="1140" vert-adv-y="2457" d="M123 -362v1406h133v-167h4q118 194 352 194q198 0 329.5 -149t131.5 -400q0 -125 -36 -229t-98.5 -173t-146.5 -107t-180 -38q-242 0 -352 201h-4v-538h-133zM256 522q0 -195 95 -312.5t247 -117.5q105 0 182.5 59.5t115.5 155.5t38 215q0 120 -38 216.5t-115.5 156 t-182.5 59.5q-152 0 -247 -118t-95 -314z" />
<glyph unicode="q" horiz-adv-x="1138" vert-adv-y="2457" d="M68 522q0 250 131 398.5t327 148.5q243 0 353 -201h4v176h133v-1406h-133v532h-4q-50 -86 -138 -141.5t-215 -55.5q-95 0 -178.5 38t-145.5 107t-98 173.5t-36 230.5zM207 522q0 -120 38 -216.5t115.5 -156t182.5 -59.5q152 0 246 118t94 314q0 195 -94 312.5t-246 117.5 q-105 0 -182.5 -59.5t-115.5 -155.5t-38 -215z" />
<glyph unicode="r" horiz-adv-x="665" vert-adv-y="2457" d="M123 0v1044h133v-213h4q42 109 117 173.5t180 64.5q53 0 90 -6v-131q-30 6 -63 6q-141 0 -234.5 -101t-93.5 -253v-584h-133z" />
<glyph unicode="s" horiz-adv-x="966" vert-adv-y="2457" d="M49 342h139q6 -114 85.5 -183t236.5 -69q139 0 202.5 55t63.5 140q0 28 -8 51.5t-18 40t-31.5 31.5t-37.5 23.5t-47.5 18.5t-49.5 14t-55.5 12.5t-53.5 12.5q-45 12 -64.5 17t-61 17t-61.5 20.5t-53 23.5t-50 29t-39 35t-32.5 43.5t-18 51.5t-7.5 62q0 129 98 205t273 76 q193 0 298 -89t120 -228h-140q-39 200 -276 200q-112 0 -173 -40.5t-61 -114.5q0 -19 4.5 -36t11 -30t19.5 -25t24 -20.5t31.5 -17.5t34.5 -14.5t40.5 -12.5t41.5 -11t45.5 -11t46.5 -11q51 -12 84.5 -21t78.5 -24.5t74.5 -31.5t61.5 -40t50.5 -52t30.5 -66.5t12 -83.5 q0 -144 -109.5 -230t-300.5 -86q-213 0 -333.5 103t-125.5 266z" />
<glyph unicode="t" horiz-adv-x="573" vert-adv-y="2457" d="M27 928v116h153v349h133v-349h211v-116h-211v-660q0 -96 27 -127.5t104 -31.5q18 0 80 4v-113q-55 -8 -98 -8q-61 0 -103.5 12t-76 41.5t-50 85.5t-16.5 139v658h-153z" />
<glyph unicode="u" vert-adv-y="2457" d="M115 311v733h133v-704q0 -110 57.5 -179t183.5 -69q145 0 237.5 86.5t92.5 206.5v659h133v-1044h-133v147h-4q-51 -74 -140 -123t-218 -49q-149 0 -245.5 85.5t-96.5 250.5z" />
<glyph unicode="v" horiz-adv-x="958" vert-adv-y="2457" d="M20 1044h148l313 -909h2l312 909h143l-383 -1044h-152z" />
<glyph unicode="w" horiz-adv-x="1509" vert-adv-y="2457" d="M27 1044h147l260 -892h4l244 892h149l244 -892h4l262 892h144l-334 -1044h-150l-245 883h-4l-246 -883h-148z" />
<glyph unicode="x" horiz-adv-x="956" vert-adv-y="0" d="M-12 0l409 535l-377 509h162l295 -415h4l293 415h160l-375 -509l412 -535h-162l-330 444h-4l-328 -444h-159z" />
<glyph unicode="y" horiz-adv-x="985" vert-adv-y="2457" d="M8 1044h148l340 -870h4l323 870h144l-418 -1075q-74 -189 -150 -262.5t-184 -73.5q-35 0 -100 9v114q47 -6 80 -6q78 0 136 59t99 197z" />
<glyph unicode="z" horiz-adv-x="903" vert-adv-y="2457" d="M37 0v102l620 822v4h-587v116h772v-83l-633 -840v-4h655v-117h-827z" />
<glyph unicode="{" horiz-adv-x="565" vert-adv-y="2457" d="M49 588v131q133 -3 133 196v252q0 115 16 188t54 116t92.5 59t140.5 16h35v-131h-35q-84 0 -119.5 -49t-35.5 -180v-312q0 -83 -31.5 -134.5t-91.5 -84.5v-4q60 -33 91.5 -85t31.5 -136v-301q0 -135 35.5 -186.5t119.5 -51.5h35v-131h-35q-113 0 -177 33.5t-95 117.5 t-31 236v242q0 199 -133 199z" />
<glyph unicode="|" horiz-adv-x="432" vert-adv-y="2457" d="M156 -262v1786h120v-1786h-120z" />
<glyph unicode="}" horiz-adv-x="565" vert-adv-y="2457" d="M45 -109h33q85 0 120 49t35 181v311q0 149 123 219v4q-123 70 -123 222v301q0 136 -35 186.5t-120 50.5h-33v131h33q114 0 178 -33t95.5 -117.5t31.5 -236.5v-241q0 -199 131 -199v-131q-67 1 -99 -51.5t-32 -145.5v-252q0 -114 -16.5 -187t-54.5 -116t-93 -59.5 t-141 -16.5h-33v131z" />
<glyph unicode="~" horiz-adv-x="874" vert-adv-y="2457" d="M115 565q2 102 49 164t127 62q42 0 83.5 -16t69 -35.5t59.5 -35.5t56 -16q42 0 62 29.5t22 70.5h121q-3 -101 -49.5 -163t-126.5 -62q-41 0 -83 16t-70 35.5t-60.5 35.5t-57.5 16q-42 0 -62 -30t-22 -71h-118z" />
<glyph unicode="&#xa0;" horiz-adv-x="448" vert-adv-y="2457" />
<glyph unicode="&#xa1;" horiz-adv-x="419" vert-adv-y="2457" d="M123 1026v172h172v-172h-172zM133 176l35 645h84l35 -645v-442h-154v442z" />
<glyph unicode="&#xa2;" horiz-adv-x="1132" vert-adv-y="2457" d="M102 735q0 227 120.5 375t320.5 170v166h104v-166q169 -13 279 -122t125 -267h-140q-3 44 -19 86.5t-46 82.5t-81.5 68t-117.5 35v-860q67 7 118 35.5t81 69.5t46 85.5t19 92.5h140q-11 -160 -122.5 -272.5t-281.5 -125.5v-178h-104v178q-200 22 -320.5 170.5 t-120.5 376.5zM242 735q0 -76 17.5 -146t52.5 -130.5t94.5 -101.5t136.5 -52v856q-77 -11 -136.5 -51.5t-94.5 -100t-52.5 -129t-17.5 -145.5z" />
<glyph unicode="&#xa3;" horiz-adv-x="1159" vert-adv-y="2457" d="M84 111q89 62 142 169.5t53 239.5q0 31 -7 66h-174v123h129q-1 3 -12 26.5t-13.5 28t-12 26.5t-12 30t-10.5 29t-10.5 33t-7.5 32t-7 36t-3.5 36t-1.5 40q0 67 26 134.5t78.5 129.5t145.5 101t213 39t210.5 -36t145.5 -100.5t82 -147.5t27 -183h-147q0 161 -80.5 248 t-237.5 87q-142 0 -227.5 -77.5t-85.5 -208.5q0 -43 11 -89.5t18.5 -68t34.5 -79.5t30 -66h340v-123h-301q6 -34 6 -72q0 -107 -42.5 -201t-115.5 -153l2 -4q110 63 201 63q63 0 122.5 -25.5t113 -51t102.5 -25.5q65 0 115 24.5t110 75.5l66 -119q-40 -33 -58 -46.5 t-56.5 -36.5t-77.5 -32.5t-85 -9.5q-58 0 -115 19.5t-95.5 43t-89 43t-95.5 19.5q-64 0 -122.5 -22.5t-139.5 -75.5z" />
<glyph unicode="&#xa4;" horiz-adv-x="1069" vert-adv-y="2457" d="M88 326l129 131q-76 102 -76 248q0 144 78 249l-131 131l74 74l129 -131q108 82 244 82t243 -84l129 131l74 -72l-131 -133q76 -102 76 -247q0 -142 -74 -246l129 -131l-74 -76l-129 131q-107 -84 -243 -84t-244 82l-129 -129zM276 705q0 -140 73 -214.5t186 -74.5 q112 0 184 74.5t72 214.5t-72 214t-184 74q-113 0 -186 -74t-73 -214z" />
<glyph unicode="&#xa5;" horiz-adv-x="1198" vert-adv-y="2457" d="M55 1405h160l381 -700h4l383 700h160l-449 -789h355v-104h-375v-137h375v-103h-375v-272h-150v272h-377v103h377v137h-377v104h357z" />
<glyph unicode="&#xa6;" horiz-adv-x="432" vert-adv-y="2457" d="M156 -262v764h120v-764h-120zM156 786v738h120v-738h-120z" />
<glyph unicode="&#xa7;" horiz-adv-x="1193" vert-adv-y="2457" d="M94 659q0 111 58 181t161 96q-102 99 -102 231q0 136 95.5 224t279.5 88q103 0 180 -27.5t123 -76.5t69.5 -109t26.5 -133h-135q-3 38 -9 66.5t-23 61t-43.5 53t-74.5 34.5t-112 14q-125 0 -184.5 -49t-59.5 -133q0 -25 4.5 -47.5t16 -43t21.5 -36.5t31.5 -34.5t34 -29 t42 -28.5t43 -25.5t48 -26.5t46.5 -26l104 -58q166 -94 219 -133q119 -89 140 -197q6 -30 6 -61q0 -111 -57 -181t-160 -95q100 -97 100 -232q0 -136 -96 -223.5t-281 -87.5q-102 0 -179 27t-122.5 76t-69 109.5t-26.5 133.5h133q8 -229 262 -229q125 0 184.5 48.5 t59.5 131.5q0 29 -8 55t-17.5 46t-32.5 43t-37 35.5t-49 34.5t-49 30l-56 32q-20 11 -30 17l-102 61q-165 97 -200 120q-123 84 -156 176q-17 45 -17 97zM227 682q0 -47 19 -86t71 -79.5t88.5 -62.5t123.5 -71q9 -5 14 -8l121 -68q82 -46 116 -69q91 10 138 55.5t47 118.5 q0 39 -18 76t-42 64t-70.5 59.5t-81 53t-96.5 54.5l-118 67q-91 51 -119 70q-95 -9 -144 -54t-49 -120z" />
<glyph unicode="&#xa8;" horiz-adv-x="655" vert-adv-y="2457" d="M84 1253v172h172v-172h-172zM387 1253v172h172v-172h-172z" />
<glyph unicode="&#xa9;" horiz-adv-x="1732" vert-adv-y="2457" d="M104 731q0 345 209 552.5t555 207.5q345 0 553.5 -207.5t208.5 -552.5q0 -227 -94.5 -399t-267.5 -265.5t-400 -93.5q-346 0 -555 207t-209 551zM227 731q0 -294 176 -471.5t465 -177.5q288 0 462.5 177.5t174.5 471.5q0 296 -174.5 473.5t-462.5 177.5 q-289 0 -465 -177.5t-176 -473.5zM455 731q0 207 111.5 336t305.5 129q163 0 265 -89t120 -226h-118q-5 24 -15 48.5t-30.5 52t-48.5 48.5t-71.5 35t-96.5 14q-79 0 -137.5 -28t-92.5 -77t-50.5 -109.5t-16.5 -133.5q0 -72 16.5 -132.5t50.5 -109.5t92.5 -76.5t137.5 -27.5 q67 0 118.5 20.5t81 54t45 68t19.5 70.5h119q-9 -144 -111 -237t-266 -93q-198 0 -313 128t-115 335z" />
<glyph unicode="&#xaa;" horiz-adv-x="866" vert-adv-y="2457" d="M72 866q0 59 21.5 101.5t66.5 70.5t99.5 45t135.5 31l57.5 11.5t48 12t44 17.5t29.5 22.5t22 32.5t6 43q0 58 -43 91.5t-131 33.5q-98 0 -144 -43.5t-51 -126.5h-127q5 117 87 194t245 77q287 0 287 -262v-390q0 -44 8 -64t33 -20h25v-81q-49 -11 -70 -11q-57 0 -85 30 t-32 97h-6q-41 -67 -111.5 -104t-158.5 -37q-118 0 -187 61.5t-69 167.5zM201 872q0 -129 159 -129q107 0 174.5 61.5t67.5 158.5v137q-14 -25 -58.5 -41.5t-129.5 -32.5q-104 -20 -158.5 -53.5t-54.5 -100.5z" />
<glyph unicode="&#xab;" horiz-adv-x="944" vert-adv-y="2457" d="M90 453v159l402 328v-154l-322 -251v-5l322 -251v-156zM434 453v159l400 328v-154l-322 -251v-5l322 -251v-156z" />
<glyph unicode="&#xac;" horiz-adv-x="1048" vert-adv-y="2457" d="M88 674v133h832v-510h-150v377h-682z" />
<glyph unicode="&#xad;" horiz-adv-x="718" vert-adv-y="2457" d="M84 457v131h549v-131h-549z" />
<glyph unicode="&#xae;" horiz-adv-x="1171" vert-adv-y="2457" d="M100 1004q0 139 65 252.5t176 177t245 63.5q100 0 189.5 -37.5t154.5 -102.5t103 -157t38 -196q0 -212 -140.5 -353t-344.5 -141t-345 141t-141 353zM180 1004q0 -183 118 -302.5t288 -119.5q171 0 288 119t117 303q0 182 -117 301.5t-288 119.5q-170 0 -288 -119.5 t-118 -301.5zM389 735v543h219q92 0 140.5 -41t48.5 -117q0 -109 -119 -135v-4q46 -9 71.5 -46.5t30 -78t10.5 -76t17 -39.5v-6h-111q-12 9 -16.5 44t-7.5 69.5t-27 63t-70 28.5h-77v-205h-109zM498 1030h84q54 0 82 18t28 64q0 44 -28 60t-80 16h-86v-158z" />
<glyph unicode="&#xaf;" horiz-adv-x="673" vert-adv-y="2457" d="M82 1266v116h510v-116h-510z" />
<glyph unicode="&#xb0;" horiz-adv-x="784" vert-adv-y="2457" d="M80 1184q0 53 19 106t55.5 98.5t98 74t138.5 28.5q76 0 138 -28.5t99.5 -74t57 -98.5t19.5 -106t-19.5 -106t-57 -98.5t-99.5 -74t-138 -28.5q-77 0 -138.5 28.5t-98 74t-55.5 98.5t-19 106zM188 1184q0 -88 55.5 -145.5t147.5 -57.5q93 0 148 57.5t55 145.5 q0 90 -55 147.5t-148 57.5q-92 0 -147.5 -58t-55.5 -147z" />
<glyph unicode="&#xb1;" horiz-adv-x="1110" vert-adv-y="2457" d="M102 -10v131h908v-131h-908zM102 653v131h387l-2 400h136v-400h387v-131h-387v-401h-136l2 401h-387z" />
<glyph unicode="&#xb2;" horiz-adv-x="698" vert-adv-y="2457" d="M43 743q0 106 52.5 183t154.5 145q23 15 65 41.5t62.5 40t50 37.5t43.5 43.5t24.5 47.5t10.5 60q0 62 -35.5 103t-108.5 41q-86 0 -129 -53t-43 -144h-127q0 132 78.5 218.5t225.5 86.5q124 0 199 -64t75 -179q0 -33 -7.5 -63.5t-17.5 -53t-31 -47.5t-35.5 -40.5 t-45.5 -38.5t-46.5 -33.5t-51.5 -33.5q-36 -22 -51.5 -31.5t-45 -31t-44 -37t-29.5 -39t-21 -47.5v-4h420v-107h-592z" />
<glyph unicode="&#xb3;" horiz-adv-x="739" vert-adv-y="2457" d="M47 1042h129q0 -194 197 -194q172 0 172 145q0 77 -48 112.5t-122 35.5h-72v100h68q69 0 108 32t39 95q0 60 -36.5 95.5t-108.5 35.5q-90 0 -131 -43t-41 -115h-129q0 118 80.5 192.5t226.5 74.5q113 0 192.5 -62t79.5 -166q0 -129 -127 -182v-2q156 -50 156 -207 q0 -118 -82 -183t-217 -65q-159 0 -246.5 79t-87.5 222z" />
<glyph unicode="&#xb4;" horiz-adv-x="430" vert-adv-y="2457" d="M70 1214l127 271h159l-176 -271h-110z" />
<glyph unicode="&#xb5;" horiz-adv-x="1124" vert-adv-y="2457" d="M143 -362v1406h133v-704q0 -52 12.5 -95t40 -78.5t76 -55t115.5 -19.5q142 0 235 87t93 206v659h133v-1044h-133v147h-4q-49 -74 -134.5 -123t-207.5 -49q-138 0 -226 76v-413h-133z" />
<glyph unicode="&#xb6;" horiz-adv-x="1071" vert-adv-y="2457" d="M39 1085q0 184 98 281.5t281 97.5h491v-1464h-118v1333h-162v-1333h-121v717h-90q-185 0 -282 92.5t-97 275.5z" />
<glyph unicode="&#xb7;" horiz-adv-x="389" vert-adv-y="2457" d="M106 428v172h173v-172h-173z" />
<glyph unicode="&#xb8;" horiz-adv-x="581" vert-adv-y="2457" d="M82 -336l39 45q78 -33 147 -33q55 0 84 21.5t29 60.5q0 68 -86 68q-54 0 -86 -16l-25 36l125 154h90l-92 -111v-4q76 13 134.5 -19.5t58.5 -109.5t-59 -115t-148 -38q-115 0 -211 61z" />
<glyph unicode="&#xb9;" horiz-adv-x="430" vert-adv-y="2457" d="M25 1325v105q98 2 145.5 36.5t50.5 110.5h109v-832h-131v621q-43 -41 -174 -41z" />
<glyph unicode="&#xba;" horiz-adv-x="903" vert-adv-y="2457" d="M66 1059q0 187 104.5 303.5t282.5 116.5t281.5 -115.5t103.5 -304.5t-103.5 -305.5t-281.5 -116.5q-179 0 -283 116.5t-104 305.5zM190 1059q0 -138 67.5 -226t195.5 -88q126 0 193 88t67 226q0 137 -66.5 224t-193.5 87q-128 0 -195.5 -87t-67.5 -224z" />
<glyph unicode="&#xbb;" horiz-adv-x="944" vert-adv-y="2457" d="M109 123v153l321 254v5l-321 251v154l401 -328v-161zM453 123v153l321 254v5l-321 251v154l401 -328v-161z" />
<glyph unicode="&#xbc;" horiz-adv-x="1470" vert-adv-y="2457" d="M39 1212v105q98 2 146 36.5t51 110.5h108v-831h-131v620q-43 -41 -174 -41zM117 0l927 1464h152l-928 -1464h-151zM791 193v122l395 516h129v-530h121v-108h-121v-193h-129v193h-395zM901 301h285v375z" />
<glyph unicode="&#xbd;" horiz-adv-x="1562" vert-adv-y="2457" d="M47 1212v105q98 2 146 36.5t51 110.5h108v-831h-131v620q-43 -41 -174 -41zM125 0l928 1464h151l-928 -1464h-151zM891 0q0 106 52.5 183t154.5 145q23 15 65 41.5t62.5 40t50 37.5t43.5 43.5t24.5 47.5t10.5 60q0 62 -35.5 102.5t-108.5 40.5q-86 0 -129 -52.5 t-43 -143.5h-127q0 132 78 218.5t225 86.5q124 0 199.5 -64.5t75.5 -179.5q0 -38 -8 -71t-28 -63t-36 -49.5t-51.5 -46.5t-52.5 -39t-60 -40q-35 -21 -51 -31.5t-45 -31.5t-44 -37t-29.5 -39t-20.5 -47v-5h420v-106h-592z" />
<glyph unicode="&#xbe;" horiz-adv-x="1792" vert-adv-y="2457" d="M63 920h130q0 -195 196 -195q172 0 172 145q0 77 -48 112.5t-122 35.5h-72v100h68q69 0 108.5 32t39.5 95q0 60 -37 95.5t-109 35.5q-90 0 -131 -42.5t-41 -114.5h-129q0 118 80.5 192t226.5 74q113 0 193 -62t80 -166q0 -129 -127 -182v-2q155 -50 155 -207 q0 -118 -82 -183t-217 -65q-159 0 -246.5 79.5t-87.5 222.5zM451 0l927 1464h152l-928 -1464h-151zM1104 193v122l395 516h129v-530h121v-108h-121v-193h-129v193h-395zM1214 301h285v375z" />
<glyph unicode="&#xbf;" horiz-adv-x="978" vert-adv-y="2457" d="M39 72q0 61 16.5 111.5t50 92t62 68.5t74.5 64q13 11 20 16q87 73 109 96q78 83 95 212q5 43 5 95h147q0 -65 -7.5 -118.5t-25.5 -97.5t-36 -76t-50.5 -66t-56 -55t-65.5 -56q-4 -3 -31.5 -26t-32.5 -27.5t-27.5 -25t-28.5 -28.5t-22 -27.5t-20.5 -33t-13 -33.5t-11 -40 t-2.5 -43q0 -107 73.5 -171.5t203.5 -64.5q148 0 239 87.5t91 264.5h149q0 -139 -53.5 -247.5t-162.5 -173t-259 -64.5q-194 0 -312 100.5t-118 266.5zM453 1024v172h172v-172h-172z" />
<glyph unicode="&#xc0;" horiz-adv-x="1300" vert-adv-y="2457" d="M18 0l547 1464h168l551 -1464h-160l-147 406h-658l-147 -406h-154zM369 539h561l-279 784h-4zM422 1905h162l112 -271h-110z" />
<glyph unicode="&#xc1;" horiz-adv-x="1300" vert-adv-y="2457" d="M18 0l547 1464h168l551 -1464h-160l-147 406h-658l-147 -406h-154zM369 539h561l-279 784h-4zM580 1634l127 271h159l-176 -271h-110z" />
<glyph unicode="&#xc2;" horiz-adv-x="1300" vert-adv-y="2457" d="M18 0l547 1464h168l551 -1464h-160l-147 406h-658l-147 -406h-154zM369 539h561l-279 784h-4zM387 1638l186 267h152l184 -267h-139l-121 191h-2l-121 -191h-139z" />
<glyph unicode="&#xc3;" horiz-adv-x="1300" vert-adv-y="2457" d="M18 0l547 1464h168l551 -1464h-160l-147 406h-658l-147 -406h-154zM367 1649q1 92 42.5 138t104.5 46q44 0 94.5 -21t92.5 -42t67 -21q51 0 55 80h105q-1 -93 -42.5 -137.5t-105.5 -44.5q-56 0 -141.5 42t-112.5 42q-51 0 -55 -82h-104zM369 539h561l-279 784h-4z" />
<glyph unicode="&#xc4;" horiz-adv-x="1300" vert-adv-y="2457" d="M18 0l547 1464h168l551 -1464h-160l-147 406h-658l-147 -406h-154zM369 539h561l-279 784h-4zM410 1673v172h172v-172h-172zM715 1673v172h172v-172h-172z" />
<glyph unicode="&#xc5;" horiz-adv-x="1300" vert-adv-y="2457" d="M18 0l547 1464h168l551 -1464h-160l-147 406h-658l-147 -406h-154zM369 539h561l-279 784h-4zM471 1743q0 77 49.5 125.5t126.5 48.5t126.5 -48.5t49.5 -125.5q0 -76 -49.5 -125t-126.5 -49t-126.5 49t-49.5 125zM547 1743q0 -46 27.5 -75.5t72.5 -29.5q46 0 74.5 29.5 t28.5 75.5q0 45 -29 74.5t-74 29.5t-72.5 -29.5t-27.5 -74.5z" />
<glyph unicode="&#xc6;" horiz-adv-x="1957" vert-adv-y="2457" d="M18 0l547 1464h1309v-131h-844v-504h754v-131h-754v-567h866v-131h-1015v406h-562l-147 -406h-154zM369 539h512v790h-234z" />
<glyph unicode="&#xc7;" horiz-adv-x="1427" vert-adv-y="2457" d="M82 731q0 219 84 392t238 270.5t352 97.5q125 0 232.5 -38.5t183.5 -105.5t124 -157t62 -193h-156q-9 52 -28.5 101t-56 97.5t-85 84t-120.5 58t-158 22.5q-103 0 -189 -34t-146 -93t-101 -139t-60.5 -171.5t-19.5 -191.5q0 -126 32 -237t93.5 -199t162 -139.5 t228.5 -51.5q111 0 198 36t139.5 96.5t81.5 132t35 151.5h156q-25 -236 -178.5 -385.5t-397.5 -161.5l-69 -84v-4q76 13 134 -19.5t58 -109.5t-58.5 -115t-147.5 -38q-115 0 -211 61l38 45q78 -33 148 -33q55 0 84 21.5t29 60.5q0 68 -86 68q-54 0 -86 -16l-25 36l104 129 q-183 13 -323.5 112.5t-217.5 266.5t-77 377z" />
<glyph unicode="&#xc8;" horiz-adv-x="1234" vert-adv-y="2457" d="M156 0v1464h993v-131h-844v-504h754v-131h-754v-567h866v-131h-1015zM434 1905h162l113 -271h-111z" />
<glyph unicode="&#xc9;" horiz-adv-x="1234" vert-adv-y="2457" d="M156 0v1464h993v-131h-844v-504h754v-131h-754v-567h866v-131h-1015zM592 1634l127 271h160l-177 -271h-110z" />
<glyph unicode="&#xca;" horiz-adv-x="1234" vert-adv-y="2457" d="M156 0v1464h993v-131h-844v-504h754v-131h-754v-567h866v-131h-1015zM399 1638l187 267h151l185 -267h-140l-120 191h-3l-120 -191h-140z" />
<glyph unicode="&#xcb;" horiz-adv-x="1234" vert-adv-y="2457" d="M156 0v1464h993v-131h-844v-504h754v-131h-754v-567h866v-131h-1015zM422 1673v172h172v-172h-172zM727 1673v172h172v-172h-172z" />
<glyph unicode="&#xcc;" horiz-adv-x="460" vert-adv-y="2457" d="M4 1905h162l113 -271h-111zM156 0v1464h149v-1464h-149z" />
<glyph unicode="&#xcd;" horiz-adv-x="460" vert-adv-y="2457" d="M156 0v1464h149v-1464h-149zM162 1634l127 271h160l-177 -271h-110z" />
<glyph unicode="&#xce;" horiz-adv-x="460" vert-adv-y="2457" d="M-31 1638l187 267h151l185 -267h-140l-121 191h-2l-120 -191h-140zM156 0v1464h149v-1464h-149z" />
<glyph unicode="&#xcf;" horiz-adv-x="460" vert-adv-y="2457" d="M-8 1673v172h172v-172h-172zM156 0v1464h149v-1464h-149zM297 1673v172h172v-172h-172z" />
<glyph unicode="&#xd0;" horiz-adv-x="1452" vert-adv-y="2457" d="M29 698v119h172v647h530q304 0 470.5 -196t166.5 -539q0 -342 -168.5 -535.5t-474.5 -193.5h-524v698h-172zM350 131h375q107 0 191 31.5t139 85.5t91 131t51 163t15 187q0 102 -14.5 188.5t-49.5 164.5t-89 132.5t-138 86.5t-192 32h-379v-516h457v-119h-457v-567z" />
<glyph unicode="&#xd1;" horiz-adv-x="1439" vert-adv-y="2457" d="M156 0v1464h182l792 -1253h5v1253h149v-1464h-182l-793 1253h-4v-1253h-149zM438 1649q1 92 43 138t105 46q44 0 94.5 -21t92.5 -42t67 -21q51 0 55 80h104q-1 -93 -42 -137.5t-105 -44.5q-56 0 -141.5 42t-112.5 42q-51 0 -55 -82h-105z" />
<glyph unicode="&#xd2;" horiz-adv-x="1570" vert-adv-y="2457" d="M82 733q0 219 87 391t247.5 269.5t369.5 97.5q208 0 368.5 -97.5t247.5 -269.5t87 -391t-87 -391.5t-247.5 -270.5t-368.5 -98t-369 98t-248 270.5t-87 391.5zM238 733q0 -131 35.5 -244.5t102.5 -199.5t172.5 -135.5t237.5 -49.5q131 0 236.5 49.5t172.5 135.5 t102.5 199.5t35.5 244.5t-35.5 244t-102.5 199t-172.5 135t-236.5 49q-132 0 -237.5 -49t-172.5 -135t-102.5 -199t-35.5 -244zM559 1905h162l113 -271h-111z" />
<glyph unicode="&#xd3;" horiz-adv-x="1570" vert-adv-y="2457" d="M82 733q0 219 87 391t247.5 269.5t369.5 97.5q208 0 368.5 -97.5t247.5 -269.5t87 -391t-87 -391.5t-247.5 -270.5t-368.5 -98t-369 98t-248 270.5t-87 391.5zM238 733q0 -131 35.5 -244.5t102.5 -199.5t172.5 -135.5t237.5 -49.5q131 0 236.5 49.5t172.5 135.5 t102.5 199.5t35.5 244.5t-35.5 244t-102.5 199t-172.5 135t-236.5 49q-132 0 -237.5 -49t-172.5 -135t-102.5 -199t-35.5 -244zM717 1634l127 271h160l-177 -271h-110z" />
<glyph unicode="&#xd4;" horiz-adv-x="1570" vert-adv-y="2457" d="M82 733q0 219 87 391t247.5 269.5t369.5 97.5q208 0 368.5 -97.5t247.5 -269.5t87 -391t-87 -391.5t-247.5 -270.5t-368.5 -98t-369 98t-248 270.5t-87 391.5zM238 733q0 -131 35.5 -244.5t102.5 -199.5t172.5 -135.5t237.5 -49.5q131 0 236.5 49.5t172.5 135.5 t102.5 199.5t35.5 244.5t-35.5 244t-102.5 199t-172.5 135t-236.5 49q-132 0 -237.5 -49t-172.5 -135t-102.5 -199t-35.5 -244zM524 1638l187 267h151l185 -267h-140l-121 191h-2l-120 -191h-140z" />
<glyph unicode="&#xd5;" horiz-adv-x="1570" vert-adv-y="2457" d="M82 733q0 219 87 391t247.5 269.5t369.5 97.5q208 0 368.5 -97.5t247.5 -269.5t87 -391t-87 -391.5t-247.5 -270.5t-368.5 -98t-369 98t-248 270.5t-87 391.5zM238 733q0 -131 35.5 -244.5t102.5 -199.5t172.5 -135.5t237.5 -49.5q131 0 236.5 49.5t172.5 135.5 t102.5 199.5t35.5 244.5t-35.5 244t-102.5 199t-172.5 135t-236.5 49q-132 0 -237.5 -49t-172.5 -135t-102.5 -199t-35.5 -244zM504 1649q1 92 42.5 138t104.5 46q44 0 94.5 -21t92.5 -42t67 -21q52 0 56 80h104q-1 -93 -42 -137.5t-105 -44.5q-56 0 -141.5 42t-112.5 42 q-52 0 -56 -82h-104z" />
<glyph unicode="&#xd6;" horiz-adv-x="1570" vert-adv-y="2457" d="M82 733q0 219 87 391t247.5 269.5t369.5 97.5q208 0 368.5 -97.5t247.5 -269.5t87 -391t-87 -391.5t-247.5 -270.5t-368.5 -98t-369 98t-248 270.5t-87 391.5zM238 733q0 -131 35.5 -244.5t102.5 -199.5t172.5 -135.5t237.5 -49.5q131 0 236.5 49.5t172.5 135.5 t102.5 199.5t35.5 244.5t-35.5 244t-102.5 199t-172.5 135t-236.5 49q-132 0 -237.5 -49t-172.5 -135t-102.5 -199t-35.5 -244zM547 1673v172h172v-172h-172zM852 1673v172h172v-172h-172z" />
<glyph unicode="&#xd7;" horiz-adv-x="1110" vert-adv-y="2457" d="M145 350l316 316l-316 315l97 94l313 -315l315 315l95 -94l-316 -315l316 -316l-95 -94l-315 315l-313 -315z" />
<glyph unicode="&#xd8;" horiz-adv-x="1585" vert-adv-y="2457" d="M78 74l162 164q-152 207 -152 495q0 219 87 391t248 269.5t370 97.5q297 0 489 -195l158 160l65 -61l-164 -166q154 -203 154 -496q0 -164 -51 -304.5t-141.5 -241t-222 -157.5t-287.5 -57q-299 0 -496 197l-158 -160zM244 733q0 -233 100 -389l840 852 q-145 164 -391 164q-132 0 -238 -49t-173 -135t-102.5 -199t-35.5 -244zM397 272q149 -168 396 -168q131 0 236.5 49.5t172 135.5t102 199.5t35.5 244.5q0 230 -100 391z" />
<glyph unicode="&#xd9;" horiz-adv-x="1392" vert-adv-y="2457" d="M145 494v970h150v-970q0 -197 99.5 -293.5t301.5 -96.5q203 0 302.5 97t99.5 293v970h149v-970q0 -243 -136.5 -382t-414.5 -139t-414.5 139t-136.5 382zM469 1905h162l112 -271h-110z" />
<glyph unicode="&#xda;" horiz-adv-x="1392" vert-adv-y="2457" d="M145 494v970h150v-970q0 -197 99.5 -293.5t301.5 -96.5q203 0 302.5 97t99.5 293v970h149v-970q0 -243 -136.5 -382t-414.5 -139t-414.5 139t-136.5 382zM627 1634l127 271h159l-176 -271h-110z" />
<glyph unicode="&#xdb;" horiz-adv-x="1392" vert-adv-y="2457" d="M145 494v970h150v-970q0 -197 99.5 -293.5t301.5 -96.5q203 0 302.5 97t99.5 293v970h149v-970q0 -243 -136.5 -382t-414.5 -139t-414.5 139t-136.5 382zM434 1638l187 267h151l184 -267h-139l-121 191h-2l-121 -191h-139z" />
<glyph unicode="&#xdc;" horiz-adv-x="1392" vert-adv-y="2457" d="M145 494v970h150v-970q0 -197 99.5 -293.5t301.5 -96.5q203 0 302.5 97t99.5 293v970h149v-970q0 -243 -136.5 -382t-414.5 -139t-414.5 139t-136.5 382zM459 1673v172h172v-172h-172zM764 1673v172h172v-172h-172z" />
<glyph unicode="&#xdd;" horiz-adv-x="1265" vert-adv-y="2457" d="M23 1464h161l447 -747h4l448 747h160l-536 -864v-600h-150v600zM565 1634l127 271h160l-176 -271h-111z" />
<glyph unicode="&#xde;" horiz-adv-x="1243" vert-adv-y="2457" d="M156 0v1464h149v-239h414q105 0 188.5 -23.5t148.5 -72t100.5 -131.5t35.5 -195t-35.5 -195t-100.5 -132.5t-149 -73t-188 -23.5h-414v-379h-149zM305 510h434q303 0 303 293q0 291 -303 291h-434v-584z" />
<glyph unicode="&#xdf;" horiz-adv-x="1044" vert-adv-y="2457" d="M123 0v1073q0 196 105 307t296 111q169 0 277 -94t108 -258q0 -227 -231 -326v-4q303 -97 303 -416q0 -188 -102.5 -304t-282.5 -116q-95 0 -193 29v117q77 -31 160 -31q133 0 206 88.5t73 229.5q0 74 -21.5 134t-57 99t-82.5 65.5t-96.5 38t-101.5 11.5h-61v114h55 q55 0 106 16t93.5 47.5t68 84t25.5 119.5q0 103 -60.5 171t-185.5 68q-78 0 -132 -25.5t-83 -74t-41 -107t-12 -135.5v-1032h-133z" />
<glyph unicode="&#xe0;" horiz-adv-x="1052" vert-adv-y="2457" d="M68 264q0 83 28 141.5t87 97.5t132.5 62.5t182.5 42.5q147 27 187 41q78 29 92 92q3 16 3 35q0 83 -58 130.5t-179 47.5q-149 0 -213 -53.5t-72 -171.5h-141q4 72 29.5 131.5t75 108t132.5 75.5t193 27q76 0 138.5 -17.5t114 -54.5t80.5 -103t29 -157v-522 q0 -66 13 -94.5t47 -28.5q16 0 28 2v-96q-46 -8 -69 -8q-70 0 -106 36t-42 130h-4q-112 -185 -366 -185q-156 0 -249 80t-93 211zM207 276q0 -186 219 -186q161 0 257.5 80.5t96.5 220.5v195q-37 -51 -266 -88q-161 -29 -234 -78t-73 -144zM313 1485h162l113 -271h-111z" />
<glyph unicode="&#xe1;" horiz-adv-x="1052" vert-adv-y="2457" d="M68 264q0 83 28 141.5t87 97.5t132.5 62.5t182.5 42.5q147 27 187 41q78 29 92 92q3 16 3 35q0 83 -58 130.5t-179 47.5q-149 0 -213 -53.5t-72 -171.5h-141q4 72 29.5 131.5t75 108t132.5 75.5t193 27q76 0 138.5 -17.5t114 -54.5t80.5 -103t29 -157v-522 q0 -66 13 -94.5t47 -28.5q16 0 28 2v-96q-46 -8 -69 -8q-70 0 -106 36t-42 130h-4q-112 -185 -366 -185q-156 0 -249 80t-93 211zM207 276q0 -186 219 -186q161 0 257.5 80.5t96.5 220.5v195q-37 -51 -266 -88q-161 -29 -234 -78t-73 -144zM471 1214l127 271h160l-176 -271 h-111z" />
<glyph unicode="&#xe2;" horiz-adv-x="1052" vert-adv-y="2457" d="M68 264q0 83 28 141.5t87 97.5t132.5 62.5t182.5 42.5q147 27 187 41q78 29 92 92q3 16 3 35q0 83 -58 130.5t-179 47.5q-149 0 -213 -53.5t-72 -171.5h-141q4 72 29.5 131.5t75 108t132.5 75.5t193 27q76 0 138.5 -17.5t114 -54.5t80.5 -103t29 -157v-522 q0 -66 13 -94.5t47 -28.5q16 0 28 2v-96q-46 -8 -69 -8q-70 0 -106 36t-42 130h-4q-112 -185 -366 -185q-156 0 -249 80t-93 211zM207 276q0 -186 219 -186q161 0 257.5 80.5t96.5 220.5v195q-37 -51 -266 -88q-161 -29 -234 -78t-73 -144zM279 1219l186 266h151l185 -266 h-139l-121 190h-2l-121 -190h-139z" />
<glyph unicode="&#xe3;" horiz-adv-x="1052" vert-adv-y="2457" d="M68 264q0 83 28 141.5t87 97.5t132.5 62.5t182.5 42.5q147 27 187 41q78 29 92 92q3 16 3 35q0 83 -58 130.5t-179 47.5q-149 0 -213 -53.5t-72 -171.5h-141q4 72 29.5 131.5t75 108t132.5 75.5t193 27q76 0 138.5 -17.5t114 -54.5t80.5 -103t29 -157v-522 q0 -66 13 -94.5t47 -28.5q16 0 28 2v-96q-46 -8 -69 -8q-70 0 -106 36t-42 130h-4q-112 -185 -366 -185q-156 0 -249 80t-93 211zM207 276q0 -186 219 -186q161 0 257.5 80.5t96.5 220.5v195q-37 -51 -266 -88q-161 -29 -234 -78t-73 -144zM258 1229q1 92 43 138t105 46 q44 0 94 -21t92 -42t67 -21q52 0 56 80h104q-1 -93 -42 -137.5t-105 -44.5q-56 0 -141.5 42t-112.5 42q-52 0 -56 -82h-104z" />
<glyph unicode="&#xe4;" horiz-adv-x="1052" vert-adv-y="2457" d="M68 264q0 83 28 141.5t87 97.5t132.5 62.5t182.5 42.5q147 27 187 41q78 29 92 92q3 16 3 35q0 83 -58 130.5t-179 47.5q-149 0 -213 -53.5t-72 -171.5h-141q4 72 29.5 131.5t75 108t132.5 75.5t193 27q76 0 138.5 -17.5t114 -54.5t80.5 -103t29 -157v-522 q0 -66 13 -94.5t47 -28.5q16 0 28 2v-96q-46 -8 -69 -8q-70 0 -106 36t-42 130h-4q-112 -185 -366 -185q-156 0 -249 80t-93 211zM207 276q0 -186 219 -186q161 0 257.5 80.5t96.5 220.5v195q-37 -51 -266 -88q-161 -29 -234 -78t-73 -144zM303 1253v172h172v-172h-172z M608 1253v172h172v-172h-172z" />
<glyph unicode="&#xe5;" horiz-adv-x="1052" vert-adv-y="2457" d="M68 264q0 83 28 141.5t87 97.5t132.5 62.5t182.5 42.5q147 27 187 41q78 29 92 92q3 16 3 35q0 83 -58 130.5t-179 47.5q-149 0 -213 -53.5t-72 -171.5h-141q4 72 29.5 131.5t75 108t132.5 75.5t193 27q76 0 138.5 -17.5t114 -54.5t80.5 -103t29 -157v-522 q0 -66 13 -94.5t47 -28.5q16 0 28 2v-96q-46 -8 -69 -8q-70 0 -106 36t-42 130h-4q-112 -185 -366 -185q-156 0 -249 80t-93 211zM207 276q0 -186 219 -186q161 0 257.5 80.5t96.5 220.5v195q-37 -51 -266 -88q-161 -29 -234 -78t-73 -144zM362 1323q0 77 50 125.5t127 48.5 t126.5 -48.5t49.5 -125.5q0 -76 -49.5 -125t-126.5 -49t-127 49t-50 125zM438 1323q0 -46 28 -75t73 -29q46 0 74 29t28 75q0 45 -28.5 74.5t-73.5 29.5t-73 -29.5t-28 -74.5z" />
<glyph unicode="&#xe6;" horiz-adv-x="1812" vert-adv-y="2457" d="M68 264q0 83 28 141.5t87 97.5t132.5 62.5t182.5 42.5q147 27 187 41q78 29 92 92q3 16 3 35q0 83 -58 130.5t-179 47.5q-149 0 -213 -52.5t-72 -172.5h-141q4 73 29 132.5t74 107.5t131.5 75t191.5 27q121 0 212 -45t130 -141q65 90 165 138t226 48q221 0 346 -139 t125 -363q0 -57 -2 -73h-827q1 -110 38.5 -200.5t120.5 -150t201 -59.5q62 0 114 16t86 41t60 57.5t39 61t20 57.5h136q-41 -154 -156 -251t-301 -97q-147 0 -255.5 63.5t-170.5 176.5q-33 -64 -83.5 -111t-110 -74t-121 -40t-125.5 -13q-156 0 -249 80t-93 211zM207 276 q-2 -92 52 -139t167 -47q174 0 264 83.5t90 217.5v74q-2 18 -2 57q0 40 2 58v6q-37 -51 -266 -88q-162 -29 -235 -78t-72 -144zM918 612h688q0 146 -90 245t-246 99q-150 0 -247 -97.5t-105 -246.5z" />
<glyph unicode="&#xe7;" horiz-adv-x="1069" vert-adv-y="2457" d="M66 522q0 245 137.5 396t361.5 151q186 0 308.5 -110.5t140.5 -280.5h-140q-3 47 -21.5 92.5t-53.5 87.5t-96 68t-138 26q-74 0 -135.5 -24.5t-102.5 -65.5t-69 -96.5t-40.5 -116.5t-12.5 -127q0 -84 21 -159t62.5 -138t113 -100t163.5 -37q78 0 138.5 26t95.5 69.5 t53.5 91t21.5 98.5h140q-11 -160 -121 -271.5t-279 -126.5l-71 -86v-4q76 13 134 -19.5t58 -109.5t-59 -115t-148 -38q-115 0 -211 61l39 45q78 -33 148 -33q55 0 83.5 21.5t28.5 60.5q0 68 -86 68q-54 0 -86 -16l-24 36l104 129q-207 14 -332.5 163t-125.5 384z" />
<glyph unicode="&#xe8;" horiz-adv-x="1099" vert-adv-y="2457" d="M68 522q0 250 135.5 399.5t361.5 149.5q221 0 346 -139t125 -363q0 -57 -2 -73h-827q1 -110 38.5 -200.5t120.5 -150t201 -59.5q76 0 137 23.5t97 61.5t56.5 74.5t29.5 73.5h135q-41 -154 -156 -251t-301 -97q-233 0 -365 153.5t-132 397.5zM207 612h688q0 146 -90 245 t-246 99q-150 0 -247 -97.5t-105 -246.5zM330 1489h162l112 -270h-110z" />
<glyph unicode="&#xe9;" horiz-adv-x="1099" vert-adv-y="2457" d="M68 522q0 250 135.5 399.5t361.5 149.5q221 0 346 -139t125 -363q0 -57 -2 -73h-827q1 -110 38.5 -200.5t120.5 -150t201 -59.5q76 0 137 23.5t97 61.5t56.5 74.5t29.5 73.5h135q-41 -154 -156 -251t-301 -97q-233 0 -365 153.5t-132 397.5zM207 612h688q0 146 -90 245 t-246 99q-150 0 -247 -97.5t-105 -246.5zM487 1219l127 270h160l-176 -270h-111z" />
<glyph unicode="&#xea;" horiz-adv-x="1099" vert-adv-y="2457" d="M68 522q0 250 135.5 399.5t361.5 149.5q221 0 346 -139t125 -363q0 -57 -2 -73h-827q1 -110 38.5 -200.5t120.5 -150t201 -59.5q76 0 137 23.5t97 61.5t56.5 74.5t29.5 73.5h135q-41 -154 -156 -251t-301 -97q-233 0 -365 153.5t-132 397.5zM207 612h688q0 146 -90 245 t-246 99q-150 0 -247 -97.5t-105 -246.5zM295 1223l186 266h152l184 -266h-139l-121 190h-2l-121 -190h-139z" />
<glyph unicode="&#xeb;" horiz-adv-x="1099" vert-adv-y="2457" d="M68 522q0 250 135.5 399.5t361.5 149.5q221 0 346 -139t125 -363q0 -57 -2 -73h-827q1 -110 38.5 -200.5t120.5 -150t201 -59.5q76 0 137 23.5t97 61.5t56.5 74.5t29.5 73.5h135q-41 -154 -156 -251t-301 -97q-233 0 -365 153.5t-132 397.5zM207 612h688q0 146 -90 245 t-246 99q-150 0 -247 -97.5t-105 -246.5zM317 1257v173h172v-173h-172zM623 1257v173h172v-173h-172z" />
<glyph unicode="&#xec;" horiz-adv-x="378" vert-adv-y="2457" d="M-37 1485h162l113 -271h-111zM123 0v1044h133v-1044h-133z" />
<glyph unicode="&#xed;" horiz-adv-x="378" vert-adv-y="2457" d="M121 1214l127 271h160l-177 -271h-110zM123 0v1044h133v-1044h-133z" />
<glyph unicode="&#xee;" horiz-adv-x="378" vert-adv-y="2457" d="M-72 1219l187 266h151l185 -266h-140l-121 190h-2l-120 -190h-140zM123 0v1044h133v-1044h-133z" />
<glyph unicode="&#xef;" horiz-adv-x="378" vert-adv-y="2457" d="M-49 1253v172h172v-172h-172zM123 0v1044h133v-1044h-133zM256 1253v172h172v-172h-172z" />
<glyph unicode="&#xf0;" horiz-adv-x="1140" vert-adv-y="2457" d="M66 524q0 245 139 395t352 150q105 0 197.5 -52t146.5 -140q-50 174 -227 354l-336 -90l-23 102l269 72q-99 86 -201 149h182q85 -56 150 -114l291 77l24 -102l-229 -61q268 -289 268 -676q0 -96 -18 -184t-58 -167.5t-98 -138t-144 -93t-190 -34.5q-231 0 -363 152.5 t-132 400.5zM199 524q0 -118 40.5 -215.5t124 -159t197.5 -61.5q115 0 201.5 62t129 161t42.5 219q0 180 -103 304t-274 124q-114 0 -196.5 -61t-122 -158t-39.5 -215z" />
<glyph unicode="&#xf1;" vert-adv-y="2457" d="M123 0v1044h133v-149h4q51 75 140.5 124.5t217.5 49.5q149 0 246 -85.5t97 -250.5v-733h-134v705q0 110 -57.5 178.5t-183.5 68.5q-145 0 -237.5 -86.5t-92.5 -206.5v-659h-133zM266 1231q1 92 43 138t105 46q44 0 94.5 -21t92.5 -42t67 -21q51 0 55 80h104 q-1 -93 -42 -137.5t-105 -44.5q-56 0 -141.5 42t-112.5 42q-51 0 -55 -82h-105z" />
<glyph unicode="&#xf2;" horiz-adv-x="1134" vert-adv-y="2457" d="M66 520q0 248 134.5 399.5t366.5 151.5t367 -151.5t135 -399.5q0 -246 -135 -397.5t-367 -151.5t-366.5 151.5t-134.5 397.5zM205 520q0 -123 38.5 -218.5t122 -154.5t201.5 -59t201.5 58.5t122.5 154.5t39 219q0 124 -39 220t-122.5 155t-201.5 59t-201.5 -59t-122 -155 t-38.5 -220zM342 1487h162l112 -270h-110z" />
<glyph unicode="&#xf3;" horiz-adv-x="1134" vert-adv-y="2457" d="M66 520q0 248 134.5 399.5t366.5 151.5t367 -151.5t135 -399.5q0 -246 -135 -397.5t-367 -151.5t-366.5 151.5t-134.5 397.5zM205 520q0 -123 38.5 -218.5t122 -154.5t201.5 -59t201.5 58.5t122.5 154.5t39 219q0 124 -39 220t-122.5 155t-201.5 59t-201.5 -59t-122 -155 t-38.5 -220zM500 1217l127 270h159l-176 -270h-110z" />
<glyph unicode="&#xf4;" horiz-adv-x="1134" vert-adv-y="2457" d="M66 520q0 248 134.5 399.5t366.5 151.5t367 -151.5t135 -399.5q0 -246 -135 -397.5t-367 -151.5t-366.5 151.5t-134.5 397.5zM205 520q0 -123 38.5 -218.5t122 -154.5t201.5 -59t201.5 58.5t122.5 154.5t39 219q0 124 -39 220t-122.5 155t-201.5 59t-201.5 -59t-122 -155 t-38.5 -220zM307 1221l187 266h151l184 -266h-139l-121 190h-2l-121 -190h-139z" />
<glyph unicode="&#xf5;" horiz-adv-x="1134" vert-adv-y="2457" d="M66 520q0 248 134.5 399.5t366.5 151.5t367 -151.5t135 -399.5q0 -246 -135 -397.5t-367 -151.5t-366.5 151.5t-134.5 397.5zM205 520q0 -123 38.5 -218.5t122 -154.5t201.5 -59t201.5 58.5t122.5 154.5t39 219q0 124 -39 220t-122.5 155t-201.5 59t-201.5 -59t-122 -155 t-38.5 -220zM287 1231q1 92 42.5 138t104.5 46q44 0 94.5 -21t92.5 -42t67 -21q51 0 55 80h105q-1 -93 -42.5 -137.5t-105.5 -44.5q-56 0 -141.5 42t-112.5 42q-51 0 -55 -82h-104z" />
<glyph unicode="&#xf6;" horiz-adv-x="1134" vert-adv-y="2457" d="M66 520q0 248 134.5 399.5t366.5 151.5t367 -151.5t135 -399.5q0 -246 -135 -397.5t-367 -151.5t-366.5 151.5t-134.5 397.5zM205 520q0 -123 38.5 -218.5t122 -154.5t201.5 -59t201.5 58.5t122.5 154.5t39 219q0 124 -39 220t-122.5 155t-201.5 59t-201.5 -59t-122 -155 t-38.5 -220zM330 1255v172h172v-172h-172zM635 1255v172h172v-172h-172z" />
<glyph unicode="&#xf7;" horiz-adv-x="1110" vert-adv-y="2457" d="M102 602v131h908v-131h-908zM469 250v172h172v-172h-172zM469 922v172h172v-172h-172z" />
<glyph unicode="&#xf8;" horiz-adv-x="1157" vert-adv-y="2457" d="M47 43l127 129q-96 140 -96 348q0 248 135 399.5t367 151.5q215 0 346 -131l123 125l61 -64l-127 -129q98 -143 98 -352q0 -246 -134.5 -397.5t-366.5 -151.5q-216 0 -349 133l-122 -124zM217 520q0 -142 53 -248l566 576q-95 106 -256 106q-118 0 -201.5 -59 t-122.5 -155t-39 -220zM322 197q95 -109 258 -109q118 0 201.5 59t122 154.5t38.5 218.5q0 147 -55 254z" />
<glyph unicode="&#xf9;" vert-adv-y="2457" d="M115 311v733h133v-704q0 -110 57.5 -179t183.5 -69q145 0 237.5 86.5t92.5 206.5v659h133v-1044h-133v147h-4q-51 -74 -140 -123t-218 -49q-149 0 -245.5 85.5t-96.5 250.5zM291 1485h162l112 -271h-110z" />
<glyph unicode="&#xfa;" vert-adv-y="2457" d="M115 311v733h133v-704q0 -110 57.5 -179t183.5 -69q145 0 237.5 86.5t92.5 206.5v659h133v-1044h-133v147h-4q-51 -74 -140 -123t-218 -49q-149 0 -245.5 85.5t-96.5 250.5zM449 1214l126 271h160l-176 -271h-110z" />
<glyph unicode="&#xfb;" vert-adv-y="2457" d="M115 311v733h133v-704q0 -110 57.5 -179t183.5 -69q145 0 237.5 86.5t92.5 206.5v659h133v-1044h-133v147h-4q-51 -74 -140 -123t-218 -49q-149 0 -245.5 85.5t-96.5 250.5zM256 1219l186 266h152l184 -266h-139l-121 190h-2l-121 -190h-139z" />
<glyph unicode="&#xfc;" vert-adv-y="2457" d="M115 311v733h133v-704q0 -110 57.5 -179t183.5 -69q145 0 237.5 86.5t92.5 206.5v659h133v-1044h-133v147h-4q-51 -74 -140 -123t-218 -49q-149 0 -245.5 85.5t-96.5 250.5zM281 1253v172h172v-172h-172zM586 1253v172h172v-172h-172z" />
<glyph unicode="&#xfd;" horiz-adv-x="985" vert-adv-y="2457" d="M8 1044h148l340 -870h4l323 870h144l-418 -1075q-74 -189 -150 -262.5t-184 -73.5q-35 0 -100 9v114q47 -6 80 -6q78 0 136 59t99 197zM420 1214l127 271h160l-177 -271h-110z" />
<glyph unicode="&#xfe;" horiz-adv-x="1140" vert-adv-y="2457" d="M123 -362v1826h133v-587h4q118 194 352 194q198 0 329.5 -149t131.5 -400q0 -125 -36 -229t-98.5 -173t-146.5 -107t-180 -38q-242 0 -352 201h-4v-538h-133zM256 522q0 -195 95 -312.5t247 -117.5q105 0 182.5 59.5t115.5 155.5t38 215q0 120 -38 216.5t-115.5 156 t-182.5 59.5q-152 0 -247 -118t-95 -314z" />
<glyph unicode="&#xff;" horiz-adv-x="985" vert-adv-y="2457" d="M8 1044h148l340 -870h4l323 870h144l-418 -1075q-74 -189 -150 -262.5t-184 -73.5q-35 0 -100 9v114q47 -6 80 -6q78 0 136 59t99 197zM250 1253v172h172v-172h-172zM555 1253v172h172v-172h-172z" />
<glyph unicode="&#x152;" horiz-adv-x="2248" vert-adv-y="2457" d="M84 733q0 217 75.5 390.5t210.5 270.5t306 97q170 0 299 -88t196 -266v327h994v-131h-844v-504h754v-131h-754v-567h866v-131h-1016v330q-67 -178 -196.5 -267.5t-298.5 -89.5q-171 0 -306 97.5t-210.5 271t-75.5 391.5zM238 733q0 -132 29 -244.5t85.5 -199t147 -136 t205.5 -49.5q93 0 174 40t143.5 117t98.5 198.5t36 273.5t-36 273.5t-98.5 197.5t-143.5 116t-174 40q-92 0 -169 -32t-131.5 -89t-92.5 -136t-56 -172t-18 -198z" />
<glyph unicode="&#x153;" horiz-adv-x="1961" vert-adv-y="2457" d="M66 522q0 246 134.5 396.5t366.5 150.5q147 0 258.5 -64t173.5 -180q62 118 172.5 182t255.5 64q221 0 346 -139t125 -363q0 -57 -2 -73h-827q1 -81 23.5 -153.5t65 -130.5t113 -92t159.5 -34q62 0 114 16t86 41t60 57.5t39 61t20 57.5h135q-41 -154 -156 -251t-301 -97 q-149 0 -258.5 64.5t-169.5 181.5q-62 -116 -173.5 -180t-258.5 -64q-232 0 -366.5 150.5t-134.5 398.5zM205 522q0 -124 38.5 -219.5t122 -154t201.5 -58.5q89 0 159 33.5t114 92t67 136.5t23 170q0 123 -39 218.5t-122.5 153.5t-201.5 58q-89 0 -159 -33t-114 -92 t-66.5 -136.5t-22.5 -168.5zM1069 612h688q0 146 -90 245t-246 99q-150 0 -247 -97.5t-105 -246.5z" />
<glyph unicode="&#x178;" horiz-adv-x="1265" vert-adv-y="2457" d="M23 1464h161l447 -747h4l448 747h160l-536 -864v-600h-150v600zM395 1673v172h172v-172h-172zM700 1673v172h172v-172h-172z" />
<glyph unicode="&#x2c6;" horiz-adv-x="686" vert-adv-y="2457" d="M82 1219l186 266h152l184 -266h-139l-121 190h-2l-121 -190h-139z" />
<glyph unicode="&#x2dc;" horiz-adv-x="724" vert-adv-y="2457" d="M82 1231q1 92 42.5 138t104.5 46q44 0 94.5 -21t92.5 -42t67 -21q52 0 56 80h104q-1 -93 -42 -137.5t-105 -44.5q-56 0 -141.5 42t-112.5 42q-52 0 -56 -82h-104z" />
<glyph unicode="&#x2000;" horiz-adv-x="958" vert-adv-y="0" />
<glyph unicode="&#x2001;" horiz-adv-x="1917" vert-adv-y="0" />
<glyph unicode="&#x2002;" horiz-adv-x="958" vert-adv-y="0" />
<glyph unicode="&#x2003;" horiz-adv-x="1917" vert-adv-y="0" />
<glyph unicode="&#x2004;" horiz-adv-x="639" vert-adv-y="0" />
<glyph unicode="&#x2005;" horiz-adv-x="479" vert-adv-y="0" />
<glyph unicode="&#x2006;" horiz-adv-x="319" vert-adv-y="0" />
<glyph unicode="&#x2007;" horiz-adv-x="319" vert-adv-y="0" />
<glyph unicode="&#x2008;" horiz-adv-x="239" vert-adv-y="0" />
<glyph unicode="&#x2009;" horiz-adv-x="383" vert-adv-y="0" />
<glyph unicode="&#x200a;" horiz-adv-x="106" vert-adv-y="0" />
<glyph unicode="&#x2010;" horiz-adv-x="718" vert-adv-y="2457" d="M84 457v131h549v-131h-549z" />
<glyph unicode="&#x2011;" horiz-adv-x="718" vert-adv-y="2457" d="M84 457v131h549v-131h-549z" />
<glyph unicode="&#x2012;" horiz-adv-x="718" vert-adv-y="2457" d="M84 457v131h549v-131h-549z" />
<glyph unicode="&#x2013;" horiz-adv-x="1193" vert-adv-y="2457" d="M84 457v131h1024v-131h-1024z" />
<glyph unicode="&#x2014;" horiz-adv-x="2213" vert-adv-y="2457" d="M84 455v133h2048v-133h-2048z" />
<glyph unicode="&#x2018;" horiz-adv-x="362" vert-adv-y="2457" d="M92 1044v173q0 96 37 156.5t135 90.5v-88q-49 -17 -67.5 -51t-16.5 -108h84v-173h-172z" />
<glyph unicode="&#x2019;" horiz-adv-x="348" vert-adv-y="2457" d="M100 1044v89q50 19 67.5 52.5t16.5 106.5h-84v172h172v-172q0 -95 -37 -156.5t-135 -91.5z" />
<glyph unicode="&#x201a;" horiz-adv-x="372" vert-adv-y="2457" d="M100 0v172h172v-172q0 -95 -37 -156.5t-135 -91.5v88q50 19 67.5 53t16.5 107h-84z" />
<glyph unicode="&#x201c;" horiz-adv-x="636" vert-adv-y="2457" d="M92 1044v173q0 96 37 156.5t135 90.5v-88q-49 -17 -67.5 -51t-16.5 -108h84v-173h-172zM367 1044v173q0 97 36 157t134 90v-88q-49 -17 -66.5 -51t-17.5 -108h86v-173h-172z" />
<glyph unicode="&#x201d;" horiz-adv-x="620" vert-adv-y="2457" d="M100 1044v89q50 19 67.5 52.5t16.5 106.5h-84v172h172v-172q0 -95 -37 -156.5t-135 -91.5zM373 1044v89q50 19 67.5 52.5t16.5 106.5h-84v172h172v-172q0 -95 -37 -156.5t-135 -91.5z" />
<glyph unicode="&#x201e;" horiz-adv-x="649" vert-adv-y="2457" d="M100 0v172h172v-172q0 -95 -37 -156.5t-135 -91.5v88q50 19 67.5 53t16.5 107h-84zM375 0v172h172v-172q0 -95 -37 -156.5t-135 -91.5v88q50 19 67.5 53t16.5 107h-84z" />
<glyph unicode="&#x2022;" horiz-adv-x="714" vert-adv-y="2457" d="M164 420v389h389v-389h-389z" />
<glyph unicode="&#x2026;" horiz-adv-x="1128" vert-adv-y="2457" d="M100 0v172h172v-172h-172zM477 0v172h172v-172h-172zM854 0v172h172v-172h-172z" />
<glyph unicode="&#x202f;" horiz-adv-x="383" vert-adv-y="0" />
<glyph unicode="&#x2039;" horiz-adv-x="600" vert-adv-y="2457" d="M90 453v159l402 328v-154l-322 -251v-5l322 -251v-156z" />
<glyph unicode="&#x203a;" horiz-adv-x="600" vert-adv-y="2457" d="M109 123v153l321 254v5l-321 251v154l401 -328v-161z" />
<glyph unicode="&#x205f;" horiz-adv-x="479" vert-adv-y="0" />
<glyph unicode="&#x20ac;" horiz-adv-x="1335" vert-adv-y="2457" d="M104 528v103h121q-2 23 -2 71q0 45 2 68h-121v102h129q36 259 175 408.5t354 149.5q107 0 194.5 -37t146.5 -102.5t95 -151t49 -187.5h-147q-9 51 -23 96t-41 92.5t-62.5 81t-90 55t-121.5 21.5q-161 0 -255 -115.5t-122 -310.5h434v-102h-444q-2 -23 -2 -68q0 -48 2 -71 h444v-103h-434q28 -194 122.5 -309t254.5 -115q84 0 149 33t103.5 90.5t59.5 126t26 148.5h147q-24 -246 -147 -387.5t-338 -141.5q-213 0 -351.5 148t-174.5 407h-132z" />
<glyph unicode="&#x2122;" horiz-adv-x="1341" vert-adv-y="2457" d="M41 1370v94h485v-94h-188v-477h-109v477h-188zM606 893v571h158l143 -436h2l148 436h155v-571h-104v442h-4l-143 -442h-103l-143 442h-4v-442h-105z" />
<glyph unicode="&#x25fc;" horiz-adv-x="1044" vert-adv-y="2088" d="M0 0v1044h1044v-1044h-1044z" />
<glyph unicode="&#xfb01;" horiz-adv-x="923" vert-adv-y="2457" d="M39 928v116h147v154q0 83 16 139t48.5 86t74 42t101.5 12q30 0 100 -9v-112q-74 4 -82 4q-75 0 -100 -31.5t-25 -128.5v-156h207v-116h-207v-928h-133v928h-147zM647 1253v172h172v-172h-172zM668 0v1044h133v-1044h-133z" />
<glyph unicode="&#xfb02;" horiz-adv-x="923" vert-adv-y="2457" d="M39 928v116h147v154q0 83 16 139t48.5 86t74 42t101.5 12q30 0 100 -9v-112q-74 4 -82 4q-75 0 -100 -31.5t-25 -128.5v-156h207v-116h-207v-928h-133v928h-147zM668 0v1464h133v-1464h-133z" />
<glyph unicode="&#xfb03;" horiz-adv-x="1406" vert-adv-y="2457" d="M39 928v116h147v154q0 83 16 139t48.5 86t74 42t101.5 12q30 0 100 -9v-112q-74 4 -82 4q-75 0 -100 -31.5t-25 -128.5v-156h355v154q0 83 15.5 139t48 86t74 42t101.5 12q30 0 101 -9v-112q-74 4 -82 4q-75 0 -100 -31.5t-25 -128.5v-156h207v-116h-207v-928h-133v928 h-355v-928h-133v928h-147zM1130 1253v172h173v-172h-173zM1151 0v1044h133v-1044h-133z" />
</font>
</defs>
</svg>
