<?xml version="1.0" standalone="no"?>
<!DOCTYPE svg PUBLIC "-//W3C//DTD SVG 1.1//EN" "http://www.w3.org/Graphics/SVG/1.1/DTD/svg11.dtd" >
<svg xmlns="http://www.w3.org/2000/svg" xmlns:xlink="http://www.w3.org/1999/xlink" version="1.1">
<metadata></metadata>
<defs>
<font id="pp_neue_montrealmedium" horiz-adv-x="1087" vert-adv-y="2048" >
<font-face units-per-em="2048" ascent="1638" descent="-410" />
<missing-glyph horiz-adv-x="428" />
<glyph horiz-adv-x="0" vert-adv-y="0" />
<glyph horiz-adv-x="682" />
<glyph unicode="&#xd;" horiz-adv-x="428" vert-adv-y="2457" />
<glyph unicode=" " horiz-adv-x="428" vert-adv-y="2457" />
<glyph unicode="!" horiz-adv-x="458" vert-adv-y="2457" d="M119 0v223h223v-223h-223zM119 1067v397h221v-397l-51 -668h-117z" />
<glyph unicode="&#x22;" horiz-adv-x="684" vert-adv-y="2457" d="M86 1464h190l-24 -512h-141zM410 1464h190l-25 -512h-141z" />
<glyph unicode="#" horiz-adv-x="1181" vert-adv-y="2457" d="M53 397l31 166h188l62 301h-209l33 168h209l77 383h166l-78 -383h234l76 383h168l-78 -383h198l-32 -168h-199l-61 -301h219l-29 -166h-223l-80 -397h-166l80 397h-233l-80 -397h-166l80 397h-187zM438 563h234l59 301h-231z" />
<glyph unicode="$" horiz-adv-x="1234" vert-adv-y="2457" d="M53 467h209q25 -273 307 -311v489q-1 0 -3 1t-3 1q-52 14 -92.5 27t-89.5 32.5t-85.5 41t-73 51.5t-59.5 64t-37.5 79t-14.5 96q0 174 123 280.5t335 113.5v145h123v-152q191 -24 308.5 -140.5t129.5 -309.5h-208q-26 227 -230 268v-436q70 -21 115.5 -35.5t101 -37 t89.5 -44.5t69.5 -54t55 -69t32 -86.5t12.5 -109.5q0 -169 -123 -280t-352 -120v-178h-123v182q-223 23 -364.5 150t-151.5 342zM322 1059q0 -44 17 -77.5t52.5 -58.5t75.5 -42t102 -37v407q-115 -6 -181 -56.5t-66 -135.5zM692 150q264 14 264 215q0 97 -61 149t-203 96 v-460z" />
<glyph unicode="%" horiz-adv-x="1712" vert-adv-y="2457" d="M43 1038q0 178 91.5 292t262.5 114q167 0 260 -115t93 -291q0 -179 -91.5 -293t-261.5 -114q-113 0 -194.5 55t-120.5 145.5t-39 206.5zM229 1038q0 -120 42 -187t126 -67q83 0 124.5 67t41.5 187t-41.5 187t-124.5 67q-84 0 -126 -67t-42 -187zM375 0l786 1415h176 l-786 -1415h-176zM965 377q0 179 91 293t261 114q168 0 260 -114.5t92 -292.5q0 -86 -22 -159t-65 -128.5t-111 -87t-154 -31.5q-168 0 -260 114.5t-92 291.5zM1149 377q0 -120 42.5 -187t125.5 -67t125.5 67t42.5 187t-42.5 187t-125.5 67t-125.5 -67t-42.5 -187z" />
<glyph unicode="&#x26;" horiz-adv-x="1273" vert-adv-y="2457" d="M59 356q0 64 20 121t49 98.5t77 83t89.5 68.5t100.5 61q-87 109 -128.5 188.5t-41.5 170.5q0 67 23.5 128t68 110t116 78.5t159.5 29.5q168 1 266 -98.5t98 -245.5q0 -64 -20 -117t-63.5 -99.5t-94 -83.5t-129.5 -85l277 -332q59 117 86 285h192q-35 -254 -151 -441 l231 -276h-244l-106 131q-173 -160 -420 -160q-213 0 -334 108t-121 277zM266 383q0 -99 69.5 -160t194.5 -61q166 0 283 114l-324 396q-110 -68 -166.5 -136t-56.5 -153zM422 1145q0 -60 33 -122t98 -144q107 64 157 123t50 133q0 77 -45.5 128.5t-122.5 51.5 q-79 0 -124.5 -50t-45.5 -120z" />
<glyph unicode="'" horiz-adv-x="362" vert-adv-y="2457" d="M86 1464h190l-24 -512h-141z" />
<glyph unicode="(" horiz-adv-x="561" vert-adv-y="2457" d="M68 649q0 270 79 501.5t205 401.5h176q-113 -210 -175 -425t-62 -478q0 -258 62.5 -474t174.5 -425h-176q-125 168 -204.5 402t-79.5 497z" />
<glyph unicode=")" horiz-adv-x="561" vert-adv-y="2457" d="M33 -250q113 211 176 426.5t63 478.5q0 257 -63 471.5t-176 425.5h176q126 -169 205.5 -402t79.5 -495q0 -270 -79.5 -502.5t-205.5 -402.5h-176z" />
<glyph unicode="*" horiz-adv-x="919" vert-adv-y="2457" d="M80 1145l47 129l258 -80v270h152l-2 -270l258 80l47 -129l-260 -78l168 -215l-119 -84l-168 225l-168 -225l-119 84l166 215z" />
<glyph unicode="+" horiz-adv-x="1140" vert-adv-y="2457" d="M98 573v191h377v389h191v-389h376v-191h-376v-389h-191v389h-377z" />
<glyph unicode="," horiz-adv-x="415" vert-adv-y="2457" d="M96 0v223h223v-223q0 -223 -223 -279v111q59 18 83.5 54.5t23.5 113.5h-107z" />
<glyph unicode="-" horiz-adv-x="720" vert-adv-y="2457" d="M86 426v190h549v-190h-549z" />
<glyph unicode="." horiz-adv-x="407" vert-adv-y="2457" d="M92 0v223h223v-223h-223z" />
<glyph unicode="/" horiz-adv-x="804" vert-adv-y="2457" d="M25 0l567 1464h186l-567 -1464h-186z" />
<glyph unicode="0" horiz-adv-x="1300" vert-adv-y="2457" d="M88 707q0 124 20.5 232.5t64.5 202t109 160t159 104.5t210 38q144 0 253.5 -57.5t175.5 -159.5t99 -233t33 -287q0 -124 -20 -232.5t-64 -202t-108.5 -160t-158.5 -104t-210 -37.5q-144 0 -254 57.5t-176.5 159t-99.5 232.5t-33 287zM319 707q0 -91 9.5 -168.5 t33.5 -148.5t61 -120.5t95 -78.5t133 -29q92 0 158 43t102.5 121.5t53 172t16.5 208.5t-16.5 209t-53 172t-102.5 121.5t-158 43.5q-93 0 -159.5 -43.5t-103 -121.5t-53 -171.5t-16.5 -209.5z" />
<glyph unicode="1" horiz-adv-x="698" vert-adv-y="2457" d="M27 983v180q124 3 196 31.5t104.5 80t41.5 140.5h176v-1415h-221v1051q-42 -40 -115.5 -54t-181.5 -14z" />
<glyph unicode="2" horiz-adv-x="1165" vert-adv-y="2457" d="M57 0q0 191 109 338t323 280q177 107 221 140q100 74 126 158q14 43 14 96q0 38 -6 70.5t-23 64.5t-43 55t-69 37t-99 14q-291 0 -291 -338h-225q0 115 32 210t94.5 167t163.5 112t232 40q199 0 331 -114t132 -310q0 -57 -14 -110t-34 -94.5t-56.5 -84.5t-67.5 -72.5 t-82 -66t-83.5 -58t-88.5 -55.5q-69 -41 -104.5 -63.5t-85 -60.5t-78 -76.5t-43.5 -83.5v-5h721v-190h-1006z" />
<glyph unicode="3" horiz-adv-x="1232" vert-adv-y="2457" d="M66 483h225q0 -156 76.5 -238.5t253.5 -82.5q161 0 230 60.5t69 180.5q0 242 -283 242h-133v182h125q112 0 176.5 53t64.5 164q0 91 -59 150t-182 59q-299 0 -299 -264h-226q0 204 137 329.5t390 125.5q128 0 233 -44t170.5 -134t65.5 -211q0 -213 -213 -303v-4 q262 -83 262 -349q0 -203 -138.5 -315.5t-375.5 -112.5q-273 0 -421 134t-148 378z" />
<glyph unicode="4" horiz-adv-x="1208" vert-adv-y="2457" d="M53 324v204l674 887h221v-901h199v-190h-199v-324h-221v324h-674zM258 514h469v616z" />
<glyph unicode="5" horiz-adv-x="1189" vert-adv-y="2457" d="M70 414h225q6 -51 23.5 -94t50.5 -80t89 -57.5t130 -20.5q138 0 218.5 83t80.5 238q0 146 -74.5 217.5t-210.5 71.5q-189 0 -287 -127h-227l152 770h804v-190h-634l-78 -391v-5q120 123 330 123q200 0 327 -132.5t127 -336.5q0 -153 -68.5 -270.5t-185 -179.5t-262.5 -62 q-123 0 -223.5 35.5t-166 97t-101.5 141t-39 169.5z" />
<glyph unicode="6" horiz-adv-x="1226" vert-adv-y="2457" d="M90 705q0 349 145.5 544t407.5 195q193 0 319 -111t146 -276h-227q-31 203 -238 203q-77 0 -136 -28t-95.5 -73.5t-59.5 -111t-32 -132.5t-9 -145v-20l6 -2q56 90 150 138t215 48q206 0 335.5 -131t129.5 -340q0 -211 -138.5 -351.5t-367.5 -140.5q-551 0 -551 734z M336 446q0 -132 78.5 -211t220.5 -79q137 0 212 79.5t75 215.5q0 138 -74.5 217.5t-198.5 79.5q-144 0 -228.5 -83.5t-84.5 -218.5z" />
<glyph unicode="7" horiz-adv-x="1060" vert-adv-y="2457" d="M20 1225v190h996v-170q-159 -132 -285 -338.5t-196 -444.5t-70 -462h-234q0 169 49 356t128 348t174.5 296.5t191.5 220.5v4h-754z" />
<glyph unicode="8" horiz-adv-x="1243" vert-adv-y="2457" d="M78 399q0 238 264 353v4q-195 103 -195 303q0 179 132 282t342 103q212 0 343.5 -103t131.5 -282q0 -198 -195 -303v-4q264 -117 264 -353q0 -139 -72.5 -237.5t-193 -144.5t-278.5 -46q-117 0 -215 27t-171.5 79t-115 134.5t-41.5 187.5zM307 412q0 -121 83 -188.5 t231 -67.5t230.5 67.5t82.5 188.5q0 119 -82.5 185.5t-230.5 66.5t-231 -66.5t-83 -185.5zM369 1051q0 -105 65.5 -158t186.5 -53q122 0 187.5 52.5t65.5 158.5q0 105 -66 159t-187 54q-120 0 -186 -54.5t-66 -158.5z" />
<glyph unicode="9" horiz-adv-x="1230" vert-adv-y="2457" d="M82 952q0 211 138 351.5t368 140.5q551 0 551 -733q0 -350 -146 -545t-409 -195q-192 0 -318 111t-147 276h229q13 -93 71 -147.5t167 -54.5q94 0 161.5 41t103.5 113.5t51.5 154t15.5 180.5v21l-7 2q-56 -90 -150 -138.5t-214 -48.5q-206 0 -335.5 131t-129.5 340z M307 965q0 -138 74.5 -217.5t198.5 -79.5q143 0 228 83t85 218q0 132 -79 211.5t-222 79.5q-136 0 -210.5 -79.5t-74.5 -215.5z" />
<glyph unicode=":" horiz-adv-x="428" vert-adv-y="2457" d="M102 0v223h224v-223h-224zM102 627v223h224v-223h-224z" />
<glyph unicode=";" horiz-adv-x="428" vert-adv-y="2457" d="M102 0v223h224v-223q0 -223 -224 -279v111q59 18 83.5 54.5t23.5 113.5h-107zM102 627v223h224v-223h-224z" />
<glyph unicode="&#x3c;" horiz-adv-x="1038" vert-adv-y="2457" d="M92 530v213l838 349v-191l-672 -262v-4l672 -262v-191z" />
<glyph unicode="=" horiz-adv-x="1128" vert-adv-y="2457" d="M102 414v190h924v-190h-924zM102 735v191h924v-191h-924z" />
<glyph unicode="&#x3e;" horiz-adv-x="1038" vert-adv-y="2457" d="M109 182v191l669 262v4l-669 262v191l835 -351v-211z" />
<glyph unicode="?" horiz-adv-x="1026" vert-adv-y="2457" d="M31 987q0 147 55.5 259.5t170 179.5t275.5 67q206 0 332.5 -106.5t126.5 -278.5q0 -61 -15.5 -110t-50.5 -91t-65 -68.5t-86 -68.5q-91 -67 -112 -88q-77 -73 -95 -188q-6 -43 -6 -95h-205q0 77 13 140t30.5 104t52.5 82t62 64.5t76 60.5q92 71 117 98q63 67 63 160 q0 91 -60.5 143t-172.5 52q-129 0 -206 -76t-77 -240h-223zM352 0v223h223v-223h-223z" />
<glyph unicode="@" horiz-adv-x="1792" vert-adv-y="2457" d="M59 602q0 177 62 334.5t172 273t270 183t346 67.5t341 -62t258.5 -169.5t160.5 -252t57 -308.5q0 -109 -23 -197.5t-60.5 -144.5t-87.5 -93.5t-101.5 -53t-105.5 -15.5q-185 0 -261 170h-4q-85 -164 -284 -164q-147 0 -244.5 113t-97.5 307q0 209 110.5 339t272.5 130 q96 0 170.5 -48.5t103.5 -119.5h4l21 153h172l-66 -514q-14 -104 17.5 -159.5t105.5 -55.5q93 0 147 90.5t54 258.5q0 289 -180 467t-476 178q-157 0 -289 -58t-219 -155.5t-135.5 -225.5t-48.5 -268q0 -196 84 -348t236 -236t348 -84q204 0 362 64l56 -127 q-162 -88 -418 -88q-377 0 -603.5 224t-226.5 595zM631 584q0 -115 51 -183.5t154 -68.5q114 0 177.5 89t63.5 224q0 122 -56.5 187t-146.5 65q-116 0 -179.5 -87t-63.5 -226z" />
<glyph unicode="A" horiz-adv-x="1351" vert-adv-y="2457" d="M8 0l545 1464h244l549 -1464h-246l-121 352h-612l-121 -352h-238zM434 543h481l-239 712h-4z" />
<glyph unicode="B" horiz-adv-x="1366" vert-adv-y="2457" d="M145 0v1464h617q226 0 351.5 -96.5t125.5 -271.5q0 -228 -227 -305v-5q125 -22 204.5 -112.5t79.5 -245.5q0 -207 -132.5 -317.5t-364.5 -110.5h-654zM371 195h411q153 0 216 64t63 177q0 115 -66 178.5t-182 63.5h-442v-483zM371 856h385q133 0 190.5 52t57.5 155 q0 98 -59 152.5t-173 54.5h-401v-414z" />
<glyph unicode="C" horiz-adv-x="1445" vert-adv-y="2457" d="M74 731q0 220 84 393t241 271t361 98q134 0 247.5 -41t192 -112.5t127.5 -166.5t62 -206h-236q-9 48 -24.5 90t-46.5 88t-72.5 78.5t-107 53.5t-146.5 21q-117 0 -205.5 -46.5t-140 -127.5t-76.5 -179t-25 -212q0 -91 15 -172t49.5 -154t85 -126t127 -84t170.5 -31 q82 0 148.5 21t110 56t74 83.5t45.5 99t19 106.5h236q-12 -122 -61 -225t-128 -177.5t-192.5 -116.5t-249.5 -42q-204 0 -360.5 98t-240 270.5t-83.5 391.5z" />
<glyph unicode="D" horiz-adv-x="1431" vert-adv-y="2457" d="M145 0v1464h557q307 0 479.5 -191t172.5 -542t-170 -541t-477 -190h-562zM371 195h321q428 0 428 536q0 539 -428 539h-321v-1075z" />
<glyph unicode="E" horiz-adv-x="1267" vert-adv-y="2457" d="M145 0v1464h1037v-194h-811v-416h710v-195h-710v-464h831v-195h-1057z" />
<glyph unicode="F" horiz-adv-x="1196" vert-adv-y="2457" d="M145 0v1464h1016v-194h-790v-441h639v-194h-639v-635h-226z" />
<glyph unicode="G" horiz-adv-x="1509" vert-adv-y="2457" d="M76 733q0 219 83.5 391.5t240.5 270.5t362 98q273 0 431.5 -130.5t195.5 -350.5h-236q-29 139 -130 212.5t-263 73.5q-117 0 -206 -49t-140.5 -131.5t-77 -180t-25.5 -204.5q0 -88 12 -165.5t43.5 -153t79.5 -129t125.5 -86.5t176.5 -33q120 0 219 51.5t157.5 146.5 t59.5 214h-432v188h661v-766h-156l-55 203h-4q-79 -116 -189.5 -174t-273.5 -58q-155 0 -280.5 57t-208 158.5t-126.5 241t-44 305.5z" />
<glyph unicode="H" horiz-adv-x="1460" vert-adv-y="0" d="M145 0v1464h226v-612h719v612h227v-1464h-227v657h-719v-657h-226z" />
<glyph unicode="I" horiz-adv-x="516" vert-adv-y="2457" d="M145 0v1464h226v-1464h-226z" />
<glyph unicode="J" horiz-adv-x="1060" vert-adv-y="2457" d="M37 457v59h217v-59q0 -56 4.5 -95.5t18 -79t37 -63.5t64.5 -38.5t97 -14.5q69 0 114.5 21t68.5 62.5t31.5 90t8.5 117.5v1007h226v-1007q0 -78 -12.5 -146t-44.5 -132t-81.5 -109t-127.5 -72t-179 -27t-178.5 27t-126.5 72t-80.5 109t-44 131.5t-12.5 146.5z" />
<glyph unicode="K" horiz-adv-x="1333" vert-adv-y="2457" d="M145 0v1464h226v-741l694 741h252l-574 -610l621 -854h-264l-496 705l-233 -248v-457h-226z" />
<glyph unicode="L" horiz-adv-x="1142" vert-adv-y="2457" d="M145 0v1464h226v-1269h741v-195h-967z" />
<glyph unicode="M" horiz-adv-x="1734" vert-adv-y="2457" d="M145 0v1464h297l422 -1151h4l424 1151h297v-1464h-221v1137h-4l-403 -1137h-187l-403 1137h-4v-1137h-222z" />
<glyph unicode="N" horiz-adv-x="1460" vert-adv-y="2457" d="M145 0v1464h258l680 -1126h4v1126h228v-1464h-258l-682 1126h-4v-1126h-226z" />
<glyph unicode="O" horiz-adv-x="1585" vert-adv-y="2457" d="M74 733q0 219 87.5 391.5t252 270.5t379.5 98t379 -98t251.5 -270.5t87.5 -391.5q0 -164 -51 -304.5t-143 -241.5t-227.5 -158.5t-296.5 -57.5q-215 0 -379.5 98.5t-252 271.5t-87.5 392zM309 733q0 -93 17 -175t54 -154.5t92.5 -125t137.5 -82.5t183 -30t183 30 t137 82.5t92.5 125t54 154.5t16.5 175q0 117 -27.5 216t-83.5 178.5t-151.5 125t-220.5 45.5t-220.5 -45.5t-152 -125t-84 -178.5t-27.5 -216z" />
<glyph unicode="P" horiz-adv-x="1277" vert-adv-y="2457" d="M145 0v1464h611q219 0 349 -108t130 -328t-130 -327t-349 -107h-385v-594h-226zM371 788h374q128 0 192 59t64 181q0 124 -63.5 183t-192.5 59h-374v-482z" />
<glyph unicode="Q" horiz-adv-x="1585" vert-adv-y="2457" d="M74 733q0 219 87.5 391.5t252 270.5t379.5 98t379 -98t251.5 -270.5t87.5 -391.5q0 -311 -168 -516l177 -176l-131 -133l-183 184q-175 -121 -413 -121q-215 0 -379.5 98.5t-252 271.5t-87.5 392zM309 733q0 -93 17 -175t54 -154.5t92.5 -125t137.5 -82.5t183 -30 q154 0 266 72l-191 192l131 133l189 -190q88 144 88 360q0 117 -27.5 216t-83.5 178.5t-151.5 125t-220.5 45.5t-220.5 -45.5t-152 -125t-84 -178.5t-27.5 -216z" />
<glyph unicode="R" horiz-adv-x="1343" vert-adv-y="2457" d="M145 0v1464h611q242 0 369.5 -109.5t127.5 -312.5q0 -137 -75.5 -233.5t-198.5 -124.5v-4q80 -15 134 -69.5t76 -125.5t34.5 -152t13.5 -149t10 -116t27 -54v-14h-242q-13 12 -17.5 51t-5.5 89.5t-3.5 110t-16.5 116t-39.5 103t-77 75t-124.5 28.5h-377v-573h-226z M371 768h336q155 0 237 66t82 192q0 122 -75 183t-240 61h-340v-502z" />
<glyph unicode="S" horiz-adv-x="1294" vert-adv-y="2457" d="M49 494h234q13 -156 111.5 -243t295.5 -87q307 0 307 235q0 52 -16.5 90.5t-43.5 64t-77 46.5t-102 35.5t-133 35.5q-24 6 -37 9q-62 16 -100 27.5t-94.5 32.5t-92 41t-76.5 52t-64.5 68t-39 85.5t-15.5 107.5q0 189 137 294t375 105q252 0 404.5 -122.5t169.5 -342.5 h-234q-19 136 -100 204t-237 68q-138 0 -208.5 -49.5t-70.5 -144.5q0 -26 6 -49t14 -41t25.5 -34.5t31.5 -28t41 -23.5t45 -19.5t53 -17.5t54.5 -15t59.5 -15l12 -3q216 -55 305 -95q174 -78 223 -217q21 -61 21 -136q0 -198 -136 -319.5t-401 -121.5q-282 0 -458.5 139.5 t-188.5 383.5z" />
<glyph unicode="T" horiz-adv-x="1234" vert-adv-y="2457" d="M31 1270v194h1173v-194h-473v-1270h-227v1270h-473z" />
<glyph unicode="U" horiz-adv-x="1415" vert-adv-y="2457" d="M135 498v966h225v-966q0 -169 86.5 -250.5t260.5 -81.5q175 0 260.5 81t85.5 251v966h227v-966q0 -247 -141 -387t-432 -140q-290 0 -431 140t-141 387z" />
<glyph unicode="V" horiz-adv-x="1298" vert-adv-y="2457" d="M14 1464h248l389 -1226h2l387 1226h238l-504 -1464h-244z" />
<glyph unicode="W" horiz-adv-x="1898" vert-adv-y="2457" d="M29 1464h235l258 -1153h4l303 1153h238l305 -1153h4l258 1153h236l-367 -1464h-241l-312 1178h-4l-309 -1178h-244z" />
<glyph unicode="X" horiz-adv-x="1230" vert-adv-y="0" d="M-8 0l495 748l-460 716h249l340 -553h2l343 553h247l-460 -712l485 -752h-262l-359 584h-2l-354 -584h-264z" />
<glyph unicode="Y" horiz-adv-x="1304" vert-adv-y="2457" d="M14 1464h244l393 -700h4l394 700h241l-524 -878v-586h-227v586z" />
<glyph unicode="Z" horiz-adv-x="1239" vert-adv-y="2457" d="M45 0v195l842 1071v4h-801v194h1077v-194l-841 -1071v-4h862v-195h-1139z" />
<glyph unicode="[" horiz-adv-x="618" vert-adv-y="2457" d="M133 -250v1802h442v-190h-221v-1421h221v-191h-442z" />
<glyph unicode="\" horiz-adv-x="804" vert-adv-y="2457" d="M27 1464h186l567 -1464h-186z" />
<glyph unicode="]" horiz-adv-x="618" vert-adv-y="2457" d="M43 -59h221v1421h-221v190h442v-1802h-442v191z" />
<glyph unicode="^" horiz-adv-x="974" vert-adv-y="2457" d="M41 901l356 563h183l354 -563h-211l-236 383h-2l-231 -383h-213z" />
<glyph unicode="_" horiz-adv-x="1169" vert-adv-y="2457" d="M51 -121h1065v-190h-1065v190z" />
<glyph unicode="`" horiz-adv-x="485" vert-adv-y="2457" d="M74 1485h225l104 -283h-157z" />
<glyph unicode="a" vert-adv-y="2457" d="M59 270q0 68 21.5 121.5t57 89.5t93.5 64t119 45t146 33q52 10 78 15.5t62.5 15t54 19.5t36.5 24.5t26 34t7 44.5q0 139 -199 139q-133 0 -186.5 -44.5t-61.5 -151.5h-204q8 162 120.5 260t339.5 98q84 0 151.5 -19t122 -59.5t84 -112t29.5 -169.5v-479q0 -60 11 -87.5 t39 -27.5q12 0 24 2v-123q-52 -12 -102 -12q-78 0 -117.5 35t-48.5 122h-4q-110 -176 -357 -176q-156 0 -249 82.5t-93 216.5zM268 285q0 -152 178 -152q140 0 227 71.5t87 203.5v149q-36 -34 -230 -76q-141 -28 -201.5 -72t-60.5 -124z" />
<glyph unicode="b" horiz-adv-x="1167" vert-adv-y="2457" d="M113 0v1464h200v-542h4q118 153 322 153t336.5 -150t132.5 -403t-132.5 -402t-336.5 -149q-215 0 -322 158h-4v-129h-200zM315 522q0 -177 78 -281t213 -104q95 0 162 54.5t98 139.5t31 191t-31 191t-98 139.5t-162 54.5q-135 0 -213 -103t-78 -282z" />
<glyph unicode="c" vert-adv-y="2457" d="M57 522q0 247 140.5 400t371.5 153q197 0 324.5 -114t146.5 -295h-206q-3 35 -12.5 67.5t-30 65t-49 56.5t-72.5 39t-99 15q-80 0 -141 -32t-95.5 -88t-51.5 -123t-17 -144t17 -143.5t51.5 -122t95 -87.5t141.5 -32q69 0 120.5 21.5t80.5 59.5t43.5 79t18.5 90h206 q-11 -182 -140.5 -300t-328.5 -118q-232 0 -373 153t-141 400z" />
<glyph unicode="d" horiz-adv-x="1167" vert-adv-y="2457" d="M59 522q0 253 132.5 403t336.5 150q213 0 322 -157h4v546h201v-1464h-201v123h-4q-117 -152 -322 -152q-204 0 -336.5 149t-132.5 402zM268 522q0 -106 31.5 -191t99 -139.5t162.5 -54.5q135 0 213 104t78 281q0 179 -78 282t-213 103q-95 0 -162.5 -54.5t-99 -139.5 t-31.5 -191z" />
<glyph unicode="e" horiz-adv-x="1128" vert-adv-y="2457" d="M59 524q0 249 139.5 401t376.5 152q235 0 365.5 -143t130.5 -389q0 -60 -2 -76h-803q2 -90 36 -164.5t106.5 -123t171.5 -48.5q65 0 117 19t83 50t48.5 60.5t25.5 59.5h205q-44 -160 -166 -256.5t-318 -96.5q-162 0 -280 72.5t-177 197t-59 285.5zM266 627h596 q0 125 -80.5 205.5t-212.5 80.5q-126 0 -210 -78.5t-93 -207.5z" />
<glyph unicode="f" horiz-adv-x="598" vert-adv-y="2457" d="M43 879v165h143v127q0 173 67.5 240.5t203.5 67.5q34 0 127 -13v-161q-61 6 -86 6q-64 0 -86.5 -26.5t-22.5 -108.5v-132h195v-165h-195v-879h-203v879h-143z" />
<glyph unicode="g" horiz-adv-x="1161" vert-adv-y="2457" d="M63 563q0 123 35.5 221t98 161.5t146 96.5t181.5 33q204 0 322 -153h4v122h201v-962q0 -230 -129 -343.5t-361 -113.5q-215 0 -334 91.5t-135 240.5h209q36 -168 260 -168q145 0 217 68t72 213v141h-4q-107 -158 -322 -158q-203 0 -332 134t-129 376zM272 563 q0 -155 73.5 -249.5t215.5 -94.5q137 0 212 88t75 256q0 169 -75 256.5t-212 87.5q-142 0 -215.5 -94.5t-73.5 -249.5z" />
<glyph unicode="h" horiz-adv-x="1114" vert-adv-y="2457" d="M113 0v1464h200v-551h4q48 69 134.5 115.5t210.5 46.5q153 0 250.5 -89t97.5 -261v-725h-201v670q0 110 -51.5 171.5t-161.5 61.5q-129 0 -206 -71.5t-77 -190.5v-641h-200z" />
<glyph unicode="i" horiz-adv-x="425" vert-adv-y="2457" d="M100 1231v217h228v-217h-228zM113 0v1044h200v-1044h-200z" />
<glyph unicode="j" horiz-adv-x="425" vert-adv-y="2457" d="M-61 -193q49 -6 79 -6q49 0 72 33.5t23 118.5v1091h200v-1099q0 -161 -67 -238.5t-183 -77.5q-41 0 -124 13v165zM100 1231v217h228v-217h-228z" />
<glyph unicode="k" horiz-adv-x="1013" vert-adv-y="2457" d="M113 0v1464h200v-862l457 442h231l-401 -382l444 -662h-237l-342 535l-152 -146v-389h-200z" />
<glyph unicode="l" horiz-adv-x="425" vert-adv-y="2457" d="M113 0v1464h200v-1464h-200z" />
<glyph unicode="m" horiz-adv-x="1673" vert-adv-y="2457" d="M113 0v1044h200v-131h4q111 162 310 162q212 0 276 -182h4q138 182 342 182q157 0 237.5 -90.5t80.5 -259.5v-725h-201v670q0 117 -37.5 175t-144.5 58q-112 0 -178 -71.5t-66 -190.5v-641h-201v670q0 117 -37.5 175t-144.5 58q-112 0 -178 -71.5t-66 -190.5v-641h-200z " />
<glyph unicode="n" horiz-adv-x="1114" vert-adv-y="2457" d="M113 0v1044h200v-131h4q48 69 134.5 115.5t210.5 46.5q153 0 250.5 -89t97.5 -261v-725h-201v670q0 110 -51.5 171.5t-161.5 61.5q-129 0 -206 -71.5t-77 -190.5v-641h-200z" />
<glyph unicode="o" horiz-adv-x="1159" vert-adv-y="2457" d="M57 522q0 248 141 401.5t384 153.5q240 0 380 -152.5t140 -400.5q0 -249 -140.5 -402t-381.5 -153q-242 0 -382.5 152t-140.5 401zM266 522q0 -172 80 -279.5t236 -107.5q153 0 232 107.5t79 279.5q0 173 -79 280t-232 107q-156 0 -236 -107t-80 -280z" />
<glyph unicode="p" horiz-adv-x="1167" vert-adv-y="2457" d="M113 -362v1406h200v-122h4q118 153 322 153t336.5 -150t132.5 -403t-132.5 -402t-336.5 -149q-215 0 -322 158h-4v-491h-200zM315 522q0 -177 78 -281t213 -104q95 0 162 54.5t98 139.5t31 191t-31 191t-98 139.5t-162 54.5q-135 0 -213 -103t-78 -282z" />
<glyph unicode="q" horiz-adv-x="1165" vert-adv-y="2457" d="M59 522q0 253 132.5 403t336.5 150q213 0 322 -157h4v126h201v-1406h-201v485h-4q-117 -152 -322 -152q-204 0 -336.5 149t-132.5 402zM268 522q0 -106 31.5 -191t99 -139.5t162.5 -54.5q135 0 213 104t78 281q0 179 -78 282t-213 103q-95 0 -162.5 -54.5t-99 -139.5 t-31.5 -191z" />
<glyph unicode="r" horiz-adv-x="712" vert-adv-y="2457" d="M113 0v1044h200v-198h4q94 223 281 223q50 0 96 -6v-193q-44 7 -67 7q-137 0 -225.5 -93.5t-88.5 -242.5v-541h-200z" />
<glyph unicode="s" horiz-adv-x="999" vert-adv-y="2457" d="M43 348h203q7 -99 72.5 -157t203.5 -58q121 0 172 44t51 110q0 19 -4.5 36t-10.5 29.5t-19 24t-23.5 19.5t-29.5 16t-32 13t-36.5 10.5t-37.5 8.5t-41 8.5t-40 8.5q-50 12 -80 19.5t-76.5 23t-75 30.5t-62 39t-52.5 51.5t-32 66t-13 83.5q0 137 105.5 219t291.5 82 q204 0 315.5 -94.5t122.5 -239.5h-202q-6 34 -18.5 61t-37 54t-69.5 42t-107 15q-98 0 -145 -35t-47 -96q0 -20 6 -36.5t14 -28.5t25.5 -22.5t30.5 -16.5t40.5 -13.5t44 -11t51 -11t52.5 -11.5q51 -12 84 -20.5t79.5 -24.5t76.5 -32t63.5 -41.5t52.5 -55t32 -70.5t13 -90 q0 -153 -113 -239.5t-317 -86.5q-229 0 -352.5 105t-128.5 272z" />
<glyph unicode="t" horiz-adv-x="636" vert-adv-y="2457" d="M29 879v165h151v336h201v-336h201v-165h-201v-590q0 -81 25 -108t92 -27q39 0 86 8v-162q-61 -12 -127 -12q-139 0 -208 67.5t-69 239.5v584h-151z" />
<glyph unicode="u" horiz-adv-x="1114" vert-adv-y="2457" d="M104 322v722h201v-667q0 -111 51.5 -173.5t161.5 -62.5q129 0 206 71.5t77 190.5v641h200v-1044h-200v131h-4q-47 -69 -133 -114.5t-211 -45.5q-153 0 -251 89.5t-98 261.5z" />
<glyph unicode="v" horiz-adv-x="999" vert-adv-y="2457" d="M14 1044h215l275 -837h2l270 837h209l-373 -1044h-225z" />
<glyph unicode="w" horiz-adv-x="1552" vert-adv-y="2457" d="M18 1044h218l221 -808h4l217 808h203l217 -808h4l223 808h209l-324 -1044h-206l-226 805h-4l-225 -805h-207z" />
<glyph unicode="x" horiz-adv-x="997" vert-adv-y="0" d="M-16 0l393 535l-359 509h230l250 -372h4l246 372h229l-359 -509l398 -535h-236l-282 399h-4l-277 -399h-233z" />
<glyph unicode="y" horiz-adv-x="1034" vert-adv-y="2457" d="M-2 1044h219l305 -798h4l287 798h211l-414 -1069q-74 -190 -156 -266t-206 -76q-50 0 -129 15v164q61 -7 86 -7q71 0 129 46.5t86 158.5z" />
<glyph unicode="z" horiz-adv-x="946" vert-adv-y="2457" d="M39 0v150l571 724v5h-534v165h807v-129l-586 -745v-4h608v-166h-866z" />
<glyph unicode="{" horiz-adv-x="638" vert-adv-y="2457" d="M49 557v191q72 -1 98.5 44.5t26.5 133.5v229q0 102 15.5 173t43 115t76.5 68t103.5 32.5t136.5 8.5h43v-190h-43q-76 0 -115 -42.5t-39 -148.5v-299q0 -84 -32.5 -135t-94.5 -84v-4q63 -33 95 -84.5t32 -136.5v-289q0 -112 38.5 -155t115.5 -43h43v-191h-43 q-81 0 -136.5 9t-103.5 34.5t-76 71t-43.5 117.5t-15.5 174v221q0 87 -26.5 133.5t-98.5 46.5z" />
<glyph unicode="|" horiz-adv-x="452" vert-adv-y="2457" d="M145 -266v1794h162v-1794h-162z" />
<glyph unicode="}" horiz-adv-x="638" vert-adv-y="2457" d="M47 -59h43q76 0 115 42t39 148v301q0 83 32 134.5t93 84.5v4q-61 33 -93 85t-32 137v286q0 112 -39 155.5t-115 43.5h-43v190h43q81 0 136.5 -9t103.5 -34.5t76 -70.5t43.5 -117t15.5 -174v-219q0 -87 26 -133.5t97 -46.5v-191q-71 1 -97 -44.5t-26 -133.5v-232 q0 -102 -15.5 -173t-43 -115t-76.5 -68t-103.5 -32.5t-136.5 -8.5h-43v191z" />
<glyph unicode="~" horiz-adv-x="905" vert-adv-y="2457" d="M106 539q0 123 51.5 195.5t145.5 72.5q54 0 104 -22.5t89.5 -45t68.5 -22.5q43 0 61.5 27.5t18.5 62.5h156q0 -123 -51.5 -195.5t-143.5 -72.5q-54 0 -104 22t-90.5 44t-69.5 22q-41 0 -59.5 -27t-18.5 -61h-158z" />
<glyph unicode="&#xa0;" horiz-adv-x="428" vert-adv-y="2457" />
<glyph unicode="&#xa1;" horiz-adv-x="454" vert-adv-y="2457" d="M115 975v223h223v-223h-223zM117 131l51 668h117l53 -668v-397h-221v397z" />
<glyph unicode="&#xa2;" horiz-adv-x="1155" vert-adv-y="2457" d="M94 739q0 228 121.5 377.5t325.5 171.5v158h127v-158q172 -19 282 -129.5t127 -275.5h-207q-7 85 -55.5 152.5t-146.5 86.5v-764q69 12 114.5 52t64.5 88t23 106h207q-9 -167 -121 -282t-288 -134v-178h-127v180q-204 23 -325.5 172.5t-121.5 376.5zM303 739 q0 -144 58.5 -249t179.5 -130v760q-121 -25 -179.5 -130.5t-58.5 -250.5z" />
<glyph unicode="&#xa3;" horiz-adv-x="1200" vert-adv-y="2457" d="M78 162q86 56 136 159t50 230v8h-166v168h119q-2 5 -13.5 29.5t-15 32.5t-13.5 31t-13.5 35t-10 35t-9 41t-5 41.5t-2.5 47.5q0 54 15 109t51 110.5t89.5 97.5t137.5 68.5t188 26.5q127 0 222.5 -36.5t152.5 -103.5t85 -154.5t28 -195.5h-221q0 299 -265 299 q-126 0 -194 -65.5t-68 -174.5q0 -39 9.5 -80t18.5 -63.5t30.5 -69.5t27.5 -61h322v-168h-279v-10q0 -105 -41.5 -192.5t-115.5 -145.5l2 -4q3 2 27.5 14.5t35.5 17t34 13t45.5 11.5t47.5 3q59 0 113 -21.5t103.5 -43t99.5 -21.5q65 0 114 21.5t109 66.5l90 -174 q-78 -61 -142 -92t-153 -31q-64 0 -124.5 19t-100 42.5t-91 42.5t-98.5 19q-61 0 -116 -21t-136 -73z" />
<glyph unicode="&#xa4;" horiz-adv-x="1091" vert-adv-y="2457" d="M78 346l129 129q-64 103 -64 232q0 133 66 231l-131 131l106 107l129 -129q104 69 234 69q127 0 231 -69l127 127l109 -107l-129 -129q63 -99 63 -231q0 -131 -63 -230l129 -129l-107 -108l-129 129q-104 -72 -231 -72q-130 0 -234 72l-129 -129zM326 707q0 -124 60 -190 t161 -66q100 0 159.5 66t59.5 190t-59.5 191t-159.5 67q-101 0 -161 -67t-60 -191z" />
<glyph unicode="&#xa5;" horiz-adv-x="1249" vert-adv-y="2457" d="M47 1405h242l334 -649h4l334 649h241l-436 -780h324v-125h-355v-119h355v-125h-355v-256h-221v256h-354v125h354v119h-354v125h323z" />
<glyph unicode="&#xa6;" horiz-adv-x="452" vert-adv-y="2457" d="M145 -266v768h162v-768h-162zM145 786v742h162v-742h-162z" />
<glyph unicode="&#xa7;" horiz-adv-x="1239" vert-adv-y="2457" d="M86 647q0 105 56 175t155 100q-88 95 -88 225q0 147 104 239.5t301 92.5q105 0 185.5 -28t129.5 -78.5t74.5 -113t28.5 -137.5h-201q-3 33 -7 54t-17.5 51t-35 47t-62 30t-95.5 13q-202 0 -202 -150q0 -23 3.5 -43t13.5 -38l17.5 -31.5t26.5 -29.5t28 -24.5t35.5 -24 t35.5 -20.5t41 -22t40 -21l109 -57q173 -94 228 -133q126 -89 152 -198q9 -35 9 -74q0 -105 -55 -175t-154 -100q86 -92 86 -225q0 -146 -103 -239t-300 -93q-105 0 -185.5 28t-129.5 78t-74.5 113.5t-28.5 138.5h201q4 -196 217 -196q202 0 202 149q0 19 -4 37t-8 32 t-16.5 29.5t-18.5 25t-25.5 24.5t-26.5 21t-32.5 21.5t-32 19.5t-36.5 20.5t-35 19.5l-107 62q-21 12 -63 35.5t-62.5 35t-56 32.5t-53.5 34.5t-45.5 35t-41.5 38t-31.5 40t-25.5 46.5t-14 50.5t-6 57.5zM287 678q0 -27 8 -50.5t30.5 -47.5t43 -42t63.5 -44.5t74 -44 t92 -50.5l125 -67q32 -17 80 -45q75 7 111 44t36 89q0 40 -20.5 75t-66 70.5t-91.5 63.5t-123 69l-125 68l-82 45q-78 -6 -116.5 -43.5t-38.5 -89.5z" />
<glyph unicode="&#xa8;" horiz-adv-x="755" vert-adv-y="2457" d="M86 1231v219h227v-219h-227zM430 1231v219h227v-219h-227z" />
<glyph unicode="&#xa9;" horiz-adv-x="1726" vert-adv-y="2457" d="M96 731q0 351 208 556.5t560 205.5t558 -205t206 -557q0 -350 -206 -555t-558 -205t-560 205t-208 555zM256 731q0 -290 163.5 -458.5t444.5 -168.5q280 0 443 168.5t163 458.5t-163 459.5t-443 169.5q-281 0 -444.5 -169.5t-163.5 -459.5zM444 731q0 205 112 333 t308 128q172 0 279 -95t123 -239h-172q-3 19 -9.5 39t-23.5 45.5t-40 45t-62.5 33t-88.5 13.5q-247 0 -247 -303q0 -64 12.5 -116t39.5 -95t76.5 -66.5t118.5 -23.5q61 0 106 18.5t68.5 48.5t34.5 57t15 54h172q-9 -145 -112.5 -240.5t-272.5 -95.5q-203 0 -320 126.5 t-117 332.5z" />
<glyph unicode="&#xaa;" horiz-adv-x="905" vert-adv-y="2457" d="M61 854q0 62 24.5 107.5t72.5 75t102.5 47.5t132.5 32q115 23 148 40q56 29 57 87q0 44 -34 71t-111 27q-88 0 -127.5 -37t-44.5 -112h-185q5 127 96.5 207t270.5 80q313 0 313 -295v-363q0 -38 8.5 -55.5t32.5 -17.5h21v-109q-55 -14 -99 -14q-67 0 -99 30t-40 93h-6 q-40 -61 -110.5 -98.5t-159.5 -37.5q-120 0 -191.5 66t-71.5 176zM254 864q0 -104 131 -104q95 0 154 53.5t59 144.5v103q-33 -31 -168 -60q-176 -37 -176 -137z" />
<glyph unicode="&#xab;" horiz-adv-x="960" vert-adv-y="2457" d="M88 412v223l404 328v-215l-295 -224v-4l295 -223v-213zM457 412v223l403 328v-215l-295 -224v-4l295 -223v-213z" />
<glyph unicode="&#xac;" horiz-adv-x="1054" vert-adv-y="2457" d="M80 639v190h854v-538h-217v348h-637z" />
<glyph unicode="&#xad;" horiz-adv-x="720" vert-adv-y="2457" d="M86 426v190h549v-190h-549z" />
<glyph unicode="&#xae;" horiz-adv-x="1167" vert-adv-y="2457" d="M96 1001q0 212 141.5 354t346.5 142t346 -142t141 -354t-141 -353.5t-346 -141.5q-206 0 -347 141.5t-141 353.5zM193 1001q0 -179 111 -295t280 -116t280 116t111 295t-111 295.5t-280 116.5t-280 -116.5t-111 -295.5zM379 731v545h227q95 0 145 -41.5t50 -118.5 q0 -55 -30.5 -90t-84.5 -47v-2q47 -8 73 -46t30.5 -79t9 -76.5t14.5 -38.5v-6h-139q-8 7 -11 40l-6 66t-25.5 60t-66.5 27h-51v-193h-135zM514 1032h55q103 0 103 72q0 41 -27.5 55.5t-75.5 14.5h-55v-142z" />
<glyph unicode="&#xaf;" horiz-adv-x="704" vert-adv-y="2457" d="M82 1231v158h541v-158h-541z" />
<glyph unicode="&#xb0;" horiz-adv-x="786" vert-adv-y="2457" d="M76 1186q0 55 20 108.5t58 98.5t100 72.5t139 27.5q76 0 138 -27.5t100 -72.5t58 -98.5t20 -108.5q0 -56 -20 -110t-58 -99t-100 -72.5t-138 -27.5q-77 0 -139 27.5t-100 72.5t-58 99t-20 110zM219 1186q0 -79 48.5 -128.5t125.5 -49.5t124.5 49.5t47.5 128.5 q0 78 -48 127t-124 49q-77 0 -125.5 -49t-48.5 -127z" />
<glyph unicode="&#xb1;" horiz-adv-x="1140" vert-adv-y="2457" d="M98 -12v190h944v-190h-944zM98 631v190h377v389h191v-389h376v-190h-376v-389h-191v389h-377z" />
<glyph unicode="&#xb2;" horiz-adv-x="729" vert-adv-y="2457" d="M41 743q0 74 23.5 131t63.5 99.5t112 95.5q23 17 59.5 41.5t58.5 39.5t49 37.5t42 42.5t25.5 46.5t10.5 56.5q0 51 -27 83t-85 32q-140 0 -140 -174h-176q0 143 82 232t240 89q133 0 212 -65.5t79 -183.5q0 -46 -14 -88t-32 -70.5t-54 -62.5t-59.5 -51.5t-68.5 -49.5 q-43 -30 -61.5 -44t-44.5 -39t-39 -48v-2h369v-148h-625z" />
<glyph unicode="&#xb3;" horiz-adv-x="763" vert-adv-y="2457" d="M43 1049h178q0 -80 37 -121t123 -41q141 0 141 114q0 121 -153 121h-56v131h52q133 0 133 103q0 106 -117 106q-137 0 -137 -127h-176q0 122 85 198.5t238 76.5q122 0 206.5 -63t84.5 -169q0 -120 -123 -180v-2q150 -47 150 -203q0 -120 -86.5 -187t-229.5 -67 q-168 0 -259 81t-91 229z" />
<glyph unicode="&#xb4;" horiz-adv-x="485" vert-adv-y="2457" d="M66 1202l120 283h236l-197 -283h-159z" />
<glyph unicode="&#xb5;" horiz-adv-x="1163" vert-adv-y="2457" d="M133 -362v1406h201v-667q0 -236 217 -236q125 0 201.5 72t76.5 190v641h201v-1044h-201v131h-4q-43 -68 -123 -113t-184 -45q-110 0 -184 56v-391h-201z" />
<glyph unicode="&#xb6;" horiz-adv-x="1148" vert-adv-y="2457" d="M37 1069q0 187 102.5 291t296.5 104h561v-1464h-157v1296h-154v-1296h-156v686h-94q-195 0 -297 98.5t-102 284.5z" />
<glyph unicode="&#xb7;" horiz-adv-x="425" vert-adv-y="2457" d="M102 401v224h224v-224h-224z" />
<glyph unicode="&#xb8;" horiz-adv-x="610" vert-adv-y="2457" d="M88 -342l47 57q75 -30 139 -30q49 0 75 19t26 52q0 62 -78 62q-45 0 -82 -15l-31 45l127 152h113l-92 -109v-4q48 6 92 -3.5t77.5 -43t33.5 -86.5q0 -79 -65.5 -119.5t-160.5 -40.5q-120 0 -221 64z" />
<glyph unicode="&#xb9;" horiz-adv-x="481" vert-adv-y="2457" d="M27 1290v142q99 2 153.5 38t55.5 107h151v-832h-184v574q-41 -29 -176 -29z" />
<glyph unicode="&#xba;" horiz-adv-x="937" vert-adv-y="2457" d="M55 1047q0 193 112.5 312.5t303.5 119.5q190 0 301 -119.5t111 -312.5q0 -194 -111.5 -314.5t-302.5 -120.5q-190 0 -302 120.5t-112 314.5zM244 1047q0 -128 56.5 -205.5t168.5 -77.5t168.5 77.5t56.5 205.5q0 126 -57 203t-168 77q-112 0 -168.5 -76.5t-56.5 -203.5z " />
<glyph unicode="&#xbb;" horiz-adv-x="960" vert-adv-y="2457" d="M102 84v215l293 223v4l-293 222v215l402 -328v-223zM471 84v215l293 223v4l-293 222v215l401 -328v-223z" />
<glyph unicode="&#xbc;" horiz-adv-x="1550" vert-adv-y="2457" d="M33 1178v141q99 2 153.5 38t55.5 107h151v-831h-184v573q-39 -28 -176 -28zM139 0l928 1464h211l-928 -1464h-211zM836 180v174l383 477h182v-503h119v-148h-119v-180h-182v180h-383zM979 328h240v299z" />
<glyph unicode="&#xbd;" horiz-adv-x="1650" vert-adv-y="2457" d="M35 1178v141q99 2 153.5 38t55.5 107h151v-831h-184v573q-39 -28 -176 -28zM145 0l928 1464h211l-928 -1464h-211zM956 0q0 74 23.5 131t63.5 99.5t112 95.5q24 17 70.5 48t70 49t52 45t41 57t12.5 65q0 51 -27.5 83t-85.5 32q-139 0 -139 -175h-176q0 144 81.5 233 t239.5 89q133 0 212 -66t79 -184q0 -46 -14 -88t-32 -70.5t-53.5 -62t-59 -51t-68.5 -49.5t-62 -44.5t-44 -38t-40 -48.5v-3h369v-147h-625z" />
<glyph unicode="&#xbe;" horiz-adv-x="1861" vert-adv-y="2457" d="M59 926h179q0 -80 36.5 -121t122.5 -41q142 0 142 115q0 120 -154 120h-55v131h51q133 0 133 103q0 106 -117 106q-137 0 -137 -127h-176q0 122 85.5 198.5t238.5 76.5q122 0 206 -63t84 -169q0 -120 -123 -180v-2q150 -47 150 -203q0 -121 -86 -187.5t-229 -66.5 q-168 0 -259.5 81t-91.5 229zM440 0l928 1464h211l-928 -1464h-211zM1137 180v174l383 477h182v-503h119v-148h-119v-180h-182v180h-383zM1280 328h240v299z" />
<glyph unicode="&#xbf;" horiz-adv-x="1028" vert-adv-y="2457" d="M37 90q0 49 12 92t28.5 74t48.5 64t58 54t70 54q91 67 112 88q77 73 95 188q6 42 6 95h205q0 -65 -7.5 -118t-25 -95.5t-34.5 -73.5t-49 -63t-54.5 -51.5t-63.5 -51.5q-93 -72 -118 -99q-62 -66 -62 -157t61 -143.5t173 -52.5q129 0 205.5 76t76.5 241h221 q0 -148 -55 -261t-169.5 -180t-276.5 -67q-205 0 -331 107.5t-126 279.5zM453 975v223h223v-223h-223z" />
<glyph unicode="&#xc0;" horiz-adv-x="1351" vert-adv-y="2457" d="M8 0l545 1464h244l549 -1464h-246l-121 352h-612l-121 -352h-238zM416 1905h225l104 -283h-157zM434 543h481l-239 712h-4z" />
<glyph unicode="&#xc1;" horiz-adv-x="1351" vert-adv-y="2457" d="M8 0l545 1464h244l549 -1464h-246l-121 352h-612l-121 -352h-238zM434 543h481l-239 712h-4zM578 1622l120 283h236l-197 -283h-159z" />
<glyph unicode="&#xc2;" horiz-adv-x="1351" vert-adv-y="2457" d="M8 0l545 1464h244l549 -1464h-246l-121 352h-612l-121 -352h-238zM371 1622l194 283h217l195 -283h-193l-108 182h-4l-111 -182h-190zM434 543h481l-239 712h-4z" />
<glyph unicode="&#xc3;" horiz-adv-x="1351" vert-adv-y="2457" d="M8 0l545 1464h244l549 -1464h-246l-121 352h-612l-121 -352h-238zM369 1634q0 109 44.5 163t112.5 54q57 0 145 -37.5t113 -37.5q52 0 52 71h135q0 -111 -44.5 -164t-113.5 -53q-56 0 -144 38t-112 38q-53 0 -53 -72h-135zM434 543h481l-239 712h-4z" />
<glyph unicode="&#xc4;" horiz-adv-x="1351" vert-adv-y="2457" d="M8 0l545 1464h244l549 -1464h-246l-121 352h-612l-121 -352h-238zM389 1651v217h227v-217h-227zM434 543h481l-239 712h-4zM733 1651v217h228v-217h-228z" />
<glyph unicode="&#xc5;" horiz-adv-x="1351" vert-adv-y="2457" d="M8 0l545 1464h244l549 -1464h-246l-121 352h-612l-121 -352h-238zM434 543h481l-239 712h-4zM483 1745q0 83 54 135.5t135 52.5q84 0 137 -52t53 -136t-53 -136.5t-137 -52.5q-81 0 -135 52.5t-54 136.5zM580 1745q0 -44 26 -71t66 -27q43 0 69.5 27t26.5 71 q0 43 -26.5 70.5t-69.5 27.5q-40 0 -66 -27.5t-26 -70.5z" />
<glyph unicode="&#xc6;" horiz-adv-x="2007" vert-adv-y="2457" d="M8 0l543 1464h1370v-194h-811v-416h711v-195h-711v-464h832v-195h-1057v352h-525l-120 -352h-232zM428 543h455v721h-211z" />
<glyph unicode="&#xc7;" horiz-adv-x="1445" vert-adv-y="2457" d="M74 731q0 220 84 393t241 271t361 98q134 0 247.5 -41t192 -112.5t127.5 -166.5t62 -206h-236q-9 48 -24.5 90t-46.5 88t-72.5 78.5t-107 53.5t-146.5 21q-117 0 -205.5 -46.5t-140 -127.5t-76.5 -179t-25 -212q0 -91 15 -172t49.5 -154t85 -126t127 -84t170.5 -31 q82 0 148.5 21t110 56t74 83.5t45.5 99t19 106.5h236q-24 -239 -178 -392.5t-404 -166.5l-70 -82v-4q48 6 92 -3.5t77.5 -43t33.5 -86.5q0 -54 -33 -91t-82.5 -53t-109.5 -16q-120 0 -221 64l47 57q75 -30 139 -30q49 0 74.5 19t25.5 52q0 62 -78 62q-44 0 -81 -15l-31 45 l104 125q-187 15 -328 116t-216.5 267.5t-75.5 374.5z" />
<glyph unicode="&#xc8;" horiz-adv-x="1267" vert-adv-y="2457" d="M145 0v1464h1037v-194h-811v-416h710v-195h-710v-464h831v-195h-1057zM410 1905h225l104 -283h-157z" />
<glyph unicode="&#xc9;" horiz-adv-x="1267" vert-adv-y="2457" d="M145 0v1464h1037v-194h-811v-416h710v-195h-710v-464h831v-195h-1057zM569 1622l121 283h236l-197 -283h-160z" />
<glyph unicode="&#xca;" horiz-adv-x="1267" vert-adv-y="2457" d="M145 0v1464h1037v-194h-811v-416h710v-195h-710v-464h831v-195h-1057zM365 1622l194 283h217l195 -283h-193l-108 182h-4l-111 -182h-190z" />
<glyph unicode="&#xcb;" horiz-adv-x="1267" vert-adv-y="2457" d="M145 0v1464h1037v-194h-811v-416h710v-195h-710v-464h831v-195h-1057zM381 1651v217h227v-217h-227zM725 1651v217h227v-217h-227z" />
<glyph unicode="&#xcc;" horiz-adv-x="516" vert-adv-y="2457" d="M0 1905h225l105 -283h-158zM145 0v1464h226v-1464h-226z" />
<glyph unicode="&#xcd;" horiz-adv-x="516" vert-adv-y="2457" d="M145 0v1464h226v-1464h-226zM162 1622l121 283h235l-196 -283h-160z" />
<glyph unicode="&#xce;" horiz-adv-x="516" vert-adv-y="2457" d="M-45 1622l195 283h217l194 -283h-192l-109 182h-4l-111 -182h-190zM145 0v1464h226v-1464h-226z" />
<glyph unicode="&#xcf;" horiz-adv-x="516" vert-adv-y="2457" d="M-29 1651v217h228v-217h-228zM145 0v1464h226v-1464h-226zM315 1651v217h228v-217h-228z" />
<glyph unicode="&#xd0;" horiz-adv-x="1482" vert-adv-y="2457" d="M25 682v152h170v630h557q307 0 479 -191t172 -542t-170 -541t-477 -190h-561v682h-170zM420 195h321q428 0 428 536q0 539 -428 539h-321v-436h395v-152h-395v-487z" />
<glyph unicode="&#xd1;" horiz-adv-x="1460" vert-adv-y="2457" d="M145 0v1464h258l680 -1126h4v1126h228v-1464h-258l-682 1126h-4v-1126h-226zM426 1634q0 109 45 163t113 54q57 0 145 -37.5t113 -37.5q51 0 51 71h135q0 -111 -44.5 -164t-113.5 -53q-56 0 -144 38t-112 38q-53 0 -53 -72h-135z" />
<glyph unicode="&#xd2;" horiz-adv-x="1585" vert-adv-y="2457" d="M74 733q0 219 87.5 391.5t252 270.5t379.5 98t379 -98t251.5 -270.5t87.5 -391.5q0 -164 -51 -304.5t-143 -241.5t-227.5 -158.5t-296.5 -57.5q-215 0 -379.5 98.5t-252 271.5t-87.5 392zM309 733q0 -93 17 -175t54 -154.5t92.5 -125t137.5 -82.5t183 -30t183 30 t137 82.5t92.5 125t54 154.5t16.5 175q0 117 -27.5 216t-83.5 178.5t-151.5 125t-220.5 45.5t-220.5 -45.5t-152 -125t-84 -178.5t-27.5 -216zM535 1905h225l104 -283h-157z" />
<glyph unicode="&#xd3;" horiz-adv-x="1585" vert-adv-y="2457" d="M74 733q0 219 87.5 391.5t252 270.5t379.5 98t379 -98t251.5 -270.5t87.5 -391.5q0 -164 -51 -304.5t-143 -241.5t-227.5 -158.5t-296.5 -57.5q-215 0 -379.5 98.5t-252 271.5t-87.5 392zM309 733q0 -93 17 -175t54 -154.5t92.5 -125t137.5 -82.5t183 -30t183 30 t137 82.5t92.5 125t54 154.5t16.5 175q0 117 -27.5 216t-83.5 178.5t-151.5 125t-220.5 45.5t-220.5 -45.5t-152 -125t-84 -178.5t-27.5 -216zM696 1622l121 283h236l-197 -283h-160z" />
<glyph unicode="&#xd4;" horiz-adv-x="1585" vert-adv-y="2457" d="M74 733q0 219 87.5 391.5t252 270.5t379.5 98t379 -98t251.5 -270.5t87.5 -391.5q0 -164 -51 -304.5t-143 -241.5t-227.5 -158.5t-296.5 -57.5q-215 0 -379.5 98.5t-252 271.5t-87.5 392zM309 733q0 -93 17 -175t54 -154.5t92.5 -125t137.5 -82.5t183 -30t183 30 t137 82.5t92.5 125t54 154.5t16.5 175q0 117 -27.5 216t-83.5 178.5t-151.5 125t-220.5 45.5t-220.5 -45.5t-152 -125t-84 -178.5t-27.5 -216zM489 1622l195 283h217l195 -283h-193l-108 182h-4l-111 -182h-191z" />
<glyph unicode="&#xd5;" horiz-adv-x="1585" vert-adv-y="2457" d="M74 733q0 219 87.5 391.5t252 270.5t379.5 98t379 -98t251.5 -270.5t87.5 -391.5q0 -164 -51 -304.5t-143 -241.5t-227.5 -158.5t-296.5 -57.5q-215 0 -379.5 98.5t-252 271.5t-87.5 392zM309 733q0 -93 17 -175t54 -154.5t92.5 -125t137.5 -82.5t183 -30t183 30 t137 82.5t92.5 125t54 154.5t16.5 175q0 117 -27.5 216t-83.5 178.5t-151.5 125t-220.5 45.5t-220.5 -45.5t-152 -125t-84 -178.5t-27.5 -216zM487 1634q0 109 45 163t113 54q57 0 145 -37.5t113 -37.5q51 0 51 71h136q0 -111 -44.5 -164t-113.5 -53q-56 0 -144 38t-112 38 q-53 0 -53 -72h-136z" />
<glyph unicode="&#xd6;" horiz-adv-x="1585" vert-adv-y="2457" d="M74 733q0 219 87.5 391.5t252 270.5t379.5 98t379 -98t251.5 -270.5t87.5 -391.5q0 -164 -51 -304.5t-143 -241.5t-227.5 -158.5t-296.5 -57.5q-215 0 -379.5 98.5t-252 271.5t-87.5 392zM309 733q0 -93 17 -175t54 -154.5t92.5 -125t137.5 -82.5t183 -30t183 30 t137 82.5t92.5 125t54 154.5t16.5 175q0 117 -27.5 216t-83.5 178.5t-151.5 125t-220.5 45.5t-220.5 -45.5t-152 -125t-84 -178.5t-27.5 -216zM506 1651v217h227v-217h-227zM850 1651v217h227v-217h-227z" />
<glyph unicode="&#xd7;" horiz-adv-x="1140" vert-adv-y="2457" d="M129 362l305 306l-305 305l135 135l307 -305l306 305l135 -135l-305 -305l305 -306l-135 -137l-306 307l-307 -307z" />
<glyph unicode="&#xd8;" horiz-adv-x="1595" vert-adv-y="2457" d="M74 84l155 158q-149 200 -149 491q0 219 87.5 391.5t252 270.5t379.5 98q303 0 495 -186l150 151l78 -74l-158 -157q154 -203 154 -494q0 -219 -87.5 -392t-252 -271.5t-379.5 -98.5q-304 0 -498 191l-154 -154zM315 733q0 -196 72 -334l758 760q-126 139 -346 139 q-125 0 -220.5 -45.5t-152 -125t-84 -178.5t-27.5 -216zM449 309q127 -143 350 -143q101 0 183 30t137 82.5t92.5 125t54 154.5t16.5 175q0 200 -74 336z" />
<glyph unicode="&#xd9;" horiz-adv-x="1415" vert-adv-y="2457" d="M135 498v966h225v-966q0 -169 86.5 -250.5t260.5 -81.5q175 0 260.5 81t85.5 251v966h227v-966q0 -247 -141 -387t-432 -140q-290 0 -431 140t-141 387zM449 1905h225l104 -283h-157z" />
<glyph unicode="&#xda;" horiz-adv-x="1415" vert-adv-y="2457" d="M135 498v966h225v-966q0 -169 86.5 -250.5t260.5 -81.5q175 0 260.5 81t85.5 251v966h227v-966q0 -247 -141 -387t-432 -140q-290 0 -431 140t-141 387zM610 1622l121 283h236l-197 -283h-160z" />
<glyph unicode="&#xdb;" horiz-adv-x="1415" vert-adv-y="2457" d="M135 498v966h225v-966q0 -169 86.5 -250.5t260.5 -81.5q175 0 260.5 81t85.5 251v966h227v-966q0 -247 -141 -387t-432 -140q-290 0 -431 140t-141 387zM403 1622l195 283h217l195 -283h-193l-108 182h-4l-111 -182h-191z" />
<glyph unicode="&#xdc;" horiz-adv-x="1415" vert-adv-y="2457" d="M135 498v966h225v-966q0 -169 86.5 -250.5t260.5 -81.5q175 0 260.5 81t85.5 251v966h227v-966q0 -247 -141 -387t-432 -140q-290 0 -431 140t-141 387zM422 1651v217h227v-217h-227zM766 1651v217h227v-217h-227z" />
<glyph unicode="&#xdd;" horiz-adv-x="1304" vert-adv-y="2457" d="M14 1464h244l393 -700h4l394 700h241l-524 -878v-586h-227v586zM557 1622l121 283h235l-196 -283h-160z" />
<glyph unicode="&#xde;" horiz-adv-x="1277" vert-adv-y="2457" d="M145 0v1464h226v-235h385q219 0 349 -108t130 -328q0 -112 -35.5 -197t-100.5 -137t-151 -77.5t-192 -25.5h-385v-356h-226zM371 553h383q129 0 192.5 58.5t63.5 181.5t-63.5 181t-192.5 58h-383v-479z" />
<glyph unicode="&#xdf;" horiz-adv-x="1091" vert-adv-y="2457" d="M113 0v1051q0 209 114 325.5t318 116.5q194 0 309 -100.5t115 -264.5q0 -217 -230 -315v-4q139 -47 217 -149.5t78 -266.5q0 -193 -109 -307.5t-298 -114.5q-89 0 -195 29v166q80 -27 146 -27q120 0 183.5 78t63.5 203q0 153 -90.5 232t-228.5 79h-57v158h51 q68 0 124.5 23.5t95 77.5t38.5 130q0 89 -51 148t-162 59q-127 0 -179.5 -79.5t-52.5 -223.5v-1024h-200z" />
<glyph unicode="&#xe0;" vert-adv-y="2457" d="M59 270q0 68 21.5 121.5t57 89.5t93.5 64t119 45t146 33q52 10 78 15.5t62.5 15t54 19.5t36.5 24.5t26 34t7 44.5q0 139 -199 139q-133 0 -186.5 -44.5t-61.5 -151.5h-204q8 162 120.5 260t339.5 98q84 0 151.5 -19t122 -59.5t84 -112t29.5 -169.5v-479q0 -60 11 -87.5 t39 -27.5q12 0 24 2v-123q-52 -12 -102 -12q-78 0 -117.5 35t-48.5 122h-4q-110 -176 -357 -176q-156 0 -249 82.5t-93 216.5zM268 285q0 -152 178 -152q140 0 227 71.5t87 203.5v149q-36 -34 -230 -76q-141 -28 -201.5 -72t-60.5 -124zM303 1485h225l105 -283h-158z" />
<glyph unicode="&#xe1;" vert-adv-y="2457" d="M59 270q0 68 21.5 121.5t57 89.5t93.5 64t119 45t146 33q52 10 78 15.5t62.5 15t54 19.5t36.5 24.5t26 34t7 44.5q0 139 -199 139q-133 0 -186.5 -44.5t-61.5 -151.5h-204q8 162 120.5 260t339.5 98q84 0 151.5 -19t122 -59.5t84 -112t29.5 -169.5v-479q0 -60 11 -87.5 t39 -27.5q12 0 24 2v-123q-52 -12 -102 -12q-78 0 -117.5 35t-48.5 122h-4q-110 -176 -357 -176q-156 0 -249 82.5t-93 216.5zM268 285q0 -152 178 -152q140 0 227 71.5t87 203.5v149q-36 -34 -230 -76q-141 -28 -201.5 -72t-60.5 -124zM463 1202l121 283h235l-196 -283 h-160z" />
<glyph unicode="&#xe2;" vert-adv-y="2457" d="M59 270q0 68 21.5 121.5t57 89.5t93.5 64t119 45t146 33q52 10 78 15.5t62.5 15t54 19.5t36.5 24.5t26 34t7 44.5q0 139 -199 139q-133 0 -186.5 -44.5t-61.5 -151.5h-204q8 162 120.5 260t339.5 98q84 0 151.5 -19t122 -59.5t84 -112t29.5 -169.5v-479q0 -60 11 -87.5 t39 -27.5q12 0 24 2v-123q-52 -12 -102 -12q-78 0 -117.5 35t-48.5 122h-4q-110 -176 -357 -176q-156 0 -249 82.5t-93 216.5zM256 1202l195 283h217l194 -283h-192l-109 182h-4l-111 -182h-190zM268 285q0 -152 178 -152q140 0 227 71.5t87 203.5v149q-36 -34 -230 -76 q-141 -28 -201.5 -72t-60.5 -124z" />
<glyph unicode="&#xe3;" vert-adv-y="2457" d="M59 270q0 68 21.5 121.5t57 89.5t93.5 64t119 45t146 33q52 10 78 15.5t62.5 15t54 19.5t36.5 24.5t26 34t7 44.5q0 139 -199 139q-133 0 -186.5 -44.5t-61.5 -151.5h-204q8 162 120.5 260t339.5 98q84 0 151.5 -19t122 -59.5t84 -112t29.5 -169.5v-479q0 -60 11 -87.5 t39 -27.5q12 0 24 2v-123q-52 -12 -102 -12q-78 0 -117.5 35t-48.5 122h-4q-110 -176 -357 -176q-156 0 -249 82.5t-93 216.5zM256 1214q0 109 45 163.5t113 54.5q57 0 145 -38t113 -38q51 0 51 71h135q0 -111 -44.5 -164t-113.5 -53q-56 0 -144 38t-112 38q-53 0 -53 -72 h-135zM268 285q0 -152 178 -152q140 0 227 71.5t87 203.5v149q-36 -34 -230 -76q-141 -28 -201.5 -72t-60.5 -124z" />
<glyph unicode="&#xe4;" vert-adv-y="2457" d="M59 270q0 68 21.5 121.5t57 89.5t93.5 64t119 45t146 33q52 10 78 15.5t62.5 15t54 19.5t36.5 24.5t26 34t7 44.5q0 139 -199 139q-133 0 -186.5 -44.5t-61.5 -151.5h-204q8 162 120.5 260t339.5 98q84 0 151.5 -19t122 -59.5t84 -112t29.5 -169.5v-479q0 -60 11 -87.5 t39 -27.5q12 0 24 2v-123q-52 -12 -102 -12q-78 0 -117.5 35t-48.5 122h-4q-110 -176 -357 -176q-156 0 -249 82.5t-93 216.5zM268 285q0 -152 178 -152q140 0 227 71.5t87 203.5v149q-36 -34 -230 -76q-141 -28 -201.5 -72t-60.5 -124zM274 1231v217h228v-217h-228z M618 1231v217h228v-217h-228z" />
<glyph unicode="&#xe5;" vert-adv-y="2457" d="M59 270q0 68 21.5 121.5t57 89.5t93.5 64t119 45t146 33q52 10 78 15.5t62.5 15t54 19.5t36.5 24.5t26 34t7 44.5q0 139 -199 139q-133 0 -186.5 -44.5t-61.5 -151.5h-204q8 162 120.5 260t339.5 98q84 0 151.5 -19t122 -59.5t84 -112t29.5 -169.5v-479q0 -60 11 -87.5 t39 -27.5q12 0 24 2v-123q-52 -12 -102 -12q-78 0 -117.5 35t-48.5 122h-4q-110 -176 -357 -176q-156 0 -249 82.5t-93 216.5zM268 285q0 -152 178 -152q140 0 227 71.5t87 203.5v149q-36 -34 -230 -76q-141 -28 -201.5 -72t-60.5 -124zM369 1325q0 84 53.5 136t134.5 52 q84 0 137.5 -52t53.5 -136t-53.5 -136t-137.5 -52q-81 0 -134.5 52t-53.5 136zM465 1325q0 -44 26 -71t66 -27q43 0 69.5 27t26.5 71q0 43 -26.5 70.5t-69.5 27.5q-40 0 -66 -27.5t-26 -70.5z" />
<glyph unicode="&#xe6;" horiz-adv-x="1824" vert-adv-y="2457" d="M59 270q0 68 21.5 121.5t57 89.5t93.5 64t119 45t146 33q52 10 78 15.5t62.5 15t54 19.5t36.5 24.5t26 34t7 44.5q0 139 -199 139q-134 0 -187 -44t-61 -152h-204q4 78 31.5 142t80.5 113t139 76t199 27q245 0 342 -147q138 147 371 147q235 0 365 -143t130 -389 q0 -60 -2 -76h-802q2 -90 36 -164.5t106 -123t171 -48.5q65 0 117 19t83 50t48.5 60.5t25.5 59.5h205q-44 -160 -165.5 -256.5t-317.5 -96.5q-143 0 -250.5 56t-173.5 157q-73 -108 -187 -159.5t-247 -51.5q-165 0 -260 82t-95 217zM268 285q0 -152 176 -152 q155 0 234.5 73.5t79.5 199.5v61q-2 18 -2 57v29q-34 -28 -226 -72q-141 -28 -201.5 -72t-60.5 -124zM963 627h596q0 125 -80.5 205.5t-212.5 80.5q-126 0 -210 -78.5t-93 -207.5z" />
<glyph unicode="&#xe7;" vert-adv-y="2457" d="M57 522q0 247 140.5 400t371.5 153q197 0 324.5 -114t146.5 -295h-206q-3 35 -12.5 67.5t-30 65t-49 56.5t-72.5 39t-99 15q-80 0 -141 -32t-95.5 -88t-51.5 -123t-17 -144t17 -143.5t51.5 -122t95 -87.5t141.5 -32q69 0 120.5 21.5t80.5 59.5t43.5 79t18.5 90h206 q-9 -167 -120 -281t-287 -133l-70 -82v-4q48 6 92 -3.5t77.5 -43t33.5 -86.5q0 -54 -33 -91t-82.5 -53t-109.5 -16q-121 0 -222 64l48 57q75 -30 139 -30q49 0 74.5 19t25.5 52q0 62 -78 62q-44 0 -82 -15l-30 45l102 123q-210 19 -335.5 169t-125.5 382z" />
<glyph unicode="&#xe8;" horiz-adv-x="1128" vert-adv-y="2457" d="M59 524q0 249 139.5 401t376.5 152q235 0 365.5 -143t130.5 -389q0 -60 -2 -76h-803q2 -90 36 -164.5t106.5 -123t171.5 -48.5q65 0 117 19t83 50t48.5 60.5t25.5 59.5h205q-44 -160 -166 -256.5t-318 -96.5q-162 0 -280 72.5t-177 197t-59 285.5zM266 627h596 q0 125 -80.5 205.5t-212.5 80.5q-126 0 -210 -78.5t-93 -207.5zM307 1489h225l105 -283h-158z" />
<glyph unicode="&#xe9;" horiz-adv-x="1128" vert-adv-y="2457" d="M59 524q0 249 139.5 401t376.5 152q235 0 365.5 -143t130.5 -389q0 -60 -2 -76h-803q2 -90 36 -164.5t106.5 -123t171.5 -48.5q65 0 117 19t83 50t48.5 60.5t25.5 59.5h205q-44 -160 -166 -256.5t-318 -96.5q-162 0 -280 72.5t-177 197t-59 285.5zM266 627h596 q0 125 -80.5 205.5t-212.5 80.5q-126 0 -210 -78.5t-93 -207.5zM469 1206l121 283h235l-196 -283h-160z" />
<glyph unicode="&#xea;" horiz-adv-x="1128" vert-adv-y="2457" d="M59 524q0 249 139.5 401t376.5 152q235 0 365.5 -143t130.5 -389q0 -60 -2 -76h-803q2 -90 36 -164.5t106.5 -123t171.5 -48.5q65 0 117 19t83 50t48.5 60.5t25.5 59.5h205q-44 -160 -166 -256.5t-318 -96.5q-162 0 -280 72.5t-177 197t-59 285.5zM262 1206l195 283h217 l194 -283h-192l-109 183h-4l-110 -183h-191zM266 627h596q0 125 -80.5 205.5t-212.5 80.5q-126 0 -210 -78.5t-93 -207.5z" />
<glyph unicode="&#xeb;" horiz-adv-x="1128" vert-adv-y="2457" d="M59 524q0 249 139.5 401t376.5 152q235 0 365.5 -143t130.5 -389q0 -60 -2 -76h-803q2 -90 36 -164.5t106.5 -123t171.5 -48.5q65 0 117 19t83 50t48.5 60.5t25.5 59.5h205q-44 -160 -166 -256.5t-318 -96.5q-162 0 -280 72.5t-177 197t-59 285.5zM266 627h596 q0 125 -80.5 205.5t-212.5 80.5q-126 0 -210 -78.5t-93 -207.5zM279 1235v217h227v-217h-227zM623 1235v217h227v-217h-227z" />
<glyph unicode="&#xec;" horiz-adv-x="425" vert-adv-y="2457" d="M-45 1485h225l105 -283h-158zM113 0v1044h200v-1044h-200z" />
<glyph unicode="&#xed;" horiz-adv-x="425" vert-adv-y="2457" d="M113 0v1044h200v-1044h-200zM117 1202l121 283h235l-197 -283h-159z" />
<glyph unicode="&#xee;" horiz-adv-x="425" vert-adv-y="2457" d="M-90 1202l194 283h218l194 -283h-192l-109 182h-4l-111 -182h-190zM113 0v1044h200v-1044h-200z" />
<glyph unicode="&#xef;" horiz-adv-x="425" vert-adv-y="2457" d="M-74 1231v217h228v-217h-228zM113 0v1044h200v-1044h-200zM270 1231v217h228v-217h-228z" />
<glyph unicode="&#xf0;" horiz-adv-x="1167" vert-adv-y="2457" d="M57 526q0 126 40 231t108 174t157.5 106.5t190.5 37.5q93 0 175 -44t134 -118q-50 158 -196 304l-320 -84l-29 120l238 64q-90 73 -213 147h266q59 -30 137 -96l263 70l30 -121l-188 -51q250 -281 250 -650q0 -99 -17.5 -189.5t-58 -175.5t-100.5 -147t-151 -99.5 t-204 -37.5q-242 0 -377 151.5t-135 407.5zM258 526q0 -109 34 -195.5t106 -140t171 -53.5q148 0 237 112t89 277t-89 275t-237 110t-229.5 -109t-81.5 -276z" />
<glyph unicode="&#xf1;" horiz-adv-x="1114" vert-adv-y="2457" d="M113 0v1044h200v-131h4q48 69 134.5 115.5t210.5 46.5q153 0 250.5 -89t97.5 -261v-725h-201v670q0 110 -51.5 171.5t-161.5 61.5q-129 0 -206 -71.5t-77 -190.5v-641h-200zM270 1214q0 109 45 163.5t113 54.5q57 0 145 -38t113 -38q51 0 51 71h135q0 -111 -44 -164 t-113 -53q-56 0 -144 38t-112 38q-53 0 -53 -72h-136z" />
<glyph unicode="&#xf2;" horiz-adv-x="1159" vert-adv-y="2457" d="M57 522q0 248 141 401.5t384 153.5q240 0 380 -152.5t140 -400.5q0 -249 -140.5 -402t-381.5 -153q-242 0 -382.5 152t-140.5 401zM266 522q0 -172 80 -279.5t236 -107.5q153 0 232 107.5t79 279.5q0 173 -79 280t-232 107q-156 0 -236 -107t-80 -280zM324 1489h225 l104 -283h-157z" />
<glyph unicode="&#xf3;" horiz-adv-x="1159" vert-adv-y="2457" d="M57 522q0 248 141 401.5t384 153.5q240 0 380 -152.5t140 -400.5q0 -249 -140.5 -402t-381.5 -153q-242 0 -382.5 152t-140.5 401zM266 522q0 -172 80 -279.5t236 -107.5q153 0 232 107.5t79 279.5q0 173 -79 280t-232 107q-156 0 -236 -107t-80 -280zM483 1206l121 283 h236l-197 -283h-160z" />
<glyph unicode="&#xf4;" horiz-adv-x="1159" vert-adv-y="2457" d="M57 522q0 248 141 401.5t384 153.5q240 0 380 -152.5t140 -400.5q0 -249 -140.5 -402t-381.5 -153q-242 0 -382.5 152t-140.5 401zM266 522q0 -172 80 -279.5t236 -107.5q153 0 232 107.5t79 279.5q0 173 -79 280t-232 107q-156 0 -236 -107t-80 -280zM279 1206l194 283 h217l195 -283h-193l-108 183h-4l-111 -183h-190z" />
<glyph unicode="&#xf5;" horiz-adv-x="1159" vert-adv-y="2457" d="M57 522q0 248 141 401.5t384 153.5q240 0 380 -152.5t140 -400.5q0 -249 -140.5 -402t-381.5 -153q-242 0 -382.5 152t-140.5 401zM266 522q0 -172 80 -279.5t236 -107.5q153 0 232 107.5t79 279.5q0 173 -79 280t-232 107q-156 0 -236 -107t-80 -280zM276 1219 q0 109 45 163t113 54q57 0 145 -38t113 -38q51 0 51 72h136q0 -111 -44.5 -164.5t-113.5 -53.5q-56 0 -144 38t-112 38q-53 0 -53 -71h-136z" />
<glyph unicode="&#xf6;" horiz-adv-x="1159" vert-adv-y="2457" d="M57 522q0 248 141 401.5t384 153.5q240 0 380 -152.5t140 -400.5q0 -249 -140.5 -402t-381.5 -153q-242 0 -382.5 152t-140.5 401zM266 522q0 -172 80 -279.5t236 -107.5q153 0 232 107.5t79 279.5q0 173 -79 280t-232 107q-156 0 -236 -107t-80 -280zM295 1235v217h227 v-217h-227zM639 1235v217h227v-217h-227z" />
<glyph unicode="&#xf7;" horiz-adv-x="1140" vert-adv-y="2457" d="M98 573v191h944v-191h-944zM459 203v223h223v-223h-223zM459 915v224h223v-224h-223z" />
<glyph unicode="&#xf8;" horiz-adv-x="1177" vert-adv-y="2457" d="M47 53l119 119q-98 146 -98 350q0 248 141 401.5t383 153.5q216 0 350 -125l115 115l73 -76l-116 -119q98 -143 98 -348q0 -249 -140.5 -402t-381.5 -153q-217 0 -354 125l-117 -117zM276 522q0 -116 37 -203l498 500q-81 90 -219 90q-156 0 -236 -107t-80 -280zM369 227 q82 -92 223 -92q153 0 232 107.5t79 279.5q0 118 -37 205z" />
<glyph unicode="&#xf9;" horiz-adv-x="1114" vert-adv-y="2457" d="M104 322v722h201v-667q0 -111 51.5 -173.5t161.5 -62.5q129 0 206 71.5t77 190.5v641h200v-1044h-200v131h-4q-47 -69 -133 -114.5t-211 -45.5q-153 0 -251 89.5t-98 261.5zM279 1485h225l104 -283h-157z" />
<glyph unicode="&#xfa;" horiz-adv-x="1114" vert-adv-y="2457" d="M104 322v722h201v-667q0 -111 51.5 -173.5t161.5 -62.5q129 0 206 71.5t77 190.5v641h200v-1044h-200v131h-4q-47 -69 -133 -114.5t-211 -45.5q-153 0 -251 89.5t-98 261.5zM440 1202l121 283h236l-197 -283h-160z" />
<glyph unicode="&#xfb;" horiz-adv-x="1114" vert-adv-y="2457" d="M104 322v722h201v-667q0 -111 51.5 -173.5t161.5 -62.5q129 0 206 71.5t77 190.5v641h200v-1044h-200v131h-4q-47 -69 -133 -114.5t-211 -45.5q-153 0 -251 89.5t-98 261.5zM233 1202l195 283h217l195 -283h-193l-108 182h-4l-111 -182h-191z" />
<glyph unicode="&#xfc;" horiz-adv-x="1114" vert-adv-y="2457" d="M104 322v722h201v-667q0 -111 51.5 -173.5t161.5 -62.5q129 0 206 71.5t77 190.5v641h200v-1044h-200v131h-4q-47 -69 -133 -114.5t-211 -45.5q-153 0 -251 89.5t-98 261.5zM250 1231v217h227v-217h-227zM594 1231v217h227v-217h-227z" />
<glyph unicode="&#xfd;" horiz-adv-x="1034" vert-adv-y="2457" d="M-2 1044h219l305 -798h4l287 798h211l-414 -1069q-74 -190 -156 -266t-206 -76q-50 0 -129 15v164q61 -7 86 -7q71 0 129 46.5t86 158.5zM416 1202l121 283h235l-197 -283h-159z" />
<glyph unicode="&#xfe;" horiz-adv-x="1167" vert-adv-y="2457" d="M113 -362v1826h200v-542h4q118 153 322 153t336.5 -150t132.5 -403t-132.5 -402t-336.5 -149q-215 0 -322 158h-4v-491h-200zM315 522q0 -177 78 -281t213 -104q95 0 162 54.5t98 139.5t31 191t-31 191t-98 139.5t-162 54.5q-135 0 -213 -103t-78 -282z" />
<glyph unicode="&#xff;" horiz-adv-x="1034" vert-adv-y="2457" d="M-2 1044h219l305 -798h4l287 798h211l-414 -1069q-74 -190 -156 -266t-206 -76q-50 0 -129 15v164q61 -7 86 -7q71 0 129 46.5t86 158.5zM225 1231v217h228v-217h-228zM569 1231v217h228v-217h-228z" />
<glyph unicode="&#x152;" horiz-adv-x="2279" vert-adv-y="2457" d="M76 733q0 218 77 391t216.5 271t316.5 98q161 0 281 -75.5t190 -221.5v268h1036v-194h-811v-416h711v-195h-711v-464h832v-195h-1057v270q-143 -299 -471 -299q-177 0 -316.5 98.5t-216.5 272t-77 391.5zM311 733q0 -94 13.5 -175t44.5 -154.5t78.5 -125t120 -82 t163.5 -30.5q86 0 159.5 35.5t130 104.5t88.5 178.5t32 248.5t-32 248.5t-88.5 177.5t-130 103.5t-159.5 35.5q-91 0 -163.5 -30t-120 -81.5t-78.5 -124.5t-44.5 -154t-13.5 -175z" />
<glyph unicode="&#x153;" horiz-adv-x="1964" vert-adv-y="2457" d="M57 522q0 248 141 400.5t384 152.5q136 0 242 -50.5t173 -143.5q67 94 173 145t241 51q235 0 365.5 -143t130.5 -389q0 -60 -2 -76h-803q2 -90 36 -164.5t106 -123t171 -48.5q65 0 117 19t83.5 50t49 60.5t25.5 59.5h204q-44 -160 -165.5 -256.5t-317.5 -96.5 q-137 0 -242.5 51.5t-171.5 145.5q-69 -94 -175 -145.5t-242 -51.5q-242 0 -382.5 152t-140.5 401zM266 522q0 -172 80 -278.5t236 -106.5q153 0 232 106.5t79 278.5q0 173 -79 280t-232 107q-156 0 -236 -107t-80 -280zM1102 627h596q0 125 -80.5 205.5t-212.5 80.5 q-126 0 -210 -78.5t-93 -207.5z" />
<glyph unicode="&#x178;" horiz-adv-x="1304" vert-adv-y="2457" d="M14 1464h244l393 -700h4l394 700h241l-524 -878v-586h-227v586zM369 1651v217h227v-217h-227zM713 1651v217h227v-217h-227z" />
<glyph unicode="&#x2c6;" horiz-adv-x="770" vert-adv-y="2457" d="M82 1202l194 283h218l194 -283h-192l-109 182h-4l-111 -182h-190z" />
<glyph unicode="&#x2dc;" horiz-adv-x="765" vert-adv-y="2457" d="M82 1214q0 109 45 163.5t113 54.5q57 0 145 -38t113 -38q51 0 51 71h135q0 -111 -44.5 -164t-113.5 -53q-56 0 -144 38t-112 38q-53 0 -53 -72h-135z" />
<glyph unicode="&#x2000;" horiz-adv-x="966" vert-adv-y="0" />
<glyph unicode="&#x2001;" horiz-adv-x="1933" vert-adv-y="0" />
<glyph unicode="&#x2002;" horiz-adv-x="966" vert-adv-y="0" />
<glyph unicode="&#x2003;" horiz-adv-x="1933" vert-adv-y="0" />
<glyph unicode="&#x2004;" horiz-adv-x="644" vert-adv-y="0" />
<glyph unicode="&#x2005;" horiz-adv-x="483" vert-adv-y="0" />
<glyph unicode="&#x2006;" horiz-adv-x="322" vert-adv-y="0" />
<glyph unicode="&#x2007;" horiz-adv-x="322" vert-adv-y="0" />
<glyph unicode="&#x2008;" horiz-adv-x="241" vert-adv-y="0" />
<glyph unicode="&#x2009;" horiz-adv-x="386" vert-adv-y="0" />
<glyph unicode="&#x200a;" horiz-adv-x="107" vert-adv-y="0" />
<glyph unicode="&#x2010;" horiz-adv-x="720" vert-adv-y="2457" d="M86 426v190h549v-190h-549z" />
<glyph unicode="&#x2011;" horiz-adv-x="720" vert-adv-y="2457" d="M86 426v190h549v-190h-549z" />
<glyph unicode="&#x2012;" horiz-adv-x="720" vert-adv-y="2457" d="M86 426v190h549v-190h-549z" />
<glyph unicode="&#x2013;" horiz-adv-x="1193" vert-adv-y="2457" d="M86 426v190h1024v-190h-1024z" />
<glyph unicode="&#x2014;" horiz-adv-x="2215" vert-adv-y="2457" d="M84 424v190h2048v-190h-2048z" />
<glyph unicode="&#x2018;" horiz-adv-x="401" vert-adv-y="2457" d="M84 963v223q0 222 223 278v-112q-59 -15 -83 -51.5t-23 -114.5h106v-223h-223z" />
<glyph unicode="&#x2019;" horiz-adv-x="385" vert-adv-y="2457" d="M94 963v110q59 18 83.5 54.5t23.5 113.5h-107v223h223v-223q0 -222 -223 -278z" />
<glyph unicode="&#x201a;" horiz-adv-x="415" vert-adv-y="2457" d="M96 0v223h223v-223q0 -223 -223 -279v111q59 18 83.5 54.5t23.5 113.5h-107z" />
<glyph unicode="&#x201c;" horiz-adv-x="727" vert-adv-y="2457" d="M84 965v223q0 222 223 278v-112q-59 -18 -83 -54t-23 -112h106v-223h-223zM410 965v223q0 222 223 278v-112q-59 -18 -83.5 -54t-23.5 -112h107v-223h-223z" />
<glyph unicode="&#x201d;" horiz-adv-x="710" vert-adv-y="2457" d="M94 963v110q59 18 83.5 54.5t23.5 113.5h-107v223h223v-223q0 -222 -223 -278zM420 963v110q59 18 83 54.5t23 113.5h-106v223h223v-223q0 -222 -223 -278z" />
<glyph unicode="&#x201e;" horiz-adv-x="743" vert-adv-y="2457" d="M96 0v223h223v-223q0 -223 -223 -279v111q59 18 83.5 54.5t23.5 113.5h-107zM424 0v223h223v-223q0 -223 -223 -279v111q59 18 83 54.5t23 113.5h-106z" />
<glyph unicode="&#x2022;" horiz-adv-x="788" vert-adv-y="2457" d="M156 373v479h479v-479h-479z" />
<glyph unicode="&#x2026;" horiz-adv-x="1224" vert-adv-y="2457" d="M92 0v223h223v-223h-223zM502 0v223h223v-223h-223zM909 0v223h224v-223h-224z" />
<glyph unicode="&#x202f;" horiz-adv-x="386" vert-adv-y="0" />
<glyph unicode="&#x2039;" horiz-adv-x="598" vert-adv-y="2457" d="M88 412v223l408 328v-215l-293 -224v-4l293 -219v-217z" />
<glyph unicode="&#x203a;" horiz-adv-x="598" vert-adv-y="2457" d="M102 84v215l293 221v4l-293 221v218l408 -330v-223z" />
<glyph unicode="&#x205f;" horiz-adv-x="483" vert-adv-y="0" />
<glyph unicode="&#x20ac;" horiz-adv-x="1363" vert-adv-y="2457" d="M98 514v127h115q-2 20 -2 61v52h-113v125h125q36 257 178 405t373 148q115 0 207.5 -38t154.5 -106t99 -159t49 -201h-221q-8 49 -19 89t-33.5 83.5t-52.5 73t-78 48.5t-108 19q-142 0 -221.5 -97t-106.5 -265h390v-125h-402v-52q0 -41 2 -61h400v-127h-388 q26 -163 106.5 -257.5t219.5 -94.5q76 0 132 28.5t88.5 79t49 109.5t21.5 131h221q-23 -252 -151 -395.5t-359 -143.5q-228 0 -369.5 145.5t-179.5 397.5h-127z" />
<glyph unicode="&#x2122;" horiz-adv-x="1359" vert-adv-y="2457" d="M41 1337v127h491v-127h-174v-444h-143v444h-174zM604 893v571h201l117 -391h2l120 391h199v-571h-135v405h-4l-123 -405h-117l-121 405h-4v-405h-135z" />
<glyph unicode="&#x25fc;" horiz-adv-x="1044" vert-adv-y="2088" d="M0 0v1044h1044v-1044h-1044z" />
<glyph unicode="&#xfb01;" horiz-adv-x="1032" vert-adv-y="2457" d="M43 879v165h143v127q0 173 67.5 240.5t203.5 67.5q34 0 127 -13v-161q-61 6 -86 6q-64 0 -86.5 -26.5t-22.5 -108.5v-132h195v-165h-195v-879h-203v879h-143zM707 1231v217h227v-217h-227zM719 0v1044h201v-1044h-201z" />
<glyph unicode="&#xfb02;" horiz-adv-x="1032" vert-adv-y="2457" d="M43 879v165h143v127q0 173 67.5 240.5t203.5 67.5q34 0 127 -13v-161q-61 6 -86 6q-64 0 -86.5 -26.5t-22.5 -108.5v-132h195v-165h-195v-879h-203v879h-143zM719 0v1464h201v-1464h-201z" />
<glyph unicode="&#xfb03;" horiz-adv-x="1562" vert-adv-y="2457" d="M43 879v165h143v127q0 173 67.5 240.5t203.5 67.5q34 0 127 -13v-161q-61 6 -86 6q-64 0 -86.5 -26.5t-22.5 -108.5v-132h332v127q0 173 67 240.5t203 67.5q34 0 127 -13v-161q-62 6 -86 6q-64 0 -86 -26.5t-22 -108.5v-132h194v-165h-194v-879h-203v879h-332v-879h-203 v879h-143zM1239 1231v217h227v-217h-227zM1251 0v1044h201v-1044h-201z" />
</font>
</defs>
</svg>
