<?xml version="1.0" standalone="no"?>
<!DOCTYPE svg PUBLIC "-//W3C//DTD SVG 1.1//EN" "http://www.w3.org/Graphics/SVG/1.1/DTD/svg11.dtd" >
<svg xmlns="http://www.w3.org/2000/svg" xmlns:xlink="http://www.w3.org/1999/xlink" version="1.1">
<metadata></metadata>
<defs>
<font id="pp_neue_worldSCnultraBd" horiz-adv-x="1277" >
<font-face units-per-em="2048" ascent="1434" descent="-614" />
<missing-glyph horiz-adv-x="372" />
<glyph horiz-adv-x="0" />
<glyph horiz-adv-x="682" />
<glyph unicode=" "  horiz-adv-x="372" />
<glyph unicode="&#x09;" horiz-adv-x="372" />
<glyph unicode="&#xa0;" horiz-adv-x="372" />
<glyph unicode="!" horiz-adv-x="385" d="M47 119q0 62 38.5 101.5t107.5 39.5t108 -39.5t39 -101.5t-39.5 -103t-107.5 -41t-107 41t-39 103zM47 1303q0 73 40.5 116t105.5 43q66 0 105.5 -43t39.5 -116q0 -53 -19 -139t-42.5 -173.5t-42.5 -239.5t-19 -321h-41q0 169 -20 321t-43.5 239.5t-43.5 173.5t-20 139z " />
<glyph unicode="&#x22;" horiz-adv-x="735" d="M49 1335q0 56 38 90.5t99 34.5t98.5 -34.5t37.5 -90.5q0 -39 -18 -90t-39.5 -97t-39.5 -119t-18 -150h-41q0 77 -18.5 150t-40 119t-40 97t-18.5 90zM414 1335q0 56 38 90.5t99 34.5t98 -34.5t37 -90.5q0 -39 -18 -90t-39.5 -97t-39.5 -119t-18 -150h-41q0 77 -18 150 t-40 119t-40 97t-18 90z" />
<glyph unicode="#" horiz-adv-x="946" d="M51 352v232h221l47 266h-210v231h249l62 353h41l-62 -353h273l61 353h41l-61 -353h182v-231h-221l-47 -266h211v-232h-250l-62 -352h-43l62 352h-271l-61 -352h-41l61 352h-182zM313 584h273l45 266h-271z" />
<glyph unicode="$" horiz-adv-x="1073" d="M88 1155q0 131 110.5 211t305.5 80l47 -2v123h41v-125q27 -2 82.5 -9t100 -10.5t87.5 -3.5l56 -512h-50q-20 117 -44 204t-49.5 142t-56 89t-60.5 47.5t-66 15.5v-424q35 -47 94 -117q63 -74 95 -113.5t77 -102.5t66.5 -108t38 -102.5t16.5 -113.5q0 -160 -111.5 -248 t-308.5 -88h-41v-135h-41v137q-31 2 -95 9t-119 11t-113 4l-50 551h47q20 -126 50 -222t62 -154.5t70 -95.5t72.5 -50.5t71.5 -13.5h4v485q-61 84 -129 166q-135 156 -197.5 261t-62.5 214zM453 1280q0 -101 98 -244v367q-98 -15 -98 -123zM518 35q47 12 71.5 52t24.5 101 q0 117 -96 267v-420z" />
<glyph unicode="%" horiz-adv-x="1482" d="M49 1114q0 162 93.5 253t240.5 91q148 0 242 -91t94 -253t-94 -253t-242 -91q-147 0 -240.5 91.5t-93.5 252.5zM305 1114q0 -170 15 -236.5t63 -66.5q50 0 65 66.5t15 236.5q0 169 -15 236t-65 67q-48 0 -63 -67t-15 -236zM397 0l641 1434h47l-641 -1434h-47zM764 322 q0 161 94 251.5t242 90.5q146 0 240 -90.5t94 -251.5q0 -164 -94 -255.5t-240 -91.5q-147 0 -241.5 92t-94.5 255zM1020 322q0 -172 15 -239t65 -67q48 0 63 67t15 239q0 168 -15 234.5t-63 66.5q-50 0 -65 -66.5t-15 -234.5z" />
<glyph unicode="&#x26;" horiz-adv-x="1361" d="M37 414q0 95 29 178.5t77.5 145t116 111t141 81t156.5 51.5q-145 214 -356 412v41h911l51 -527h-41q-16 116 -28.5 191.5t-29 132.5t-31 87t-38.5 48t-47.5 22.5t-62.5 4.5h-623q245 -141 476.5 -391t398.5 -551q71 161 106 387l39 -9q-40 -248 -119 -428 q105 -196 170 -401h-389l-18 92q-158 -117 -373 -117q-112 0 -204.5 27t-163 80t-109.5 138t-39 194zM428 463q0 -181 76 -281t211 -100q100 0 198 70q-102 436 -319 774q-80 -94 -123 -203.5t-43 -259.5z" />
<glyph unicode="'" horiz-adv-x="370" d="M49 1335q0 56 38 90.5t99 34.5t98.5 -34.5t37.5 -90.5q0 -39 -18 -90t-39.5 -97t-39.5 -119t-18 -150h-41q0 77 -18.5 150t-40 119t-40 97t-18.5 90z" />
<glyph unicode="(" horiz-adv-x="704" d="M61 614q0 150 34.5 282t90.5 229t135.5 179.5t161 137.5t176.5 100l21 -20q-122 -177 -191 -409.5t-69 -498.5t69 -498t191 -409l-21 -20q-95 45 -176.5 100t-161 137.5t-135.5 179.5t-90.5 228.5t-34.5 281.5z" />
<glyph unicode=")" horiz-adv-x="704" d="M25 -293q122 177 191 409t69 498t-69 498.5t-191 409.5l20 20q95 -45 176.5 -100t161 -137.5t135.5 -179.5t90.5 -229t34.5 -282t-34.5 -281.5t-90.5 -228.5t-135.5 -179.5t-161 -137.5t-176.5 -100z" />
<glyph unicode="*" horiz-adv-x="653" d="M51.5 1032.5q6.5 29.5 34.5 46.5q22 13 55 14.5t76 8.5t88 33q-45 26 -88 33t-76 8t-55 14q-28 17 -34.5 46.5t9.5 53.5q14 26 42.5 35.5t58.5 -6.5q22 -13 38.5 -42t43 -63.5t71.5 -60.5q0 58 -15.5 105t-31.5 80t-16 59q0 33 22 53t52 20q31 0 53 -19.5t22 -53.5 q0 -21 -10 -47t-22.5 -49t-22.5 -62.5t-10 -85.5q45 26 71.5 60.5t43.5 63.5t38 42q32 16 59.5 6.5t43.5 -35.5q15 -24 9 -54t-34 -46q-22 -13 -55.5 -14t-77 -8t-88.5 -33q45 -26 88.5 -33t77 -8.5t55.5 -14.5q28 -16 34 -46t-9 -54q-16 -26 -43.5 -35.5t-59.5 6.5 q-21 13 -38 42t-43.5 63.5t-71.5 60.5q0 -46 10 -86t22.5 -63t22.5 -49t10 -46q0 -34 -22 -53.5t-53 -19.5q-30 0 -52 19.5t-22 53.5q0 20 10 46t21.5 49t21.5 63t10 86q-45 -26 -71.5 -60.5t-43 -63.5t-38.5 -42q-30 -16 -58.5 -6.5t-42.5 35.5q-16 24 -9.5 53.5z" />
<glyph unicode="+" horiz-adv-x="626" d="M102 492v40h191v191h41v-191h190v-40h-190v-189h-41v189h-191z" />
<glyph unicode="," horiz-adv-x="380" d="M45 137q0 59 38 92t101 33q73 0 113.5 -40t40.5 -116q0 -96 -60 -190t-172 -213l-28 29q75 100 96 138.5t21 70.5q0 25 -15.5 43t-37.5 30t-44 26t-37.5 38t-15.5 59z" />
<glyph unicode="-" horiz-adv-x="649" d="M61 492v40h527v-40h-527z" />
<glyph unicode="." horiz-adv-x="378" d="M43 119q0 62 39 101.5t108 39.5t107.5 -39.5t38.5 -101.5t-39 -103t-107 -41t-107.5 41t-39.5 103z" />
<glyph unicode="/" horiz-adv-x="428" d="M20 -410l347 1844h41l-347 -1844h-41z" />
<glyph unicode="0" horiz-adv-x="1222" d="M57 717q0 158 28.5 284t78.5 210.5t120.5 140.5t151.5 81t174 25q94 0 174.5 -24.5t151.5 -81t121 -140.5t79 -210.5t29 -284.5t-28.5 -284.5t-78.5 -211t-121 -140.5t-152 -81t-175 -25q-93 0 -174 25t-151.5 81.5t-120.5 141t-78.5 210.5t-28.5 284zM449 717 q0 -282 16.5 -434t50 -209.5t94.5 -57.5t94.5 57.5t50.5 209.5t17 434t-17 434t-50.5 209t-94.5 57q-60 0 -93.5 -57.5t-50.5 -210t-17 -432.5z" />
<glyph unicode="1" horiz-adv-x="679" d="M27 1165v41q176 12 292 71.5t203 180.5h21v-1270q0 -73 21.5 -106.5t74.5 -44.5v-37h-551v37q54 11 76 44.5t22 106.5v832q0 81 -32 113t-127 32z" />
<glyph unicode="2" horiz-adv-x="999" d="M27 0v41l1 1v1l1 1l1 1v1l1 1l1 1v1l1 1v1l1 1l1 1v1l1 1l1 1v1l1 1l1 1v1l1 1l1 1v1l1 1q231 358 323 529q198 369 198 621q0 101 -32 151t-113 50q-46 0 -81 -20t-71 -73t-68 -155.5t-63 -259.5h-41l49 525q37 0 138 13t184 13q113 0 201 -20.5t154 -63t101 -114 t35 -168.5q0 -80 -21.5 -156t-56.5 -139t-91.5 -127t-114.5 -114.5t-139 -107t-150 -99t-162 -95.5h375q76 0 119 10t78.5 43.5t56 92.5t39.5 163h41l-51 -563h-852z" />
<glyph unicode="3" horiz-adv-x="1028" d="M41 563h41q29 -170 59 -280t65.5 -167.5t71 -78.5t84.5 -21q109 0 164.5 120.5t55.5 326.5q0 77 -9 142t-28 116.5t-51 80.5t-74 29q-37 0 -73 -22t-87 -70l-24 33q141 163 204.5 274t63.5 236q0 135 -109 135q-46 0 -80.5 -20.5t-69.5 -74.5t-66 -156.5t-60 -258.5h-41 l49 525q40 0 155.5 13t202.5 13q182 0 279.5 -57.5t97.5 -188.5q0 -224 -270 -319q71 -4 138.5 -31.5t126 -78.5t94.5 -136t36 -192q0 -103 -31 -185.5t-84.5 -137t-129.5 -90.5t-161.5 -51.5t-185.5 -15.5q-84 0 -177 13.5t-128 13.5z" />
<glyph unicode="4" horiz-adv-x="1089" d="M31 328v41l499 1104h21q91 -49 166 -63.5t184 -16.5v-813h158v-252h-158v-140q0 -73 21.5 -106.5t74.5 -44.5v-37h-559v37q51 11 72.5 44.5t21.5 106.5v140h-501zM176 580h356v792z" />
<glyph unicode="5" horiz-adv-x="1013" d="M47 563h41q29 -166 59 -274.5t63.5 -167t68 -81t79.5 -22.5q50 0 86.5 24.5t65 83t43 163t14.5 256.5q0 235 -45 336.5t-141 101.5q-75 0 -139 -60t-127 -194h-41l84 705h680v-254h-670l-25 -219q18 2 50 15t65 27t92 25.5t127 11.5q109 0 198 -30.5t155.5 -92 t103.5 -160.5t37 -229q0 -102 -19.5 -186t-55 -143.5t-82.5 -103.5t-106.5 -70t-122.5 -38t-134 -12q-104 0 -210.5 13.5t-144.5 13.5z" />
<glyph unicode="6" horiz-adv-x="1202" d="M43 668q0 367 178.5 578.5t499.5 211.5q73 0 169 -13t132 -13l45 -408h-43q-15 118 -43.5 199t-67.5 121.5t-78 56.5t-87 16q-257 0 -293 -571q123 119 315 119q79 0 147.5 -26.5t124 -79.5t87.5 -143t32 -208q0 -265 -146.5 -399t-393.5 -134q-94 0 -175.5 20.5t-157 71 t-128.5 128t-85 198.5t-32 275zM446 584q0 -236 18.5 -361.5t51 -166t92.5 -40.5q55 0 87 35t49.5 133t17.5 275q0 159 -16.5 251.5t-46 127t-76.5 34.5q-74 0 -172 -81q-5 -90 -5 -207z" />
<glyph unicode="7" horiz-adv-x="1040" d="M27 893l51 541h962v-41q-134 -173 -208 -298.5t-123 -287t-64.5 -342t-15.5 -465.5h-404q0 187 29 339.5t97.5 299.5t188.5 280.5t296 260.5h-545q-39 0 -60.5 -2t-46 -11.5t-38.5 -27t-29 -50.5t-26 -79.5t-23 -116.5h-41z" />
<glyph unicode="8" horiz-adv-x="1239" d="M53 334q0 -177 150 -269t409 -92q168 0 295.5 40.5t203 127t75.5 209.5q0 63 -22 119t-54.5 99t-92.5 90.5t-112 81t-137 83.5q82 31 140 60.5t108.5 70t76 94t25.5 119.5q0 95 -63.5 162t-171.5 99t-250 32q-241 0 -380.5 -83t-139.5 -228q0 -116 79 -200t271 -191 q-194 -73 -302 -175.5t-108 -248.5zM424 311q0 261 127 391q117 -85 164 -189t47 -232q0 -267 -162 -267q-87 0 -131.5 78t-44.5 219zM463 758q4 -2 12 -7.5t12 -7.5q21 -11 64 -41q52 58 139 93l78 28q-4 2 -11.5 6.5t-11.5 6.5q-36 19 -69 45q-61 -71 -146 -99zM510 1225 q0 92 33.5 143t99.5 51q131 0 131 -217q0 -201 -98 -321q-166 127 -166 344z" />
<glyph unicode="9" horiz-adv-x="1208" d="M47 926q0 265 147 398.5t394 133.5q94 0 175.5 -20.5t156.5 -71t128.5 -127.5t85 -198t31.5 -275q0 -367 -178.5 -579t-499.5 -212q-73 0 -169 13.5t-132 13.5l-45 408h43q12 -95 34 -166.5t48 -114t60 -69t66 -35.5t69 -9q257 0 293 572q-123 -119 -316 -119 q-79 0 -147.5 26.5t-124 79.5t-87.5 143t-32 208zM446 975q0 -159 17 -252t46.5 -127.5t76.5 -34.5q73 0 172 82q4 72 4 207q0 236 -18.5 361t-51 165.5t-92.5 40.5q-55 0 -87 -34.5t-49.5 -132.5t-17.5 -275z" />
<glyph unicode=":" horiz-adv-x="378" d="M43 119q0 62 39 101.5t108 39.5t107.5 -39.5t38.5 -101.5t-39 -103t-107 -41t-107.5 41t-39.5 103zM43 909q0 62 39 102t108 40q68 0 107 -40t39 -102t-39 -102.5t-107 -40.5t-107.5 40.5t-39.5 102.5z" />
<glyph unicode=";" horiz-adv-x="399" d="M43 909q0 62 39 102t108 40q68 0 107 -40t39 -102t-39 -102.5t-107 -40.5t-107.5 40.5t-39.5 102.5zM45 137q0 59 38 92t101 33q73 0 113.5 -40t40.5 -116q0 -96 -60 -190t-172 -213l-28 29q75 100 96 138.5t21 70.5q0 25 -15.5 43t-37.5 30t-44 26t-37.5 38t-15.5 59z " />
<glyph unicode="&#x3c;" horiz-adv-x="626" d="M102 475v74l422 237v-47l-399 -227l399 -225v-47z" />
<glyph unicode="=" horiz-adv-x="684" d="M102 383v41h498v-41h-498zM102 600v41h498v-41h-498z" />
<glyph unicode="&#x3e;" horiz-adv-x="626" d="M102 240v47l400 225l-400 227v47l422 -237v-74z" />
<glyph unicode="?" horiz-adv-x="829" d="M49 899l49 533q50 0 140.5 13t187.5 13q165 0 259.5 -58t94.5 -179q0 -39 -11 -74.5t-25.5 -62t-42 -54t-47 -44t-56 -38t-53 -30.5t-51.5 -27q-64 -35 -100.5 -70t-58 -90t-28 -121.5t-6.5 -179.5h-41q0 258 12.5 359.5t53.5 209.5q3 9 15 48t15 48t11.5 40t11 44.5 t7 38t6 44.5t1.5 41q0 59 -17 86.5t-57 27.5q-47 0 -81.5 -37t-72.5 -154t-75 -327h-41zM133 119q0 61 40 101t108 40t107.5 -40t39.5 -101q0 -64 -39 -105t-108 -41t-108.5 41.5t-39.5 104.5z" />
<glyph unicode="@" horiz-adv-x="1597" d="M61 461q0 253 101 460t287 328.5t421 122.5q131 1 240 -37t187.5 -106.5t132.5 -163.5t80 -208.5t26 -242.5q0 -284 -94 -451t-254 -167q-92 0 -147 45.5t-62 140.5q-100 -153 -270 -153q-61 0 -113 14.5t-99 50t-78.5 90.5t-47.5 141.5t-11 196.5q6 125 45 227.5 t99.5 166.5t134.5 98.5t154 34.5q109 0 174.5 -54.5t115.5 -183.5q113 74 113 221h41v-698q0 -119 12.5 -164t53.5 -45q31 0 64 34t62 94t47.5 155.5t18.5 205.5q0 118 -22 222t-70 195.5t-120 157.5t-177.5 104t-235.5 38q-134 0 -252.5 -44t-208.5 -124.5t-155 -188.5 t-99 -239t-34 -274q0 -187 52 -335t146.5 -245t225 -148.5t289.5 -51.5q215 0 365.5 82.5t262.5 236.5l31 -25q-46 -76 -106.5 -137.5t-141 -111.5t-186 -77.5t-225.5 -27.5q-168 0 -308 53t-244.5 155t-162.5 264t-58 368zM633 573q-12 -216 29 -333t139 -117 q46 0 85.5 26.5t90.5 90.5v405q0 350 -154 350q-89 0 -133.5 -104.5t-56.5 -317.5z" />
<glyph unicode="A" horiz-adv-x="1179" d="M20 0v37q49 11 80 44.5t47 102.5l252 1110l-14 66v20q148 0 218 14.5t138 63.5h21l272 -1274q14 -68 44.5 -102t78.5 -45v-37h-604v37q65 10 82 42q9 17 9 46q0 25 -7 59l-43 203h-358l-48 -203q-7 -36 -7 -62q0 -28 8 -44q16 -32 81 -41v-37h-250zM244 428h342l-166 770 z" />
<glyph unicode="B" horiz-adv-x="1255" d="M59 0v37q46 11 65 44.5t19 106.5v1057q0 73 -19 107.5t-65 46.5v35h113q135 1 285.5 10.5t204.5 9.5q234 0 344 -80.5t110 -259.5q0 -149 -73 -227.5t-207 -106.5q174 -33 268 -129t94 -274q0 -199 -141 -298t-398 -99q-56 0 -203.5 9.5t-283.5 10.5h-113zM512 31 q45 -11 86 -11q110 0 159.5 78t49.5 271q0 200 -49.5 296.5t-151.5 96.5q-32 0 -94 8v-739zM512 813q45 -10 76 -10q87 0 126.5 71.5t39.5 237.5q0 168 -39 234.5t-121 66.5q-53 0 -82 -8v-592z" />
<glyph unicode="C" horiz-adv-x="1128" d="M47 717q0 185 50 328t139.5 232.5t209 135t263.5 45.5q73 0 165.5 -13t131.5 -13l49 -531h-41q-18 129 -41 221.5t-47.5 149.5t-57 89.5t-64 44t-73.5 11.5q-133 0 -205.5 -167.5t-72.5 -485.5q0 -311 78 -478t221 -167q254 0 315 481l39 -8q-16 -147 -47 -256 t-71.5 -177.5t-97 -110t-117.5 -57.5t-140 -16q-128 0 -234 46.5t-185 136.5t-123 233t-44 326z" />
<glyph unicode="D" horiz-adv-x="1286" d="M59 0v37q46 11 65 44.5t19 106.5v1057q0 73 -19 107.5t-65 46.5v35h113q68 1 224.5 10.5t215.5 9.5q73 0 137 -9t129 -31.5t117.5 -58.5t98.5 -94t77.5 -133.5t49.5 -180.5t18 -232t-18 -232t-49.5 -180t-78 -132.5t-98.5 -93t-117 -58t-128.5 -31t-137.5 -8.5 q-59 0 -215.5 9.5t-224.5 10.5h-113zM512 31q54 -11 94 -11q45 0 79 19t63 67t47.5 126.5t28.5 199t10 283.5q0 203 -15 341t-46 215.5t-71 109.5t-96 32q-48 0 -94 -10v-1372z" />
<glyph unicode="E" horiz-adv-x="1077" d="M59 0v37q46 11 65 44.5t19 106.5v1057q0 73 -19 107.5t-65 46.5v35h902l51 -533h-41q-17 115 -32 194t-32.5 135t-33.5 87t-40 48.5t-47 22.5t-59 5h-215v-609h164q30 0 46 4t30 17.5t16 39.5q4 26 6 70q1 13 0 28q0 35 -4 81h41l41 -541h-41q-6 57 -11 90.5t-10.5 65.5 t-13 47.5t-15.5 29t-22.5 18t-29.5 7t-39 2.5h-158v-702h240q51 0 80.5 13.5t60 65t54 155.5t48.5 282h41l-49 -557h-928z" />
<glyph unicode="F" horiz-adv-x="1054" d="M59 0v37q46 11 65 44.5t19 106.5v1057q0 73 -19 107.5t-65 46.5v35h930l49 -557h-41q-18 121 -33.5 204t-34.5 141.5t-36 91.5t-43.5 51t-52 23t-66.5 5h-219v-650h168q28 0 45 2t31.5 11.5t20.5 23.5q5 15 9 44q3 25 4 56v9q0 36 -4 94h41l43 -541h-43q-5 50 -9 80.5 t-9.5 61t-10 46.5t-13.5 31.5t-18 22t-24.5 11.5t-31 6t-39.5 1h-160v-514q0 -73 19 -106.5t65 -44.5v-37h-537z" />
<glyph unicode="G" horiz-adv-x="1241" d="M47 711q0 157 34 283.5t93 212t142 143t179 83t207 25.5q66 0 166 -13t150 -13l51 -531h-39q-27 130 -53.5 221.5t-53 149t-58 90t-62.5 44t-72 11.5q-278 0 -278 -661q0 -278 25 -438.5t70 -222.5t120 -62q47 0 84 12v381q0 78 -3.5 123.5t-12.5 83t-29.5 56.5t-49.5 31 t-77 19v41l620 -35v-40q-22 0 -38.5 -13t-26 -39t-15.5 -50t-8.5 -62.5t-3 -59.5t-0.5 -57v-424q-108 0 -246 -12.5t-221 -12.5q-135 0 -241.5 41t-187 127.5t-123 230t-42.5 337.5z" />
<glyph unicode="H" horiz-adv-x="1359" d="M59 0v37q46 11 65 44.5t19 106.5v1057q0 73 -19 107.5t-65 46.5v35h537v-35q-46 -12 -65 -46.5t-19 -107.5v-502h338v502q0 72 -19.5 107t-64.5 47v35h534v-35q-45 -12 -64 -46.5t-19 -107.5v-1057q0 -73 19 -106.5t64 -44.5v-37h-534v37q45 11 64.5 45t19.5 106v514 h-338v-514q0 -73 19 -106.5t65 -44.5v-37h-537z" />
<glyph unicode="I" horiz-adv-x="655" d="M59 0v37q46 11 65 44.5t19 106.5v1057q0 73 -19 107.5t-65 46.5v35h537v-35q-46 -12 -65 -46.5t-19 -107.5v-1057q0 -73 19 -106.5t65 -44.5v-37h-537z" />
<glyph unicode="J" horiz-adv-x="765" d="M23 569h40q41 -223 79 -346.5t72 -165t79 -41.5q43 0 64.5 26t21.5 71q0 40 -15.5 87t-33.5 86.5t-33.5 102.5t-15.5 129v727q0 73 -18.5 107.5t-63.5 46.5v35h534v-35q-46 -12 -65 -46.5t-19 -107.5v-860q0 -193 -84.5 -301.5t-265.5 -108.5q-57 0 -124 19.5t-99 19.5z " />
<glyph unicode="K" horiz-adv-x="1409" d="M59 0v37q46 11 65 44.5t19 106.5v1057q0 73 -19 107.5t-65 46.5v35h537v-35q-46 -12 -65 -46.5t-19 -107.5v-612l455 682q29 38 29 57q0 4 -1 8q-8 18 -73 17v37h274v-37q-72 0 -109.5 -18.5t-72.5 -71.5l-168 -254l383 -881q47 -109 160 -135v-37h-639v37q63 10 71 39 q2 6 2 13q0 29 -26 83l-213 485l-72 -108v-361q0 -73 19 -106.5t65 -44.5v-37h-537z" />
<glyph unicode="L" horiz-adv-x="1046" d="M59 0v37q46 11 65 44.5t19 106.5v1057q0 73 -19 107.5t-65 46.5v35h537v-35q-46 -12 -65 -46.5t-19 -107.5v-1204h207q41 0 66.5 5t52 23t43.5 51t36 91.5t34.5 141.5t33.5 204h41l-49 -557h-918z" />
<glyph unicode="M" horiz-adv-x="1527" d="M37 0v37q47 11 69.5 45t26.5 106l72 1057q1 19 1 35q0 48 -13 73q-18 34 -70 46v35h473l178 -801l164 801h463v-35q-51 -11 -69 -45q-14 -26 -14 -78q0 -15 1 -31l78 -1057q6 -72 29 -106t69 -45v-37h-551v37q50 9 68 43q14 26 13 77q0 14 -1 31l-80 1067l-250 -1255 h-178l-268 1255l-74 -1067q-1 -16 -1 -30q0 -52 14 -78q18 -34 69 -43v-37h-219z" />
<glyph unicode="N" horiz-adv-x="1093" d="M47 1399v35h500l399 -965v776q0 73 -19 107.5t-65 46.5v35h209v-35q-45 -12 -64.5 -47t-19.5 -107v-1245h-272l-531 1260l-10 22v-1094q0 -72 19.5 -106t64.5 -45v-37h-209v37q46 11 65 44.5t19 106.5v1153q-37 40 -86 58z" />
<glyph unicode="O" d="M53 717q0 155 31 280.5t85 210.5t129 142t160 82.5t181 25.5t180.5 -25t160 -82t129 -141.5t85 -210.5t31.5 -282t-31 -282t-85 -211t-129 -141.5t-160 -82t-181 -25.5t-181 25.5t-160 83t-129 142t-85 210.5t-31 281zM459 717q0 -288 17 -437.5t54.5 -206.5t108.5 -57 q72 0 109.5 57t55 206t17.5 438q0 218 -8.5 351t-31 212.5t-55.5 108t-87 28.5q-71 0 -108.5 -56.5t-54.5 -206t-17 -437.5z" />
<glyph unicode="P" horiz-adv-x="1177" d="M59 0v37q46 11 65 44.5t19 106.5v1057q0 73 -19 107.5t-65 46.5v35h113q132 1 277.5 12.5t193.5 11.5q90 0 162.5 -12t141.5 -45.5t115.5 -87t74.5 -141t28 -203.5q0 -133 -36 -233t-102 -162t-155 -92.5t-200 -30.5q-74 0 -160 18v-281q0 -73 25 -106.5t84 -44.5v-37 h-562zM512 516q44 -24 94 -24q42 0 70.5 17.5t52.5 64.5t35.5 140t11.5 234q0 142 -12.5 237t-38 144t-56 68.5t-73.5 19.5q-38 0 -84 -12v-889z" />
<glyph unicode="Q" d="M53 717q0 155 31 280.5t85 210.5t129 142t160 82.5t181 25.5t180.5 -25t160 -82t129 -141.5t85 -210.5t31.5 -282q0 -189 -44.5 -333t-123 -230.5t-177.5 -130.5t-216 -48q51 -28 80 -42.5t75.5 -28t89.5 -13.5q63 0 111 30t84 104l37 -15q-16 -65 -37 -115t-53.5 -97 t-81.5 -72t-111 -25q-67 0 -127.5 32t-106 77.5t-89.5 90.5t-96 77t-107 32q-52 0 -99 -27t-102 -79l-25 26q51 55 101.5 90.5t111.5 47.5q-125 84 -195.5 245.5t-70.5 403.5zM459 717q0 -288 17 -437.5t54.5 -206.5t108.5 -57q72 0 109.5 57t55 206t17.5 438 q0 218 -8.5 351t-31 212.5t-55.5 108t-87 28.5q-71 0 -108.5 -56.5t-54.5 -206t-17 -437.5z" />
<glyph unicode="R" horiz-adv-x="1294" d="M59 0v37q46 11 65 44.5t19 106.5v1057q0 73 -19 107.5t-65 46.5v35h113q152 1 303.5 11.5t192.5 10.5q218 0 329 -74.5t111 -240.5q0 -283 -317 -344q90 -14 149.5 -40t96.5 -72.5t54.5 -107.5t24.5 -153q18 -223 28 -274.5t38 -51.5q24 0 37.5 33.5t21.5 134.5l41 -4 q-11 -156 -67 -221.5t-185 -65.5q-144 0 -207 86t-78 293q-21 246 -32 304q-21 98 -69 116q-15 6 -34 6h-4q-40 0 -94 11v-603q0 -73 19 -106.5t65 -44.5v-37h-537zM512 831q39 -10 80 -10q153 0 153 312q0 141 -36.5 211.5t-116.5 70.5q-47 0 -80 -10v-574z" />
<glyph unicode="S" horiz-adv-x="1036" d="M57 1157q0 136 119 218.5t328 82.5q60 0 178 -13t184 -13l54 -531h-41q-21 127 -47.5 220t-55 149.5t-64 89.5t-69.5 45t-78 12q-67 0 -103 -34t-36 -95q0 -81 59 -177.5t183 -238.5q64 -72 101.5 -116t83 -106t69 -110t40.5 -106.5t17 -116.5q0 -168 -116 -255t-337 -87 q-64 0 -193.5 13.5t-213.5 13.5l-51 555h41q89 -541 350 -541q76 0 113.5 45t37.5 121q0 58 -18 115t-59 121.5t-84.5 119.5t-116.5 140q-71 80 -111.5 130t-83 113.5t-61.5 120.5t-19 115z" />
<glyph unicode="T" horiz-adv-x="1146" d="M23 901l51 533h1001l49 -533h-41q-36 224 -69 329t-68.5 134t-103.5 29h-84v-1205q0 -73 19 -106.5t65 -44.5v-37h-535v37q45 11 64.5 45t19.5 106v1205h-86q-51 0 -80.5 -13.5t-59 -64.5t-52.5 -148t-50 -266h-40z" />
<glyph unicode="U" horiz-adv-x="1161" d="M33 1399v35h534v-35q-45 -12 -64.5 -47t-19.5 -107v-762q0 -374 265 -374q121 0 188.5 90t67.5 282v764q0 73 -18.5 107.5t-63.5 46.5v35h206v-35q-45 -12 -64.5 -47t-19.5 -107v-782q0 -247 -110 -367.5t-332 -120.5q-224 0 -354.5 132t-130.5 397v741q0 73 -19 107.5 t-65 46.5z" />
<glyph unicode="V" horiz-adv-x="1241" d="M20 1399v35h623v-35q-65 -12 -77 -44q-4 -11 -4 -26q0 -30 16 -76l231 -749l227 749q16 46 16 76q0 15 -4 26q-12 32 -77 44v35h250v-35q-50 -13 -85 -46.5t-55 -99.5l-381 -1278h-137l-401 1278q-20 66 -56 99.5t-86 46.5z" />
<glyph unicode="W" horiz-adv-x="1830" d="M20 1399v35h1209v-37q-54 -7 -67 -41q-5 -13 -5 -32q0 -28 12 -69l234 -770l227 770q13 40 13 68q1 18 -5 31q-14 33 -73 43v37h245v-35q-49 -13 -82.5 -46t-54.5 -100l-370 -1278h-156l-223 725l-211 -725h-156l-395 1278q-22 66 -57 99.5t-85 46.5zM580 1255l233 -770 l86 293l-147 477q-20 71 -47 106.5t-72 35.5q-65 0 -65 -69q0 -30 12 -73z" />
<glyph unicode="X" horiz-adv-x="1239" d="M20 1399v35h631v-35q-63 -11 -71 -41q-2 -6 -2 -14q0 -30 26 -84l184 -437l201 439q27 56 27 85q0 5 -2 11q-6 30 -68 41v35h250v-35q-114 -31 -162 -137l-223 -492l250 -596q48 -112 158 -137v-37h-631v37q64 10 72 40q2 6 1 15q0 30 -24 82l-186 438l-211 -442 q-22 -48 -27 -71.5t10 -39t58 -22.5v-37h-250v37q112 27 164 133l235 496l-252 594q-48 110 -158 139z" />
<glyph unicode="Y" horiz-adv-x="1214" d="M20 1399v35h644v-35q-64 -12 -74 -43q-3 -8 -3 -18q0 -30 21 -81l197 -534l196 534q19 50 19 79q0 12 -2 20q-11 31 -74 43v35h250v-35q-50 -14 -87 -46t-60 -96l-224 -614v-455q0 -73 19 -106.5t65 -44.5v-37h-536v37q46 11 65 44.5t19 106.5v377l-279 695 q-45 110 -156 139z" />
<glyph unicode="Z" horiz-adv-x="1073" d="M74 0v41l495 1352h-168q-45 0 -74 -8t-59 -35.5t-51 -80.5t-41.5 -143.5t-38.5 -224.5h-41l51 533h848v-41l-495 -1352h182q41 0 68.5 8t58 37t52.5 84t43.5 151t39.5 236h43l-53 -557h-860z" />
<glyph unicode="[" horiz-adv-x="661" d="M74 -313v1855h563v-41h-215v-1773h215v-41h-563z" />
<glyph unicode="\" horiz-adv-x="428" d="M20 1434h41l347 -1844h-41z" />
<glyph unicode="]" horiz-adv-x="661" d="M25 -272h215v1773h-215v41h563v-1855h-563v41z" />
<glyph unicode="^" horiz-adv-x="612" d="M61 940l213 494h64l213 -494h-45l-199 463l-201 -463h-45z" />
<glyph unicode="_" horiz-adv-x="727" d="M61 -123h605v-41h-605v41z" />
<glyph unicode="`" horiz-adv-x="610" d="M76 1251q0 127 65 158.5t193 -49.5l215 -143l-10 -27z" />
<glyph unicode="a" horiz-adv-x="1185" d="M57 391q0 107 28.5 189t78 130.5t111 72.5t133.5 24q206 0 280 -184v73q0 171 -49.5 241.5t-157.5 70.5q-200 0 -319 -205h-43l88 213q38 0 156 16.5t190 16.5q76 0 144 -11t133.5 -38.5t112.5 -69.5t75.5 -108.5t28.5 -151.5v-447q0 -75 19 -99q13 -16 45 -15q16 0 38 4 l12 -33l-153 -60q-125 -45 -203 -45q-62 0 -89.5 29t-27.5 96v62q-75 -187 -280 -187q-72 0 -133.5 24t-111 72.5t-78 130.5t-28.5 189zM406 391q0 -280 143 -280q139 0 139 280q0 281 -139 281q-143 0 -143 -281z" />
<glyph unicode="b" horiz-adv-x="1181" d="M27 1362v35h114q133 2 199.5 15t108.5 61h20v-568q61 70 131 107t168 37q157 0 256.5 -132.5t99.5 -375.5q0 -262 -117 -414t-302 -152q-137 0 -209 80t-103 264q-86 -51 -136 -125t-103 -221h-41v1237q0 71 -20 105.5t-66 46.5zM469 383q0 -143 36 -217t95 -74 q76 0 109.5 95t33.5 325q0 241 -26.5 333.5t-95.5 92.5q-33 0 -66 -20t-86 -74v-461z" />
<glyph unicode="c" horiz-adv-x="997" d="M57 504q0 251 144.5 398t394.5 147q63 0 143 -13.5t117 -13.5l49 -365h-41q-20 109 -46.5 182t-56 108t-56.5 48t-60 13q-105 0 -157 -107.5t-52 -292.5q0 -141 27.5 -251t84.5 -175t136 -65q165 0 236 274l41 -8q-49 -217 -159 -312.5t-278 -95.5q-215 0 -341 142 t-126 387z" />
<glyph unicode="d" horiz-adv-x="1181" d="M57 483q0 257 112 411.5t282 154.5q187 0 262 -148v295q0 73 -20 107.5t-66 46.5v34h114q129 0 197.5 14t110.5 62h20v-1235q0 -73 19 -106t67 -45v-37h-117q-127 0 -195 -13.5t-110 -60.5h-20v154q-62 -70 -132 -106t-167 -36q-154 0 -255.5 134.5t-101.5 373.5z M436 512q0 -163 12.5 -255t38.5 -131.5t72 -39.5q33 0 67.5 20t86.5 72v463q0 142 -36.5 216.5t-94.5 74.5q-77 0 -111.5 -95.5t-34.5 -324.5z" />
<glyph unicode="e" horiz-adv-x="1024" d="M57 512q0 249 130.5 393t357.5 144q197 0 309.5 -107t112.5 -309h-535q3 -251 69.5 -383.5t192.5 -132.5q177 0 258 274l39 -8q-51 -217 -166 -312.5t-293 -95.5q-224 0 -349.5 143t-125.5 394zM432 674h221q0 185 -22 259.5t-80 74.5q-64 0 -90.5 -82t-28.5 -252z" />
<glyph unicode="f" horiz-adv-x="681" d="M16 983v41h242q-108 38 -158.5 96.5t-50.5 141.5q0 94 82.5 145t226.5 51q85 0 160.5 -13t104.5 -13l51 -332h-41q-35 130 -68 200.5t-62.5 92.5t-70.5 22q-43 0 -66.5 -35.5t-23.5 -101.5q0 -61 22.5 -117.5t70.5 -96.5t112 -40h86v-41q-82 0 -108.5 -20.5t-26.5 -85.5 v-689q0 -72 29 -106t96 -45v-37h-566v37q46 11 66 44.5t20 106.5v689q0 68 -21.5 87t-105.5 19z" />
<glyph unicode="g" horiz-adv-x="1030" d="M37 582q0 221 127 345t350 124q88 0 162 -21q38 84 91 137t136 86l70 -153q-95 0 -150 -19t-92 -67q126 -51 193 -161.5t67 -270.5q0 -221 -126 -344t-351 -123q-144 0 -252 51q-29 -21 -29 -37q0 -23 52 -40t239 -60q62 -14 95.5 -22.5t81 -20.5t72.5 -20.5t58 -21.5 t49.5 -24.5t35.5 -27.5t27 -33t14 -38t6 -46q0 -58 -32 -101t-87 -67.5t-119 -36.5t-137 -12q-154 0 -253 38t-99 115q0 93 149 135q-184 40 -259 84.5t-75 116.5q0 99 168 143q-182 119 -182 392zM408 582q0 -238 19 -332t87 -94q69 0 89 96t20 330t-20 331t-89 97 q-67 0 -86.5 -95.5t-19.5 -332.5zM424 -281q0 -58 43 -87t119 -29q77 0 117 24t40 66q0 49 -46 71t-205 58q-68 -36 -68 -103z" />
<glyph unicode="h" horiz-adv-x="1234" d="M27 0v37q46 11 66 44.5t20 106.5v1008q0 72 -19.5 106t-66.5 46v36h114q129 0 197.5 13.5t110.5 60.5h20v-584q144 175 346 175q135 0 214 -75t79 -243v-543q0 -73 20 -106.5t66 -44.5v-37h-526v37q46 11 66 44.5t20 106.5v580q0 152 -99 152q-79 0 -186 -107v-625 q0 -73 19.5 -106.5t66.5 -44.5v-37h-528z" />
<glyph unicode="i" horiz-adv-x="606" d="M39 0v37q46 11 66 44.5t20 106.5v598q0 72 -19.5 106t-66.5 46v37h115q129 0 197 13.5t110 60.5h20v-861q0 -73 19.5 -106.5t66.5 -44.5v-37h-528zM86 1296q0 75 56.5 118.5t154.5 43.5t153.5 -43.5t55.5 -118.5q0 -74 -55.5 -117.5t-153.5 -43.5t-154.5 43.5 t-56.5 117.5z" />
<glyph unicode="j" horiz-adv-x="575" d="M-49 -23h39q21 -101 42 -172t37.5 -109t36.5 -58.5t33.5 -25.5t32.5 -5q61 0 61 102q0 53 -16 106.5t-35 93t-35 101.5t-16 129v647q0 73 -19.5 107.5t-66.5 46.5v35h115q129 0 197 14t110 62h20v-1041q0 -68 -1.5 -113t-7.5 -96t-17.5 -83.5t-31 -64t-47.5 -49t-68 -28 t-93 -10.5q-58 0 -125.5 13t-95.5 13zM82 1296q0 75 56.5 118.5t154.5 43.5t153.5 -43.5t55.5 -118.5q0 -74 -55.5 -117.5t-153.5 -43.5t-154.5 43.5t-56.5 117.5z" />
<glyph unicode="k" horiz-adv-x="1300" d="M27 0v37q46 11 66 44.5t20 106.5v1008q0 72 -19.5 106t-66.5 46v36h114q129 0 197.5 13.5t110.5 60.5h20v-1005l375 452q23 29 31 45t-3 24.5t-32.5 10.5t-67.5 2v37h342v-37q-81 0 -128.5 -17t-94.5 -71l-72 -88l295 -641q50 -107 164 -133v-37h-616v37q58 10 62 39 q1 3 0 7q0 29 -30 87l-143 317l-82 -100v-199q0 -73 19.5 -106.5t66.5 -44.5v-37h-528z" />
<glyph unicode="l" horiz-adv-x="581" d="M27 0v37q46 11 66 44.5t20 106.5v1008q0 72 -19.5 106t-66.5 46v36h114q129 0 197.5 13.5t110.5 60.5h20v-1270q0 -73 19.5 -106.5t66.5 -44.5v-37h-528z" />
<glyph unicode="m" horiz-adv-x="1796" d="M27 0v37q46 11 66 44.5t20 106.5v598q0 72 -19.5 106t-66.5 46v37h114q129 0 197.5 13.5t110.5 60.5h20v-175q59 76 142 125.5t184 49.5q210 0 260 -187q157 187 342 187q124 0 199 -72.5t75 -239.5v-549q0 -73 19.5 -106.5t66.5 -44.5v-37h-528v37q46 11 66 44.5 t20 106.5v580q0 150 -80 150q-65 0 -170 -111q4 -40 4 -70v-549q0 -73 20 -106.5t66 -44.5v-37h-526v37q46 11 66 44.5t20 106.5v580q0 150 -80 150q-65 0 -166 -107v-623q0 -73 19.5 -106.5t66.5 -44.5v-37h-528z" />
<glyph unicode="n" horiz-adv-x="1234" d="M27 0v37q46 11 66 44.5t20 106.5v598q0 72 -19.5 106t-66.5 46v37h114q129 0 197.5 13.5t110.5 60.5h20v-175q144 175 346 175q135 0 214 -75t79 -243v-543q0 -73 20 -106.5t66 -44.5v-37h-526v37q46 11 66 44.5t20 106.5v580q0 152 -99 152q-79 0 -186 -107v-625 q0 -73 19.5 -106.5t66.5 -44.5v-37h-528z" />
<glyph unicode="o" horiz-adv-x="1120" d="M45 512q0 255 134 396t380 141q247 0 381.5 -140.5t134.5 -396.5t-134.5 -396.5t-381.5 -140.5q-246 0 -380 141t-134 396zM424 512q0 -285 26 -390.5t109 -105.5q84 0 110.5 105.5t26.5 390.5t-26.5 390.5t-110.5 105.5q-82 0 -108.5 -107t-26.5 -389z" />
<glyph unicode="p" horiz-adv-x="1181" d="M27 -375q46 12 66 46.5t20 107.5v1007q0 72 -19.5 106t-66.5 46v37h114q129 0 197.5 13.5t110.5 60.5h20v-144q61 70 131 107t168 37q154 0 255 -134t101 -374q0 -257 -112.5 -411.5t-282.5 -154.5q-184 0 -260 146v-342q0 -73 19.5 -107.5t66.5 -46.5v-35h-528v35z M469 383q0 -143 36 -217t95 -74q76 0 109.5 95t33.5 325q0 165 -11.5 256t-37.5 130.5t-73 39.5q-33 0 -66 -20t-86 -74v-461z" />
<glyph unicode="q" horiz-adv-x="1169" d="M57 483q0 262 117 414t301 152q137 0 209.5 -79t101.5 -263q85 54 139 131.5t103 218.5h41v-1278q0 -73 19.5 -107.5t66.5 -46.5v-35h-528v35q46 12 66 46.5t20 107.5v340q-63 -71 -132 -107.5t-167 -36.5q-157 0 -257 132.5t-100 375.5zM436 512q0 -162 12 -254.5 t38.5 -132t72.5 -39.5q34 0 68 20t86 74v461q0 142 -36.5 216.5t-94.5 74.5q-77 0 -111.5 -95.5t-34.5 -324.5z" />
<glyph unicode="r" horiz-adv-x="976" d="M27 0v37q46 11 66 44.5t20 106.5v598q0 72 -19.5 106t-66.5 46v37h114q129 0 197.5 13.5t110.5 60.5h20v-189q72 98 130.5 143.5t125.5 45.5q37 0 63.5 -13.5t38.5 -29.5t28 -29.5t34 -13.5q19 0 51 28l14 -30q-39 -275 -215 -275q-35 0 -61 11t-41 27t-26 40t-15.5 44 t-10.5 44.5t-10 36.5q-5 25 -36 -7q-21 -23 -70 -87v-607q0 -73 40 -106.5t136 -44.5v-37h-618z" />
<glyph unicode="s" horiz-adv-x="907" d="M43 408h41q26 -100 54.5 -172t55.5 -114t59 -66t60.5 -32t65.5 -8q57 0 82.5 28.5t25.5 74.5q0 37 -14 74.5t-48 85t-62 80.5t-84 96q-107 109 -156 186.5t-49 165.5q0 124 97.5 183t266.5 59q73 0 179 -13.5t157 -13.5l55 -365h-38q-22 95 -47.5 162t-48.5 103.5 t-52.5 56.5t-51 24.5t-52.5 4.5q-43 0 -68 -21.5t-25 -56.5q0 -58 50.5 -134t152.5 -184q111 -116 160 -194t49 -168q0 -275 -397 -275q-90 0 -207.5 13.5t-159.5 13.5z" />
<glyph unicode="t" horiz-adv-x="733" d="M20 983v41q117 1 197.5 21.5t130 64.5t75.5 99.5t42 138.5h33v-324h194v-41q-87 0 -127 -9t-53.5 -29.5t-13.5 -67.5v-562q0 -51 1.5 -79.5t7 -55t18 -37t32.5 -10.5q38 0 63.5 60.5t47.5 199.5l37 -14q-15 -105 -33.5 -172t-52 -123.5t-87 -82.5t-131.5 -26 q-79 0 -130 23t-79 73t-38.5 116t-10.5 167v523q0 37 -2.5 54t-15.5 31t-36.5 17.5t-68.5 3.5z" />
<glyph unicode="u" horiz-adv-x="1247" d="M39 940v35h115q129 0 197 14t110 62h20v-795q0 -152 99 -152q81 0 188 107v575q0 73 -20 107.5t-66 46.5v35h115q127 0 195 14t110 62h20v-811q0 -73 20 -107t66 -45v-37h-114q-127 0 -195.5 -14t-110.5 -62h-20v177q-144 -179 -348 -179q-136 0 -215.5 75.5t-79.5 244.5 v493q0 73 -19.5 107.5t-66.5 46.5z" />
<glyph unicode="v" horiz-adv-x="1105" d="M20 989v35h619v-35q-64 -12 -75 -43q-3 -9 -3 -21q0 -30 19 -79l174 -492l149 490q15 45 15 74q0 16 -4 28q-14 32 -78 43v35h249v-35q-50 -13 -84.5 -46t-56.5 -99l-274 -869h-176l-324 873q-23 64 -60.5 95.5t-89.5 45.5z" />
<glyph unicode="w" horiz-adv-x="1685" d="M20 989v35h1192v-37q-59 -9 -69 -41q-3 -9 -3 -21q0 -29 19 -75l174 -492l148 488q15 43 15 72q0 16 -4 27q-12 32 -73 42v37h246v-35q-105 -27 -141 -145l-275 -869h-164l-231 625l-197 -625h-163l-324 873q-23 64 -60.5 95.5t-89.5 45.5zM562 950q-6 -15 -6 -34 q0 -28 13 -66l172 -492l93 299l-72 193q-25 70 -55.5 103.5t-77.5 33.5q-51 -1 -67 -37z" />
<glyph unicode="x" horiz-adv-x="1034" d="M27 989v35h600v-35q-64 -12 -73 -42q-2 -7 -2 -16q0 -30 23 -81l105 -252l106 254q26 52 26 82q0 8 -2 14q-8 30 -73 41v35h252v-35q-111 -30 -158 -137l-129 -307l154 -371q45 -110 150 -137v-37h-600v37q63 10 72 40q2 7 2 16q0 30 -23 81l-107 258l-110 -258 q-25 -53 -25 -83q-1 -8 1 -14q8 -30 73 -40v-37h-252v37q112 26 158 135l133 311l-152 367q-45 110 -149 139z" />
<glyph unicode="y" horiz-adv-x="1071" d="M20 989v35h611v-35q-64 -12 -77 -43q-4 -10 -4 -25q0 -29 17 -75l158 -481l143 479q15 45 15 74q0 16 -5 28q-13 31 -79 43v35h252v-35q-50 -13 -85 -46t-55 -99l-311 -1047q-16 -52 -27.5 -83t-28.5 -63.5t-35.5 -49.5t-45 -28t-60.5 -11t-85.5 13t-90.5 13l-61 392h41 q29 -124 54.5 -201.5t50.5 -115t45.5 -49t50.5 -11.5q54 0 87.5 49t71.5 178l43 145h-141l-303 871q-39 115 -146 143z" />
<glyph unicode="z" horiz-adv-x="927" d="M43 0v41l418 942h-121q-54 0 -84 -9t-58 -44.5t-48 -97t-46 -175.5h-41l56 367h749v-41l-415 -942h157q43 0 68.5 6.5t50 26t42 62t35 106.5t38.5 168h41l-54 -410h-788z" />
<glyph unicode="{" horiz-adv-x="710" d="M25 594v41q42 0 73.5 5t52.5 18.5t34.5 27t19.5 40t8 48.5t-2 61t-8 68.5t-11.5 81t-11.5 88.5q-4 47 -6 93t9.5 89.5t31 82.5t59.5 73t94 60t135 44.5t183 26.5v-20q-93 -35 -116.5 -120.5t-8.5 -260.5q19 -238 -51 -363t-256 -164q186 -39 256 -163.5t51 -360.5 q-15 -177 8.5 -262.5t116.5 -120.5v-20q-102 8 -183 26.5t-135 44.5t-94 60t-60 73t-31.5 82.5t-9.5 89.5t5 93q5 37 12.5 88.5t11.5 81t8 68.5t2 61t-7.5 48.5t-19 40t-34.5 27t-52.5 18.5t-73.5 5z" />
<glyph unicode="|" horiz-adv-x="163" d="M61 -123v1679h41v-1679h-41z" />
<glyph unicode="}" horiz-adv-x="710" d="M25 -293q93 35 116.5 120.5t8.5 262.5q-19 236 51 360.5t256 163.5q-186 39 -256 164t-51 363q15 175 -8.5 260.5t-116.5 120.5v20q102 -8 183 -26.5t135 -44.5t93.5 -60t59 -73t31 -82.5t9.5 -89.5t-6 -93q-4 -35 -10.5 -80.5l-10.5 -73.5t-8 -64t-3.5 -58t3 -48t11 -41 t22.5 -31t35 -24t50 -13t67 -5v-41q-38 0 -67 -5t-50 -13t-35 -24t-22 -31t-11 -41t-3 -48t4 -58t8 -64t11 -74t11 -80q3 -47 5 -93t-9.5 -89.5t-31 -82.5t-59.5 -73t-94 -60t-135 -44.5t-183 -26.5v20z" />
<glyph unicode="~" horiz-adv-x="700" d="M102 467q37 64 70 92.5t84 28.5q34 0 63.5 -17t46.5 -37.5t42.5 -37.5t52.5 -17q37 0 56.5 20.5t43.5 75.5l37 -16q-25 -63 -55.5 -92t-81.5 -29q-29 0 -53.5 11t-41.5 27t-33 32.5t-35.5 27.5t-41.5 11q-38 0 -59 -19.5t-58 -76.5z" />
<glyph unicode="&#xa1;" horiz-adv-x="403" d="M63 905q0 62 40 103t108 41t106.5 -41t38.5 -103t-38.5 -101.5t-106.5 -39.5q-69 0 -108.5 39.5t-39.5 101.5zM66 -279q0 53 19 139t42 173.5t42 239.5t19 321h41q0 -169 20 -321t43.5 -239.5t43.5 -173.5t20 -139q0 -73 -40 -116t-105 -43q-66 0 -105.5 43t-39.5 116z " />
<glyph unicode="&#xa2;" horiz-adv-x="997" d="M57 709q0 251 144.5 397.5t394.5 146.5h25v303h41v-305q27 -3 91.5 -13.5t102.5 -10.5l49 -365h-41q-19 102 -43 172t-51 106.5t-52 52.5t-56 19v-888q8 -2 22 -2q165 0 236 274l41 -8q-71 -324 -299 -389v-322h-41v311q-41 -8 -97 -8q-215 0 -341 142t-126 387zM436 813 q0 -185 48 -314t137 -165v876q-93 -12 -139 -118t-46 -279z" />
<glyph unicode="&#xa3;" horiz-adv-x="1069" d="M78 219q0 98 66.5 166t177.5 68q72 0 126.5 -32.5t110.5 -90.5q-5 49 -25 97.5t-50.5 91.5t-65.5 84t-75 84q-14 15 -21 22h-226v41h189q-82 93 -128 184t-46 201q0 162 127 242.5t344 80.5q75 0 165 -13t144 -13l53 -500h-47q-29 154 -56 252.5t-56 148t-56 67t-63 17.5 q-136 0 -136 -309q0 -177 29 -358h266v-41h-258q9 -50 27 -138t26.5 -145t8.5 -109q0 -23 -4 -59q45 -46 83 -70t85 -24q61 0 97 48.5t56 168.5h47q-10 -125 -27.5 -208t-44.5 -125t-55.5 -57.5t-68.5 -15.5q-42 0 -82 24t-65.5 52.5t-61.5 77.5q-36 -72 -99.5 -113 t-146.5 -41q-108 0 -186 61.5t-78 182.5zM190 172q0 -69 42.5 -112.5t115.5 -43.5q78 0 127.5 46.5t71.5 121.5q-49 60 -97 93.5t-110 33.5q-65 0 -107.5 -36.5t-42.5 -102.5z" />
<glyph unicode="&#xa4;" horiz-adv-x="933" d="M49 240l170 172q-94 120 -94 305q0 183 94 307l-170 170l29 29l168 -168q92 92 221 92t221 -92l168 168l29 -29l-170 -170q94 -127 94 -307t-94 -307l170 -170l-29 -29l-168 168q-92 -92 -221 -92q-130 0 -221 94l-168 -170zM166 717q0 -166 82.5 -277.5t218.5 -111.5 q135 0 218 112t83 277t-83 277t-218 112q-136 0 -218.5 -111.5t-82.5 -277.5z" />
<glyph unicode="&#xa5;" horiz-adv-x="1214" d="M20 1399v35h644v-35q-64 -12 -74 -42.5t18 -99.5l140 -376h114l139 376q27 69 16.5 99.5t-73.5 42.5v35h250v-35q-50 -14 -87 -46t-60 -96l-138 -376h244v-41h-258l-45 -123h303v-41h-317l-13 -33v-455q0 -73 19 -106.5t65 -44.5v-37h-536v37q46 11 65 44.5t19 106.5v377 l-45 111h-344v41h327l-49 123h-278v41h262l-152 379q-45 110 -156 139zM762 840l43 -117l43 117h-86z" />
<glyph unicode="&#xa6;" horiz-adv-x="163" d="M61 -123v655h41v-655h-41zM61 901v655h41v-655h-41z" />
<glyph unicode="&#xa7;" horiz-adv-x="1046" d="M68 551q0 120 82 195t229 100q-95 95 -135.5 162t-40.5 153q0 79 47 129.5t121.5 71t177.5 20.5q87 0 193 -14t151 -14l47 -350h-41q-22 112 -47 183.5t-53.5 102.5t-51 40t-55.5 9q-39 0 -61.5 -26.5t-22.5 -73.5t23 -93.5t45 -73.5t92 -102q17 -20 27 -30 q95 -101 140.5 -184t45.5 -183q0 -120 -82 -194.5t-229 -99.5q92 -92 134 -159.5t42 -154.5q0 -117 -93.5 -170t-252.5 -53q-88 0 -193.5 14.5t-150.5 14.5l-47 350h41q18 -91 38.5 -155t39 -99t42 -54t42 -23.5t44.5 -4.5q38 0 61 27t23 73q0 18 -2 33.5t-8.5 32.5t-11 29 t-17.5 31t-20 29.5t-26.5 32.5t-29 33t-34.5 39t-37 41q-94 97 -140 180t-46 185zM399 639q0 -16 2 -30.5t8.5 -30.5t11 -26.5t18 -29t20.5 -27.5t28 -31.5t30 -31.5t37 -37.5t40 -40.5q55 49 55 133q0 22 -3.5 40.5t-14.5 39.5t-18.5 34t-30.5 38t-34 37t-44.5 45.5 l-48.5 48.5q-56 -53 -56 -131z" />
<glyph unicode="&#xa8;" horiz-adv-x="798" d="M35 1333q0 53 30.5 83t84.5 30t83 -30t29 -83t-29 -81.5t-83 -28.5t-84.5 29t-30.5 81zM428 1333q0 53 30.5 83t84.5 30t84 -30t30 -83q0 -52 -30 -81t-84 -29t-84.5 29t-30.5 81z" />
<glyph unicode="&#xa9;" horiz-adv-x="1454" d="M61 717q0 162 50 300.5t138 235.5t211.5 152t266.5 55t266.5 -55t211.5 -152t138 -235.5t50 -300.5q0 -216 -86 -386t-237.5 -264t-342.5 -94t-342.5 94t-237.5 264t-86 386zM102 717q0 -206 80.5 -366.5t222.5 -248.5t322 -88q179 0 321.5 88.5t223 249.5t80.5 365 t-80.5 364.5t-223 249t-321.5 88.5t-321.5 -88.5t-223 -249t-80.5 -364.5zM373 707q0 203 115.5 321.5t308.5 118.5q47 0 108.5 -10.5t89.5 -10.5l41 -292h-32q-17 87 -37.5 145.5t-43.5 86t-43.5 38t-45.5 10.5q-156 0 -156 -315q0 -175 48.5 -286.5t139.5 -111.5 q125 0 183 220l32 -9q-40 -173 -124.5 -249t-215.5 -76q-168 0 -268 113.5t-100 306.5z" />
<glyph unicode="&#xaa;" horiz-adv-x="806" d="M51 989q0 145 67.5 217t170.5 72q132 0 184 -117v43q0 121 -31.5 169t-103.5 48q-134 0 -215 -141h-31l62 147q26 0 102.5 11.5t124.5 11.5q63 0 117 -13.5t101 -42.5t74 -81.5t27 -124.5v-260q0 -77 19.5 -100.5t83.5 -10.5l12 -33l-153 -59q-71 -25 -115 -25 q-38 0 -56 18.5t-18 59.5v39q-52 -117 -184 -117q-103 0 -170.5 72t-67.5 217zM272 989q0 -205 103 -205q46 0 72 51t26 154q0 205 -98 205q-103 0 -103 -205z" />
<glyph unicode="&#xab;" horiz-adv-x="718" d="M49 514q0 61 60 113l249 209l27 -19l-145 -303l145 -303l-27 -18l-249 208q-60 52 -60 113zM348 514q0 61 60 113l249 209l27 -19l-145 -303l145 -303l-27 -18l-249 208q-60 52 -60 113z" />
<glyph unicode="&#xac;" horiz-adv-x="626" d="M102 561v41h422v-211h-41v170h-381z" />
<glyph unicode="&#xad;" horiz-adv-x="649" d="M61 492v40h527v-40h-527z" />
<glyph unicode="&#xae;" horiz-adv-x="808" d="M49 1085q0 166 101 270.5t253 104.5q153 0 255 -104.5t102 -270.5t-102 -270t-255 -104q-152 0 -253 104t-101 270zM90 1085q0 -150 89 -241.5t224 -91.5q136 0 226 92.5t90 240.5q0 150 -90 242t-226 92q-135 0 -224 -92t-89 -242zM236 883v12q17 4 23.5 16.5t6.5 38.5 v289q0 26 -6.5 38.5t-23.5 16.5v13h38q35 0 78 4.5t66 3.5q137 0 137 -105q0 -41 -26.5 -68t-69.5 -36q51 -8 70 -34t24 -77q7 -62 14.5 -78t26.5 -16v-18q-52 0 -78.5 3.5t-42.5 18t-20.5 32.5t-8.5 58q-8 62 -15.5 83.5t-25.5 21.5q-14 0 -28 4v-154q0 -26 7 -38t24 -17 v-12h-170zM375 1124q16 -4 24 -4q41 0 41 90q0 84 -39 84q-6 0 -26 -4v-166z" />
<glyph unicode="&#xaf;" horiz-adv-x="690" d="M70 1262v92h551v-92h-551z" />
<glyph unicode="&#xb0;" horiz-adv-x="581" d="M57 1176q0 124 65 203t169 79q102 0 167.5 -79.5t65.5 -202.5t-65.5 -203t-167.5 -80q-104 0 -169 79.5t-65 203.5zM98 1176q0 -107 53 -174.5t140 -67.5q85 0 138.5 68.5t53.5 173.5q0 106 -53 173.5t-139 67.5q-87 0 -140 -67t-53 -174z" />
<glyph unicode="&#xb1;" horiz-adv-x="626" d="M102 236v40h422v-40h-422zM102 553v41h191v190h41v-190h190v-41h-190v-188h-41v188h-191z" />
<glyph unicode="&#xb2;" horiz-adv-x="540" d="M12 922v20q67 97 106.5 158.5t85.5 144t67.5 153t21.5 132.5q0 49 -16.5 74.5t-57.5 25.5q-48 0 -82.5 -55t-66.5 -207h-21l27 272q19 0 72.5 5.5t97.5 5.5q274 0 274 -195q0 -69 -31 -128t-91.5 -106.5t-123 -82.5t-153.5 -74h205q78 0 108.5 26.5t48.5 116.5h21 l-27 -286h-465z" />
<glyph unicode="&#xb3;" horiz-adv-x="559" d="M20 1208h21q29 -165 61.5 -221.5t85.5 -56.5q57 0 87 61t30 164q0 79 -21 132.5t-63 53.5q-32 0 -82 -47l-14 17q72 83 105.5 139t33.5 115q0 65 -57 65q-50 0 -83.5 -55t-62.5 -207h-20l27 272q20 0 82.5 5.5t111.5 5.5q207 0 207 -127q0 -108 -139 -152 q81 -7 145 -64.5t64 -158.5q0 -126 -91.5 -183t-238.5 -57q-46 0 -95.5 5.5t-66.5 5.5z" />
<glyph unicode="&#xb4;" horiz-adv-x="595" d="M61 1217l215 143q128 81 193.5 49.5t65.5 -158.5l-463 -61z" />
<glyph unicode="&#xb6;" horiz-adv-x="1021" d="M39 1081q0 153 103 253t294 100h498v-1553h-41v1512h-311v-1512h-41v848h-105q-191 0 -294 99.5t-103 252.5z" />
<glyph unicode="&#xb7;" horiz-adv-x="382" d="M45 528q0 62 39.5 102t108.5 40q68 0 106.5 -40t38.5 -102t-38.5 -102.5t-106.5 -40.5q-69 0 -108.5 40.5t-39.5 102.5z" />
<glyph unicode="&#xb8;" horiz-adv-x="524" d="M47 -184h43q26 -127 49.5 -169t57.5 -42q53 0 53 78q0 61 -32 115t-81 71v20l43 111h45l-43 -109q295 -9 295 -167q0 -77 -66.5 -114.5t-172.5 -37.5q-36 0 -81 7t-73 7z" />
<glyph unicode="&#xb9;" horiz-adv-x="380" d="M25 1505v21q171 11 276 125h10v-635q0 -63 49 -74v-20h-303v20q47 11 47 74v411q0 42 -16 60t-63 18z" />
<glyph unicode="&#xba;" horiz-adv-x="763" d="M43 1075q0 182 88 278.5t250 96.5q164 0 252 -96.5t88 -278.5t-88 -278.5t-252 -96.5q-162 0 -250 96.5t-88 278.5zM285 1075q0 -196 19.5 -271t76.5 -75q60 0 79 73.5t19 272.5q0 197 -19.5 271.5t-78.5 74.5q-57 0 -76.5 -75.5t-19.5 -270.5z" />
<glyph unicode="&#xbb;" horiz-adv-x="718" d="M35 211l145 303l-145 303l26 19l250 -209q60 -52 60 -113t-60 -113l-250 -208zM334 211l145 303l-145 303l26 19l250 -209q60 -52 60 -113t-60 -113l-250 -208z" />
<glyph unicode="&#xbc;" horiz-adv-x="1040" d="M25 1300v21q171 11 276 125h10v-635q0 -63 49 -74v-20h-303v20q47 11 47 74v412q0 42 -16 59.5t-63 17.5zM125 0l618 1434h45l-618 -1434h-45zM471 158v20l264 559h10q54 -26 96.5 -33.5t106.5 -7.5v-393h80v-145h-80v-64q0 -63 49 -74v-20h-311v20q49 11 49 74v64h-264z M553 303h182v385z" />
<glyph unicode="&#xbd;" horiz-adv-x="1050" d="M25 1300v21q171 11 276 125h10v-635q0 -63 49 -74v-20h-303v20q47 11 47 74v412q0 42 -16 59.5t-63 17.5zM125 0l618 1434h45l-618 -1434h-45zM522 0v20q67 97 106.5 158.5t85.5 144t67.5 153t21.5 132.5q0 101 -74 101q-48 0 -82.5 -55.5t-66.5 -207.5h-21l27 273 q19 0 72.5 5t97.5 5q274 0 274 -194q0 -69 -31 -128t-91.5 -107t-123.5 -83t-153 -74h205q78 0 108.5 26.5t48.5 117.5h21l-27 -287h-465z" />
<glyph unicode="&#xbe;" horiz-adv-x="1191" d="M20 1004h21q29 -165 61.5 -222t85.5 -57q57 0 87 61t30 164q0 79 -21 133t-63 54q-32 0 -82 -47l-14 16q72 83 105.5 139t33.5 115q0 65 -57 65q-50 0 -83.5 -55t-62.5 -207h-20l27 273q20 0 82.5 5t111.5 5q207 0 207 -127q0 -108 -139 -152q81 -7 145 -64.5t64 -158.5 q0 -65 -26 -113t-73 -74.5t-104 -39t-127 -12.5q-46 0 -95.5 5t-66.5 5zM276 0l619 1434h45l-618 -1434h-46zM623 158v20l264 559h10q54 -26 96.5 -33.5t106.5 -7.5v-393h80v-145h-80v-64q0 -63 49 -74v-20h-311v20q49 11 49 74v64h-264zM705 303h182v385z" />
<glyph unicode="&#xbf;" horiz-adv-x="829" d="M49 -197q0 39 11 74.5t25.5 62t42.5 54t47.5 44t56 38.5t52.5 30.5t52 26.5q51 28 84 57t55 63t33 84t15.5 108t4.5 149h41q0 -259 -12 -360.5t-53 -208.5q-3 -11 -17 -55t-17.5 -56t-12.5 -45.5t-12 -51.5t-6 -44.5t-3 -51.5q0 -59 17 -86.5t57 -27.5q47 0 81.5 37 t72.5 154t75 327h41l-49 -533q-50 0 -140.5 -13t-187.5 -13q-165 0 -259.5 58t-94.5 179zM401 905q0 63 39.5 104.5t108.5 41.5t108 -41t39 -105q0 -61 -39.5 -101t-107.5 -40t-108 40t-40 101z" />
<glyph unicode="&#xc0;" horiz-adv-x="1179" d="M20 0v37q49 11 80 44.5t47 102.5l252 1110l-14 66v20q148 0 218 14.5t138 63.5h21l272 -1274q14 -68 44.5 -102t78.5 -45v-37h-604v37q65 10 82 42t2 105l-43 203h-358l-48 -203q-15 -74 1 -105.5t81 -41.5v-37h-250zM244 428h342l-166 770zM340 1620q0 127 64.5 158.5 t193.5 -49.5l215 -144l-10 -26z" />
<glyph unicode="&#xc1;" horiz-adv-x="1179" d="M20 0v37q49 11 80 44.5t47 102.5l252 1110l-14 66v20q148 0 218 14.5t138 63.5h21l272 -1274q14 -68 44.5 -102t78.5 -45v-37h-604v37q65 10 82 42t2 105l-43 203h-358l-48 -203q-15 -74 1 -105.5t81 -41.5v-37h-250zM244 428h342l-166 770zM340 1585l215 144 q127 81 192.5 49.5t65.5 -158.5l-463 -61z" />
<glyph unicode="&#xc2;" horiz-adv-x="1179" d="M20 0v37q49 11 80 44.5t47 102.5l252 1110l-14 66v20q148 0 218 14.5t138 63.5h21l272 -1274q14 -68 44.5 -102t78.5 -45v-37h-604v37q65 10 82 42t2 105l-43 203h-358l-48 -203q-15 -74 1 -105.5t81 -41.5v-37h-250zM244 428h342l-166 770zM289 1571l200 205 q42 45 84 45t84 -45l205 -205l-26 -27l-263 105l-258 -105z" />
<glyph unicode="&#xc3;" horiz-adv-x="1179" d="M20 0v37q49 11 80 44.5t47 102.5l252 1110l-14 66v20q148 0 218 14.5t138 63.5h21l272 -1274q14 -68 44.5 -102t78.5 -45v-37h-604v37q65 10 82 42t2 105l-43 203h-358l-48 -203q-15 -74 1 -105.5t81 -41.5v-37h-250zM244 428h342l-166 770zM281 1602q77 231 194 231 q44 0 89.5 -23.5t85 -47t69.5 -23.5q35 0 58 19t57 65l36 -17q-27 -98 -74.5 -164.5t-115.5 -66.5q-43 0 -88 23.5t-85 47t-71 23.5q-34 0 -60.5 -20t-58.5 -64z" />
<glyph unicode="&#xc4;" horiz-adv-x="1179" d="M20 0v37q49 11 80 44.5t47 102.5l252 1110l-14 66v20q148 0 218 14.5t138 63.5h21l272 -1274q14 -68 44.5 -102t78.5 -45v-37h-604v37q65 10 82 42t2 105l-43 203h-358l-48 -203q-15 -74 1 -105.5t81 -41.5v-37h-250zM227 1686q0 62 41 97.5t113 35.5q70 0 110.5 -35.5 t40.5 -97.5q0 -63 -40.5 -99.5t-110.5 -36.5q-72 0 -113 36.5t-41 99.5zM244 428h342l-166 770zM621 1686q0 62 40.5 97.5t112.5 35.5q71 0 112.5 -36t41.5 -97q0 -63 -41.5 -99.5t-112.5 -36.5q-72 0 -112.5 36.5t-40.5 99.5z" />
<glyph unicode="&#xc5;" horiz-adv-x="1179" d="M20 0v37q49 11 80 44.5t47 102.5l252 1110l-14 66v20q148 0 218 14.5t138 63.5h21l272 -1274q14 -68 44.5 -102t78.5 -45v-37h-604v37q65 10 82 42t2 105l-43 203h-358l-48 -203q-15 -74 1 -105.5t81 -41.5v-37h-250zM244 428h342l-166 770zM395 1683q0 64 50.5 107 t129.5 43q78 0 129.5 -43.5t51.5 -106.5q0 -64 -51.5 -106.5t-129.5 -42.5q-79 0 -129.5 42t-50.5 107zM440 1683q0 -48 37.5 -80t97.5 -32q59 0 97.5 32t38.5 80t-38 79.5t-98 31.5q-61 0 -98 -31.5t-37 -79.5z" />
<glyph unicode="&#xc6;" horiz-adv-x="1546" d="M8 0v37q59 11 99 43t63 98l422 1178q-19 30 -64 43v35h902l51 -533h-41q-17 115 -32 194t-32.5 135t-33.5 87t-40 48.5t-47 22.5t-59 5h-215v-609h164q30 0 46 4t30 17.5t16.5 39.5t5 70t-3.5 109h41l41 -541h-41q-6 57 -11 90.5t-10.5 65.5t-13 47.5t-15.5 29t-22.5 18 t-29.5 7t-39 2.5h-158v-702h240q51 0 80.5 13.5t60 65t54 155.5t48.5 282h41l-49 -557h-928v37q46 11 65 44.5t19 106.5v199h-323l-76 -209q-27 -70 -13 -100.5t87 -40.5v-37h-279zM303 428h309v817q0 27 -2 37z" />
<glyph unicode="&#xc7;" horiz-adv-x="1128" d="M47 717q0 185 50 328t139.5 232.5t209 135t263.5 45.5q73 0 165.5 -13t131.5 -13l49 -531h-41q-18 129 -41 221.5t-47.5 149.5t-57 89.5t-64 44t-73.5 11.5q-133 0 -205.5 -167.5t-72.5 -485.5q0 -311 78 -478t221 -167q254 0 315 481l39 -8q-16 -147 -47 -256 t-71.5 -177.5t-97 -110t-117.5 -57.5t-140 -16h-29l-33 -84q295 -9 295 -167q0 -77 -66.5 -114.5t-172.5 -37.5q-36 0 -81 7t-73 7l-37 230h43q26 -127 49.5 -169t57.5 -42q53 0 53 78q0 61 -32 115t-81 71v20l35 91q-234 26 -374 214t-140 523z" />
<glyph unicode="&#xc8;" horiz-adv-x="1077" d="M59 0v37q46 11 65 44.5t19 106.5v1057q0 73 -19 107.5t-65 46.5v35h902l51 -533h-41q-17 115 -32 194t-32.5 135t-33.5 87t-40 48.5t-47 22.5t-59 5h-215v-609h164q30 0 46 4t30 17.5t16.5 39.5t5 70t-3.5 109h41l41 -541h-41q-6 57 -11 90.5t-10.5 65.5t-13 47.5 t-15.5 29t-22.5 18t-29.5 7t-39 2.5h-158v-702h240q51 0 80.5 13.5t60 65t54 155.5t48.5 282h41l-49 -557h-928zM338 1620q0 127 64.5 158.5t193.5 -49.5l215 -144l-10 -26z" />
<glyph unicode="&#xc9;" horiz-adv-x="1077" d="M59 0v37q46 11 65 44.5t19 106.5v1057q0 73 -19 107.5t-65 46.5v35h902l51 -533h-41q-17 115 -32 194t-32.5 135t-33.5 87t-40 48.5t-47 22.5t-59 5h-215v-609h164q30 0 46 4t30 17.5t16.5 39.5t5 70t-3.5 109h41l41 -541h-41q-6 57 -11 90.5t-10.5 65.5t-13 47.5 t-15.5 29t-22.5 18t-29.5 7t-39 2.5h-158v-702h240q51 0 80.5 13.5t60 65t54 155.5t48.5 282h41l-49 -557h-928zM338 1585l215 144q127 81 192.5 49.5t65.5 -158.5l-463 -61z" />
<glyph unicode="&#xca;" horiz-adv-x="1077" d="M59 0v37q46 11 65 44.5t19 106.5v1057q0 73 -19 107.5t-65 46.5v35h902l51 -533h-41q-17 115 -32 194t-32.5 135t-33.5 87t-40 48.5t-47 22.5t-59 5h-215v-609h164q30 0 46 4t30 17.5t16.5 39.5t5 70t-3.5 109h41l41 -541h-41q-6 57 -11 90.5t-10.5 65.5t-13 47.5 t-15.5 29t-22.5 18t-29.5 7t-39 2.5h-158v-702h240q51 0 80.5 13.5t60 65t54 155.5t48.5 282h41l-49 -557h-928zM287 1571l200 205q42 45 84 45t84 -45l205 -205l-26 -27l-263 105l-258 -105z" />
<glyph unicode="&#xcb;" horiz-adv-x="1077" d="M59 0v37q46 11 65 44.5t19 106.5v1057q0 73 -19 107.5t-65 46.5v35h902l51 -533h-41q-17 115 -32 194t-32.5 135t-33.5 87t-40 48.5t-47 22.5t-59 5h-215v-609h164q30 0 46 4t30 17.5t16.5 39.5t5 70t-3.5 109h41l41 -541h-41q-6 57 -11 90.5t-10.5 65.5t-13 47.5 t-15.5 29t-22.5 18t-29.5 7t-39 2.5h-158v-702h240q51 0 80.5 13.5t60 65t54 155.5t48.5 282h41l-49 -557h-928zM225 1686q0 62 41 97.5t113 35.5q70 0 110.5 -35.5t40.5 -97.5q0 -63 -40.5 -99.5t-110.5 -36.5q-72 0 -113 36.5t-41 99.5zM618 1686q0 62 41 97.5t113 35.5 q71 0 112.5 -36t41.5 -97q0 -63 -41.5 -99.5t-112.5 -36.5q-72 0 -113 36.5t-41 99.5z" />
<glyph unicode="&#xcc;" horiz-adv-x="655" d="M59 0v37q46 11 65 44.5t19 106.5v1057q0 73 -19 107.5t-65 46.5v35h537v-35q-46 -12 -65 -46.5t-19 -107.5v-1057q0 -73 19 -106.5t65 -44.5v-37h-537zM92 1645q0 127 64.5 158t193.5 -50l215 -143l-10 -27z" />
<glyph unicode="&#xcd;" horiz-adv-x="655" d="M59 0v37q46 11 65 44.5t19 106.5v1057q0 73 -19 107.5t-65 46.5v35h537v-35q-46 -12 -65 -46.5t-19 -107.5v-1057q0 -73 19 -106.5t65 -44.5v-37h-537zM90 1610l215 143q127 81 192.5 50t65.5 -158l-463 -62z" />
<glyph unicode="&#xce;" horiz-adv-x="655" d="M41 1595l201 205q42 45 84 45t84 -45l204 -205l-26 -26l-262 104l-258 -104zM59 0v37q46 11 65 44.5t19 106.5v1057q0 73 -19 107.5t-65 46.5v35h537v-35q-46 -12 -65 -46.5t-19 -107.5v-1057q0 -73 19 -106.5t65 -44.5v-37h-537z" />
<glyph unicode="&#xcf;" horiz-adv-x="655" d="M-23 1710q0 62 41 97.5t113 35.5q70 0 111 -35.5t41 -97.5q0 -63 -40.5 -99t-111.5 -36q-72 0 -113 36t-41 99zM59 0v37q46 11 65 44.5t19 106.5v1057q0 73 -19 107.5t-65 46.5v35h537v-35q-46 -12 -65 -46.5t-19 -107.5v-1057q0 -73 19 -106.5t65 -44.5v-37h-537z M371 1710q0 62 40.5 97.5t112.5 35.5q71 0 112.5 -36t41.5 -97q0 -63 -41.5 -99t-112.5 -36q-72 0 -112.5 36t-40.5 99z" />
<glyph unicode="&#xd0;" horiz-adv-x="1413" d="M59 0v37q46 11 65 44.5t19 106.5v508h-84v41h84v508q0 73 -19 107.5t-65 46.5v35h113q68 1 224.5 10.5t215.5 9.5q73 0 137 -9t129 -31.5t117.5 -58.5t98.5 -94t77.5 -133.5t49.5 -180.5t18 -232t-18 -232t-49.5 -180t-78 -132.5t-98.5 -93t-117 -58t-128.5 -31 t-137.5 -8.5q-59 0 -215.5 9.5t-224.5 10.5h-113zM512 31q54 -11 94 -11q45 0 79 19t63 67t47.5 126.5t28.5 199t10 283.5q0 203 -15 341t-46 215.5t-71 109.5t-96 32q-48 0 -94 -10v-666h188v-41h-188v-665z" />
<glyph unicode="&#xd1;" horiz-adv-x="1093" d="M47 1399v35h500l399 -965v776q0 73 -19 107.5t-65 46.5v35h209v-35q-45 -12 -64.5 -47t-19.5 -107v-1245h-272l-531 1260l-10 22v-1094q0 -72 19.5 -106t64.5 -45v-37h-209v37q46 11 65 44.5t19 106.5v1153q-37 40 -86 58zM252 1642q77 232 194 232q44 0 89.5 -23.5 t85 -47t69.5 -23.5q35 0 58 19t57 65l37 -17q-17 -62 -40.5 -110.5t-63.5 -84.5t-87 -36q-43 0 -88 23.5t-84.5 47t-70.5 23.5q-34 0 -60.5 -20t-58.5 -64z" />
<glyph unicode="&#xd2;" d="M53 717q0 155 31 280.5t85 210.5t129 142t160 82.5t181 25.5t180.5 -25t160 -82t129 -141.5t85 -210.5t31.5 -282t-31 -282t-85 -211t-129 -141.5t-160 -82t-181 -25.5t-181 25.5t-160 83t-129 142t-85 210.5t-31 281zM403 1620q0 127 65 158.5t194 -49.5l215 -144 l-11 -26zM459 717q0 -288 17 -437.5t54.5 -206.5t108.5 -57q72 0 109.5 57t55 206t17.5 438q0 218 -8.5 351t-31 212.5t-55.5 108t-87 28.5q-71 0 -108.5 -56.5t-54.5 -206t-17 -437.5z" />
<glyph unicode="&#xd3;" d="M53 717q0 155 31 280.5t85 210.5t129 142t160 82.5t181 25.5t180.5 -25t160 -82t129 -141.5t85 -210.5t31.5 -282t-31 -282t-85 -211t-129 -141.5t-160 -82t-181 -25.5t-181 25.5t-160 83t-129 142t-85 210.5t-31 281zM401 1585l215 144q128 81 193 49.5t65 -158.5 l-462 -61zM459 717q0 -288 17 -437.5t54.5 -206.5t108.5 -57q72 0 109.5 57t55 206t17.5 438q0 218 -8.5 351t-31 212.5t-55.5 108t-87 28.5q-71 0 -108.5 -56.5t-54.5 -206t-17 -437.5z" />
<glyph unicode="&#xd4;" d="M53 717q0 155 31 280.5t85 210.5t129 142t160 82.5t181 25.5t180.5 -25t160 -82t129 -141.5t85 -210.5t31.5 -282t-31 -282t-85 -211t-129 -141.5t-160 -82t-181 -25.5t-181 25.5t-160 83t-129 142t-85 210.5t-31 281zM352 1571l201 205q42 45 84 45t84 -45l205 -205 l-27 -27l-262 105l-258 -105zM459 717q0 -288 17 -437.5t54.5 -206.5t108.5 -57q72 0 109.5 57t55 206t17.5 438q0 218 -8.5 351t-31 212.5t-55.5 108t-87 28.5q-71 0 -108.5 -56.5t-54.5 -206t-17 -437.5z" />
<glyph unicode="&#xd5;" d="M53 717q0 155 31 280.5t85 210.5t129 142t160 82.5t181 25.5t180.5 -25t160 -82t129 -141.5t85 -210.5t31.5 -282t-31 -282t-85 -211t-129 -141.5t-160 -82t-181 -25.5t-181 25.5t-160 83t-129 142t-85 210.5t-31 281zM344 1602q77 231 195 231q44 0 89 -23.5t84.5 -47 t69.5 -23.5q35 0 58 19t57 65l37 -17q-17 -62 -40.5 -110.5t-63.5 -84.5t-87 -36q-43 0 -88 23.5t-84.5 47t-70.5 23.5q-34 0 -60.5 -20t-58.5 -64zM459 717q0 -288 17 -437.5t54.5 -206.5t108.5 -57q72 0 109.5 57t55 206t17.5 438q0 218 -8.5 351t-31 212.5t-55.5 108 t-87 28.5q-71 0 -108.5 -56.5t-54.5 -206t-17 -437.5z" />
<glyph unicode="&#xd6;" d="M53 717q0 155 31 280.5t85 210.5t129 142t160 82.5t181 25.5t180.5 -25t160 -82t129 -141.5t85 -210.5t31.5 -282t-31 -282t-85 -211t-129 -141.5t-160 -82t-181 -25.5t-181 25.5t-160 83t-129 142t-85 210.5t-31 281zM289 1686q0 62 40.5 97.5t112.5 35.5 q70 0 111 -35.5t41 -97.5q0 -63 -41 -99.5t-111 -36.5q-72 0 -112.5 36.5t-40.5 99.5zM459 717q0 -288 17 -437.5t54.5 -206.5t108.5 -57q72 0 109.5 57t55 206t17.5 438q0 218 -8.5 351t-31 212.5t-55.5 108t-87 28.5q-71 0 -108.5 -56.5t-54.5 -206t-17 -437.5zM682 1686 q0 62 41 97.5t113 35.5q71 0 112 -36t41 -97q0 -63 -41 -99.5t-112 -36.5q-72 0 -113 36.5t-41 99.5z" />
<glyph unicode="&#xd7;" horiz-adv-x="526" d="M102 303l138 211l-136 209h50l110 -172l111 172h49l-135 -209l135 -211h-49l-111 172l-112 -172h-50z" />
<glyph unicode="&#xd8;" d="M53 717q0 155 31 280.5t85 210.5t129 142t160 82.5t181 25.5q51 0 113 -10l34 190h43l-36 -198q75 -19 139 -56t118.5 -97.5t93 -140.5t60 -189.5t21.5 -239.5q0 -156 -31 -282t-85 -211t-129 -141.5t-160 -82t-181 -25.5q-45 0 -113 11l-34 -191h-41l36 199 q-95 23 -172 76.5t-136.5 140t-92.5 215.5t-33 291zM459 717q0 -468 51 -600l229 1259q-36 41 -100 41q-71 0 -108.5 -56.5t-54.5 -206t-17 -437.5zM541 59q35 -43 98 -43q72 0 109.5 57t55 206t17.5 438q0 468 -51 600z" />
<glyph unicode="&#xd9;" horiz-adv-x="1161" d="M33 1399v35h534v-35q-45 -12 -64.5 -47t-19.5 -107v-762q0 -374 265 -374q121 0 188.5 90t67.5 282v764q0 73 -18.5 107.5t-63.5 46.5v35h206v-35q-45 -12 -64.5 -47t-19.5 -107v-782q0 -247 -110 -367.5t-332 -120.5q-224 0 -354.5 132t-130.5 397v741q0 73 -19 107.5 t-65 46.5zM379 1620q0 127 64.5 158.5t193.5 -49.5l215 -144l-10 -26z" />
<glyph unicode="&#xda;" horiz-adv-x="1161" d="M33 1399v35h534v-35q-45 -12 -64.5 -47t-19.5 -107v-762q0 -374 265 -374q121 0 188.5 90t67.5 282v764q0 73 -18.5 107.5t-63.5 46.5v35h206v-35q-45 -12 -64.5 -47t-19.5 -107v-782q0 -247 -110 -367.5t-332 -120.5q-224 0 -354.5 132t-130.5 397v741q0 73 -19 107.5 t-65 46.5zM377 1585l215 144q128 81 193 49.5t65 -158.5l-463 -61z" />
<glyph unicode="&#xdb;" horiz-adv-x="1161" d="M33 1399v35h534v-35q-45 -12 -64.5 -47t-19.5 -107v-762q0 -374 265 -374q121 0 188.5 90t67.5 282v764q0 73 -18.5 107.5t-63.5 46.5v35h206v-35q-45 -12 -64.5 -47t-19.5 -107v-782q0 -247 -110 -367.5t-332 -120.5q-224 0 -354.5 132t-130.5 397v741q0 73 -19 107.5 t-65 46.5zM328 1571l200 205q42 45 84 45t84 -45l205 -205l-27 -27l-262 105l-258 -105z" />
<glyph unicode="&#xdc;" horiz-adv-x="1161" d="M33 1399v35h534v-35q-45 -12 -64.5 -47t-19.5 -107v-762q0 -374 265 -374q121 0 188.5 90t67.5 282v764q0 73 -18.5 107.5t-63.5 46.5v35h206v-35q-45 -12 -64.5 -47t-19.5 -107v-782q0 -247 -110 -367.5t-332 -120.5q-224 0 -354.5 132t-130.5 397v741q0 73 -19 107.5 t-65 46.5zM264 1686q0 62 41 97.5t113 35.5q70 0 110.5 -35.5t40.5 -97.5q0 -63 -40.5 -99.5t-110.5 -36.5q-72 0 -113 36.5t-41 99.5zM657 1686q0 62 41 97.5t113 35.5q71 0 112.5 -36t41.5 -97q0 -63 -41.5 -99.5t-112.5 -36.5q-72 0 -113 36.5t-41 99.5z" />
<glyph unicode="&#xdd;" horiz-adv-x="1214" d="M20 1399v35h644v-35q-64 -12 -74 -42.5t18 -99.5l197 -534l196 534q27 69 16.5 99.5t-73.5 42.5v35h250v-35q-50 -14 -87 -46t-60 -96l-224 -614v-455q0 -73 19 -106.5t65 -44.5v-37h-536v37q46 11 65 44.5t19 106.5v377l-279 695q-45 110 -156 139zM420 1585l215 144 q127 81 192.5 49.5t65.5 -158.5l-463 -61z" />
<glyph unicode="&#xde;" horiz-adv-x="1177" d="M59 0v37q46 11 65 44.5t19 106.5v1057q0 73 -19 107.5t-65 46.5v35h537v-35q-46 -12 -65 -46.5t-19 -107.5v-98q105 18 184 18q96 0 175 -23.5t143 -74.5t99.5 -140t35.5 -210q0 -97 -23.5 -174t-64.5 -128t-99 -84.5t-123 -48t-141 -14.5q-75 0 -186 19v-99 q0 -73 19 -106.5t65 -44.5v-37h-537zM512 334q52 -25 84 -25q53 0 87 33.5t54.5 125.5t20.5 249q0 158 -20.5 250t-54.5 124.5t-87 32.5q-34 0 -84 -24v-766z" />
<glyph unicode="&#xdf;" horiz-adv-x="1269" d="M29 0v37q45 11 64.5 45t19.5 106v695q0 104 -84 104v37h86q8 120 48.5 205.5t110 135t156 71.5t197.5 22q210 0 305.5 -97t95.5 -284q-336 -24 -336 -192q0 -48 29.5 -88t76.5 -70.5t103.5 -61t113.5 -67.5t104 -81t76.5 -110t29.5 -147q0 -285 -351 -285 q-84 0 -157.5 13.5t-102.5 13.5l-43 440h41q33 -175 58.5 -262.5t51 -119t64.5 -31.5q70 0 70 135q0 85 -25 166.5t-61 145t-72 122.5t-61 123.5t-25 124.5q0 54 17 96t48 71t61.5 47t70.5 34q0 171 -38 249t-130 78q-100 0 -137 -86.5t-37 -259.5v-1075h-438z" />
<glyph unicode="&#xe0;" horiz-adv-x="1185" d="M57 391q0 107 28.5 189t78 130.5t111 72.5t133.5 24q206 0 280 -184v73q0 171 -49.5 241.5t-157.5 70.5q-200 0 -319 -205h-43l88 213q38 0 156 16.5t190 16.5q76 0 144 -11t133.5 -38.5t112.5 -69.5t75.5 -108.5t28.5 -151.5v-447q0 -75 19 -98.5t83 -11.5l12 -33 l-153 -60q-125 -45 -203 -45q-62 0 -89.5 29t-27.5 96v62q-75 -187 -280 -187q-72 0 -133.5 24t-111 72.5t-78 130.5t-28.5 189zM352 1251q0 127 64.5 158.5t193.5 -49.5l215 -143l-10 -27zM406 391q0 -280 143 -280q139 0 139 280q0 281 -139 281q-143 0 -143 -281z" />
<glyph unicode="&#xe1;" horiz-adv-x="1185" d="M57 391q0 107 28.5 189t78 130.5t111 72.5t133.5 24q206 0 280 -184v73q0 171 -49.5 241.5t-157.5 70.5q-200 0 -319 -205h-43l88 213q38 0 156 16.5t190 16.5q76 0 144 -11t133.5 -38.5t112.5 -69.5t75.5 -108.5t28.5 -151.5v-447q0 -75 19 -98.5t83 -11.5l12 -33 l-153 -60q-125 -45 -203 -45q-62 0 -89.5 29t-27.5 96v62q-75 -187 -280 -187q-72 0 -133.5 24t-111 72.5t-78 130.5t-28.5 189zM352 1217l215 143q127 81 192.5 49.5t65.5 -158.5l-463 -61zM406 391q0 -280 143 -280q139 0 139 280q0 281 -139 281q-143 0 -143 -281z" />
<glyph unicode="&#xe2;" horiz-adv-x="1185" d="M57 391q0 107 28.5 189t78 130.5t111 72.5t133.5 24q206 0 280 -184v73q0 171 -49.5 241.5t-157.5 70.5q-200 0 -319 -205h-43l88 213q38 0 156 16.5t190 16.5q76 0 144 -11t133.5 -38.5t112.5 -69.5t75.5 -108.5t28.5 -151.5v-447q0 -75 19 -98.5t83 -11.5l12 -33 l-153 -60q-125 -45 -203 -45q-62 0 -89.5 29t-27.5 96v62q-75 -187 -280 -187q-72 0 -133.5 24t-111 72.5t-78 130.5t-28.5 189zM301 1202l201 205q42 45 84 45t84 -45l204 -205l-26 -26l-262 104l-258 -104zM406 391q0 -280 143 -280q139 0 139 280q0 281 -139 281 q-143 0 -143 -281z" />
<glyph unicode="&#xe3;" horiz-adv-x="1185" d="M57 391q0 107 28.5 189t78 130.5t111 72.5t133.5 24q206 0 280 -184v73q0 171 -49.5 241.5t-157.5 70.5q-200 0 -319 -205h-43l88 213q38 0 156 16.5t190 16.5q76 0 144 -11t133.5 -38.5t112.5 -69.5t75.5 -108.5t28.5 -151.5v-447q0 -75 19 -98.5t83 -11.5l12 -33 l-153 -60q-125 -45 -203 -45q-62 0 -89.5 29t-27.5 96v62q-75 -187 -280 -187q-72 0 -133.5 24t-111 72.5t-78 130.5t-28.5 189zM293 1233q77 231 194 231q44 0 89.5 -23.5t85 -47t69.5 -23.5q35 0 58 19t57 65l37 -16q-27 -98 -75 -165t-116 -67q-43 0 -88 23.5t-84.5 47 t-70.5 23.5q-35 0 -61 -20t-58 -63zM406 391q0 -280 143 -280q139 0 139 280q0 281 -139 281q-143 0 -143 -281z" />
<glyph unicode="&#xe4;" horiz-adv-x="1185" d="M57 391q0 107 28.5 189t78 130.5t111 72.5t133.5 24q206 0 280 -184v73q0 171 -49.5 241.5t-157.5 70.5q-200 0 -319 -205h-43l88 213q38 0 156 16.5t190 16.5q76 0 144 -11t133.5 -38.5t112.5 -69.5t75.5 -108.5t28.5 -151.5v-447q0 -75 19 -98.5t83 -11.5l12 -33 l-153 -60q-125 -45 -203 -45q-62 0 -89.5 29t-27.5 96v62q-75 -187 -280 -187q-72 0 -133.5 24t-111 72.5t-78 130.5t-28.5 189zM240 1317q0 62 40.5 97.5t112.5 35.5q70 0 111 -35.5t41 -97.5q0 -63 -40.5 -99t-111.5 -36q-72 0 -112.5 36t-40.5 99zM406 391 q0 -280 143 -280q139 0 139 280q0 281 -139 281q-143 0 -143 -281zM633 1317q0 62 40.5 97.5t112.5 35.5q71 0 112.5 -36t41.5 -97q0 -63 -41.5 -99t-112.5 -36q-72 0 -112.5 36t-40.5 99z" />
<glyph unicode="&#xe5;" horiz-adv-x="1185" d="M57 391q0 107 28.5 189t78 130.5t111 72.5t133.5 24q206 0 280 -184v73q0 171 -49.5 241.5t-157.5 70.5q-200 0 -319 -205h-43l88 213q38 0 156 16.5t190 16.5q76 0 144 -11t133.5 -38.5t112.5 -69.5t75.5 -108.5t28.5 -151.5v-447q0 -75 19 -98.5t83 -11.5l12 -33 l-153 -60q-125 -45 -203 -45q-62 0 -89.5 29t-27.5 96v62q-75 -187 -280 -187q-72 0 -133.5 24t-111 72.5t-78 130.5t-28.5 189zM406 391q0 -280 143 -280q139 0 139 280q0 281 -139 281q-143 0 -143 -281zM408 1315q0 64 50.5 106.5t129.5 42.5q78 0 129 -43t51 -106 q0 -65 -51 -107.5t-129 -42.5q-79 0 -129.5 42.5t-50.5 107.5zM453 1315q0 -48 37.5 -80.5t97.5 -32.5q59 0 97 32.5t38 80.5t-37.5 79t-97.5 31q-61 0 -98 -31t-37 -79z" />
<glyph unicode="&#xe6;" horiz-adv-x="1638" d="M57 385q0 213 103 317.5t264 104.5q187 0 250 -156v37q0 172 -49 246t-156 74q-196 0 -319 -205h-44l93 213q39 0 155 16.5t195 16.5q204 0 313 -88q120 88 295 88q197 0 309.5 -107t112.5 -309h-535q3 -251 70 -383.5t193 -132.5q177 0 258 274l39 -8 q-51 -217 -166 -312.5t-293 -95.5q-132 0 -232 52.5t-161 150.5q-107 -203 -340 -203q-75 0 -137.5 22.5t-112 69.5t-77.5 128t-28 190zM406 393q0 -141 32 -209.5t109 -68.5q112 0 176 114q-53 121 -53 283v39q-7 60 -39.5 91.5t-81.5 31.5q-80 0 -111.5 -68t-31.5 -213z M1044 674h222q0 185 -22.5 259.5t-80.5 74.5q-64 0 -90.5 -82t-28.5 -252z" />
<glyph unicode="&#xe7;" horiz-adv-x="997" d="M57 504q0 251 144.5 398t394.5 147q63 0 143 -13.5t117 -13.5l49 -365h-41q-20 109 -46.5 182t-56 108t-56.5 48t-60 13q-105 0 -157 -107.5t-52 -292.5q0 -141 27.5 -251t84.5 -175t136 -65q165 0 236 274l41 -8q-49 -217 -159 -312.5t-278 -95.5h-14l-33 -84 q295 -9 295 -167q0 -77 -67 -114.5t-173 -37.5q-36 0 -80.5 7t-72.5 7l-37 230h43q26 -127 49.5 -169t57.5 -42q53 0 53 78q0 61 -32 115t-81 71v20l35 88q-190 20 -300 160t-110 367z" />
<glyph unicode="&#xe8;" horiz-adv-x="1024" d="M57 512q0 249 130.5 393t357.5 144q197 0 309.5 -107t112.5 -309h-535q3 -251 69.5 -383.5t192.5 -132.5q177 0 258 274l39 -8q-51 -217 -166 -312.5t-293 -95.5q-224 0 -349.5 143t-125.5 394zM313 1251q0 127 64.5 158.5t193.5 -49.5l215 -143l-10 -27zM432 674h221 q0 185 -22 259.5t-80 74.5q-64 0 -90.5 -82t-28.5 -252z" />
<glyph unicode="&#xe9;" horiz-adv-x="1024" d="M57 512q0 249 130.5 393t357.5 144q197 0 309.5 -107t112.5 -309h-535q3 -251 69.5 -383.5t192.5 -132.5q177 0 258 274l39 -8q-51 -217 -166 -312.5t-293 -95.5q-224 0 -349.5 143t-125.5 394zM311 1217l215 143q128 81 193 49.5t65 -158.5l-462 -61zM432 674h221 q0 185 -22 259.5t-80 74.5q-64 0 -90.5 -82t-28.5 -252z" />
<glyph unicode="&#xea;" horiz-adv-x="1024" d="M57 512q0 249 130.5 393t357.5 144q197 0 309.5 -107t112.5 -309h-535q3 -251 69.5 -383.5t192.5 -132.5q177 0 258 274l39 -8q-51 -217 -166 -312.5t-293 -95.5q-224 0 -349.5 143t-125.5 394zM262 1202l201 205q42 45 84 45t84 -45l205 -205l-27 -26l-262 104 l-258 -104zM432 674h221q0 185 -22 259.5t-80 74.5q-64 0 -90.5 -82t-28.5 -252z" />
<glyph unicode="&#xeb;" horiz-adv-x="1024" d="M57 512q0 249 130.5 393t357.5 144q197 0 309.5 -107t112.5 -309h-535q3 -251 69.5 -383.5t192.5 -132.5q177 0 258 274l39 -8q-51 -217 -166 -312.5t-293 -95.5q-224 0 -349.5 143t-125.5 394zM199 1317q0 62 40.5 97.5t112.5 35.5q70 0 111 -35.5t41 -97.5 q0 -63 -40.5 -99t-111.5 -36q-72 0 -112.5 36t-40.5 99zM432 674h221q0 185 -22 259.5t-80 74.5q-64 0 -90.5 -82t-28.5 -252zM592 1317q0 62 40.5 97.5t112.5 35.5q71 0 112.5 -36t41.5 -97q0 -63 -41.5 -99t-112.5 -36q-72 0 -112.5 36t-40.5 99z" />
<glyph unicode="&#xec;" horiz-adv-x="606" d="M39 0v37q46 11 66 44.5t20 106.5v598q0 72 -19.5 106t-66.5 46v37h115q129 0 197 13.5t110 60.5h20v-861q0 -73 19.5 -106.5t66.5 -44.5v-37h-528zM57 1251q0 127 64.5 158.5t193.5 -49.5l215 -143l-10 -27z" />
<glyph unicode="&#xed;" horiz-adv-x="606" d="M39 0v37q46 11 66 44.5t20 106.5v598q0 72 -19.5 106t-66.5 46v37h115q129 0 197 13.5t110 60.5h20v-861q0 -73 19.5 -106.5t66.5 -44.5v-37h-528zM57 1217l215 143q128 81 193 49.5t65 -158.5l-462 -61z" />
<glyph unicode="&#xee;" horiz-adv-x="606" d="M6 1202l201 205q42 45 84 45t84 -45l205 -205l-27 -26l-262 104l-258 -104zM39 0v37q46 11 66 44.5t20 106.5v598q0 72 -19.5 106t-66.5 46v37h115q129 0 197 13.5t110 60.5h20v-861q0 -73 19.5 -106.5t66.5 -44.5v-37h-528z" />
<glyph unicode="&#xef;" horiz-adv-x="606" d="M-55 1317q0 62 40.5 97.5t112.5 35.5q70 0 111 -35.5t41 -97.5q0 -63 -40.5 -99t-111.5 -36q-72 0 -112.5 36t-40.5 99zM39 0v37q46 11 66 44.5t20 106.5v598q0 72 -19.5 106t-66.5 46v37h115q129 0 197 13.5t110 60.5h20v-861q0 -73 19.5 -106.5t66.5 -44.5v-37h-528z M338 1317q0 62 41 97.5t113 35.5q71 0 112 -36t41 -97q0 -63 -41 -99t-112 -36q-72 0 -113 36t-41 99z" />
<glyph unicode="&#xf0;" horiz-adv-x="1167" d="M45 528q0 94 19 174t51.5 135.5t74 97.5t89 66t93.5 36t91 12q143 0 219 -76q-44 193 -147 334l-154 -127l-27 30l156 129q-86 103 -199 181l13 36q167 -70 280 -139l158 131l26 -30l-147 -121q110 -70 192 -147.5t142 -174t90.5 -214t30.5 -255.5q0 -151 -35 -267 t-88 -183t-127.5 -109.5t-143 -57t-143.5 -14.5q-108 0 -200 33t-163 99t-111 173.5t-40 247.5zM416 483q0 -245 36 -356t109 -111q78 0 117 128t39 425q0 193 -21 336q-56 72 -123 72q-78 0 -117.5 -117.5t-39.5 -376.5z" />
<glyph unicode="&#xf1;" horiz-adv-x="1234" d="M27 0v37q46 11 66 44.5t20 106.5v598q0 72 -19.5 106t-66.5 46v37h114q129 0 197.5 13.5t110.5 60.5h20v-175q144 175 346 175q135 0 214 -75t79 -243v-543q0 -73 20 -106.5t66 -44.5v-37h-526v37q46 11 66 44.5t20 106.5v580q0 152 -99 152q-79 0 -186 -107v-625 q0 -73 19.5 -106.5t66.5 -44.5v-37h-528zM315 1233q77 231 195 231q44 0 89.5 -23.5t85 -47t69.5 -23.5q35 0 57.5 18.5t56.5 65.5l37 -16q-28 -99 -75 -165.5t-115 -66.5q-43 0 -88 23.5t-85 47t-71 23.5q-35 0 -61 -20t-58 -63z" />
<glyph unicode="&#xf2;" horiz-adv-x="1120" d="M45 512q0 255 134 396t380 141q247 0 381.5 -140.5t134.5 -396.5t-134.5 -396.5t-381.5 -140.5q-246 0 -380 141t-134 396zM324 1251q0 127 64.5 158.5t193.5 -49.5l215 -143l-11 -27zM424 512q0 -285 26 -390.5t109 -105.5q84 0 110.5 105.5t26.5 390.5t-26.5 390.5 t-110.5 105.5q-82 0 -108.5 -107t-26.5 -389z" />
<glyph unicode="&#xf3;" horiz-adv-x="1120" d="M45 512q0 255 134 396t380 141q247 0 381.5 -140.5t134.5 -396.5t-134.5 -396.5t-381.5 -140.5q-246 0 -380 141t-134 396zM324 1217l215 143q127 81 192.5 49.5t65.5 -158.5l-463 -61zM424 512q0 -285 26 -390.5t109 -105.5q84 0 110.5 105.5t26.5 390.5t-26.5 390.5 t-110.5 105.5q-82 0 -108.5 -107t-26.5 -389z" />
<glyph unicode="&#xf4;" horiz-adv-x="1120" d="M45 512q0 255 134 396t380 141q247 0 381.5 -140.5t134.5 -396.5t-134.5 -396.5t-381.5 -140.5q-246 0 -380 141t-134 396zM272 1202l201 205q42 45 84 45t84 -45l205 -205l-27 -26l-262 104l-258 -104zM424 512q0 -285 26 -390.5t109 -105.5q84 0 110.5 105.5 t26.5 390.5t-26.5 390.5t-110.5 105.5q-82 0 -108.5 -107t-26.5 -389z" />
<glyph unicode="&#xf5;" horiz-adv-x="1120" d="M45 512q0 255 134 396t380 141q247 0 381.5 -140.5t134.5 -396.5t-134.5 -396.5t-381.5 -140.5q-246 0 -380 141t-134 396zM264 1233q77 231 195 231q44 0 89 -23.5t84.5 -47t69.5 -23.5q35 0 58 19t57 65l37 -16q-28 -99 -75 -165.5t-115 -66.5q-43 0 -88 23.5t-85 47 t-71 23.5q-35 0 -61 -20t-58 -63zM424 512q0 -285 26 -390.5t109 -105.5q84 0 110.5 105.5t26.5 390.5t-26.5 390.5t-110.5 105.5q-82 0 -108.5 -107t-26.5 -389z" />
<glyph unicode="&#xf6;" horiz-adv-x="1120" d="M45 512q0 255 134 396t380 141q247 0 381.5 -140.5t134.5 -396.5t-134.5 -396.5t-381.5 -140.5q-246 0 -380 141t-134 396zM211 1317q0 62 41 97.5t113 35.5q70 0 110.5 -35.5t40.5 -97.5q0 -63 -40.5 -99t-110.5 -36q-72 0 -113 36t-41 99zM424 512q0 -285 26 -390.5 t109 -105.5q84 0 110.5 105.5t26.5 390.5t-26.5 390.5t-110.5 105.5q-82 0 -108.5 -107t-26.5 -389zM604 1317q0 62 41 97.5t113 35.5q71 0 112 -36t41 -97q0 -63 -41 -99t-112 -36q-72 0 -113 36t-41 99z" />
<glyph unicode="&#xf7;" horiz-adv-x="684" d="M102 492v40h498v-40h-498zM283 305q0 27 17.5 47.5t43.5 20.5q23 0 41 -21t18 -47q0 -27 -17.5 -47t-41.5 -20q-26 0 -43.5 19.5t-17.5 47.5zM283 719q0 28 17.5 47.5t43.5 19.5q24 0 41.5 -20t17.5 -47q0 -26 -18 -47t-41 -21q-26 0 -43.5 20.5t-17.5 47.5z" />
<glyph unicode="&#xf8;" horiz-adv-x="1120" d="M45 512q0 255 134 396t380 141q54 0 129 -11l53 191h43l-57 -201q169 -43 258.5 -176t89.5 -340q0 -256 -134.5 -396.5t-381.5 -140.5q-53 0 -125 11l-53 -191h-43l55 199q-168 43 -258 176t-90 342zM424 512q0 -247 18 -350l217 774q-29 72 -100 72q-82 0 -108.5 -107 t-26.5 -389zM463 86q29 -70 96 -70q84 0 110.5 105.5t26.5 390.5q0 240 -16 344z" />
<glyph unicode="&#xf9;" horiz-adv-x="1247" d="M39 940v35h115q129 0 197 14t110 62h20v-795q0 -152 99 -152q81 0 188 107v575q0 73 -20 107.5t-66 46.5v35h115q127 0 195 14t110 62h20v-811q0 -73 20 -107t66 -45v-37h-114q-127 0 -195.5 -14t-110.5 -62h-20v177q-144 -179 -348 -179q-136 0 -215.5 75.5t-79.5 244.5 v493q0 73 -19.5 107.5t-66.5 46.5zM391 1251q0 127 64.5 158.5t193.5 -49.5l215 -143l-10 -27z" />
<glyph unicode="&#xfa;" horiz-adv-x="1247" d="M39 940v35h115q129 0 197 14t110 62h20v-795q0 -152 99 -152q81 0 188 107v575q0 73 -20 107.5t-66 46.5v35h115q127 0 195 14t110 62h20v-811q0 -73 20 -107t66 -45v-37h-114q-127 0 -195.5 -14t-110.5 -62h-20v177q-144 -179 -348 -179q-136 0 -215.5 75.5t-79.5 244.5 v493q0 73 -19.5 107.5t-66.5 46.5zM391 1217l215 143q128 81 193 49.5t65 -158.5l-463 -61z" />
<glyph unicode="&#xfb;" horiz-adv-x="1247" d="M39 940v35h115q129 0 197 14t110 62h20v-795q0 -152 99 -152q81 0 188 107v575q0 73 -20 107.5t-66 46.5v35h115q127 0 195 14t110 62h20v-811q0 -73 20 -107t66 -45v-37h-114q-127 0 -195.5 -14t-110.5 -62h-20v177q-144 -179 -348 -179q-136 0 -215.5 75.5t-79.5 244.5 v493q0 73 -19.5 107.5t-66.5 46.5zM340 1202l201 205q42 45 84 45t84 -45l204 -205l-26 -26l-262 104l-258 -104z" />
<glyph unicode="&#xfc;" horiz-adv-x="1247" d="M39 940v35h115q129 0 197 14t110 62h20v-795q0 -152 99 -152q81 0 188 107v575q0 73 -20 107.5t-66 46.5v35h115q127 0 195 14t110 62h20v-811q0 -73 20 -107t66 -45v-37h-114q-127 0 -195.5 -14t-110.5 -62h-20v177q-144 -179 -348 -179q-136 0 -215.5 75.5t-79.5 244.5 v493q0 73 -19.5 107.5t-66.5 46.5zM279 1317q0 62 40.5 97.5t112.5 35.5q70 0 111 -35.5t41 -97.5q0 -63 -40.5 -99t-111.5 -36q-72 0 -112.5 36t-40.5 99zM672 1317q0 62 40.5 97.5t112.5 35.5q71 0 112.5 -36t41.5 -97q0 -63 -41.5 -99t-112.5 -36q-72 0 -112.5 36 t-40.5 99z" />
<glyph unicode="&#xfd;" horiz-adv-x="1071" d="M20 989v35h611v-35q-64 -12 -76.5 -43t12.5 -100l158 -481l143 479q24 70 10.5 101.5t-79.5 43.5v35h252v-35q-50 -13 -85 -46t-55 -99l-311 -1047q-16 -52 -27.5 -83t-28.5 -63.5t-35.5 -49.5t-45 -28t-60.5 -11t-85.5 13t-90.5 13l-61 392h41q29 -124 54.5 -201.5 t50.5 -115t45.5 -49t50.5 -11.5q54 0 87.5 49t71.5 178l43 145h-141l-303 871q-39 115 -146 143zM354 1217l215 143q127 81 192.5 49.5t65.5 -158.5l-462 -61z" />
<glyph unicode="&#xfe;" horiz-adv-x="1181" d="M27 -375q46 12 66 46.5t20 107.5v1417q0 73 -20 107.5t-66 46.5v34h114q129 0 197.5 14t110.5 62h20v-555q61 70 131 107t168 37q154 0 255 -134t101 -374q0 -257 -112.5 -411.5t-282.5 -154.5q-184 0 -260 146v-342q0 -73 19.5 -107.5t66.5 -46.5v-35h-528v35zM469 383 q0 -143 36 -217t95 -74q76 0 109.5 95t33.5 325q0 243 -26.5 335.5t-95.5 92.5q-33 0 -66 -20t-86 -74v-463z" />
<glyph unicode="&#xff;" horiz-adv-x="1071" d="M20 989v35h611v-35q-64 -12 -76.5 -43t12.5 -100l158 -481l143 479q24 70 10.5 101.5t-79.5 43.5v35h252v-35q-50 -13 -85 -46t-55 -99l-311 -1047q-16 -52 -27.5 -83t-28.5 -63.5t-35.5 -49.5t-45 -28t-60.5 -11t-85.5 13t-90.5 13l-61 392h41q29 -124 54.5 -201.5 t50.5 -115t45.5 -49t50.5 -11.5q54 0 87.5 49t71.5 178l43 145h-141l-303 871q-39 115 -146 143zM242 1317q0 62 40.5 97.5t112.5 35.5q70 0 111 -35.5t41 -97.5q0 -63 -40.5 -99t-111.5 -36q-72 0 -112.5 36t-40.5 99zM635 1317q0 62 40.5 97.5t112.5 35.5q71 0 112.5 -36 t41.5 -97q0 -63 -41.5 -99t-112.5 -36q-72 0 -112.5 36t-40.5 99z" />
<glyph unicode="&#x152;" horiz-adv-x="1705" d="M53 717q0 195 45 340.5t126.5 231.5t186.5 127.5t234 41.5q68 0 231.5 -12t256.5 -12h458l49 -533h-38q-15 115 -29.5 194t-31.5 134.5t-32.5 87.5t-40 49t-47.5 22t-59 5h-219v-609h164q30 0 46 4t30 17.5t16.5 39.5t5 70t-3.5 109h41l41 -541h-41q-6 50 -9.5 80.5 t-9 61t-10 46.5t-13 31.5t-16 21.5t-21.5 11.5t-27.5 6.5t-35.5 1h-157v-702h243q34 0 56 5t46 22.5t40.5 51.5t34 91t32 142t29.5 204h43l-51 -557h-483q-93 0 -256.5 -12.5t-231.5 -12.5q-129 0 -234 41.5t-186.5 128t-126.5 232t-45 340.5zM459 717q0 -378 46.5 -539.5 t153.5 -161.5q78 0 117 64v1274q-21 35 -48 49t-69 14q-107 0 -153.5 -161t-46.5 -539z" />
<glyph unicode="&#x153;" horiz-adv-x="1662" d="M45 512q0 255 134 396t380 141q198 0 326 -93q123 93 299 93q197 0 309.5 -107t112.5 -309h-535l2 -53q0 -6 1 -19.5t1 -19.5q14 -207 79.5 -315.5t178.5 -108.5q177 0 258 274l39 -8q-51 -217 -166 -312.5t-293 -95.5q-173 0 -290 88q-130 -88 -322 -88q-246 0 -380 141 t-134 396zM424 512q0 -285 26 -390.5t109 -105.5q84 0 110.5 105.5t26.5 390.5t-26.5 390.5t-110.5 105.5q-82 0 -108.5 -107t-26.5 -389zM1071 674h221q0 185 -22 259.5t-80 74.5q-64 0 -90.5 -82t-28.5 -252z" />
<glyph unicode="&#x178;" horiz-adv-x="1214" d="M20 1399v35h644v-35q-64 -12 -74 -42.5t18 -99.5l197 -534l196 534q27 69 16.5 99.5t-73.5 42.5v35h250v-35q-50 -14 -87 -46t-60 -96l-224 -614v-455q0 -73 19 -106.5t65 -44.5v-37h-536v37q46 11 65 44.5t19 106.5v377l-279 695q-45 110 -156 139zM307 1686 q0 62 41 97.5t113 35.5q70 0 110.5 -35.5t40.5 -97.5q0 -63 -40.5 -99.5t-110.5 -36.5q-72 0 -113 36.5t-41 99.5zM700 1686q0 62 41 97.5t113 35.5q71 0 112.5 -36t41.5 -97q0 -63 -41.5 -99.5t-112.5 -36.5q-72 0 -113 36.5t-41 99.5z" />
<glyph unicode="&#x2c6;" horiz-adv-x="688" d="M57 1202l201 205q42 45 84 45t84 -45l205 -205l-27 -26l-262 104l-258 -104z" />
<glyph unicode="&#x2dc;" horiz-adv-x="704" d="M57 1233q77 231 195 231q44 0 89.5 -23.5t85 -47t69.5 -23.5q35 0 57.5 18.5t56.5 65.5l37 -16q-28 -99 -75 -165.5t-115 -66.5q-43 0 -88 23.5t-85 47t-71 23.5q-35 0 -61 -20t-58 -63z" />
<glyph unicode="&#x2000;" horiz-adv-x="937" />
<glyph unicode="&#x2001;" horiz-adv-x="1874" />
<glyph unicode="&#x2002;" horiz-adv-x="937" />
<glyph unicode="&#x2003;" horiz-adv-x="1874" />
<glyph unicode="&#x2004;" horiz-adv-x="624" />
<glyph unicode="&#x2005;" horiz-adv-x="468" />
<glyph unicode="&#x2006;" horiz-adv-x="312" />
<glyph unicode="&#x2007;" horiz-adv-x="312" />
<glyph unicode="&#x2008;" horiz-adv-x="234" />
<glyph unicode="&#x2009;" horiz-adv-x="374" />
<glyph unicode="&#x200a;" horiz-adv-x="104" />
<glyph unicode="&#x2010;" horiz-adv-x="649" d="M61 492v40h527v-40h-527z" />
<glyph unicode="&#x2011;" horiz-adv-x="649" d="M61 492v40h527v-40h-527z" />
<glyph unicode="&#x2012;" horiz-adv-x="649" d="M61 492v40h527v-40h-527z" />
<glyph unicode="&#x2013;" horiz-adv-x="909" d="M61 492v40h787v-40h-787z" />
<glyph unicode="&#x2014;" horiz-adv-x="1406" d="M61 492v40h1313v-40h-1313z" />
<glyph unicode="&#x2018;" horiz-adv-x="380" d="M43 1061q0 51 17.5 102.5t53 104.5t71.5 96t89 100l29 -28q-75 -100 -96 -138.5t-21 -70.5q0 -25 15.5 -43t37.5 -30.5t44 -26t37.5 -38t15.5 -59.5q0 -59 -38 -92t-101 -33q-73 0 -113.5 40t-40.5 116z" />
<glyph unicode="&#x2019;" horiz-adv-x="380" d="M45 1335q0 59 38 92t101 33q73 0 113.5 -39.5t40.5 -115.5q0 -96 -60 -190.5t-172 -213.5l-28 29q75 100 96 138.5t21 70.5q0 25 -15.5 43t-37.5 30t-44 26t-37.5 38t-15.5 59z" />
<glyph unicode="&#x201a;" horiz-adv-x="380" d="M45 137q0 59 38 92t101 33q73 0 113.5 -40t40.5 -116q0 -96 -60 -190t-172 -213l-28 29q75 100 96 138.5t21 70.5q0 25 -15.5 43t-37.5 30t-44 26t-37.5 38t-15.5 59z" />
<glyph unicode="&#x201c;" horiz-adv-x="751" d="M43 1061q0 51 17.5 102.5t53 104.5t71.5 96t89 100l29 -28q-75 -100 -96 -138.5t-21 -70.5q0 -25 15.5 -43t37.5 -30.5t44 -26t37.5 -38t15.5 -59.5q0 -59 -38 -92t-101 -33q-73 0 -113.5 40t-40.5 116zM414 1061q0 51 17.5 102.5t53 104.5t71.5 96t89 100l29 -28 q-75 -100 -96 -138.5t-21 -70.5q0 -25 15.5 -43t37.5 -30.5t44 -26t37.5 -38t15.5 -59.5q0 -59 -38.5 -92t-101.5 -33q-73 0 -113 40t-40 116z" />
<glyph unicode="&#x201d;" horiz-adv-x="753" d="M45 1335q0 59 38 92t101 33q73 0 113.5 -39.5t40.5 -115.5q0 -96 -60 -190.5t-172 -213.5l-28 29q75 100 96 138.5t21 70.5q0 25 -15.5 43t-37.5 30t-44 26t-37.5 38t-15.5 59zM416 1335q0 59 38 92t101 33q73 0 113.5 -39.5t40.5 -115.5q0 -96 -60 -190.5t-172 -213.5 l-28 29q74 99 95 138t21 71q0 25 -15.5 43t-37.5 30t-43.5 26t-37 38t-15.5 59z" />
<glyph unicode="&#x201e;" horiz-adv-x="759" d="M45 137q0 59 38 92t101 33q73 0 113.5 -40t40.5 -116q0 -96 -60 -190t-172 -213l-28 29q75 100 96 138.5t21 70.5q0 25 -15.5 43t-37.5 30t-44 26t-37.5 38t-15.5 59zM424 137q0 59 38 92t101 33q73 0 113.5 -40t40.5 -116q0 -96 -60 -190t-172 -213l-28 29q74 99 95 138 t21 71q0 25 -15.5 43t-37.5 30t-43.5 26t-37 38t-15.5 59z" />
<glyph unicode="&#x2022;" horiz-adv-x="700" d="M74 535q0 114 73.5 188t200.5 74q128 0 199 -73.5t71 -188.5q0 -117 -71 -193t-199 -76q-127 0 -200.5 76.5t-73.5 192.5z" />
<glyph unicode="&#x2026;" horiz-adv-x="1187" d="M43 119q0 62 39 101.5t108 39.5t107.5 -39.5t38.5 -101.5t-39 -103t-107 -41t-107.5 41t-39.5 103zM436 119q0 62 39.5 101.5t108.5 39.5q68 0 106.5 -39.5t38.5 -101.5t-38.5 -103t-106.5 -41t-108 41t-40 103zM831 119q0 62 39.5 101.5t108.5 39.5q68 0 106.5 -39.5 t38.5 -101.5t-38.5 -103t-106.5 -41t-108 41t-40 103z" />
<glyph unicode="&#x202f;" horiz-adv-x="374" />
<glyph unicode="&#x2039;" horiz-adv-x="419" d="M49 514q0 61 60 113l249 209l27 -19l-145 -303l145 -303l-27 -18l-249 208q-60 52 -60 113z" />
<glyph unicode="&#x203a;" horiz-adv-x="419" d="M35 211l145 303l-145 303l26 19l250 -209q60 -52 60 -113t-60 -113l-250 -208z" />
<glyph unicode="&#x205f;" horiz-adv-x="468" />
<glyph unicode="&#x20ac;" horiz-adv-x="1112" d="M-14 625v41h118v55v39h-118v41h120q20 326 186 491.5t435 165.5q66 0 152 -13t127 -13l51 -525h-41q-23 157 -51.5 261t-64.5 157t-71.5 72.5t-83.5 19.5q-231 0 -237 -616h313v-41h-313l2 -94h311v-41h-309q25 -508 254 -508q233 0 283 479l41 -6q-14 -146 -41.5 -254 t-64.5 -177t-89.5 -110.5t-109.5 -57.5t-132 -16q-233 0 -379.5 165t-167.5 485h-120z" />
<glyph unicode="&#x2122;" horiz-adv-x="1282" d="M41 1208l20 226h443l22 -226h-18q-15 90 -29.5 132t-29 52.5t-43.5 10.5h-27v-451q0 -35 12.5 -51t42.5 -22v-17h-301v17q30 6 42.5 22t12.5 51v451h-28q-29 0 -43.5 -10.5t-29 -52.5t-28.5 -132h-18zM518 862v17q30 6 44.5 22.5t15.5 50.5l26 389q3 37 -6 53.5t-37 20.5 v19h252l70 -299l61 299h250v-19q-28 -4 -37 -20.5t-6 -53.5l27 -389q3 -34 17 -50.5t44 -22.5v-17h-303v17q31 6 41.5 22t7.5 51l-29 410l-102 -500h-113l-110 500l-27 -410q-3 -35 7.5 -51t41.5 -22v-17h-135z" />
<glyph unicode="&#x25fc;" horiz-adv-x="1024" d="M0 0v1024h1024v-1024h-1024z" />
<glyph unicode="&#xfb01;" horiz-adv-x="1224" d="M16 983v41h242q-209 74 -209 236q0 99 96.5 148.5t305.5 49.5q101 0 231 -13t203 -13l98 -312h-141q-41 154 -116 224.5t-196 70.5q-88 0 -138 -44t-50 -122q0 -57 22.5 -106t76 -84t130.5 -35h54q237 0 319.5 4t134.5 21h21v-861q0 -73 20 -106.5t66 -44.5v-37h-527v37 q46 11 66 44.5t20 106.5v689q0 66 -22.5 86t-97.5 20q-76 0 -101.5 -20.5t-25.5 -85.5v-689q0 -73 28 -106.5t95 -44.5v-37h-564v37q46 11 66 44.5t20 106.5v689q0 68 -21.5 87t-105.5 19z" />
<glyph unicode="&#xfb02;" horiz-adv-x="1204" d="M16 983v41h242q-110 48 -159.5 102t-49.5 131q0 98 81 149.5t237 51.5q95 0 238.5 -13t215.5 -13q59 0 90 1t80.5 10t77.5 27h21v-1282q0 -73 20 -106.5t66 -44.5v-37h-527v37q46 11 66 44.5t20 106.5v961q0 64 -13 112.5t-34 77.5t-52 47t-63 24.5t-71 6.5 q-81 0 -120.5 -46t-39.5 -122q0 -90 54.5 -157.5t150.5 -67.5h96v-41q-97 0 -125.5 -20t-28.5 -86v-689q0 -73 27.5 -106.5t93.5 -44.5v-37h-563v37q46 11 66 44.5t20 106.5v689q0 67 -20 86.5t-97 19.5z" />
<glyph unicode="&#xfb03;" horiz-adv-x="1828" d="M16 983v41h242q-109 45 -159 97.5t-50 125.5q0 90 81 138.5t222 48.5q91 0 158.5 -10t121 -24.5t75.5 -17.5q95 76 346 76q101 0 231 -13t203 -13l98 -312h-141q-41 154 -115.5 224.5t-195.5 70.5q-88 0 -138.5 -44t-50.5 -122q0 -56 22.5 -105.5t76.5 -84.5t131 -35h53 q237 0 319.5 4t134.5 21h21v-861q0 -73 20 -106.5t66 -44.5v-37h-526v37q46 11 66 44.5t20 106.5v689q0 66 -23 86t-98 20q-76 0 -101.5 -20.5t-25.5 -85.5v-689q0 -73 28 -106.5t95 -44.5v-37h-564v37q46 11 66 44.5t20 106.5v689q0 68 -21.5 87t-105.5 19q-72 0 -96 -20.5 t-24 -85.5v-689q0 -73 28.5 -106.5t96.5 -44.5v-37h-566v37q46 11 66 44.5t20 106.5v689q0 68 -21.5 87t-105.5 19zM330 1241q0 -92 56.5 -154t160.5 -63h313q-209 74 -209 236q0 34 13 63q-100 66 -191 66q-69 0 -106 -37t-37 -111z" />
</font>
</defs>
</svg>
