<?xml version="1.0" standalone="no"?>
<!DOCTYPE svg PUBLIC "-//W3C//DTD SVG 1.1//EN" "http://www.w3.org/Graphics/SVG/1.1/DTD/svg11.dtd" >
<svg xmlns="http://www.w3.org/2000/svg" xmlns:xlink="http://www.w3.org/1999/xlink" version="1.1">
<metadata></metadata>
<defs>
<font id="pp_neue_worldSExBlk" horiz-adv-x="460" >
<font-face units-per-em="2048" ascent="1434" descent="-614" />
<missing-glyph horiz-adv-x="430" />
<glyph horiz-adv-x="0" />
<glyph horiz-adv-x="682" />
<glyph unicode=" "  horiz-adv-x="430" />
<glyph unicode="&#x09;" horiz-adv-x="430" />
<glyph unicode="&#xa0;" horiz-adv-x="430" />
<glyph unicode="!" d="M41 119q0 66 50.5 108.5t139.5 42.5t139 -42.5t50 -108.5q0 -67 -50 -111.5t-139 -44.5t-139.5 44.5t-50.5 111.5zM41 1284q0 88 53 137t137 49q85 0 137 -48.5t52 -137.5q0 -62 -26 -147.5t-57 -167t-57 -229t-26 -320.5h-41q0 173 -27 320.5t-59 229t-59 167t-27 147.5 z" />
<glyph unicode="&#x22;" horiz-adv-x="921" d="M57 1333q0 64 45 100.5t129 36.5q83 0 129 -36.5t46 -100.5q0 -45 -24 -103t-53 -108t-53 -125t-24 -151h-41q0 76 -24 151t-53 125t-53 108t-24 103zM518 1333q0 64 45 100.5t129 36.5q82 0 128 -36.5t46 -100.5q0 -45 -24 -103t-52.5 -108t-52.5 -125t-24 -151h-41 q0 76 -24 151t-53 125t-53 108t-24 103z" />
<glyph unicode="#" horiz-adv-x="1167" d="M57 334v246h295l64 276h-262v246h319l78 332h43l-78 -332h313l78 332h43l-78 -332h238v-246h-295l-63 -276h262v-246h-320l-78 -334h-43l78 334h-315l-78 -334h-41l78 334h-238zM393 580h316l63 276h-313z" />
<glyph unicode="$" horiz-adv-x="1406" d="M59 1114q0 87 46.5 151t131 101.5t191.5 55.5t238 18h30v123h41v-125q67 -3 208.5 -19t223.5 -16l74 -492h-45q-29 116 -71 205t-86.5 141.5t-97.5 85.5t-100 44.5t-98 11.5h-8v-350q27 -23 148 -111q195 -143 258 -199q152 -134 189 -264q14 -51 14 -106 q0 -375 -625 -375h-14v-127h-41v127q-98 3 -268.5 20t-276.5 17l-58 532h43q25 -121 74 -216.5t104.5 -152t120.5 -93.5t119.5 -50.5t104.5 -13.5l37 2v410q-24 20 -54 44.5t-72.5 58.5t-70.5 56q-69 53 -99 77t-81.5 66t-73 63.5t-55 56.5t-46.5 58.5t-29 55.5t-21 63 t-5 66zM567 1278q0 -48 27 -90.5t102 -106.5v316q-66 -10 -97.5 -42t-31.5 -77zM707 45q62 12 96.5 48.5t34.5 94.5q0 57 -31.5 108.5t-99.5 115.5v-367z" />
<glyph unicode="%" horiz-adv-x="1703" d="M57 1116q0 168 110.5 261t276.5 93q168 0 279 -93t111 -261t-111 -261t-279 -93q-108 0 -194 39.5t-139.5 121t-53.5 193.5zM344 1116q0 -158 22.5 -235.5t77.5 -77.5q56 0 79.5 77.5t23.5 235.5q0 157 -23.5 235.5t-79.5 78.5q-55 0 -77.5 -78.5t-22.5 -235.5zM432 0 l795 1434h45l-795 -1434h-45zM870 319q0 168 111 261.5t279 93.5q166 0 276.5 -93.5t110.5 -261.5t-110.5 -262t-276.5 -94q-167 0 -278.5 94.5t-111.5 261.5zM1157 319q0 -158 23.5 -235.5t79.5 -77.5q55 0 77.5 77.5t22.5 235.5q0 157 -22.5 235.5t-77.5 78.5 q-56 0 -79.5 -78.5t-23.5 -235.5z" />
<glyph unicode="&#x26;" horiz-adv-x="1830" d="M51 449q0 96 37 177.5t102 141.5t154.5 105t192.5 71t219 37q-192 209 -475 412v41h1226l72 -523h-39q-26 115 -45.5 188.5t-43 130.5t-44 86.5t-53 48t-65 23.5t-85.5 5h-856q350 -148 661.5 -398t532.5 -551q103 178 146 404l38 -12q-53 -260 -155 -435 q140 -199 225 -401h-530l-21 78q-207 -115 -502 -115q-111 0 -209.5 15.5t-188.5 52t-154 91.5t-102 138.5t-38 188.5zM610 463q0 -186 90 -294t250 -108q143 0 281 72q-134 455 -434 801q-187 -209 -187 -471z" />
<glyph unicode="'" d="M57 1333q0 64 45 100.5t129 36.5q83 0 129 -36.5t46 -100.5q0 -45 -24 -103t-53 -108t-53 -125t-24 -151h-41q0 76 -24 151t-53 125t-53 108t-24 103z" />
<glyph unicode="(" horiz-adv-x="903" d="M61 614q0 151 45 284.5t119.5 233.5t179.5 183.5t217.5 140t239.5 96.5l21 -20q-303 -373 -303 -918q0 -544 303 -917l-21 -21q-127 40 -239.5 96.5t-217.5 140t-179.5 183.5t-119.5 233.5t-45 284.5z" />
<glyph unicode=")" horiz-adv-x="903" d="M20 -303q304 374 304 917q0 544 -304 918l21 20q127 -40 239.5 -96.5t217.5 -140t179.5 -183.5t119.5 -233.5t45 -284.5t-45 -284.5t-119.5 -233.5t-179.5 -183.5t-217.5 -140t-239.5 -96.5z" />
<glyph unicode="*" horiz-adv-x="718" d="M58.5 1021q5.5 33 37.5 52q23 14 59.5 14t84.5 7t98 36q-50 29 -98 36t-84.5 7.5t-59.5 14.5q-32 18 -37.5 51t11.5 57q15 28 44 39t64 -6q19 -11 35 -33.5t28 -44.5t39.5 -51t67.5 -53q0 48 -11 88.5t-25 63.5t-25 49t-11 49q0 36 25 57t57 21t57 -21t25 -57 q0 -23 -11 -49t-24.5 -49t-24.5 -63.5t-11 -88.5q40 24 68.5 53t40.5 51t28 44.5t35 33.5q35 17 64 6t44 -39q17 -24 11.5 -57t-37.5 -51q-23 -14 -59.5 -14.5t-85 -7.5t-99.5 -36q51 -29 99.5 -36t85 -7t59.5 -14q32 -19 37.5 -52t-11.5 -58q-15 -27 -44 -38t-64 5 q-19 11 -35 33.5t-28 45t-40.5 52t-68.5 53.5q0 -48 11 -88.5t24.5 -63.5t24.5 -49t11 -49q0 -36 -25 -57t-57 -21t-57 21t-25 57q0 23 11 49t25 49t25 63.5t11 88.5q-40 -24 -67.5 -53.5t-39.5 -52t-28 -45t-35 -33.5q-35 -16 -64 -5t-44 38q-17 25 -11.5 58z" />
<glyph unicode="+" horiz-adv-x="778" d="M102 492v40h267v267h41v-267h266v-40h-266v-267h-41v267h-267z" />
<glyph unicode="," d="M41 131q0 63 47 101t137 38q97 0 146 -44.5t49 -127.5q0 -45 -18.5 -92t-43 -83.5t-72 -85.5t-81 -79t-94.5 -82l-29 29q99 108 124 144t25 71q0 28 -19.5 47.5t-47.5 31.5t-56 26t-47.5 40.5t-19.5 65.5z" />
<glyph unicode="-" horiz-adv-x="839" d="M61 492v40h717v-40h-717z" />
<glyph unicode="." d="M41 119q0 66 50.5 108.5t139.5 42.5t139 -42.5t50 -108.5q0 -67 -50 -111.5t-139 -44.5t-139.5 44.5t-50.5 111.5z" />
<glyph unicode="/" horiz-adv-x="524" d="M20 -410l441 1844h43l-441 -1844h-43z" />
<glyph unicode="0" horiz-adv-x="1724" d="M47 717q0 157 40.5 283.5t113 213t175.5 145t224 85t262 26.5t262 -26.5t224 -84.5t175.5 -144.5t113 -213t40.5 -284.5t-40.5 -284.5t-113 -213.5t-175 -145t-223.5 -84.5t-263 -26.5q-177 0 -322.5 43.5t-257 132t-173.5 236t-62 342.5zM604 717q0 -257 28 -413.5 t84 -227t146 -70.5q134 0 196 165.5t62 545.5t-62 546.5t-196 166.5t-196 -167t-62 -546z" />
<glyph unicode="1" horiz-adv-x="866" d="M10 1167v41q241 13 402.5 76t283.5 186h21v-1271q0 -128 108 -158v-41h-733v41q109 31 109 158v815q0 84 -38 118.5t-153 34.5z" />
<glyph unicode="2" horiz-adv-x="1392" d="M37 0v41q254 247 340 339q268 287 359 511q57 140 57 274q0 57 -9 100.5t-30.5 82t-63 59t-102.5 20.5q-66 0 -119.5 -22.5t-106.5 -78t-100.5 -159t-91.5 -256.5h-41l70 523q55 0 203.5 18t271.5 18q147 0 265 -20.5t213.5 -66t147.5 -125.5t52 -191q0 -81 -24.5 -153.5 t-69 -134t-113.5 -119t-149.5 -105.5t-187 -95.5t-216.5 -88t-246 -84.5h551q135 0 206 20t113 70t76 155h41l-69 -532h-1227z" />
<glyph unicode="3" horiz-adv-x="1417" d="M41 532h41q43 -159 88 -262.5t97 -161t106.5 -80t126.5 -22.5q153 0 233 126t80 347q0 79 -14 145t-43.5 118.5t-79.5 82t-117 29.5q-55 0 -106 -25.5t-134 -83.5l-24 33q21 16 64 48t63.5 47.5t57 44.5t55 46t47 44.5t43 47.5t32.5 47t27 51.5t15 53t6 58.5 q0 70 -36 117t-122 47q-64 0 -116 -23t-104.5 -79t-99.5 -160t-90 -257h-41l70 523q57 0 210.5 18t274.5 18q295 0 433.5 -64t138.5 -208q0 -61 -23 -109t-67 -82.5t-94 -58t-117 -43.5q67 -8 130 -28t122.5 -56t103.5 -84t71 -118t27 -152q0 -109 -40.5 -195.5t-111 -143.5 t-171 -94.5t-215 -54t-248.5 -16.5t-280.5 18.5t-198.5 18.5z" />
<glyph unicode="4" horiz-adv-x="1513" d="M37 315v41l682 1119h20q135 -52 242.5 -67t259.5 -15v-791h236v-287h-236v-116q0 -128 109 -158v-41h-738v41q107 31 107 158v116h-682zM236 602h483v791z" />
<glyph unicode="5" horiz-adv-x="1411" d="M57 532h41q44 -157 86 -260t89.5 -161.5t97 -81.5t114.5 -23q154 0 238 129.5t84 392.5q0 222 -65 334.5t-210 112.5q-215 0 -389 -264h-41l111 723h967v-287h-969l-29 -193q40 0 110.5 19t170.5 38t211 19q336 0 516 -125.5t180 -386.5q0 -122 -40 -217.5t-109.5 -158.5 t-170.5 -103.5t-216 -58t-254 -17.5q-132 0 -265 18.5t-188 18.5z" />
<glyph unicode="6" horiz-adv-x="1720" d="M41 664q0 179 61 325t182 254t314.5 167.5t445.5 59.5q121 0 270 -18t202 -18l55 -410h-41q-54 222 -160.5 312.5t-273.5 90.5q-97 0 -175.5 -35t-129.5 -90t-88.5 -134t-56.5 -156.5t-30 -167.5q188 135 500 135q119 0 219.5 -26.5t181 -80.5t126 -146t45.5 -214 q0 -276 -206.5 -412.5t-592.5 -136.5q-144 0 -266.5 22t-231.5 73.5t-185.5 130.5t-120.5 200t-44 275zM604 608q0 -173 18.5 -292t55 -186t85 -95.5t116.5 -28.5q260 0 260 447q0 216 -67.5 327t-186.5 111q-126 0 -273 -96q-8 -91 -8 -187z" />
<glyph unicode="7" horiz-adv-x="1413" d="M20 866l70 568h1337v-41q-74 -76 -123 -129t-105.5 -120t-92 -120.5t-74.5 -123t-62.5 -136t-46 -150t-34 -175.5t-18.5 -201.5t-7 -237.5h-538q0 162 23.5 291t79 249.5t150 222t234.5 197.5t334 187h-733q-56 0 -94.5 -3.5t-75 -14.5t-61 -29.5t-47.5 -50.5t-40.5 -76 t-34.5 -107h-41z" />
<glyph unicode="8" horiz-adv-x="1730" d="M59 365q0 -104 61 -182.5t171 -126t252.5 -70.5t316.5 -23q170 0 314.5 25.5t257 75.5t176 132t63.5 189q0 69 -27 127t-72.5 101t-117 80.5t-148 64.5t-178.5 55q220 35 333.5 108.5t113.5 211.5q0 87 -53.5 153t-148.5 105.5t-217 59t-267 19.5q-342 0 -538.5 -94 t-196.5 -252q0 -79 41 -136t142 -109.5t286 -112.5q-280 -52 -422 -147t-142 -254zM584 332q0 112 42 217.5t132 171.5q98 -39 166.5 -87t106 -103.5t53.5 -112.5t16 -125q0 -287 -244 -287q-130 0 -201 85t-71 241zM623 766l49 -16q60 -19 86 -29q86 59 194 70 q120 12 176 22l-73 18q-49 13 -107 35q-85 -65 -205 -82q-32 -4 -120 -18zM686 1214q0 99 51 157.5t152 58.5q102 0 151.5 -65t49.5 -177q0 -208 -142 -322q-72 30 -124.5 72.5t-81.5 89t-42.5 93t-13.5 93.5z" />
<glyph unicode="9" horiz-adv-x="1742" d="M55 922q0 276 206.5 412t592.5 136q144 0 266.5 -21.5t231.5 -73t185 -130.5t120.5 -200t44.5 -275q0 -143 -38 -265t-118 -222.5t-197.5 -171t-283 -109.5t-367.5 -39q-121 0 -269.5 18.5t-201.5 18.5l-55 410h41q28 -114 70 -193.5t98 -125t120 -65.5t146 -20 q97 0 175.5 35t129 90.5t88 134.5t56.5 156.5t30 167.5q-188 -135 -499 -135q-119 0 -219.5 26.5t-181 80.5t-126 146t-45.5 214zM604 981q0 -216 67.5 -327t186.5 -111q125 0 272 96q9 102 9 186q0 173 -18.5 292t-55 186t-85 95.5t-116.5 28.5q-260 0 -260 -446z" />
<glyph unicode=":" d="M41 119q0 66 50.5 108.5t139.5 42.5t139 -42.5t50 -108.5q0 -67 -50 -111.5t-139 -44.5t-139.5 44.5t-50.5 111.5zM41 928q0 66 50.5 108.5t139.5 42.5t139 -42.5t50 -108.5q0 -67 -50 -111.5t-139 -44.5t-139.5 44.5t-50.5 111.5z" />
<glyph unicode=";" d="M41 131q0 63 47 101t137 38q97 0 146 -44.5t49 -127.5q0 -45 -18.5 -92t-43 -83.5t-72 -85.5t-81 -79t-94.5 -82l-29 29q99 108 124 144t25 71q0 28 -19.5 47.5t-47.5 31.5t-56 26t-47.5 40.5t-19.5 65.5zM41 928q0 66 50.5 108.5t139.5 42.5t139 -42.5t50 -108.5 q0 -67 -50 -111.5t-139 -44.5t-139.5 44.5t-50.5 111.5z" />
<glyph unicode="&#x3c;" horiz-adv-x="778" d="M102 477v70l574 270v-47l-547 -258l547 -256v-45z" />
<glyph unicode="=" horiz-adv-x="798" d="M102 375v41h611v-41h-611zM102 610v41h611v-41h-611z" />
<glyph unicode="&#x3e;" horiz-adv-x="778" d="M102 211v45l547 256l-547 258v47l574 -270v-70z" />
<glyph unicode="?" horiz-adv-x="1091" d="M57 911l70 523q55 0 181 18t272 18q96 0 175.5 -15t143 -46t99.5 -84t36 -125q0 -35 -8.5 -66.5t-21.5 -56.5t-36 -48t-43.5 -39t-53 -33t-55 -26.5t-59 -22t-56 -18t-55.5 -15t-48 -13.5q-43 -13 -71 -28t-48.5 -41.5t-31.5 -54t-17.5 -79t-8 -102t-1.5 -137.5h-41 q0 180 11 288t25.5 156.5t51.5 141.5q23 62 34.5 96.5t21 83.5t9.5 94q0 143 -110 143q-65 0 -113.5 -41t-100.5 -154t-110 -317h-41zM209 119q0 66 50.5 108.5t139.5 42.5t139 -42.5t50 -108.5q0 -67 -50 -111.5t-139 -44.5t-139.5 44.5t-50.5 111.5z" />
<glyph unicode="@" horiz-adv-x="1898" d="M61 438q0 158 42.5 303.5t126.5 267t200 212t271.5 141t332.5 51.5q155 1 286.5 -42t225.5 -119t160.5 -180.5t98.5 -229t32 -262.5q0 -173 -39.5 -305t-125.5 -211.5t-210 -79.5q-196 0 -223 161q-160 -176 -385 -176q-83 0 -153.5 17t-132 57.5t-103.5 102t-62.5 155.5 t-13.5 213q9 136 60.5 245t132 177t180 103.5t209.5 35.5q151 0 244.5 -66.5t166.5 -230.5q78 43 103.5 101t25.5 135h41v-686q0 -114 12.5 -164.5t47.5 -50.5q42 0 84 61t70 170.5t28 235.5q0 127 -27.5 241.5t-87.5 216t-148 175t-215 116.5t-282 43q-208 0 -381.5 -75.5 t-288 -204t-178 -297.5t-63.5 -357q0 -192 62.5 -347t174.5 -257.5t267.5 -157.5t341.5 -55q134 0 252 25.5t210.5 72.5t163.5 100.5t136 121.5l28 -27q-59 -71 -133 -130.5t-171.5 -111.5t-222.5 -82t-263 -30q-198 0 -363 55.5t-287 163t-190 276t-68 383.5zM735 563 q-15 -216 51.5 -333t198.5 -117q67 0 124 23t126 85v443q0 104 -20 179t-54 114t-70.5 56t-76.5 17q-122 0 -193 -124t-86 -343z" />
<glyph unicode="A" horiz-adv-x="1710" d="M20 0v41q133 39 173 143l405 1092l-25 76v20q224 0 334 20.5t183 77.5h20l416 -1282q33 -108 162 -147v-41h-822v41q70 15 88 51q8 16 9 36q0 26 -13 60l-63 199h-576l-75 -203q-15 -36 -15 -62q1 -18 7 -32q16 -35 85 -49v-41h-293zM326 428h546l-254 782z" />
<glyph unicode="B" horiz-adv-x="1767" d="M61 0v41q103 30 103 156v1040q0 126 -103 156v41h134q184 1 417.5 17.5t307.5 16.5q344 0 496.5 -87.5t152.5 -266.5q0 -153 -93 -230.5t-278 -105.5q255 -27 381.5 -119.5t126.5 -279.5q0 -224 -200 -319t-615 -95q-71 0 -291 17t-405 18h-134zM686 25q83 -19 154 -19 q162 0 234.5 86.5t72.5 282.5q0 385 -277 385q-74 0 -184 14v-749zM686 815q74 -14 156 -14q55 0 94 23t60.5 66.5t30.5 98t9 125.5q0 313 -200 313q-74 0 -150 -16v-596z" />
<glyph unicode="C" horiz-adv-x="1564" d="M57 707q0 154 48.5 282t132.5 216t198 148.5t243 88.5t269 28q99 0 238.5 -18t204.5 -18l71 -523h-41q-36 150 -78 251.5t-93 158.5t-105.5 80.5t-124.5 23.5q-183 0 -291 -171t-108 -459q0 -204 48.5 -356t148 -239t239.5 -87q52 0 101.5 13.5t102.5 46.5t97 83.5 t82.5 131t62.5 183.5l41 -10q-31 -138 -80 -242t-109.5 -171.5t-140 -109t-163.5 -58.5t-187 -17q-134 0 -253 28t-221 87t-175.5 145.5t-115.5 210t-42 273.5z" />
<glyph unicode="D" horiz-adv-x="1849" d="M61 0l2 41q101 31 101 156v1040q0 126 -103 156v41h134q114 1 347.5 17.5t329.5 16.5q116 0 213.5 -9t193.5 -32.5t172 -60.5t141.5 -95.5t109 -136t68 -183t24.5 -234.5q0 -179 -47.5 -313t-128 -216.5t-201 -133.5t-251 -70t-294.5 -19q-96 0 -329.5 17t-347.5 18h-134 zM686 25q106 -19 172 -19q129 0 210 71t122 228t41 412t-41 412t-122 227.5t-210 70.5q-71 0 -172 -16v-1386z" />
<glyph unicode="E" horiz-adv-x="1466" d="M61 0v41q103 30 103 158v1038q0 126 -103 156v41h1246l71 -523h-41q-30 130 -59.5 218t-57 140.5t-64.5 80t-71 35.5t-86 8h-313v-615h279q34 0 54.5 2.5t39 11.5t27 24.5t14.5 43.5q5 26 5 61q-1 3 -1 7q0 38 -4 96h41l55 -553h-43q-9 65 -16 105.5t-19 72.5t-23 47.5 t-33.5 26t-45 12.5t-62.5 2h-268v-696h363q42 0 71 5.5t61 22t56 49.5t50 87t49.5 135t47.5 192h41l-71 -532h-1293z" />
<glyph unicode="F" horiz-adv-x="1431" d="M61 0v41q103 30 103 158v1038q0 126 -103 156v41h1268l72 -533h-41q-25 113 -48.5 192.5t-50.5 134.5t-53 87.5t-62 50t-70.5 22.5t-86.5 5h-303v-631h264q31 0 50.5 2t37.5 7.5t28 17t18 28t10 44.5t2 62.5t-4 84.5h41l55 -553h-41q-9 66 -16.5 106t-19.5 72t-24 47.5 t-34.5 26t-46 12.5t-64.5 2h-256v-522q0 -127 102 -158v-41h-727z" />
<glyph unicode="G" horiz-adv-x="1738" d="M57 707q0 162 47 292t129 217t197.5 145t247 83.5t283.5 25.5q95 0 230 -18t204 -18l71 -523h-41q-41 151 -84.5 252.5t-94 159t-103.5 81t-121 23.5q-186 0 -293.5 -174t-107.5 -489q0 -385 80.5 -562t238.5 -177q60 0 115 18v358q0 102 -9.5 159.5t-42.5 97.5t-84.5 58 t-146.5 32v40l926 -40v-41q-30 0 -53 -14.5t-36.5 -43.5t-21.5 -56t-11.5 -68.5t-4 -64t-0.5 -59.5v-401q-185 0 -386 -18.5t-333 -18.5q-179 0 -322 43.5t-250 131.5t-165 232.5t-58 336.5z" />
<glyph unicode="H" horiz-adv-x="1914" d="M61 0v41q103 30 103 158v1038q0 126 -103 156v41h727v-41q-102 -31 -102 -156v-494h543v494q0 126 -103 156v41h727v-41q-102 -30 -102 -156v-1038q0 -128 102 -158v-41h-727v41q103 30 103 158v503h-543v-503q0 -127 102 -158v-41h-727z" />
<glyph unicode="I" horiz-adv-x="851" d="M61 0v41q103 30 103 158v1038q0 126 -103 156v41h727v-41q-102 -31 -102 -156v-1038q0 -127 102 -158v-41h-727z" />
<glyph unicode="J" horiz-adv-x="1079" d="M20 539h41q61 -214 109.5 -329.5t94 -159.5t106.5 -44q112 0 112 115q0 39 -20 94.5t-40 128t-20 154.5v739q0 125 -102 156v41h727v-41q-102 -30 -102 -156v-760q0 -238 -135 -376t-406 -138q-60 0 -147.5 21.5t-143.5 21.5z" />
<glyph unicode="K" horiz-adv-x="1992" d="M61 0v41q103 30 103 158v1038q0 126 -103 156v41h727v-41q-102 -31 -102 -156v-692l707 762q22 23 33.5 36t16 23.5t3.5 15t-14.5 7.5t-28.5 3.5t-47 0.5v41h330v-41q-90 0 -136 -15.5t-102 -74.5l-244 -263l559 -874q48 -77 207 -125v-41h-905v41q68 14 73 43q1 3 1 7 q0 28 -35 75l-293 452l-125 -135v-284q0 -127 102 -158v-41h-727z" />
<glyph unicode="L" horiz-adv-x="1415" d="M61 0v41q103 30 103 158v1038q0 126 -103 156v41h727v-41q-102 -31 -102 -156v-1196h297q52 0 86 5t71 22.5t62 49.5t52.5 87t51 134.5t48.5 192.5h41l-72 -532h-1262z" />
<glyph unicode="M" horiz-adv-x="2109" d="M25 0v41q111 33 125 156l120 1040q2 15 2 29q0 45 -20 74q-26 38 -92 53v41h667l254 -775l230 775h645v-41q-65 -15 -92 -53q-21 -29 -21 -75q0 -13 2 -28l127 -1040q14 -122 125 -156v-41h-756v41q55 15 76 53q15 28 15 69q0 16 -2 34l-130 1058l-362 -1255h-221 l-402 1255l-125 -1058q-2 -17 -2 -33q0 -42 16 -70q22 -38 77 -53v-41h-256z" />
<glyph unicode="N" horiz-adv-x="1497" d="M57 0v41q103 30 103 158v1142q-50 34 -103 52v41h721l555 -945v748q0 125 -102 156v41h244v-41q-101 -31 -101 -156v-1237h-397l-739 1264q-12 22 -37 47v-1112q0 -128 102 -158v-41h-246z" />
<glyph unicode="O" horiz-adv-x="1820" d="M59 717q0 156 47 283.5t127 213.5t190 144.5t232 85t256 26.5t255.5 -26t231 -84.5t189.5 -144.5t127 -214t47 -284t-47 -284t-126.5 -214t-189 -144.5t-231.5 -85t-256 -26.5t-256 26.5t-232 85.5t-190 145t-127 213.5t-47 283.5zM623 717q0 -396 61 -553.5t227 -157.5 q165 0 226 157.5t61 553.5t-61.5 554.5t-225.5 158.5q-166 0 -227 -158t-61 -555z" />
<glyph unicode="P" horiz-adv-x="1626" d="M61 0v41q103 30 103 158v1038q0 126 -103 156v41h134q163 1 401 18.5t303 17.5q134 0 240 -15t195.5 -51t149.5 -92.5t93 -142.5t33 -198q0 -117 -34 -207t-93 -148.5t-146 -96t-185.5 -53t-219.5 -15.5q-117 0 -246 22v-274q0 -127 141 -158v-41h-766zM686 516 q86 -24 148 -24q131 0 182 103.5t51 358.5q0 252 -59 364t-181 112q-58 0 -141 -19v-895z" />
<glyph unicode="Q" horiz-adv-x="1820" d="M59 717q0 156 47 283.5t127 213.5t190 144.5t232 85t256 26.5t255.5 -26t231 -84.5t189.5 -144.5t127 -214t47 -284q0 -153 -44.5 -278.5t-121.5 -211t-182.5 -145t-223.5 -88t-249 -31.5q13 -5 65.5 -27.5t69.5 -29t59.5 -22.5t65.5 -21.5t55.5 -11t59.5 -5.5 q76 0 130 40t93 145l39 -15q-15 -74 -32 -132t-45 -116.5t-62 -97t-84 -62.5t-111 -24q-80 0 -167 43.5t-163.5 105t-152 123t-158.5 105t-158 43.5q-133 0 -268 -135l-26 29q46 57 120 106t160 68q-112 59 -193 145t-129.5 214.5t-48.5 285.5zM623 717q0 -396 61 -553.5 t227 -157.5q165 0 226 157.5t61 553.5t-61.5 554.5t-225.5 158.5q-166 0 -227 -158t-61 -555z" />
<glyph unicode="R" horiz-adv-x="1857" d="M61 0v41q103 30 103 158v1038q0 126 -103 156v41h134q218 1 441 17.5t271 16.5q333 0 488 -79.5t155 -247.5q0 -162 -115 -247t-360 -108q149 -21 246 -53.5t155 -83.5t84.5 -112t38.5 -152q25 -207 40.5 -263t56.5 -56q67 0 104 178l41 -8q-13 -59 -26.5 -97 t-38.5 -74.5t-61.5 -57t-93 -32.5t-134.5 -12q-200 0 -297 97.5t-127 316.5q-32 245 -68 323t-131 78h-2q-57 0 -176 17v-596q0 -127 102 -158v-41h-727zM686 836q84 -17 150 -17q65 0 107.5 44t58.5 109.5t16 153.5q0 143 -44.5 222t-148.5 79q-69 0 -139 -16v-575z" />
<glyph unicode="S" horiz-adv-x="1470" d="M61 1110q0 94 52 164.5t146 112.5t215 62.5t269 20.5q85 0 244 -18t248 -18l74 -523h-43q-30 126 -72.5 220.5t-89 150.5t-103.5 90t-109.5 46t-113.5 12q-93 0 -143.5 -34.5t-50.5 -88.5q0 -65 63 -133t254 -201q223 -157 303 -228q153 -134 190 -267q15 -54 15 -113 q0 -219 -177 -310.5t-538 -91.5q-108 0 -285 18.5t-286 18.5l-57 532h40q25 -121 74.5 -216t106.5 -152t126 -94t129.5 -50.5t119.5 -13.5q112 0 168.5 48.5t56.5 125.5q0 42 -14.5 79t-37.5 69.5t-77 78.5t-106 85t-150 110q-101 70 -158 112t-119.5 96t-93 96.5 t-50.5 94.5t-20 109z" />
<glyph unicode="T" horiz-adv-x="1605" d="M20 911l72 523h1421l72 -523h-41q-30 130 -59.5 218t-57 140.5t-64 80t-69.5 35.5t-84 8h-145v-1194q0 -128 102 -158v-41h-727v41q103 31 103 158v1194h-146q-51 0 -84.5 -8t-70 -35.5t-64 -80t-57.5 -140t-60 -218.5h-41z" />
<glyph unicode="U" horiz-adv-x="1611" d="M51 1393v41h727v-41q-102 -31 -102 -156v-674q0 -217 98 -328.5t275 -111.5q160 0 264 114t104 326v674q0 126 -102 156v41h246v-41q-103 -30 -103 -156v-653q0 -621 -604 -621q-147 0 -271.5 38t-221.5 113.5t-152 199.5t-55 286v637q0 126 -103 156z" />
<glyph unicode="V" horiz-adv-x="1845" d="M20 1393v41h863v-41q-69 -14 -80 -47q-3 -8 -3 -18q0 -29 25 -71l383 -774l379 772q24 43 24 72q0 10 -3 19q-11 33 -78 47v41h293v-41q-142 -43 -187 -138l-620 -1292h-176l-631 1292q-45 96 -189 138z" />
<glyph unicode="W" horiz-adv-x="2617" d="M20 1393v41h1805v-41q-143 -42 -189 -136l-18 -40l364 -742l381 782q23 41 23 69q0 11 -4 20q-12 33 -80 47v41h295v-41q-141 -41 -189 -138l-614 -1292h-184l-297 615l-293 -615h-184l-627 1292q-45 96 -189 138zM803 1354q-2 -9 -2 -20q0 -33 22 -77l385 -782l78 158 l-303 624q-3 6 -10.5 22t-10.5 21.5t-10 19t-10.5 18.5t-10 15t-11.5 14t-12.5 10.5t-14.5 9t-15.5 4.5t-17.5 2q-48 1 -57 -39zM1593 1264q12 29 12 54t-12 46q-11 -20 -11 -45t11 -55z" />
<glyph unicode="X" horiz-adv-x="1830" d="M20 1393v41h906v-41q-66 -14 -72 -43q-1 -4 0 -8q0 -28 33 -74l278 -430l334 438q16 22 23 32t14 24.5t5.5 21t-8 15t-21.5 14t-39 10.5v41h301v-41q-114 -34 -161 -62q-40 -24 -63 -55l-360 -477l409 -633q50 -77 209 -125v-41h-903v41q28 6 44 14t23 17.5t4 24.5 t-10.5 30t-23.5 39l-278 430l-338 -438q-16 -22 -23 -32t-14 -24.5t-5.5 -21t8 -15t21.5 -14t39 -10.5v-41h-301v41q55 16 80.5 24.5t72 34.5t70.5 58l367 477l-410 633q-51 78 -211 125z" />
<glyph unicode="Y" horiz-adv-x="1824" d="M20 1393v41h912v-41q-28 -6 -44.5 -14t-23.5 -17.5t-4.5 -24.5t9.5 -31t22 -40l328 -521l327 521q33 48 33 76q0 4 -1 8q-5 29 -71 43v41h295v-41q-159 -48 -207 -127l-372 -590v-477q0 -127 102 -158v-41h-727v41q102 30 102 158v340l-469 729q-51 78 -211 125z" />
<glyph unicode="Z" horiz-adv-x="1523" d="M68 0v41l751 1352h-330q-43 0 -73 -5.5t-63 -22t-58 -49t-51.5 -85.5t-50.5 -132t-48 -188h-41l72 523h1278v-41l-752 -1352h367q36 0 61.5 3.5t55 15t51.5 33t46 57.5t44.5 88t42 125.5t41.5 168.5h41l-72 -532h-1312z" />
<glyph unicode="[" horiz-adv-x="890" d="M68 -324v1876h802v-41h-317v-1794h317v-41h-802z" />
<glyph unicode="\" horiz-adv-x="524" d="M20 1434h43l441 -1844h-43z" />
<glyph unicode="]" horiz-adv-x="890" d="M20 -283h318v1794h-318v41h803v-1876h-803v41z" />
<glyph unicode="^" horiz-adv-x="708" d="M61 874l263 560h63l260 -560h-45l-248 531l-248 -531h-45z" />
<glyph unicode="_" horiz-adv-x="948" d="M61 -123h826v-41h-826v41z" />
<glyph unicode="`" horiz-adv-x="743" d="M88 1249q0 69 15.5 115t50.5 71t100 10.5t156 -71.5l245 -160l-6 -26z" />
<glyph unicode="a" horiz-adv-x="1619" d="M47 385q0 104 37 185.5t103.5 132t153 76.5t189.5 26q302 0 402 -195v86q0 179 -63.5 251.5t-209.5 72.5q-45 0 -94.5 -9.5t-113 -32t-133.5 -69.5t-134 -114h-41l125 227q54 0 207 19.5t256 19.5q67 0 132.5 -5.5t138.5 -19.5t136 -35.5t122 -57.5t100.5 -81.5 t66.5 -110t25 -141.5l-2 -383q0 -66 32 -94q28 -25 87 -25q9 0 18 1l12 -39l-194 -52q-198 -55 -311 -55q-85 0 -123.5 33t-38.5 117v47q-99 -197 -402 -197q-103 0 -189.5 26.5t-153 77.5t-103.5 132.5t-37 185.5zM532 385q0 -148 53 -227.5t142 -79.5q91 0 148 75.5 t57 231.5q0 155 -57 230t-148 75q-89 0 -142 -78.5t-53 -226.5z" />
<glyph unicode="b" horiz-adv-x="1638" d="M37 1352v41h133q208 0 307 14t158 68h20v-578q194 164 451 164q73 0 142 -18t131.5 -57.5t109.5 -97.5t74.5 -144t27.5 -191q0 -137 -46.5 -250.5t-125.5 -186.5t-180 -113t-213 -40q-190 0 -308 87.5t-169 279.5q-133 -53 -213 -133.5t-156 -233.5h-41v1233 q0 125 -102 156zM655 383q0 -136 48 -210.5t131 -74.5q106 0 155 108t49 337q0 102 -6.5 171.5t-23.5 124t-49 80t-80 25.5q-45 0 -94.5 -21t-129.5 -83v-457z" />
<glyph unicode="c" horiz-adv-x="1302" d="M47 494q0 258 192.5 412.5t514.5 154.5q92 0 202.5 -18.5t161.5 -18.5l72 -369h-41q-113 359 -301 359q-127 0 -187.5 -109t-60.5 -295q0 -232 83.5 -364.5t231.5 -132.5q98 0 175.5 61.5t148.5 218.5l37 -14q-87 -223 -236.5 -319.5t-384.5 -96.5q-273 0 -440.5 143.5 t-167.5 387.5z" />
<glyph unicode="d" horiz-adv-x="1638" d="M47 473q0 136 46 248.5t124 186t177.5 113.5t207.5 40q259 0 381 -154v283q0 127 -102 158v41h133q213 0 309.5 13t155.5 68h20v-1230q0 -128 103 -158v-41h-134q-208 0 -307 -14t-157 -68h-21v170q-192 -166 -451 -166q-73 0 -141.5 18t-131.5 58t-109.5 98.5t-74.5 145 t-28 190.5zM600 481q0 -207 33.5 -304t126.5 -97q44 0 93.5 21t129.5 83v459q0 135 -47.5 210t-130.5 75q-107 0 -156 -108.5t-49 -338.5z" />
<glyph unicode="e" horiz-adv-x="1312" d="M47 500q0 257 176.5 409t474.5 152q263 0 402 -109.5t139 -351.5h-641q0 -230 85 -358.5t237 -128.5q100 0 179.5 61.5t151.5 218.5l39 -14q-89 -224 -240.5 -320t-392.5 -96q-276 0 -443 144.5t-167 392.5zM598 641h250q0 212 -27 294.5t-96 82.5q-70 0 -97.5 -93.5 t-29.5 -283.5z" />
<glyph unicode="f" horiz-adv-x="970" d="M33 983v41h303q-150 41 -210 95.5t-60 135.5q0 98 116.5 156.5t321.5 58.5q122 0 237 -18t158 -18l72 -342h-41q-37 99 -72.5 165t-70 101t-66 49t-68.5 14q-58 0 -90.5 -39.5t-32.5 -105.5q0 -104 67 -178t189 -74h127v-41q-114 0 -153 -30t-39 -107v-647 q0 -128 166 -158v-41h-785v41q103 31 103 158v647q0 55 -10.5 81.5t-48 41t-113.5 14.5z" />
<glyph unicode="g" horiz-adv-x="1456" d="M51 590q0 218 175 344.5t501 126.5q126 0 231 -21q54 99 122.5 156t179.5 82l77 -180q-39 4 -73 4q-55 0 -98 -10q-72 -18 -124 -70q179 -52 271 -163t92 -269q0 -218 -175 -343.5t-503 -125.5q-211 0 -356 53q-37 -21 -37 -41q0 -25 58 -37.5t309 -47.5q15 -2 22 -3 q371 -48 490.5 -89t119.5 -155q0 -68 -44.5 -118t-123 -77t-170.5 -39.5t-202 -12.5q-490 0 -490 147q0 91 209 121q-167 20 -261 47t-133.5 65t-39.5 97q0 118 229 168q-256 123 -256 391zM563 -291q0 -51 62.5 -75.5t160.5 -24.5q207 0 207 92q0 46 -58.5 65.5 t-248.5 38.5h-12q-60 -17 -85.5 -39.5t-25.5 -56.5zM600 590q0 -58 0.5 -86.5t1.5 -77.5t4.5 -74.5t9.5 -62t15.5 -54.5t22.5 -37.5t31.5 -27.5t41.5 -8q24 0 42.5 8t32 27.5t23 38t15.5 55t9.5 62t4.5 74.5t1.5 77.5t0.5 85.5q0 58 -0.5 86.5t-1.5 78t-4.5 75t-9.5 62 t-15.5 55t-23 38t-32 27.5t-42.5 8q-23 0 -41.5 -8t-31.5 -27t-22.5 -38.5t-15 -54.5t-9 -62.5t-5 -74.5t-2 -78.5t-0.5 -86.5z" />
<glyph unicode="h" horiz-adv-x="1728" d="M37 0v41q102 31 102 158v991q0 127 -102 158v41h133q213 0 309.5 13t155.5 68h20v-587q186 178 475 178q71 0 134.5 -11.5t123.5 -40t102.5 -71.5t68.5 -110t26 -152v-477q0 -127 101 -158v-41h-721v41q102 30 102 158v503q0 121 -37.5 173.5t-118.5 52.5 q-132 0 -256 -101v-628q0 -127 103 -158v-41h-721z" />
<glyph unicode="i" horiz-adv-x="804" d="M41 0v41q102 30 102 158v581q0 128 -102 158v41h133q212 0 310 13.5t157 68.5h21v-862q0 -128 102 -158v-41h-723zM119 1305q0 80 72.5 122.5t207.5 42.5q136 0 209.5 -42.5t73.5 -122.5q0 -82 -73 -125t-210 -43q-135 0 -207.5 43t-72.5 125z" />
<glyph unicode="j" horiz-adv-x="747" d="M-94 -47h39q37 -110 71 -183t65 -108t56.5 -48t55.5 -13q36 0 55.5 26.5t19.5 75.5q0 54 -18.5 112.5t-40.5 102.5t-40.5 108t-18.5 128v626q0 127 -103 158v41h133q211 0 308.5 13.5t156.5 68.5h21v-1012q0 -56 -1 -93.5t-3.5 -83t-8.5 -75t-15.5 -63.5t-24 -55.5 t-34.5 -44t-46.5 -35.5t-61 -24.5t-77.5 -16t-95 -4.5q-99 0 -192.5 18t-131.5 18zM96 1305q0 79 73 122t208 43q136 0 209 -42.5t73 -122.5q0 -82 -72.5 -125t-209.5 -43q-135 0 -208 43.5t-73 124.5z" />
<glyph unicode="k" horiz-adv-x="1775" d="M37 0v41q102 31 102 158v991q0 127 -102 158v41h133q213 0 309.5 13t155.5 68h20v-1067l564 494q34 29 45.5 47t-1.5 26t-35 10.5t-67 2.5v41h373v-41q-96 0 -144 -16.5t-114 -73.5l-115 -100l387 -625q49 -81 207 -127v-41h-883v41q27 6 42.5 14t22 17.5t3.5 25 t-10.5 30.5t-22.5 40l-162 258l-90 -78v-149q0 -127 103 -158v-41h-721z" />
<glyph unicode="l" horiz-adv-x="794" d="M37 0v41q102 31 102 158v991q0 127 -102 158v41h133q213 0 309.5 13t155.5 68h20v-1271q0 -127 103 -158v-41h-721z" />
<glyph unicode="m" horiz-adv-x="2523" d="M37 0v41q102 31 102 158v581q0 127 -102 158v41h133q211 0 308.5 13.5t156.5 68.5h20v-178q80 76 193 127t250 51q61 0 116.5 -10t109.5 -33t97.5 -64.5t67.5 -99.5q217 207 471 207q63 0 119 -10t112.5 -36t97 -66.5t66 -106t25.5 -150.5v-493q0 -128 102 -158v-41h-723 v41q103 30 103 158v503q0 220 -131 220q-83 0 -226 -119q13 -54 13 -111v-493q0 -128 102 -158v-41h-721v41q102 31 102 158v503q0 220 -133 220q-86 0 -213 -103v-620q0 -127 103 -158v-41h-721z" />
<glyph unicode="n" horiz-adv-x="1728" d="M37 0v41q102 31 102 158v581q0 127 -102 158v41h133q211 0 308.5 13.5t156.5 68.5h20v-178q186 178 475 178q71 0 134.5 -11.5t123.5 -40t102.5 -71.5t68.5 -110t26 -152v-477q0 -127 101 -158v-41h-721v41q102 30 102 158v503q0 121 -37.5 173.5t-118.5 52.5 q-132 0 -256 -101v-628q0 -127 103 -158v-41h-721z" />
<glyph unicode="o" horiz-adv-x="1517" d="M41 512q0 253 186 401t531 148q346 0 532.5 -147.5t186.5 -401.5t-186 -401.5t-533 -147.5q-345 0 -531 148t-186 401zM594 512q0 -92 2 -154.5t8 -124.5t17 -100t29 -69t45 -44.5t63 -13.5t63 13.5t45.5 44t30 69.5t17.5 100.5t8 124.5t2 154q0 92 -2 155.5t-8 125 t-17.5 100t-30 69.5t-45.5 44.5t-63 13.5t-62.5 -13.5t-44.5 -44.5t-29.5 -70t-17.5 -100.5t-8 -125t-2 -154.5z" />
<glyph unicode="p" horiz-adv-x="1638" d="M37 -369q102 31 102 156v993q0 127 -102 158v41h133q211 0 308.5 13.5t156.5 68.5h20v-164q194 164 451 164q92 0 176 -30t154.5 -89t112.5 -159.5t42 -229.5q0 -136 -46 -249.5t-124 -187t-177.5 -113.5t-207.5 -40q-258 0 -381 156v-332q0 -125 103 -156v-41h-721v41z M655 383q0 -136 48 -210.5t131 -74.5q106 0 155 108t49 337q0 102 -6.5 171.5t-23.5 124t-49 80t-80 25.5q-45 0 -94.5 -21t-129.5 -83v-457z" />
<glyph unicode="q" horiz-adv-x="1632" d="M47 473q0 136 46.5 249t125.5 186t180 113t213 40q190 0 308.5 -86.5t169.5 -278.5q131 54 212 135t156 234h41v-1278q0 -126 103 -156v-41h-721v41q102 31 102 156v342q-192 -166 -451 -166q-73 0 -141.5 18t-131.5 58t-110 98t-74.5 144.5t-27.5 191.5zM600 481 q0 -207 33.5 -304t126.5 -97q44 0 93.5 21t129.5 83v459q0 135 -47.5 210t-130.5 75q-107 0 -156 -108.5t-49 -338.5z" />
<glyph unicode="r" horiz-adv-x="1320" d="M37 0v41q102 31 102 158v581q0 127 -102 158v41h133q211 0 308.5 13.5t156.5 68.5h20v-209q121 116 192 162.5t157 46.5q44 0 76 -14.5t46.5 -31.5t35.5 -31.5t46 -14.5q22 0 74 35l18 -39q-7 -52 -20 -98t-36 -91.5t-53 -78t-73.5 -52.5t-95.5 -20q-64 0 -105 25.5 t-56.5 64t-22.5 77t-13 70.5t-18 39q-5 5 -18 0.5t-44.5 -29.5t-89.5 -77v-596q0 -127 211 -158v-41h-829z" />
<glyph unicode="s" horiz-adv-x="1230" d="M41 410h41q28 -100 65.5 -174t76.5 -117t87 -68.5t90.5 -34t94.5 -8.5q78 0 109.5 30t31.5 73q0 27 -13 54.5t-31 50t-57 56t-71.5 57.5t-93.5 68q-161 106 -226 191t-65 192q0 79 37 134.5t108 87t164 45.5t217 14q132 0 266.5 -18.5t192.5 -18.5l72 -369h-41 q-37 113 -77.5 186.5t-85 110t-86.5 49.5t-97 13t-87 -24t-32 -64q0 -52 52.5 -107t207.5 -164q168 -117 231.5 -198t63.5 -181q0 -169 -138.5 -241t-441.5 -72q-139 0 -296.5 18.5t-211.5 18.5z" />
<glyph unicode="t" horiz-adv-x="976" d="M20 983v41q133 0 234 15.5t168 43t113.5 70t71.5 90.5t40 111h35v-330h227v-41q-96 0 -145 -14.5t-65.5 -42t-16.5 -80.5v-494q0 -57 2.5 -91.5t10 -65.5t23 -44.5t40.5 -13.5q47 0 78 50.5t67 179.5l37 -17q-15 -55 -28 -93.5t-32.5 -82t-41 -72.5t-53 -57.5t-69.5 -45 t-89 -26.5t-113 -10q-109 0 -179 26t-107 83.5t-50.5 131t-13.5 187.5v455q0 41 -4.5 64t-19.5 41.5t-43.5 25t-76.5 6.5z" />
<glyph unicode="u" horiz-adv-x="1734" d="M41 938v41h133q212 0 310 13.5t157 68.5h21v-739q0 -120 37.5 -173t117.5 -53q132 0 256 101v583q0 127 -102 158v41h133q211 0 308.5 13.5t156.5 68.5h20v-817q0 -128 103 -156v-41l-133 -2q-211 0 -308.5 -13.5t-156.5 -68.5h-21v178q-190 -178 -475 -178 q-71 0 -134.5 11.5t-123.5 40t-102.5 71.5t-68.5 110t-26 152v432q0 128 -102 158z" />
<glyph unicode="v" horiz-adv-x="1572" d="M20 983v41h887v-41q-67 -14 -74 -44q-1 -5 -1 -10q0 -29 30 -75l258 -438l201 430q21 42 21 70q0 10 -4 20q-12 32 -78 47v41h292v-41q-143 -42 -186 -137l-416 -883h-198l-529 891q-49 84 -203 129z" />
<glyph unicode="w" horiz-adv-x="2449" d="M20 983v41h1766v-41q-67 -14 -75 -43q-1 -5 -1 -11q0 -28 29 -73l258 -440l198 430q23 42 23 71q0 11 -4 19q-12 32 -80 47v41h295v-41q-143 -42 -186 -137l-416 -883h-193l-385 649l-305 -649h-192l-529 891q-49 84 -203 129zM850 944q-10 -17 -10 -36q0 -25 16 -54 l258 -438l111 237l-119 203q-36 62 -75.5 94.5t-96.5 32.5q-62 -1 -84 -39z" />
<glyph unicode="x" horiz-adv-x="1460" d="M25 983v41h868v-41q-67 -15 -75 -45q-1 -6 -1 -11q0 -29 29 -75l147 -258l158 260q30 47 30 75q-1 5 -1 10q-6 30 -74 44v41h295v-41q-155 -47 -203 -129l-180 -301l219 -381q48 -85 199 -131v-41h-871v41q67 15 75 45q1 6 1 11q0 29 -29 75l-157 272l-164 -274 q-30 -47 -30 -75q1 -5 1 -10q6 -30 74 -44v-41h-295v41q155 47 203 129l188 313l-211 369q-47 84 -196 131z" />
<glyph unicode="y" horiz-adv-x="1439" d="M20 983v41h859v-41q-68 -14 -79 -47q-3 -8 -3 -18q0 -28 24 -70l203 -408l170 402q18 39 18 68q0 14 -4 25q-14 34 -82 48v41h291v-41q-137 -42 -178 -141l-428 -1018q-60 -136 -83 -172q-50 -78 -128 -93q-25 -5 -55 -5q-47 0 -121.5 18t-126.5 18l-74 363h41 q51 -146 96.5 -225t87 -106.5t99.5 -27.5q41 0 69.5 11.5t54 42.5t45 69.5t48.5 108.5l57 137h-162l-446 885q-47 92 -193 135z" />
<glyph unicode="z" horiz-adv-x="1378" d="M41 0v41l621 942h-166q-154 0 -226.5 -63t-156.5 -265h-41l84 369h1161v-41l-623 -942h219q81 0 132 14t95.5 57t78 110.5t77.5 187.5h41l-84 -410h-1212z" />
<glyph unicode="{" horiz-adv-x="944" d="M47 594v41q52 0 89.5 8.5t61 21t36 36.5t17 46.5t2.5 60t-6 67t-10.5 78t-9.5 83.5q-9 70 -2.5 132.5t26.5 116t69 98t125.5 78t196.5 57t282 34.5v-20q-84 -24 -125 -72.5t-47.5 -123.5t2.5 -181q11 -121 -4 -210t-61.5 -157.5t-130.5 -110.5t-210 -63 q126 -21 210 -62.5t130.5 -109.5t61.5 -156.5t4 -209.5q-9 -107 -2.5 -182t47.5 -124t125 -73v-21q-162 11 -282 34.5t-196 57t-125 78.5t-68.5 98.5t-26.5 116t1 132.5q3 35 9.5 83.5t10.5 78t6 67t-2.5 60t-17 46.5t-36 36.5t-61 21t-89.5 8.5z" />
<glyph unicode="|" horiz-adv-x="163" d="M61 -123v1679h41v-1679h-41z" />
<glyph unicode="}" horiz-adv-x="944" d="M20 -303q84 24 125 73t47.5 124t-2.5 182q-11 121 4 209.5t61.5 156.5t130.5 109.5t210 62.5q-126 21 -210 63t-130.5 110.5t-61.5 157.5t-4 210q9 106 2.5 181t-47.5 123.5t-125 72.5v20q162 -11 282 -34.5t196.5 -57t125.5 -78t69 -98t26.5 -116t-2.5 -132.5 q-3 -35 -9.5 -83.5t-10.5 -78t-6 -67t2.5 -60t17 -46.5t36 -36.5t61 -21t89.5 -8.5v-41q-52 0 -89.5 -8.5t-61 -21t-36 -36.5t-17 -46.5t-2.5 -60t6 -67t10.5 -78t9.5 -83.5q8 -70 1 -132.5t-26.5 -116t-68.5 -98.5t-125 -78.5t-196 -57t-282 -34.5v21z" />
<glyph unicode="~" horiz-adv-x="835" d="M102 467q44 69 85 99t102 30q36 0 67.5 -13t55 -31t46 -36.5t50.5 -31.5t59 -13q49 0 76 23.5t53 83.5l37 -17q-29 -69 -66.5 -100t-99.5 -31q-37 0 -69 13t-55 31t-45.5 36.5t-50.5 31.5t-58 13q-50 0 -79.5 -22t-70.5 -82z" />
<glyph unicode="&#xa1;" d="M41 -260q0 62 26 147.5t57 167t57 229t26 320.5h41q0 -173 27 -320.5t59 -229t59 -167t27 -147.5q0 -88 -53 -137t-138 -49t-136.5 48.5t-51.5 137.5zM41 905q0 67 49.5 111.5t138.5 44.5t140 -44.5t51 -111.5q0 -65 -51 -108t-140 -43t-138.5 42.5t-49.5 108.5z" />
<glyph unicode="&#xa2;" horiz-adv-x="1302" d="M47 698q0 258 192.5 413t514.5 155q34 0 84 -4v294h41v-296q32 -4 80 -12.5t85.5 -13.5t73.5 -5l72 -369h-41q-105 329 -270 357v-898q12 -2 36 -2q98 0 175.5 62t148.5 219l37 -14q-64 -165 -161.5 -259t-235.5 -130v-318h-41v307q-88 -16 -183 -16q-273 0 -440.5 143.5 t-167.5 386.5zM600 815q0 -198 62 -325.5t176 -161.5v891q-82 -3 -136.5 -57t-78 -141t-23.5 -206z" />
<glyph unicode="&#xa3;" horiz-adv-x="1273" d="M55 233q0 100 77.5 169t211.5 69q57 0 113 -19.5t92 -42t90 -61.5q-7 41 -26.5 79.5t-42.5 68t-60.5 63t-66.5 55.5t-75 56q-15 11 -22 16h-285v41h230q-52 40 -89 76.5t-71.5 84t-52 104.5t-17.5 122q0 120 78 201t213 118t324 37q103 0 220 -18t181 -18l72 -512h-43 q-56 203 -108.5 316.5t-100 152.5t-109.5 39q-50 0 -84.5 -24.5t-53 -71t-26.5 -103t-8 -131.5q0 -186 33 -373h297v-41h-289q9 -50 28 -133t27.5 -134.5t8.5 -96.5l-2 -33q66 -45 123 -69.5t123 -24.5q84 0 134.5 48.5t76.5 159.5h43q-9 -109 -26 -188.5t-40 -127.5 t-55.5 -76t-66 -38t-77.5 -10q-75 0 -138.5 42t-145.5 122q-45 -76 -123.5 -120t-175.5 -44q-60 0 -114 15.5t-100.5 46t-74 84.5t-27.5 124zM207 164q0 -71 48.5 -114.5t125.5 -43.5q88 0 149 46.5t91 121.5q-71 67 -127 102t-119 35q-73 0 -120.5 -38.5t-47.5 -108.5z" />
<glyph unicode="&#xa4;" horiz-adv-x="1062" d="M57 240l183 182q-107 123 -107 295t107 295l-183 182l29 29l182 -183q110 107 264 107t265 -105l182 181l29 -29l-183 -180q107 -126 107 -297q0 -172 -107 -295l183 -182l-29 -29l-182 182q-109 -106 -265 -106q-155 0 -264 106l-182 -182zM174 717q0 -163 102.5 -276 t255.5 -113t256 113.5t103 275.5t-103 275.5t-256 113.5t-255.5 -113t-102.5 -276z" />
<glyph unicode="&#xa5;" horiz-adv-x="1824" d="M20 1393v41h912v-41q-28 -6 -44.5 -14t-23.5 -17.5t-4.5 -24.5t9.5 -31t22 -40l225 -359h205l225 359q38 55 32.5 84t-71.5 43v41h295v-41q-159 -48 -207 -127l-227 -359h291v-41h-316l-77 -123h393v-41h-420l-16 -26v-477q0 -127 102 -158v-41h-727v41q102 30 102 158 v340l-104 163h-432v41h405l-80 123h-325v41h299l-232 361q-51 78 -211 125zM1143 866l76 -121l75 121h-151z" />
<glyph unicode="&#xa6;" horiz-adv-x="163" d="M61 -123v655h41v-655h-41zM61 901v655h41v-655h-41z" />
<glyph unicode="&#xa7;" horiz-adv-x="1449" d="M51 440q0 162 139.5 257t384.5 124q-160 123 -220 198t-60 173q0 72 37 123t108.5 79.5t163 41t213.5 12.5q138 0 271.5 -18.5t189.5 -18.5l70 -362h-41q-36 111 -74 183.5t-80.5 108.5t-82.5 49t-93 13t-84 -28.5t-31 -74.5q0 -58 39 -98.5t187 -150.5q18 -14 28 -21 q81 -60 129.5 -103.5t86.5 -93.5t53.5 -103.5t15.5 -121.5q0 -161 -140 -256.5t-384 -126.5q81 -61 127 -101t83.5 -84.5t52.5 -88t15 -96.5q0 -58 -24.5 -102t-68.5 -73t-110 -47.5t-143 -26t-174 -7.5q-138 0 -271.5 18t-189.5 18l-70 363h41q36 -111 74 -183t80.5 -108 t81.5 -48.5t92 -12.5q54 0 85.5 27t31.5 73q0 57 -37.5 97t-175.5 144q-27 20 -41 31q-80 59 -129 102t-87 93.5t-53.5 104t-15.5 122.5zM571 557q0 -36 11 -65t40 -60.5t56 -54t82 -64.5q64 34 92.5 75.5t28.5 100.5q0 69 -42.5 118t-146.5 126q-64 -32 -92.5 -74 t-28.5 -102z" />
<glyph unicode="&#xa8;" horiz-adv-x="890" d="M39 1348q0 122 117 122q116 0 116 -122q0 -121 -116 -121q-117 0 -117 121zM492 1348q0 122 116 122q117 0 117 -122q0 -121 -117 -121q-116 0 -116 121z" />
<glyph unicode="&#xa9;" horiz-adv-x="1566" d="M41 717q0 214 100.5 387.5t270 269.5t372.5 96q151 0 287.5 -56.5t236.5 -155t159 -239.5t59 -302t-59 -302t-159 -239.5t-236.5 -155.5t-287.5 -57t-288 57t-237 155.5t-159 239.5t-59 302zM82 719q0 -153 56 -287t150.5 -227t223.5 -146t272 -53t272 53.5t223.5 147 t150 227t55.5 285.5t-55.5 285t-150 226t-223.5 146.5t-272 53.5q-191 0 -351.5 -90.5t-255.5 -254.5t-95 -366zM342 700q0 209 138 332t370 123q67 0 145.5 -14.5t114.5 -14.5l51 -295h-28q-81 289 -215 289q-92 0 -135.5 -87t-43.5 -236q0 -186 60 -293t166 -107 q70 0 125.5 50t105.5 176l29 -13q-63 -179 -170 -255t-277 -76q-196 0 -316 114t-120 307z" />
<glyph unicode="&#xaa;" horiz-adv-x="1107" d="M39 985q0 144 95 218.5t249 74.5q189 0 264 -111v37q0 125 -43 175.5t-143 50.5q-179 0 -328 -156h-29l89 158q38 0 140.5 13t172.5 13q66 0 127.5 -7.5t127.5 -29t114 -54.5t79 -89.5t31 -128.5v-215q0 -66 31 -94.5t104 -24.5l13 -37l-193 -55q-112 -31 -188 -31 q-55 0 -80 22t-25 77v14q-74 -113 -264 -113q-152 0 -248 75t-96 218zM358 985q0 -105 38.5 -162t103.5 -57q63 0 105 55t42 164q0 112 -41.5 166.5t-105.5 54.5q-65 0 -103.5 -57.5t-38.5 -163.5z" />
<glyph unicode="&#xab;" horiz-adv-x="800" d="M51 514q0 56 51 94l312 232l26 -25l-168 -301l168 -303l-26 -25l-312 234q-51 41 -51 94zM375 514q0 56 51 94l311 232l27 -25l-168 -301l168 -303l-27 -25l-311 234q-51 41 -51 94z" />
<glyph unicode="&#xac;" horiz-adv-x="778" d="M102 610v41h574v-286h-41v245h-533z" />
<glyph unicode="&#xad;" horiz-adv-x="839" d="M61 492v40h717v-40h-717z" />
<glyph unicode="&#xae;" horiz-adv-x="870" d="M57 1085q0 167 109.5 276t269.5 109q159 0 269 -109t110 -276q0 -166 -110 -274.5t-269 -108.5q-160 0 -269.5 108t-109.5 275zM98 1085q0 -150 97.5 -246t240.5 -96q142 0 240 96.5t98 245.5q0 150 -98 247.5t-240 97.5q-143 0 -240.5 -97.5t-97.5 -247.5zM240 893v12 q34 12 34 53v279q0 41 -34 53v13h45q45 1 100 6.5t80 5.5q65 0 104 -24.5t39 -76.5q0 -84 -110 -100q53 -7 76 -30t34 -78q11 -57 20.5 -75t30.5 -18v-20q-75 0 -107 8t-44.5 26.5t-22.5 65.5q-18 91 -23 101q-8 16 -26 16q-19 0 -39 4v-156q0 -42 33 -53v-12h-190z M397 1137q12 -4 35 -4q51 0 51 79q0 80 -47 80q-18 0 -39 -6v-149z" />
<glyph unicode="&#xaf;" horiz-adv-x="860" d="M88 1270v112h686v-112h-686z" />
<glyph unicode="&#xb0;" horiz-adv-x="634" d="M47 1184q0 124 77.5 205t192.5 81q116 0 194.5 -81t78.5 -205t-78.5 -205.5t-194.5 -81.5q-115 0 -192.5 81.5t-77.5 205.5zM88 1184q0 -106 66 -176t163 -70q99 0 165.5 70.5t66.5 175.5q0 107 -66.5 176.5t-165.5 69.5q-97 0 -163 -70t-66 -176z" />
<glyph unicode="&#xb1;" horiz-adv-x="778" d="M102 170v41h574v-41h-574zM102 553v41h267v266h41v-266h266v-41h-266v-266h-41v266h-267z" />
<glyph unicode="&#xb2;" horiz-adv-x="722" d="M18 922v20q158 155 212 217q161 194 165 346q0 61 -20.5 96t-79.5 35q-67 0 -116.5 -56t-92.5 -208h-20l34 270q28 0 104.5 7.5t139.5 7.5q78 0 140.5 -10.5t114 -33.5t80 -64.5t28.5 -98.5q0 -70 -36 -126t-108 -100.5t-162 -78.5t-217 -68h283q100 0 141 23t66 90h20 l-37 -268h-639z" />
<glyph unicode="&#xb3;" horiz-adv-x="739" d="M20 1190h21q43 -153 89 -209.5t120 -56.5q77 0 117.5 64t40.5 175q0 82 -30.5 135.5t-96.5 53.5q-41 0 -119 -56l-12 17q108 82 136 110q68 66 68 136q0 33 -18 55t-60 22q-71 0 -118.5 -59t-87.5 -205h-21l35 270q29 0 109 7.5t143 7.5q157 0 230 -32.5t73 -106.5 q0 -57 -39 -89.5t-108 -52.5q43 -6 81 -21.5t72 -41t54 -65.5t20 -91q0 -68 -32 -118.5t-90 -79.5t-131 -42.5t-163 -13.5q-68 0 -144.5 7.5t-103.5 7.5z" />
<glyph unicode="&#xb4;" horiz-adv-x="743" d="M88 1214l246 160q321 201 321 -125l-561 -61z" />
<glyph unicode="&#xb6;" horiz-adv-x="1212" d="M27 1044q0 82 28 152t81.5 123.5t138 84t190.5 30.5h672v-1557h-41v1516h-430v-1516h-41v776h-160q-210 0 -324 110t-114 281z" />
<glyph unicode="&#xb7;" d="M41 528q0 66 50.5 109t139.5 43t139 -43t50 -109q0 -67 -50 -111t-139 -44t-139.5 44t-50.5 111z" />
<glyph unicode="&#xb8;" horiz-adv-x="618" d="M41 -184h41q32 -132 65 -178t80 -46q74 0 74 82q0 68 -38.5 126.5t-92.5 62.5v20l51 117h45l-49 -115q361 -3 361 -166q0 -83 -80 -124t-197 -41q-62 0 -123.5 9t-101.5 9z" />
<glyph unicode="&#xb9;" horiz-adv-x="471" d="M14 1507v21q238 12 373 129h10v-635q0 -28 14 -49.5t40 -28.5v-22h-394v22q52 16 52 78v405q0 42 -19.5 61t-75.5 19z" />
<glyph unicode="&#xba;" horiz-adv-x="1040" d="M37 1075q0 180 125 281.5t358 101.5t359.5 -102t126.5 -281q0 -178 -126 -280.5t-360 -102.5q-232 0 -357.5 102.5t-125.5 280.5zM397 1075q0 -94 4.5 -154.5t17.5 -108.5t38 -69.5t63 -21.5q39 0 64 21.5t37.5 69.5t17 108t4.5 155q0 75 -2.5 126.5t-10 97.5t-21 73 t-36 42.5t-53.5 15.5q-38 0 -63 -22t-38 -70t-17.5 -109t-4.5 -154z" />
<glyph unicode="&#xbb;" horiz-adv-x="800" d="M37 211l168 303l-168 301l26 25l312 -232q51 -38 51 -94q0 -53 -51 -94l-312 -234zM360 211l168 303l-168 301l27 25l311 -232q52 -39 52 -94q0 -53 -52 -94l-311 -234z" />
<glyph unicode="&#xbc;" horiz-adv-x="1339" d="M14 1303v20q238 12 373 129h10v-635q0 -28 14 -49.5t40 -28.5v-22h-394v22q52 16 52 78v406q0 42 -19.5 61t-75.5 19zM135 0l795 1434h47l-795 -1434h-47zM575 154v20l343 563h10q77 -27 136 -35t142 -8v-385h119v-155h-119v-54q0 -61 54 -77v-23h-398v23q56 17 56 77v54 h-343zM682 309h236v387z" />
<glyph unicode="&#xbd;" horiz-adv-x="1316" d="M14 1303v20q238 12 373 129h10v-635q0 -28 14 -49.5t40 -28.5v-22h-394v22q52 16 52 78v406q0 42 -19.5 61t-75.5 19zM135 0l795 1434h47l-795 -1434h-47zM612 0v20q159 155 214 220q162 190 163 344q0 61 -20.5 96t-79.5 35q-67 0 -116.5 -56t-92.5 -208h-21l35 270 q28 0 104.5 7t139.5 7q362 0 362 -207q0 -56 -24.5 -103.5t-67.5 -85t-110 -71t-143 -59.5t-177 -53h283q100 0 141 22.5t66 89.5h20l-37 -268h-639z" />
<glyph unicode="&#xbe;" horiz-adv-x="1554" d="M20 985h21q43 -153 89 -209.5t120 -56.5q77 0 117.5 64t40.5 175q0 82 -30.5 135.5t-96.5 53.5q-42 0 -119 -55l-12 16q108 82 136 110q68 66 68 136q0 33 -18 55.5t-60 22.5q-71 0 -118.5 -59.5t-87.5 -205.5h-21l35 271q29 0 109 7t143 7q157 0 230 -32.5t73 -106.5 q0 -57 -39 -89.5t-108 -52.5q43 -6 81 -21.5t72 -41t54 -65.5t20 -91q0 -68 -32 -118.5t-90 -79.5t-131 -42.5t-163 -13.5q-68 0 -144.5 7.5t-103.5 7.5zM350 0l795 1434h47l-795 -1434h-47zM791 154v20l342 563h10q77 -27 136 -35t142 -8v-385h119v-155h-119v-54 q0 -61 54 -77v-23h-398v23q56 17 56 77v54h-342zM897 309h236v387z" />
<glyph unicode="&#xbf;" horiz-adv-x="1091" d="M57 -176q0 35 8.5 66.5t22 56.5t36.5 48t43 39t52.5 33t55.5 26.5t59.5 22t56 18t55 15t48.5 13.5q43 13 71 28t48.5 41.5t31.5 54t17.5 79t8 102t1.5 137.5h41q0 -180 -11 -288t-25.5 -156.5t-51.5 -141.5q-24 -65 -35 -97.5t-21 -82t-10 -94.5q0 -143 111 -143 q65 0 113.5 41t100 154t109.5 317h41l-69 -523q-55 0 -181 -18t-272 -18q-96 0 -175.5 15t-143.5 46t-100 84.5t-36 124.5zM504 905q0 67 49.5 111.5t138.5 44.5t140 -44.5t51 -111.5q0 -65 -51 -108t-140 -43t-138.5 42.5t-49.5 108.5z" />
<glyph unicode="&#xc0;" horiz-adv-x="1710" d="M20 0v41q133 39 173 143l405 1092l-25 76v20q224 0 334 20.5t183 77.5h20l416 -1282q33 -108 162 -147v-41h-822v41q70 15 88.5 50.5t-4.5 96.5l-63 199h-576l-75 -203q-25 -59 -8.5 -94t85.5 -49v-41h-293zM326 428h546l-254 782zM561 1618q0 69 15.5 115t50.5 71 t100 10.5t156 -71.5l245 -160l-6 -27z" />
<glyph unicode="&#xc1;" horiz-adv-x="1710" d="M20 0v41q133 39 173 143l405 1092l-25 76v20q224 0 334 20.5t183 77.5h20l416 -1282q33 -108 162 -147v-41h-822v41q70 15 88.5 50.5t-4.5 96.5l-63 199h-576l-75 -203q-25 -59 -8.5 -94t85.5 -49v-41h-293zM326 428h546l-254 782zM559 1583l246 160q321 201 321 -125 l-561 -62z" />
<glyph unicode="&#xc2;" horiz-adv-x="1710" d="M20 0v41q133 39 173 143l405 1092l-25 76v20q224 0 334 20.5t183 77.5h20l416 -1282q33 -108 162 -147v-41h-822v41q70 15 88.5 50.5t-4.5 96.5l-63 199h-576l-75 -203q-25 -59 -8.5 -94t85.5 -49v-41h-293zM326 428h546l-254 782zM508 1565l250 229q48 45 84 45t84 -45 l250 -229l-27 -27l-307 100l-307 -100z" />
<glyph unicode="&#xc3;" horiz-adv-x="1710" d="M20 0v41q133 39 173 143l405 1092l-25 76v20q224 0 334 20.5t183 77.5h20l416 -1282q33 -108 162 -147v-41h-822v41q70 15 88.5 50.5t-4.5 96.5l-63 199h-576l-75 -203q-25 -59 -8.5 -94t85.5 -49v-41h-293zM326 428h546l-254 782zM481 1575q45 131 100 204.5t132 73.5 q43 0 90.5 -18t82 -40t75 -40t71.5 -18q39 0 67.5 22t67.5 78l37 -16q-30 -126 -83 -202.5t-130 -76.5q-44 0 -91.5 18.5t-82 40t-74.5 40t-71 18.5q-81 0 -154 -100z" />
<glyph unicode="&#xc4;" horiz-adv-x="1710" d="M20 0v41q133 39 173 143l405 1092l-25 76v20q224 0 334 20.5t183 77.5h20l416 -1282q33 -108 162 -147v-41h-822v41q70 15 88.5 50.5t-4.5 96.5l-63 199h-576l-75 -203q-25 -59 -8.5 -94t85.5 -49v-41h-293zM326 428h546l-254 782zM440 1694q0 70 46 107.5t132 37.5 t132.5 -37.5t46.5 -107.5q0 -72 -46 -109t-133 -37t-132.5 37t-45.5 109zM893 1694q0 70 46 107.5t132 37.5t132 -37.5t46 -107.5q0 -72 -45.5 -109t-132.5 -37t-132.5 37t-45.5 109z" />
<glyph unicode="&#xc5;" horiz-adv-x="1710" d="M20 0v41q133 39 173 143l405 1092l-25 76v20q224 0 334 20.5t183 77.5h20l416 -1282q33 -108 162 -147v-41h-822v41q70 15 88.5 50.5t-4.5 96.5l-63 199h-576l-75 -203q-25 -59 -8.5 -94t85.5 -49v-41h-293zM326 428h546l-254 782zM631 1702q0 74 59.5 121t153.5 47 q89 0 151 -47.5t62 -120.5q0 -71 -62 -118.5t-151 -47.5q-93 0 -153 47t-60 119zM678 1702q0 -55 46 -90t120 -35q70 0 118 35.5t48 89.5q0 56 -48 91.5t-118 35.5q-75 0 -120.5 -35t-45.5 -92z" />
<glyph unicode="&#xc6;" horiz-adv-x="2138" d="M14 0v41q152 42 199 137l590 1170q-22 32 -70 45v41h1245l72 -523h-41q-30 130 -59.5 218t-57 140.5t-64.5 80t-71 35.5t-86 8h-313v-615h278q34 0 54.5 2.5t39.5 11.5t27.5 24.5t14 44t5 67t-4.5 96.5h40l56 -553h-43q-9 65 -16 105.5t-19 72.5t-23 47.5t-33.5 26 t-45 12.5t-62.5 2h-268v-696h362q51 0 84.5 8t70.5 35.5t65 80.5t57.5 143.5t58.5 223.5h41l-72 -532h-1292v41q103 30 103 158v188h-471l-107 -209q-32 -58 -20 -90.5t84 -46.5v-41h-308zM385 428h451v809q0 36 -9 63z" />
<glyph unicode="&#xc7;" horiz-adv-x="1564" d="M57 707q0 154 48.5 282t132.5 216t198 148.5t243 88.5t269 28q99 0 238.5 -18t204.5 -18l71 -523h-41q-36 150 -78 251.5t-93 158.5t-105.5 80.5t-124.5 23.5q-183 0 -291 -171t-108 -459q0 -204 48.5 -356t148 -239t239.5 -87q52 0 101.5 13.5t102.5 46.5t97 83.5 t82.5 131t62.5 183.5l41 -10q-31 -138 -80 -242t-109.5 -171.5t-140 -109t-163.5 -58.5t-187 -17h-20l-33 -78q360 -3 360 -166q0 -83 -79.5 -124t-196.5 -41q-62 0 -123.5 9t-101.5 9l-35 244h41q32 -132 65 -178t80 -46q74 0 74 82q0 68 -38.5 126.5t-92.5 62.5v20l35 82 q-125 6 -235 37.5t-203.5 92.5t-160.5 146t-105 204t-38 262z" />
<glyph unicode="&#xc8;" horiz-adv-x="1466" d="M61 0v41q103 30 103 158v1038q0 126 -103 156v41h1246l71 -523h-41q-30 130 -59.5 218t-57 140.5t-64.5 80t-71 35.5t-86 8h-313v-615h279q34 0 54.5 2.5t39 11.5t27 24.5t14 44t5 67t-4.5 96.5h41l55 -553h-43q-9 65 -16 105.5t-19 72.5t-23 47.5t-33.5 26t-45 12.5 t-62.5 2h-268v-696h363q42 0 71 5.5t61 22t56 49.5t50 87t49.5 135t47.5 192h41l-71 -532h-1293zM494 1618q0 326 321 125l246 -160l-6 -27z" />
<glyph unicode="&#xc9;" horiz-adv-x="1466" d="M61 0v41q103 30 103 158v1038q0 126 -103 156v41h1246l71 -523h-41q-30 130 -59.5 218t-57 140.5t-64.5 80t-71 35.5t-86 8h-313v-615h279q34 0 54.5 2.5t39 11.5t27 24.5t14 44t5 67t-4.5 96.5h41l55 -553h-43q-9 65 -16 105.5t-19 72.5t-23 47.5t-33.5 26t-45 12.5 t-62.5 2h-268v-696h363q42 0 71 5.5t61 22t56 49.5t50 87t49.5 135t47.5 192h41l-71 -532h-1293zM492 1583l245 160q91 57 156 71.5t100 -10.5t50.5 -71t15.5 -115l-561 -62z" />
<glyph unicode="&#xca;" horiz-adv-x="1466" d="M61 0v41q103 30 103 158v1038q0 126 -103 156v41h1246l71 -523h-41q-30 130 -59.5 218t-57 140.5t-64.5 80t-71 35.5t-86 8h-313v-615h279q34 0 54.5 2.5t39 11.5t27 24.5t14 44t5 67t-4.5 96.5h41l55 -553h-43q-9 65 -16 105.5t-19 72.5t-23 47.5t-33.5 26t-45 12.5 t-62.5 2h-268v-696h363q42 0 71 5.5t61 22t56 49.5t50 87t49.5 135t47.5 192h41l-71 -532h-1293zM440 1565l250 229q48 45 84 45t84 -45l250 -229l-27 -27l-307 100l-307 -100z" />
<glyph unicode="&#xcb;" horiz-adv-x="1466" d="M61 0v41q103 30 103 158v1038q0 126 -103 156v41h1246l71 -523h-41q-30 130 -59.5 218t-57 140.5t-64.5 80t-71 35.5t-86 8h-313v-615h279q34 0 54.5 2.5t39 11.5t27 24.5t14 44t5 67t-4.5 96.5h41l55 -553h-43q-9 65 -16 105.5t-19 72.5t-23 47.5t-33.5 26t-45 12.5 t-62.5 2h-268v-696h363q42 0 71 5.5t61 22t56 49.5t50 87t49.5 135t47.5 192h41l-71 -532h-1293zM373 1694q0 70 46 107.5t132 37.5t132 -37.5t46 -107.5q0 -72 -45.5 -109t-132.5 -37t-132.5 37t-45.5 109zM825 1694q0 70 46.5 107.5t132.5 37.5t132 -37.5t46 -107.5 q0 -72 -45.5 -109t-132.5 -37t-133 37t-46 109z" />
<glyph unicode="&#xcc;" horiz-adv-x="851" d="M61 0v41q103 30 103 158v1038q0 126 -103 156v41h727v-41q-102 -31 -102 -156v-1038q0 -127 102 -158v-41h-727zM143 1628q0 69 15.5 115t50.5 71t100 10.5t156 -71.5l246 -160l-6 -26z" />
<glyph unicode="&#xcd;" horiz-adv-x="851" d="M61 0v41q103 30 103 158v1038q0 126 -103 156v41h727v-41q-102 -31 -102 -156v-1038q0 -127 102 -158v-41h-727zM141 1593l246 160q91 57 156 71.5t100 -10.5t50.5 -71t15.5 -115l-562 -61z" />
<glyph unicode="&#xce;" horiz-adv-x="851" d="M61 0v41q103 30 103 158v1038q0 126 -103 156v41h727v-41q-102 -31 -102 -156v-1038q0 -127 102 -158v-41h-727zM90 1575l250 229q48 45 84 45t84 -45l250 -229l-27 -27l-307 101l-307 -101z" />
<glyph unicode="&#xcf;" horiz-adv-x="851" d="M23 1704q0 70 46 107.5t132 37.5t132 -37.5t46 -107.5q0 -72 -45.5 -108.5t-132.5 -36.5t-132.5 36.5t-45.5 108.5zM61 0v41q103 30 103 158v1038q0 126 -103 156v41h727v-41q-102 -31 -102 -156v-1038q0 -127 102 -158v-41h-727zM475 1704q0 70 46 107.5t132 37.5 t132 -37.5t46 -107.5q0 -72 -45.5 -108.5t-132.5 -36.5t-132.5 36.5t-45.5 108.5z" />
<glyph unicode="&#xd0;" horiz-adv-x="1896" d="M61 0l2 41q101 31 101 156v499h-103v41h103v500q0 126 -103 156v41h134q114 1 347.5 17.5t329.5 16.5q116 0 213.5 -9t193.5 -32.5t172 -60.5t141.5 -95.5t109 -136t68 -183t24.5 -234.5q0 -179 -47.5 -313t-128 -216.5t-201 -133.5t-251 -70t-294.5 -19q-96 0 -329.5 17 t-347.5 18h-134zM686 25q106 -19 172 -19q129 0 210 71t122 228t41 412t-41 412t-122 227.5t-210 70.5q-71 0 -172 -16v-674h328v-41h-328v-671z" />
<glyph unicode="&#xd1;" horiz-adv-x="1497" d="M57 0v41q103 30 103 158v1142q-50 34 -103 52v41h721l555 -945v748q0 125 -102 156v41h244v-41q-101 -31 -101 -156v-1237h-397l-739 1264q-12 22 -37 47v-1112q0 -128 102 -158v-41h-246zM387 1616q45 131 99.5 204.5t131.5 73.5q55 0 115 -29t113.5 -58t91.5 -29 q39 0 67.5 22t67.5 78l37 -16q-30 -126 -83 -202.5t-130 -76.5q-44 0 -91.5 18.5t-82 40t-74.5 40t-71 18.5q-80 0 -154 -101z" />
<glyph unicode="&#xd2;" horiz-adv-x="1820" d="M59 717q0 156 47 283.5t127 213.5t190 144.5t232 85t256 26.5t255.5 -26t231 -84.5t189.5 -144.5t127 -214t47 -284t-47 -284t-126.5 -214t-189 -144.5t-231.5 -85t-256 -26.5t-256 26.5t-232 85.5t-190 145t-127 213.5t-47 283.5zM623 717q0 -396 61 -553.5t227 -157.5 q165 0 226 157.5t61 553.5t-61.5 554.5t-225.5 158.5q-166 0 -227 -158t-61 -555zM629 1618q0 326 321 125l246 -160l-6 -27z" />
<glyph unicode="&#xd3;" horiz-adv-x="1820" d="M59 717q0 156 47 283.5t127 213.5t190 144.5t232 85t256 26.5t255.5 -26t231 -84.5t189.5 -144.5t127 -214t47 -284t-47 -284t-126.5 -214t-189 -144.5t-231.5 -85t-256 -26.5t-256 26.5t-232 85.5t-190 145t-127 213.5t-47 283.5zM623 717q0 -396 61 -553.5t227 -157.5 q165 0 226 157.5t61 553.5t-61.5 554.5t-225.5 158.5q-166 0 -227 -158t-61 -555zM627 1583l245 160q91 57 156 71.5t100 -10.5t50.5 -71t15.5 -115l-561 -62z" />
<glyph unicode="&#xd4;" horiz-adv-x="1820" d="M59 717q0 156 47 283.5t127 213.5t190 144.5t232 85t256 26.5t255.5 -26t231 -84.5t189.5 -144.5t127 -214t47 -284t-47 -284t-126.5 -214t-189 -144.5t-231.5 -85t-256 -26.5t-256 26.5t-232 85.5t-190 145t-127 213.5t-47 283.5zM575 1565l250 229q48 45 84 45t84 -45 l250 -229l-26 -27l-308 100l-307 -100zM623 717q0 -396 61 -553.5t227 -157.5q165 0 226 157.5t61 553.5t-61.5 554.5t-225.5 158.5q-166 0 -227 -158t-61 -555z" />
<glyph unicode="&#xd5;" horiz-adv-x="1820" d="M59 717q0 156 47 283.5t127 213.5t190 144.5t232 85t256 26.5t255.5 -26t231 -84.5t189.5 -144.5t127 -214t47 -284t-47 -284t-126.5 -214t-189 -144.5t-231.5 -85t-256 -26.5t-256 26.5t-232 85.5t-190 145t-127 213.5t-47 283.5zM549 1575q45 131 99.5 204.5 t131.5 73.5q55 0 115 -29t113.5 -58t91.5 -29q39 0 67.5 22t67.5 78l37 -16q-30 -126 -83 -202.5t-130 -76.5q-44 0 -92 18.5t-82 40t-74.5 40t-71.5 18.5q-80 0 -153 -100zM623 717q0 -396 61 -553.5t227 -157.5q165 0 226 157.5t61 553.5t-61.5 554.5t-225.5 158.5 q-166 0 -227 -158t-61 -555z" />
<glyph unicode="&#xd6;" horiz-adv-x="1820" d="M59 717q0 156 47 283.5t127 213.5t190 144.5t232 85t256 26.5t255.5 -26t231 -84.5t189.5 -144.5t127 -214t47 -284t-47 -284t-126.5 -214t-189 -144.5t-231.5 -85t-256 -26.5t-256 26.5t-232 85.5t-190 145t-127 213.5t-47 283.5zM506 1694q0 70 46 107.5t132 37.5 t132 -37.5t46 -107.5q0 -72 -45.5 -109t-132.5 -37t-132.5 37t-45.5 109zM623 717q0 -396 61 -553.5t227 -157.5q165 0 226 157.5t61 553.5t-61.5 554.5t-225.5 158.5q-166 0 -227 -158t-61 -555zM958 1694q0 70 46.5 107.5t132.5 37.5t132 -37.5t46 -107.5 q0 -72 -45.5 -109t-132.5 -37t-133 37t-46 109z" />
<glyph unicode="&#xd7;" horiz-adv-x="610" d="M102 242l179 272l-179 272h50l153 -235l154 235h49l-178 -272l178 -272h-49l-154 235l-153 -235h-50z" />
<glyph unicode="&#xd8;" horiz-adv-x="1820" d="M59 717q0 156 47 283.5t127 213.5t190 144.5t232 85t256 26.5q72 0 154 -10l43 178h43l-43 -184q109 -18 204 -54.5t178.5 -98.5t143 -144t93.5 -194.5t34 -245.5q0 -156 -47 -284t-126.5 -214t-189 -144.5t-231.5 -85t-256 -26.5q-72 0 -157 10l-43 -178h-43l43 185 q-137 23 -252 77.5t-206 142.5t-142.5 220t-51.5 297zM623 717q0 -266 25.5 -418t86.5 -221l314 1315q-55 37 -138 37q-166 0 -227 -158t-61 -555zM770 45q56 -39 141 -39q165 0 226 157.5t61 553.5q0 267 -25.5 420t-87.5 223z" />
<glyph unicode="&#xd9;" horiz-adv-x="1611" d="M51 1393v41h727v-41q-102 -31 -102 -156v-674q0 -217 98 -328.5t275 -111.5q160 0 264 114t104 326v674q0 126 -102 156v41h246v-41q-103 -30 -103 -156v-653q0 -621 -604 -621q-147 0 -271.5 38t-221.5 113.5t-152 199.5t-55 286v637q0 126 -103 156zM594 1618 q0 326 321 125l246 -160l-6 -27z" />
<glyph unicode="&#xda;" horiz-adv-x="1611" d="M51 1393v41h727v-41q-102 -31 -102 -156v-674q0 -217 98 -328.5t275 -111.5q160 0 264 114t104 326v674q0 126 -102 156v41h246v-41q-103 -30 -103 -156v-653q0 -621 -604 -621q-147 0 -271.5 38t-221.5 113.5t-152 199.5t-55 286v637q0 126 -103 156zM592 1583l246 160 q321 201 321 -125l-561 -62z" />
<glyph unicode="&#xdb;" horiz-adv-x="1611" d="M51 1393v41h727v-41q-102 -31 -102 -156v-674q0 -217 98 -328.5t275 -111.5q160 0 264 114t104 326v674q0 126 -102 156v41h246v-41q-103 -30 -103 -156v-653q0 -621 -604 -621q-147 0 -271.5 38t-221.5 113.5t-152 199.5t-55 286v637q0 126 -103 156zM541 1565l250 229 q48 45 83 45q36 0 84 -45l250 -229l-26 -27l-308 100l-307 -100z" />
<glyph unicode="&#xdc;" horiz-adv-x="1611" d="M51 1393v41h727v-41q-102 -31 -102 -156v-674q0 -217 98 -328.5t275 -111.5q160 0 264 114t104 326v674q0 126 -102 156v41h246v-41q-103 -30 -103 -156v-653q0 -621 -604 -621q-147 0 -271.5 38t-221.5 113.5t-152 199.5t-55 286v637q0 126 -103 156zM471 1694 q0 70 46 107.5t132 37.5t132 -37.5t46 -107.5q0 -72 -45.5 -109t-132.5 -37t-132.5 37t-45.5 109zM924 1694q0 70 46 107.5t132 37.5t132 -37.5t46 -107.5q0 -72 -45.5 -109t-132.5 -37t-132.5 37t-45.5 109z" />
<glyph unicode="&#xdd;" horiz-adv-x="1824" d="M20 1393v41h912v-41q-28 -6 -44.5 -14t-23.5 -17.5t-4.5 -24.5t9.5 -31t22 -40l328 -521l327 521q38 55 32.5 84t-71.5 43v41h295v-41q-159 -48 -207 -127l-372 -590v-477q0 -127 102 -158v-41h-727v41q102 30 102 158v340l-469 729q-51 78 -211 125zM702 1583l246 160 q91 57 156 71.5t100 -10.5t50.5 -71t15.5 -115l-561 -62z" />
<glyph unicode="&#xde;" horiz-adv-x="1615" d="M61 0v41q103 30 103 158v1038q0 126 -103 156v41h727v-41q-102 -31 -102 -156v-94q145 22 268 22q107 0 197.5 -13.5t171 -46t136 -83t88 -128t32.5 -177.5t-32.5 -178t-88 -128.5t-136 -83t-170 -46t-196.5 -13.5q-94 0 -270 23v-92q0 -127 102 -158v-41h-727zM686 334 q88 -21 129 -21q109 0 158 101.5t49 302.5t-49 302t-158 101q-45 0 -129 -20v-766z" />
<glyph unicode="&#xdf;" horiz-adv-x="1787" d="M37 0v41q102 31 102 158v680q0 60 -24.5 82t-77.5 22v41h104q45 446 725 446q267 0 406 -103t139 -296q-125 -1 -227 -23.5t-165 -67t-63 -103.5q0 -51 43 -89.5t111.5 -64.5t151 -51t165.5 -57t151.5 -74t111.5 -111t43 -158q0 -309 -502 -309q-113 0 -232.5 18.5 t-164.5 18.5l-56 518h41q39 -163 66 -255.5t57.5 -152.5t61.5 -80t77 -20q103 0 103 154q0 84 -32 160t-77.5 133.5t-91 112t-77.5 118.5t-32 131q0 54 18.5 96.5t53 72t64.5 46.5t73 35q0 193 -44 277t-165 84q-54 0 -93 -17t-63 -46t-38.5 -75.5t-19.5 -98.5t-5 -122 v-1071h-618z" />
<glyph unicode="&#xe0;" horiz-adv-x="1619" d="M47 385q0 104 37 185.5t103.5 132t153 76.5t189.5 26q302 0 402 -195v86q0 179 -63.5 251.5t-209.5 72.5q-45 0 -94.5 -9.5t-113 -32t-133.5 -69.5t-134 -114h-41l125 227q54 0 207 19.5t256 19.5q67 0 132.5 -5.5t138.5 -19.5t136 -35.5t122 -57.5t100.5 -81.5 t66.5 -110t25 -141.5l-2 -383q0 -66 31.5 -94t105.5 -24l12 -39l-194 -52q-198 -55 -311 -55q-85 0 -123.5 33t-38.5 117v47q-99 -197 -402 -197q-103 0 -189.5 26.5t-153 77.5t-103.5 132.5t-37 185.5zM498 1249q0 326 321 125l246 -160l-6 -26zM532 385q0 -148 53 -227.5 t142 -79.5q91 0 148 75.5t57 231.5q0 155 -57 230t-148 75q-89 0 -142 -78.5t-53 -226.5z" />
<glyph unicode="&#xe1;" horiz-adv-x="1619" d="M47 385q0 104 37 185.5t103.5 132t153 76.5t189.5 26q302 0 402 -195v86q0 179 -63.5 251.5t-209.5 72.5q-45 0 -94.5 -9.5t-113 -32t-133.5 -69.5t-134 -114h-41l125 227q54 0 207 19.5t256 19.5q67 0 132.5 -5.5t138.5 -19.5t136 -35.5t122 -57.5t100.5 -81.5 t66.5 -110t25 -141.5l-2 -383q0 -66 31.5 -94t105.5 -24l12 -39l-194 -52q-198 -55 -311 -55q-85 0 -123.5 33t-38.5 117v47q-99 -197 -402 -197q-103 0 -189.5 26.5t-153 77.5t-103.5 132.5t-37 185.5zM496 1214l245 160q91 57 156 71.5t100 -10.5t50.5 -71t15.5 -115 l-561 -61zM532 385q0 -148 53 -227.5t142 -79.5q91 0 148 75.5t57 231.5q0 155 -57 230t-148 75q-89 0 -142 -78.5t-53 -226.5z" />
<glyph unicode="&#xe2;" horiz-adv-x="1619" d="M47 385q0 104 37 185.5t103.5 132t153 76.5t189.5 26q302 0 402 -195v86q0 179 -63.5 251.5t-209.5 72.5q-45 0 -94.5 -9.5t-113 -32t-133.5 -69.5t-134 -114h-41l125 227q54 0 207 19.5t256 19.5q67 0 132.5 -5.5t138.5 -19.5t136 -35.5t122 -57.5t100.5 -81.5 t66.5 -110t25 -141.5l-2 -383q0 -66 31.5 -94t105.5 -24l12 -39l-194 -52q-198 -55 -311 -55q-85 0 -123.5 33t-38.5 117v47q-99 -197 -402 -197q-103 0 -189.5 26.5t-153 77.5t-103.5 132.5t-37 185.5zM444 1196l250 229q48 45 84 45t84 -45l250 -229l-27 -27l-307 101 l-307 -101zM532 385q0 -148 53 -227.5t142 -79.5q91 0 148 75.5t57 231.5q0 155 -57 230t-148 75q-89 0 -142 -78.5t-53 -226.5z" />
<glyph unicode="&#xe3;" horiz-adv-x="1619" d="M47 385q0 104 37 185.5t103.5 132t153 76.5t189.5 26q302 0 402 -195v86q0 179 -63.5 251.5t-209.5 72.5q-45 0 -94.5 -9.5t-113 -32t-133.5 -69.5t-134 -114h-41l125 227q54 0 207 19.5t256 19.5q67 0 132.5 -5.5t138.5 -19.5t136 -35.5t122 -57.5t100.5 -81.5 t66.5 -110t25 -141.5l-2 -383q0 -66 31.5 -94t105.5 -24l12 -39l-194 -52q-198 -55 -311 -55q-85 0 -123.5 33t-38.5 117v47q-99 -197 -402 -197q-103 0 -189.5 26.5t-153 77.5t-103.5 132.5t-37 185.5zM416 1206q22 63 43.5 109.5t49.5 87t63 61.5t75 21q55 0 115 -29.5 t113.5 -58.5t91.5 -29q39 0 67.5 22t67.5 78l37 -16q-30 -126 -83 -202t-130 -76q-44 0 -92 18t-82 40t-74.5 40t-71.5 18q-80 0 -153 -100zM532 385q0 -148 53 -227.5t142 -79.5q91 0 148 75.5t57 231.5q0 155 -57 230t-148 75q-89 0 -142 -78.5t-53 -226.5z" />
<glyph unicode="&#xe4;" horiz-adv-x="1619" d="M47 385q0 104 37 185.5t103.5 132t153 76.5t189.5 26q302 0 402 -195v86q0 179 -63.5 251.5t-209.5 72.5q-45 0 -94.5 -9.5t-113 -32t-133.5 -69.5t-134 -114h-41l125 227q54 0 207 19.5t256 19.5q67 0 132.5 -5.5t138.5 -19.5t136 -35.5t122 -57.5t100.5 -81.5 t66.5 -110t25 -141.5l-2 -383q0 -66 31.5 -94t105.5 -24l12 -39l-194 -52q-198 -55 -311 -55q-85 0 -123.5 33t-38.5 117v47q-99 -197 -402 -197q-103 0 -189.5 26.5t-153 77.5t-103.5 132.5t-37 185.5zM375 1325q0 70 46 107.5t132 37.5t132 -37.5t46 -107.5 q0 -72 -45.5 -108.5t-132.5 -36.5t-132.5 36.5t-45.5 108.5zM532 385q0 -148 53 -227.5t142 -79.5q91 0 148 75.5t57 231.5q0 155 -57 230t-148 75q-89 0 -142 -78.5t-53 -226.5zM827 1325q0 70 46.5 107.5t132.5 37.5t132 -37.5t46 -107.5q0 -72 -45.5 -108.5t-132.5 -36.5 t-133 37t-46 108z" />
<glyph unicode="&#xe5;" horiz-adv-x="1619" d="M47 385q0 104 37 185.5t103.5 132t153 76.5t189.5 26q302 0 402 -195v86q0 179 -63.5 251.5t-209.5 72.5q-45 0 -94.5 -9.5t-113 -32t-133.5 -69.5t-134 -114h-41l125 227q54 0 207 19.5t256 19.5q67 0 132.5 -5.5t138.5 -19.5t136 -35.5t122 -57.5t100.5 -81.5 t66.5 -110t25 -141.5l-2 -383q0 -66 31.5 -94t105.5 -24l12 -39l-194 -52q-198 -55 -311 -55q-85 0 -123.5 33t-38.5 117v47q-99 -197 -402 -197q-103 0 -189.5 26.5t-153 77.5t-103.5 132.5t-37 185.5zM532 385q0 -148 53 -227.5t142 -79.5q91 0 148 75.5t57 231.5 q0 155 -57 230t-148 75q-89 0 -142 -78.5t-53 -226.5zM567 1333q0 74 59.5 121t153.5 47q89 0 151 -47.5t62 -120.5q0 -71 -62 -118.5t-151 -47.5q-93 0 -153 47t-60 119zM614 1333q0 -55 46 -90t120 -35q70 0 118 35.5t48 89.5q0 56 -48 91.5t-118 35.5q-75 0 -120.5 -35 t-45.5 -92z" />
<glyph unicode="&#xe6;" horiz-adv-x="2162" d="M47 369q0 215 140 325.5t380 110.5q263 0 332 -141v2q0 184 -65 269t-207 85q-45 0 -95.5 -9.5t-114 -32t-133.5 -69.5t-134 -114h-41l124 227q54 0 206 19.5t263 19.5q285 0 418 -117q171 117 428 117q263 0 402 -109.5t139 -351.5h-641q0 -230 84.5 -358.5 t236.5 -128.5q100 0 180 61.5t152 218.5l39 -14q-89 -224 -240.5 -320t-392.5 -96q-177 0 -312 61t-212 175q-79 -115 -189 -174.5t-280 -59.5q-99 0 -181.5 22.5t-147.5 69t-101.5 126t-36.5 186.5zM532 381q0 -93 14 -154.5t54 -101t107 -39.5q66 0 124.5 35.5 t126.5 118.5q-61 110 -61 260v35q-13 155 -168 155q-107 0 -152 -76t-45 -233zM1448 641h250q0 212 -27 294.5t-96 82.5q-70 0 -97.5 -93.5t-29.5 -283.5z" />
<glyph unicode="&#xe7;" horiz-adv-x="1302" d="M47 494q0 258 192.5 412.5t514.5 154.5q92 0 202.5 -18.5t161.5 -18.5l72 -369h-41q-113 359 -301 359q-127 0 -187.5 -109t-60.5 -295q0 -232 83.5 -364.5t231.5 -132.5q98 0 175.5 61.5t148.5 218.5l37 -14q-83 -214 -224 -311t-358 -105l-32 -78q360 -3 360 -166 q0 -83 -80 -124t-197 -41q-62 0 -123.5 9t-101.5 9l-35 244h41q32 -132 65.5 -178t80.5 -46q73 0 73 82q0 68 -38.5 126.5t-92.5 62.5v20l35 80q-270 2 -436 145.5t-166 385.5z" />
<glyph unicode="&#xe8;" horiz-adv-x="1312" d="M47 500q0 257 176.5 409t474.5 152q263 0 402 -109.5t139 -351.5h-641q0 -230 85 -358.5t237 -128.5q100 0 179.5 61.5t151.5 218.5l39 -14q-89 -224 -240.5 -320t-392.5 -96q-276 0 -443 144.5t-167 392.5zM432 1249q0 69 15.5 115t50.5 71t100 10.5t156 -71.5l245 -160 l-6 -26zM598 641h250q0 212 -27 294.5t-96 82.5q-70 0 -97.5 -93.5t-29.5 -283.5z" />
<glyph unicode="&#xe9;" horiz-adv-x="1312" d="M47 500q0 257 176.5 409t474.5 152q263 0 402 -109.5t139 -351.5h-641q0 -230 85 -358.5t237 -128.5q100 0 179.5 61.5t151.5 218.5l39 -14q-89 -224 -240.5 -320t-392.5 -96q-276 0 -443 144.5t-167 392.5zM430 1214l246 160q321 201 321 -125l-561 -61zM598 641h250 q0 212 -27 294.5t-96 82.5q-70 0 -97.5 -93.5t-29.5 -283.5z" />
<glyph unicode="&#xea;" horiz-adv-x="1312" d="M47 500q0 257 176.5 409t474.5 152q263 0 402 -109.5t139 -351.5h-641q0 -230 85 -358.5t237 -128.5q100 0 179.5 61.5t151.5 218.5l39 -14q-89 -224 -240.5 -320t-392.5 -96q-276 0 -443 144.5t-167 392.5zM379 1196l250 229q48 45 84 45t84 -45l250 -229l-27 -27 l-307 101l-307 -101zM598 641h250q0 212 -27 294.5t-96 82.5q-70 0 -97.5 -93.5t-29.5 -283.5z" />
<glyph unicode="&#xeb;" horiz-adv-x="1312" d="M47 500q0 257 176.5 409t474.5 152q263 0 402 -109.5t139 -351.5h-641q0 -230 85 -358.5t237 -128.5q100 0 179.5 61.5t151.5 218.5l39 -14q-89 -224 -240.5 -320t-392.5 -96q-276 0 -443 144.5t-167 392.5zM311 1325q0 70 46 107.5t132 37.5t132.5 -37.5t46.5 -107.5 q0 -71 -46 -108t-133 -37t-132.5 36.5t-45.5 108.5zM598 641h250q0 212 -27 294.5t-96 82.5q-70 0 -97.5 -93.5t-29.5 -283.5zM764 1325q0 70 46 107.5t132 37.5t132 -37.5t46 -107.5q0 -72 -45.5 -108.5t-132.5 -36.5t-132.5 36.5t-45.5 108.5z" />
<glyph unicode="&#xec;" horiz-adv-x="804" d="M41 0v41q102 30 102 158v581q0 128 -102 158v41h133q212 0 310 13.5t157 68.5h21v-862q0 -128 102 -158v-41h-723zM119 1249q0 326 321 125l246 -160l-6 -26z" />
<glyph unicode="&#xed;" horiz-adv-x="804" d="M41 0v41q102 30 102 158v581q0 128 -102 158v41h133q212 0 310 13.5t157 68.5h21v-862q0 -128 102 -158v-41h-723zM117 1214l245 160q91 57 156 71.5t100 -10.5t50.5 -71t15.5 -115l-561 -61z" />
<glyph unicode="&#xee;" horiz-adv-x="804" d="M41 0v41q102 30 102 158v581q0 128 -102 158v41h133q212 0 310 13.5t157 68.5h21v-862q0 -128 102 -158v-41h-723zM66 1196l249 229q48 45 84 45t84 -45l250 -229l-26 -27l-308 101l-307 -101z" />
<glyph unicode="&#xef;" horiz-adv-x="804" d="M-4 1325q0 70 46 107.5t132 37.5t132 -37.5t46 -107.5q0 -72 -45.5 -108.5t-132.5 -36.5t-132.5 36.5t-45.5 108.5zM41 0v41q102 30 102 158v581q0 128 -102 158v41h133q212 0 310 13.5t157 68.5h21v-862q0 -128 102 -158v-41h-723zM449 1325q0 70 46 107.5t132 37.5 t132 -37.5t46 -107.5q0 -72 -45.5 -108.5t-132.5 -36.5t-132.5 36.5t-45.5 108.5z" />
<glyph unicode="&#xf0;" horiz-adv-x="1658" d="M41 535q0 113 39 205.5t99.5 150.5t139.5 98t154.5 56t147.5 16q132 0 220 -24t158 -70q-55 197 -184 344l-213 -137l-22 32l208 135q-98 101 -231 179l14 36q206 -67 349 -131l200 129l23 -32l-180 -117q150 -69 262 -144.5t196.5 -170t128 -210t43.5 -251.5 q0 -117 -25.5 -213.5t-69 -164.5t-106.5 -119.5t-131.5 -83t-152 -51.5t-159.5 -27t-161 -7q-125 0 -235 21t-204.5 66.5t-162.5 111.5t-106.5 161.5t-38.5 211.5zM563 487q0 -239 63 -360t169 -121q245 0 245 598q0 178 -28 305q-105 72 -199 72q-114 0 -182 -126.5 t-68 -367.5z" />
<glyph unicode="&#xf1;" horiz-adv-x="1728" d="M37 0v41q102 31 102 158v581q0 127 -102 158v41h133q211 0 308.5 13.5t156.5 68.5h20v-178q186 178 475 178q71 0 134.5 -11.5t123.5 -40t102.5 -71.5t68.5 -110t26 -152v-477q0 -127 101 -158v-41h-721v41q102 30 102 158v503q0 121 -37.5 173.5t-118.5 52.5 q-132 0 -256 -101v-628q0 -127 103 -158v-41h-721zM500 1206q22 63 43.5 109.5t49.5 87t63 61.5t75 21q55 0 115 -29.5t113.5 -58.5t91.5 -29q39 0 67.5 22t67.5 78l37 -16q-30 -126 -83 -202t-130 -76q-44 0 -92 18t-82 40t-74.5 40t-71.5 18q-80 0 -153 -100z" />
<glyph unicode="&#xf2;" horiz-adv-x="1517" d="M41 512q0 253 186 401t531 148q346 0 532.5 -147.5t186.5 -401.5t-186 -401.5t-533 -147.5q-345 0 -531 148t-186 401zM477 1249q0 69 15.5 115t50.5 71t100 10.5t156 -71.5l245 -160l-6 -26zM594 512q0 -92 2 -154.5t8 -124.5t17 -100t29 -69t45 -44.5t63 -13.5t63 13.5 t45.5 44t30 69.5t17.5 100.5t8 124.5t2 154q0 92 -2 155.5t-8 125t-17.5 100t-30 69.5t-45.5 44.5t-63 13.5t-62.5 -13.5t-44.5 -44.5t-29.5 -70t-17.5 -100.5t-8 -125t-2 -154.5z" />
<glyph unicode="&#xf3;" horiz-adv-x="1517" d="M41 512q0 253 186 401t531 148q346 0 532.5 -147.5t186.5 -401.5t-186 -401.5t-533 -147.5q-345 0 -531 148t-186 401zM475 1214l246 160q321 201 321 -125l-561 -61zM594 512q0 -92 2 -154.5t8 -124.5t17 -100t29 -69t45 -44.5t63 -13.5t63 13.5t45.5 44t30 69.5 t17.5 100.5t8 124.5t2 154q0 92 -2 155.5t-8 125t-17.5 100t-30 69.5t-45.5 44.5t-63 13.5t-62.5 -13.5t-44.5 -44.5t-29.5 -70t-17.5 -100.5t-8 -125t-2 -154.5z" />
<glyph unicode="&#xf4;" horiz-adv-x="1517" d="M41 512q0 253 186 401t531 148q346 0 532.5 -147.5t186.5 -401.5t-186 -401.5t-533 -147.5q-345 0 -531 148t-186 401zM424 1196l250 229q48 45 84 45t84 -45l250 -229l-27 -27l-307 101l-307 -101zM594 512q0 -92 2 -154.5t8 -124.5t17 -100t29 -69t45 -44.5t63 -13.5 t63 13.5t45.5 44t30 69.5t17.5 100.5t8 124.5t2 154q0 92 -2 155.5t-8 125t-17.5 100t-30 69.5t-45.5 44.5t-63 13.5t-62.5 -13.5t-44.5 -44.5t-29.5 -70t-17.5 -100.5t-8 -125t-2 -154.5z" />
<glyph unicode="&#xf5;" horiz-adv-x="1517" d="M41 512q0 253 186 401t531 148q346 0 532.5 -147.5t186.5 -401.5t-186 -401.5t-533 -147.5q-345 0 -531 148t-186 401zM395 1206q45 131 100 205t132 74q55 0 115 -29.5t113 -58.5t91 -29q39 0 67.5 22t67.5 78l37 -16q-30 -126 -83 -202t-130 -76q-56 0 -115.5 29 t-112.5 58t-91 29q-81 0 -154 -100zM594 512q0 -92 2 -154.5t8 -124.5t17 -100t29 -69t45 -44.5t63 -13.5t63 13.5t45.5 44t30 69.5t17.5 100.5t8 124.5t2 154q0 92 -2 155.5t-8 125t-17.5 100t-30 69.5t-45.5 44.5t-63 13.5t-62.5 -13.5t-44.5 -44.5t-29.5 -70 t-17.5 -100.5t-8 -125t-2 -154.5z" />
<glyph unicode="&#xf6;" horiz-adv-x="1517" d="M41 512q0 253 186 401t531 148q346 0 532.5 -147.5t186.5 -401.5t-186 -401.5t-533 -147.5q-345 0 -531 148t-186 401zM354 1325q0 70 46 107.5t132 37.5t132.5 -37.5t46.5 -107.5q0 -71 -46 -108t-133 -37t-132.5 36.5t-45.5 108.5zM594 512q0 -92 2 -154.5t8 -124.5 t17 -100t29 -69t45 -44.5t63 -13.5t63 13.5t45.5 44t30 69.5t17.5 100.5t8 124.5t2 154q0 92 -2 155.5t-8 125t-17.5 100t-30 69.5t-45.5 44.5t-63 13.5t-62.5 -13.5t-44.5 -44.5t-29.5 -70t-17.5 -100.5t-8 -125t-2 -154.5zM807 1325q0 70 46 107.5t132 37.5t132 -37.5 t46 -107.5q0 -72 -45.5 -108.5t-132.5 -36.5t-132.5 36.5t-45.5 108.5z" />
<glyph unicode="&#xf7;" horiz-adv-x="798" d="M102 492v40h611v-40h-611zM326 266q0 31 21.5 54.5t51.5 23.5q29 0 52.5 -23.5t23.5 -54.5q0 -30 -23 -53t-53 -23t-51.5 22.5t-21.5 53.5zM326 758q0 31 21.5 54.5t51.5 23.5q29 0 52.5 -23.5t23.5 -54.5q0 -30 -23 -53t-53 -23t-51.5 22.5t-21.5 53.5z" />
<glyph unicode="&#xf8;" horiz-adv-x="1517" d="M41 512q0 253 186 401t531 148q72 0 139 -6l51 174h43l-53 -180q261 -36 400 -177.5t139 -359.5q0 -254 -186 -401.5t-533 -147.5q-72 0 -137 6l-52 -174h-43l54 180q-262 36 -400.5 178t-138.5 359zM594 512q0 -290 29 -387l245 833q-38 62 -110 62q-36 0 -62.5 -13.5 t-44.5 -44.5t-29.5 -70t-17.5 -100.5t-8 -125t-2 -154.5zM649 66q38 -60 109 -60q36 0 63 13.5t45.5 44t30 69.5t17.5 100.5t8 124.5t2 154q0 287 -29 387z" />
<glyph unicode="&#xf9;" horiz-adv-x="1734" d="M41 938v41h133q212 0 310 13.5t157 68.5h21v-739q0 -120 37.5 -173t117.5 -53q132 0 256 101v583q0 127 -102 158v41h133q211 0 308.5 13.5t156.5 68.5h20v-817q0 -128 103 -156v-41l-133 -2q-211 0 -308.5 -13.5t-156.5 -68.5h-21v178q-190 -178 -475 -178 q-71 0 -134.5 11.5t-123.5 40t-102.5 71.5t-68.5 110t-26 152v432q0 128 -102 158zM602 1249q0 69 15.5 115t50.5 71t100 10.5t156 -71.5l245 -160l-6 -26z" />
<glyph unicode="&#xfa;" horiz-adv-x="1734" d="M41 938v41h133q212 0 310 13.5t157 68.5h21v-739q0 -120 37.5 -173t117.5 -53q132 0 256 101v583q0 127 -102 158v41h133q211 0 308.5 13.5t156.5 68.5h20v-817q0 -128 103 -156v-41l-133 -2q-211 0 -308.5 -13.5t-156.5 -68.5h-21v178q-190 -178 -475 -178 q-71 0 -134.5 11.5t-123.5 40t-102.5 71.5t-68.5 110t-26 152v432q0 128 -102 158zM600 1214l246 160q321 201 321 -125l-561 -61z" />
<glyph unicode="&#xfb;" horiz-adv-x="1734" d="M41 938v41h133q212 0 310 13.5t157 68.5h21v-739q0 -120 37.5 -173t117.5 -53q132 0 256 101v583q0 127 -102 158v41h133q211 0 308.5 13.5t156.5 68.5h20v-817q0 -128 103 -156v-41l-133 -2q-211 0 -308.5 -13.5t-156.5 -68.5h-21v178q-190 -178 -475 -178 q-71 0 -134.5 11.5t-123.5 40t-102.5 71.5t-68.5 110t-26 152v432q0 128 -102 158zM549 1196l250 229q48 45 84 45t84 -45l250 -229l-27 -27l-307 101l-308 -101z" />
<glyph unicode="&#xfc;" horiz-adv-x="1734" d="M41 938v41h133q212 0 310 13.5t157 68.5h21v-739q0 -120 37.5 -173t117.5 -53q132 0 256 101v583q0 127 -102 158v41h133q211 0 308.5 13.5t156.5 68.5h20v-817q0 -128 103 -156v-41l-133 -2q-211 0 -308.5 -13.5t-156.5 -68.5h-21v178q-190 -178 -475 -178 q-71 0 -134.5 11.5t-123.5 40t-102.5 71.5t-68.5 110t-26 152v432q0 128 -102 158zM479 1325q0 70 46 107.5t132 37.5t132.5 -37.5t46.5 -107.5q0 -71 -46 -108t-133 -37t-132.5 36.5t-45.5 108.5zM932 1325q0 70 46 107.5t132 37.5t132 -37.5t46 -107.5q0 -72 -45.5 -108.5 t-132.5 -36.5t-132.5 36.5t-45.5 108.5z" />
<glyph unicode="&#xfd;" horiz-adv-x="1439" d="M20 983v41h859v-41q-68 -14 -79 -46.5t21 -88.5l203 -408l170 402q27 59 13.5 93t-81.5 48v41h291v-41q-137 -42 -178 -141l-428 -1018q-60 -136 -83 -172q-50 -78 -128 -93q-25 -5 -55 -5q-47 0 -121.5 18t-126.5 18l-74 363h41q51 -146 96.5 -225t87 -106.5t99.5 -27.5 q41 0 69.5 11.5t54 42.5t45 69.5t48.5 108.5l57 137h-162l-446 885q-47 92 -193 135zM557 1214l246 160q321 201 321 -125l-561 -61z" />
<glyph unicode="&#xfe;" horiz-adv-x="1638" d="M37 -369q102 31 102 156v1403q0 127 -102 158v41h133q213 0 309.5 13t155.5 68h20v-573q194 164 451 164q92 0 176 -30t154.5 -89t112.5 -159.5t42 -229.5q0 -136 -46 -249.5t-124 -187t-177.5 -113.5t-207.5 -40q-258 0 -381 156v-332q0 -125 103 -156v-41h-721v41z M655 383q0 -136 48 -210.5t131 -74.5q106 0 155 108t49 337q0 105 -6.5 175.5t-23.5 126t-49 81.5t-80 26q-44 0 -94 -21.5t-130 -82.5v-465z" />
<glyph unicode="&#xff;" horiz-adv-x="1439" d="M20 983v41h859v-41q-68 -14 -79 -46.5t21 -88.5l203 -408l170 402q27 59 13.5 93t-81.5 48v41h291v-41q-137 -42 -178 -141l-428 -1018q-60 -136 -83 -172q-50 -78 -128 -93q-25 -5 -55 -5q-47 0 -121.5 18t-126.5 18l-74 363h41q51 -146 96.5 -225t87 -106.5t99.5 -27.5 q41 0 69.5 11.5t54 42.5t45 69.5t48.5 108.5l57 137h-162l-446 885q-47 92 -193 135zM438 1325q0 70 46 107.5t132 37.5t132.5 -37.5t46.5 -107.5q0 -71 -46 -108t-133 -37t-132.5 36.5t-45.5 108.5zM891 1325q0 70 46 107.5t132 37.5t132 -37.5t46 -107.5 q0 -72 -45.5 -108.5t-132.5 -36.5t-132.5 36.5t-45.5 108.5z" />
<glyph unicode="&#x152;" horiz-adv-x="2414" d="M59 717q0 196 61 342.5t175 235.5t267 132t347 43q93 0 338 -18t381 -18h625l71 -523h-38q-29 130 -58 218t-57 140.5t-64.5 80t-70.5 35.5t-86 8h-316v-615h277q29 0 48 2t36.5 7.5t27 17t17.5 28.5t10 44t2 62t-4 85h41l53 -553h-41q-9 66 -16.5 105.5t-19 72.5 t-22.5 48t-33 25.5t-44.5 12.5t-62.5 2h-269v-696h365q36 0 61.5 3.5t54 15t50 33t44.5 57.5t42.5 88t40.5 125t41 169h41l-72 -532h-674q-136 0 -381 -18.5t-338 -18.5q-194 0 -347 43.5t-267 132.5t-175 235.5t-61 342.5zM623 717q0 -359 86 -535t247 -176q102 0 156 51 v1319q-54 51 -156 51q-161 0 -247 -175.5t-86 -534.5z" />
<glyph unicode="&#x153;" horiz-adv-x="2189" d="M41 512q0 253 186 401t531 148q262 0 436 -88q157 88 381 88q263 0 402 -109.5t139 -351.5h-641q0 -230 84.5 -358.5t236.5 -128.5q100 0 180 61.5t152 218.5l39 -14q-89 -224 -240.5 -320t-392.5 -96q-203 0 -352 82q-172 -82 -424 -82q-345 0 -531 148t-186 401z M594 512q0 -92 2 -154.5t8 -124.5t17 -100t29 -69t45 -44.5t63 -13.5t63 13.5t45.5 44t30 69.5t17.5 100.5t8 124.5t2 154q0 92 -2 155.5t-8 125t-17.5 100t-30 69.5t-45.5 44.5t-63 13.5t-62.5 -13.5t-44.5 -44.5t-29.5 -70t-17.5 -100.5t-8 -125t-2 -154.5zM1475 641h249 q0 213 -26.5 295t-95.5 82q-70 0 -97.5 -93.5t-29.5 -283.5z" />
<glyph unicode="&#x178;" horiz-adv-x="1824" d="M20 1393v41h912v-41q-28 -6 -44.5 -14t-23.5 -17.5t-4.5 -24.5t9.5 -31t22 -40l328 -521l327 521q38 55 32.5 84t-71.5 43v41h295v-41q-159 -48 -207 -127l-372 -590v-477q0 -127 102 -158v-41h-727v41q102 30 102 158v340l-469 729q-51 78 -211 125zM584 1694 q0 70 46 107.5t132 37.5t132 -37.5t46 -107.5q0 -72 -45.5 -109t-132.5 -37t-132.5 37t-45.5 109zM1036 1694q0 70 46 107.5t132 37.5t132.5 -37.5t46.5 -107.5q0 -72 -46 -109t-133 -37t-132.5 37t-45.5 109z" />
<glyph unicode="&#x2c6;" horiz-adv-x="749" d="M41 1196l250 229q48 45 84 45t84 -45l250 -229l-27 -27l-307 101l-307 -101z" />
<glyph unicode="&#x2dc;" horiz-adv-x="804" d="M41 1206q22 63 43.5 109.5t49.5 87t63 61.5t75 21q55 0 115 -29.5t113.5 -58.5t91.5 -29q39 0 67.5 22t67.5 78l37 -16q-30 -126 -83 -202t-130 -76q-44 0 -92 18t-82 40t-74.5 40t-71.5 18q-80 0 -153 -100z" />
<glyph unicode="&#x2000;" horiz-adv-x="947" />
<glyph unicode="&#x2001;" horiz-adv-x="1894" />
<glyph unicode="&#x2002;" horiz-adv-x="947" />
<glyph unicode="&#x2003;" horiz-adv-x="1894" />
<glyph unicode="&#x2004;" horiz-adv-x="631" />
<glyph unicode="&#x2005;" horiz-adv-x="473" />
<glyph unicode="&#x2006;" horiz-adv-x="315" />
<glyph unicode="&#x2007;" horiz-adv-x="315" />
<glyph unicode="&#x2008;" horiz-adv-x="236" />
<glyph unicode="&#x2009;" horiz-adv-x="378" />
<glyph unicode="&#x200a;" horiz-adv-x="105" />
<glyph unicode="&#x2010;" horiz-adv-x="839" d="M61 492v40h717v-40h-717z" />
<glyph unicode="&#x2011;" horiz-adv-x="839" d="M61 492v40h717v-40h-717z" />
<glyph unicode="&#x2012;" horiz-adv-x="839" d="M61 492v40h717v-40h-717z" />
<glyph unicode="&#x2013;" horiz-adv-x="1198" d="M61 492v40h1076v-40h-1076z" />
<glyph unicode="&#x2014;" horiz-adv-x="1869" d="M61 492v40h1792v-40h-1792z" />
<glyph unicode="&#x2018;" d="M41 1065q0 45 18.5 92t43 83.5t72 85.5t81 79t94.5 82l29 -29q-100 -109 -125 -144.5t-25 -70.5q0 -28 19.5 -47.5t48 -31.5t56.5 -26t47.5 -40.5t19.5 -65.5q0 -63 -47 -101t-137 -38q-97 0 -146 44.5t-49 127.5z" />
<glyph unicode="&#x2019;" d="M41 1329q0 63 47 101t137 38q97 0 146 -44.5t49 -127.5q0 -45 -18.5 -92t-43 -83.5t-72 -85.5t-81 -79t-94.5 -82l-29 29q99 108 124 144t25 71q0 28 -19.5 47.5t-47.5 31.5t-56 26t-47.5 40.5t-19.5 65.5z" />
<glyph unicode="&#x201a;" d="M41 131q0 63 47 101t137 38q97 0 146 -44.5t49 -127.5q0 -45 -18.5 -92t-43 -83.5t-72 -85.5t-81 -79t-94.5 -82l-29 29q99 108 124 144t25 71q0 28 -19.5 47.5t-47.5 31.5t-56 26t-47.5 40.5t-19.5 65.5z" />
<glyph unicode="&#x201c;" horiz-adv-x="921" d="M41 1065q0 45 18.5 92t43 83.5t72 85.5t81 79t94.5 82l29 -29q-100 -109 -125 -144.5t-25 -70.5q0 -28 19.5 -47.5t48 -31.5t56.5 -26t47.5 -40.5t19.5 -65.5q0 -63 -47 -101t-137 -38q-97 0 -146 44.5t-49 127.5zM502 1065q0 45 18.5 92t43 83.5t72 85.5t81 79t94.5 82 l29 -29q-100 -109 -125 -144.5t-25 -70.5q0 -28 19.5 -47.5t48 -31.5t56.5 -26t47.5 -40.5t19.5 -65.5q0 -63 -47.5 -101t-137.5 -38q-97 0 -145.5 44.5t-48.5 127.5z" />
<glyph unicode="&#x201d;" horiz-adv-x="921" d="M41 1329q0 63 47 101t137 38q97 0 146 -44.5t49 -127.5q0 -45 -18.5 -92t-43 -83.5t-72 -85.5t-81 -79t-94.5 -82l-29 29q99 108 124 144t25 71q0 28 -19.5 47.5t-47.5 31.5t-56 26t-47.5 40.5t-19.5 65.5zM502 1329q0 63 47 101t137 38q97 0 146 -44.5t49 -127.5 q0 -38 -11 -75t-35.5 -75t-48 -68t-66 -70.5t-70.5 -65t-79 -68.5l-28 29q99 108 124 144t25 71q0 28 -19.5 47.5t-47.5 31.5t-56 26t-47.5 40.5t-19.5 65.5z" />
<glyph unicode="&#x201e;" horiz-adv-x="923" d="M41 131q0 63 47 101t137 38q97 0 146 -44.5t49 -127.5q0 -45 -18.5 -92t-43 -83.5t-72 -85.5t-81 -79t-94.5 -82l-29 29q99 108 124 144t25 71q0 28 -19.5 47.5t-47.5 31.5t-56 26t-47.5 40.5t-19.5 65.5zM504 131q0 63 47 101t137 38q97 0 146 -44.5t49 -127.5 q0 -38 -11 -75t-35.5 -75t-48 -68t-66 -70.5t-70.5 -65t-79 -68.5l-28 29q99 108 124 144t25 71q0 28 -19.5 47.5t-47.5 31.5t-56 26t-47.5 40.5t-19.5 65.5z" />
<glyph unicode="&#x2022;" horiz-adv-x="868" d="M53 530q0 130 100.5 215.5t278.5 85.5q177 0 276 -85.5t99 -215.5q0 -135 -99 -223t-276 -88q-178 0 -278.5 88t-100.5 223z" />
<glyph unicode="&#x2026;" horiz-adv-x="1384" d="M41 119q0 66 50.5 108.5t139.5 42.5t139 -42.5t50 -108.5q0 -67 -50 -111.5t-139 -44.5t-139.5 44.5t-50.5 111.5zM502 119q0 66 50.5 108.5t139.5 42.5t139 -42.5t50 -108.5q0 -67 -50 -111.5t-139 -44.5t-139.5 44.5t-50.5 111.5zM965 119q0 66 50.5 108.5t139.5 42.5 t138.5 -42.5t49.5 -108.5q0 -67 -49.5 -111.5t-138.5 -44.5t-139.5 44.5t-50.5 111.5z" />
<glyph unicode="&#x202f;" horiz-adv-x="378" />
<glyph unicode="&#x2039;" horiz-adv-x="477" d="M51 514q0 56 51 94l312 232l26 -25l-168 -301l168 -303l-26 -25l-312 234q-51 41 -51 94z" />
<glyph unicode="&#x203a;" horiz-adv-x="477" d="M37 211l168 303l-168 301l26 25l312 -232q51 -38 51 -94q0 -53 -51 -94l-312 -234z" />
<glyph unicode="&#x205f;" horiz-adv-x="473" />
<glyph unicode="&#x20ac;" horiz-adv-x="1441" d="M-6 604v41h127q-2 25 -2 76v37h-125v41h127q10 139 56 251.5t118.5 190t171 129.5t211 76t240.5 24q80 0 204 -18t191 -18l71 -523h-41q-36 149 -78 252t-89 159t-95 79.5t-106 23.5q-293 0 -293 -626h387v-41h-387q0 -39 4 -113h383v-41h-381q18 -237 94.5 -364 t229.5 -127q59 0 111 22.5t102 73t90 142.5t65 220l41 -10q-26 -139 -66 -242t-90 -171t-116.5 -109.5t-140 -58.5t-166.5 -17q-294 0 -489 164t-228 477h-131z" />
<glyph unicode="&#x2122;" horiz-adv-x="1650" d="M41 1194l29 240h577l29 -240h-17q-12 59 -24.5 98.5t-23 60.5t-26 31.5t-27.5 12.5t-34 2h-53v-445q0 -61 90 -73v-21h-405v21q90 12 90 73v445h-53q-22 0 -34 -2t-28 -12.5t-26.5 -31.5t-23 -60.5t-24.5 -98.5h-16zM631 860v21q94 13 100 73l45 385q6 62 -63 76v19h317 l96 -297l86 297h310v-19q-71 -14 -62 -76l45 -385q9 -60 103 -73v-21h-410v21q45 6 65 24t15 49l-47 408l-146 -502h-108l-162 502l-47 -408q-5 -31 15 -49t65 -24v-21h-217z" />
<glyph unicode="&#x25fc;" horiz-adv-x="1024" d="M0 0v1024h1024v-1024h-1024z" />
<glyph unicode="&#xfb01;" horiz-adv-x="1693" d="M33 983v41h303q-270 74 -270 233q0 100 147.5 156.5t460.5 56.5q144 0 316.5 -18t264.5 -18l117 -308h-164q-59 161 -157.5 228t-264.5 67q-126 0 -191 -45.5t-65 -130.5q0 -92 67.5 -156.5t199.5 -64.5h86q343 0 463 5.5t184 31.5h20v-862q0 -128 103 -158v-41h-721v41 q102 31 102 158v647q0 79 -29 108t-122 29q-92 0 -127 -30.5t-35 -106.5v-647q0 -128 166 -158v-41h-785v41q103 31 103 158v647q0 55 -10.5 81.5t-48 41t-113.5 14.5z" />
<glyph unicode="&#xfb02;" horiz-adv-x="1658" d="M33 983v41h303q-152 46 -211 98.5t-59 132.5q0 99 119 157t345 58q141 0 328.5 -18t278.5 -18q80 0 128.5 1.5t120.5 11t113 28.5h21v-1276q0 -128 102 -158v-41h-721v41q103 31 103 158v891q0 85 -15.5 147.5t-40 99t-62 58t-74 28.5t-83.5 7q-98 0 -148.5 -49 t-50.5 -134q0 -98 66 -160.5t190 -62.5h117v-41q-128 0 -170.5 -29.5t-42.5 -107.5v-647q0 -128 166 -158v-41h-784v41q102 31 102 158v647q0 79 -26.5 108t-114.5 29z" />
<glyph unicode="&#xfb03;" horiz-adv-x="2523" d="M33 983v41h303q-150 44 -210 96t-60 125q0 89 114.5 139t319.5 50q124 0 211 -12t152.5 -29t97.5 -21q138 98 542 98q144 0 317 -18t265 -18l117 -308h-164q-59 161 -157.5 228t-264.5 67q-126 0 -191 -45.5t-65 -130.5q0 -92 67 -156.5t199 -64.5h86q343 0 463 5.5 t184 31.5h21v-862q0 -128 102 -158v-41h-721v41q103 31 103 158v647q0 79 -29.5 108t-122.5 29q-92 0 -127 -30.5t-35 -106.5v-647q0 -128 166 -158v-41h-784v41q102 31 102 158v647q0 55 -10.5 81.5t-48 41t-113.5 14.5q-78 0 -109.5 -31t-31.5 -106v-647q0 -128 168 -158 v-41h-789v41q105 31 105 158v647q0 55 -10.5 81.5t-48 41t-113.5 14.5zM526 1243q0 -90 68.5 -154.5t191.5 -64.5h379q-270 74 -270 233q0 22 6 43q-108 84 -233 84q-68 0 -105 -36t-37 -105z" />
</font>
</defs>
</svg>
