<?xml version="1.0" standalone="no"?>
<!DOCTYPE svg PUBLIC "-//W3C//DTD SVG 1.1//EN" "http://www.w3.org/Graphics/SVG/1.1/DTD/svg11.dtd" >
<svg xmlns="http://www.w3.org/2000/svg" xmlns:xlink="http://www.w3.org/1999/xlink" version="1.1">
<metadata></metadata>
<defs>
<font id="pp_neue_worldregular" horiz-adv-x="1163" >
<font-face units-per-em="2048" ascent="1434" descent="-614" />
<missing-glyph horiz-adv-x="358" />
<glyph horiz-adv-x="0" />
<glyph horiz-adv-x="682" />
<glyph unicode=" "  horiz-adv-x="358" />
<glyph unicode="&#x09;" horiz-adv-x="358" />
<glyph unicode="&#xa0;" horiz-adv-x="358" />
<glyph unicode="!" horiz-adv-x="356" d="M59 96q0 53 33.5 88t85.5 35t85.5 -35t33.5 -88t-33.5 -89t-85.5 -36t-85.5 36t-33.5 89zM61 1335q0 61 30.5 98t86.5 37q57 0 87 -36.5t30 -98.5q0 -49 -14.5 -139.5t-32.5 -186t-32.5 -256.5t-14.5 -333h-41q0 172 -15.5 333t-34 256.5t-34 186t-15.5 139.5z" />
<glyph unicode="&#x22;" horiz-adv-x="561" d="M57 1358q0 45 23 75.5t65 30.5q43 0 65.5 -30t22.5 -76q0 -41 -16.5 -103t-32.5 -143.5t-16 -169.5h-41q0 88 -17.5 169.5t-35 143.5t-17.5 103zM328 1358q0 45 23 75.5t65 30.5q43 0 65.5 -30t22.5 -76q0 -41 -16.5 -103t-33 -143.5t-16.5 -169.5h-41q0 88 -17.5 169.5 t-34.5 143.5t-17 103z" />
<glyph unicode="#" horiz-adv-x="1048" d="M61 379v194h254l60 287h-238v195h277l75 379h43l-75 -379h274l76 379h41l-76 -379h215v-195h-254l-59 -287h237v-194h-276l-76 -379h-41l76 379h-275l-75 -379h-43l75 379h-215zM358 573h275l59 287h-274z" />
<glyph unicode="$" horiz-adv-x="862" d="M72 1184q0 120 84 186t217 66q33 0 49 -2v120h41v-124q15 -2 44 -7.5t47 -9t46.5 -6t56.5 -2.5l56 -436h-43q-74 350 -207 413v-473l33 -45q63 -71 93 -107t76 -99.5t67.5 -109t38.5 -107.5t17 -124q0 -83 -28 -146.5t-76 -100t-105 -54.5t-120 -18h-19v-129h-41v131 q-26 2 -120 16.5t-152 14.5l-45 485h43q74 -452 274 -475v594l-84 104q-122 142 -160 199q-83 125 -83 246zM281 1260q0 -70 35.5 -138t105.5 -159v430q-6 2 -19 2q-54 0 -88 -36t-34 -99zM440 43q64 8 103 59.5t39 139.5q0 91 -35 168t-107 172v-539z" />
<glyph unicode="%" horiz-adv-x="1312" d="M57 1114q0 166 75 257t200 91q123 0 197.5 -91t74.5 -257q0 -168 -74.5 -259t-197.5 -91q-125 0 -200 91.5t-75 258.5zM231 1114q0 -164 21 -236.5t80 -72.5q58 0 78 71.5t20 237.5q0 164 -20 235.5t-78 71.5q-59 0 -80 -72.5t-21 -234.5zM279 0l712 1434h45l-712 -1434 h-45zM709 324q0 166 74.5 257t199.5 91q123 0 197.5 -91t74.5 -257q0 -168 -74.5 -260.5t-197.5 -92.5q-124 0 -199 93t-75 260zM883 324q0 -165 20.5 -237.5t79.5 -72.5q58 0 78 71.5t20 238.5q0 164 -20 235.5t-78 71.5q-40 0 -62.5 -36t-30 -99.5t-7.5 -171.5z" />
<glyph unicode="&#x26;" horiz-adv-x="1155" d="M55 414q0 96 26.5 180t69 144.5t101 110.5t117.5 82t125 54q-134 214 -295 408v41h772l55 -480h-41q-19 103 -35.5 175t-35 121t-35.5 77t-42 43t-47.5 19t-58.5 4h-475q418 -348 694 -953q50 141 92 346l39 -8q-54 -256 -106 -395q77 -178 143 -383h-233q-8 43 -35 147 q-137 -176 -358 -176q-86 0 -162.5 26.5t-139 78.5t-99 139t-36.5 199zM289 442q0 -186 68.5 -290.5t197.5 -104.5q162 0 279 160q-115 401 -316 735q-229 -155 -229 -500z" />
<glyph unicode="'" horiz-adv-x="290" d="M57 1358q0 45 23 75.5t65 30.5q43 0 65.5 -30t22.5 -76q0 -41 -16.5 -103t-32.5 -143.5t-16 -169.5h-41q0 88 -17.5 169.5t-35 143.5t-17.5 103z" />
<glyph unicode="(" horiz-adv-x="616" d="M61 614q0 170 39.5 318.5t110.5 262.5t157.5 200t192.5 151l21 -20q-140 -178 -216.5 -398.5t-76.5 -513.5t76.5 -513t216.5 -398l-21 -20q-105 65 -192 151t-158 200t-110.5 262.5t-39.5 317.5z" />
<glyph unicode=")" horiz-adv-x="616" d="M35 -297q140 178 216.5 398t76.5 513t-76.5 513.5t-216.5 398.5l20 20q106 -65 192.5 -151t157.5 -200t110.5 -262.5t39.5 -318.5q0 -169 -39.5 -317.5t-110.5 -262.5t-158 -200t-192 -151z" />
<glyph unicode="*" horiz-adv-x="638" d="M63 1040q6 21 27 35q14 9 84.5 26.5t124.5 49.5q-53 32 -123.5 50t-85.5 28q-21 12 -27 33t7 45q14 22 37 25.5t43 -9.5q15 -9 61 -66t98 -90q0 69 -22.5 144t-22.5 92q0 27 14.5 44t40.5 17q27 0 42.5 -17t15.5 -44q0 -17 -23.5 -92t-23.5 -144q41 25 71.5 59t51 60.5 t36.5 36.5q20 13 43 9.5t37 -25.5q13 -23 8 -44.5t-26 -33.5q-15 -10 -86 -28t-123 -50q40 -25 83 -38.5t76.5 -20.5t49.5 -17q21 -14 26 -35t-8 -43q-15 -23 -37.5 -26.5t-42.5 10.5q-16 10 -36.5 36t-51 59.5t-71.5 58.5q0 -69 23.5 -144t23.5 -92q0 -27 -15.5 -44 t-42.5 -17q-26 0 -40.5 17t-14.5 44q0 17 22.5 92t22.5 144q-52 -33 -98 -89t-61 -65q-20 -14 -42.5 -10.5t-37.5 26.5q-13 22 -7 43z" />
<glyph unicode="+" horiz-adv-x="698" d="M102 492v40h226v228h41v-228h227v-40h-227v-226h-41v226h-226z" />
<glyph unicode="," horiz-adv-x="348" d="M57 113q0 48 33 77t80 29q54 0 87.5 -34.5t33.5 -98.5q0 -90 -46.5 -170t-138.5 -188l-30 28q71 92 91.5 126.5t20.5 64.5q0 22 -13.5 37t-32.5 25t-38.5 21t-33 32t-13.5 51z" />
<glyph unicode="-" horiz-adv-x="739" d="M61 492v40h617v-40h-617z" />
<glyph unicode="." horiz-adv-x="333" d="M47 96q0 53 34.5 88t86.5 35t85.5 -35t33.5 -88t-33.5 -89t-85.5 -36t-86.5 36t-34.5 89z" />
<glyph unicode="/" horiz-adv-x="473" d="M20 -410l392 1844h41l-390 -1844h-43z" />
<glyph unicode="0" horiz-adv-x="1036" d="M61 717q0 160 24.5 288t67 212t101.5 140t124.5 80.5t139.5 24.5t139 -24t124.5 -80t101.5 -140t67 -212.5t25 -288.5q0 -199 -37 -347t-102 -233t-144.5 -125.5t-173.5 -40.5q-74 0 -139.5 24.5t-124.5 81t-101.5 141t-67 212.5t-24.5 287zM297 717q0 -257 26 -414.5 t73.5 -223t121.5 -65.5t121.5 65.5t73.5 223t26 414.5q0 258 -26 415.5t-73.5 223t-121.5 65.5q-73 0 -120.5 -65.5t-74 -223.5t-26.5 -415z" />
<glyph unicode="1" horiz-adv-x="542" d="M18 1157v41q156 9 234.5 69t122.5 195h20v-1269q0 -70 9 -102.5t28.5 -46t65.5 -24.5v-20h-410v20q46 11 65 24.5t28 46t9 102.5v831q0 79 -32 106t-140 27z" />
<glyph unicode="2" horiz-adv-x="905" d="M31 0v41q222 307 249 346q217 314 288 533q46 141 46 270q0 110 -37 169.5t-128 59.5q-52 0 -91.5 -18t-78.5 -67t-73 -143t-65 -237h-41l54 473q48 0 142.5 17.5t168.5 17.5q180 0 281.5 -79.5t101.5 -241.5q0 -84 -21.5 -167.5t-67.5 -166t-98 -156t-133 -161 t-150 -155.5t-171 -163h311q50 0 80.5 3.5t61 17t48.5 36.5t36.5 65.5t32 100.5t28.5 144h41l-60 -539h-755z" />
<glyph unicode="3" horiz-adv-x="907" d="M41 539h41q31 -163 65.5 -269.5t73.5 -161t77.5 -74.5t90.5 -20q109 0 169 121t60 328q0 160 -46.5 260t-135.5 100q-43 0 -83.5 -21.5t-102.5 -68.5l-25 33q56 51 85 79t71 73t63.5 78t44.5 77.5t32 90.5t9 98q0 159 -124 159q-45 0 -80 -19t-71.5 -68t-70 -143.5 t-65.5 -236.5h-41l55 473q50 0 145.5 17.5t161.5 17.5q143 0 229.5 -55t86.5 -166q0 -246 -273 -367q158 27 265.5 -85t107.5 -326q0 -125 -39 -222.5t-105.5 -154.5t-145.5 -86t-167 -29q-74 0 -165.5 17.5t-137.5 17.5z" />
<glyph unicode="4" horiz-adv-x="1034" d="M47 367v41l528 1060h21q35 -43 79 -57t113 -18v-858h199v-168h-199v-174q0 -70 8.5 -102.5t26.5 -46t62 -24.5v-20h-400v20q43 11 61 24.5t27 46.5t9 102v174h-535zM172 535h410v843z" />
<glyph unicode="5" horiz-adv-x="913" d="M51 539h41q42 -216 86 -332.5t89 -154.5t112 -38q246 0 246 537q0 235 -55 340.5t-160 105.5q-78 0 -148 -58t-139 -179h-41l86 674h598v-168h-582l-37 -312q21 5 55.5 22t65.5 33.5t83.5 30t109.5 13.5q81 0 151.5 -30.5t127 -91t89.5 -160.5t33 -228q0 -124 -27 -223.5 t-71.5 -163.5t-105 -106.5t-124 -60.5t-131.5 -18q-73 0 -162.5 17.5t-134.5 17.5z" />
<glyph unicode="6" horiz-adv-x="993" d="M51 692q0 348 135.5 559t358.5 211q64 0 147.5 -17.5t130.5 -17.5l43 -403h-41q-19 120 -46 200.5t-61.5 122.5t-70 58t-82.5 16q-59 0 -105.5 -34t-75 -88.5t-48 -135t-28.5 -160t-13 -176.5q127 134 305 134q64 0 123 -26.5t109 -80t80 -146t30 -212.5q0 -133 -35 -236 t-96.5 -165t-138.5 -93t-166 -31q-68 0 -128 17.5t-122 67t-105.5 127.5t-71.5 208.5t-28 300.5zM291 631q0 -238 26.5 -376t72 -189.5t118.5 -51.5q100 0 148.5 103.5t48.5 345.5q0 422 -197 422q-102 0 -215 -103q-2 -51 -2 -151z" />
<glyph unicode="7" horiz-adv-x="942" d="M57 954l52 480h817v-41q-63 -81 -105.5 -140.5t-93 -142.5t-83 -159t-65.5 -179.5t-52 -214t-30.5 -252.5t-11.5 -305h-219q0 401 112.5 700.5t383.5 565.5h-400q-56 0 -88 -5t-63 -21.5t-49 -51.5t-34 -90.5t-30 -143.5h-41z" />
<glyph unicode="8" horiz-adv-x="995" d="M53 297q0 -154 119.5 -241t321.5 -87q201 0 324.5 95t123.5 268q0 33 -5.5 64.5t-12.5 57.5t-25 56.5t-30 51t-41 52t-45.5 49.5t-55.5 53.5t-59 53.5t-68 59q144 90 211.5 175t67.5 192q0 123 -103 195.5t-262 72.5q-191 0 -297 -81.5t-106 -213.5q0 -63 17 -116.5 t55.5 -104t85 -94t120.5 -102.5q-78 -53 -134 -101t-104.5 -104.5t-73 -119.5t-24.5 -130zM260 303q0 114 45 220t131 190q142 -121 202 -223t60 -224q0 -123 -53 -189.5t-156 -66.5q-105 0 -167 82.5t-62 210.5zM350 1227q0 92 41.5 144t124.5 52q82 0 122 -59t40 -152 q0 -82 -33 -176t-96 -164q-102 89 -150.5 172.5t-48.5 182.5zM389 752q3 -3 10.5 -8.5t10.5 -8.5l26 -22q28 31 78 65q14 8 28.5 17t31.5 19t26 15l-14 13q-6 5 -18.5 15t-18.5 15q-47 -50 -90 -75z" />
<glyph unicode="9" horiz-adv-x="993" d="M51 938q0 107 23.5 195t63.5 148.5t95.5 101.5t119 60t134.5 19q68 0 128 -17.5t122 -67t105.5 -127.5t71.5 -208.5t28 -300.5q0 -230 -61 -405t-173 -270t-259 -95q-64 0 -148 17.5t-131 17.5l-43 404h41q16 -97 37 -168t44 -115t53 -70t59.5 -35.5t66.5 -9.5 q59 0 105.5 34t75 88.5t48 135t28.5 160t13 176.5q-127 -133 -305 -133q-64 0 -123 26.5t-109 80t-80 146t-30 212.5zM289 971q0 -422 196 -422q103 0 215 102q2 51 2 152q0 238 -26.5 376t-72 189t-118.5 51q-100 0 -148 -103t-48 -345z" />
<glyph unicode=":" horiz-adv-x="333" d="M47 96q0 53 34.5 88t86.5 35t85.5 -35t33.5 -88t-33.5 -89t-85.5 -36t-86.5 36t-34.5 89zM47 895q0 53 34.5 88t86.5 35t85.5 -35t33.5 -88t-33.5 -89t-85.5 -36t-86.5 36t-34.5 89z" />
<glyph unicode=";" horiz-adv-x="389" d="M47 895q0 53 34.5 88t86.5 35t85.5 -35t33.5 -88t-33.5 -89t-85.5 -36t-86.5 36t-34.5 89zM55 113q0 48 33 77t80 29q54 0 87.5 -34.5t33.5 -98.5q0 -90 -46.5 -170t-138.5 -188l-30 28q71 92 91.5 126.5t20.5 64.5q0 22 -13.5 37t-32.5 25t-38.5 21t-33 32t-13.5 51z " />
<glyph unicode="&#x3c;" horiz-adv-x="698" d="M102 477v72l494 252v-47l-469 -242l469 -240v-47z" />
<glyph unicode="=" horiz-adv-x="739" d="M102 379v41h555v-41h-555zM102 604v41h555v-41h-555z" />
<glyph unicode="&#x3e;" horiz-adv-x="698" d="M102 225v47l469 240l-469 242v47l494 -252v-72z" />
<glyph unicode="?" horiz-adv-x="747" d="M57 918l56 509q55 0 135 17.5t145 17.5q136 0 216.5 -54t80.5 -165q0 -45 -14.5 -88t-32 -73.5t-51.5 -67t-54.5 -54.5t-58.5 -51q-66 -58 -96 -111.5t-42.5 -137t-12.5 -240.5h-41q0 274 13.5 373.5t70.5 199.5q43 87 62.5 148t19.5 137q0 143 -95 143 q-42 0 -72.5 -18.5t-63.5 -70.5t-63 -154t-61 -260h-41zM188 94q0 51 34 87t85 36q52 0 86.5 -35.5t34.5 -87.5q0 -53 -34.5 -89t-86.5 -36q-51 0 -85 36t-34 89z" />
<glyph unicode="@" horiz-adv-x="1585" d="M61 459q0 147 37 285.5t108 254t168 202.5t224.5 135.5t269.5 49.5q130 1 238.5 -39.5t185 -113t129.5 -172t78 -216t25 -247.5q0 -266 -84 -428t-219 -162q-88 0 -141 51.5t-62 143.5q-112 -174 -295 -174q-74 0 -136 25.5t-112.5 80.5t-76 153.5t-19.5 231.5 q7 118 44 216t95 162t130.5 99t150.5 35q99 0 165.5 -46.5t114.5 -147.5q49 67 49 194h41v-692q0 -114 22.5 -169.5t82.5 -55.5q85 0 147 137.5t62 345.5q0 119 -21.5 226.5t-69 203.5t-117.5 166t-174.5 111t-232.5 41q-133 0 -252 -47.5t-208 -131t-154.5 -195t-99 -243 t-33.5 -270.5q0 -189 53.5 -340.5t148 -248.5t220 -148.5t272.5 -51.5q114 0 207 22.5t164.5 67t120.5 89.5t104 110l31 -25q-39 -53 -79.5 -97t-98 -87.5t-121.5 -72.5t-148.5 -47.5t-179.5 -18.5q-126 0 -237.5 32t-206.5 100t-164 166.5t-107.5 239t-38.5 310.5zM565 549 q-14 -210 40 -329.5t169 -119.5q67 0 124.5 35.5t117.5 114.5v375q0 104 -18.5 178.5t-50 112.5t-64 54.5t-68.5 16.5q-221 0 -250 -438z" />
<glyph unicode="A" horiz-adv-x="1175" d="M23 0v20q33 9 49.5 16t35 24.5t31 47t25.5 78.5l307 1127l-18 69v21q71 0 108.5 10.5t75.5 48.5h20l353 -1276q18 -65 38 -98t40.5 -44.5t64.5 -23.5v-20h-455v20q83 14 96 40q4 8 4 25q0 34 -18 101l-55 199h-463l-55 -199q-17 -67 -17 -100q0 -18 4 -26q13 -26 97 -40 v-20h-268zM272 426h443l-221 807z" />
<glyph unicode="B" horiz-adv-x="1011" d="M57 0v20q41 11 58 24t26 46.5t9 102.5v1048q0 69 -9 102t-26 46t-58 24v21h121q88 1 196 13.5t161 12.5q167 0 260.5 -85.5t93.5 -260.5q0 -261 -227 -332q139 -34 222 -132.5t83 -278.5q0 -398 -441 -398q-56 0 -158.5 13t-189.5 14h-121zM356 31q78 -17 131 -17 q122 0 184 83t62 272q0 195 -58 294t-167 99q-66 0 -152 12v-743zM356 815q56 -12 125 -12q97 0 139 76t42 233q0 163 -44.5 235t-138.5 72q-66 0 -123 -14v-590z" />
<glyph unicode="C" horiz-adv-x="1050" d="M47 733q0 188 44.5 330.5t124.5 228.5t183 128t228 42q74 0 161 -15t127 -15l54 -508h-41q-21 124 -45.5 212t-50.5 143.5t-59 87t-67 43t-79 11.5q-151 0 -245.5 -166.5t-94.5 -494.5q0 -311 101 -493.5t249 -182.5q65 0 114.5 20.5t95 71t79.5 145.5t57 236l41 -8 q-28 -167 -71 -282t-102 -179t-125 -90.5t-151 -26.5q-112 0 -207.5 50t-167 143.5t-112.5 240t-41 328.5z" />
<glyph unicode="D" horiz-adv-x="1095" d="M57 0v20q41 11 58 24t26 46.5t9 102.5v1048q0 69 -9 102t-26 46t-58 24v21h121q67 2 172 14t162 12q59 0 113 -10.5t108.5 -35.5t100.5 -63.5t86.5 -98t68.5 -135.5t44 -179.5t16 -226.5q0 -170 -31 -302t-81.5 -212.5t-122 -132.5t-145 -71.5t-157.5 -19.5 q-56 0 -161.5 12.5t-172.5 14.5h-121zM356 31q81 -17 129 -17q73 0 130.5 37.5t101.5 117.5t68 217t24 325q0 189 -24 327.5t-68 220.5t-101.5 121t-130.5 39q-49 0 -129 -14v-1374z" />
<glyph unicode="E" horiz-adv-x="958" d="M57 0v20q41 11 58 24t26 46.5t9 102.5v1048q0 69 -9 102t-26 46t-58 24v21h777l55 -510h-41q-19 111 -36 187.5t-36 129.5t-35.5 82.5t-42 45.5t-47.5 20t-59 4h-236v-623h191q33 0 50.5 4t31.5 15t18 37.5t4 63.5t-4 101h41l49 -506h-43q-6 47 -10 75t-10 57t-11 43.5 t-14 29.5t-17.5 21t-23.5 11t-30 6t-39 1h-183v-688h269q30 0 49.5 3t42 13.5t38 31t33 54.5t32 85.5t30 122.5t31.5 167h41l-54 -518h-811z" />
<glyph unicode="F" horiz-adv-x="927" d="M57 0v20q41 11 58 24t26 46.5t9 102.5v1048q0 69 -9 102t-26 46t-58 24v21h795l53 -519h-41q-17 98 -32 168t-29.5 122.5t-33 86t-35 54.5t-42 31t-48.5 13t-60 3h-228v-645h191q29 0 46 2.5t33.5 10.5t22.5 22.5t12.5 39.5t4 61t-3.5 87h40l50 -506h-43q-9 71 -17.5 111 t-19.5 69t-30 41t-41 16.5t-62 4.5h-183v-514q0 -70 8.5 -102.5t25.5 -46t59 -24.5v-20h-392z" />
<glyph unicode="G" horiz-adv-x="1159" d="M47 725q0 190 44 334t123 230.5t181.5 129.5t227.5 43q79 0 181 -15t144 -15l56 -508h-41q-30 156 -61.5 254t-72 151.5t-85.5 72.5t-111 19q-80 0 -142 -37t-108.5 -114.5t-71 -206.5t-24.5 -303q0 -199 25 -341.5t74 -227t115 -123.5t154 -39q85 0 158 12v418 q0 64 -6.5 103t-21.5 69t-48.5 46.5t-77.5 27.5t-120 20v41l579 -39v-41q-29 0 -49 -16.5t-29.5 -37t-15 -58t-6 -60t-0.5 -61.5v-453q-105 0 -226.5 -14.5t-191.5 -14.5q-119 0 -216.5 41t-174.5 127.5t-119.5 235.5t-42.5 350z" />
<glyph unicode="H" horiz-adv-x="1179" d="M57 0v20q41 11 58 24t26 46.5t9 102.5v1048q0 69 -9 102t-26 46t-58 24v21h392v-21q-42 -11 -59 -24t-25.5 -45.5t-8.5 -102.5v-498h467v498q0 70 -8 102.5t-25 45.5t-59 24v21h393v-21q-42 -11 -59 -24t-25 -45.5t-8 -102.5v-1048q0 -70 8 -102.5t25.5 -46t58.5 -24.5 v-20h-393v20q41 11 58.5 24.5t25.5 46t8 102.5v509h-467v-509q0 -70 8.5 -102.5t25.5 -46t59 -24.5v-20h-392z" />
<glyph unicode="I" horiz-adv-x="505" d="M57 0v20q41 11 58 24t26 46.5t9 102.5v1048q0 69 -9 102t-26 46t-58 24v21h392v-21q-42 -11 -59 -24t-25.5 -45.5t-8.5 -102.5v-1048q0 -70 8.5 -102.5t25.5 -46t59 -24.5v-20h-392z" />
<glyph unicode="J" horiz-adv-x="667" d="M27 522h41q32 -157 61.5 -258.5t58 -155.5t55 -74t60.5 -20q40 0 62 29t22 84q0 45 -30.5 160t-30.5 207v747q0 70 -8.5 102.5t-25.5 45.5t-59 24v21h394v-21q-42 -11 -59 -24t-25 -45.5t-8 -102.5v-866q0 -59 -1.5 -98.5t-6.5 -86t-14.5 -76t-26 -59.5t-40.5 -46.5 t-58.5 -27t-78.5 -10.5q-49 0 -116.5 19.5t-110.5 19.5z" />
<glyph unicode="K" horiz-adv-x="1208" d="M57 0v20q41 11 58 24t26 46.5t9 102.5v1048q0 69 -9 102t-26 46t-58 24v21h392v-21q-42 -11 -59 -24t-25.5 -45.5t-8.5 -102.5v-563l467 635q40 49 40 70q1 3 -1 7q-8 20 -82 19v25h299v-25q-76 0 -120 -21t-89 -81l-262 -367l398 -770q19 -36 37 -60.5t31.5 -38.5 t36 -24.5t34.5 -14.5t43 -12v-20h-481v20q23 4 36.5 7t25.5 8t17.5 9t7.5 13.5t0.5 17t-8 24t-13.5 31t-21 40.5l-293 563l-103 -143v-397q0 -70 8.5 -102.5t25.5 -46t59 -24.5v-20h-392z" />
<glyph unicode="L" horiz-adv-x="921" d="M57 0v20q41 11 58 24t26 46.5t9 102.5v1048q0 69 -9 102t-26 46t-58 24v21h392v-21q-42 -11 -59 -24t-25.5 -45.5t-8.5 -102.5v-1200h224q52 0 81.5 7t60 32t51.5 78t42.5 138.5t44.5 221.5h41l-53 -518h-791z" />
<glyph unicode="M" horiz-adv-x="1542" d="M43 0v20q41 11 59.5 24t31.5 47t20 102l102 1048q4 40 4 68q0 44 -10 61q-16 28 -86 43v21h313l301 -1059l291 1059h303v-21q-31 -7 -47.5 -13t-30 -16t-17 -29t-3.5 -44t4 -68l111 -1053q7 -68 19.5 -100.5t31.5 -45.5t61 -24v-20h-409v20q28 7 42.5 13t26.5 16t15 29 t2.5 44t-4.5 68l-111 1065l-338 -1255h-74l-352 1255l-104 -1062q-4 -41 -4 -70q1 -42 9 -59q14 -29 79 -44v-20h-236z" />
<glyph unicode="N" horiz-adv-x="1093" d="M53 1413v21h330l557 -1104v911q0 69 -8.5 102t-25.5 46t-58 24v21h225v-21q-42 -11 -59 -24t-25 -45.5t-8 -102.5v-1241h-107l-661 1264l-25 43v-1114q0 -70 8.5 -102.5t25.5 -46t59 -24.5v-20h-226v20q41 11 58 24.5t25.5 46.5t8.5 102v1169q-14 14 -32 24.5t-27 14 t-35 12.5z" />
<glyph unicode="O" d="M47 717q0 154 29.5 280t79.5 211t118.5 143t145.5 84.5t162 26.5t161.5 -26t145.5 -84t119 -143t79 -211.5t29 -280.5q0 -155 -29 -281t-78.5 -211t-118 -143.5t-145.5 -84.5t-163 -26q-85 0 -162 26.5t-145.5 84.5t-118.5 143.5t-79.5 211.5t-29.5 280zM287 717 q0 -703 295 -703q297 0 297 703q0 704 -297 704q-295 0 -295 -704z" />
<glyph unicode="P" horiz-adv-x="999" d="M57 0v20q41 11 58 24t26 46.5t9 102.5v1048q0 69 -9 102t-26 46t-58 24v21h121q87 1 187 14.5t153 13.5q73 0 133.5 -12t120.5 -45.5t101 -87.5t66.5 -142.5t25.5 -205.5q0 -113 -26 -203.5t-69 -148t-101.5 -96t-119 -54.5t-125.5 -16q-61 0 -168 22v-280q0 -69 11 -102 t34 -46.5t78 -24.5v-20h-422zM356 516q64 -24 125 -24q80 0 133 41t85 146t32 277q0 132 -19 225t-55 144t-80.5 73.5t-101.5 22.5q-59 0 -119 -16v-889z" />
<glyph unicode="Q" d="M47 717q0 154 29.5 280t79.5 211t118.5 143t145.5 84.5t162 26.5t161.5 -26t145.5 -84t119 -143t79 -211.5t29 -280.5q0 -155 -29 -281t-78.5 -211t-118 -143.5t-145.5 -84.5t-163 -26h-17q20 -14 65.5 -49.5t70 -51.5t66 -32t81.5 -16q114 0 184 153l31 -12 q-17 -59 -35 -102.5t-46.5 -86t-69.5 -65t-93 -22.5q-64 0 -121 33t-100 80t-84.5 93.5t-93 79.5t-107.5 33q-116 0 -217 -131l-22 23q114 143 239 153q-124 84 -195 250.5t-71 415.5zM287 717q0 -703 295 -703q297 0 297 703q0 704 -297 704q-295 0 -295 -704z" />
<glyph unicode="R" horiz-adv-x="1079" d="M57 0v20q41 11 58 24t26 46.5t9 102.5v1048q0 69 -9 102t-26 46t-58 24v21h121q90 1 198.5 13.5t155.5 12.5q167 0 264 -78t97 -247q0 -132 -71.5 -217.5t-186.5 -116.5q118 -25 172.5 -106t69.5 -261q21 -242 35 -313.5t53 -71.5q27 0 40.5 32t20.5 122l41 -6 q-7 -115 -44 -170.5t-128 -55.5q-105 0 -153.5 88.5t-69.5 302.5q-23 240 -55 331t-107 91h-2q-53 0 -152 13v-604q0 -70 8.5 -102.5t25.5 -46t59 -24.5v-20h-392zM356 840q76 -15 129 -15t89.5 23.5t56 67.5t27.5 96.5t8 120.5q0 286 -183 286q-63 0 -127 -14v-565z" />
<glyph unicode="S" horiz-adv-x="890" d="M49 518h41q24 -149 60.5 -251t83.5 -155.5t97 -75.5t113 -22q95 0 146 53.5t51 159.5q0 30 -4.5 59t-16.5 59.5t-21.5 53.5t-32.5 55.5t-35.5 51t-44.5 55.5t-46 52.5t-53 58t-53 57.5q-18 20 -59 65t-59.5 66.5t-51 60.5t-47.5 66.5t-33.5 64.5t-25.5 74t-7 76 q0 126 99 193t260 67q64 0 169 -15t162 -15l56 -508h-41q-22 122 -49 211t-56 144t-65.5 87t-72.5 43.5t-83 11.5q-79 0 -124.5 -43t-45.5 -118q0 -32 11.5 -67.5t24 -61t45 -68.5t49 -63t63 -73t61.5 -71q140 -143 189 -204q147 -183 147 -351q0 -89 -29.5 -154.5 t-82.5 -103t-119 -55t-146 -17.5q-81 0 -202 16.5t-177 16.5z" />
<glyph unicode="T" horiz-adv-x="1032" d="M27 924l55 510h868l56 -510h-41q-22 128 -43 212.5t-41 136.5t-47 78t-53 34t-68 8h-92v-1200q0 -70 8 -102.5t25.5 -46t58.5 -24.5v-20h-394v20q42 11 59 24.5t25.5 46t8.5 102.5v1200h-93q-41 0 -67 -8t-52.5 -34t-46.5 -78.5t-41 -136t-44 -212.5h-41z" />
<glyph unicode="U" horiz-adv-x="1107" d="M43 1413v21h391v-21q-42 -11 -59 -24t-25 -45.5t-8 -102.5v-799q0 -198 72 -291.5t215 -93.5t224 95.5t81 277.5v811q0 69 -8.5 102t-25.5 46t-58 24v21h225v-21q-42 -11 -59 -24t-25 -45.5t-8 -102.5v-819q0 -215 -100 -333t-297 -118q-95 0 -173.5 28t-140 84.5 t-95.5 152t-34 221.5v784q0 69 -8.5 102t-25.5 46t-58 24z" />
<glyph unicode="V" horiz-adv-x="1241" d="M23 1413v21h452v-21q-34 -7 -51 -13t-29.5 -15t-11.5 -27.5t6 -41.5t19 -65l307 -958l309 958q14 42 19 65t5.5 41.5t-12 27.5t-29.5 15t-51 13v21h265v-21q-34 -9 -51 -16t-37 -24t-34.5 -45.5t-29.5 -76.5l-412 -1280h-69l-416 1280q-15 48 -29 76.5t-34 45.5t-36.5 24 t-49.5 16z" />
<glyph unicode="W" horiz-adv-x="1675" d="M23 1413v21h878v-25q-67 -9 -77 -35q-2 -7 -2 -18q0 -33 22 -103l90 -286l92 286q22 69 22 102q0 12 -3 19q-11 27 -78 35v25h245v-25q-55 -9 -85 -40t-58 -116l-113 -354l195 -612l309 966q23 66 23 99q-1 10 -3 18q-10 30 -79 39v25h254v-21q-34 -9 -51 -16t-37 -24 t-34.5 -46.5t-29.5 -77.5l-407 -1278h-76l-180 561l-178 -561h-76l-414 1280q-15 48 -29 76.5t-34 45.5t-36.5 24t-49.5 16zM396 1368q-5 -14 -4 -32q0 -34 16 -83l309 -966l100 315l-209 651q-29 88 -59.5 122t-79.5 34q-59 -1 -73 -41z" />
<glyph unicode="X" horiz-adv-x="1120" d="M23 0v20q30 8 42 12t34 14.5t35 24.5t31 39.5t36 61.5l254 504l-262 581q-20 46 -38 74t-41 44t-39.5 22.5t-51.5 15.5v21h460v-21q-21 -4 -34 -7t-24 -8.5t-16.5 -9.5t-8 -14t-1 -18t6.5 -25t11.5 -32t18.5 -42l201 -442l223 447q13 28 19.5 41.5t13 31t7.5 24.5 t-0.5 17t-6.5 13.5t-16.5 8.5t-24 8t-33.5 7v21h266v-21q-32 -8 -43.5 -11.5t-34.5 -14.5t-35.5 -25t-30.5 -39t-36 -61l-248 -494l269 -592q39 -86 72.5 -112.5t99.5 -43.5v-20h-463v20q29 6 44 9.5t26.5 12.5t14 16.5t-1.5 26.5t-12 37l-24 54l-203 451l-231 -455 q-18 -36 -26 -53t-13 -36t-3 -26t12.5 -15.5t25.5 -12t43 -9.5v-20h-264z" />
<glyph unicode="Y" horiz-adv-x="1112" d="M23 1413v21h464v-21q-34 -7 -50 -13t-27 -14t-8.5 -27t9.5 -40t25 -64l236 -565l215 563q16 43 22 65t8 40.5t-10 27.5t-28 14.5t-50 12.5v21h263v-21q-35 -9 -51.5 -15.5t-38 -23t-37.5 -45.5t-33 -76l-240 -639v-421q0 -70 8 -102.5t25.5 -46t58.5 -24.5v-20h-393v20 q41 11 58.5 24.5t25.5 46t8 102.5v372l-295 692q-36 86 -68 112.5t-97 43.5z" />
<glyph unicode="Z" horiz-adv-x="995" d="M61 0v41l605 1352h-263q-61 0 -95 -13t-66 -64t-55 -139.5t-54 -252.5h-41l64 510h757v-41l-606 -1352h314q47 0 76.5 9t57 35t48.5 81t42 137t46 215h41l-64 -518h-807z" />
<glyph unicode="[" horiz-adv-x="561" d="M66 -317v1863h460v-41h-245v-1781h245v-41h-460z" />
<glyph unicode="\" horiz-adv-x="473" d="M20 1434h41l392 -1844h-43z" />
<glyph unicode="]" horiz-adv-x="561" d="M35 -276h246v1781h-246v41h461v-1863h-461v41z" />
<glyph unicode="^" horiz-adv-x="657" d="M61 909l236 525h63l236 -525h-45l-221 496l-224 -496h-45z" />
<glyph unicode="_" horiz-adv-x="829" d="M61 -123h707v-41h-707v41z" />
<glyph unicode="`" horiz-adv-x="622" d="M121 1260q0 32 11 57t34.5 41.5t67.5 11t102 -36.5l205 -108l-6 -27z" />
<glyph unicode="a" horiz-adv-x="1054" d="M61 389q0 204 104 309t269 105q183 0 273 -154v47q0 178 -43.5 247t-149.5 69q-87 0 -180 -47.5t-176 -159.5h-43l108 211q49 0 152.5 18.5t165.5 18.5q176 0 273 -89t97 -272v-475v-59t4.5 -37.5t9 -24t19 -7t29.5 1.5t45 13l8 -16l-154 -82q-68 -33 -96 -33 q-69 0 -69 97v57q-44 -74 -114.5 -115t-160.5 -41q-78 0 -144.5 25.5t-117.5 75.5t-80 131t-29 186zM289 389q0 -161 56.5 -250.5t150.5 -89.5q93 0 152 88t59 252q0 163 -58.5 250.5t-150.5 87.5q-96 0 -152.5 -88.5t-56.5 -249.5z" />
<glyph unicode="b" horiz-adv-x="1028" d="M31 1386v21h131q103 3 151 61h21v-567q63 75 134 113.5t163 38.5q68 0 127 -30t106.5 -89t75 -159t27.5 -230q0 -132 -33.5 -242t-89.5 -181.5t-128.5 -111t-152.5 -39.5q-121 0 -192 68.5t-113 218.5q-62 -90 -86 -287h-41v1243q0 70 -9 102.5t-27.5 45.5t-63.5 24z M334 360q1 -161 58.5 -245t133.5 -84q109 0 160 117t51 366q0 238 -49 344.5t-149 106.5q-48 0 -96.5 -26t-108.5 -91v-488z" />
<glyph unicode="c" horiz-adv-x="911" d="M61 520q0 242 122.5 387.5t322.5 145.5q55 0 135 -17.5t123 -17.5l53 -356h-41q-20 87 -44.5 151t-48 101.5t-51 60t-52 30t-54.5 7.5q-116 0 -174.5 -124.5t-58.5 -328.5q0 -99 14.5 -183t44.5 -154t83 -110t124 -40q184 0 272 307l39 -10q-60 -217 -157.5 -307.5 t-233.5 -90.5q-195 0 -306.5 143.5t-111.5 405.5z" />
<glyph unicode="d" horiz-adv-x="1030" d="M61 479q0 132 33.5 242t89 181.5t127 111t148.5 39.5q82 0 139 -28.5t98 -90.5v276q0 70 -9 102.5t-27.5 45.5t-63.5 24v21h131q101 3 152 61h20v-1241q0 -70 9 -102.5t27 -45.5t62 -24v-20h-129q-103 -3 -151 -64h-21v156q-126 -152 -299 -152q-67 0 -126 30t-107 89.5 t-75.5 159.5t-27.5 229zM293 510q0 -240 48.5 -347.5t147.5 -107.5q50 0 98.5 26t108.5 91v492q-1 162 -59.5 245.5t-134.5 83.5q-108 0 -158.5 -116.5t-50.5 -366.5z" />
<glyph unicode="e" horiz-adv-x="919" d="M61 516q0 244 120 390.5t311 146.5q156 0 251 -105t95 -299h-547v-53q0 -153 25.5 -266.5t88 -185.5t158.5 -72q188 0 279 307l39 -10q-31 -113 -73.5 -192t-94.5 -123t-108 -63.5t-122 -19.5q-197 0 -309.5 143t-112.5 402zM293 690h338q0 168 -37 245t-109 77 q-169 0 -192 -322z" />
<glyph unicode="f" horiz-adv-x="587" d="M27 983v41h211q-197 90 -197 254q0 88 64.5 136t175.5 48q54 0 122 -17.5t111 -17.5l59 -327h-41q-29 99 -56 164t-55 98.5t-53 46t-57 12.5q-47 0 -74.5 -36.5t-27.5 -104.5q0 -103 64.5 -179.5t164.5 -76.5h90v-41q-99 0 -129 -23.5t-30 -93.5v-673q0 -70 12 -102.5 t38 -46t89 -24.5v-20h-445v20q45 11 64 24.5t28 46.5t9 102v673q0 49 -8 71.5t-37.5 34t-91.5 11.5z" />
<glyph unicode="g" horiz-adv-x="964" d="M55 580q0 218 112 346.5t312 128.5q71 0 139 -19q33 70 80 118t117 81l86 -121q-100 -3 -154 -24t-92 -68q120 -47 185 -162.5t65 -279.5q0 -218 -112.5 -346t-313.5 -128q-133 0 -233 62q-22 -12 -32.5 -23t-10.5 -28q0 -30 52 -52.5t222 -72.5q212 -61 265 -83 q103 -43 127 -106q10 -25 10 -57q0 -67 -46 -112.5t-112 -64t-146 -18.5q-142 0 -214 41.5t-72 116.5q0 100 131 152q-200 56 -273 93.5t-73 100.5q0 49 36 81.5t101 56.5q-156 125 -156 387zM283 580q0 -207 45 -320t151 -113q56 0 95 31t61.5 91t32.5 135.5t10 175.5 t-10 176.5t-32.5 136t-61.5 90.5t-95 31q-106 0 -151 -113.5t-45 -320.5zM401 -285q0 -123 177 -123q74 0 114.5 29t40.5 76q0 53 -44.5 77t-205.5 70q-82 -47 -82 -129z" />
<glyph unicode="h" horiz-adv-x="1048" d="M31 0v20q45 11 63.5 24.5t27.5 46t9 102.5v1013q0 70 -9 102.5t-27.5 45.5t-63.5 24v21h131q99 3 151 63h21v-571q158 162 315 162q264 0 264 -303v-557q0 -69 9 -102t27.5 -46.5t62.5 -24.5v-20h-402v20q45 11 64 24.5t28 46.5t9 102v606q0 180 -127 180 q-111 0 -250 -139v-647q0 -70 9 -102.5t27 -46t62 -24.5v-20h-401z" />
<glyph unicode="i" horiz-adv-x="471" d="M35 0v20q44 11 62 24.5t27 46t9 102.5v604q0 70 -9 102.5t-27 45.5t-62 24v20h129q100 3 153 64h21v-860q0 -70 9 -102.5t27 -46t62 -24.5v-20h-401zM82 1321q0 57 40 95t99 38t98 -38t39 -95t-39 -95t-98 -38t-99 38t-40 95z" />
<glyph unicode="j" horiz-adv-x="438" d="M-94 -43h41q28 -114 52.5 -187.5t47.5 -108.5t42 -46.5t44 -11.5q70 0 70 141q0 70 -38 190t-38 203v664q0 70 -9 102.5t-27.5 45.5t-63.5 24v20h131q50 2 85.5 15t65.5 47h21v-1073q0 -64 -1 -106t-5 -91t-12 -79t-21.5 -60.5t-33 -47t-47.5 -26.5t-65 -10 q-39 0 -94.5 17.5t-89.5 17.5zM76 1321q0 57 40 95t99 38t98 -38t39 -95t-39 -95t-98 -38t-99 38t-40 95z" />
<glyph unicode="k" horiz-adv-x="1132" d="M31 0v20q45 11 63.5 24.5t27.5 46t9 102.5v1013q0 70 -9 102.5t-27.5 45.5t-63.5 24v21h131q99 3 151 63h21v-1013l366 456q44 53 44 72q0 3 -1 5q-8 16 -90 17v25h320v-25q-79 0 -126 -20t-97 -80l-144 -180l312 -551q25 -43 46 -69.5t47.5 -42t43 -21t55.5 -15.5v-20 h-483v20q22 4 35 7t24.5 8.5t16.5 8.5t6.5 13t0 17t-9 24t-14.5 30t-22 40l-205 367l-125 -156v-186q0 -70 9 -102.5t27 -46t62 -24.5v-20h-401z" />
<glyph unicode="l" horiz-adv-x="464" d="M31 0v20q45 11 63.5 24.5t27.5 46t9 102.5v1013q0 70 -9 102.5t-27.5 45.5t-63.5 24v21h131q99 3 151 63h21v-1269q0 -70 9 -102.5t27 -46t62 -24.5v-20h-401z" />
<glyph unicode="m" horiz-adv-x="1490" d="M31 0v20q45 11 63.5 24.5t27.5 46t9 102.5v604q0 70 -9 102.5t-27.5 45.5t-63.5 24v20h131q98 3 151 64h21v-162q66 75 134.5 118.5t152.5 43.5q173 0 213 -174q77 84 146.5 129t152.5 45q225 0 225 -293v-567q0 -70 8.5 -102.5t27 -46t62.5 -24.5v-20h-403v20 q45 11 63.5 24.5t27.5 46t9 102.5v618q0 91 -21 129.5t-67 38.5q-96 0 -223 -141q4 -46 4 -78v-567q0 -70 8.5 -102.5t27 -46t62.5 -24.5v-20h-401v20q44 11 62 24.5t27 46t9 102.5v618q0 92 -20 130t-66 38q-99 0 -221 -137v-649q0 -70 9 -102.5t27 -46t62 -24.5v-20h-401z " />
<glyph unicode="n" horiz-adv-x="1048" d="M31 0v20q45 11 63.5 24.5t27.5 46t9 102.5v604q0 70 -9 102.5t-27.5 45.5t-63.5 24v20h131q98 3 151 64h21v-162q158 162 315 162q264 0 264 -303v-557q0 -69 9 -102t27.5 -46.5t62.5 -24.5v-20h-402v20q45 11 64 24.5t28 46.5t9 102v606q0 180 -127 180 q-111 0 -250 -139v-647q0 -70 9 -102.5t27 -46t62 -24.5v-20h-401z" />
<glyph unicode="o" horiz-adv-x="1032" d="M57 512q0 263 121.5 402t337.5 139t337.5 -138.5t121.5 -402.5q0 -263 -121.5 -402t-337.5 -139t-337.5 139t-121.5 402zM289 512q0 -256 53.5 -377t173.5 -121t173.5 121t53.5 377t-53.5 378t-173.5 122t-173.5 -122t-53.5 -378z" />
<glyph unicode="p" horiz-adv-x="1028" d="M31 -389q45 11 63.5 24t27.5 45.5t9 102.5v1014q0 70 -9 102.5t-27.5 45.5t-63.5 24v20h131q98 3 151 64h21v-152q63 75 134 113.5t163 38.5q68 0 127 -30t106.5 -89t75 -159t27.5 -230q0 -131 -33.5 -241t-88.5 -181.5t-126 -111.5t-148 -40q-82 0 -139 28.5t-98 90.5 v-307q0 -70 9 -102.5t27 -45.5t62 -24v-21h-401v21zM334 360q1 -161 58.5 -245t133.5 -84q109 0 160 117t51 366q0 241 -49 349t-149 108q-48 0 -96.5 -26t-108.5 -91v-494z" />
<glyph unicode="q" horiz-adv-x="1026" d="M61 479q0 133 33.5 243t90.5 181.5t129.5 110.5t152.5 39q121 0 192 -67.5t113 -217.5q63 93 86 264h41v-1249q0 -70 9 -102.5t27 -45.5t62 -24v-21h-401v21q45 11 63.5 24t27.5 45.5t9 102.5v340q-129 -152 -299 -152q-68 0 -127 30t-106.5 89t-75 159t-27.5 230z M293 510q0 -238 48.5 -344.5t147.5 -106.5q49 0 97.5 26.5t109.5 90.5v488q-1 162 -59.5 245.5t-134.5 83.5q-108 0 -158.5 -116.5t-50.5 -366.5z" />
<glyph unicode="r" horiz-adv-x="776" d="M31 0v20q45 11 63.5 24.5t27.5 46t9 102.5v604q0 70 -9 102.5t-27.5 45.5t-63.5 24v20h131q98 3 151 64h21v-179q56 56 75 74.5t56.5 51t60.5 43t45 10.5q25 0 41.5 -15t22.5 -32.5t17.5 -32.5t27.5 -15q13 0 55 25l15 -29q-22 -89 -62.5 -136.5t-93.5 -47.5 q-33 0 -55.5 22t-30.5 49t-18.5 54t-22.5 33q-9 6 -36.5 -17t-96.5 -92v-626q0 -53 6 -82t27.5 -48t50 -27t86.5 -16v-20h-473z" />
<glyph unicode="s" horiz-adv-x="811" d="M49 399h41q21 -96 48.5 -166.5t57 -112t66 -66t70.5 -32.5t76 -8q76 0 112.5 37t36.5 99q0 78 -51.5 146.5t-175.5 180.5q-66 52 -107 89.5t-78 83t-54 92t-17 100.5q0 107 84.5 159t216.5 52q66 0 154.5 -17.5t140.5 -17.5l55 -356h-41q-27 111 -58 183.5t-67.5 107.5 t-70.5 47t-80 12q-63 0 -95 -28t-32 -75q0 -67 55.5 -136.5t179.5 -176.5q122 -100 184 -185.5t62 -193.5q0 -124 -87 -185t-237 -61q-78 0 -186 17.5t-158 17.5z" />
<glyph unicode="t" horiz-adv-x="610" d="M20 983v41q149 7 214.5 75t95.5 232h22v-307h201v-41q-88 0 -131 -11.5t-56.5 -34.5t-13.5 -71v-594q0 -99 11 -136.5t49 -37.5q71 0 125 283l36 -12q-17 -88 -30.5 -142.5t-34 -108.5t-45 -83t-59.5 -46.5t-82 -17.5q-93 0 -134 66.5t-41 210.5v618q0 72 -21.5 94.5 t-105.5 22.5z" />
<glyph unicode="u" horiz-adv-x="1052" d="M35 973v20h131q102 3 153 62h21v-832q0 -180 127 -180q114 0 248 137v621q0 69 -9 102t-27.5 46t-62.5 24v20h129q100 3 154 62h21v-824q0 -100 17 -128.5t81 -43.5v-20h-131q-100 -7 -152 -64h-20v156q-154 -162 -314 -162q-266 0 -266 303v529q0 70 -9 102.5 t-27.5 45.5t-63.5 24z" />
<glyph unicode="v" horiz-adv-x="1081" d="M23 1004v20h456v-20q-31 -6 -47.5 -9.5t-29.5 -12.5t-16.5 -17t-2 -27t7.5 -38.5t19 -55.5l227 -631l221 629q13 36 19.5 56.5t8 39t-2 27t-16.5 17t-29.5 12.5t-46.5 10v20h268v-20q-35 -9 -51.5 -15.5t-37.5 -23t-36.5 -45t-32.5 -76.5l-313 -873h-86l-322 873 q-32 89 -62.5 116t-94.5 44z" />
<glyph unicode="w" horiz-adv-x="1462" d="M23 1004v20h1024v-25q-55 -10 -85.5 -38.5t-62.5 -114.5l-53 -150l172 -483l223 633q25 71 25 102q0 10 -2 16q-10 26 -78 35v25h256v-20q-35 -9 -51.5 -15.5t-38 -23t-36.5 -45.5t-32 -76l-313 -873h-82l-154 418l-151 -418h-82l-322 873q-32 89 -62.5 116t-94.5 44z M408 846l225 -633l82 231l-150 402q-28 82 -56.5 117.5t-66.5 35.5q-55 0 -55 -58q0 -37 21 -95zM767 957q-1 -4 -1 -9q0 -31 27 -102l32 -90l31 90q21 56 24.5 84t-9 43.5t-48.5 21.5q-51 -9 -56 -38z" />
<glyph unicode="x" horiz-adv-x="954" d="M23 1004v20h462v-20q-31 -6 -47 -9.5t-28 -12t-15 -15.5t1.5 -26.5t12.5 -36.5t25 -54l123 -258l133 260q14 27 21 41.5t13.5 31.5t8 24.5t-0.5 17t-7.5 13.5t-17.5 9t-25.5 8t-36.5 7v20h273v-20q-31 -8 -43 -12t-34.5 -14.5t-35.5 -24.5t-31 -38.5t-37 -60.5l-159 -307 l178 -373q22 -46 40 -73.5t42 -43.5t40 -21.5t52 -15.5v-20h-461v20q23 4 36.5 7t25.5 8.5t17.5 9t8 13.5t1 17.5t-7.5 25t-12.5 32t-19.5 41.5l-127 266l-139 -268q-18 -37 -26 -53t-13 -36t-2.5 -26.5t14 -15t27.5 -12t47 -9.5v-20h-272v20q23 6 30.5 8.5t26 9t26.5 12 t22.5 17t24.5 25.5t23.5 34t26.5 46l162 315l-172 363q-22 46 -40 73.5t-42 43.5t-40 21.5t-52 15.5z" />
<glyph unicode="y" horiz-adv-x="1069" d="M23 1004v20h454v-20q-30 -6 -46.5 -10t-29.5 -12.5t-16.5 -17t-2 -27t8 -39t19.5 -56.5l229 -641l213 641q14 42 19 65t5.5 41.5t-12 27.5t-30.5 15t-54 13v20h269v-20q-34 -9 -51 -16t-37.5 -24t-35 -45.5t-30.5 -76.5l-336 -1014q-52 -152 -77 -196q-51 -75 -124 -78 q-34 0 -84 16t-86 16l-57 373h41q29 -120 53 -195t47 -111t42.5 -47.5t47.5 -11.5q48 0 78.5 48.5t73.5 181.5l49 147h-61l-322 873q-32 89 -62.5 116t-94.5 44z" />
<glyph unicode="z" horiz-adv-x="847" d="M47 0v41l494 942h-170q-57 0 -90.5 -10.5t-63.5 -48.5t-51.5 -95.5t-52.5 -166.5h-41l63 362h651v-41l-493 -942h209q57 0 90 11t63 51.5t52 105.5t53 186h41l-64 -395h-690z" />
<glyph unicode="{" horiz-adv-x="606" d="M51 594v41q61 0 102.5 19.5t64.5 53.5t31.5 87.5t5.5 114t-15 141.5q-19 98 -12 181.5t39.5 147t109 107t196.5 59.5v-20q-62 -24 -91 -73.5t-31 -127.5t14 -188q59 -439 -246 -523q305 -84 246 -520q-28 -166 -5.5 -261t113.5 -130v-20q-120 16 -196.5 59.5t-109 107 t-39.5 147t12 181.5q19 128 15 220.5t-54 144t-150 51.5z" />
<glyph unicode="|" horiz-adv-x="163" d="M61 -123v1679h41v-1679h-41z" />
<glyph unicode="}" horiz-adv-x="606" d="M33 -297q91 35 113.5 130t-5.5 261q-59 436 246 520q-305 84 -246 523q16 110 14 188t-31 127.5t-91 73.5v20q120 -16 196.5 -59.5t109.5 -107t40 -147t-12 -181.5q-18 -128 -14.5 -220.5t53 -144t149.5 -51.5v-41q-100 0 -150 -51.5t-53.5 -144t15.5 -220.5 q19 -98 12 -181.5t-40 -147t-109.5 -107t-196.5 -59.5v20z" />
<glyph unicode="~" horiz-adv-x="763" d="M102 467q40 66 76.5 95.5t91.5 29.5q39 0 73 -18.5t55 -40t51.5 -40t62.5 -18.5q42 0 65 22t48 78l37 -16q-26 -65 -60 -95t-90 -30q-40 0 -74.5 18.5t-55 40t-50.5 40t-62 18.5q-42 0 -67 -21t-64 -79z" />
<glyph unicode="&#xa1;" horiz-adv-x="409" d="M113 928q0 53 33 89t85 36t85.5 -36t33.5 -89t-33.5 -88t-85.5 -35t-85 35t-33 88zM115 -311q0 49 14.5 139.5t32.5 186t32.5 256.5t14.5 333h41q0 -172 15.5 -333t33.5 -256.5t33.5 -186t15.5 -139.5q0 -61 -30.5 -98t-86.5 -37q-57 0 -86.5 36.5t-29.5 98.5z" />
<glyph unicode="&#xa2;" horiz-adv-x="911" d="M61 725q0 241 121 385.5t320 146.5v299h41v-301q37 -3 107.5 -17.5t113.5 -14.5l53 -357h-41q-24 102 -52 172t-58.5 107t-59.5 53.5t-63 18.5v-941h16q184 0 272 308l39 -11q-53 -191 -134.5 -283t-192.5 -110v-303h-41v299h-23q-195 0 -306.5 143.5t-111.5 405.5z M293 764q0 -186 50.5 -318t158.5 -161v929q-104 -13 -156.5 -135t-52.5 -315z" />
<glyph unicode="&#xa3;" horiz-adv-x="1030" d="M68 195q0 100 57.5 169.5t155.5 69.5q78 0 155 -57q-6 29 -15.5 60.5t-18 54t-25.5 59.5t-24.5 52.5t-29.5 58.5t-28 55h-195v41h172q-53 105 -82.5 196t-29.5 189q0 158 105.5 238.5t273.5 80.5q59 0 157 -17.5t154 -17.5l53 -475h-43q-42 195 -82.5 297t-81.5 136 t-104 34q-93 0 -141 -84t-48 -233q0 -161 33 -344h314v-41h-306q7 -37 27.5 -133t29.5 -154t11 -115q12 -11 51 -49t56 -52.5t48.5 -37.5t58.5 -32t56 -9q57 0 88.5 52.5t49.5 185.5h43q-9 -100 -23.5 -173t-31 -116.5t-38.5 -69t-43.5 -34.5t-48.5 -9q-28 0 -55 10 t-47.5 23t-47 38.5t-42 43.5t-43 51t-41.5 49q-22 -99 -81 -157t-145 -58q-84 0 -146 57.5t-62 166.5zM137 178q0 -76 39 -120t105 -44q79 0 118.5 65t44.5 165q-78 75 -170 75q-59 0 -98 -37t-39 -104z" />
<glyph unicode="&#xa4;" horiz-adv-x="1005" d="M57 240l176 176q-100 124 -100 301q0 180 100 301l-176 176l29 29l176 -174q98 98 240 98q140 0 241 -98l175 174l28 -29l-176 -176q100 -124 100 -301t-100 -301l176 -176l-28 -29l-175 174q-101 -98 -241 -98q-141 0 -242 98l-174 -174zM174 717q0 -164 92 -276.5 t236 -112.5t235.5 112.5t91.5 276.5t-91.5 276.5t-235.5 112.5t-236 -112.5t-92 -276.5z" />
<glyph unicode="&#xa5;" horiz-adv-x="1112" d="M23 1413v21h464v-21q-34 -7 -50 -13t-27 -14t-8.5 -27t9.5 -40t25 -64l174 -419h117l160 417q16 43 22 65t8 40.5t-10 27.5t-28 14.5t-50 12.5v21h263v-21q-35 -9 -51.5 -15.5t-38 -23t-37.5 -45.5t-33 -76l-156 -417h305v-41h-321l-45 -123h366v-41h-383l-6 -17v-421 q0 -70 8 -102.5t25.5 -46t58.5 -24.5v-20h-393v20q41 11 58.5 24.5t25.5 46t8 102.5v372l-28 66h-373v41h356l-53 123h-303v41h287l-181 421q-36 86 -68 112.5t-97 43.5zM629 795l43 -105l39 105h-82z" />
<glyph unicode="&#xa6;" horiz-adv-x="163" d="M61 -123v655h41v-655h-41zM61 901v655h41v-655h-41z" />
<glyph unicode="&#xa7;" horiz-adv-x="862" d="M66 592q0 105 62.5 166.5t172.5 79.5q-92 86 -133 148t-41 147q0 55 23.5 95.5t64.5 63.5t90 34t107 11q66 0 150 -17t136 -17l54 -351h-41q-25 112 -53 183t-60.5 105t-62.5 45t-72 11q-59 0 -89 -28.5t-30 -77.5q0 -26 8.5 -52t17.5 -44t36.5 -49t41.5 -46t57 -57 t62 -61q5 -5 40.5 -41t43.5 -44.5t37 -40.5t38 -46.5t28 -44t25.5 -51t13 -50t6.5 -57.5q0 -105 -63 -166.5t-173 -79.5q46 -43 71 -69.5t52.5 -64t39 -76.5t11.5 -85q0 -106 -81 -156.5t-203 -50.5q-67 0 -152 17.5t-135 17.5l-53 352h41q25 -112 53 -183.5t60 -106 t61 -45.5t71 -11q60 0 90.5 29.5t30.5 77.5q0 22 -4.5 42.5t-17 43t-22.5 38t-35.5 42.5t-39.5 41.5t-50 50t-54 53.5q-6 6 -33.5 33t-34.5 34.5t-31 32.5t-32 35.5t-26.5 34.5t-25.5 38t-19 37t-16.5 41.5t-8.5 42t-4 46.5zM260 651q0 -71 43 -129t155 -166q19 -18 29 -28 l27 -25q88 36 88 143q0 50 -29.5 102t-58.5 83.5t-114 113.5q-16 17 -25 25l-27 25q-88 -39 -88 -144z" />
<glyph unicode="&#xa8;" horiz-adv-x="755" d="M63 1307q0 46 33 77t80 31t80 -31t33 -77t-33 -77.5t-80 -31.5t-80 31.5t-33 77.5zM406 1307q0 46 32.5 77t79.5 31t80 -31t33 -77t-33 -77.5t-80 -31.5t-79.5 31.5t-32.5 77.5z" />
<glyph unicode="&#xa9;" horiz-adv-x="1556" d="M102 717q0 162 51.5 301.5t141 237t215 153t268.5 55.5t268.5 -55.5t215 -153t141 -237t51.5 -301.5q0 -216 -88 -387t-242 -266t-346 -95t-346 95t-242 266t-88 387zM143 719q0 -206 82.5 -368t227 -251.5t325.5 -89.5q135 0 253 53t202 146t132 225t48 285 q0 204 -82.5 365t-227 250t-325.5 89t-325.5 -89t-227 -250t-82.5 -365zM436 709q0 201 108.5 321.5t268.5 120.5q44 0 107.5 -12.5t101.5 -12.5l47 -286h-33q-25 85 -51.5 142.5t-53 85.5t-50 39t-52.5 11q-172 0 -172 -352q0 -77 10 -144t32.5 -127t65 -95t101.5 -35 q146 0 224 241l30 -10q-52 -170 -132 -241.5t-195 -71.5q-165 0 -261 113t-96 313z" />
<glyph unicode="&#xaa;" horiz-adv-x="753" d="M43 989q0 144 74 217.5t190 73.5q130 0 193 -109v33q0 124 -31.5 172.5t-106.5 48.5q-142 0 -251 -145h-29l76 150q34 0 108 12t117 12q127 0 198.5 -62.5t71.5 -191.5v-272q0 -39 0.5 -59t5 -38t10 -24t20 -8t30.5 1.5t45 12.5l8 -20l-158 -76q-39 -19 -61 -19 q-53 0 -53 70v41q-65 -111 -195 -111q-116 0 -189 73.5t-73 217.5zM211 989q0 -112 38.5 -173.5t104.5 -61.5q65 0 105.5 60.5t40.5 174.5t-40.5 174t-103.5 60q-67 0 -106 -61t-39 -173z" />
<glyph unicode="&#xab;" horiz-adv-x="743" d="M102 514q0 42 56 104l235 220l29 -21l-184 -303l184 -303l-29 -21l-235 220q-56 59 -56 104zM365 514q0 43 55 104l235 220l29 -21l-184 -303l184 -303l-29 -21l-235 220q-55 58 -55 104z" />
<glyph unicode="&#xac;" horiz-adv-x="698" d="M102 584v41h494v-246h-41v205h-453z" />
<glyph unicode="&#xad;" horiz-adv-x="739" d="M61 492v40h617v-40h-617z" />
<glyph unicode="&#xae;" horiz-adv-x="827" d="M57 1085q0 167 101 273t256 106t255.5 -105.5t100.5 -273.5q0 -167 -100.5 -272.5t-255.5 -105.5t-256 105.5t-101 272.5zM98 1085q0 -151 89 -244t227 -93t226.5 93.5t88.5 243.5q0 152 -88.5 246t-226.5 94t-227 -94t-89 -246zM262 879v8q20 8 25.5 20.5t5.5 53.5v270 q0 41 -5.5 53.5t-25.5 20.5v8h41q28 1 65 5.5t58 4.5q52 0 86.5 -27t34.5 -84q0 -42 -23.5 -70.5t-60.5 -39.5q42 -9 60 -34t24 -79q6 -58 14.5 -74t32.5 -16v-20q-72 0 -91.5 17t-25.5 85q-7 66 -21 89.5t-44 23.5q-24 0 -47 4v-137q0 -42 5.5 -54t24.5 -20v-8h-133z M365 1118q28 -4 43 -4q32 0 48.5 26.5t16.5 71.5q0 91 -57 91q-16 0 -51 -7v-178z" />
<glyph unicode="&#xaf;" horiz-adv-x="696" d="M102 1249v82h492v-82h-492z" />
<glyph unicode="&#xb0;" horiz-adv-x="583" d="M61 1184q0 120 65.5 199t166.5 79t165 -78.5t64 -199.5q0 -119 -64.5 -198t-164.5 -79q-101 0 -166.5 79t-65.5 198zM102 1184q0 -102 53.5 -169t137.5 -67t136 67.5t52 168.5q0 104 -52 170.5t-136 66.5t-137.5 -67t-53.5 -170z" />
<glyph unicode="&#xb1;" horiz-adv-x="698" d="M102 205v41h494v-41h-494zM102 553v41h226v227h41v-227h227v-41h-227v-225h-41v225h-226z" />
<glyph unicode="&#xb2;" horiz-adv-x="518" d="M16 922v20q11 14 32 42q70 91 105 140t81.5 125t67 141t20.5 128q0 54 -19 84t-67 30q-56 0 -93.5 -52.5t-68.5 -190.5h-21l29 247q23 0 77 8.5t97 8.5q109 0 172.5 -42t63.5 -132q0 -66 -27 -126t-82.5 -117t-114 -102t-147.5 -104h188q40 0 61.5 4t41.5 21t31.5 49 t23.5 90h20l-30 -272h-441z" />
<glyph unicode="&#xb3;" horiz-adv-x="524" d="M20 1194h21q32 -156 69 -211t95 -55q59 0 91 61.5t32 165.5q0 81 -25 131.5t-72 50.5q-39 0 -96 -47l-12 19q41 39 53.5 51.5t40.5 43.5t37.5 49.5t19 46t9.5 56.5q0 76 -66 76q-49 0 -86 -50.5t-70 -192.5h-20l29 247q25 0 81.5 8.5t98.5 8.5q192 0 192 -119 q0 -111 -145 -168q81 5 143 -52t62 -161q0 -85 -41 -142t-102.5 -80.5t-139.5 -23.5q-43 0 -95 8.5t-75 8.5z" />
<glyph unicode="&#xb4;" horiz-adv-x="583" d="M82 1225l205 108q58 31 102 36.5t67.5 -11t34.5 -41.5t11 -57l-414 -62z" />
<glyph unicode="&#xb6;" horiz-adv-x="897" d="M51 1104q0 137 98 233.5t267 96.5h473v-1545h-41v1504h-289v-1504h-41v885h-102q-169 0 -267 96.5t-98 233.5z" />
<glyph unicode="&#xb7;" horiz-adv-x="354" d="M57 506q0 53 34.5 88t86.5 35t85.5 -35t33.5 -88t-33.5 -89t-85.5 -36t-86.5 36t-34.5 89z" />
<glyph unicode="&#xb8;" horiz-adv-x="524" d="M78 -199h41q23 -107 50 -144.5t64 -37.5q33 0 50.5 23.5t17.5 62.5q0 58 -30.5 107.5t-90.5 68.5v21l43 98h43l-41 -100q105 -11 163 -55t58 -119q0 -71 -53 -107.5t-131 -36.5q-33 0 -76 9.5t-77 9.5z" />
<glyph unicode="&#xb9;" horiz-adv-x="333" d="M20 1503v21q91 6 143 36.5t87 92.5h10v-633q0 -43 10 -60t41 -24v-14h-256v14q30 8 40.5 24.5t10.5 59.5v412q0 40 -17 55.5t-69 15.5z" />
<glyph unicode="&#xba;" horiz-adv-x="735" d="M41 1075q0 184 87 281.5t241 97.5q155 0 241 -97t86 -282q0 -183 -86 -280t-241 -97t-241.5 97t-86.5 280zM211 1075q0 -177 37.5 -262.5t120.5 -85.5t119 84.5t36 263.5q0 181 -36 265.5t-119 84.5t-120.5 -86t-37.5 -264z" />
<glyph unicode="&#xbb;" horiz-adv-x="743" d="M61 211l185 303l-185 303l29 21l236 -220q55 -61 55 -104q0 -46 -55 -104l-236 -220zM322 211l184 303l-184 303l28 21l236 -220q55 -61 55 -104q0 -46 -55 -104l-236 -220z" />
<glyph unicode="&#xbc;" horiz-adv-x="1001" d="M20 1298v21q91 6 143 36.5t87 92.5h10v-633q0 -43 10 -60t41 -24v-14h-256v14q30 8 40.5 24.5t10.5 59.5v412q0 40 -17 55.5t-69 15.5zM74 0l649 1434h43l-649 -1434h-43zM444 174v21l279 540h10q35 -22 66.5 -29.5t81.5 -9.5v-415h100v-107h-100v-76q0 -43 10 -60 t41 -24v-14h-256v14q29 8 39 24.5t10 59.5v76h-281zM518 281h207v409z" />
<glyph unicode="&#xbd;" horiz-adv-x="999" d="M20 1298v21q91 6 143 36.5t87 92.5h10v-633q0 -43 10 -60t41 -24v-14h-256v14q30 8 40.5 24.5t10.5 59.5v412q0 40 -17 55.5t-69 15.5zM74 0l649 1434h43l-649 -1434h-43zM498 0v20q142 186 183 250q122 187 122 326q0 115 -86 115q-56 0 -93.5 -53t-68.5 -191h-20 l28 248q23 0 77 8t97 8q109 0 172.5 -42t63.5 -132q0 -66 -27 -126t-83 -116.5t-114 -101.5t-147 -104h189q40 0 61 4t41 20.5t31.5 48.5t23.5 90h21l-31 -272h-440z" />
<glyph unicode="&#xbe;" horiz-adv-x="1177" d="M20 989h21q32 -156 69 -211t95 -55q59 0 91 61.5t32 165.5q0 81 -25 132t-72 51q-38 0 -96 -48l-12 19q47 45 65.5 64t46.5 54t38 65t10 65q0 75 -66 75q-49 0 -86 -50.5t-70 -192.5h-20l29 248q25 0 81.5 8t98.5 8q192 0 192 -119q0 -111 -145 -168q81 5 143 -52 t62 -161q0 -85 -41 -142t-102.5 -80.5t-139.5 -23.5q-43 0 -95 8.5t-75 8.5zM250 0l649 1434h43l-649 -1434h-43zM621 174v21l278 540h10q35 -22 66.5 -29.5t81.5 -9.5v-415h100v-107h-100v-76q0 -43 10 -60t41 -24v-14h-256v14q29 8 39 24.5t10 59.5v76h-280zM694 281h207 v409z" />
<glyph unicode="&#xbf;" horiz-adv-x="747" d="M57 -219q0 45 14.5 88t32 73.5t51.5 67t54.5 54.5t58.5 51q66 58 96 111t43 137t13 241h41q0 -274 -13.5 -373.5t-70.5 -199.5q-43 -87 -62.5 -148t-19.5 -137q0 -143 94 -143q42 0 72.5 18.5t63.5 70.5t63 154t61 260h41l-55 -509q-55 0 -135.5 -17.5t-145.5 -17.5 q-136 0 -216.5 54t-80.5 165zM319 930q0 53 34.5 89t86.5 36q51 0 85 -36t34 -89q0 -51 -34 -87t-85 -36q-52 0 -86.5 35.5t-34.5 87.5z" />
<glyph unicode="&#xc0;" horiz-adv-x="1175" d="M23 0v20q33 9 49.5 16t35 24.5t31 47t25.5 78.5l307 1127l-18 69v21q71 0 108.5 10.5t75.5 48.5h20l353 -1276q18 -65 38 -98t40.5 -44.5t64.5 -23.5v-20h-455v20q83 15 96 40.5t-14 125.5l-55 199h-463l-55 -199q-26 -100 -13 -125.5t97 -40.5v-20h-268zM272 426h443 l-221 807zM358 1628q0 32 11 57t34.5 42t68 11.5t103.5 -36.5l203 -109l-6 -26z" />
<glyph unicode="&#xc1;" horiz-adv-x="1175" d="M23 0v20q33 9 49.5 16t35 24.5t31 47t25.5 78.5l307 1127l-18 69v21q71 0 108.5 10.5t75.5 48.5h20l353 -1276q18 -65 38 -98t40.5 -44.5t64.5 -23.5v-20h-455v20q83 15 96 40.5t-14 125.5l-55 199h-463l-55 -199q-26 -100 -13 -125.5t97 -40.5v-20h-268zM272 426h443 l-221 807zM365 1593l204 109q58 31 102 36.5t67.5 -11.5t34.5 -42t11 -57l-413 -61z" />
<glyph unicode="&#xc2;" horiz-adv-x="1175" d="M23 0v20q33 9 49.5 16t35 24.5t31 47t25.5 78.5l307 1127l-18 69v21q71 0 108.5 10.5t75.5 48.5h20l353 -1276q18 -65 38 -98t40.5 -44.5t64.5 -23.5v-20h-455v20q83 15 96 40.5t-14 125.5l-55 199h-463l-55 -199q-26 -100 -13 -125.5t97 -40.5v-20h-268zM272 426h443 l-221 807zM313 1563l172 204q37 45 84 45t84 -45l174 -204l-26 -27l-232 150l-229 -150z" />
<glyph unicode="&#xc3;" horiz-adv-x="1175" d="M23 0v20q33 9 49.5 16t35 24.5t31 47t25.5 78.5l307 1127l-18 69v21q71 0 108.5 10.5t75.5 48.5h20l353 -1276q18 -65 38 -98t40.5 -44.5t64.5 -23.5v-20h-455v20q83 15 96 40.5t-14 125.5l-55 199h-463l-55 -199q-26 -100 -13 -125.5t97 -40.5v-20h-268zM272 426h443 l-221 807zM276 1616q16 45 32 78t39.5 67.5t55 53t68.5 18.5q35 0 70.5 -19t59.5 -41.5t56 -41.5t62 -19q35 0 59 22.5t51 77.5l37 -16q-14 -58 -35 -103t-59.5 -79.5t-87.5 -34.5q-37 0 -72.5 19t-59.5 41.5t-55.5 41.5t-60.5 19q-72 0 -123 -101z" />
<glyph unicode="&#xc4;" horiz-adv-x="1175" d="M23 0v20q33 9 49.5 16t35 24.5t31 47t25.5 78.5l307 1127l-18 69v21q71 0 108.5 10.5t75.5 48.5h20l353 -1276q18 -65 38 -98t40.5 -44.5t64.5 -23.5v-20h-455v20q83 15 96 40.5t-14 125.5l-55 199h-463l-55 -199q-26 -100 -13 -125.5t97 -40.5v-20h-268zM272 426h443 l-221 807zM276 1681q0 52 36 86.5t89 34.5q54 0 89.5 -34.5t35.5 -86.5q0 -51 -35.5 -84.5t-89.5 -33.5q-53 0 -89 33.5t-36 84.5zM618 1681q0 52 36 86.5t89 34.5q54 0 89.5 -34.5t35.5 -86.5q0 -51 -35.5 -84.5t-89.5 -33.5q-53 0 -89 33.5t-36 84.5z" />
<glyph unicode="&#xc5;" horiz-adv-x="1175" d="M23 0v20q33 9 49.5 16t35 24.5t31 47t25.5 78.5l307 1127l-18 69v21q71 0 108.5 10.5t75.5 48.5h20l353 -1276q18 -65 38 -98t40.5 -44.5t64.5 -23.5v-20h-455v20q83 15 96 40.5t-14 125.5l-55 199h-463l-55 -199q-26 -100 -13 -125.5t97 -40.5v-20h-268zM272 426h443 l-221 807zM406 1679q0 65 47.5 110.5t119.5 45.5q71 0 119.5 -45.5t48.5 -110.5t-48 -110t-120 -45q-73 0 -120 45t-47 110zM446 1679q0 -48 35.5 -82t91.5 -34q53 0 89 34t36 82t-36 82.5t-89 34.5q-56 0 -91.5 -34t-35.5 -83z" />
<glyph unicode="&#xc6;" horiz-adv-x="1501" d="M16 0v20q38 9 56.5 15.5t41.5 23t40 44.5t36 75l484 1192q-8 17 -24.5 25.5t-49.5 17.5v21h776l56 -510h-41q-19 111 -36 187.5t-36 129.5t-35.5 82.5t-42 45.5t-47.5 20t-59 4h-236v-623h191q33 0 50.5 4t31.5 15t18 37.5t4 63.5t-4 101h41l49 -506h-43 q-8 63 -13.5 96.5t-14.5 65.5t-17 44.5t-25 23t-35.5 12.5t-50.5 2h-182v-688h268q30 0 49.5 3t42 13.5t38 31t33 54.5t32 85.5t30 122.5t31.5 167h41l-53 -518h-811v20q41 11 58 24.5t25.5 46.5t8.5 102v194h-373l-83 -209q-14 -35 -21 -54.5t-9 -38t2 -27t18 -16.5 t31.5 -12t49.5 -10v-20h-291zM338 428h354v813q0 41 -2 57z" />
<glyph unicode="&#xc7;" horiz-adv-x="1050" d="M47 733q0 188 44.5 330.5t124.5 228.5t183 128t228 42q74 0 161 -15t127 -15l54 -508h-41q-21 124 -45.5 212t-50.5 143.5t-59 87t-67 43t-79 11.5q-151 0 -245.5 -166.5t-94.5 -494.5q0 -311 101 -493.5t249 -182.5q65 0 114.5 20.5t95 71t79.5 145.5t57 236l41 -8 q-28 -166 -70.5 -280.5t-100 -178.5t-122.5 -91t-149 -28l-29 -71q105 -11 163 -55t58 -119q0 -71 -53 -107.5t-131 -36.5q-33 0 -76.5 9.5t-77.5 9.5l-30 200h40q23 -107 50.5 -144.5t64.5 -37.5q33 0 50.5 23.5t17.5 62.5q0 58 -30.5 107.5t-90.5 68.5v21l31 71 q-216 16 -354 215.5t-138 544.5z" />
<glyph unicode="&#xc8;" horiz-adv-x="958" d="M57 0v20q41 11 58 24t26 46.5t9 102.5v1048q0 69 -9 102t-26 46t-58 24v21h777l55 -510h-41q-19 111 -36 187.5t-36 129.5t-35.5 82.5t-42 45.5t-47.5 20t-59 4h-236v-623h191q33 0 50.5 4t31.5 15t18 37.5t4 63.5t-4 101h41l49 -506h-43q-6 47 -10 75t-10 57t-11 43.5 t-14 29.5t-17.5 21t-23.5 11t-30 6t-39 1h-183v-688h269q30 0 49.5 3t42 13.5t38 31t33 54.5t32 85.5t30 122.5t31.5 167h41l-54 -518h-811zM281 1628q0 32 11 57t34.5 42t68 11.5t103.5 -36.5l202 -109l-6 -26z" />
<glyph unicode="&#xc9;" horiz-adv-x="958" d="M57 0v20q41 11 58 24t26 46.5t9 102.5v1048q0 69 -9 102t-26 46t-58 24v21h777l55 -510h-41q-19 111 -36 187.5t-36 129.5t-35.5 82.5t-42 45.5t-47.5 20t-59 4h-236v-623h191q33 0 50.5 4t31.5 15t18 37.5t4 63.5t-4 101h41l49 -506h-43q-6 47 -10 75t-10 57t-11 43.5 t-14 29.5t-17.5 21t-23.5 11t-30 6t-39 1h-183v-688h269q30 0 49.5 3t42 13.5t38 31t33 54.5t32 85.5t30 122.5t31.5 167h41l-54 -518h-811zM287 1593l205 109q58 31 102 36.5t67.5 -11.5t34.5 -42t11 -57l-414 -61z" />
<glyph unicode="&#xca;" horiz-adv-x="958" d="M57 0v20q41 11 58 24t26 46.5t9 102.5v1048q0 69 -9 102t-26 46t-58 24v21h777l55 -510h-41q-19 111 -36 187.5t-36 129.5t-35.5 82.5t-42 45.5t-47.5 20t-59 4h-236v-623h191q33 0 50.5 4t31.5 15t18 37.5t4 63.5t-4 101h41l49 -506h-43q-6 47 -10 75t-10 57t-11 43.5 t-14 29.5t-17.5 21t-23.5 11t-30 6t-39 1h-183v-688h269q30 0 49.5 3t42 13.5t38 31t33 54.5t32 85.5t30 122.5t31.5 167h41l-54 -518h-811zM236 1563l172 204q37 45 84 45q46 0 83 -45l175 -204l-27 -27l-231 150l-230 -150z" />
<glyph unicode="&#xcb;" horiz-adv-x="958" d="M57 0v20q41 11 58 24t26 46.5t9 102.5v1048q0 69 -9 102t-26 46t-58 24v21h777l55 -510h-41q-19 111 -36 187.5t-36 129.5t-35.5 82.5t-42 45.5t-47.5 20t-59 4h-236v-623h191q33 0 50.5 4t31.5 15t18 37.5t4 63.5t-4 101h41l49 -506h-43q-6 47 -10 75t-10 57t-11 43.5 t-14 29.5t-17.5 21t-23.5 11t-30 6t-39 1h-183v-688h269q30 0 49.5 3t42 13.5t38 31t33 54.5t32 85.5t30 122.5t31.5 167h41l-54 -518h-811zM197 1681q0 52 36 86.5t89 34.5q54 0 89 -34t35 -87q0 -51 -35 -84.5t-89 -33.5q-53 0 -89 33.5t-36 84.5zM539 1681q0 52 36 86.5 t89 34.5q54 0 89 -34t35 -87q0 -51 -35 -84.5t-89 -33.5q-53 0 -89 33.5t-36 84.5z" />
<glyph unicode="&#xcc;" horiz-adv-x="505" d="M41 1636q0 32 11 57t34.5 42t68 11.5t103.5 -36.5l203 -108l-6 -27zM57 0v20q41 11 58 24t26 46.5t9 102.5v1048q0 69 -9 102t-26 46t-58 24v21h392v-21q-42 -11 -59 -24t-25.5 -45.5t-8.5 -102.5v-1048q0 -70 8.5 -102.5t25.5 -46t59 -24.5v-20h-392z" />
<glyph unicode="&#xcd;" horiz-adv-x="505" d="M47 1602l205 108q58 31 102 36.5t67.5 -11.5t34.5 -42t11 -57l-414 -61zM57 0v20q41 11 58 24t26 46.5t9 102.5v1048q0 69 -9 102t-26 46t-58 24v21h392v-21q-42 -11 -59 -24t-25.5 -45.5t-8.5 -102.5v-1048q0 -70 8.5 -102.5t25.5 -46t59 -24.5v-20h-392z" />
<glyph unicode="&#xce;" horiz-adv-x="505" d="M-6 1571l174 205q37 45 84 45t84 -45l174 -205l-27 -27l-231 150l-229 -150zM57 0v20q41 11 58 24t26 46.5t9 102.5v1048q0 69 -9 102t-26 46t-58 24v21h392v-21q-42 -11 -59 -24t-25.5 -45.5t-8.5 -102.5v-1048q0 -70 8.5 -102.5t25.5 -46t59 -24.5v-20h-392z" />
<glyph unicode="&#xcf;" horiz-adv-x="505" d="M-43 1690q0 52 36 86t89 34q54 0 89.5 -34t35.5 -86q0 -51 -35.5 -85t-89.5 -34q-53 0 -89 34t-36 85zM57 0v20q41 11 58 24t26 46.5t9 102.5v1048q0 69 -9 102t-26 46t-58 24v21h392v-21q-42 -11 -59 -24t-25.5 -45.5t-8.5 -102.5v-1048q0 -70 8.5 -102.5t25.5 -46 t59 -24.5v-20h-392zM299 1690q0 52 36 86t89 34q54 0 89.5 -34t35.5 -86q0 -51 -35.5 -85t-89.5 -34q-53 0 -89 34t-36 85z" />
<glyph unicode="&#xd0;" horiz-adv-x="1171" d="M55 696v41h95v504q0 69 -9 102t-26 46t-58 24v21h121q67 2 172 14t162 12q59 0 113 -10.5t108.5 -35.5t100.5 -63.5t86.5 -98t68.5 -135.5t44 -179.5t16 -226.5q0 -170 -31 -302t-81.5 -212.5t-122 -132.5t-145 -71.5t-157.5 -19.5q-56 0 -161.5 12.5t-172.5 14.5h-121 v20q41 11 58 24t26 46.5t9 102.5v503h-95zM356 31q81 -17 129 -17q73 0 130.5 37.5t101.5 117.5t68 217t24 325q0 189 -24 327.5t-68 220.5t-101.5 121t-130.5 39q-49 0 -129 -14v-668h228v-41h-228v-665z" />
<glyph unicode="&#xd1;" horiz-adv-x="1093" d="M53 1413v21h330l557 -1104v911q0 69 -8.5 102t-25.5 46t-58 24v21h225v-21q-42 -11 -59 -24t-25 -45.5t-8 -102.5v-1241h-107l-661 1264l-25 43v-1114q0 -70 8.5 -102.5t25.5 -46t59 -24.5v-20h-226v20q41 11 58 24.5t25.5 46.5t8.5 102v1169q-14 14 -32 24.5t-27 14 t-35 12.5zM252 1657q16 45 32 78t39.5 67.5t54.5 53t68 18.5q35 0 70.5 -19t59.5 -41.5t56 -41.5t62 -19q36 0 60 22.5t51 77.5l37 -16q-22 -91 -67 -154t-116 -63q-37 0 -72.5 19t-59 41.5t-55 41.5t-60.5 19q-72 0 -123 -101z" />
<glyph unicode="&#xd2;" d="M47 717q0 154 29.5 280t79.5 211t118.5 143t145.5 84.5t162 26.5t161.5 -26t145.5 -84t119 -143t79 -211.5t29 -280.5q0 -155 -29 -281t-78.5 -211t-118 -143.5t-145.5 -84.5t-163 -26q-85 0 -162 26.5t-145.5 84.5t-118.5 143.5t-79.5 211.5t-29.5 280zM287 717 q0 -703 295 -703q297 0 297 703q0 704 -297 704q-295 0 -295 -704zM369 1628q0 32 11 57t34.5 42t68 11.5t103.5 -36.5l202 -109l-6 -26z" />
<glyph unicode="&#xd3;" d="M47 717q0 154 29.5 280t79.5 211t118.5 143t145.5 84.5t162 26.5t161.5 -26t145.5 -84t119 -143t79 -211.5t29 -280.5q0 -155 -29 -281t-78.5 -211t-118 -143.5t-145.5 -84.5t-163 -26q-85 0 -162 26.5t-145.5 84.5t-118.5 143.5t-79.5 211.5t-29.5 280zM287 717 q0 -703 295 -703q297 0 297 703q0 704 -297 704q-295 0 -295 -704zM375 1593l205 109q58 31 102 36.5t67.5 -11.5t34.5 -42t11 -57l-414 -61z" />
<glyph unicode="&#xd4;" d="M47 717q0 154 29.5 280t79.5 211t118.5 143t145.5 84.5t162 26.5t161.5 -26t145.5 -84t119 -143t79 -211.5t29 -280.5q0 -155 -29 -281t-78.5 -211t-118 -143.5t-145.5 -84.5t-163 -26q-85 0 -162 26.5t-145.5 84.5t-118.5 143.5t-79.5 211.5t-29.5 280zM287 717 q0 -703 295 -703q297 0 297 703q0 704 -297 704q-295 0 -295 -704zM324 1563l172 204q37 45 84 45t84 -45l174 -204l-27 -27l-231 150l-230 -150z" />
<glyph unicode="&#xd5;" d="M47 717q0 154 29.5 280t79.5 211t118.5 143t145.5 84.5t162 26.5t161.5 -26t145.5 -84t119 -143t79 -211.5t29 -280.5q0 -155 -29 -281t-78.5 -211t-118 -143.5t-145.5 -84.5t-163 -26q-85 0 -162 26.5t-145.5 84.5t-118.5 143.5t-79.5 211.5t-29.5 280zM287 717 q0 -703 295 -703q297 0 297 703q0 704 -297 704q-295 0 -295 -704zM287 1616q16 45 32 78t39.5 67.5t54.5 53t68 18.5q35 0 70.5 -19t59.5 -41.5t56 -41.5t62 -19q36 0 60 22.5t51 77.5l37 -16q-22 -91 -67 -154t-116 -63q-37 0 -72.5 19t-59.5 41.5t-55.5 41.5t-60.5 19 q-72 0 -122 -101z" />
<glyph unicode="&#xd6;" d="M47 717q0 154 29.5 280t79.5 211t118.5 143t145.5 84.5t162 26.5t161.5 -26t145.5 -84t119 -143t79 -211.5t29 -280.5q0 -155 -29 -281t-78.5 -211t-118 -143.5t-145.5 -84.5t-163 -26q-85 0 -162 26.5t-145.5 84.5t-118.5 143.5t-79.5 211.5t-29.5 280zM287 717 q0 -703 295 -703q297 0 297 703q0 704 -297 704q-295 0 -295 -704zM287 1681q0 52 36 86.5t89 34.5q54 0 89.5 -34.5t35.5 -86.5q0 -51 -35.5 -84.5t-89.5 -33.5q-53 0 -89 33.5t-36 84.5zM629 1681q0 52 36 86.5t89 34.5q54 0 89.5 -34.5t35.5 -86.5q0 -51 -35.5 -84.5 t-89.5 -33.5q-53 0 -89 33.5t-36 84.5z" />
<glyph unicode="&#xd7;" horiz-adv-x="567" d="M102 274l158 240l-156 238h50l131 -201l131 201h49l-156 -238l156 -240h-49l-131 203l-133 -203h-50z" />
<glyph unicode="&#xd8;" d="M47 717q0 154 29.5 280t79.5 211t118.5 143t145.5 84.5t162 26.5q68 0 125 -14l36 190h43l-41 -202q108 -39 188.5 -124.5t131.5 -238.5t51 -356q0 -155 -29 -281t-78.5 -211t-118 -143.5t-145.5 -84.5t-163 -26q-62 0 -123 15l-37 -191h-43l41 203q-109 39 -190 124.5 t-132 238.5t-51 356zM287 717q0 -499 147 -643l260 1317q-53 30 -112 30q-295 0 -295 -704zM471 45q51 -31 111 -31q297 0 297 703q0 498 -148 643z" />
<glyph unicode="&#xd9;" horiz-adv-x="1107" d="M43 1413v21h391v-21q-42 -11 -59 -24t-25 -45.5t-8 -102.5v-799q0 -198 72 -291.5t215 -93.5t224 95.5t81 277.5v811q0 69 -8.5 102t-25.5 46t-58 24v21h225v-21q-42 -11 -59 -24t-25 -45.5t-8 -102.5v-819q0 -215 -100 -333t-297 -118q-95 0 -173.5 28t-140 84.5 t-95.5 152t-34 221.5v784q0 69 -8.5 102t-25.5 46t-58 24zM365 1628q0 32 11 57t34.5 42t68 11.5t103.5 -36.5l202 -109l-6 -26z" />
<glyph unicode="&#xda;" horiz-adv-x="1107" d="M43 1413v21h391v-21q-42 -11 -59 -24t-25 -45.5t-8 -102.5v-799q0 -198 72 -291.5t215 -93.5t224 95.5t81 277.5v811q0 69 -8.5 102t-25.5 46t-58 24v21h225v-21q-42 -11 -59 -24t-25 -45.5t-8 -102.5v-819q0 -215 -100 -333t-297 -118q-95 0 -173.5 28t-140 84.5 t-95.5 152t-34 221.5v784q0 69 -8.5 102t-25.5 46t-58 24zM371 1593l204 109q58 31 102 36.5t68 -11.5t35 -42t11 -57l-414 -61z" />
<glyph unicode="&#xdb;" horiz-adv-x="1107" d="M43 1413v21h391v-21q-42 -11 -59 -24t-25 -45.5t-8 -102.5v-799q0 -198 72 -291.5t215 -93.5t224 95.5t81 277.5v811q0 69 -8.5 102t-25.5 46t-58 24v21h225v-21q-42 -11 -59 -24t-25 -45.5t-8 -102.5v-819q0 -215 -100 -333t-297 -118q-95 0 -173.5 28t-140 84.5 t-95.5 152t-34 221.5v784q0 69 -8.5 102t-25.5 46t-58 24zM319 1563l173 204q37 45 83 45q47 0 84 -45l175 -204l-27 -27l-232 150l-229 -150z" />
<glyph unicode="&#xdc;" horiz-adv-x="1107" d="M43 1413v21h391v-21q-42 -11 -59 -24t-25 -45.5t-8 -102.5v-799q0 -198 72 -291.5t215 -93.5t224 95.5t81 277.5v811q0 69 -8.5 102t-25.5 46t-58 24v21h225v-21q-42 -11 -59 -24t-25 -45.5t-8 -102.5v-819q0 -215 -100 -333t-297 -118q-95 0 -173.5 28t-140 84.5 t-95.5 152t-34 221.5v784q0 69 -8.5 102t-25.5 46t-58 24zM283 1681q0 52 36 86.5t89 34.5q54 0 89 -34t35 -87q0 -51 -35 -84.5t-89 -33.5q-53 0 -89 33.5t-36 84.5zM625 1681q0 52 36 86.5t89 34.5q54 0 89 -34t35 -87q0 -51 -35 -84.5t-89 -33.5q-53 0 -89 33.5t-36 84.5 z" />
<glyph unicode="&#xdd;" horiz-adv-x="1112" d="M23 1413v21h464v-21q-34 -7 -50 -13t-27 -14t-8.5 -27t9.5 -40t25 -64l236 -565l215 563q16 43 22 65t8 40.5t-10 27.5t-28 14.5t-50 12.5v21h263v-21q-35 -9 -51.5 -15.5t-38 -23t-37.5 -45.5t-33 -76l-240 -639v-421q0 -70 8 -102.5t25.5 -46t58.5 -24.5v-20h-393v20 q41 11 58.5 24.5t25.5 46t8 102.5v372l-295 692q-36 86 -68 112.5t-97 43.5zM424 1593l205 109q58 31 102 36.5t67.5 -11.5t34.5 -42t11 -57l-414 -61z" />
<glyph unicode="&#xde;" horiz-adv-x="978" d="M57 0v20q41 11 58 24t26 46.5t9 102.5v1048q0 69 -9 102t-26 46t-58 24v21h392v-21q-42 -11 -59 -24t-25.5 -45.5t-8.5 -102.5v-84q16 3 46 8.5t44 8t37.5 4.5t46.5 2q59 0 114.5 -14.5t110.5 -49t96 -86t66 -132.5t25 -181t-25 -180.5t-66 -131.5t-96 -85.5t-110.5 -49 t-114.5 -14.5t-174 23v-86q0 -70 8.5 -102.5t25.5 -46t59 -24.5v-20h-392zM356 322q67 -25 123 -25q230 0 230 420q0 422 -230 422q-56 0 -123 -25v-792z" />
<glyph unicode="&#xdf;" horiz-adv-x="1064" d="M41 999v25h94q2 120 32.5 207.5t83.5 136.5t117.5 71.5t143.5 22.5q157 0 235 -96.5t78 -273.5q-128 -36 -185.5 -86t-57.5 -132q0 -45 24.5 -86t63.5 -75t86 -68.5t94 -74.5t86 -85.5t63.5 -108.5t24.5 -136q0 -70 -24 -123.5t-65 -84.5t-90 -46t-104 -15 q-62 0 -133 17.5t-114 17.5l-43 408h41q36 -166 67 -252t61.5 -115t77.5 -29q99 0 99 156q0 90 -30 170t-72.5 138.5t-84.5 113.5t-72 118.5t-30 129.5q0 52 16 93.5t45.5 71.5t56.5 48t64 37q0 170 -37.5 248.5t-132.5 78.5q-55 0 -92 -24t-56 -72t-26.5 -105t-7.5 -139 v-1081h-295v20q41 11 58 24.5t25.5 46.5t8.5 102v702q0 59 -24 81.5t-70 22.5z" />
<glyph unicode="&#xe0;" horiz-adv-x="1054" d="M61 389q0 204 104 309t269 105q183 0 273 -154v47q0 178 -43.5 247t-149.5 69q-87 0 -180 -47.5t-176 -159.5h-43l108 211q49 0 152.5 18.5t165.5 18.5q176 0 273 -89t97 -272v-475v-59t4.5 -37.5t9 -24t19 -7t29.5 1.5t45 13l8 -16l-154 -82q-68 -33 -96 -33 q-69 0 -69 97v57q-44 -74 -114.5 -115t-160.5 -41q-78 0 -144.5 25.5t-117.5 75.5t-80 131t-29 186zM289 389q0 -161 56.5 -250.5t150.5 -89.5q93 0 152 88t59 252q0 163 -58.5 250.5t-150.5 87.5q-96 0 -152.5 -88.5t-56.5 -249.5zM313 1260q0 32 11 57t34.5 41.5t68 11 t103.5 -36.5l203 -108l-6 -27z" />
<glyph unicode="&#xe1;" horiz-adv-x="1054" d="M61 389q0 204 104 309t269 105q183 0 273 -154v47q0 178 -43.5 247t-149.5 69q-87 0 -180 -47.5t-176 -159.5h-43l108 211q49 0 152.5 18.5t165.5 18.5q176 0 273 -89t97 -272v-475v-59t4.5 -37.5t9 -24t19 -7t29.5 1.5t45 13l8 -16l-154 -82q-68 -33 -96 -33 q-69 0 -69 97v57q-44 -74 -114.5 -115t-160.5 -41q-78 0 -144.5 25.5t-117.5 75.5t-80 131t-29 186zM289 389q0 -161 56.5 -250.5t150.5 -89.5q93 0 152 88t59 252q0 163 -58.5 250.5t-150.5 87.5q-96 0 -152.5 -88.5t-56.5 -249.5zM319 1225l205 108q58 31 102 36.5 t67.5 -11t34.5 -41.5t11 -57l-413 -62z" />
<glyph unicode="&#xe2;" horiz-adv-x="1054" d="M61 389q0 204 104 309t269 105q183 0 273 -154v47q0 178 -43.5 247t-149.5 69q-87 0 -180 -47.5t-176 -159.5h-43l108 211q49 0 152.5 18.5t165.5 18.5q176 0 273 -89t97 -272v-475v-59t4.5 -37.5t9 -24t19 -7t29.5 1.5t45 13l8 -16l-154 -82q-68 -33 -96 -33 q-69 0 -69 97v57q-44 -74 -114.5 -115t-160.5 -41q-78 0 -144.5 25.5t-117.5 75.5t-80 131t-29 186zM268 1194l172 205q37 45 84 45t84 -45l174 -205l-26 -27l-232 150l-229 -150zM289 389q0 -161 56.5 -250.5t150.5 -89.5q93 0 152 88t59 252q0 163 -58.5 250.5 t-150.5 87.5q-96 0 -152.5 -88.5t-56.5 -249.5z" />
<glyph unicode="&#xe3;" horiz-adv-x="1054" d="M61 389q0 204 104 309t269 105q183 0 273 -154v47q0 178 -43.5 247t-149.5 69q-87 0 -180 -47.5t-176 -159.5h-43l108 211q49 0 152.5 18.5t165.5 18.5q176 0 273 -89t97 -272v-475v-59t4.5 -37.5t9 -24t19 -7t29.5 1.5t45 13l8 -16l-154 -82q-68 -33 -96 -33 q-69 0 -69 97v57q-44 -74 -114.5 -115t-160.5 -41q-78 0 -144.5 25.5t-117.5 75.5t-80 131t-29 186zM231 1247q16 45 32 78t39.5 67.5t55 53t68.5 18.5q36 0 71 -19t59 -41.5t56 -41.5t62 -19q35 0 58.5 23t51.5 78l37 -17q-14 -58 -35 -103t-59.5 -79.5t-87.5 -34.5 q-37 0 -72.5 19t-59.5 41.5t-55.5 41.5t-60.5 19q-73 0 -123 -100zM289 389q0 -161 56.5 -250.5t150.5 -89.5q93 0 152 88t59 252q0 163 -58.5 250.5t-150.5 87.5q-96 0 -152.5 -88.5t-56.5 -249.5z" />
<glyph unicode="&#xe4;" horiz-adv-x="1054" d="M61 389q0 204 104 309t269 105q183 0 273 -154v47q0 178 -43.5 247t-149.5 69q-87 0 -180 -47.5t-176 -159.5h-43l108 211q49 0 152.5 18.5t165.5 18.5q176 0 273 -89t97 -272v-475v-59t4.5 -37.5t9 -24t19 -7t29.5 1.5t45 13l8 -16l-154 -82q-68 -33 -96 -33 q-69 0 -69 97v57q-44 -74 -114.5 -115t-160.5 -41q-78 0 -144.5 25.5t-117.5 75.5t-80 131t-29 186zM231 1313q0 52 36 86.5t89 34.5q54 0 89.5 -34.5t35.5 -86.5q0 -51 -35.5 -85t-89.5 -34q-53 0 -89 34t-36 85zM289 389q0 -161 56.5 -250.5t150.5 -89.5q93 0 152 88 t59 252q0 163 -58.5 250.5t-150.5 87.5q-96 0 -152.5 -88.5t-56.5 -249.5zM573 1313q0 52 36 86.5t89 34.5q54 0 89.5 -34.5t35.5 -86.5q0 -51 -35.5 -85t-89.5 -34q-53 0 -89 34t-36 85z" />
<glyph unicode="&#xe5;" horiz-adv-x="1054" d="M61 389q0 204 104 309t269 105q183 0 273 -154v47q0 178 -43.5 247t-149.5 69q-87 0 -180 -47.5t-176 -159.5h-43l108 211q49 0 152.5 18.5t165.5 18.5q176 0 273 -89t97 -272v-475v-59t4.5 -37.5t9 -24t19 -7t29.5 1.5t45 13l8 -16l-154 -82q-68 -33 -96 -33 q-69 0 -69 97v57q-44 -74 -114.5 -115t-160.5 -41q-78 0 -144.5 25.5t-117.5 75.5t-80 131t-29 186zM289 389q0 -161 56.5 -250.5t150.5 -89.5q93 0 152 88t59 252q0 163 -58.5 250.5t-150.5 87.5q-96 0 -152.5 -88.5t-56.5 -249.5zM360 1311q0 65 47.5 110t120.5 45 q72 0 120 -45t48 -110t-48.5 -110.5t-119.5 -45.5q-73 0 -120.5 45.5t-47.5 110.5zM401 1311q0 -49 35.5 -83t91.5 -34q53 0 89 34.5t36 82.5t-36 82t-89 34q-56 0 -91.5 -34t-35.5 -82z" />
<glyph unicode="&#xe6;" horiz-adv-x="1538" d="M61 381q0 110 34.5 196t91.5 136.5t125 76t141 25.5q156 0 229 -143v24q0 176 -41 246t-135 70q-181 0 -348 -197h-41l121 201q46 0 144.5 18.5t166.5 18.5q186 0 268 -127q115 127 293 127q156 0 251 -105t95 -299h-547v-53q0 -113 15 -205.5t46.5 -165t85.5 -113 t126 -40.5q187 0 278 307l39 -10q-31 -113 -73.5 -192t-94.5 -123t-107.5 -63.5t-121.5 -19.5q-115 0 -203.5 51t-142.5 148q-56 -99 -136.5 -148t-201.5 -49q-71 0 -133 22t-113.5 68.5t-81 127.5t-29.5 190zM287 414q0 -168 55 -261.5t152 -93.5q72 0 130.5 36.5 t108.5 123.5q-53 121 -53 297v23q-10 101 -65.5 155t-125.5 54q-56 0 -96 -23.5t-63 -69t-33 -104t-10 -137.5zM911 690h338q0 168 -36.5 245t-108.5 77q-170 0 -193 -322z" />
<glyph unicode="&#xe7;" horiz-adv-x="911" d="M61 520q0 242 122.5 387.5t322.5 145.5q55 0 135 -17.5t123 -17.5l53 -356h-41q-20 87 -44.5 151t-48 101.5t-51 60t-52 30t-54.5 7.5q-116 0 -174.5 -124.5t-58.5 -328.5q0 -99 14.5 -183t44.5 -154t83 -110t124 -40q184 0 272 307l39 -10q-57 -209 -150 -300.5 t-222 -97.5l-29 -71q105 -11 163 -55t58 -119q0 -71 -53 -107.5t-131 -36.5q-33 0 -76.5 9.5t-77.5 9.5l-30 200h40q23 -107 50.5 -144.5t64.5 -37.5q33 0 50.5 23.5t17.5 62.5q0 58 -30.5 107.5t-90.5 68.5v21l31 69q-185 9 -289.5 152.5t-104.5 396.5z" />
<glyph unicode="&#xe8;" horiz-adv-x="919" d="M61 516q0 244 120 390.5t311 146.5q156 0 251 -105t95 -299h-547v-53q0 -153 25.5 -266.5t88 -185.5t158.5 -72q188 0 279 307l39 -10q-31 -113 -73.5 -192t-94.5 -123t-108 -63.5t-122 -19.5q-197 0 -309.5 143t-112.5 402zM281 1260q0 32 11 57t34.5 41.5t68 11 t103.5 -36.5l202 -108l-6 -27zM293 690h338q0 168 -37 245t-109 77q-169 0 -192 -322z" />
<glyph unicode="&#xe9;" horiz-adv-x="919" d="M61 516q0 244 120 390.5t311 146.5q156 0 251 -105t95 -299h-547v-53q0 -153 25.5 -266.5t88 -185.5t158.5 -72q188 0 279 307l39 -10q-31 -113 -73.5 -192t-94.5 -123t-108 -63.5t-122 -19.5q-197 0 -309.5 143t-112.5 402zM287 1225l205 108q58 31 102 36.5t67.5 -11 t34.5 -41.5t11 -57l-414 -62zM293 690h338q0 168 -37 245t-109 77q-169 0 -192 -322z" />
<glyph unicode="&#xea;" horiz-adv-x="919" d="M61 516q0 244 120 390.5t311 146.5q156 0 251 -105t95 -299h-547v-53q0 -153 25.5 -266.5t88 -185.5t158.5 -72q188 0 279 307l39 -10q-31 -113 -73.5 -192t-94.5 -123t-108 -63.5t-122 -19.5q-197 0 -309.5 143t-112.5 402zM236 1194l172 205q37 45 84 45q46 0 83 -45 l175 -205l-27 -27l-231 150l-230 -150zM293 690h338q0 168 -37 245t-109 77q-169 0 -192 -322z" />
<glyph unicode="&#xeb;" horiz-adv-x="919" d="M61 516q0 244 120 390.5t311 146.5q156 0 251 -105t95 -299h-547v-53q0 -153 25.5 -266.5t88 -185.5t158.5 -72q188 0 279 307l39 -10q-31 -113 -73.5 -192t-94.5 -123t-108 -63.5t-122 -19.5q-197 0 -309.5 143t-112.5 402zM199 1313q0 52 36 86.5t89 34.5 q54 0 89.5 -34.5t35.5 -86.5q0 -51 -35.5 -85t-89.5 -34q-53 0 -89 34t-36 85zM293 690h338q0 168 -37 245t-109 77q-169 0 -192 -322zM541 1313q0 52 36 86.5t89 34.5q54 0 89.5 -34.5t35.5 -86.5q0 -51 -35.5 -85t-89.5 -34q-53 0 -89 34t-36 85z" />
<glyph unicode="&#xec;" horiz-adv-x="471" d="M4 1260q0 32 11 57t34.5 41.5t68 11t103.5 -36.5l203 -108l-6 -27zM35 0v20q44 11 62 24.5t27 46t9 102.5v604q0 70 -9 102.5t-27 45.5t-62 24v20h129q100 3 153 64h21v-860q0 -70 9 -102.5t27 -46t62 -24.5v-20h-401z" />
<glyph unicode="&#xed;" horiz-adv-x="471" d="M10 1225l205 108q58 31 102 36.5t67.5 -11t34.5 -41.5t11 -57l-414 -62zM35 0v20q44 11 62 24.5t27 46t9 102.5v604q0 70 -9 102.5t-27 45.5t-62 24v20h129q100 3 153 64h21v-860q0 -70 9 -102.5t27 -46t62 -24.5v-20h-401z" />
<glyph unicode="&#xee;" horiz-adv-x="471" d="M-43 1194l174 205q37 45 84 45t84 -45l174 -205l-27 -27l-231 150l-231 -150zM35 0v20q44 11 62 24.5t27 46t9 102.5v604q0 70 -9 102.5t-27 45.5t-62 24v20h129q100 3 153 64h21v-860q0 -70 9 -102.5t27 -46t62 -24.5v-20h-401z" />
<glyph unicode="&#xef;" horiz-adv-x="471" d="M-80 1313q0 52 36 86.5t89 34.5q54 0 89.5 -34.5t35.5 -86.5q0 -51 -35.5 -85t-89.5 -34q-53 0 -89 34t-36 85zM35 0v20q44 11 62 24.5t27 46t9 102.5v604q0 70 -9 102.5t-27 45.5t-62 24v20h129q100 3 153 64h21v-860q0 -70 9 -102.5t27 -46t62 -24.5v-20h-401z M262 1313q0 52 36 86.5t89 34.5q54 0 89.5 -34.5t35.5 -86.5q0 -51 -35.5 -85t-89.5 -34q-53 0 -89 34t-36 85z" />
<glyph unicode="&#xf0;" horiz-adv-x="956" d="M57 528q0 114 22 206t57.5 150t82.5 97.5t94 55.5t95 16q136 0 233 -111q-37 215 -152 377l-172 -125l-24 31l172 127q-81 98 -186 168l14 36q116 -65 237 -157l197 145l25 -33l-191 -139q168 -141 252 -322t84 -432q0 -108 -15 -199t-40 -156t-59.5 -116.5t-72.5 -84 t-81 -53.5t-82 -29.5t-78 -8.5q-82 0 -154.5 32.5t-131 97.5t-92.5 175t-34 252zM289 496q0 -243 49.5 -362.5t134.5 -119.5q59 0 100.5 57.5t67 193.5t25.5 345q0 138 -15 273q-53 56 -90.5 77t-81.5 21q-84 0 -137 -119t-53 -366z" />
<glyph unicode="&#xf1;" horiz-adv-x="1048" d="M31 0v20q45 11 63.5 24.5t27.5 46t9 102.5v604q0 70 -9 102.5t-27.5 45.5t-63.5 24v20h131q98 3 151 64h21v-162q158 162 315 162q264 0 264 -303v-557q0 -69 9 -102t27.5 -46.5t62.5 -24.5v-20h-402v20q45 11 64 24.5t28 46.5t9 102v606q0 180 -127 180 q-111 0 -250 -139v-647q0 -70 9 -102.5t27 -46t62 -24.5v-20h-401zM227 1247q16 45 32 78t39.5 67.5t55 53t68.5 18.5q36 0 71 -19t59 -41.5t56 -41.5t62 -19q35 0 58.5 23t51.5 78l37 -17q-14 -58 -35 -103t-59.5 -79.5t-87.5 -34.5q-37 0 -72.5 19t-59.5 41.5t-55.5 41.5 t-60.5 19q-73 0 -123 -100z" />
<glyph unicode="&#xf2;" horiz-adv-x="1032" d="M57 512q0 263 121.5 402t337.5 139t337.5 -138.5t121.5 -402.5q0 -263 -121.5 -402t-337.5 -139t-337.5 139t-121.5 402zM289 512q0 -256 53.5 -377t173.5 -121t173.5 121t53.5 377t-53.5 378t-173.5 122t-173.5 -122t-53.5 -378zM303 1260q0 32 11 57t34.5 41.5t68 11 t103.5 -36.5l203 -108l-6 -27z" />
<glyph unicode="&#xf3;" horiz-adv-x="1032" d="M57 512q0 263 121.5 402t337.5 139t337.5 -138.5t121.5 -402.5q0 -263 -121.5 -402t-337.5 -139t-337.5 139t-121.5 402zM289 512q0 -256 53.5 -377t173.5 -121t173.5 121t53.5 377t-53.5 378t-173.5 122t-173.5 -122t-53.5 -378zM309 1225l205 108q58 31 102 36.5 t67.5 -11t34.5 -41.5t11 -57l-414 -62z" />
<glyph unicode="&#xf4;" horiz-adv-x="1032" d="M57 512q0 263 121.5 402t337.5 139t337.5 -138.5t121.5 -402.5q0 -263 -121.5 -402t-337.5 -139t-337.5 139t-121.5 402zM258 1194l172 205q37 45 84 45t84 -45l174 -205l-27 -27l-231 150l-229 -150zM289 512q0 -256 53.5 -377t173.5 -121t173.5 121t53.5 377t-53.5 378 t-173.5 122t-173.5 -122t-53.5 -378z" />
<glyph unicode="&#xf5;" horiz-adv-x="1032" d="M57 512q0 263 121.5 402t337.5 139t337.5 -138.5t121.5 -402.5q0 -263 -121.5 -402t-337.5 -139t-337.5 139t-121.5 402zM219 1247q16 45 32 78t39.5 67.5t55 53t68.5 18.5q36 0 71 -19t59 -41.5t56 -41.5t62 -19q35 0 58.5 23t51.5 78l37 -17q-14 -58 -35 -103 t-59.5 -79.5t-87.5 -34.5q-37 0 -72.5 19t-59.5 41.5t-55.5 41.5t-60.5 19q-73 0 -123 -100zM289 512q0 -256 53.5 -377t173.5 -121t173.5 121t53.5 377t-53.5 378t-173.5 122t-173.5 -122t-53.5 -378z" />
<glyph unicode="&#xf6;" horiz-adv-x="1032" d="M57 512q0 263 121.5 402t337.5 139t337.5 -138.5t121.5 -402.5q0 -263 -121.5 -402t-337.5 -139t-337.5 139t-121.5 402zM219 1313q0 52 36 86.5t89 34.5q54 0 89.5 -34.5t35.5 -86.5q0 -51 -35.5 -85t-89.5 -34q-53 0 -89 34t-36 85zM289 512q0 -256 53.5 -377 t173.5 -121t173.5 121t53.5 377t-53.5 378t-173.5 122t-173.5 -122t-53.5 -378zM561 1313q0 52 36 86.5t89 34.5q54 0 89.5 -34.5t35.5 -86.5q0 -51 -35.5 -85t-89.5 -34q-53 0 -89 34t-36 85z" />
<glyph unicode="&#xf7;" horiz-adv-x="739" d="M102 492v40h555v-40h-555zM303 287q0 29 20 50t48 21q26 0 45.5 -21t19.5 -50t-19.5 -50.5t-45.5 -21.5q-28 0 -48 21.5t-20 50.5zM303 737q0 29 20 50.5t48 21.5q26 0 45.5 -21.5t19.5 -50.5t-19.5 -50t-45.5 -21q-28 0 -48 21t-20 50z" />
<glyph unicode="&#xf8;" horiz-adv-x="1032" d="M57 512q0 263 121.5 402t337.5 139q49 0 113 -11l49 187h43l-51 -197q145 -44 225 -175.5t80 -344.5q0 -263 -121.5 -402t-337.5 -139q-57 0 -117 13l-49 -189h-43l51 199q-144 45 -222.5 176.5t-78.5 341.5zM289 512q0 -330 90 -436l235 909q-41 27 -98 27 q-120 0 -173.5 -122t-53.5 -378zM414 43q47 -29 102 -29q120 0 173.5 121t53.5 377q0 334 -94 442z" />
<glyph unicode="&#xf9;" horiz-adv-x="1052" d="M35 973v20h131q102 3 153 62h21v-832q0 -180 127 -180q114 0 248 137v621q0 69 -9 102t-27.5 46t-62.5 24v20h129q100 3 154 62h21v-824q0 -100 17 -128.5t81 -43.5v-20h-131q-100 -7 -152 -64h-20v156q-154 -162 -314 -162q-266 0 -266 303v529q0 70 -9 102.5 t-27.5 45.5t-63.5 24zM313 1260q0 32 11 57t34.5 41.5t68 11t103.5 -36.5l203 -108l-6 -27z" />
<glyph unicode="&#xfa;" horiz-adv-x="1052" d="M35 973v20h131q102 3 153 62h21v-832q0 -180 127 -180q114 0 248 137v621q0 69 -9 102t-27.5 46t-62.5 24v20h129q100 3 154 62h21v-824q0 -100 17 -128.5t81 -43.5v-20h-131q-100 -7 -152 -64h-20v156q-154 -162 -314 -162q-266 0 -266 303v529q0 70 -9 102.5 t-27.5 45.5t-63.5 24zM319 1225l205 108q58 31 102 36.5t67.5 -11t34.5 -41.5t11 -57l-413 -62z" />
<glyph unicode="&#xfb;" horiz-adv-x="1052" d="M35 973v20h131q102 3 153 62h21v-832q0 -180 127 -180q114 0 248 137v621q0 69 -9 102t-27.5 46t-62.5 24v20h129q100 3 154 62h21v-824q0 -100 17 -128.5t81 -43.5v-20h-131q-100 -7 -152 -64h-20v156q-154 -162 -314 -162q-266 0 -266 303v529q0 70 -9 102.5 t-27.5 45.5t-63.5 24zM268 1194l172 205q37 45 84 45t84 -45l174 -205l-26 -27l-232 150l-229 -150z" />
<glyph unicode="&#xfc;" horiz-adv-x="1052" d="M35 973v20h131q102 3 153 62h21v-832q0 -180 127 -180q114 0 248 137v621q0 69 -9 102t-27.5 46t-62.5 24v20h129q100 3 154 62h21v-824q0 -100 17 -128.5t81 -43.5v-20h-131q-100 -7 -152 -64h-20v156q-154 -162 -314 -162q-266 0 -266 303v529q0 70 -9 102.5 t-27.5 45.5t-63.5 24zM229 1313q0 52 36 86.5t89 34.5q54 0 89.5 -34.5t35.5 -86.5q0 -51 -35.5 -85t-89.5 -34q-53 0 -89 34t-36 85zM571 1313q0 52 36 86.5t89 34.5q54 0 89.5 -34.5t35.5 -86.5q0 -51 -35.5 -85t-89.5 -34q-53 0 -89 34t-36 85z" />
<glyph unicode="&#xfd;" horiz-adv-x="1069" d="M23 1004v20h454v-20q-30 -6 -46.5 -10t-29.5 -12.5t-16.5 -17t-2 -27t8 -39t19.5 -56.5l229 -641l213 641q14 42 19 65t5.5 41.5t-12 27.5t-30.5 15t-54 13v20h269v-20q-34 -9 -51 -16t-37.5 -24t-35 -45.5t-30.5 -76.5l-336 -1014q-52 -152 -77 -196q-51 -75 -124 -78 q-34 0 -84 16t-86 16l-57 373h41q29 -120 53 -195t47 -111t42.5 -47.5t47.5 -11.5q48 0 78.5 48.5t73.5 181.5l49 147h-61l-322 873q-32 89 -62.5 116t-94.5 44zM401 1225l205 108q58 31 102 36.5t67.5 -11t34.5 -41.5t11 -57l-413 -62z" />
<glyph unicode="&#xfe;" horiz-adv-x="1028" d="M31 -389q45 11 63.5 24t27.5 45.5t9 102.5v1427q0 70 -9 102.5t-27.5 45.5t-63.5 24v21h131q50 2 85.5 14.5t65.5 46.5h21v-563q63 75 134 113.5t163 38.5q68 0 127 -30t106.5 -89t75 -159t27.5 -230q0 -131 -33.5 -241t-88.5 -181.5t-126 -111.5t-148 -40 q-82 0 -139 28.5t-98 90.5v-307q0 -70 9 -102.5t27 -45.5t62 -24v-21h-401v21zM334 360q1 -161 58.5 -245t133.5 -84q109 0 160 117t51 366q0 241 -49 349t-149 108q-48 0 -96.5 -26t-108.5 -91v-494z" />
<glyph unicode="&#xff;" horiz-adv-x="1069" d="M23 1004v20h454v-20q-30 -6 -46.5 -10t-29.5 -12.5t-16.5 -17t-2 -27t8 -39t19.5 -56.5l229 -641l213 641q14 42 19 65t5.5 41.5t-12 27.5t-30.5 15t-54 13v20h269v-20q-34 -9 -51 -16t-37.5 -24t-35 -45.5t-30.5 -76.5l-336 -1014q-52 -152 -77 -196q-51 -75 -124 -78 q-34 0 -84 16t-86 16l-57 373h41q29 -120 53 -195t47 -111t42.5 -47.5t47.5 -11.5q48 0 78.5 48.5t73.5 181.5l49 147h-61l-322 873q-32 89 -62.5 116t-94.5 44zM311 1313q0 52 36 86.5t89 34.5q54 0 89.5 -34.5t35.5 -86.5q0 -51 -35.5 -85t-89.5 -34q-53 0 -89 34t-36 85z M653 1313q0 52 36 86.5t89 34.5q54 0 89.5 -34.5t35.5 -86.5q0 -51 -35.5 -85t-89.5 -34q-53 0 -89 34t-36 85z" />
<glyph unicode="&#x152;" horiz-adv-x="1505" d="M47 717q0 195 40 341t112 233t164.5 129t205.5 42q59 0 161 -14t183 -14h467l54 -510h-41q-16 95 -30.5 164.5t-28.5 120.5t-31 84.5t-32 53.5t-38 30t-43 13t-51 3h-230v-623h189q28 0 44.5 2t30.5 11t20 22t9.5 39.5t2.5 60t-5 86.5h41l47 -506h-41q-7 49 -11 75 t-10 56.5t-10.5 44t-14 29.5t-18 21t-23.5 10.5t-30.5 6.5t-39.5 1h-181v-688h262q43 0 69 7t54 32.5t47.5 77.5t40.5 139t43 221h43l-55 -518h-500q-81 0 -183 -14.5t-161 -14.5q-90 0 -167 26t-143 83t-112.5 143t-73 211.5t-26.5 282.5zM287 717q0 -371 69 -537t215 -166 q82 0 131 39v1329q-49 39 -131 39q-147 0 -215.5 -166t-68.5 -538z" />
<glyph unicode="&#x153;" horiz-adv-x="1603" d="M57 512q0 263 121.5 402t337.5 139q226 0 346 -150q119 150 314 150q156 0 251 -105t95 -299h-547v-53q0 -153 25.5 -266.5t88 -185.5t158.5 -72q188 0 279 307l39 -10q-31 -113 -73.5 -192t-94.5 -123t-108 -63.5t-122 -19.5q-199 0 -309 144q-123 -144 -342 -144 q-216 0 -337.5 139t-121.5 402zM289 512q0 -256 53.5 -377t173.5 -121t173.5 121t53.5 377t-53.5 378t-173.5 122t-173.5 -122t-53.5 -378zM977 690h338q0 168 -37 245t-109 77q-169 0 -192 -322z" />
<glyph unicode="&#x178;" horiz-adv-x="1112" d="M23 1413v21h464v-21q-34 -7 -50 -13t-27 -14t-8.5 -27t9.5 -40t25 -64l236 -565l215 563q16 43 22 65t8 40.5t-10 27.5t-28 14.5t-50 12.5v21h263v-21q-35 -9 -51.5 -15.5t-38 -23t-37.5 -45.5t-33 -76l-240 -639v-421q0 -70 8 -102.5t25.5 -46t58.5 -24.5v-20h-393v20 q41 11 58.5 24.5t25.5 46t8 102.5v372l-295 692q-36 86 -68 112.5t-97 43.5zM336 1681q0 52 36 86.5t89 34.5q54 0 89.5 -34.5t35.5 -86.5q0 -51 -35.5 -84.5t-89.5 -33.5q-53 0 -89 33.5t-36 84.5zM678 1681q0 52 36 86.5t89 34.5q54 0 89.5 -34.5t35.5 -86.5 q0 -51 -35.5 -84.5t-89.5 -33.5q-53 0 -89 33.5t-36 84.5z" />
<glyph unicode="&#x2c6;" horiz-adv-x="718" d="M102 1194l172 205q37 45 84 45t84 -45l174 -205l-26 -27l-232 150l-229 -150z" />
<glyph unicode="&#x2dc;" horiz-adv-x="794" d="M102 1247q16 45 32 78t39.5 67.5t55 53t68.5 18.5q35 0 70.5 -19t59.5 -41.5t56 -41.5t62 -19q35 0 58.5 23t51.5 78l37 -17q-14 -58 -35 -103t-59.5 -79.5t-87.5 -34.5q-37 0 -72.5 19t-59.5 41.5t-55.5 41.5t-60.5 19q-73 0 -123 -100z" />
<glyph unicode="&#x2000;" horiz-adv-x="937" />
<glyph unicode="&#x2001;" horiz-adv-x="1874" />
<glyph unicode="&#x2002;" horiz-adv-x="937" />
<glyph unicode="&#x2003;" horiz-adv-x="1874" />
<glyph unicode="&#x2004;" horiz-adv-x="624" />
<glyph unicode="&#x2005;" horiz-adv-x="468" />
<glyph unicode="&#x2006;" horiz-adv-x="312" />
<glyph unicode="&#x2007;" horiz-adv-x="312" />
<glyph unicode="&#x2008;" horiz-adv-x="234" />
<glyph unicode="&#x2009;" horiz-adv-x="374" />
<glyph unicode="&#x200a;" horiz-adv-x="104" />
<glyph unicode="&#x2010;" horiz-adv-x="739" d="M61 492v40h617v-40h-617z" />
<glyph unicode="&#x2011;" horiz-adv-x="739" d="M61 492v40h617v-40h-617z" />
<glyph unicode="&#x2012;" horiz-adv-x="739" d="M61 492v40h617v-40h-617z" />
<glyph unicode="&#x2013;" horiz-adv-x="1044" d="M61 492v40h922v-40h-922z" />
<glyph unicode="&#x2014;" horiz-adv-x="1597" d="M61 492v40h1536v-40h-1536z" />
<glyph unicode="&#x2018;" horiz-adv-x="348" d="M55 1106q0 90 46.5 170t138.5 188l30 -28q-71 -92 -91.5 -126.5t-20.5 -64.5q0 -22 13.5 -37t33 -25t38.5 -21t32.5 -32t13.5 -51q0 -48 -33 -77t-80 -29q-54 0 -87.5 34.5t-33.5 98.5z" />
<glyph unicode="&#x2019;" horiz-adv-x="348" d="M57 1358q0 48 33 77t80 29q54 0 87.5 -34.5t33.5 -98.5q0 -90 -46.5 -170t-138.5 -188l-30 28q71 92 91.5 126.5t20.5 64.5q0 22 -13.5 37t-32.5 25t-38.5 21t-33 32t-13.5 51z" />
<glyph unicode="&#x201a;" horiz-adv-x="348" d="M57 113q0 48 33 77t80 29q54 0 87.5 -34.5t33.5 -98.5q0 -90 -46.5 -170t-138.5 -188l-30 28q71 92 91.5 126.5t20.5 64.5q0 22 -13.5 37t-32.5 25t-38.5 21t-33 32t-13.5 51z" />
<glyph unicode="&#x201c;" horiz-adv-x="651" d="M55 1106q0 90 46.5 170t138.5 188l30 -28q-71 -92 -91.5 -126.5t-20.5 -64.5q0 -22 13.5 -37t33 -25t38.5 -21t32.5 -32t13.5 -51q0 -48 -33 -77t-80 -29q-54 0 -87.5 34.5t-33.5 98.5zM358 1106q0 90 46.5 170t138.5 188l30 -28q-71 -92 -91.5 -126.5t-20.5 -64.5 q0 -22 13.5 -37t32.5 -25t38.5 -21t33 -32t13.5 -51q0 -48 -33 -77t-80 -29q-54 0 -87.5 34.5t-33.5 98.5z" />
<glyph unicode="&#x201d;" horiz-adv-x="653" d="M57 1358q0 48 33 77t80 29q54 0 87.5 -34.5t33.5 -98.5q0 -90 -46.5 -170t-138.5 -188l-30 28q71 92 91.5 126.5t20.5 64.5q0 22 -13.5 37t-32.5 25t-38.5 21t-33 32t-13.5 51zM365 1358q0 48 32.5 77t79.5 29q54 0 87.5 -34.5t33.5 -98.5q0 -90 -46 -170.5t-138 -187.5 l-31 28q72 93 92.5 127t20.5 64q0 22 -13.5 37t-33 25t-38.5 21t-32.5 32t-13.5 51z" />
<glyph unicode="&#x201e;" horiz-adv-x="675" d="M57 113q0 48 33 77t80 29q54 0 87.5 -34.5t33.5 -98.5q0 -90 -46.5 -170t-138.5 -188l-30 28q71 92 91.5 126.5t20.5 64.5q0 22 -13.5 37t-32.5 25t-38.5 21t-33 32t-13.5 51zM385 113q0 48 33 77t80 29q54 0 87 -34.5t33 -98.5q0 -90 -46 -170.5t-138 -187.5l-31 28 q72 93 92.5 127t20.5 64q0 22 -13.5 37t-33 25t-38.5 21t-32.5 32t-13.5 51z" />
<glyph unicode="&#x2022;" horiz-adv-x="620" d="M66 510q0 105 69.5 175.5t173.5 70.5t172 -70.5t68 -175.5q0 -107 -68.5 -179.5t-171.5 -72.5q-104 0 -173.5 73t-69.5 179z" />
<glyph unicode="&#x2026;" horiz-adv-x="1146" d="M47 96q0 53 34.5 88t86.5 35t85.5 -35t33.5 -88t-33.5 -89t-85.5 -36t-86.5 36t-34.5 89zM426 96q0 53 34.5 88t86.5 35t85.5 -35t33.5 -88t-33.5 -89t-85.5 -36t-86.5 36t-34.5 89zM805 96q0 53 34.5 88t86.5 35t85 -35t33 -88t-33 -89t-85 -36t-86.5 36t-34.5 89z" />
<glyph unicode="&#x202f;" horiz-adv-x="374" />
<glyph unicode="&#x2039;" horiz-adv-x="483" d="M102 514q0 42 56 104l235 220l29 -21l-184 -303l184 -303l-29 -21l-235 220q-56 59 -56 104z" />
<glyph unicode="&#x203a;" horiz-adv-x="483" d="M61 211l185 303l-185 303l29 21l236 -220q55 -61 55 -104q0 -46 -55 -104l-236 -220z" />
<glyph unicode="&#x205f;" horiz-adv-x="468" />
<glyph unicode="&#x20ac;" horiz-adv-x="964" d="M-14 621v41h108q-2 20 -2 65v37h-106v41h108q8 166 51.5 294.5t112 206.5t154 117t184.5 39q59 0 138 -15t122 -15l55 -478h-41q-26 141 -56 235.5t-63.5 144t-67 68.5t-75.5 19q-116 0 -193.5 -155t-84.5 -461h401v-41h-401v-14q0 -59 2 -88h399v-41h-397 q13 -274 88.5 -416t198.5 -142q103 0 176.5 116.5t99.5 367.5l41 -6q-17 -161 -51.5 -273.5t-85.5 -176.5t-111.5 -92t-138.5 -28q-192 0 -314.5 164t-142.5 486h-108z" />
<glyph unicode="&#x2122;" horiz-adv-x="1171" d="M41 1219l25 215h405l25 -215h-21q-16 78 -32.5 115.5t-33 48t-47.5 10.5h-49v-387q0 -70 14.5 -90t67.5 -31v-15h-252v15q53 11 67.5 31t14.5 90v387h-49q-32 0 -49 -10.5t-33.5 -48t-32.5 -115.5h-20zM477 870v15q45 11 60.5 31.5t21.5 89.5l29 292q6 70 -5 90t-55 31 v15h164l113 -367l106 367h164v-15q-32 -8 -44 -16.5t-17.5 -33t2.5 -69.5l28 -296q7 -67 23 -87.5t63 -31.5v-15h-239v15q44 11 54 30.5t3 88.5l-35 358l-135 -492h-22l-142 492l-32 -356q-8 -46 -2.5 -71t17.5 -33.5t44 -16.5v-15h-164z" />
<glyph unicode="&#x25fc;" horiz-adv-x="1024" d="M0 0v1024h1024v-1024h-1024z" />
<glyph unicode="&#xfb01;" horiz-adv-x="999" d="M27 983v41h211q-197 90 -197 252q0 186 315 186q84 0 189 -17.5t155 -17.5l72 -323h-63q-28 94 -60 156.5t-71 97.5t-82 49t-101 14q-89 0 -137.5 -41t-48.5 -116q0 -94 66.5 -167t170.5 -73h74q174 0 230.5 4.5t95.5 24.5h20v-860q0 -70 8.5 -102.5t27 -46t63.5 -24.5 v-20h-404v20q45 11 64 24.5t28 46.5t9 102v673q0 70 -27 93.5t-115 23.5q-93 0 -122 -24t-29 -93v-673q0 -100 23.5 -129t109.5 -44v-20h-439v20q45 11 64 24.5t28 46.5t9 102v673q0 49 -8 71.5t-37.5 34t-91.5 11.5z" />
<glyph unicode="&#xfb02;" horiz-adv-x="985" d="M27 983v41h211q-197 98 -197 244q0 95 75 144.5t212 49.5q76 0 187 -17.5t165 -17.5q33 0 52 1.5t49.5 10.5t54.5 27h20v-1273q0 -70 8.5 -102.5t27 -46t62.5 -24.5v-20h-403v20q45 11 63.5 24.5t27.5 46t9 102.5v997q0 64 -22 110.5t-60.5 72t-83.5 37t-100 11.5 q-176 0 -176 -159q0 -91 65.5 -164.5t163.5 -73.5h111v-41q-63 0 -100 -5t-57.5 -20t-27 -35.5t-6.5 -56.5v-673q0 -70 11.5 -102.5t37 -46t85.5 -24.5v-20h-439v20q45 11 64 24.5t28 46.5t9 102v673q0 71 -22 94t-105 23z" />
<glyph unicode="&#xfb03;" horiz-adv-x="1497" d="M27 983v41h211q-100 45 -148.5 102t-48.5 134q0 87 69 130.5t187 43.5q63 0 114 -10t96.5 -24.5t70.5 -19.5q73 82 278 82q84 0 189 -17.5t155 -17.5l72 -323h-64q-55 183 -126 250t-187 67q-89 0 -137.5 -41t-48.5 -116q0 -94 66.5 -167t170.5 -73h74q174 0 230.5 4.5 t95.5 24.5h20v-860q0 -70 8.5 -102.5t27 -46t62.5 -24.5v-20h-403v20q45 11 63.5 24.5t27.5 46t9 102.5v673q0 70 -26.5 93.5t-114.5 23.5q-93 0 -122.5 -24t-29.5 -93v-673q0 -100 23.5 -129t109.5 -44v-20h-438v20q45 11 64 24.5t28 46.5t9 102v673q0 49 -8.5 71.5 t-37.5 34t-92 11.5q-97 0 -127 -24t-30 -93v-673q0 -100 23.5 -129t109.5 -44v-20h-439v20q45 11 64 24.5t28 46.5t9 102v673q0 49 -8 71.5t-37.5 34t-91.5 11.5zM205 1251q0 -97 63 -160t172 -67h297q-196 90 -196 252q0 19 4 43q-37 25 -58.5 37.5t-59 24.5t-77.5 12 q-68 0 -106.5 -36t-38.5 -106z" />
</font>
</defs>
</svg>
