<?xml version="1.0" standalone="no"?>
<!DOCTYPE svg PUBLIC "-//W3C//DTD SVG 1.1//EN" "http://www.w3.org/Graphics/SVG/1.1/DTD/svg11.dtd" >
<svg xmlns="http://www.w3.org/2000/svg" xmlns:xlink="http://www.w3.org/1999/xlink" version="1.1">
<metadata></metadata>
<defs>
<font id="pp_neue_worldthin" horiz-adv-x="794" >
<font-face units-per-em="2048" ascent="1434" descent="-614" />
<missing-glyph horiz-adv-x="368" />
<glyph horiz-adv-x="0" />
<glyph horiz-adv-x="682" />
<glyph unicode=" "  horiz-adv-x="368" />
<glyph unicode="&#x09;" horiz-adv-x="368" />
<glyph unicode="&#xa0;" horiz-adv-x="368" />
<glyph unicode="!" horiz-adv-x="239" d="M61 45q0 30 17 50t43 20q25 0 41 -20t16 -50q0 -31 -16 -51.5t-41 -20.5q-26 0 -43 20.5t-17 51.5zM80 1368q0 29 0.5 43t4.5 31.5t12.5 25t23.5 7.5t23.5 -7.5t12.5 -25t4.5 -31.5t0.5 -43q0 -20 -12.5 -355.5t-12.5 -664.5h-31q0 329 -13 664.5t-13 355.5z" />
<glyph unicode="&#x22;" horiz-adv-x="368" d="M61 1378q0 20 0.5 31t3 26t9.5 22t18 7t18 -7t9.5 -22t3 -26t0.5 -31q0 -33 -6 -156.5t-6 -228.5h-31q0 105 -9.5 228.5t-9.5 156.5zM246 1378q0 22 0.5 31.5t3 25t9 22.5t17.5 7t18 -7t9.5 -22t3 -26t0.5 -31q0 -33 -6 -156.5t-6 -228.5h-31q0 105 -9 228.5t-9 156.5z " />
<glyph unicode="#" horiz-adv-x="1048" d="M61 379v51h226l116 574h-266v51h277l75 379h43l-75 -379h274l76 379h41l-76 -379h215v-51h-225l-117 -574h266v-51h-276l-76 -379h-41l76 379h-275l-75 -379h-43l75 379h-215zM330 430h274l117 574h-275z" />
<glyph unicode="$" horiz-adv-x="829" d="M61 492h41q56 -386 293 -437v707l-10 6q-162 105 -230.5 195.5t-68.5 220.5q0 113 76.5 179.5t189.5 66.5q22 0 43 -3v119h41v-125q55 -10 128 -41.5t102 -31.5l61 -406h-41q-26 209 -90 311t-160 127v-592q181 -111 261.5 -224t80.5 -275q0 -145 -78.5 -214t-218.5 -69 l-45 2v-110h-41v114q-72 10 -159 43t-113 33zM139 1184q0 -102 54.5 -180.5t201.5 -186.5v569q-18 3 -37 3q-90 0 -154.5 -57t-64.5 -148zM436 49q14 -2 41 -2q117 0 181.5 62t64.5 180q0 137 -62 231t-225 211v-682z" />
<glyph unicode="%" horiz-adv-x="1181" d="M61 1112q0 163 61.5 255.5t170.5 92.5q108 0 168.5 -92.5t60.5 -255.5q0 -165 -60.5 -257.5t-168.5 -92.5q-109 0 -170.5 93.5t-61.5 256.5zM119 1112q0 -148 45 -228.5t129 -80.5t128 80t44 229q0 146 -44 226.5t-128 80.5t-129 -80.5t-45 -226.5zM211 0l713 1434h47 l-713 -1434h-47zM659 326q0 163 61 255.5t169 92.5q109 0 170 -92.5t61 -255.5q0 -165 -61.5 -259t-169.5 -94t-169 94.5t-61 258.5zM717 326q0 -149 44 -229.5t128 -80.5t129 80.5t45 229.5q0 146 -45 226.5t-129 80.5t-128 -80.5t-44 -226.5z" />
<glyph unicode="&#x26;" horiz-adv-x="972" d="M61 395q0 215 110 367t292 221q-123 188 -301 410v41h639l51 -461h-41q-37 302 -48 348q-13 57 -39 67q-13 5 -46 5h-449q186 -214 325 -439t241 -499q41 141 71 317l39 -8q-42 -234 -88 -375q66 -183 115 -389h-53q-44 179 -88 311q-67 -168 -161.5 -253t-230.5 -85 q-155 0 -246.5 108.5t-91.5 313.5zM119 395q0 -179 81.5 -277t198.5 -98q240 0 369 355q-113 304 -285 577q-364 -144 -364 -557z" />
<glyph unicode="'" horiz-adv-x="184" d="M61 1378q0 20 0.5 31t3 26t9.5 22t18 7t18 -7t9.5 -22t3 -26t0.5 -31q0 -33 -6 -156.5t-6 -228.5h-31q0 105 -9.5 228.5t-9.5 156.5z" />
<glyph unicode="(" horiz-adv-x="544" d="M61 614q0 158 33.5 302.5t93 259.5t133 206.5t162.5 163.5l21 -20q-385 -412 -385 -912q0 -499 385 -911l-21 -20q-89 72 -162.5 163.5t-133 207t-93 259.5t-33.5 301z" />
<glyph unicode=")" horiz-adv-x="544" d="M41 -297q385 412 385 911q0 500 -385 912l20 20q89 -72 162.5 -163.5t133 -206.5t93 -259.5t33.5 -302.5q0 -157 -33.5 -301t-93 -259.5t-133 -207t-162.5 -163.5z" />
<glyph unicode="*" horiz-adv-x="587" d="M68 1055q-18 32 20 53q14 8 75.5 29t110.5 49q-49 29 -111 50t-75 28q-36 24 -20 55q17 30 57 6q13 -8 62 -50.5t98 -70.5q0 57 -13.5 125t-13.5 84q0 47 37 47q35 0 35 -47q0 -16 -12.5 -84t-12.5 -125q48 28 96.5 70t63.5 51q39 26 57 -6q17 -32 -22 -55 q-13 -8 -74.5 -28.5t-110.5 -49.5q48 -28 109.5 -48.5t75.5 -29.5q40 -20 22 -53q-17 -30 -57 -8q-16 9 -64 51.5t-96 70.5q0 -57 12.5 -125.5t12.5 -85.5q0 -45 -35 -45q-37 0 -37 45q0 17 13.5 85.5t13.5 125.5q-49 -29 -97.5 -71.5t-62.5 -50.5q-41 -21 -57 8z" />
<glyph unicode="+" horiz-adv-x="657" d="M82 492v40h225v228h41v-228h227v-40h-227v-226h-41v226h-225z" />
<glyph unicode="," horiz-adv-x="239" d="M61 61q0 24 16 39t40 15q61 0 61 -84q0 -112 -84 -232l-31 27q36 53 48 78.5t12 48.5q0 31 -31 55.5t-31 52.5z" />
<glyph unicode="-" horiz-adv-x="739" d="M61 492v40h617v-40h-617z" />
<glyph unicode="." horiz-adv-x="239" d="M61 45q0 30 17 50t43 20q25 0 41 -20t16 -50q0 -31 -16 -51.5t-41 -20.5q-26 0 -43 20.5t-17 51.5z" />
<glyph unicode="/" horiz-adv-x="473" d="M41 -410l350 1844h41l-348 -1844h-43z" />
<glyph unicode="0" horiz-adv-x="925" d="M61 717q0 162 21.5 290t58.5 212t89 139t109.5 78.5t123.5 23.5t123.5 -23.5t109.5 -78.5t88.5 -138.5t58 -212t21.5 -290.5q0 -202 -32 -350t-88.5 -232t-126.5 -123t-154 -39q-66 0 -123.5 23.5t-109.5 79t-89 139.5t-58.5 212t-21.5 290zM119 717q0 -190 27.5 -329.5 t76.5 -218.5t108.5 -116t131.5 -37t131.5 37t108.5 116t76.5 218.5t27.5 329.5t-27.5 330t-76.5 219t-108.5 116t-131.5 37q-71 0 -130.5 -37.5t-108.5 -116.5t-77 -219t-28 -329z" />
<glyph unicode="1" horiz-adv-x="376" d="M10 1178v30h46.5t37 3t30 5t23.5 11t18.5 16t13 24.5t11 31t8.5 42.5t7.5 53t7.5 66h20v-1288q0 -96 20.5 -124t92.5 -28v-20h-276v20q73 0 92.5 27.5t19.5 124.5v915q0 18 -0.5 28.5t-3.5 21.5t-6.5 16.5t-14 11t-20.5 7.5t-31 4t-41.5 2h-54.5z" />
<glyph unicode="2" horiz-adv-x="786" d="M31 0v41q52 78 133 188.5t142.5 192.5t130.5 187t114 192t74.5 187t29.5 190q0 126 -48 183.5t-146 57.5q-44 0 -81 -9t-78.5 -38t-73 -76.5t-57.5 -129.5t-40 -193h-41l62 399q27 0 73 22t109.5 44t130.5 22q125 0 186.5 -69t61.5 -213q0 -68 -12.5 -138t-40.5 -143 t-57.5 -137t-79.5 -142.5t-89 -136.5t-104.5 -142t-107 -136t-113.5 -141q-6 -7 -9 -11h461q43 0 57 13q25 23 43 147q9 63 33 281h41l-51 -492h-653z" />
<glyph unicode="3" horiz-adv-x="792" d="M51 492h41q15 -119 41 -206t56 -138t70.5 -81.5t78.5 -40.5t86 -10q126 0 193 110.5t67 289.5q0 165 -66 258.5t-172 93.5q-34 0 -74 -10t-65 -19.5t-69 -29.5l-19 34q13 9 56.5 38.5t65 44.5t62 47.5t63.5 57t53 62.5t46 73.5t27.5 81.5t11.5 95q0 82 -39.5 129 t-122.5 47q-256 0 -319 -446h-41l61 399q29 0 76 22t107.5 44t122.5 22q99 0 156 -54t57 -163q0 -149 -74.5 -264.5t-196.5 -190.5q170 45 260 -51.5t90 -318.5q0 -212 -89 -328.5t-226 -116.5q-62 0 -115.5 13.5t-83 30.5t-60.5 30.5t-54 13.5z" />
<glyph unicode="4" horiz-adv-x="886" d="M41 377v41l541 1046h20q3 -24 12 -35.5t29 -15.5v-989h193v-47h-193v-205q0 -97 17.5 -124.5t82.5 -27.5v-20h-254v20q66 0 84.5 28t18.5 124v205h-551zM92 424h500v954z" />
<glyph unicode="5" d="M51 492h41q18 -119 44 -206t54.5 -138t65.5 -81.5t71.5 -40.5t78.5 -10q59 0 107.5 28t88 87t62 162.5t22.5 243.5q0 126 -20 219t-56.5 147.5t-83.5 80.5t-106 26q-178 0 -291 -244h-39l78 668h500v-45h-465l-60 -492q108 154 279 154q144 0 232.5 -127t88.5 -389 q0 -146 -27 -257t-74.5 -176t-106.5 -97t-129 -32q-56 0 -106 13.5t-79 30.5t-58.5 30.5t-49.5 13.5z" />
<glyph unicode="6" horiz-adv-x="819" d="M51 649q0 392 92.5 601.5t280.5 209.5q56 0 101 -14t68.5 -30t50 -30t48.5 -14l45 -379h-43q-8 107 -26.5 185t-42 123.5t-57 72.5t-66 36t-74.5 9q-144 0 -225 -177t-92 -492q168 172 352 172q141 0 223 -116t82 -335q0 -249 -89 -373.5t-251 -124.5 q-190 0 -283.5 160.5t-93.5 515.5zM109 651q0 -333 75 -484t244 -151q135 0 209 111.5t74 343.5q0 206 -67.5 306t-186.5 100q-97 0 -180.5 -45.5t-167.5 -124.5v-56z" />
<glyph unicode="7" horiz-adv-x="827" d="M31 973l51 461h725v-41q-149 -137 -241 -303.5t-150.5 -430t-83.5 -659.5h-51q22 324 68.5 566.5t140.5 455.5t239 367h-512q-52 0 -68 -13q-27 -21 -43 -126q-9 -56 -34 -277h-41z" />
<glyph unicode="8" horiz-adv-x="833" d="M51 295q0 -154 100.5 -240t266.5 -86q170 0 267 85t97 233q0 66 -14 121t-36 99t-66 93t-88 88.5t-117 99.5q133 86 198.5 185t65.5 221q0 121 -87.5 195.5t-213.5 74.5q-148 0 -235 -76.5t-87 -197.5q0 -55 15.5 -105t38.5 -87.5t63 -79t73.5 -69t86.5 -67.5l33 -24 q1 -1 3 -2t3 -2q161 -119 234 -231.5t73 -235.5q0 -137 -86 -207t-225 -70q-141 0 -228.5 79t-87.5 206q0 75 22.5 139.5t70 122t96.5 101.5t125 100l12 8l37 22q-2 1 -5 4.5t-5 4.5l-25 18q-49 37 -80.5 63t-70.5 65t-61.5 74t-38 80.5t-15.5 92.5q0 79 39 133.5t97 77 t130 22.5q108 0 181 -65t73 -164q0 -108 -70 -205.5t-184 -173.5q-7 -6 -31 -20l-16 -13q-62 -46 -105.5 -83t-88.5 -85t-72.5 -94t-44.5 -104t-17 -121z" />
<glyph unicode="9" horiz-adv-x="819" d="M51 963q0 249 89 373t251 124q190 0 283 -160.5t92 -515.5q0 -392 -92.5 -601.5t-280.5 -209.5q-56 0 -101 13.5t-68.5 30.5t-50 30.5t-48.5 13.5l-45 379h43q8 -107 26.5 -185t42 -123.5t57 -72.5t66 -36t74.5 -9q144 0 225.5 177.5t92.5 492.5q-168 -172 -353 -172 q-142 0 -223 116t-80 335zM109 963q-1 -206 65.5 -306t185.5 -100q97 0 181 45.5t168 124.5v55q2 333 -73 484t-245 151q-135 0 -208.5 -111t-73.5 -343z" />
<glyph unicode=":" horiz-adv-x="239" d="M61 45q0 30 17 50t43 20q25 0 41 -20t16 -50q0 -31 -16 -51.5t-41 -20.5q-26 0 -43 20.5t-17 51.5zM61 844q0 29 17 49t43 20q25 0 41 -20t16 -49q0 -31 -16 -51.5t-41 -20.5q-26 0 -43 20.5t-17 51.5z" />
<glyph unicode=";" horiz-adv-x="239" d="M61 61q0 24 16 39t40 15q61 0 61 -84q0 -112 -84 -232l-31 27q36 53 48 78.5t12 48.5q0 31 -31 55.5t-31 52.5zM61 844q0 29 17 49t43 20q25 0 41 -20t16 -49q0 -31 -16 -51.5t-41 -20.5q-26 0 -43 20.5t-17 51.5z" />
<glyph unicode="&#x3c;" horiz-adv-x="657" d="M82 477v72l493 252v-47l-469 -242l469 -240v-47z" />
<glyph unicode="=" horiz-adv-x="698" d="M82 379v41h555v-41h-555zM82 604v41h555v-41h-555z" />
<glyph unicode="&#x3e;" horiz-adv-x="657" d="M82 225v47l469 240l-469 242v47l493 -252v-72z" />
<glyph unicode="?" horiz-adv-x="638" d="M51 963l72 419q30 7 75 28t92.5 35.5t104.5 14.5q87 0 140 -53t53 -150q0 -48 -10.5 -91.5t-34 -84t-38.5 -63t-48 -62t-39 -47.5q-47 -63 -67.5 -117t-29 -151t-8.5 -293h-41q0 206 6.5 300t28 159t70.5 129q13 21 45.5 64t52.5 73t37.5 80t17.5 104q0 75 -38 118.5 t-101 43.5q-42 0 -74 -8t-68.5 -35.5t-63.5 -75.5t-51.5 -133t-41.5 -204h-41zM236 39q0 31 16 50.5t41 19.5q26 0 42.5 -19.5t16.5 -50.5t-16.5 -50.5t-42.5 -19.5q-25 0 -41 19.5t-16 50.5z" />
<glyph unicode="@" horiz-adv-x="1501" d="M61 442q0 186 55 355t152.5 296t242.5 202.5t314 76.5q126 1 228 -38t173.5 -109.5t120 -170.5t71 -218.5t22.5 -255.5q0 -264 -76.5 -425t-192.5 -161q-73 0 -114.5 46.5t-50.5 125.5q-118 -156 -285 -156q-56 0 -106 16.5t-94.5 54t-75.5 94t-46.5 142t-9.5 191.5 q12 229 119.5 367.5t259.5 138.5q161 0 238 -164q6 59 6 164h41v-729q0 -113 25.5 -174.5t90.5 -61.5q68 0 121 73t80 193t27 265q0 126 -18.5 235t-61.5 205.5t-108 164t-163 107t-221 39.5q-127 0 -239.5 -47t-198 -131t-148 -195.5t-94.5 -243.5t-32 -272 q0 -153 34 -281.5t94 -219t142 -154t177.5 -93.5t201.5 -30q92 0 169.5 16t130.5 38.5t107.5 65t87 75.5t82.5 90l31 -25q-42 -56 -79.5 -97t-92.5 -84t-114.5 -70t-142.5 -44.5t-179 -17.5q-113 0 -215 31t-191 97t-154.5 162t-103 235t-37.5 306zM446 512 q-13 -209 66 -330t211 -121q86 0 150.5 39t127.5 121v4v381q0 84 -14.5 149.5t-37 105.5t-53.5 66t-61.5 36t-62.5 10q-124 0 -219 -126t-107 -335z" />
<glyph unicode="A" horiz-adv-x="1009" d="M27 0v20q66 0 93 27t50 119l315 1237l-4 20v21q19 4 23 16h20l316 -1292q23 -93 50 -120.5t93 -27.5v-20h-301v20q92 0 110 27q8 11 8 35q0 32 -14 86l-57 235h-455l-61 -237q-15 -53 -15 -85q0 -23 8 -34q18 -27 111 -27v-20h-290zM285 444h434l-211 873z" />
<glyph unicode="B" horiz-adv-x="878" d="M43 0v20q65 0 83.5 28t18.5 124v1090q0 96 -18 123.5t-84 27.5v21h131q25 2 113.5 14t148.5 12q159 0 244.5 -86.5t85.5 -265.5q0 -257 -207 -326q279 -76 279 -415q0 -92 -20 -162.5t-53.5 -113.5t-83 -70t-102 -37.5t-116.5 -10.5q-71 0 -165 13t-124 14h-131zM197 43 q159 -27 260 -27q66 0 119 14.5t101.5 51t75.5 109t27 176.5q0 199 -98 297t-264 98q-104 0 -221 12v-731zM197 815q82 -12 192 -12q166 0 243 71.5t77 233.5q0 168 -73 239.5t-208 71.5q-59 0 -231 -26v-578z" />
<glyph unicode="C" horiz-adv-x="937" d="M61 748q0 186 36.5 327t99 223t138.5 122t163 40q56 0 105 -13t76 -28t55.5 -28t49.5 -13l62 -405h-41q-19 134 -49 224.5t-71.5 137.5t-85.5 65.5t-101 18.5q-74 0 -140 -39.5t-120.5 -118t-86.5 -211t-32 -302.5q0 -326 108.5 -520.5t278.5 -194.5q144 0 230.5 125 t131.5 420l39 -7q-23 -172 -61 -290.5t-90.5 -185t-113 -94.5t-138.5 -28q-198 0 -320.5 206t-122.5 569z" />
<glyph unicode="D" horiz-adv-x="911" d="M43 0v20q65 0 83.5 28t18.5 124v1090q0 96 -18 123.5t-84 27.5v21l131 2q19 1 91.5 12.5t135.5 11.5q100 0 179 -40t141 -126t95.5 -234.5t33.5 -352.5q0 -734 -449 -734q-65 0 -136.5 12.5t-90.5 14.5h-131zM197 43q76 -27 184 -27q75 0 135 19.5t113 68t88.5 126 t55.5 198t20 279.5q0 161 -20 284t-55.5 203.5t-88 131.5t-113 72t-135.5 21q-111 0 -184 -26v-1350z" />
<glyph unicode="E" horiz-adv-x="815" d="M43 0v20q65 0 83.5 28t18.5 124v1090q0 96 -18 123.5t-84 27.5v21h649l51 -461h-41q-35 302 -46 348q-13 58 -40 68q-13 4 -45 4h-374v-611h252q31 0 35 26q1 8 1 24q0 35 -6 109q-1 12 -1.5 18.5t-1 17.5t-1.5 20h41l47 -491h-41q-6 40 -14 102q-12 93 -21.5 113 t-46.5 20h-243v-700h405q22 0 31 1.5t21.5 6.5t18 20t12.5 36.5t12 61.5t11.5 89.5t15.5 126.5q6 50 9 78h41l-51 -461h-680z" />
<glyph unicode="F" horiz-adv-x="804" d="M43 0v20q65 0 83.5 28t18.5 124v1090q0 96 -18 123.5t-84 27.5v21h670l51 -461h-41q-35 302 -46 348q-13 58 -40 68q-13 4 -45 4h-395v-621h276q17 0 24 4.5t10 20t1.5 46t-5.5 81.5q-3 39 -5 63h41l49 -491h-43q-5 40 -13 101q-11 94 -20.5 114t-46.5 20h-268v-559 q0 -97 17.5 -124.5t82.5 -27.5v-20h-254z" />
<glyph unicode="G" horiz-adv-x="985" d="M61 750q0 149 24 270.5t64 202t95 135t115 78.5t126 24q56 0 105.5 -13t77.5 -28t57.5 -28t50.5 -13l62 -405h-41q-19 134 -49.5 224.5t-72.5 137.5t-86.5 65.5t-101.5 18.5q-55 0 -107.5 -24t-100 -76.5t-83 -129t-56.5 -189.5t-21 -250q0 -194 33 -337t93.5 -226 t137 -122.5t170.5 -39.5q95 0 246 18v584q0 59 -37 72.5t-233 31.5q-27 3 -42 4v41l457 -43v-41q-18 1 -32 1q-38 0 -47 -6q-14 -8 -15 -55v-26v-606q-42 -2 -135.5 -14.5t-167.5 -12.5q-79 0 -149 25.5t-132.5 84.5t-107.5 147t-71 221t-26 299z" />
<glyph unicode="H" horiz-adv-x="976" d="M43 0v20q65 0 83.5 28t18.5 124v1090q0 96 -18 123.5t-84 27.5v21h254v-21q-65 0 -82.5 -27t-17.5 -124v-519h583v519q0 96 -18 123.5t-82 27.5v21h254v-21q-66 0 -84.5 -27.5t-18.5 -123.5v-1090q0 -96 18.5 -124t84.5 -28v-20h-254v20q64 0 82 28t18 124v530h-583v-530 q0 -97 17.5 -124.5t82.5 -27.5v-20h-254z" />
<glyph unicode="I" horiz-adv-x="339" d="M43 0v20q65 0 83.5 28t18.5 124v1090q0 96 -18 123.5t-84 27.5v21h254v-21q-65 0 -82.5 -27t-17.5 -124v-1090q0 -97 17.5 -124.5t82.5 -27.5v-20h-254z" />
<glyph unicode="J" horiz-adv-x="589" d="M31 461h41q15 -112 35.5 -194.5t41.5 -130t47 -75t49 -36.5t52 -9q66 0 92.5 52t26.5 165q0 39 -5 129t-5 146v754q0 96 -18.5 123.5t-84.5 27.5v21h254v-21q-65 0 -82.5 -27t-17.5 -124v-1029q0 -55 -5 -94t-20 -80.5t-48.5 -63.5t-84.5 -22q-53 0 -122.5 37t-84.5 41z " />
<glyph unicode="K" horiz-adv-x="1021" d="M43 0v20q65 0 83.5 28t18.5 124v1090q0 96 -18 123.5t-84 27.5v21h254v-21q-65 0 -82.5 -27t-17.5 -124v-564l489 621q34 51 34 66q-3 28 -83 28v21h297v-21q-58 0 -97 -13.5t-58 -32t-42 -52.5l-348 -461l420 -707q48 -80 85 -103.5t105 -23.5v-20h-309v20q91 0 99 22 q1 3 1 8q0 26 -45 97l-399 652l-149 -199v-428q0 -97 17.5 -124.5t82.5 -27.5v-20h-254z" />
<glyph unicode="L" d="M43 0v20q65 0 83.5 28t18.5 124v1090q0 96 -18 123.5t-84 27.5v21h254v-21q-65 0 -82.5 -27t-17.5 -124v-1221h395q22 0 31 1.5t21.5 6.5t18 20t12.5 36.5t12 61.5t11.5 89.5t15.5 126.5q6 50 9 78h41l-51 -461h-670z" />
<glyph unicode="M" horiz-adv-x="1400" d="M43 0v20q66 0 87 28t30 124l98 1090q3 31 3 55q0 51 -13 69q-19 28 -98 27v21h188l364 -1295l357 1295h184v-21q-78 0 -97 -27q-13 -19 -13 -73q0 -23 2 -51l104 -1090q9 -95 31 -123.5t88 -28.5v-20h-266v20q72 0 88 28q11 18 11 64q0 26 -3 60l-111 1143l-358 -1315 h-45l-367 1315l-106 -1143q-3 -31 -3 -55q0 -51 12 -69q17 -28 89 -28v-20h-256z" />
<glyph unicode="N" horiz-adv-x="1021" d="M45 0v20q65 0 83.5 28t18.5 124v1198q-22 25 -45 34t-57 9v21h139l672 -1315v1143q0 96 -18 123.5t-82 27.5v21h243v-21q-66 0 -84 -27.5t-18 -123.5v-1262h-41l-653 1280l-15 27v-1135q0 -96 18 -124t83 -28v-20h-244z" />
<glyph unicode="O" horiz-adv-x="1056" d="M61 717q0 187 37.5 332t102.5 233t148 133t179 45t179 -44.5t148 -132.5t102.5 -233.5t37.5 -332.5q0 -188 -37 -333t-102 -233.5t-148 -133t-180 -44.5q-96 0 -179 45t-148 133.5t-102.5 233.5t-37.5 332zM119 717q0 -178 34.5 -316.5t93 -220.5t130 -123t151.5 -41 q81 0 152.5 41t130.5 123t93 220t34 317q0 144 -22.5 262.5t-61.5 198.5t-91.5 135.5t-111.5 80.5t-123 25q-80 0 -151.5 -41.5t-130 -124t-93 -220.5t-34.5 -316z" />
<glyph unicode="P" horiz-adv-x="878" d="M43 0v20q65 0 83.5 28t18.5 124v1090q0 96 -18 123.5t-84 27.5v21h131q57 2 146.5 14t144.5 12q362 0 362 -477q0 -117 -22 -209.5t-57 -150t-82.5 -95t-93.5 -52.5t-95 -15q-123 0 -280 63v-352q0 -96 24 -124t111 -28v-20h-289zM197 567q149 -65 268 -65 q47 0 88.5 12.5t82 45t69.5 84t47 136t18 193.5q0 94 -14 168t-39 121t-55 79.5t-67 48.5t-68 22.5t-66 6.5q-40 0 -75.5 -3.5t-87 -10.5t-101.5 -12v-826z" />
<glyph unicode="Q" horiz-adv-x="1056" d="M61 717q0 187 37.5 332t102.5 233t148 133t179 45t179 -44.5t148 -132.5t102.5 -233.5t37.5 -332.5q0 -188 -37 -333t-102 -233.5t-148 -133t-180 -44.5h-28q24 -22 56 -61.5t54 -65.5t58 -46.5t77 -20.5q57 0 95.5 44t68.5 116l29 -13q-14 -35 -24 -58t-28.5 -53 t-38 -47.5t-48 -30.5t-62.5 -13q-56 0 -101.5 29t-76.5 70t-61 82t-70.5 70t-89.5 29q-57 0 -111.5 -36t-93.5 -103l-20 20q90 138 202 152q-116 79 -185 251t-69 429zM119 717q0 -178 34.5 -316.5t93 -220.5t130 -123t151.5 -41q81 0 152.5 41t130.5 123t93 220t34 317 q0 144 -22.5 262.5t-61.5 198.5t-91.5 135.5t-111.5 80.5t-123 25q-80 0 -151.5 -41.5t-130 -124t-93 -220.5t-34.5 -316z" />
<glyph unicode="R" horiz-adv-x="948" d="M43 0v20q65 0 83.5 28t18.5 124v1090q0 96 -18 123.5t-84 27.5v21h131q39 2 129.5 14t145.5 12q141 0 220 -74t79 -247q0 -136 -56 -221t-145 -119q89 -27 134 -118.5t58 -281.5q7 -87 11.5 -139t10.5 -99.5t11.5 -70.5t13.5 -41t17.5 -23.5t23.5 -5.5q30 0 46.5 39.5 t23.5 143.5l41 -8q-8 -114 -32.5 -168t-80.5 -54q-70 0 -94.5 76t-40.5 301q-18 236 -72 332t-182 96q-106 0 -239 13v-619q0 -97 17.5 -124.5t82.5 -27.5v-20h-254zM197 834q139 -15 233 -15q127 0 193.5 85.5t66.5 234.5q0 280 -244 280q-78 0 -249 -26v-559z" />
<glyph unicode="S" horiz-adv-x="845" d="M59 461h41q19 -130 54 -219t86.5 -137.5t110 -68.5t136.5 -20q119 0 184.5 62t65.5 180q0 148 -75 259.5t-265 250.5q-169 128 -240 225t-71 224q0 114 79 178.5t200 64.5q66 0 121 -13t84.5 -28t60.5 -28t55 -13l62 -405h-41q-25 174 -71.5 273.5t-109.5 136t-159 36.5 q-94 0 -159 -57t-65 -148q0 -105 63.5 -196.5t225.5 -216.5q187 -123 275 -251.5t88 -293.5q0 -147 -81.5 -215t-224.5 -68q-74 0 -138.5 13t-100.5 29t-71.5 29t-57.5 13z" />
<glyph unicode="T" horiz-adv-x="892" d="M41 973l51 461h709l51 -461h-41q-5 42 -13 115q-24 220 -39 262.5t-73 42.5h-213v-1221q0 -97 17.5 -124.5t82.5 -27.5v-20h-254v20q66 0 84.5 28t18.5 124v1221h-213q-32 0 -46.5 -7t-26.5 -38t-20 -90.5t-21 -168.5q-8 -73 -13 -116h-41z" />
<glyph unicode="U" horiz-adv-x="989" d="M33 1413v21h254v-21q-65 0 -83 -27.5t-18 -123.5v-811q0 -217 84.5 -320.5t239.5 -103.5t240.5 102t85.5 297v836q0 96 -18.5 123.5t-84.5 27.5v21h244v-21q-65 0 -82.5 -27t-17.5 -124v-840q0 -214 -94.5 -331.5t-272.5 -117.5q-177 0 -276 113.5t-99 357.5v818 q0 96 -18 123.5t-84 27.5z" />
<glyph unicode="V" horiz-adv-x="1169" d="M23 1413v21h290v-21q-87 0 -101 -26q-5 -8 -4 -23q0 -32 21 -94l357 -1161l364 1161q22 63 22 95q0 14 -4 22q-14 26 -100 26v21h279v-21q-67 0 -96 -26.5t-56 -116.5l-397 -1297h-37l-387 1297q-28 90 -56 116.5t-95 26.5z" />
<glyph unicode="W" horiz-adv-x="1495" d="M23 1413v21h276v-21q-73 -1 -87 -31q-5 -11 -5 -28q0 -31 16 -84l363 -1161l133 417l-225 744q-24 83 -51 113t-83 30v21h267v-21q-72 0 -87 -26q-6 -10 -6 -30q0 -31 15 -87l201 -645l206 647q15 56 15 87q0 18 -5 28q-14 26 -85 26v21h256v-21q-57 0 -85 -29.5 t-53 -111.5l-225 -727l137 -436l371 1163q16 51 16 82q0 18 -5 28q-15 30 -89 31v21h269v-21q-67 0 -96 -26.5t-58 -116.5l-395 -1297h-37l-144 471l-145 -471h-37l-387 1297q-28 90 -56 116.5t-95 26.5z" />
<glyph unicode="X" horiz-adv-x="1042" d="M23 0v20q67 0 102.5 25.5t77.5 108.5l289 561l-289 565q-42 83 -77 108t-103 25v21h296v-21q-85 0 -93 -24q-1 -4 -2 -9q0 -28 38 -100l260 -508l260 508q39 72 39 101q0 5 -1 8q-8 24 -93 24v21h283v-21q-68 0 -103.5 -25t-77.5 -108l-282 -555l293 -571 q42 -83 77.5 -108.5t102.5 -25.5v-20h-297v20q85 0 93 24q1 4 2 10q0 29 -38 100l-264 514l-266 -514q-38 -71 -38 -100q0 -6 2 -10q8 -24 93 -24v-20h-284z" />
<glyph unicode="Y" horiz-adv-x="1042" d="M23 1413v21h294v-21q-86 0 -97 -25q-2 -5 -2 -12q0 -30 32 -100l282 -643l275 643q31 69 31 99q0 8 -2 13q-11 25 -97 25v21h281v-21q-67 0 -99.5 -26t-68.5 -113l-301 -729v-373q0 -96 18.5 -124t83.5 -28v-20h-254v20q64 0 82.5 28t18.5 124v379l-310 725 q-36 86 -68 111.5t-99 25.5z" />
<glyph unicode="Z" horiz-adv-x="917" d="M72 0v41l702 1352h-500q-36 0 -49 -5t-27 -39t-23 -100.5t-25 -197.5q-6 -50 -9 -78h-41l52 461h682v-41l-703 -1352h541q36 0 49 5t27 39t23 100.5t25 197.5q2 17 3 26t2.5 24t3.5 28h41l-51 -461h-723z" />
<glyph unicode="[" horiz-adv-x="487" d="M61 -317v1863h385v-41h-333v-1781h333v-41h-385z" />
<glyph unicode="\" horiz-adv-x="473" d="M41 1434h41l350 -1844h-43z" />
<glyph unicode="]" horiz-adv-x="487" d="M41 -276h334v1781h-334v41h385v-1863h-385v41z" />
<glyph unicode="^" horiz-adv-x="657" d="M61 909l236 525h63l236 -525h-45l-221 496l-224 -496h-45z" />
<glyph unicode="_" horiz-adv-x="829" d="M61 -123h707v-41h-707v41z" />
<glyph unicode="`" horiz-adv-x="501" d="M102 1260q0 77 123 34l195 -49l-6 -26z" />
<glyph unicode="a" horiz-adv-x="854" d="M61 377q0 103 27.5 182.5t74 125.5t102 68.5t118.5 22.5q95 0 169.5 -57.5t111.5 -157.5v135q0 162 -58.5 238t-159.5 76q-93 0 -174 -57.5t-116 -168.5h-41l61 189q27 0 66.5 19.5t94.5 39t118 19.5q260 0 260 -355v-503q0 -37 0.5 -56t4 -37t9 -23t17.5 -6t27 6t40 21 l10 -18l-141 -78q-6 -4 -10 -4q-8 0 -8 14v183q-37 -103 -112.5 -162.5t-170.5 -59.5q-62 0 -117.5 23.5t-101.5 70t-73.5 127t-27.5 183.5zM119 377q0 -170 76 -265.5t190 -95.5q51 0 100 22.5t89.5 65t65 113.5t24.5 160q0 88 -24.5 159t-65 113t-88.5 64t-99 22 q-116 0 -192 -94t-76 -264z" />
<glyph unicode="b" horiz-adv-x="858" d="M20 1413v21l142 18l2 2h20v-541q134 138 291 138q150 0 236 -136.5t86 -386.5q0 -259 -94.5 -407t-245.5 -148q-180 0 -281 209q-2 -57 -2 -209h-41v1289q0 96 -20 123.5t-93 27.5zM184 311q29 -135 103.5 -215t169.5 -80q55 0 103.5 28.5t89.5 86.5t65 160.5t24 236.5 q0 231 -72 349t-202 118q-141 0 -281 -125v-559z" />
<glyph unicode="c" d="M61 530q0 235 94 378t259 143q48 0 90 -12t65 -27t49.5 -27t47.5 -12l41 -307h-41q-37 344 -252 344q-128 0 -211.5 -130.5t-83.5 -349.5q0 -140 32 -251.5t100.5 -181.5t164.5 -70q123 0 195 89t104 285l39 -6q-21 -118 -55 -202t-78.5 -131t-95 -68t-111.5 -21 q-168 0 -260.5 145.5t-92.5 411.5z" />
<glyph unicode="d" horiz-adv-x="858" d="M61 496q0 258 95 406.5t245 148.5q89 0 155.5 -47t117.5 -144v402q0 96 -20 123.5t-93 27.5v21l141 18l3 2h20v-1278q0 -96 20.5 -123.5t92.5 -27.5v-21l-142 -18l-2 -2h-20v125q-132 -136 -291 -136q-148 0 -235 137t-87 386zM119 496q0 -230 72.5 -348.5t201.5 -118.5 q141 0 281 125v559q-29 135 -103.5 216t-169.5 81q-54 0 -102.5 -29t-89.5 -87.5t-65.5 -161t-24.5 -236.5z" />
<glyph unicode="e" d="M61 520q0 239 94.5 385t256.5 146q132 0 209 -104t92 -306h-586q-8 -49 -8 -121q0 -134 33 -244t100.5 -179.5t159.5 -69.5q121 0 196 90.5t107 283.5l39 -6q-72 -422 -344 -422q-162 0 -255.5 144.5t-93.5 402.5zM133 682h529q-14 165 -81.5 246.5t-168.5 81.5 t-176.5 -87t-102.5 -241z" />
<glyph unicode="f" horiz-adv-x="471" d="M41 983v41h154q-76 45 -115 112t-39 146q0 85 45.5 131.5t116.5 46.5q52 0 102.5 -23.5t73.5 -23.5l61 -307h-41q-14 82 -32 141t-35.5 91.5t-39.5 51.5t-40 24t-41 5q-53 0 -84 -34t-31 -107q0 -99 75 -176.5t163 -77.5h76v-41q-111 0 -138.5 -14.5t-27.5 -77.5v-719 q0 -96 28.5 -124t128.5 -28v-20h-321v20q73 0 93 28t20 124v719q0 28 -3 42.5t-9.5 26.5t-26 16t-43 5.5t-70.5 1.5z" />
<glyph unicode="g" horiz-adv-x="880" d="M61 573q0 218 95.5 350t279.5 132q66 0 125 -19q32 65 86.5 104.5t126.5 45.5l33 -62q-151 -9 -215 -102q108 -48 162.5 -165.5t54.5 -283.5q0 -219 -95 -350t-278 -131q-131 0 -217 70q-86 -30 -86 -76q0 -43 52 -67.5t221 -73.5q22 -6 63 -18q45 -13 66.5 -19.5 t57.5 -17.5t53 -18t43 -18.5t38 -21t27.5 -22.5t22 -27t11.5 -31t5 -37q0 -79 -79 -122.5t-192 -43.5q-121 0 -198.5 41.5t-77.5 120.5q0 125 176 178l-43 13q-173 48 -235 80t-62 86q0 74 113 114q-134 125 -134 391zM119 573q0 -205 76.5 -322.5t240.5 -117.5 q83 0 144.5 32t98.5 91.5t55 138.5t18 178q0 134 -31 230t-103 153.5t-182 57.5t-182.5 -58t-103.5 -154t-31 -229zM297 -283q0 -46 36.5 -76t84 -40.5t104.5 -10.5q91 0 155 32.5t64 88.5q0 25 -12.5 45t-31 34.5t-58 30.5t-73.5 27t-97 29q-172 -52 -172 -160z" />
<glyph unicode="h" horiz-adv-x="884" d="M20 0v20q73 0 93 28t20 124v1085q0 96 -20 124t-93 28v21l140 18q1 0 2 1t2 1h20v-549q173 150 328 150q110 0 175 -65.5t65 -201.5v-612q0 -96 20.5 -124t91.5 -28v-20h-276v20q73 0 92.5 27.5t19.5 124.5v612q0 114 -50 170t-142 56q-147 0 -324 -156v-682 q0 -96 20.5 -124t92.5 -28v-20h-277z" />
<glyph unicode="i" horiz-adv-x="317" d="M20 0v20q73 0 93 28t20 124v676q0 96 -20 123.5t-93 27.5v21l140 18q1 0 2 1t2 1h20v-868q0 -96 20.5 -124t92.5 -28v-20h-277zM92 1286q0 25 18 41t44 16t43.5 -16t17.5 -41q0 -24 -17.5 -40.5t-43.5 -16.5t-44 17t-18 40z" />
<glyph unicode="j" horiz-adv-x="344" d="M-113 -72h41q14 -87 31.5 -149.5t33 -95.5t35 -51.5t33 -22.5t31.5 -4q54 0 71 54.5t17 176.5q0 51 -5 130.5t-5 125.5v760q0 96 -20.5 124t-92.5 28v20l140 20h4h20v-1198q0 -34 -0.5 -52.5t-2.5 -53t-6.5 -54.5t-14 -46.5t-22 -40.5t-33 -24.5t-46.5 -10.5 q-40 0 -86.5 23.5t-70.5 23.5zM123 1286q0 25 17.5 41t43.5 16t44 -16t18 -41q0 -23 -18 -40t-44 -17t-43.5 16.5t-17.5 40.5z" />
<glyph unicode="k" horiz-adv-x="917" d="M20 0v20q73 0 93 28t20 124v1085q0 96 -20 124t-93 28v21l140 18q1 0 2 1t2 1h20v-989l377 452q18 22 25.5 33.5t12.5 24.5t-2.5 19t-26.5 10t-52 4v20h295v-20q-78 0 -119 -22t-84 -75l-194 -237l284 -518q45 -83 83 -107.5t114 -24.5v-20h-319v20q93 0 102 24q1 4 1 8 q0 28 -40 100l-262 473l-195 -238v-215q0 -96 20.5 -124t92.5 -28v-20h-277z" />
<glyph unicode="l" horiz-adv-x="317" d="M20 0v20q73 0 93 28t20 124v1085q0 96 -20 124t-93 28v21l140 18q1 0 2 1t2 1h20v-1278q0 -96 20.5 -124t92.5 -28v-20h-277z" />
<glyph unicode="m" horiz-adv-x="1247" d="M20 0v20q73 0 93 28t20 124v676q0 96 -20 123.5t-93 27.5v21l140 18q1 0 2 1t2 1h20v-122q126 133 258 133q146 0 189 -138q77 67 143 102.5t133 35.5q207 0 207 -277v-602q0 -96 20.5 -124t92.5 -28v-20h-277v20q73 0 93 28t20 124v602q0 236 -160 236q-117 0 -262 -133 q8 -41 8 -103v-602q0 -96 20.5 -124t92.5 -28v-20h-277v20q73 0 93 28t20 124v602q0 236 -160 236q-129 0 -254 -138v-700q0 -96 20.5 -124t92.5 -28v-20h-277z" />
<glyph unicode="n" horiz-adv-x="884" d="M20 0v20q73 0 93 28t20 124v676q0 96 -20 123.5t-93 27.5v21l140 18q1 0 2 1t2 1h20v-139q173 150 328 150q110 0 175 -65.5t65 -201.5v-612q0 -96 20.5 -124t91.5 -28v-20h-276v20q73 0 92.5 27.5t19.5 124.5v612q0 114 -50 170t-142 56q-147 0 -324 -156v-682 q0 -96 20.5 -124t92.5 -28v-20h-277z" />
<glyph unicode="o" horiz-adv-x="864" d="M61 512q0 273 102 406t269 133t269 -133t102 -406q0 -274 -101.5 -406.5t-269.5 -132.5q-167 0 -269 133.5t-102 405.5zM119 512q0 -253 83 -374.5t230 -121.5t230 121.5t83 374.5t-83 375.5t-230 122.5q-146 0 -229.5 -122.5t-83.5 -375.5z" />
<glyph unicode="p" horiz-adv-x="858" d="M20 -389q73 0 93 27.5t20 123.5v1086q0 96 -20 123.5t-93 27.5v21l140 18q1 0 2 1t2 1h20v-127q134 138 291 138q150 0 236 -136.5t86 -386.5q0 -259 -94.5 -407t-245.5 -148q-89 0 -155.5 47t-117.5 146v-404q0 -96 20.5 -123.5t92.5 -27.5v-21h-277v21zM184 311 q29 -135 103.5 -215t169.5 -80q55 0 103.5 28.5t89.5 86.5t65 160.5t24 236.5q0 231 -72 349t-202 118q-141 0 -281 -125v-559z" />
<glyph unicode="q" horiz-adv-x="858" d="M61 496q0 258 95 406.5t245 148.5q180 0 281 -209q2 45 2 182h41v-1262q0 -96 20.5 -123.5t92.5 -27.5v-21h-277v21q73 0 93 27.5t20 123.5v349q-130 -138 -291 -138q-148 0 -235 137t-87 386zM119 496q0 -230 72.5 -348.5t201.5 -118.5q142 0 281 127v557 q-29 135 -103.5 216t-169.5 81q-54 0 -102.5 -29t-89.5 -87.5t-65.5 -161t-24.5 -236.5z" />
<glyph unicode="r" horiz-adv-x="518" d="M20 0v20q73 0 93 28t20 124v676q0 96 -20 123.5t-93 27.5v21l140 18q1 0 2 1t2 1h20v-133q12 13 38 42.5t38 41.5t31 29.5t33.5 24t29.5 6.5q19 0 33.5 -13.5t21 -29.5t15.5 -29.5t20 -13.5q12 0 23 8l12 -27q-27 -39 -55 -39q-20 0 -33.5 19.5t-25.5 39t-27 19.5 q-36 0 -154 -139v-674q0 -96 30.5 -124t139.5 -28v-20h-334z" />
<glyph unicode="s" horiz-adv-x="733" d="M53 389h41q11 -94 37.5 -164t58.5 -109t76 -62.5t81 -30.5t81 -7q94 0 147.5 41.5t53.5 128.5q0 50 -14 89t-55.5 82t-73 69t-110.5 84l-24 18q-159 95 -216.5 163t-57.5 171q0 90 65.5 139.5t171.5 49.5q55 0 103 -11t75.5 -24.5t59 -26.5t55.5 -16l41 -307h-41 q-9 88 -32 152.5t-51 100.5t-66 57.5t-69 27.5t-68 6q-91 0 -141 -38t-50 -110q0 -85 50.5 -143t203.5 -158q154 -89 225.5 -174.5t71.5 -200.5q0 -110 -67 -161.5t-183 -51.5q-67 0 -121 11t-83.5 24.5t-65.5 26.5t-68 16z" />
<glyph unicode="t" horiz-adv-x="468" d="M31 983v41q29 0 44 0.5t33 6t25.5 11t17.5 23.5t13.5 35.5t8 53.5t6.5 72t5 97h21v-299h192v-41q-92 0 -128.5 -4.5t-50 -18.5t-13.5 -49v-721q0 -92 14.5 -127.5t50.5 -35.5q45 0 73 91.5t46 278.5l39 -4q-23 -234 -60 -327t-104 -93q-54 0 -82 44.5t-28 156.5v737 q0 50 -19 61t-104 11z" />
<glyph unicode="u" horiz-adv-x="874" d="M20 1004v20l140 20h4h20v-808q0 -114 51.5 -170t143.5 -56q153 0 311 137v705q0 97 -19.5 124.5t-92.5 27.5v20l139 20h4h20v-862q0 -96 20.5 -123.5t92.5 -27.5v-21l-139 -20h-4h-21v112q-52 -40 -87 -63.5t-99 -46.5t-129 -23q-112 0 -177 65.5t-65 201.5v616 q0 96 -20 124t-93 28z" />
<glyph unicode="v" horiz-adv-x="1019" d="M23 1004v20h303v-20q-93 0 -108 -26q-5 -8 -5 -23q0 -32 23 -93l280 -805l279 805q23 61 23 93q0 15 -5 23q-15 26 -108 26v20h292v-20q-67 0 -96.5 -26.5t-60.5 -115.5l-303 -889h-54l-303 889q-31 89 -60.5 115.5t-96.5 26.5z" />
<glyph unicode="w" horiz-adv-x="1277" d="M23 1004v20h264v-20q-65 0 -75 -26q-3 -7 -2 -18q0 -31 21 -96l285 -807l98 281l-180 526q-27 86 -53 113t-74 27v20h250v-20q-69 0 -83 -30q-4 -10 -4 -25q0 -31 19 -85l156 -440l156 440q19 55 19 86q0 15 -4 24q-13 30 -83 30v20h238v-20q-47 0 -73 -26.5t-54 -113.5 l-176 -508l106 -299l285 807q20 63 20 94q1 12 -3 20q-12 26 -77 26v20h256v-20q-67 0 -96.5 -26.5t-60.5 -115.5l-301 -889h-56l-102 297l-102 -297h-54l-303 889q-31 89 -60.5 115.5t-96.5 26.5z" />
<glyph unicode="x" horiz-adv-x="899" d="M23 0v20q68 0 105 24.5t83 105.5l209 360l-211 364q-46 81 -82 105.5t-104 24.5v20h309v-20q-92 0 -102 -24q-2 -4 -2 -9q0 -28 42 -97l181 -311l180 311q42 70 42 97q1 5 -1 9q-10 24 -101 24v20h295v-20q-68 0 -105 -24.5t-83 -105.5l-205 -352l217 -372 q46 -81 82.5 -105.5t104.5 -24.5v-20h-308v20q91 0 101 24q2 4 1 9q0 28 -42 97l-187 319l-184 -319q-42 -70 -42 -98q0 -4 1 -8q9 -24 102 -24v-20h-296z" />
<glyph unicode="y" horiz-adv-x="976" d="M23 1004v20h303v-20q-93 0 -110 -26q-5 -10 -5 -27q0 -32 20 -91l265 -833l262 833q20 59 20 91q0 17 -6 27q-16 26 -108 26v20h290v-20q-67 0 -96.5 -27t-56.5 -117l-320 -1018q-51 -166 -72 -208q-38 -78 -98 -84q-6 -1 -12 -1q-35 0 -63 14t-50 28t-41 14l-51 338h41 q15 -96 32 -164t31.5 -104t33 -56t31.5 -24.5t32 -4.5q43 0 68.5 46.5t68.5 185.5l47 151h-20l-283 887q-29 90 -58 117t-95 27z" />
<glyph unicode="z" horiz-adv-x="759" d="M51 0v41l584 942h-346q-27 0 -44 -1t-33.5 -8.5t-26 -14t-19.5 -27t-15 -38.5t-11.5 -57t-11 -73.5t-11.5 -97.5h-41l49 358h573v-41l-583 -942h381q27 0 44 1t33.5 9t26 15.5t19.5 30.5t15 43t11.5 64.5t11 84t11.5 110.5h41l-50 -399h-608z" />
<glyph unicode="{" horiz-adv-x="536" d="M61 594v41q115 0 168 114.5t23 307.5q-21 133 -11.5 232.5t73 166t182.5 90.5v-20q-85 -25 -133.5 -75.5t-68 -143t4.5 -230.5q30 -191 -6 -307t-127 -156q91 -40 127 -155.5t6 -306.5q-24 -138 -4 -230.5t68.5 -143t132.5 -75.5v-20q-119 24 -182.5 90.5t-73 166 t11.5 232.5q32 193 -21.5 307.5t-169.5 114.5z" />
<glyph unicode="|" horiz-adv-x="163" d="M61 -123v1679h41v-1679h-41z" />
<glyph unicode="}" horiz-adv-x="536" d="M41 -297q84 25 132.5 75.5t68.5 143t-4 230.5q-30 191 6 306.5t127 155.5q-91 40 -127 156t-6 307q24 138 4.5 230.5t-68 143t-133.5 75.5v20q119 -24 182.5 -90.5t73 -166t-11.5 -232.5q-30 -193 22.5 -307.5t167.5 -114.5v-41q-115 0 -168.5 -114.5t-21.5 -307.5 q21 -133 11.5 -232.5t-73 -166t-182.5 -90.5v20z" />
<glyph unicode="~" horiz-adv-x="722" d="M82 467q40 66 76.5 95.5t91.5 29.5q39 0 73 -18.5t55 -40t51.5 -40t62.5 -18.5q42 0 64.5 22t47.5 78l37 -16q-26 -65 -59.5 -95t-89.5 -30q-40 0 -74.5 18.5t-55 40t-50.5 40t-62 18.5q-42 0 -67 -21t-64 -79z" />
<glyph unicode="&#xa1;" horiz-adv-x="256" d="M78 979q0 31 16 51.5t41 20.5q26 0 43 -20.5t17 -51.5q0 -30 -17 -50t-43 -20q-25 0 -41 20t-16 50zM94 -344q0 20 12.5 355.5t12.5 664.5h31q0 -329 13 -664.5t13 -355.5q0 -29 -0.5 -43t-4.5 -31.5t-12.5 -25t-23.5 -7.5t-23.5 7.5t-12.5 25t-4.5 31.5t-0.5 43z" />
<glyph unicode="&#xa2;" d="M61 735q0 226 86.5 367t239.5 151v303h41v-301q56 -3 102.5 -22t78.5 -37t57 -18l41 -308h-41q-35 332 -238 344v-983q118 5 187 94.5t100 280.5l39 -6q-20 -114 -52.5 -196.5t-75.5 -130t-91 -70.5t-107 -25v-301h-41v301q-156 12 -241 156.5t-85 400.5zM119 735 q0 -132 28.5 -240t90.5 -180t149 -82v979q-118 -14 -193 -141.5t-75 -335.5z" />
<glyph unicode="&#xa3;" horiz-adv-x="890" d="M61 205q0 93 50 158t135 65q90 0 170 -94q-1 19 -4 39.5t-5.5 37t-9.5 39.5t-11 36.5t-14.5 39t-14.5 36.5t-17 39.5t-16.5 37t-18.5 40.5t-18 38h-195v41h176q-49 111 -75.5 202t-26.5 187q0 150 72 231.5t196 81.5q54 0 101.5 -14.5t92.5 -35.5t74 -28l62 -409h-41 q-20 139 -50.5 232t-70 137.5t-78 60.5t-88.5 16q-94 0 -153.5 -71.5t-59.5 -200.5q0 -104 25 -195t71 -194h355v-41h-336q45 -96 62.5 -136.5t39 -120t21.5 -149.5l-2 -41q14 -23 39 -67t40 -68t37 -52t44 -41t47 -13q55 0 85 75.5t37 239.5l41 -2q-6 -113 -20.5 -189 t-37.5 -113.5t-47.5 -52t-57.5 -14.5q-29 0 -55.5 12.5t-44.5 28t-40.5 48t-34 52.5t-33.5 61q-5 9 -7 13q-20 -102 -72 -158.5t-127 -56.5q-76 0 -133.5 59.5t-57.5 172.5zM113 205q0 -89 39 -139t100 -50q68 0 110.5 65.5t51.5 170.5q-37 60 -76 92.5t-90 32.5 q-60 0 -97.5 -45.5t-37.5 -126.5z" />
<glyph unicode="&#xa4;" horiz-adv-x="1011" d="M61 240l177 176q-101 125 -101 301q0 179 101 301l-177 176l29 29l176 -174q98 98 240 98q141 0 242 -98l174 174l28 -29l-176 -176q100 -124 100 -301t-100 -301l176 -176l-28 -29l-174 174q-101 -98 -242 -98t-242 98l-174 -174zM178 717q0 -164 92 -276.5t236 -112.5 t236 112.5t92 276.5t-92 276.5t-236 112.5t-236 -112.5t-92 -276.5z" />
<glyph unicode="&#xa5;" horiz-adv-x="1042" d="M23 1413v21h294v-21q-86 0 -96.5 -24.5t29.5 -112.5l211 -479h141l205 479q39 88 28.5 112.5t-96.5 24.5v21h281v-21q-67 0 -99.5 -26t-68.5 -113l-197 -477h273v-41h-289l-51 -123h340v-41h-359l-18 -47v-373q0 -96 18.5 -124t83.5 -28v-20h-254v20q64 0 82.5 28 t18.5 124v379l-19 41h-360v41h344l-53 123h-291v41h274l-205 479q-36 86 -68 111.5t-99 25.5zM479 756l53 -123l54 123h-107z" />
<glyph unicode="&#xa6;" horiz-adv-x="163" d="M61 -123v655h41v-655h-41zM61 901v655h41v-655h-41z" />
<glyph unicode="&#xa7;" horiz-adv-x="706" d="M61 678q0 165 172 207q-72 66 -104.5 124.5t-32.5 135.5q0 86 63.5 129t149.5 43q49 0 91 -12t84 -30.5t69 -25.5l51 -317h-41q-14 88 -35.5 152.5t-44.5 100.5t-54.5 57.5t-58 27.5t-61.5 6q-69 0 -114 -30.5t-45 -96.5q0 -25 3.5 -46.5t17 -46t21 -38.5t34 -43 t36.5 -39.5t49 -48t51 -49.5q58 -46 91 -74.5t75 -71t63.5 -77t37.5 -80t16 -93.5q0 -165 -172 -204q73 -67 106 -127t33 -134q0 -89 -55.5 -131.5t-146.5 -42.5q-54 0 -98 12t-87.5 30.5t-70.5 25.5l-52 317h41q14 -89 35.5 -153t45.5 -100t56.5 -57.5t61.5 -27.5t66 -6 q73 0 111 30.5t38 100.5q0 16 -3 32.5t-6 29.5t-13 30.5t-15.5 27.5t-21.5 29.5t-23 28t-28.5 31t-30 30.5t-35.5 34.5t-37 36.5q-58 47 -90 73.5t-75 69.5t-64.5 77t-37.5 79.5t-16 93.5zM117 680q0 -35 11 -69t24 -58.5t44.5 -60t50.5 -53.5t65.5 -60.5t66.5 -61.5l53 -45 q76 12 118 54.5t42 113.5q0 30 -6 58t-22 55.5t-29.5 48t-43 50.5t-47 46.5t-56.5 52t-58 52.5l-58 47q-74 -12 -114.5 -55t-40.5 -115z" />
<glyph unicode="&#xa8;" horiz-adv-x="505" d="M82 1286q0 23 16 39t41 16t42.5 -16t17.5 -39t-17.5 -39t-42.5 -16t-41 16t-16 39zM307 1286q0 23 16.5 39t41.5 16t42 -16t17 -39t-17 -39t-42 -16t-41.5 16t-16.5 39z" />
<glyph unicode="&#xa9;" horiz-adv-x="1454" d="M51 717q0 162 51.5 301.5t141 237t215 153t268.5 55.5t268.5 -55.5t215 -153t141 -237t51.5 -301.5q0 -216 -88 -387t-242 -266t-346 -95t-346 95t-242 266t-88 387zM92 719q0 -206 82.5 -368t227 -251.5t325.5 -89.5q135 0 253 53t202 146t132 225t48 285 q0 204 -82.5 365t-227 250t-325.5 89t-325.5 -89t-227 -250t-82.5 -365zM408 735q0 225 86 358.5t239 133.5q57 0 102 -17.5t76 -35t54 -17.5l36 -293h-38q-32 324 -230 324q-118 0 -194 -122.5t-76 -330.5q0 -134 29 -240t91 -172.5t150 -66.5q115 0 180.5 84t94.5 272 l39 -6q-37 -217 -117 -308t-197 -91q-157 0 -241 136.5t-84 391.5z" />
<glyph unicode="&#xaa;" horiz-adv-x="604" d="M43 981q0 139 66.5 210t160.5 71q66 0 118.5 -40.5t78.5 -109.5v92q0 219 -152 219q-64 0 -121.5 -38t-84.5 -117h-29l47 133q17 0 77 25.5t118 25.5q186 0 186 -248v-301q0 -36 1 -55t4.5 -36.5t9 -22.5t17.5 -6t27.5 6t40.5 20l10 -18l-133 -72q-6 -4 -12 -4t-6 12v125 q-28 -72 -80.5 -113t-118.5 -41q-93 0 -159 71.5t-66 211.5zM90 981q0 -119 52 -185.5t130 -66.5q77 0 136 66t59 186q0 119 -59 185.5t-134 66.5q-80 0 -132 -66.5t-52 -185.5z" />
<glyph unicode="&#xab;" horiz-adv-x="702" d="M82 514q0 25 12 45.5t43 54.5l236 224l28 -21l-262 -303l262 -303l-28 -21l-236 224q-55 58 -55 100zM324 514q0 25 12 45.5t43 54.5l235 224l29 -21l-262 -303l262 -303l-29 -21l-235 224q-55 58 -55 100z" />
<glyph unicode="&#xac;" horiz-adv-x="657" d="M82 584v41h493v-246h-40v205h-453z" />
<glyph unicode="&#xad;" horiz-adv-x="739" d="M61 492v40h617v-40h-617z" />
<glyph unicode="&#xae;" horiz-adv-x="819" d="M61 1085q0 168 97.5 273.5t251.5 105.5t251 -105.5t97 -273.5t-97 -273t-251 -105t-251.5 105t-97.5 273zM102 1085q0 -152 85.5 -246t222.5 -94q136 0 221.5 94.5t85.5 245.5q0 153 -85 246.5t-222 93.5t-222.5 -93.5t-85.5 -246.5zM274 872v9q23 0 29 13t6 60v281 q0 47 -6 60.5t-29 13.5v10h45q24 0 52 4t43 4q46 0 77 -28t31 -87q0 -43 -20.5 -73t-50.5 -43q36 -7 52 -34.5t21 -82.5q4 -56 13 -71t34 -15v-21q-52 0 -67 17t-19 82q-6 67 -23.5 90.5t-53.5 23.5q-9 0 -29.5 2t-28.5 3v-136q0 -47 6 -60t29 -13v-9h-111zM350 1112 q24 -6 49 -6q82 0 82 106q0 48 -18.5 72.5t-50.5 24.5q-22 0 -62 -9v-188z" />
<glyph unicode="&#xaf;" horiz-adv-x="552" d="M82 1249v51h389v-51h-389z" />
<glyph unicode="&#xb0;" horiz-adv-x="552" d="M61 1188q0 118 60 195t155 77t155.5 -77t60.5 -195q0 -117 -60.5 -193.5t-155.5 -76.5t-155 76t-60 194zM102 1188q0 -101 48.5 -165.5t125.5 -64.5t126 65.5t49 164.5q0 101 -49 166t-126 65t-125.5 -65t-48.5 -166z" />
<glyph unicode="&#xb1;" horiz-adv-x="657" d="M82 205v41h493v-41h-493zM82 553v41h225v227h41v-227h227v-41h-227v-225h-41v225h-225z" />
<glyph unicode="&#xb2;" horiz-adv-x="409" d="M16 922v20q29 44 80.5 113t86 118t70.5 109t54.5 117.5t18.5 111.5q0 121 -95 121q-65 0 -105 -49t-58 -178h-21l29 209q15 0 64.5 19.5t92.5 19.5q69 0 105.5 -37t36.5 -111q0 -53 -19 -111.5t-44 -105.5t-73 -111.5t-82 -105t-96 -110.5h218q29 0 40 10.5t20.5 52 t22.5 150.5h21l-27 -252h-340z" />
<glyph unicode="&#xb3;" horiz-adv-x="411" d="M25 1174h20q19 -139 58 -191.5t106 -52.5q62 0 95.5 57.5t33.5 147.5q0 81 -31.5 128.5t-83.5 47.5q-44 0 -102 -33l-10 18q8 6 33.5 24.5t37 27.5t33.5 28t33.5 35t24.5 37.5t18.5 46t5.5 51.5q0 38 -19.5 62t-58.5 24q-122 0 -158 -227h-20l31 209q16 0 65 19.5 t88 19.5q55 0 87 -28t32 -83q0 -67 -37 -123t-102 -94q84 23 133 -28t49 -160q0 -110 -50.5 -170t-125.5 -60q-49 0 -95.5 19.5t-60.5 19.5z" />
<glyph unicode="&#xb4;" horiz-adv-x="481" d="M82 1245l194 49q123 43 123 -34l-311 -41z" />
<glyph unicode="&#xb6;" horiz-adv-x="751" d="M61 1130q0 120 91.5 212t240.5 92h400v-1536h-41v1495h-236v-1495h-41v929h-82q-149 0 -240.5 91.5t-91.5 211.5z" />
<glyph unicode="&#xb7;" horiz-adv-x="256" d="M61 455q0 29 17 49t43 20q25 0 41 -20t16 -49q0 -31 -16 -51.5t-41 -20.5q-26 0 -43 20.5t-17 51.5z" />
<glyph unicode="&#xb8;" horiz-adv-x="462" d="M82 -184h39q22 -109 54 -145t75 -36q76 0 76 80q0 118 -146 179v20l37 86h45l-39 -90q68 -18 113 -69.5t45 -119.5q0 -60 -35 -93.5t-92 -33.5q-35 0 -72.5 15.5t-62.5 15.5z" />
<glyph unicode="&#xb9;" horiz-adv-x="217" d="M16 1509v17q68 0 87.5 20.5t31.5 106.5h10v-641q0 -49 10.5 -63.5t45.5 -16.5v-10h-152v10q34 2 43.5 16.5t9.5 63.5v446q0 24 -3.5 32.5t-21.5 13.5t-61 5z" />
<glyph unicode="&#xba;" horiz-adv-x="610" d="M43 1075q0 190 72 283.5t190 93.5t190 -93.5t72 -283.5q0 -191 -71.5 -284t-190.5 -93q-117 0 -189.5 94t-72.5 283zM90 1075q0 -177 56.5 -262.5t158.5 -85.5t158.5 86t56.5 262t-56.5 262t-158.5 86q-101 0 -158 -85t-57 -263z" />
<glyph unicode="&#xbb;" horiz-adv-x="702" d="M61 211l263 303l-263 303l29 21l236 -224q31 -34 43 -54.5t12 -45.5q0 -42 -55 -100l-236 -224zM301 211l262 303l-262 303l29 21l235 -224q31 -35 43.5 -55.5t12.5 -44.5q0 -41 -56 -100l-235 -224z" />
<glyph unicode="&#xbc;" horiz-adv-x="778" d="M-18 0l610 1434h43l-612 -1434h-41zM16 1305v16q68 0 87.5 20.5t31.5 106.5h10v-641q0 -49 10.5 -63.5t45.5 -16.5v-10h-152v10q34 2 43.5 16.5t9.5 63.5v446q0 24 -3.5 32.5t-21.5 14t-61 5.5zM338 188v21l270 524h10q10 -23 37 -28v-480h99v-37h-99v-98q0 -49 10 -63.5 t44 -16.5v-10h-146v10q32 1 40.5 16.5t8.5 63.5v98h-274zM371 225h241v465z" />
<glyph unicode="&#xbd;" horiz-adv-x="792" d="M-18 0l610 1434h43l-612 -1434h-41zM16 1305v16q68 0 87.5 20.5t31.5 106.5h10v-641q0 -49 10.5 -63.5t45.5 -16.5v-10h-152v10q34 2 43.5 16.5t9.5 63.5v446q0 24 -3.5 32.5t-21.5 14t-61 5.5zM401 0v20q29 44 80.5 113t86 118t70.5 109.5t54.5 118t18.5 111.5 q0 121 -95 121q-65 0 -105 -49.5t-58 -178.5h-21l29 209q15 0 64.5 19.5t92.5 19.5q142 0 142 -147q0 -53 -19 -111.5t-44 -106t-73 -111.5t-82.5 -105.5t-95.5 -110.5h218q29 0 40 10.5t21 52.5t23 150h20l-27 -252h-340z" />
<glyph unicode="&#xbe;" horiz-adv-x="972" d="M25 969h20q19 -139 58 -191.5t106 -52.5q62 0 95.5 57.5t33.5 147.5q0 81 -31.5 128.5t-83.5 47.5q-44 0 -102 -33l-10 19q8 6 33.5 24t37.5 28t33.5 28.5t33 34t24.5 37t18.5 46t5.5 51.5q0 38 -19.5 62t-58.5 24q-122 0 -158 -227h-20l31 209q16 0 65 19.5t88 19.5 q55 0 87 -28t32 -83q0 -67 -37 -123t-102 -94q84 23 133 -28t49 -160q0 -110 -50.5 -170t-125.5 -60q-49 0 -95.5 19.5t-60.5 19.5zM176 0l610 1434h43l-612 -1434h-41zM532 188v21l271 524h10q10 -23 37 -28v-480h98v-37h-98v-98q0 -49 9.5 -63.5t43.5 -16.5v-10h-145v10 q32 1 40.5 16.5t8.5 63.5v98h-275zM565 225h242v465z" />
<glyph unicode="&#xbf;" horiz-adv-x="638" d="M51 -233q0 48 10.5 91.5t34 84t38.5 63t48 62t39 47.5q47 63 67.5 117t29 151t8.5 293h41q0 -206 -6.5 -300t-28 -159t-70.5 -129q-13 -21 -45.5 -64t-52.5 -73t-37.5 -80t-17.5 -104q0 -75 38 -118.5t101 -43.5q42 0 74 8t68.5 35.5t63.5 75.5t51.5 133t41.5 204h41 l-72 -419q-30 -7 -75 -28t-92.5 -35.5t-104.5 -14.5q-87 0 -140 53t-53 150zM287 985q0 31 16.5 50.5t42.5 19.5q25 0 41 -19.5t16 -50.5t-16 -50.5t-41 -19.5q-26 0 -42.5 19.5t-16.5 50.5z" />
<glyph unicode="&#xc0;" horiz-adv-x="1009" d="M27 0v20q66 0 93 27t50 119l315 1237l-4 20v21q19 4 23 16h20l316 -1292q23 -93 50 -120.5t93 -27.5v-20h-301v20q92 0 110.5 27t-6.5 121l-57 235h-455l-61 -237q-25 -92 -7 -119t111 -27v-20h-290zM285 444h434l-211 873zM346 1628q0 78 123 35l195 -49l-5 -27z" />
<glyph unicode="&#xc1;" horiz-adv-x="1009" d="M27 0v20q66 0 93 27t50 119l315 1237l-4 20v21q19 4 23 16h20l316 -1292q23 -93 50 -120.5t93 -27.5v-20h-301v20q92 0 110.5 27t-6.5 121l-57 235h-455l-61 -237q-25 -92 -7 -119t111 -27v-20h-290zM285 444h434l-211 873zM352 1614l195 49q123 43 123 -35l-312 -41z " />
<glyph unicode="&#xc2;" horiz-adv-x="1009" d="M27 0v20q66 0 93 27t50 119l315 1237l-4 20v21q19 4 23 16h20l316 -1292q23 -93 50 -120.5t93 -27.5v-20h-301v20q92 0 110.5 27t-6.5 121l-57 235h-455l-61 -237q-25 -92 -7 -119t111 -27v-20h-290zM285 444h434l-211 873zM287 1573l143 131q24 26 40 36.5t38 10.5 q14 0 27 -6.5t21.5 -13.5t29.5 -27l143 -131l-27 -25l-194 158l-195 -158z" />
<glyph unicode="&#xc3;" horiz-adv-x="1009" d="M27 0v20q66 0 93 27t50 119l315 1237l-4 20v21q19 4 23 16h20l316 -1292q23 -93 50 -120.5t93 -27.5v-20h-301v20q92 0 110.5 27t-6.5 121l-57 235h-455l-61 -237q-25 -92 -7 -119t111 -27v-20h-290zM258 1587q42 164 148 164q30 0 56.5 -12.5t46 -30.5t37 -36.5 t38.5 -31t43 -12.5q37 0 58 27t36 80l39 -9q-19 -76 -49 -114.5t-86 -38.5q-37 0 -69.5 19.5t-52.5 43t-47 43t-53 19.5q-38 0 -64.5 -33t-41.5 -86zM285 444h434l-211 873z" />
<glyph unicode="&#xc4;" horiz-adv-x="1009" d="M27 0v20q66 0 93 27t50 119l315 1237l-4 20v21q19 4 23 16h20l316 -1292q23 -93 50 -120.5t93 -27.5v-20h-301v20q92 0 110.5 27t-6.5 121l-57 235h-455l-61 -237q-25 -92 -7 -119t111 -27v-20h-290zM285 444h434l-211 873zM338 1655q0 23 17 39t42 16t41.5 -16t16.5 -39 t-16.5 -39.5t-41.5 -16.5t-42 16.5t-17 39.5zM563 1655q0 23 17.5 39t42.5 16t41 -16t16 -39t-16 -39.5t-41 -16.5t-42.5 16.5t-17.5 39.5z" />
<glyph unicode="&#xc5;" horiz-adv-x="1009" d="M27 0v20q66 0 93 27t50 119l315 1237l-4 20v21q19 4 23 16h20l316 -1292q23 -93 50 -120.5t93 -27.5v-20h-301v20q92 0 110.5 27t-6.5 121l-57 235h-455l-61 -237q-25 -92 -7 -119t111 -27v-20h-290zM285 444h434l-211 873zM360 1669q0 63 42.5 108.5t107.5 45.5 q63 0 105 -45.5t42 -108.5t-42 -108t-105 -45q-65 0 -107.5 45t-42.5 108zM399 1669q0 -46 31.5 -81.5t79.5 -35.5t79.5 35.5t31.5 81.5q0 47 -31.5 83t-79.5 36t-79.5 -36t-31.5 -83z" />
<glyph unicode="&#xc6;" horiz-adv-x="1343" d="M20 0v20q73 0 107.5 27t67.5 113l464 1216q-15 37 -88 37v21h650l51 -461h-41q-35 302 -46 348q-13 58 -40 68q-12 4 -45 4h-375v-611h252q31 0 35.5 27t-5.5 141q0 9 -0.5 15t-1 15t-1.5 17h40l48 -491h-41q-6 40 -14 102q-12 93 -21.5 113t-46.5 20h-244v-700h405 q45 0 59 13q23 21 39 131q7 45 34 276h41l-52 -461h-680v20q66 0 84.5 28t18.5 124v215h-348l-88 -227q-35 -88 -18.5 -114t116.5 -26v-20h-316zM340 428h334v834v34z" />
<glyph unicode="&#xc7;" horiz-adv-x="937" d="M61 748q0 186 36.5 327t99 223t138.5 122t163 40q56 0 105 -13t76 -28t55.5 -28t49.5 -13l62 -405h-41q-19 134 -49 224.5t-71.5 137.5t-85.5 65.5t-101 18.5q-74 0 -140 -39.5t-120.5 -118t-86.5 -211t-32 -302.5q0 -326 108.5 -520.5t278.5 -194.5q144 0 230.5 125 t131.5 420l39 -7q-22 -161 -56.5 -275t-81.5 -182t-101.5 -100.5t-124.5 -38.5l-29 -65q68 -18 113 -69.5t45 -119.5q0 -60 -35 -93.5t-92 -33.5q-35 0 -72.5 15.5t-62.5 15.5l-37 191h39q22 -109 54 -145t75 -36q75 0 75 80q0 119 -145 179v20l25 59q-195 5 -315 210.5 t-120 564.5z" />
<glyph unicode="&#xc8;" horiz-adv-x="815" d="M43 0v20q65 0 83.5 28t18.5 124v1090q0 96 -18 123.5t-84 27.5v21h649l51 -461h-41q-35 302 -46 348q-13 58 -40 68q-13 4 -45 4h-374v-611h252q31 0 35 26t-5 133q-1 12 -1.5 18.5t-1 17.5t-1.5 20h41l47 -491h-41q-6 40 -14 102q-12 93 -21.5 113t-46.5 20h-243v-700 h405q22 0 31 1.5t21.5 6.5t18 20t12.5 36.5t12 61.5t11.5 89.5t15.5 126.5q6 50 9 78h41l-51 -461h-680zM238 1628q0 78 122 35l195 -49l-4 -27z" />
<glyph unicode="&#xc9;" horiz-adv-x="815" d="M43 0v20q65 0 83.5 28t18.5 124v1090q0 96 -18 123.5t-84 27.5v21h649l51 -461h-41q-35 302 -46 348q-13 58 -40 68q-13 4 -45 4h-374v-611h252q31 0 35 26t-5 133q-1 12 -1.5 18.5t-1 17.5t-1.5 20h41l47 -491h-41q-6 40 -14 102q-12 93 -21.5 113t-46.5 20h-243v-700 h405q22 0 31 1.5t21.5 6.5t18 20t12.5 36.5t12 61.5t11.5 89.5t15.5 126.5q6 50 9 78h41l-51 -461h-680zM244 1614l194 49q123 43 123 -35l-311 -41z" />
<glyph unicode="&#xca;" horiz-adv-x="815" d="M43 0v20q65 0 83.5 28t18.5 124v1090q0 96 -18 123.5t-84 27.5v21h649l51 -461h-41q-35 302 -46 348q-13 58 -40 68q-13 4 -45 4h-374v-611h252q31 0 35 26t-5 133q-1 12 -1.5 18.5t-1 17.5t-1.5 20h41l47 -491h-41q-6 40 -14 102q-12 93 -21.5 113t-46.5 20h-243v-700 h405q22 0 31 1.5t21.5 6.5t18 20t12.5 36.5t12 61.5t11.5 89.5t15.5 126.5q6 50 9 78h41l-51 -461h-680zM176 1573l143 131q24 26 40 36.5t38 10.5q14 0 27 -6.5t21.5 -13.5t29.5 -27l143 -131l-26 -25l-195 158l-194 -158z" />
<glyph unicode="&#xcb;" horiz-adv-x="815" d="M43 0v20q65 0 83.5 28t18.5 124v1090q0 96 -18 123.5t-84 27.5v21h649l51 -461h-41q-35 302 -46 348q-13 58 -40 68q-13 4 -45 4h-374v-611h252q31 0 35 26t-5 133q-1 12 -1.5 18.5t-1 17.5t-1.5 20h41l47 -491h-41q-6 40 -14 102q-12 93 -21.5 113t-46.5 20h-243v-700 h405q22 0 31 1.5t21.5 6.5t18 20t12.5 36.5t12 61.5t11.5 89.5t15.5 126.5q6 50 9 78h41l-51 -461h-680zM227 1655q0 23 17.5 39t42.5 16t41 -16t16 -39t-16 -39.5t-41 -16.5t-42.5 16.5t-17.5 39.5zM453 1655q0 23 17 39t42 16t41 -16t16 -39t-16.5 -39.5t-40.5 -16.5 q-25 0 -42 16.5t-17 39.5z" />
<glyph unicode="&#xcc;" horiz-adv-x="339" d="M10 1628q0 78 123 35l195 -49l-4 -27zM43 0v20q65 0 83.5 28t18.5 124v1090q0 96 -18 123.5t-84 27.5v21h254v-21q-65 0 -82.5 -27t-17.5 -124v-1090q0 -97 17.5 -124.5t82.5 -27.5v-20h-254z" />
<glyph unicode="&#xcd;" horiz-adv-x="339" d="M16 1614l195 49q123 43 123 -35l-311 -41zM43 0v20q65 0 83.5 28t18.5 124v1090q0 96 -18 123.5t-84 27.5v21h254v-21q-65 0 -82.5 -27t-17.5 -124v-1090q0 -97 17.5 -124.5t82.5 -27.5v-20h-254z" />
<glyph unicode="&#xce;" horiz-adv-x="339" d="M-51 1573l143 131q24 26 40 36.5t38 10.5q14 0 27 -6.5t21.5 -13.5t29.5 -27l143 -131l-26 -25l-195 158l-195 -158zM43 0v20q65 0 83.5 28t18.5 124v1090q0 96 -18 123.5t-84 27.5v21h254v-21q-65 0 -82.5 -27t-17.5 -124v-1090q0 -97 17.5 -124.5t82.5 -27.5v-20h-254z " />
<glyph unicode="&#xcf;" horiz-adv-x="339" d="M0 1655q0 23 17 39t42 16t41.5 -16t16.5 -39t-16.5 -39.5t-41.5 -16.5t-42 16.5t-17 39.5zM43 0v20q65 0 83.5 28t18.5 124v1090q0 96 -18 123.5t-84 27.5v21h254v-21q-65 0 -82.5 -27t-17.5 -124v-1090q0 -97 17.5 -124.5t82.5 -27.5v-20h-254zM225 1655q0 23 17.5 39 t42.5 16t41 -16t16 -39t-16 -39.5t-41 -16.5t-42.5 16.5t-17.5 39.5z" />
<glyph unicode="&#xd0;" horiz-adv-x="911" d="M41 696v41h104v525q0 96 -18 123.5t-84 27.5v21l131 2q19 1 91.5 12.5t135.5 11.5q100 0 179 -40t141 -126t95.5 -234.5t33.5 -352.5q0 -734 -449 -734q-65 0 -136.5 12.5t-90.5 14.5h-131v20q65 0 83.5 28t18.5 124v524h-104zM197 43q76 -27 184 -27q75 0 135 19.5 t113 68t88.5 126t55.5 198t20 279.5q0 161 -20 284t-55.5 203.5t-88 131.5t-113 72t-135.5 21q-111 0 -184 -26v-656h315v-41h-315v-653z" />
<glyph unicode="&#xd1;" horiz-adv-x="1021" d="M45 0v20q65 0 83.5 28t18.5 124v1198q-22 25 -45 34t-57 9v21h139l672 -1315v1143q0 96 -18 123.5t-82 27.5v21h243v-21q-66 0 -84 -27.5t-18 -123.5v-1262h-41l-653 1280l-15 27v-1135q0 -96 18 -124t83 -28v-20h-244zM260 1628q42 164 148 164q30 0 56.5 -12.5t46 -31 t37 -36.5t38.5 -30.5t43 -12.5q37 0 58 27t36 80l39 -9q-19 -76 -49 -114.5t-86 -38.5q-37 0 -69.5 19.5t-52 43t-46.5 43t-53 19.5q-38 0 -65.5 -33t-41.5 -86z" />
<glyph unicode="&#xd2;" horiz-adv-x="1056" d="M61 717q0 187 37.5 332t102.5 233t148 133t179 45t179 -44.5t148 -132.5t102.5 -233.5t37.5 -332.5q0 -188 -37 -333t-102 -233.5t-148 -133t-180 -44.5q-96 0 -179 45t-148 133.5t-102.5 233.5t-37.5 332zM119 717q0 -178 34.5 -316.5t93 -220.5t130 -123t151.5 -41 q81 0 152.5 41t130.5 123t93 220t34 317q0 144 -22.5 262.5t-61.5 198.5t-91.5 135.5t-111.5 80.5t-123 25q-80 0 -151.5 -41.5t-130 -124t-93 -220.5t-34.5 -316zM367 1628q0 78 122 35l195 -49l-4 -27z" />
<glyph unicode="&#xd3;" horiz-adv-x="1056" d="M61 717q0 187 37.5 332t102.5 233t148 133t179 45t179 -44.5t148 -132.5t102.5 -233.5t37.5 -332.5q0 -188 -37 -333t-102 -233.5t-148 -133t-180 -44.5q-96 0 -179 45t-148 133.5t-102.5 233.5t-37.5 332zM119 717q0 -178 34.5 -316.5t93 -220.5t130 -123t151.5 -41 q81 0 152.5 41t130.5 123t93 220t34 317q0 144 -22.5 262.5t-61.5 198.5t-91.5 135.5t-111.5 80.5t-123 25q-80 0 -151.5 -41.5t-130 -124t-93 -220.5t-34.5 -316zM373 1614l194 49q123 43 123 -35l-311 -41z" />
<glyph unicode="&#xd4;" horiz-adv-x="1056" d="M61 717q0 187 37.5 332t102.5 233t148 133t179 45t179 -44.5t148 -132.5t102.5 -233.5t37.5 -332.5q0 -188 -37 -333t-102 -233.5t-148 -133t-180 -44.5q-96 0 -179 45t-148 133.5t-102.5 233.5t-37.5 332zM119 717q0 -178 34.5 -316.5t93 -220.5t130 -123t151.5 -41 q81 0 152.5 41t130.5 123t93 220t34 317q0 144 -22.5 262.5t-61.5 198.5t-91.5 135.5t-111.5 80.5t-123 25q-80 0 -151.5 -41.5t-130 -124t-93 -220.5t-34.5 -316zM307 1573l144 131q25 26 40 36.5t37 10.5q14 0 27 -6.5t21.5 -13.5t29.5 -27l144 -131l-27 -25l-195 158 l-194 -158z" />
<glyph unicode="&#xd5;" horiz-adv-x="1056" d="M61 717q0 187 37.5 332t102.5 233t148 133t179 45t179 -44.5t148 -132.5t102.5 -233.5t37.5 -332.5q0 -188 -37 -333t-102 -233.5t-148 -133t-180 -44.5q-96 0 -179 45t-148 133.5t-102.5 233.5t-37.5 332zM119 717q0 -178 34.5 -316.5t93 -220.5t130 -123t151.5 -41 q81 0 152.5 41t130.5 123t93 220t34 317q0 144 -22.5 262.5t-61.5 198.5t-91.5 135.5t-111.5 80.5t-123 25q-80 0 -151.5 -41.5t-130 -124t-93 -220.5t-34.5 -316zM279 1587q42 164 147 164q30 0 56.5 -12.5t46 -30.5t37 -36.5t38.5 -31t43 -12.5q37 0 58 27t36 80l39 -9 q-19 -76 -49 -114.5t-86 -38.5q-37 0 -69.5 19.5t-52 43t-46.5 43t-53 19.5q-38 0 -65.5 -33t-41.5 -86z" />
<glyph unicode="&#xd6;" horiz-adv-x="1056" d="M61 717q0 187 37.5 332t102.5 233t148 133t179 45t179 -44.5t148 -132.5t102.5 -233.5t37.5 -332.5q0 -188 -37 -333t-102 -233.5t-148 -133t-180 -44.5q-96 0 -179 45t-148 133.5t-102.5 233.5t-37.5 332zM119 717q0 -178 34.5 -316.5t93 -220.5t130 -123t151.5 -41 q81 0 152.5 41t130.5 123t93 220t34 317q0 144 -22.5 262.5t-61.5 198.5t-91.5 135.5t-111.5 80.5t-123 25q-80 0 -151.5 -41.5t-130 -124t-93 -220.5t-34.5 -316zM358 1655q0 23 17.5 39t42.5 16t41 -16t16 -39t-16.5 -39.5t-40.5 -16.5q-25 0 -42.5 16.5t-17.5 39.5z M584 1655q0 23 17 39t42 16t41 -16t16 -39t-16 -39.5t-41 -16.5t-42 16.5t-17 39.5z" />
<glyph unicode="&#xd7;" horiz-adv-x="526" d="M82 274l158 240l-156 238h49l131 -201l131 201h49l-155 -238l155 -240h-49l-131 203l-133 -203h-49z" />
<glyph unicode="&#xd8;" horiz-adv-x="1056" d="M61 717q0 187 37.5 332t102.5 233t148 133t179 45q62 0 117 -18l37 196h41l-39 -211q142 -62 226.5 -240.5t84.5 -469.5q0 -188 -37 -333t-102 -233.5t-148 -133t-180 -44.5q-57 0 -116 19l-37 -197h-43l41 211q-141 64 -226.5 243.5t-85.5 467.5zM119 717 q0 -265 72.5 -432t189.5 -232l256 1346q-50 20 -109 20q-80 0 -151.5 -41.5t-130 -124t-93 -220.5t-34.5 -316zM420 37q52 -21 108 -21q81 0 152.5 41t130.5 123t93 220t34 317q0 267 -72.5 433.5t-191.5 231.5z" />
<glyph unicode="&#xd9;" horiz-adv-x="989" d="M33 1413v21h254v-21q-65 0 -83 -27.5t-18 -123.5v-811q0 -217 84.5 -320.5t239.5 -103.5t240.5 102t85.5 297v836q0 96 -18.5 123.5t-84.5 27.5v21h244v-21q-65 0 -82.5 -27t-17.5 -124v-840q0 -214 -94.5 -331.5t-272.5 -117.5q-177 0 -276 113.5t-99 357.5v818 q0 96 -18 123.5t-84 27.5zM346 1628q0 78 123 35l195 -49l-5 -27z" />
<glyph unicode="&#xda;" horiz-adv-x="989" d="M33 1413v21h254v-21q-65 0 -83 -27.5t-18 -123.5v-811q0 -217 84.5 -320.5t239.5 -103.5t240.5 102t85.5 297v836q0 96 -18.5 123.5t-84.5 27.5v21h244v-21q-65 0 -82.5 -27t-17.5 -124v-840q0 -214 -94.5 -331.5t-272.5 -117.5q-177 0 -276 113.5t-99 357.5v818 q0 96 -18 123.5t-84 27.5zM352 1614l195 49q123 43 123 -35l-312 -41z" />
<glyph unicode="&#xdb;" horiz-adv-x="989" d="M33 1413v21h254v-21q-65 0 -83 -27.5t-18 -123.5v-811q0 -217 84.5 -320.5t239.5 -103.5t240.5 102t85.5 297v836q0 96 -18.5 123.5t-84.5 27.5v21h244v-21q-65 0 -82.5 -27t-17.5 -124v-840q0 -214 -94.5 -331.5t-272.5 -117.5q-177 0 -276 113.5t-99 357.5v818 q0 96 -18 123.5t-84 27.5zM287 1573l143 131q24 26 40 36.5t38 10.5q14 0 27 -6.5t21.5 -13.5t29.5 -27l143 -131l-27 -25l-194 158l-195 -158z" />
<glyph unicode="&#xdc;" horiz-adv-x="989" d="M33 1413v21h254v-21q-65 0 -83 -27.5t-18 -123.5v-811q0 -217 84.5 -320.5t239.5 -103.5t240.5 102t85.5 297v836q0 96 -18.5 123.5t-84.5 27.5v21h244v-21q-65 0 -82.5 -27t-17.5 -124v-840q0 -214 -94.5 -331.5t-272.5 -117.5q-177 0 -276 113.5t-99 357.5v818 q0 96 -18 123.5t-84 27.5zM338 1655q0 23 17 39t42 16t41.5 -16t16.5 -39t-16.5 -39.5t-41.5 -16.5t-42 16.5t-17 39.5zM563 1655q0 23 17.5 39t42.5 16t41 -16t16 -39t-16 -39.5t-41 -16.5t-42.5 16.5t-17.5 39.5z" />
<glyph unicode="&#xdd;" horiz-adv-x="1042" d="M23 1413v21h294v-21q-86 0 -96.5 -24.5t29.5 -112.5l282 -643l275 643q39 88 28.5 112.5t-96.5 24.5v21h281v-21q-67 0 -99.5 -26t-68.5 -113l-301 -729v-373q0 -96 18.5 -124t83.5 -28v-20h-254v20q64 0 82.5 28t18.5 124v379l-310 725q-36 86 -68 111.5t-99 25.5z M381 1614l194 49q123 43 123 -35l-311 -41z" />
<glyph unicode="&#xde;" horiz-adv-x="817" d="M43 0v20q65 0 83.5 28t18.5 124v1090q0 96 -18 123.5t-84 27.5v21h254v-21q-65 0 -82.5 -27t-17.5 -124v-95q45 15 71.5 22.5t70.5 14t91 6.5q48 0 93 -14.5t90 -49.5t78 -88.5t54 -138t21 -190.5t-20.5 -191t-54 -138.5t-78.5 -89t-90 -50t-93 -14.5q-107 0 -233 45 v-119q0 -97 17.5 -124.5t82.5 -27.5v-20h-254zM197 332q142 -45 223 -45q45 0 85 12.5t78.5 44t65.5 80t43.5 127t16.5 178.5q0 124 -24.5 213.5t-67 137t-91 68.5t-106.5 21q-81 0 -223 -45v-792z" />
<glyph unicode="&#xdf;" horiz-adv-x="899" d="M20 1004v20h105v12q0 217 73 320.5t199 103.5q119 0 189.5 -95t70.5 -253q-98 -49 -145 -101t-47 -128q0 -46 21 -89.5t55 -80.5t74.5 -75t81.5 -81.5t75 -90.5t55 -110.5t21 -134.5q0 -121 -56.5 -184.5t-140.5 -63.5q-59 0 -139.5 22.5t-91.5 24.5l-62 359h41 q10 -73 26 -131.5t32.5 -95.5t38.5 -64t40 -40.5t41.5 -21t37.5 -9t34 -1.5q57 0 99.5 50.5t42.5 154.5q0 69 -21 130t-54 105.5t-73.5 85t-80.5 78t-73 75.5t-54 85t-21 99q0 86 49 141.5t143 107.5q0 138 -61 214.5t-148 76.5q-106 0 -163.5 -98.5t-57.5 -284.5v-1036 h-153v20q65 0 83.5 28t18.5 124v727q0 60 -26 82.5t-79 22.5z" />
<glyph unicode="&#xe0;" horiz-adv-x="854" d="M61 377q0 103 27.5 182.5t74 125.5t102 68.5t118.5 22.5q95 0 169.5 -57.5t111.5 -157.5v135q0 162 -58.5 238t-159.5 76q-93 0 -174 -57.5t-116 -168.5h-41l61 189q27 0 66.5 19.5t94.5 39t118 19.5q260 0 260 -355v-503q0 -37 0.5 -56t4 -37t9 -23t17.5 -6t27 6t40 21 l10 -18l-141 -78q-6 -4 -10 -4q-8 0 -8 14v183q-37 -103 -112.5 -162.5t-170.5 -59.5q-62 0 -117.5 23.5t-101.5 70t-73.5 127t-27.5 183.5zM119 377q0 -170 76 -265.5t190 -95.5q51 0 100 22.5t89.5 65t65 113.5t24.5 160q0 88 -24.5 159t-65 113t-88.5 64t-99 22 q-116 0 -192 -94t-76 -264zM276 1260q0 77 123 34l195 -49l-4 -26z" />
<glyph unicode="&#xe1;" horiz-adv-x="854" d="M61 377q0 103 27.5 182.5t74 125.5t102 68.5t118.5 22.5q95 0 169.5 -57.5t111.5 -157.5v135q0 162 -58.5 238t-159.5 76q-93 0 -174 -57.5t-116 -168.5h-41l61 189q27 0 66.5 19.5t94.5 39t118 19.5q260 0 260 -355v-503q0 -37 0.5 -56t4 -37t9 -23t17.5 -6t27 6t40 21 l10 -18l-141 -78q-6 -4 -10 -4q-8 0 -8 14v183q-37 -103 -112.5 -162.5t-170.5 -59.5q-62 0 -117.5 23.5t-101.5 70t-73.5 127t-27.5 183.5zM119 377q0 -170 76 -265.5t190 -95.5q51 0 100 22.5t89.5 65t65 113.5t24.5 160q0 88 -24.5 159t-65 113t-88.5 64t-99 22 q-116 0 -192 -94t-76 -264zM283 1245l194 49q123 43 123 -34l-311 -41z" />
<glyph unicode="&#xe2;" horiz-adv-x="854" d="M61 377q0 103 27.5 182.5t74 125.5t102 68.5t118.5 22.5q95 0 169.5 -57.5t111.5 -157.5v135q0 162 -58.5 238t-159.5 76q-93 0 -174 -57.5t-116 -168.5h-41l61 189q27 0 66.5 19.5t94.5 39t118 19.5q260 0 260 -355v-503q0 -37 0.5 -56t4 -37t9 -23t17.5 -6t27 6t40 21 l10 -18l-141 -78q-6 -4 -10 -4q-8 0 -8 14v183q-37 -103 -112.5 -162.5t-170.5 -59.5q-62 0 -117.5 23.5t-101.5 70t-73.5 127t-27.5 183.5zM119 377q0 -170 76 -265.5t190 -95.5q51 0 100 22.5t89.5 65t65 113.5t24.5 160q0 88 -24.5 159t-65 113t-88.5 64t-99 22 q-116 0 -192 -94t-76 -264zM217 1204l143 131q24 26 40 36.5t38 10.5q14 0 27 -6.5t21.5 -13.5t29.5 -27l143 -131l-26 -24l-195 157l-194 -157z" />
<glyph unicode="&#xe3;" horiz-adv-x="854" d="M61 377q0 103 27.5 182.5t74 125.5t102 68.5t118.5 22.5q95 0 169.5 -57.5t111.5 -157.5v135q0 162 -58.5 238t-159.5 76q-93 0 -174 -57.5t-116 -168.5h-41l61 189q27 0 66.5 19.5t94.5 39t118 19.5q260 0 260 -355v-503q0 -37 0.5 -56t4 -37t9 -23t17.5 -6t27 6t40 21 l10 -18l-141 -78q-6 -4 -10 -4q-8 0 -8 14v183q-37 -103 -112.5 -162.5t-170.5 -59.5q-62 0 -117.5 23.5t-101.5 70t-73.5 127t-27.5 183.5zM119 377q0 -170 76 -265.5t190 -95.5q51 0 100 22.5t89.5 65t65 113.5t24.5 160q0 88 -24.5 159t-65 113t-88.5 64t-99 22 q-116 0 -192 -94t-76 -264zM188 1219q42 163 148 163q37 0 69.5 -19t52 -42t46.5 -42t53 -19q37 0 58 26.5t36 79.5l39 -8q-19 -76 -49 -115t-86 -39q-37 0 -69.5 19.5t-52 43t-46.5 43t-53 19.5q-38 0 -65.5 -33t-41.5 -86z" />
<glyph unicode="&#xe4;" horiz-adv-x="854" d="M61 377q0 103 27.5 182.5t74 125.5t102 68.5t118.5 22.5q95 0 169.5 -57.5t111.5 -157.5v135q0 162 -58.5 238t-159.5 76q-93 0 -174 -57.5t-116 -168.5h-41l61 189q27 0 66.5 19.5t94.5 39t118 19.5q260 0 260 -355v-503q0 -37 0.5 -56t4 -37t9 -23t17.5 -6t27 6t40 21 l10 -18l-141 -78q-6 -4 -10 -4q-8 0 -8 14v183q-37 -103 -112.5 -162.5t-170.5 -59.5q-62 0 -117.5 23.5t-101.5 70t-73.5 127t-27.5 183.5zM119 377q0 -170 76 -265.5t190 -95.5q51 0 100 22.5t89.5 65t65 113.5t24.5 160q0 88 -24.5 159t-65 113t-88.5 64t-99 22 q-116 0 -192 -94t-76 -264zM268 1286q0 23 17.5 39t42.5 16t41 -16t16 -39t-16 -39t-41 -16t-42.5 16t-17.5 39zM494 1286q0 23 17 39t42 16t41 -16t16 -39t-16 -39t-41 -16t-42 16t-17 39z" />
<glyph unicode="&#xe5;" horiz-adv-x="854" d="M61 377q0 103 27.5 182.5t74 125.5t102 68.5t118.5 22.5q95 0 169.5 -57.5t111.5 -157.5v135q0 162 -58.5 238t-159.5 76q-93 0 -174 -57.5t-116 -168.5h-41l61 189q27 0 66.5 19.5t94.5 39t118 19.5q260 0 260 -355v-503q0 -37 0.5 -56t4 -37t9 -23t17.5 -6t27 6t40 21 l10 -18l-141 -78q-6 -4 -10 -4q-8 0 -8 14v183q-37 -103 -112.5 -162.5t-170.5 -59.5q-62 0 -117.5 23.5t-101.5 70t-73.5 127t-27.5 183.5zM119 377q0 -170 76 -265.5t190 -95.5q51 0 100 22.5t89.5 65t65 113.5t24.5 160q0 88 -24.5 159t-65 113t-88.5 64t-99 22 q-116 0 -192 -94t-76 -264zM291 1300q0 63 42 108.5t107 45.5q63 0 105.5 -45.5t42.5 -108.5t-42.5 -108t-105.5 -45q-65 0 -107 45t-42 108zM330 1300q0 -46 31 -81t79 -35t79.5 35t31.5 81q0 47 -31.5 83t-79.5 36t-79 -35.5t-31 -83.5z" />
<glyph unicode="&#xe6;" horiz-adv-x="1386" d="M63 375q0 204 90 302.5t232 98.5q180 0 268 -194v114q0 163 -58.5 238.5t-160.5 75.5q-100 0 -182.5 -57t-124.5 -169h-41l82 189q25 0 62 19.5t90.5 39t119.5 19.5q222 0 256 -250q42 119 121.5 184.5t186.5 65.5q132 0 209 -104t92 -306h-586q-8 -49 -8 -121 q0 -134 33 -244t100.5 -179.5t159.5 -69.5q121 0 196 90.5t107 283.5l39 -6q-72 -422 -345 -422q-195 0 -286 203q-116 -203 -320 -203q-70 0 -129 22.5t-105 69.5t-72 126t-26 184zM121 375q0 -173 75.5 -266t200.5 -93q97 0 169 52.5t128 162.5q-38 112 -41 267 q-33 106 -100.5 171.5t-167.5 65.5q-122 0 -193 -93t-71 -267zM725 682h528q-14 165 -81.5 246.5t-167.5 81.5q-101 0 -176.5 -87t-102.5 -241z" />
<glyph unicode="&#xe7;" d="M61 530q0 235 94 378t259 143q48 0 90 -12t65 -27t49.5 -27t47.5 -12l41 -307h-41q-37 344 -252 344q-128 0 -211.5 -130.5t-83.5 -349.5q0 -140 32 -251.5t100.5 -181.5t164.5 -70q123 0 195 89t104 285l39 -6q-70 -399 -308 -420l-28 -65q68 -18 112.5 -69t44.5 -120 q0 -60 -34.5 -93.5t-91.5 -33.5q-35 0 -73 15.5t-63 15.5l-37 191h39q22 -109 54 -145t75 -36q76 0 76 80q0 119 -145 179v20l24 59q-162 6 -250 150.5t-88 406.5z" />
<glyph unicode="&#xe8;" d="M61 520q0 239 94.5 385t256.5 146q132 0 209 -104t92 -306h-586q-8 -49 -8 -121q0 -134 33 -244t100.5 -179.5t159.5 -69.5q121 0 196 90.5t107 283.5l39 -6q-72 -422 -344 -422q-162 0 -255.5 144.5t-93.5 402.5zM133 682h529q-14 165 -81.5 246.5t-168.5 81.5 t-176.5 -87t-102.5 -241zM244 1260q0 77 123 34l194 -49l-4 -26z" />
<glyph unicode="&#xe9;" d="M61 520q0 239 94.5 385t256.5 146q132 0 209 -104t92 -306h-586q-8 -49 -8 -121q0 -134 33 -244t100.5 -179.5t159.5 -69.5q121 0 196 90.5t107 283.5l39 -6q-72 -422 -344 -422q-162 0 -255.5 144.5t-93.5 402.5zM133 682h529q-14 165 -81.5 246.5t-168.5 81.5 t-176.5 -87t-102.5 -241zM250 1245l194 49q123 43 123 -34l-311 -41z" />
<glyph unicode="&#xea;" d="M61 520q0 239 94.5 385t256.5 146q132 0 209 -104t92 -306h-586q-8 -49 -8 -121q0 -134 33 -244t100.5 -179.5t159.5 -69.5q121 0 196 90.5t107 283.5l39 -6q-72 -422 -344 -422q-162 0 -255.5 144.5t-93.5 402.5zM133 682h529q-14 165 -81.5 246.5t-168.5 81.5 t-176.5 -87t-102.5 -241zM182 1204l144 131q25 26 40 36.5t37 10.5q14 0 27 -6.5t21.5 -13.5t29.5 -27l144 -131l-27 -24l-195 157l-194 -157z" />
<glyph unicode="&#xeb;" d="M61 520q0 239 94.5 385t256.5 146q132 0 209 -104t92 -306h-586q-8 -49 -8 -121q0 -134 33 -244t100.5 -179.5t159.5 -69.5q121 0 196 90.5t107 283.5l39 -6q-72 -422 -344 -422q-162 0 -255.5 144.5t-93.5 402.5zM133 682h529q-14 165 -81.5 246.5t-168.5 81.5 t-176.5 -87t-102.5 -241zM233 1286q0 23 17.5 39t42.5 16t41 -16t16 -39t-16 -39t-41 -16t-42.5 16t-17.5 39zM459 1286q0 23 17 39t42 16t41 -16t16 -39t-16 -39t-41 -16t-42 16t-17 39z" />
<glyph unicode="&#xec;" horiz-adv-x="317" d="M-8 1260q0 77 123 34l194 -49l-4 -26zM20 0v20q73 0 93 28t20 124v676q0 96 -20 123.5t-93 27.5v21l140 18q1 0 2 1t2 1h20v-868q0 -96 20.5 -124t92.5 -28v-20h-277z" />
<glyph unicode="&#xed;" horiz-adv-x="317" d="M-2 1245l195 49q122 43 122 -34l-311 -41zM20 0v20q73 0 93 28t20 124v676q0 96 -20 123.5t-93 27.5v21l140 18q1 0 2 1t2 1h20v-868q0 -96 20.5 -124t92.5 -28v-20h-277z" />
<glyph unicode="&#xee;" horiz-adv-x="317" d="M-70 1204l146 131q24 26 40 36.5t38 10.5q14 0 27 -6.5t20.5 -13t29.5 -27.5l144 -131l-27 -24l-194 157l-197 -157zM20 0v20q73 0 93 28t20 124v676q0 96 -20 123.5t-93 27.5v21l140 18q1 0 2 1t2 1h20v-868q0 -96 20.5 -124t92.5 -28v-20h-277z" />
<glyph unicode="&#xef;" horiz-adv-x="317" d="M-18 1286q0 23 18 39t43 16t41 -16t16 -39t-16 -39t-41 -16t-43 16t-18 39zM20 0v20q73 0 93 28t20 124v676q0 96 -20 123.5t-93 27.5v21l140 18q1 0 2 1t2 1h20v-868q0 -96 20.5 -124t92.5 -28v-20h-277zM209 1286q0 23 17 39t42 16t41.5 -16t16.5 -39t-16.5 -39 t-41.5 -16t-42 16t-17 39z" />
<glyph unicode="&#xf0;" horiz-adv-x="821" d="M61 516q0 140 28.5 246t77.5 167.5t108.5 91.5t127.5 30q175 0 299 -177q-48 262 -237 463l-180 -131l-25 31l176 131q-83 83 -176 152l14 36q112 -78 201 -161l195 143l24 -33l-190 -139q141 -144 208.5 -318.5t67.5 -412.5q0 -143 -22 -258.5t-58 -189.5t-84.5 -123.5 t-98.5 -70t-103 -20.5q-162 0 -257.5 136t-95.5 407zM119 516q0 -244 85 -372t210 -128q40 0 81.5 21t83 69.5t73 118.5t51.5 177t20 235q0 86 -10 178q-150 189 -303 189q-58 0 -108 -26.5t-92 -81.5t-66.5 -152.5t-24.5 -227.5z" />
<glyph unicode="&#xf1;" horiz-adv-x="884" d="M20 0v20q73 0 93 28t20 124v676q0 96 -20 123.5t-93 27.5v21l140 18q1 0 2 1t2 1h20v-139q173 150 328 150q110 0 175 -65.5t65 -201.5v-612q0 -96 20.5 -124t91.5 -28v-20h-276v20q73 0 92.5 27.5t19.5 124.5v612q0 114 -50 170t-142 56q-147 0 -324 -156v-682 q0 -96 20.5 -124t92.5 -28v-20h-277zM193 1219q42 163 147 163q37 0 69.5 -19t52 -42t46.5 -42t53 -19q37 0 58 26.5t36 79.5l39 -8q-19 -76 -49 -115t-86 -39q-37 0 -69.5 19.5t-52 43t-46.5 43t-53 19.5q-38 0 -65.5 -33t-41.5 -86z" />
<glyph unicode="&#xf2;" horiz-adv-x="864" d="M61 512q0 273 102 406t269 133t269 -133t102 -406q0 -274 -101.5 -406.5t-269.5 -132.5q-167 0 -269 133.5t-102 405.5zM119 512q0 -253 83 -374.5t230 -121.5t230 121.5t83 374.5t-83 375.5t-230 122.5q-146 0 -229.5 -122.5t-83.5 -375.5zM270 1260q0 77 123 34 l195 -49l-4 -26z" />
<glyph unicode="&#xf3;" horiz-adv-x="864" d="M61 512q0 273 102 406t269 133t269 -133t102 -406q0 -274 -101.5 -406.5t-269.5 -132.5q-167 0 -269 133.5t-102 405.5zM119 512q0 -253 83 -374.5t230 -121.5t230 121.5t83 374.5t-83 375.5t-230 122.5q-146 0 -229.5 -122.5t-83.5 -375.5zM276 1245l195 49 q123 43 123 -34l-311 -41z" />
<glyph unicode="&#xf4;" horiz-adv-x="864" d="M61 512q0 273 102 406t269 133t269 -133t102 -406q0 -274 -101.5 -406.5t-269.5 -132.5q-167 0 -269 133.5t-102 405.5zM119 512q0 -253 83 -374.5t230 -121.5t230 121.5t83 374.5t-83 375.5t-230 122.5q-146 0 -229.5 -122.5t-83.5 -375.5zM211 1204l143 131 q24 26 40 36.5t38 10.5q14 0 27 -6.5t21.5 -13.5t29.5 -27l143 -131l-26 -24l-195 157l-194 -157z" />
<glyph unicode="&#xf5;" horiz-adv-x="864" d="M61 512q0 273 102 406t269 133t269 -133t102 -406q0 -274 -101.5 -406.5t-269.5 -132.5q-167 0 -269 133.5t-102 405.5zM119 512q0 -253 83 -374.5t230 -121.5t230 121.5t83 374.5t-83 375.5t-230 122.5q-146 0 -229.5 -122.5t-83.5 -375.5zM182 1219q42 163 148 163 q37 0 69.5 -19t52 -42t46.5 -42t53 -19q37 0 58 26.5t36 79.5l39 -8q-19 -76 -49 -115t-86 -39q-37 0 -69.5 19.5t-52 43t-46.5 43t-53 19.5q-38 0 -65.5 -33t-41.5 -86z" />
<glyph unicode="&#xf6;" horiz-adv-x="864" d="M61 512q0 273 102 406t269 133t269 -133t102 -406q0 -274 -101.5 -406.5t-269.5 -132.5q-167 0 -269 133.5t-102 405.5zM119 512q0 -253 83 -374.5t230 -121.5t230 121.5t83 374.5t-83 375.5t-230 122.5q-146 0 -229.5 -122.5t-83.5 -375.5zM262 1286q0 23 17.5 39 t42.5 16t41 -16t16 -39t-16 -39t-41 -16t-42.5 16t-17.5 39zM487 1286q0 23 17.5 39t42.5 16t41 -16t16 -39t-16 -39t-41 -16t-42.5 16t-17.5 39z" />
<glyph unicode="&#xf7;" horiz-adv-x="698" d="M82 492v40h555v-40h-555zM283 287q0 29 19.5 50t47.5 21q26 0 46 -21t20 -50t-20 -50.5t-46 -21.5q-28 0 -47.5 21.5t-19.5 50.5zM283 737q0 29 19.5 50.5t47.5 21.5q26 0 46 -21.5t20 -50.5t-20 -50t-46 -21q-28 0 -47.5 21t-19.5 50z" />
<glyph unicode="&#xf8;" horiz-adv-x="864" d="M61 512q0 273 102 406t269 133q56 0 105 -15l45 193h43l-50 -207q106 -48 167 -175t61 -335q0 -274 -101.5 -406.5t-269.5 -132.5q-52 0 -102 15l-45 -193h-43l49 207q-108 48 -169 174.5t-61 335.5zM119 512q0 -372 182 -467l225 950q-43 15 -94 15 q-146 0 -229.5 -122.5t-83.5 -375.5zM340 31q43 -15 92 -15q147 0 230 121.5t83 374.5q0 373 -180 467z" />
<glyph unicode="&#xf9;" horiz-adv-x="874" d="M20 1004v20l140 20h4h20v-808q0 -114 51.5 -170t143.5 -56q153 0 311 137v705q0 97 -19.5 124.5t-92.5 27.5v20l139 20h4h20v-862q0 -96 20.5 -123.5t92.5 -27.5v-21l-139 -20h-4h-21v112q-52 -40 -87 -63.5t-99 -46.5t-129 -23q-112 0 -177 65.5t-65 201.5v616 q0 96 -20 124t-93 28zM264 1260q0 77 123 34l195 -49l-4 -26z" />
<glyph unicode="&#xfa;" horiz-adv-x="874" d="M20 1004v20l140 20h4h20v-808q0 -114 51.5 -170t143.5 -56q153 0 311 137v705q0 97 -19.5 124.5t-92.5 27.5v20l139 20h4h20v-862q0 -96 20.5 -123.5t92.5 -27.5v-21l-139 -20h-4h-21v112q-52 -40 -87 -63.5t-99 -46.5t-129 -23q-112 0 -177 65.5t-65 201.5v616 q0 96 -20 124t-93 28zM270 1245l195 49q123 43 123 -34l-312 -41z" />
<glyph unicode="&#xfb;" horiz-adv-x="874" d="M20 1004v20l140 20h4h20v-808q0 -114 51.5 -170t143.5 -56q153 0 311 137v705q0 97 -19.5 124.5t-92.5 27.5v20l139 20h4h20v-862q0 -96 20.5 -123.5t92.5 -27.5v-21l-139 -20h-4h-21v112q-52 -40 -87 -63.5t-99 -46.5t-129 -23q-112 0 -177 65.5t-65 201.5v616 q0 96 -20 124t-93 28zM203 1204l143 131q24 26 40 36.5t38 10.5q14 0 27 -6.5t21.5 -13.5t29.5 -27l143 -131l-27 -24l-194 157l-195 -157z" />
<glyph unicode="&#xfc;" horiz-adv-x="874" d="M20 1004v20l140 20h4h20v-808q0 -114 51.5 -170t143.5 -56q153 0 311 137v705q0 97 -19.5 124.5t-92.5 27.5v20l139 20h4h20v-862q0 -96 20.5 -123.5t92.5 -27.5v-21l-139 -20h-4h-21v112q-52 -40 -87 -63.5t-99 -46.5t-129 -23q-112 0 -177 65.5t-65 201.5v616 q0 96 -20 124t-93 28zM254 1286q0 23 17 39t42 16t41.5 -16t16.5 -39t-16.5 -39t-41.5 -16t-42 16t-17 39zM479 1286q0 23 17.5 39t42.5 16t41 -16t16 -39t-16 -39t-41 -16t-42.5 16t-17.5 39z" />
<glyph unicode="&#xfd;" horiz-adv-x="976" d="M23 1004v20h303v-20q-93 0 -109.5 -26.5t14.5 -117.5l265 -833l262 833q30 91 14 117.5t-108 26.5v20h290v-20q-67 0 -96.5 -27t-56.5 -117l-320 -1018q-51 -166 -72 -208q-38 -78 -98 -84q-6 -1 -12 -1q-35 0 -63 14t-50 28t-41 14l-51 338h41q15 -96 32 -164t31.5 -104 t33 -56t31.5 -24.5t32 -4.5q43 0 68.5 46.5t68.5 185.5l47 151h-20l-283 887q-29 90 -58 117t-95 27zM326 1245l194 49q123 43 123 -34l-311 -41z" />
<glyph unicode="&#xfe;" horiz-adv-x="858" d="M20 -389q73 0 93 27.5t20 123.5v1500q0 96 -20 123.5t-93 27.5v21l142 18l2 2h20v-541q134 138 291 138q150 0 236 -136.5t86 -386.5q0 -259 -94.5 -407t-245.5 -148q-89 0 -155.5 47t-117.5 146v-404q0 -96 20.5 -123.5t92.5 -27.5v-21h-277v21zM184 311 q29 -135 103.5 -215t169.5 -80q55 0 103.5 28.5t89.5 86.5t65 160.5t24 236.5q0 231 -72 349t-202 118q-141 0 -281 -125v-559z" />
<glyph unicode="&#xff;" horiz-adv-x="976" d="M23 1004v20h303v-20q-93 0 -109.5 -26.5t14.5 -117.5l265 -833l262 833q30 91 14 117.5t-108 26.5v20h290v-20q-67 0 -96.5 -27t-56.5 -117l-320 -1018q-51 -166 -72 -208q-38 -78 -98 -84q-6 -1 -12 -1q-35 0 -63 14t-50 28t-41 14l-51 338h41q15 -96 32 -164t31.5 -104 t33 -56t31.5 -24.5t32 -4.5q43 0 68.5 46.5t68.5 185.5l47 151h-20l-283 887q-29 90 -58 117t-95 27zM311 1286q0 23 17.5 39t42.5 16t41 -16t16 -39t-16 -39t-41 -16t-42.5 16t-17.5 39zM537 1286q0 23 17 39t42 16t41 -16t16 -39t-16 -39t-41 -16t-42 16t-17 39z" />
<glyph unicode="&#x152;" horiz-adv-x="1298" d="M61 717q0 743 420 743q75 0 148 -13t135 -13h412l51 -461h-41q-35 302 -46 348q-13 58 -40 68q-12 4 -45 4h-355v-611h242q14 0 22.5 1.5t16 5t10.5 12t5 18.5t1 29.5t-2 40.5t-4 55t-4 53h41l49 -491h-43q-5 33 -11 87q-13 104 -25 126t-64 22h-234v-700h385q45 0 59 13 q23 21 39 131q7 45 34 276h40l-51 -461h-442q-62 0 -135 -13.5t-148 -13.5q-420 0 -420 744zM119 717q0 -185 26 -321t74.5 -218.5t114 -122t149.5 -39.5q80 0 166 23v1358q-83 22 -166 22q-84 0 -149.5 -39.5t-114 -122.5t-74.5 -219t-26 -321z" />
<glyph unicode="&#x153;" horiz-adv-x="1478" d="M61 512q0 273 102 406t269 133q124 0 213 -72.5t129 -222.5q39 139 122 217t200 78q132 0 209 -104t92 -306h-586q-8 -49 -8 -121q0 -134 33 -244t100.5 -179.5t159.5 -69.5q121 0 196 90.5t107 283.5l39 -6q-72 -422 -344 -422q-117 0 -199.5 76t-120.5 219 q-38 -150 -128 -222.5t-214 -72.5q-167 0 -269 133.5t-102 405.5zM119 512q0 -253 83 -374.5t230 -121.5t230 121.5t83 374.5t-83 375.5t-230 122.5q-146 0 -229.5 -122.5t-83.5 -375.5zM817 682h529q-14 165 -81.5 246.5t-168.5 81.5t-176.5 -87t-102.5 -241z" />
<glyph unicode="&#x178;" horiz-adv-x="1042" d="M23 1413v21h294v-21q-86 0 -96.5 -24.5t29.5 -112.5l282 -643l275 643q39 88 28.5 112.5t-96.5 24.5v21h281v-21q-67 0 -99.5 -26t-68.5 -113l-301 -729v-373q0 -96 18.5 -124t83.5 -28v-20h-254v20q64 0 82.5 28t18.5 124v379l-310 725q-36 86 -68 111.5t-99 25.5z M365 1655q0 23 17 39t42 16t41 -16t16 -39t-16.5 -39.5t-40.5 -16.5q-25 0 -42 16.5t-17 39.5zM590 1655q0 23 17 39t42 16t41.5 -16t16.5 -39t-16.5 -39.5t-41.5 -16.5t-42 16.5t-17 39.5z" />
<glyph unicode="&#x2c6;" horiz-adv-x="606" d="M82 1204l143 131q24 26 40 36.5t38 10.5q14 0 27 -6.5t21.5 -13.5t29.5 -27l143 -131l-26 -24l-195 157l-194 -157z" />
<glyph unicode="&#x2dc;" horiz-adv-x="665" d="M82 1219q42 163 147 163q37 0 69.5 -19t52.5 -42t47 -42t53 -19q37 0 58 26.5t36 79.5l39 -8q-19 -76 -49 -115t-86 -39q-37 0 -69.5 19.5t-52.5 43t-47 43t-53 19.5q-38 0 -64.5 -33t-41.5 -86z" />
<glyph unicode="&#x2000;" horiz-adv-x="911" />
<glyph unicode="&#x2001;" horiz-adv-x="1823" />
<glyph unicode="&#x2002;" horiz-adv-x="911" />
<glyph unicode="&#x2003;" horiz-adv-x="1823" />
<glyph unicode="&#x2004;" horiz-adv-x="607" />
<glyph unicode="&#x2005;" horiz-adv-x="455" />
<glyph unicode="&#x2006;" horiz-adv-x="303" />
<glyph unicode="&#x2007;" horiz-adv-x="303" />
<glyph unicode="&#x2008;" horiz-adv-x="227" />
<glyph unicode="&#x2009;" horiz-adv-x="364" />
<glyph unicode="&#x200a;" horiz-adv-x="101" />
<glyph unicode="&#x2010;" horiz-adv-x="739" d="M61 492v40h617v-40h-617z" />
<glyph unicode="&#x2011;" horiz-adv-x="739" d="M61 492v40h617v-40h-617z" />
<glyph unicode="&#x2012;" horiz-adv-x="739" d="M61 492v40h617v-40h-617z" />
<glyph unicode="&#x2013;" horiz-adv-x="1044" d="M61 492v40h922v-40h-922z" />
<glyph unicode="&#x2014;" horiz-adv-x="1597" d="M61 492v40h1536v-40h-1536z" />
<glyph unicode="&#x2018;" horiz-adv-x="239" d="M61 1235q0 111 84 231l31 -26q-35 -52 -47 -78t-12 -49q0 -31 30.5 -56t30.5 -53q0 -24 -15.5 -38.5t-39.5 -14.5q-62 0 -62 84z" />
<glyph unicode="&#x2019;" horiz-adv-x="239" d="M61 1413q0 24 16 38.5t40 14.5q61 0 61 -84q0 -111 -84 -231l-31 27q36 53 48 78.5t12 48.5q0 31 -31 55.5t-31 52.5z" />
<glyph unicode="&#x201a;" horiz-adv-x="239" d="M61 61q0 24 16 39t40 15q61 0 61 -84q0 -112 -84 -232l-31 27q36 53 48 78.5t12 48.5q0 31 -31 55.5t-31 52.5z" />
<glyph unicode="&#x201c;" horiz-adv-x="479" d="M61 1235q0 111 84 231l31 -26q-35 -52 -47 -78t-12 -49q0 -31 30.5 -56t30.5 -53q0 -24 -15.5 -38.5t-39.5 -14.5q-62 0 -62 84zM301 1235q0 111 84 231l31 -26q-36 -53 -48 -78.5t-12 -48.5q0 -31 31 -56t31 -53q0 -24 -16 -38.5t-40 -14.5q-61 0 -61 84z" />
<glyph unicode="&#x201d;" horiz-adv-x="479" d="M61 1413q0 24 16 38.5t40 14.5q61 0 61 -84q0 -111 -84 -231l-31 27q36 53 48 78.5t12 48.5q0 31 -31 55.5t-31 52.5zM301 1413q0 24 15.5 38.5t39.5 14.5q62 0 62 -84q0 -111 -84 -231l-31 27q35 52 47 78t12 49q0 31 -30.5 55.5t-30.5 52.5z" />
<glyph unicode="&#x201e;" horiz-adv-x="495" d="M61 61q0 24 16 39t40 15q61 0 61 -84q0 -112 -84 -232l-31 27q36 53 48 78.5t12 48.5q0 31 -31 55.5t-31 52.5zM317 61q0 24 16 39t40 15q61 0 61 -84q0 -112 -84 -232l-31 27q36 53 48 78.5t12 48.5q0 31 -31 55.5t-31 52.5z" />
<glyph unicode="&#x2022;" horiz-adv-x="366" d="M61 455q0 61 35 102t90 41q51 0 85 -41.5t34 -101.5q0 -64 -34 -107t-85 -43q-55 0 -90 42.5t-35 107.5z" />
<glyph unicode="&#x2026;" horiz-adv-x="677" d="M61 45q0 30 17 50t43 20q25 0 41 -20t16 -50q0 -31 -16 -51.5t-41 -20.5q-26 0 -43 20.5t-17 51.5zM281 45q0 30 16.5 50t42.5 20q25 0 41 -20t16 -50q0 -31 -16 -51.5t-41 -20.5q-26 0 -42.5 20.5t-16.5 51.5zM500 45q0 30 16.5 50t42.5 20q25 0 41 -20t16 -50 q0 -31 -16 -51.5t-41 -20.5q-26 0 -42.5 20.5t-16.5 51.5z" />
<glyph unicode="&#x202f;" horiz-adv-x="364" />
<glyph unicode="&#x2039;" horiz-adv-x="462" d="M82 514q0 25 12 45.5t43 54.5l236 224l28 -21l-262 -303l262 -303l-28 -21l-236 224q-55 58 -55 100z" />
<glyph unicode="&#x203a;" horiz-adv-x="462" d="M61 211l263 303l-263 303l29 21l236 -224q31 -34 43 -54.5t12 -45.5q0 -42 -55 -100l-236 -224z" />
<glyph unicode="&#x205f;" horiz-adv-x="455" />
<glyph unicode="&#x20ac;" horiz-adv-x="862" d="M0 625v41h135q-2 29 -2 88v14h-133v41h133q4 171 35 299.5t81.5 203.5t112.5 111.5t134 36.5q52 0 93.5 -13t81.5 -32t68 -26l72 -416h-41q-22 138 -50.5 228.5t-64 137t-72.5 63.5t-87 17q-125 0 -211 -152.5t-95 -457.5h455v-41h-455v-14q0 -44 3 -88h452v-41h-450 q15 -275 97.5 -433.5t211.5 -158.5q122 0 191.5 121t95.5 399l40 -6q-11 -131 -33 -230t-51 -164t-67.5 -105.5t-81 -57.5t-94.5 -17q-156 0 -253 170.5t-114 481.5h-137z" />
<glyph unicode="&#x2122;" horiz-adv-x="1234" d="M51 1227l27 207h377l26 -207h-20q-15 124 -23 145t-39 21h-106v-351q0 -96 18 -123.5t84 -27.5v-21h-254v21q64 0 82.5 27.5t18.5 123.5v351h-107q-30 0 -37.5 -18.5t-23.5 -135.5q-1 -8 -2 -12h-21zM463 870v21q59 0 79.5 27.5t30.5 121.5l29 224q11 96 -1 122.5 t-69 26.5v21h130l161 -484l154 484h127v-21q-57 0 -69 -27.5t1 -121.5l33 -224q13 -94 34.5 -121.5t80.5 -27.5v-21h-242v21q64 0 77 27.5t-1 121.5l-45 312l-150 -482h-30l-160 482l-39 -312q-11 -96 3 -122.5t79 -26.5v-21h-213z" />
<glyph unicode="&#x25fc;" horiz-adv-x="1024" d="M0 0v1024h1024v-1024h-1024z" />
<glyph unicode="&#xfb01;" horiz-adv-x="720" d="M41 983v41h154q-76 45 -115 112t-39 146q0 86 55 132t148 46q63 0 136 -23.5t101 -23.5l62 -307h-41q-17 82 -40.5 141t-47.5 91.5t-54.5 51.5t-55 24t-56.5 5q-73 0 -112.5 -36.5t-39.5 -106.5q0 -96 75.5 -174t162.5 -78h76q82 0 110 2.5t47 13.5h21v-868 q0 -97 19.5 -124.5t92.5 -27.5v-20h-276v20q72 0 92.5 28t20.5 124v719q0 62 -23 77t-104 15q-111 0 -138.5 -14.5t-27.5 -77.5v-719q0 -96 26.5 -124t120.5 -28v-20h-311v20q73 0 93 28t20 124v719q0 28 -3 42.5t-9.5 26.5t-26 16t-43 5.5t-70.5 1.5z" />
<glyph unicode="&#xfb02;" horiz-adv-x="722" d="M41 983v41h168q-168 88 -168 252q0 91 59.5 137.5t167.5 46.5q75 0 152 -23.5t96 -23.5q37 0 53 37h21v-1278q0 -96 20.5 -124t91.5 -28v-20h-276v20q73 0 93 28t20 124v1026q0 54 -18.5 95.5t-46 64.5t-65.5 37.5t-69.5 19t-65.5 4.5q-178 0 -178 -147q0 -92 81 -170 t169 -78h82v-41q-53 0 -82.5 -2t-51.5 -6.5t-30.5 -16t-12 -26t-3.5 -41.5v-719q0 -96 24.5 -124t114.5 -28v-20h-303v20q72 0 92.5 28t20.5 124v719q0 24 -1 37t-7.5 25t-14.5 16.5t-28.5 8.5t-42.5 4.5t-62 0.5z" />
<glyph unicode="&#xfb03;" horiz-adv-x="1062" d="M41 983v41h156q-150 84 -150 238q0 84 51 128t123 44q58 0 120.5 -25.5t68.5 -26.5l-4 -12q47 90 182 90q63 0 136 -23.5t101 -23.5l62 -307h-41q-17 82 -40.5 141t-47.5 91.5t-54.5 51.5t-55 24t-56.5 5q-73 0 -112.5 -36.5t-39.5 -106.5q0 -96 75.5 -174t162.5 -78h76 q82 0 110 2.5t47 13.5h21v-868q0 -97 19.5 -124.5t92.5 -27.5v-20h-276v20q72 0 92.5 28t20.5 124v719q0 62 -23 77t-104 15q-111 0 -138.5 -14.5t-27.5 -77.5v-719q0 -96 26.5 -124t120.5 -28v-20h-311v20q73 0 93 28t20 124v719q0 28 -3 42.5t-9.5 26.5t-26 16t-43 5.5 t-70.5 1.5q-93 0 -117 -14.5t-24 -77.5v-719q0 -96 26.5 -124t120.5 -28v-20h-311v20q72 0 92.5 28t20.5 124v719q0 28 -3 42.5t-9.5 26.5t-26 16t-43 5.5t-70.5 1.5zM100 1262q0 -92 71 -161t165 -77h203q-76 45 -115 112t-39 146q0 26 6 47l-2 -2q-40 33 -76.5 49.5 t-85.5 16.5q-52 0 -89.5 -32t-37.5 -99z" />
</font>
</defs>
</svg>
