<?xml version="1.0" standalone="no"?>
<!DOCTYPE svg PUBLIC "-//W3C//DTD SVG 1.1//EN" "http://www.w3.org/Graphics/SVG/1.1/DTD/svg11.dtd" >
<svg xmlns="http://www.w3.org/2000/svg" xmlns:xlink="http://www.w3.org/1999/xlink" version="1.1">
<metadata></metadata>
<defs>
<font id="pp_writerultrabold_italic" horiz-adv-x="567" >
<font-face units-per-em="1000" ascent="800" descent="-200" />
<missing-glyph horiz-adv-x="219" />
<glyph horiz-adv-x="0" />
<glyph horiz-adv-x="333" />
<glyph unicode=" "  horiz-adv-x="219" />
<glyph unicode="&#x09;" horiz-adv-x="219" />
<glyph unicode="&#xa0;" horiz-adv-x="219" />
<glyph unicode="!" horiz-adv-x="310" d="M29 67q0 46 35 79.5t81 33.5q34 0 54.5 -20t20.5 -52q0 -47 -34.5 -81t-79.5 -34q-34 0 -55.5 21t-21.5 53zM126 251q7 35 12.5 74t8 87.5t4 79.5t2.5 89.5t2 78.5q0 49 35.5 79.5t82.5 30.5q33 0 53 -19t18 -53q-5 -46 -72 -217.5t-79 -229.5h-67z" />
<glyph unicode="&#x22;" horiz-adv-x="448" d="M161 668q-5 43 17.5 67.5t68.5 24.5q47 0 58.5 -24.5t-11.5 -67.5l-82 -160h-38zM363 668q-5 43 17.5 67.5t68.5 24.5q47 0 58.5 -24.5t-11.5 -67.5l-82 -160h-38z" />
<glyph unicode="#" horiz-adv-x="624" d="M3 184l34 72h110l92 198h-109l34 72h109l86 184h79l-86 -184h131l86 184h79l-86 -184h110l-34 -72h-110l-92 -198h109l-34 -72h-109l-86 -184h-79l86 184h-131l-86 -184h-79l86 184h-110zM226 256h131l92 198h-131z" />
<glyph unicode="$" horiz-adv-x="584" d="M14 30l23 228h41q21 -101 74.5 -153t126.5 -52q62 0 103 37t41 87q0 39 -37.5 64t-120.5 48q-99 27 -141.5 67t-42.5 96q0 105 85.5 180t208.5 86l-3 29q-12 91 60 91q24 0 33 -10t4.5 -30t-21.5 -51l-15 -28q63 -3 161 -31l-32 -205h-42q-20 172 -153 172 q-65 0 -107 -37t-42 -88q0 -32 36 -56t127 -49q176 -47 176 -167q0 -101 -79.5 -180t-201.5 -87l3 -34q5 -47 -9 -69t-49 -22q-72 0 -18 91l19 34q-103 3 -208 39z" />
<glyph unicode="%" horiz-adv-x="915" d="M65 398q0 86 74.5 149t166.5 63q70 0 114.5 -39.5t44.5 -101.5q0 -84 -71.5 -148.5t-162.5 -64.5q-73 0 -119.5 40t-46.5 102zM181 0l499 610h82l-498 -610h-83zM192 388q0 -36 13.5 -57.5t36.5 -21.5q29 0 52 33.5t33.5 72t10.5 67.5q0 34 -11.5 54.5t-31.5 20.5 q-45 0 -74 -59.5t-29 -109.5zM476 133q0 86 74.5 149t166.5 63q70 0 114.5 -39.5t44.5 -101.5q0 -83 -71.5 -148t-162.5 -65q-73 0 -119.5 40t-46.5 102zM603 123q0 -35 14 -57t37 -22q41 0 68 62.5t27 110.5q0 34 -11.5 54.5t-31.5 20.5q-45 0 -74 -59t-29 -110z" />
<glyph unicode="&#x26;" horiz-adv-x="869" d="M18 164q0 81 49.5 163t130.5 135.5t165 53.5q37 0 63.5 -15.5t36.5 -39.5q107 89 164 181l55 -19q-55 -114 -134 -191.5t-193 -140.5q-61 -37 -180 -84q0 -197 202 -197q90 0 171 65.5t99 174.5q-69 -14 -110.5 -44t-45.5 -75h-54q0 104 51 172t140 88l37 8 q174 38 181 127h54q0 -106 -49 -175t-136 -88q-8 -84 -47.5 -156t-97 -119t-126 -73.5t-137.5 -26.5q-77 0 -135 23.5t-90.5 64t-48 87.5t-15.5 101zM183 266q61 32 94.5 63t33.5 68q0 40 -30 40t-57.5 -54t-40.5 -117z" />
<glyph unicode="'" horiz-adv-x="246" d="M161 668q-5 43 17.5 67.5t68.5 24.5q47 0 58.5 -24.5t-11.5 -67.5l-82 -160h-38z" />
<glyph unicode="(" horiz-adv-x="365" d="M18 178q0 184 116 351t284 241l22 -23q-125 -111 -199 -283t-74 -337q0 -181 82 -281l-33 -23q-93 50 -145.5 142.5t-52.5 212.5z" />
<glyph unicode=")" horiz-adv-x="366" d="M-53 -154q125 111 199 283t74 337q0 181 -82 281l33 23q93 -50 145.5 -142.5t52.5 -212.5q0 -184 -116 -351t-284 -241z" />
<glyph unicode="*" horiz-adv-x="479" d="M143 571q-14 21 3 54q17 32 46.5 37.5t49.5 -18.5l62 -73l-110 -17q-37 -4 -51 17zM157 455q10 29 45 46l104 50l-40 -106q-14 -36 -43 -47.5t-53 8.5q-23 20 -13 49zM295 678q-10 33 10 57.5t55 24.5q34 0 43 -25t-13 -57l-67 -96zM323 446l2 105l86 -49q28 -17 25 -46 t-35 -49q-31 -19 -55 -7.5t-23 46.5zM336 570l93 76q32 25 58.5 19t30.5 -39q3 -32 -20.5 -53.5t-57.5 -16.5z" />
<glyph unicode="+" horiz-adv-x="518" d="M43 217l14 66h174l37 175h71l-37 -175h171l-14 -66h-172l-37 -175h-71l37 175h-173z" />
<glyph unicode="," horiz-adv-x="293" d="M-40 -190q38 41 69.5 92t31.5 74q0 18 -16 31t-31.5 20t-15.5 13q1 28 35 66.5t81 38.5q39 0 59 -20.5t20 -56.5q0 -66 -66 -147t-143 -132z" />
<glyph unicode="-" horiz-adv-x="412" d="M43 196l24 114h302l-24 -114h-302z" />
<glyph unicode="." horiz-adv-x="287" d="M7 67q0 46 35 79.5t81 33.5q34 0 54.5 -20t20.5 -52q0 -47 -34.5 -81t-79.5 -34q-34 0 -55.5 21t-21.5 53z" />
<glyph unicode="/" horiz-adv-x="388" d="M-84 -167l492 927h87l-493 -927h-86z" />
<glyph unicode="0" horiz-adv-x="571" d="M34 209q0 88 43.5 172.5t118.5 138.5t158 54q89 0 143 -61.5t54 -158.5q0 -137 -98 -250.5t-223 -113.5q-87 0 -141.5 61.5t-54.5 157.5zM92 260q0 -50 48 -82.5t123 -32.5q91 0 160.5 47.5t69.5 111.5q0 50 -48 82.5t-124 32.5q-90 0 -159.5 -48t-69.5 -111z" />
<glyph unicode="1" horiz-adv-x="448" d="M-16 0l19 43l31 5q83 13 103 109l58 270l-127 -7l10 43q39 8 92.5 28t115.5 46.5t88 36.5l14 -10q-29 -90 -43 -156l-75 -354l106 9l-23 -63h-369z" />
<glyph unicode="2" d="M-14 0l3 42q116 62 225 168t109 184q0 33 -18.5 52t-51.5 19q-66 0 -144 -62l-31 24q56 69 129.5 108.5t144.5 39.5q69 0 108 -31t39 -85q0 -40 -20 -80t-46.5 -70t-71 -64.5t-75 -54t-76.5 -46.5h150q39 0 68.5 15.5t65.5 53.5h37l-103 -233q-44 20 -163 20h-279z" />
<glyph unicode="3" horiz-adv-x="511" d="M-99 -190q143 38 245.5 117.5t102.5 170.5q0 48 -36 72t-95 24l-12 22q87 49 137 108t50 106q0 48 -52 48q-58 0 -147 -66l-12 40q60 57 124.5 90t118.5 33q62 0 98.5 -25.5t36.5 -69.5t-36 -88t-81.5 -73.5t-101.5 -55.5q186 -6 186 -107q0 -83 -84 -168t-202 -142.5 t-229 -75.5z" />
<glyph unicode="4" horiz-adv-x="578" d="M-40 38l533 535l36 -10l-94 -446h99l-35 -117h-89l-49 -230h-138l49 230h-311zM112 117h185l50 238z" />
<glyph unicode="5" horiz-adv-x="500" d="M-114 -190q82 22 159 62t133 100t56 121q0 36 -30 65.5t-65.5 45t-88.5 31.5l8 8q57 61 90.5 153.5t36.5 168.5h127q118 0 176 19l-35 -163h-239l-33 -81q221 -56 221 -192q0 -67 -47.5 -132t-122 -113.5t-162 -83.5t-172.5 -49z" />
<glyph unicode="6" horiz-adv-x="588" d="M26 172q0 77 33.5 152.5t90 138.5t130.5 115.5t157 88.5t166 53l22 -32q-139 -43 -241.5 -127.5t-151.5 -200.5q84 63 174 63q66 0 108 -40.5t42 -104.5q0 -119 -91 -203.5t-227 -84.5q-100 0 -156 49.5t-56 132.5zM194 166q0 -61 20.5 -93t58.5 -32q50 0 86.5 71.5 t36.5 131.5q0 42 -19.5 67.5t-52.5 25.5q-53 0 -113 -41q-17 -63 -17 -130z" />
<glyph unicode="7" horiz-adv-x="518" d="M-41 -230l478 667h-185q-60 0 -93.5 -26.5t-79.5 -106.5h-37l96 281q53 -20 123 -20h282l2 -42l-480 -753h-106z" />
<glyph unicode="8" horiz-adv-x="586" d="M12 140q0 136 196 214q-38 35 -57 66t-19 71q0 96 87 162.5t190 66.5q85 0 134 -35t49 -88q0 -60 -54.5 -111t-127.5 -70q36 -28 53 -42.5t39 -38t31 -45.5t9 -48q0 -100 -93 -176t-210 -76q-102 0 -164.5 42.5t-62.5 107.5zM161 148q0 -50 29 -79t75 -29q60 0 91.5 35.5 t31.5 75.5q0 12 -3 23t-11 23.5t-14 20.5t-21.5 22.5t-22.5 21t-28 24t-28 23.5q-14 12 -19 17q-80 -94 -80 -178zM273 568q0 -31 23.5 -56.5t83.5 -72.5q82 78 82 154q0 38 -22.5 57.5t-60.5 19.5q-41 0 -73.5 -31t-32.5 -71z" />
<glyph unicode="9" horiz-adv-x="590" d="M-70 -198q142 43 265 162.5t183 261.5q-36 -43 -82.5 -70t-91.5 -27q-70 0 -118 45t-48 115q0 69 47.5 136t123.5 108.5t154 41.5q98 0 156 -51.5t58 -144.5q0 -122 -96 -257t-242.5 -232t-287.5 -120zM202 334q0 -46 22.5 -79t62.5 -33q59 0 110 55q23 71 23 133 q0 115 -79 115q-51 0 -95 -66t-44 -125z" />
<glyph unicode=":" horiz-adv-x="298" d="M17 67q0 46 35 79.5t81 33.5q34 0 54.5 -20t20.5 -52q0 -47 -34.5 -81t-79.5 -34q-34 0 -55.5 21t-21.5 53zM88 394q0 46 35 79.5t81 33.5q34 0 54.5 -20t20.5 -52q0 -47 -34.5 -81t-79.5 -34q-34 0 -55.5 21t-21.5 53z" />
<glyph unicode=";" horiz-adv-x="306" d="M-28 -190q38 41 69.5 92t31.5 74q0 18 -16 31t-31.5 20t-15.5 13q1 28 35 66.5t81 38.5q39 0 59 -20.5t20 -56.5q0 -66 -66 -147t-143 -132zM87 386q0 46 35 79.5t81 33.5q34 0 54.5 -20t20.5 -52q0 -47 -34.5 -81t-79.5 -34q-34 0 -55.5 21t-21.5 53z" />
<glyph unicode="&#x3c;" horiz-adv-x="442" d="M42 201l1 5l19 84l368 200l-17 -82l-307 -168l234 -176l-16 -72z" />
<glyph unicode="=" horiz-adv-x="470" d="M25 114l13 66h360l-13 -66h-360zM59 278l14 66h360l-14 -66h-360z" />
<glyph unicode="&#x3e;" horiz-adv-x="442" d="M8 0l17 82l307 168l-234 176l16 72l282 -209l-1 -5l-19 -84z" />
<glyph unicode="?" horiz-adv-x="436" d="M67 67q0 46 35 79.5t81 33.5q34 0 54.5 -20t20.5 -52q0 -47 -34.5 -81t-79.5 -34q-34 0 -55.5 21t-21.5 53zM106 345q0 43 41 82.5t91 62.5t91 47t41 40q0 6 -4.5 11.5t-14.5 10.5t-19.5 8.5t-27 7.5t-30 6.5t-35 6.5t-35.5 7q-16 3 -25.5 32.5t-8.5 55.5q0 47 58 47 q91 0 159.5 -59.5t68.5 -152.5q0 -48 -26.5 -83t-64 -55.5t-75 -38.5t-64 -43.5t-26.5 -59.5q0 -22 7 -47h-67q-1 3 -10.5 24.5t-12.5 30t-7 26.5t-4 33z" />
<glyph unicode="@" horiz-adv-x="1012" d="M10 120q0 97 50 195t132.5 173.5t196.5 123.5t233 48q152 0 263 -86t111 -217q0 -87 -43.5 -171.5t-121.5 -140t-166 -55.5q-67 0 -103.5 31t-27.5 85l8 51h-12q-91 -167 -185 -167q-51 0 -76 40t-25 107q0 101 38 187.5t109 139t160 52.5q38 0 106 -52l65 55h29 l-85 -404q-8 -38 4 -56.5t37 -18.5q40 0 74 34.5t54 84.5t31 99.5t11 85.5q0 120 -81.5 194t-213.5 74q-125 0 -230.5 -76t-161 -186.5t-55.5 -221.5q0 -114 71 -181t191 -67q130 0 206 29l14 -30q-132 -65 -255 -65q-148 0 -250 86t-102 220zM392 147q0 -32 18 -32 q34 0 85.5 75t82.5 195q-55 47 -85 47q-33 0 -67 -114.5t-34 -170.5z" />
<glyph unicode="A" horiz-adv-x="822" d="M-58 0l20 48l50 9q6 1 12 3t12 5.5t10 6t10.5 8.5t9.5 8.5t10 10t9.5 10.5t10.5 12.5t10 12.5l393 461q-24 65 -123 95l8 20h274l9 -652l104 9l-25 -67h-344l20 48l35 9q31 8 43 23.5t12 44.5l-1 69h-276l-116 -136l106 9l-24 -67h-259zM284 252h227l-4 262z" />
<glyph unicode="B" horiz-adv-x="734" d="M-11 0l18 48l33 8q26 7 39.5 22t18.5 41l114 533l-90 -9l25 67h349q103 0 161.5 -37t58.5 -99q0 -74 -59.5 -129.5t-145.5 -68.5q84 -10 130.5 -46.5t46.5 -92.5q0 -94 -96.5 -165.5t-213.5 -71.5h-389zM244 58h80q46 0 81.5 13t55.5 31.5t32.5 44.5t16.5 47.5t4 44.5 q0 47 -30 74t-87 27h-93zM315 392h94q67 0 103.5 56t36.5 116q0 88 -103 88h-75z" />
<glyph unicode="C" horiz-adv-x="751" d="M49 270q0 120 66 224t178.5 165t242.5 61q129 0 238 -52l-33 -204h-41q-17 98 -62 145.5t-133 47.5q-70 0 -125.5 -37.5t-88 -97t-49.5 -126t-17 -131.5q0 -101 45.5 -156.5t129.5 -55.5q82 0 141 44.5t131 150.5h41l-88 -226q-111 -32 -244 -32q-150 0 -241 76.5 t-91 203.5z" />
<glyph unicode="D" horiz-adv-x="844" d="M-11 0l21 48l31 8q57 15 68 67l112 529l-99 -9l25 67h357q157 0 250.5 -76.5t93.5 -193.5q0 -111 -62.5 -212t-175.5 -164.5t-249 -63.5h-372zM253 58h120q88 0 157.5 58t105 145t35.5 181q0 97 -55 153.5t-162 56.5h-74z" />
<glyph unicode="E" horiz-adv-x="720" d="M-11 0l20 48l32 8q55 15 66 64l113 532l-98 -9l25 67h422q67 0 140 28l-18 -254h-41q-20 86 -49.5 127t-87.5 41h-134l-56 -260h73q41 0 69 24.5t53 88.5h41l-59 -278h-41v7q-1 58 -17 80q-18 24 -58 24h-72l-60 -280h169q106 0 218 196h41l-107 -282q-56 28 -129 28 h-455z" />
<glyph unicode="F" horiz-adv-x="594" d="M-11 0l20 48l32 8q55 15 66 68l113 528l-98 -9l25 67h410q67 0 141 28l-24 -246h-41q-13 82 -41.5 121t-85.5 39h-127l-60 -281h85q46 0 71.5 24t44.5 89h41l-58 -278h-41q2 20 2 37q0 35 -10 51q-15 24 -61 23h-86l-55 -259l125 9l-24 -67h-364z" />
<glyph unicode="G" horiz-adv-x="836" d="M48 263q0 122 65 227t180.5 167.5t254.5 62.5q120 0 228 -30l-27 -222h-41q-15 87 -65 138t-142 51q-67 0 -121.5 -37t-87 -96t-50 -126t-17.5 -133q0 -99 48 -155.5t137 -56.5q135 0 155 91l39 183l-155 -9l23 59h364l-20 -45q-57 0 -67 -49l-30 -145q-2 -14 -2 -17 q0 -32 37 -32l-2 -32q-110 -36 -188 -51.5t-169 -15.5q-162 0 -254.5 73.5t-92.5 199.5z" />
<glyph unicode="H" horiz-adv-x="909" d="M-11 0l20 48l31 8q56 16 68 69l111 527l-97 -9l25 67h330l-21 -48l-33 -9q-47 -14 -60 -69l-41 -196h330l56 264l-97 -9l24 67h330l-20 -48l-33 -9q-47 -14 -60 -69l-111 -526l97 9l-25 -67h-330l21 48l33 8q48 13 59 69l44 205h-331l-57 -272l97 9l-24 -67h-336z" />
<glyph unicode="I" horiz-adv-x="430" d="M-6 0l20 48l32 8q55 15 66 67l113 529l-98 -9l25 67h330l-19 -48l-34 -9q-48 -13 -59 -67l-113 -528l97 9l-24 -67h-336z" />
<glyph unicode="J" horiz-adv-x="352" d="M-144 -194q185 129 229 334l108 512l-125 -9l24 67h360l-20 -48l-39 -10q-43 -12 -55 -70l-93 -431q-20 -94 -61.5 -169t-93.5 -119.5t-107 -67.5t-109 -25z" />
<glyph unicode="K" horiz-adv-x="844" d="M-10 0l21 48l31 8q55 15 66 69l113 527l-99 -9l25 67h330l-20 -48l-33 -9q-47 -15 -58 -67l-113 -528l88 9l-25 -67h-326zM343 321l4 18l380 311l-123 -7l24 67h293l-20 -48q-56 -7 -89 -23.5t-71 -47.5l-258 -211l142 -227q35 -56 66.5 -86t87.5 -57l-10 -20 q-133 0 -200 25.5t-102 86.5z" />
<glyph unicode="L" horiz-adv-x="635" d="M-11 0l20 48l31 8q57 15 67 65l113 531l-98 -9l25 67h360l-20 -48l-61 -9q-29 -5 -41.5 -18t-20.5 -51l-112 -526h107q108 0 220 196h41l-107 -282q-59 28 -129 28h-395z" />
<glyph unicode="M" horiz-adv-x="1035" d="M1 0l21 48l40 9q45 10 56 54l126 492q-29 36 -110 87l9 20h264l130 -466l306 466h258l-16 -32l-25 -9q-38 -15 -56 -33.5t-24 -49.5l-93 -528l97 9l-24 -67h-331l21 48l31 8q50 13 59 71l78 443l-375 -580h-18l1 3l-2 -3l-144 526l-114 -458l109 9l-25 -67h-249z" />
<glyph unicode="N" horiz-adv-x="820" d="M-19 0l20 48l52 5q52 4 63 53l104 490q-41 52 -111 94l8 20h239l303 -474l89 416l-134 -9l25 67h295l-20 -48l-50 -5q-54 -6 -67 -64l-117 -555l-73 -48l-340 534l-99 -466l132 9l-24 -67h-295z" />
<glyph unicode="O" horiz-adv-x="848" d="M51 284q0 111 64.5 211.5t175 162.5t236.5 62q141 0 231 -84.5t90 -209.5q0 -113 -64 -213.5t-174 -161.5t-236 -61q-142 0 -232.5 84.5t-90.5 209.5zM231 301q0 -106 50.5 -177t129.5 -71t139.5 56.5t89 136t28.5 163.5q0 106 -50 177t-129 71t-140 -57.5t-89.5 -137.5 t-28.5 -161z" />
<glyph unicode="P" horiz-adv-x="721" d="M-11 0l18 48l42 12q47 14 59 66l112 526l-98 -9l25 67h333q135 0 207 -42t72 -125q0 -76 -50 -135.5t-127.5 -90t-164.5 -30.5h-116l-49 -229l109 9l-24 -67h-348zM312 340h76q86 0 140 55.5t54 126.5q0 59 -33.5 94.5t-95.5 35.5h-74z" />
<glyph unicode="Q" horiz-adv-x="860" d="M51 284q0 111 64.5 211.5t175 162.5t236.5 62q141 0 231 -84.5t90 -209.5q0 -106 -57.5 -201.5t-153.5 -156.5q39 -75 81 -115.5t108 -40.5q53 0 107 10l2 -24q-40 -20 -113.5 -47.5t-85.5 -27.5q-76 0 -124 50.5t-89 140.5q-71 -24 -149 -24q-142 0 -232.5 84.5 t-90.5 209.5zM231 301q0 -15 2 -43q90 45 160 45t115 -38.5t84 -109.5q76 108 76 254q0 106 -50 177t-129 71t-140 -57.5t-89.5 -137.5t-28.5 -161zM238 229q15 -79 61.5 -127.5t111.5 -48.5q45 0 86 19q-15 34 -25.5 55t-27 47.5t-31.5 41t-36.5 24.5t-45.5 10 q-41 0 -93 -21z" />
<glyph unicode="R" horiz-adv-x="832" d="M-11 0l20 48l39 11q48 11 61 71l111 522l-98 -9l25 67h324q125 0 199 -42.5t74 -122.5q0 -83 -63.5 -144.5t-150.5 -74.5l79 -173q25 -55 57.5 -83.5t96.5 -59.5l-10 -20q-143 0 -212.5 23.5t-89.5 90.5l-63 199h-84l-52 -245l97 9l-24 -67h-336zM314 351h75 q80 0 130.5 59t50.5 134q0 50 -31 79t-86 29h-74z" />
<glyph unicode="S" horiz-adv-x="584" d="M14 30l23 228h41q21 -101 74.5 -153t126.5 -52q62 0 103 37t41 87q0 39 -37.5 64t-120.5 48q-99 27 -141.5 67t-42.5 96q0 113 98 190.5t233 77.5q71 0 182 -32l-32 -205h-42q-20 172 -153 172q-65 0 -107 -37t-42 -88q0 -32 36 -56t127 -49q176 -47 176 -167 q0 -106 -87.5 -187t-218.5 -81q-121 0 -237 40z" />
<glyph unicode="T" horiz-adv-x="711" d="M93 500l69 230q59 -20 133 -20h337q69 0 143 20l-29 -230h-41q-5 29 -8 42.5t-9 35.5t-12 32t-16 21.5t-24 16t-32 4.5h-74l-127 -594l117 9l-24 -67h-368l20 48l45 13q55 16 69 79l109 512h-72q-50 0 -86.5 -37.5t-78.5 -114.5h-41z" />
<glyph unicode="U" horiz-adv-x="803" d="M112 222l92 430l-90 -9l25 67h337l-20 -48l-39 -9q-58 -16 -73 -89l-65 -304q-6 -27 -6 -50q0 -54 30 -88q43 -50 134 -49q83 0 139.5 45t74.5 130l86 404l-112 -9l24 67h250l-20 -48l-25 -5q-29 -6 -44.5 -22t-22.5 -50l-69 -321q-27 -131 -116 -202.5t-218 -71.5 q-146 0 -220 63q-57 48 -57 122q0 23 5 47z" />
<glyph unicode="V" horiz-adv-x="809" d="M102 643l25 67h360l-20 -48l-64 -7q-37 -3 -51 -23q-12 -17 -12 -48v-9l12 -366l384 443l-131 -9l24 67h288l-19 -48l-36 -7q-35 -6 -59.5 -23.5t-52.5 -51.5l-514 -590h-31l-23 662z" />
<glyph unicode="W" horiz-adv-x="1114" d="M103 647l24 63h345l-20 -48l-37 -9q-28 -7 -38 -27q-6 -12 -6 -31q0 -11 2 -25l57 -338l186 271l-27 149l-83 -5l24 63h358l-19 -48l-46 -9q-33 -6 -43 -25q-6 -11 -7 -31q0 -13 3 -30l48 -303l218 388l-115 -5l24 63h272l-20 -48l-48 -9q-31 -6 -50.5 -23.5t-42.5 -58.5 l-323 -581h-31l-78 432l-295 -432h-31l-114 662z" />
<glyph unicode="X" horiz-adv-x="826" d="M-32 0l21 48l61 9q50 7 107 64l199 207l-170 324l-84 -9l25 67h399l-20 -48l-46 -9q-58 -12 -58 -39q0 -8 5 -16l89 -172l223 226l-115 -9l24 67h277l-20 -48l-47 -9q-46 -9 -96 -60l-217 -221l163 -314l86 9l-24 -67h-404l21 48l57 9q32 5 44 19q6 7 7 17q0 9 -6 19 l-85 163l-211 -221l116 13l-25 -67h-296z" />
<glyph unicode="Y" horiz-adv-x="769" d="M102 643l25 67h360l-19 -48l-51 -9q-34 -6 -42 -21q-3 -5 -3 -14q0 -12 7 -30l90 -225l235 289l-106 -9l24 67h256l-20 -48l-43 -8q-22 -4 -40.5 -17t-44.5 -45l-241 -295l-52 -239l115 9l-24 -67h-358l20 48l25 9q68 25 81 86l34 154l-141 355z" />
<glyph unicode="Z" horiz-adv-x="619" d="M-42 58l565 600l-193 -6q-128 -4 -228 -190h-41l95 268q61 -20 150 -20h396l10 -58l-568 -601l194 7q71 2 115.5 45t104.5 159h41l-64 -282q-61 20 -150 20h-418z" />
<glyph unicode="[" horiz-adv-x="364" d="M-20 -167l197 927h265l-13 -57h-121l-173 -813h121l-11 -57h-265z" />
<glyph unicode="\" horiz-adv-x="456" d="M117 760h75l169 -927h-75z" />
<glyph unicode="]" horiz-adv-x="364" d="M-57 -169l13 57h121l173 813h-121l11 57h265l-197 -927h-265z" />
<glyph unicode="^" horiz-adv-x="351" d="M61 490l178 220h88l82 -220h-76l-62 167l-134 -167h-76z" />
<glyph unicode="_" horiz-adv-x="512" d="M-100 -167l23 109h508l-23 -109h-508z" />
<glyph unicode="`" horiz-adv-x="297" d="M121 710q0 27 15 58.5t37 31.5q9 0 41 -45.5t72.5 -107.5t58.5 -84l-11 -11l-123 59q-90 42 -90 99z" />
<glyph unicode="a" d="M15 137q0 156 87 267.5t221 111.5q37 0 97 -46l95 97h29l-100 -408q-3 -11 -3 -19q0 -22 24 -22q26 0 81 25l-4 -56q-45 -39 -102.5 -68t-98.5 -29q-47 0 -47 43q0 9 2 20l17 104h-12q-42 -78 -90 -122.5t-95 -44.5q-52 0 -76.5 40t-24.5 107zM164 147q0 -32 17 -32 q34 0 85.5 75t83.5 195q-55 47 -86 47q-33 0 -66.5 -115t-33.5 -170z" />
<glyph unicode="b" horiz-adv-x="548" d="M34 34l132 578q2 9 2 17q0 28 -26 35q-16 4 -34 4q-20 0 -42 -5q-9 -1 -13 -1v54q45 22 133.5 38t164.5 16l-116 -421h11q79 167 169 167q58 0 86.5 -44t28.5 -115q0 -154 -87.5 -260.5t-223.5 -106.5q-29 0 -87.5 14t-97.5 30zM198 115q58 -41 104 -41q29 0 54 92.5 t25 142.5q0 82 -29 82t-69.5 -61t-71.5 -166l-3 -14l-1 -1z" />
<glyph unicode="c" horiz-adv-x="465" d="M24 175q0 77 42 155.5t117.5 132t160.5 53.5q41 0 91 -12.5t50 -30.5q0 -33 -20 -67t-40 -34q-6 0 -52 27t-75 27q-51 0 -85 -70.5t-34 -140.5q0 -49 20.5 -76t58.5 -27q68 0 150 84l12 -56q-36 -69 -94 -109.5t-121 -40.5q-82 0 -131.5 52t-49.5 133z" />
<glyph unicode="d" horiz-adv-x="592" d="M20 137q0 153 87 266t221 113q24 0 57 -19l28 115q2 10 2 19q0 16 -8 24q-12 12 -35 12h-4q-26 -1 -60 -4q-6 -1 -9 -1v54q45 22 134 38t165 16l-142 -611q-2 -9 -2 -17q0 -24 23 -24q39 0 94 25l-4 -56q-45 -39 -102 -68t-98 -29q-34 0 -53 24q-14 19 -14 48q0 9 1 20 l10 64h-11l1 2q-41 -74 -87 -116t-91 -42q-52 0 -77.5 40.5t-25.5 106.5zM169 146q0 -31 14 -31q34 0 88 75.5t86 194.5q-55 47 -92 47q-34 0 -65 -113.5t-31 -172.5z" />
<glyph unicode="e" horiz-adv-x="469" d="M21 164q0 81 49.5 163t130.5 135.5t165 53.5q48 0 76.5 -24t28.5 -59q0 -31 -21 -61t-49.5 -52t-72.5 -45.5t-75.5 -37.5t-74.5 -30q0 -95 78 -95q82 0 168 88l12 -56q-41 -68 -106 -111t-143 -43q-73 0 -119.5 47.5t-46.5 126.5zM186 266q61 32 94.5 63t33.5 68 q0 40 -30 40t-57.5 -54t-40.5 -117z" />
<glyph unicode="f" horiz-adv-x="381" d="M-246 -203q0 28 22.5 59t42.5 31q17 0 75 -21.5t80 -21.5q32 0 52 40t35 118l90 454h-102l10 50h103q73 264 426 264q22 0 33.5 -10t7.5 -27q-7 -31 -26.5 -60.5t-38.5 -29.5q-17 0 -75 21.5t-80 21.5q-55 0 -92 -180h124l-10 -50h-123l-80 -406q-30 -153 -136 -221.5 t-297 -68.5q-41 0 -41 37z" />
<glyph unicode="g" horiz-adv-x="549" d="M-66 -106q0 48 44 80t110 44q-35 30 -35 65q0 15 39 40.5t85 44.5q-69 8 -109.5 42t-40.5 84q0 87 82.5 154t187.5 67q37 0 72 -10q87 122 216 122q20 0 20 -22q0 -39 -19.5 -72t-45.5 -33q-68 0 -125 -16q62 -40 62 -104q0 -83 -74.5 -147t-174.5 -68q-9 -20 -9 -39 q0 -14 51 -33l126 -44q48 -17 70.5 -37.5t22.5 -52.5q0 -72 -77 -135.5t-204 -63.5q-116 0 -195 33t-79 101zM91 -75q0 -38 50 -60.5t129 -22.5q41 0 66.5 10.5t25.5 24.5q0 19 -44 37l-185 78q-42 -27 -42 -67zM184 376q0 -45 26 -95.5t62 -50.5q41 0 41 70q0 48 -22 99.5 t-59 51.5q-48 0 -48 -75z" />
<glyph unicode="h" horiz-adv-x="649" d="M22 -10l149 624q2 9 2 17q-1 23 -19 29q-13 5 -42 6q-24 0 -59 -4v54q45 22 135.5 38t167.5 16l-139 -525h10q63 117 135.5 194t143.5 77q46 0 74 -30q19 -20 19 -48q0 -14 -5 -30l-76 -250q-3 -11 -3 -18q0 -22 24 -22q26 0 81 25l-4 -56q-43 -38 -106 -67.5t-105 -29.5 q-60 0 -60 61q0 27 12 67l72 245q5 22 2.5 27t-12.5 5q-23 0 -74 -64t-101 -156.5t-69 -164.5z" />
<glyph unicode="i" horiz-adv-x="383" d="M36 436q157 80 261 80q24 0 31 -10q3 -5 3 -14q0 -11 -4 -27l-92 -307q-3 -10 -3 -18q0 -22 24 -22q37 0 92 25l-4 -56q-42 -36 -113.5 -66.5t-114.5 -30.5t-54 30q-4 10 -4 25q0 28 13 73l60 204q3 9 3 16q0 20 -16 32q-18 14 -53 13q-10 0 -21 -1zM239 730q36 33 80 33 q33 0 53 -21q18 -19 18 -46v-6q-1 -43 -36 -77t-77 -34q-34 -1 -55 21q-20 21 -20 51q0 45 37 79z" />
<glyph unicode="j" horiz-adv-x="363" d="M-212 -203q0 31 18.5 68t37.5 37q22 0 77.5 -25t77.5 -25q30 0 48.5 34.5t34.5 108.5l71 327q2 10 2 19q0 23 -15 32.5t-48 9.5q-12 0 -27 -1l-8 54q157 80 244 80q23 0 30 -10q4 -6 4 -17q0 -10 -3 -24l-82 -393q-32 -158 -129.5 -235t-284.5 -77q-26 0 -37 11.5 t-11 25.5zM243 730q36 33 80 33q33 0 53 -21q18 -19 18 -46v-6q-1 -43 -36 -77t-77 -34q-34 0 -55 21q-20 21 -20 51q0 45 37 79z" />
<glyph unicode="k" horiz-adv-x="602" d="M27 -10l144 638q2 10 2 18q0 22 -16 30q-12 6 -42 6q-24 0 -58 -4v54q45 22 133.5 38t163.5 16l-124 -551q74 118 165 199.5t166 81.5q13 0 22.5 -7t9.5 -19q0 -26 -15 -70.5t-38 -52.5q-111 -36 -188 -95l42 -85q12 -26 34 -40t46 -14q33 0 85 24l4 -56q-47 -49 -96 -80 t-84 -31t-53 28t-29 87l-20 104q-75 -84 -101 -199z" />
<glyph unicode="l" horiz-adv-x="361" d="M40 19q-4 10 -4 26q0 28 12 73l118 494q3 11 3 20q0 21 -16 28q-12 6 -42 6q-24 0 -58 -4v54q45 22 134.5 38t165.5 16l-146 -612q-2 -13 -2.5 -21.5t2.5 -11.5q5 -7 20 -7q34 0 89 25l-4 -56q-42 -37 -110 -67t-110 -30t-52 29z" />
<glyph unicode="m" horiz-adv-x="932" d="M32 420q47 37 119.5 66.5t131.5 29.5q24 0 31 -10q3 -5 3 -15t-4 -26l-61 -201h9q57 110 120 181t121 71q48 0 70 -29q12 -17 13 -40q0 -18 -7 -39l-42 -135h9q55 107 115 175t117 68q55 0 85 -30q20 -20 21 -48q0 -14 -5 -30l-77 -250q-3 -11 -3 -18q0 -22 24 -22 q26 0 81 25l-4 -56q-45 -39 -105 -68t-106 -29q-44 0 -56 30q-4 11 -4 28q0 28 12 70l71 241q6 16 4.5 24t-4 10t-9.5 2q-35 0 -110.5 -135.5t-105.5 -249.5l-154 -20l105 371q5 23 2.5 28.5t-12.5 5.5q-35 0 -114 -136t-109 -249l-152 -20l76 332q2 8 2 15q0 19 -14 28 q-10 6 -30 6q-19 0 -46 -5z" />
<glyph unicode="n" horiz-adv-x="671" d="M32 420q47 37 119 66.5t131 29.5q24 0 31 -10q3 -5 3 -14q0 -11 -4 -27l-64 -212h9q60 114 128.5 188.5t134.5 74.5q51 0 81 -30q20 -20 20 -49q0 -13 -4 -29l-76 -250q-3 -11 -3 -18q0 -22 24 -22q26 0 81 25l-4 -56q-43 -38 -106.5 -67.5t-105.5 -29.5q-43 0 -55 30 q-4 11 -5 27q0 28 12 71l73 245q5 22 2.5 27t-12.5 5q-23 0 -72.5 -64t-98 -156.5t-67.5 -164.5l-152 -20l76 332q2 8 2 15q0 19 -14 28q-10 6 -31 6q-18 0 -45 -5z" />
<glyph unicode="o" horiz-adv-x="502" d="M23 169q0 77 39 156.5t110 135t152 55.5q72 0 112.5 -52.5t40.5 -134.5q0 -79 -38.5 -157t-109 -129.5t-152.5 -51.5q-72 0 -113 49t-41 129zM172 306q0 -73 29.5 -145t65.5 -72q28 0 44 37t16 79q0 73 -29 143t-64 70q-34 0 -48 -34t-14 -78z" />
<glyph unicode="p" horiz-adv-x="575" d="M-75 -239l8 47q40 9 60 29t28 56l102 429q2 8 2 15q0 19 -15 28q-10 6 -30 6q-18 0 -45 -5l-8 54q48 38 115.5 67t126.5 29q25 0 33 -10q3 -4 3 -12q0 -11 -7 -29l-48 -120h8q41 80 88 125.5t94 45.5q58 0 86 -44t28 -115q0 -154 -87.5 -260.5t-223.5 -106.5q-14 0 -47 7 l-40 -176l156 20l-12 -71zM225 121q60 -47 101 -47q29 0 54 92.5t25 142.5q0 82 -29 82q-33 0 -76.5 -71.5t-74.5 -198.5z" />
<glyph unicode="q" horiz-adv-x="526" d="M17 149q0 154 87.5 260.5t223.5 106.5q29 0 88 -14t98 -30l-122 -536q-3 -14 -3 -25q0 -28 19 -37q17 -8 44 -8q19 0 43 4v-54q-54 -21 -144 -38t-149 -17l94 364h-10l1 4q-74 -139 -156 -139q-58 0 -86 44t-28 115zM166 197q0 -82 29 -82q32 0 77 74.5t76 201.5 q-57 41 -103 41q-29 0 -54 -92.5t-25 -142.5z" />
<glyph unicode="r" horiz-adv-x="485" d="M32 420q122 96 232 96q24 0 31 -10q3 -4 3 -13q0 -11 -4 -28l-51 -171h9q106 222 235 222q32 0 32 -38q0 -46 -25.5 -89.5t-65.5 -56.5l-99 -33q-39 -26 -68.5 -91t-62.5 -184l-3 -14l-155 -20l88 332q2 9 2 16q0 18 -14 27q-10 6 -31 6q-19 0 -45 -5z" />
<glyph unicode="s" horiz-adv-x="462" d="M-2 67q0 35 14.5 71t40.5 36q25 0 94 -55.5t90 -55.5q19 0 19 22q0 52 -81 126q-100 92 -100 149q0 61 63 108.5t162 47.5q31 0 68.5 -5.5t72.5 -22.5t35 -42q0 -23 -21 -62.5t-43 -39.5q-20 0 -80 49t-84 49q-25 0 -25 -29q0 -45 77 -118q102 -100 102 -157 q0 -63 -52.5 -105.5t-146.5 -42.5q-60 0 -132.5 26t-72.5 51z" />
<glyph unicode="t" horiz-adv-x="435" d="M61 456l10 50l120 32l137 132h37l-39 -164h155l-10 -50h-156l-71 -299q-2 -8 -2 -15q0 -25 30 -25q22 0 60.5 17.5t67.5 40.5v-56q-54 -57 -119 -93t-120 -36q-53 0 -75 32q-14 22 -15 51q0 15 4 32l82 351h-96z" />
<glyph unicode="u" horiz-adv-x="647" d="M24 363l4 56q43 38 106.5 67.5t105.5 29.5q62 0 62 -60q0 -20 -7 -47q-31 -123 -86 -272q-7 -19 14 -19q30 0 77 63t89 151.5t62 163.5l153 20l-87 -358q-3 -12 -3 -20t3 -12q6 -8 21 -8q40 0 95 25l-4 -56q-43 -38 -106 -67.5t-105 -29.5q-60 0 -60 61q0 27 12 67 l38 124h-9q-56 -106 -129.5 -179t-140.5 -73q-51 0 -81 30q-19 18 -19 41q0 14 7 30q54 115 90 257q2 10 2 17q0 23 -23 23q-26 0 -81 -25z" />
<glyph unicode="v" horiz-adv-x="551" d="M13 421q34 33 86 64t85 31q57 0 85 -75t41 -254q47 60 74.5 126.5t28.5 166.5q1 16 11.5 26t27.5 10q30 0 72 -18t42 -35q0 -135 -366 -473h-18q-11 172 -25 261t-28.5 114.5t-39.5 25.5q-28 0 -71 -26z" />
<glyph unicode="w" horiz-adv-x="784" d="M13 421q32 33 85 64t86 31q49 0 82 -91.5t42 -235.5q34 36 50 65q18 30 24 74q2 12 1 24q0 33 -13 68q-2 6 -2 12q0 22 24 49q30 35 63 35q17 0 26.5 -8.5t19.5 -34.5q49 -122 49 -248q0 -31 -3 -62q90 145 96 301q0 52 39 52q38 0 76 -18q37 -17 37 -35q1 -63 -37 -138 q-36 -71 -93.5 -134.5t-110.5 -111t-110 -89.5h-18q1 24 1 50q0 79 -11 181q-79 -93 -221 -231h-17q-10 173 -23 261t-27 114t-39 26q-28 0 -71 -26z" />
<glyph unicode="x" horiz-adv-x="561" d="M-18 14q-6 7 -6 15q0 12 16 24l220 175l-28 109q-13 54 -52 54q-12 0 -40 -10t-53 -26l-4 56q32 38 82.5 67.5t92.5 29.5q34 0 60 -22t37 -63l31 -123l68 158q24 58 119 58q40 0 61 -18q10 -8 10 -18q0 -11 -14 -24l-232 -199l24 -96q14 -54 50 -54q37 0 93 36l4 -56 q-32 -38 -82.5 -67.5t-92.5 -29.5q-33 0 -58.5 21.5t-35.5 63.5l-27 103l-60 -130q-25 -58 -117 -58q-46 0 -66 24z" />
<glyph unicode="y" horiz-adv-x="569" d="M-105 -161q11 -1 36 -1q80 0 147 25t96 80q31 58 31 150q0 103 -39 200.5t-78 97.5q-33 0 -70 -26l-5 56q36 33 90 64t89 31q60 0 99 -93.5t39 -221.5q0 -21 -4 -91q96 176 104 370q0 16 11 26t28 10q29 0 71 -18t42 -35q0 -90 -128 -276q-123 -179 -333 -426 q-125 0 -226 31v47z" />
<glyph unicode="z" horiz-adv-x="483" d="M-48 10l373 372h-67q-64 0 -102.5 -17.5t-82.5 -74.5h-39l83 236q32 -20 148 -20h203l19 -35l-343 -345q24 -7 73.5 -44t86.5 -37q42 0 64 21t46 93h39q-2 -105 -44.5 -182.5t-106.5 -77.5q-38 0 -74 18.5t-59.5 41t-52.5 41t-55 18.5q-10 0 -28.5 -9t-29.5 -19z" />
<glyph unicode="{" horiz-adv-x="424" d="M3 -42q0 35 17.5 73t38 65.5t38 64.5t17.5 71q0 38 -63 41l5 28l6 28q51 3 69.5 23.5t18.5 65.5q0 21 -6.5 71.5t-6.5 78.5q0 51 20.5 88t52.5 58.5t79.5 34.5t92 17t100.5 4l-24 -67l-64 2q-34 1 -56 -7.5t-30.5 -26.5t-11 -32.5t-2.5 -36.5q0 -25 7.5 -75.5t7.5 -74.5 q0 -64 -37.5 -107.5t-90.5 -43.5q30 0 55 -19t25 -60q0 -49 -55 -143.5t-55 -139.5q0 -27 17 -35.5t55 -7.5l64 2l-5 -67q-279 0 -279 127z" />
<glyph unicode="|" horiz-adv-x="243" d="M-3 -167l204 962h76l-204 -962h-76z" />
<glyph unicode="}" horiz-adv-x="423" d="M-35 -169l24 67l64 -2q34 -1 56 7.5t30.5 26.5t11 32.5t2.5 36.5q0 25 -7.5 75.5t-7.5 74.5q0 64 37.5 107.5t90.5 43.5q-30 0 -55 19t-25 60q0 49 55 143.5t55 139.5q0 27 -17 35.5t-55 7.5l-64 -2l5 67q279 0 279 -127q0 -35 -17.5 -73t-38 -65.5t-38 -64.5t-17.5 -71 q0 -38 63 -41l-5 -28l-6 -28q-51 -3 -69.5 -23.5t-18.5 -65.5q0 -21 6.5 -71.5t6.5 -78.5q0 -51 -20.5 -88t-52.5 -58.5t-79.5 -34.5t-92 -17t-100.5 -4z" />
<glyph unicode="~" horiz-adv-x="487" d="M18 173q34 61 81 98.5t82 37.5q42 0 85.5 -29.5t69.5 -29.5q23 0 43.5 16t54.5 57l32 -5q-36 -63 -79 -99t-84 -36q-43 0 -86 29.5t-69 29.5q-23 0 -44 -16.5t-54 -57.5z" />
<glyph unicode="&#xa1;" horiz-adv-x="310" d="M-33 -188q5 46 72 217.5t79 229.5h67q-7 -35 -12.5 -74t-8 -87.5t-4 -79.5t-2.5 -89.5t-2 -78.5q0 -49 -35.5 -79.5t-82.5 -30.5q-33 0 -53 19t-18 53zM90 402q0 47 34.5 81t79.5 34q34 0 55.5 -21t21.5 -53q0 -46 -35 -79.5t-81 -33.5q-34 0 -54.5 20t-20.5 52z" />
<glyph unicode="&#xa2;" horiz-adv-x="464" d="M49 278q0 106 77 208t188 127l-1 32q-3 75 57 75q56 0 19 -75l-12 -26q44 -2 88.5 -13.5t44.5 -29.5q0 -33 -20 -67t-40 -34q-6 0 -52 27t-75 27q-51 0 -85 -70.5t-34 -140.5q0 -49 20.5 -76t58.5 -27q68 0 150 84l12 -56q-32 -61 -82.5 -100.5t-106.5 -47.5v-30 q2 -75 -55 -75q-59 0 -22 75l15 31q-66 11 -105.5 60.5t-39.5 121.5z" />
<glyph unicode="&#xa3;" horiz-adv-x="665" d="M-31 0l22 56h11q42 1 73 15.5t46.5 34.5t24.5 51.5t11 55t2 55.5v23h-88l14 66h68q-5 70 -5 84q0 127 90.5 203t223.5 76q93 0 187 -47l-32 -206h-41q-29 190 -144 190q-47 0 -79 -28t-44.5 -64.5t-12.5 -78.5q0 -31 16 -129h204l-19 -66h-177q1 -6 1 -18 q0 -143 -124 -209q89 8 156 26q176 44 239 154h41q-16 -75 -44.5 -126t-66 -75.5t-72 -33.5t-76.5 -9h-405z" />
<glyph unicode="&#xa4;" horiz-adv-x="581" d="M-2 121l108 89q-7 25 -7 60q0 108 72 210l-76 96l56 47l68 -86q83 80 181 80q76 0 118 -60l81 66l36 -47l-91 -75q9 -32 9 -71q0 -118 -81 -222l66 -86l-56 -47l-62 80q-78 -63 -167 -63q-80 0 -122 61l-95 -78zM248 407q0 -73 29.5 -145t65.5 -72q28 0 44 37t16 79 q0 73 -29 143t-64 70q-34 0 -48 -34t-14 -78z" />
<glyph unicode="&#xa5;" horiz-adv-x="769" d="M102 643l25 67h360l-19 -48l-51 -9q-34 -6 -42 -20.5t4 -44.5l90 -225l235 289l-106 -9l24 67h256l-20 -48l-43 -8q-22 -4 -40.5 -17t-44.5 -45l-229 -280h147l-14 -66h-156l-12 -56h157l-15 -66h-157l-14 -66l115 9l-24 -67h-358l20 48l25 9q59 22 75 67h-153l15 66h154 l13 56h-156l14 66h147l-135 340z" />
<glyph unicode="&#xa6;" horiz-adv-x="243" d="M-3 -167l69 328h76l-69 -328h-76zM131 467l70 328h76l-70 -328h-76z" />
<glyph unicode="&#xa7;" horiz-adv-x="533" d="M-54 -144l29 200h41q40 -182 155 -182q46 0 77 36t31 80q0 19 -5 37t-20 42.5t-24 38.5t-35.5 49.5t-37.5 50.5q-77 109 -77 199q0 115 120 193q24 55 83.5 87.5t131.5 32.5q88 0 185 -33l-30 -200h-41q-40 182 -154 182q-46 0 -77 -36t-31 -80q0 -19 4.5 -36.5t20 -43 t23.5 -38t36 -50.5t37 -50q78 -108 78 -199q0 -114 -121 -193q-24 -55 -83.5 -87.5t-131.5 -32.5q-89 0 -184 33zM146 448q0 -79 74 -184q10 -13 36 -49t35 -48.5t26 -40t23 -43t12 -36.5t6 -41q0 -13 -1 -19q43 50 43 108q0 78 -75 184q-10 13 -36 49t-35 48.5t-26 40 t-23 43t-12 36.5t-6 41q0 12 1 17q-42 -47 -42 -106z" />
<glyph unicode="&#xa8;" horiz-adv-x="414" d="M138 653q0 34 28.5 60.5t63.5 26.5q25 0 40.5 -16t15.5 -40q0 -34 -27.5 -61t-60.5 -27q-27 0 -43.5 16.5t-16.5 40.5zM326 653q0 34 28.5 60.5t63.5 26.5q25 0 40.5 -16t15.5 -40q0 -34 -27.5 -61t-60.5 -27q-27 0 -43.5 16.5t-16.5 40.5z" />
<glyph unicode="&#xa9;" horiz-adv-x="811" d="M49 275q0 85 37 166t98.5 142.5t147 99t177.5 37.5q139 0 221.5 -79.5t82.5 -204.5q0 -85 -36.5 -166.5t-97.5 -143t-147 -99t-178 -37.5q-140 0 -222.5 80t-82.5 205zM127 288q0 -105 68 -175t169 -70q138 0 254.5 116.5t116.5 261.5q0 106 -68 176t-170 70 q-138 0 -254 -117t-116 -262zM208 305q0 96 89 180.5t205 84.5q39 0 80.5 -8.5t62.5 -21.5l-18 -111h-43q-11 44 -33.5 73.5t-50.5 29.5q-61 0 -103 -81t-42 -153q0 -53 20.5 -86.5t54.5 -33.5q24 0 49 17t40.5 35t46.5 57h43l-61 -124q-62 -23 -141 -23q-87 0 -143 47 t-56 118z" />
<glyph unicode="&#xaa;" horiz-adv-x="484" d="M81 421q0 121 81 211t189 90q26 0 70 -35l73 75h42l-79 -321q-10 -33 14 -33q21 0 65 21l-3 -47q-33 -29 -87.5 -53t-88.5 -24q-44 0 -35 50l13 82h-9q-33 -61 -71 -96.5t-75 -35.5q-43 0 -71 33t-28 83zM227 445q0 -24 14 -24q27 0 63 51t60 145q-32 37 -60 37 q-26 0 -51.5 -83t-25.5 -126z" />
<glyph unicode="&#xab;" horiz-adv-x="547" d="M19 236l1 9l2 9l261 192h43l-158 -201l73 -201h-43zM254 236l2 9l1 9l241 164h43l-145 -173l72 -173h-43z" />
<glyph unicode="&#xac;" horiz-adv-x="438" d="M52 270l14 66h340l-4 -21l-37 -175h-71l27 130h-269z" />
<glyph unicode="&#xad;" horiz-adv-x="412" d="M43 196l24 114h302l-24 -114h-302z" />
<glyph unicode="&#xae;" horiz-adv-x="491" d="M115 557q0 100 80 179.5t183 79.5q76 0 124 -48t48 -121q0 -100 -80.5 -178.5t-182.5 -78.5q-77 0 -124.5 47t-47.5 120zM161 567q0 -57 38 -94t98 -37q80 0 143 62t63 141q0 57 -38 94t-99 37q-80 0 -142.5 -62t-62.5 -141zM184 500l13 32h9q13 0 16 17l27 129h-24 l12 32h146q38 0 59.5 -13.5t21.5 -36.5q0 -24 -19.5 -43.5t-50.5 -27.5l22 -39q11 -20 30 -34l-15 -16q-68 0 -79 26l-28 59h-14l-11 -53h24l-13 -32h-126zM316 616h28q16 0 27.5 10.5t11.5 29.5q0 22 -28 22h-26z" />
<glyph unicode="&#xaf;" horiz-adv-x="353" d="M99 597q4 15 22 39t30 24h291q-4 -19 -19.5 -41t-32.5 -22h-291z" />
<glyph unicode="&#xb0;" horiz-adv-x="262" d="M101 581q0 55 44 97t99 42q41 0 67 -26t26 -65q0 -55 -44 -97t-98 -42q-42 0 -68 25.5t-26 65.5zM161 592q0 -19 12.5 -32t33.5 -13q27 0 48.5 21.5t21.5 49.5q0 20 -12.5 32.5t-32.5 12.5q-28 0 -49.5 -21.5t-21.5 -49.5z" />
<glyph unicode="&#xb1;" horiz-adv-x="488" d="M-2 0l15 66h376l-15 -66h-376zM53 257l14 66h153l33 155h71l-33 -155h152l-14 -66h-152l-33 -155h-71l33 155h-153z" />
<glyph unicode="&#xb2;" horiz-adv-x="454" d="M75 453q65 39 104.5 64.5t82.5 58t63 62t20 57.5q0 50 -54 50q-55 0 -135 -59l-21 30q48 49 110.5 83t122.5 34q53 0 83 -27.5t30 -70.5q0 -72 -61.5 -121.5t-164.5 -89.5h84q40 0 67 17t58 57h33l-62 -189q-44 20 -139 20h-207z" />
<glyph unicode="&#xb3;" horiz-adv-x="426" d="M91 445l32 135h33q7 -64 30.5 -91.5t66.5 -27.5q39 0 60 22.5t21 51.5q0 54 -105 54l-3 28l19 6q19 6 24.5 8.5t22 9.5t23.5 13t17 14.5t14 19t4 22.5q0 38 -51 38q-22 0 -44 -9t-37 -19t-44 -32l-22 30q110 114 217 114q51 0 85.5 -19.5t34.5 -54.5q0 -27 -11.5 -47 t-34.5 -33.5t-41.5 -21t-49.5 -17.5q-9 -3 -13 -4q134 -10 134 -79q0 -43 -37 -75.5t-88.5 -47.5t-105.5 -15q-84 0 -151 27z" />
<glyph unicode="&#xb4;" horiz-adv-x="311" d="M91 563q60 81 130.5 159t95.5 78q22 0 31 -23.5t5 -49.5q-5 -23 -26.5 -44t-37.5 -30t-47 -25l-142 -76z" />
<glyph unicode="&#xb5;" horiz-adv-x="674" d="M-1.5 -67.5q15.5 115.5 44.5 173.5h1q48 105 83 242q10 40 -21 40q-26 0 -81 -25l4 56q43 38 106.5 67.5t105.5 29.5q83 0 55 -107q-31 -123 -86 -272q-7 -19 14 -19q30 0 77 63t89 151.5t62 163.5l153 20l-87 -358q-6 -24 0 -32t21 -8q40 0 95 25l-4 -56 q-43 -38 -106 -67.5t-105 -29.5q-87 0 -48 128l38 124h-9q-56 -106 -129.5 -179t-140.5 -73q-8 0 -26 2q3 -84 47 -172l-151 -60q-17 57 -1.5 172.5z" />
<glyph unicode="&#xb6;" horiz-adv-x="587" d="M86 439q0 112 87 191.5t195 79.5h308l-21 -48l-36 -9q-51 -12 -62 -69l-109 -513q-24 -114 -76.5 -170.5t-148.5 -67.5l-2 24q74 36 105 91t56 169l113 535h-50l-80 -380h-110q-73 0 -121 45.5t-48 121.5z" />
<glyph unicode="&#xb7;" horiz-adv-x="269" d="M49 236q0 41 31.5 71.5t72.5 30.5q30 0 48.5 -18t18.5 -47q0 -42 -31 -73t-71 -31q-31 0 -50 18.5t-19 48.5z" />
<glyph unicode="&#xb8;" horiz-adv-x="203" d="M-92 -274q62 53 62 97q0 18 -10.5 31t-35.5 32l106 139h32l-33 -76q55 -34 55 -73q0 -47 -53 -94t-114 -67z" />
<glyph unicode="&#xb9;" horiz-adv-x="413" d="M77 428l19 48l31 5q45 7 67 24.5t31 59.5l33 151l-119 -17l9 43q53 7 133 35.5t133 54.5l13 -10q-38 -85 -71 -239l-21 -97l107 5l-23 -63h-342z" />
<glyph unicode="&#xba;" horiz-adv-x="505" d="M94 460q0 104 81.5 181.5t198.5 77.5q74 0 120.5 -43t46.5 -111q0 -104 -82 -182t-198 -78q-74 0 -120.5 43t-46.5 112zM241 467q0 -53 16.5 -83t44.5 -30q31 0 53.5 40.5t30.5 84.5t8 79q0 52 -16.5 82t-45.5 30q-31 0 -53 -40.5t-30 -84t-8 -78.5z" />
<glyph unicode="&#xbb;" horiz-adv-x="547" d="M2 72l145 173l-72 173h43l171 -164l-2 -9l-1 -9l-241 -164h-43zM217 44l158 201l-73 201h43l179 -192l-1 -9l-2 -9l-261 -192h-43z" />
<glyph unicode="&#xbc;" horiz-adv-x="874" d="M51 324l19 48l31 5q45 7 67 24.5t31 59.5l33 151l-119 -17l9 43q53 7 133 35.5t133 54.5l13 -10q-38 -85 -71 -239l-21 -97l107 5l-23 -63h-342zM246 2l539 720l45 -20l-538 -720zM442 96l348 308l20 -6l-51 -241h62l-28 -83h-51l-16 -74h-107l16 74h-191zM571 157h81 l19 90z" />
<glyph unicode="&#xbd;" horiz-adv-x="956" d="M51 324l19 48l31 5q45 7 67 24.5t31 59.5l33 151l-119 -17l9 43q53 7 133 35.5t133 54.5l13 -10q-38 -85 -71 -239l-21 -97l107 5l-23 -63h-342zM204 0l539 720l45 -20l-538 -720zM483 24q65 39 104.5 64.5t82.5 58t63 62t20 57.5q0 50 -54 50q-55 0 -135 -59l-21 30 q48 49 110.5 83t122.5 34q53 0 83 -27.5t30 -70.5q0 -72 -61.5 -121.5t-164.5 -89.5h84q40 0 67 17t58 57h33l-62 -189q-44 20 -139 20h-207z" />
<glyph unicode="&#xbe;" horiz-adv-x="905" d="M65 341l32 135h33q7 -64 30.5 -91.5t66.5 -27.5q39 0 60 22.5t21 51.5q0 54 -105 54l-3 28l19 6q19 6 24.5 8.5t22 9.5t23.5 13t17 14.5t14 19t4 22.5q0 38 -51 38q-22 0 -44 -9t-37 -19t-44 -32l-22 30q110 114 217 114q51 0 85.5 -19.5t34.5 -54.5q0 -27 -11.5 -47 t-34.5 -33.5t-41.5 -21t-49.5 -17.5q-9 -3 -13 -4q134 -10 134 -79q0 -43 -37 -75.5t-88.5 -47.5t-105.5 -15q-84 0 -151 27zM253 0l539 720l45 -20l-538 -720zM477 96l348 308l20 -6l-51 -241h62l-28 -83h-51l-16 -74h-107l16 74h-191zM606 157h81l19 90z" />
<glyph unicode="&#xbf;" horiz-adv-x="435" d="M-22 -57q0 48 26.5 83t64 55.5t75 38.5t64 43.5t26.5 59.5q0 23 -7 47h67q1 -3 10.5 -24.5t12.5 -30t7 -26.5t4 -33q0 -43 -41 -82.5t-91 -62.5t-91 -47t-41 -40q0 -6 4.5 -11.5t14.5 -10.5t19.5 -8.5t27 -7.5t30 -6.5t35 -6.5t35.5 -7q16 -3 25.5 -32.5t8.5 -55.5 q0 -47 -58 -47q-91 0 -159.5 59.5t-68.5 152.5zM176 393q0 47 34.5 81t79.5 34q34 0 55.5 -21t21.5 -53q0 -46 -35 -79.5t-81 -33.5q-34 0 -54.5 20t-20.5 52z" />
<glyph unicode="&#xc0;" horiz-adv-x="822" d="M-58 0l20 48l50 9q6 1 12 3t12 5.5t10 6t10.5 8.5t9.5 8.5t10 10t9.5 10.5t10.5 12.5t10 12.5l393 461q-24 65 -123 95l8 20h274l9 -652l104 9l-25 -67h-344l20 48l35 9q31 8 43 23.5t12 44.5l-1 69h-276l-116 -136l106 9l-24 -67h-259zM284 252h227l-4 262zM427 921 q5 23 21 40.5t34 17.5q19 0 61 -68t70 -127l-12 -11l-104 49q-46 21 -59 38q-18 24 -11 61z" />
<glyph unicode="&#xc1;" horiz-adv-x="822" d="M-58 0l20 48l50 9q6 1 12 3t12 5.5t10 6t10.5 8.5t9.5 8.5t10 10t9.5 10.5t10.5 12.5t10 12.5l393 461q-24 65 -123 95l8 20h274l9 -652l104 9l-25 -67h-344l20 48l35 9q31 8 43 23.5t12 44.5l-1 69h-276l-116 -136l106 9l-24 -67h-259zM284 252h227l-4 262zM456 784 q179 196 212 196q17 0 26.5 -17t4.5 -40t-16 -40t-30 -29t-30 -17t-34 -14l-125 -50z" />
<glyph unicode="&#xc2;" horiz-adv-x="822" d="M-58 0l20 48l50 9q6 1 12 3t12 5.5t10 6t10.5 8.5t9.5 8.5t10 10t9.5 10.5t10.5 12.5t10 12.5l393 461q-24 65 -123 95l8 20h274l9 -652l104 9l-25 -67h-344l20 48l35 9q31 8 43 23.5t12 44.5l-1 69h-276l-116 -136l106 9l-24 -67h-259zM284 252h227l-4 262zM392 784 q56 67 119 131t79 64t48.5 -62t61.5 -133l-14 -11l-121 95l-165 -95z" />
<glyph unicode="&#xc3;" horiz-adv-x="822" d="M-58 0l20 48l50 9q6 1 12 3t12 5.5t10 6t10.5 8.5t9.5 8.5t10 10t9.5 10.5t10.5 12.5t10 12.5l393 461q-24 65 -123 95l8 20h274l9 -652l104 9l-25 -67h-344l20 48l35 9q31 8 43 23.5t12 44.5l-1 69h-276l-116 -136l106 9l-24 -67h-259zM284 252h227l-4 262zM390 818 q30 55 74 99.5t75 44.5q18 0 71 -31t67 -31q46 0 94 60l8 -10q-27 -56 -71 -101t-75 -45q-17 0 -63.5 28t-74.5 28q-22 0 -97 -52z" />
<glyph unicode="&#xc4;" horiz-adv-x="822" d="M-58 0l20 48l50 9q6 1 12 3t12 5.5t10 6t10.5 8.5t9.5 8.5t10 10t9.5 10.5t10.5 12.5t10 12.5l393 461q-24 65 -123 95l8 20h274l9 -652l104 9l-25 -67h-344l20 48l35 9q31 8 43 23.5t12 44.5l-1 69h-276l-116 -136l106 9l-24 -67h-259zM284 252h227l-4 262zM407 854 q0 30 25.5 54t57.5 24q22 0 36 -14.5t14 -35.5q0 -31 -24.5 -55.5t-54.5 -24.5q-24 0 -39 15t-15 37zM576 854q0 30 25.5 54t57.5 24q22 0 36 -14.5t14 -35.5q0 -31 -24.5 -55.5t-54.5 -24.5q-24 0 -39 15t-15 37z" />
<glyph unicode="&#xc5;" horiz-adv-x="822" d="M-58 0l20 48l50 9q6 1 12 3t12 5.5t10 6t10.5 8.5t9.5 8.5t10 10t9.5 10.5t10.5 12.5t10 12.5l393 461q-24 65 -123 95l8 20h274l9 -652l104 9l-25 -67h-344l20 48l35 9q31 8 43 23.5t12 44.5l-1 69h-276l-116 -136l106 9l-24 -67h-259zM284 252h227l-4 262zM436 841 q0 47 42.5 75t101.5 28q50 0 77.5 -18t27.5 -50q0 -45 -40 -73.5t-103 -28.5q-50 0 -78 18t-28 49zM527 832q0 -30 21 -30q23 0 35 30t12 56q0 28 -21 28q-22 0 -34.5 -29.5t-12.5 -54.5z" />
<glyph unicode="&#xc6;" horiz-adv-x="1104" d="M-58 0l20 48l50 9q6 1 12 3t12 5.5t10 6t10.5 8.5t9.5 8.5t10 10t9.5 10.5t10.5 12.5t10 12.5l384 462q54 64 -70 87q-21 4 -47 7l9 20h570q66 0 140 28l-18 -254h-41q-19 86 -49 127t-88 41h-134l-59 -276h76q41 0 69.5 24.5t53.5 88.5h41l-59 -278h-41q1 63 -17 87 t-59 24h-76l-56 -264h169q105 0 219 196h41l-108 -282q-56 28 -129 28h-455l20 48l32 8q56 15 66 64l43 202h-195l-219 -264l110 9l-24 -67h-263zM383 376h161l56 261z" />
<glyph unicode="&#xc7;" horiz-adv-x="751" d="M49 270q0 120 66 224t178.5 165t242.5 61q129 0 238 -52l-33 -204h-41q-17 98 -62 145.5t-133 47.5q-70 0 -125.5 -37.5t-88 -97t-49.5 -126t-17 -131.5q0 -101 45.5 -156.5t129.5 -55.5q82 0 141 44.5t131 150.5h41l-88 -226q-111 -32 -244 -32h-5l-14 -33 q55 -34 55 -73q0 -47 -53 -94t-114 -67l-9 11q62 53 62 97q0 18 -10.5 31t-35.5 32l75 98q-130 13 -206.5 87.5t-76.5 190.5z" />
<glyph unicode="&#xc8;" horiz-adv-x="720" d="M-11 0l20 48l32 8q55 15 66 64l113 532l-98 -9l25 67h422q67 0 140 28l-18 -254h-41q-20 86 -49.5 127t-87.5 41h-134l-56 -260h73q41 0 69 24.5t53 88.5h41l-59 -278h-41q1 63 -16.5 87t-58.5 24h-72l-60 -280h169q106 0 218 196h41l-107 -282q-56 28 -129 28h-455z M364 920q5 23 21 40.5t34 17.5q19 0 61 -68t70 -127l-12 -11l-104 49q-46 21 -59 38q-18 24 -11 61z" />
<glyph unicode="&#xc9;" horiz-adv-x="720" d="M-11 0l20 48l32 8q55 15 66 64l113 532l-98 -9l25 67h422q67 0 140 28l-18 -254h-41q-20 86 -49.5 127t-87.5 41h-134l-56 -260h73q41 0 69 24.5t53 88.5h41l-59 -278h-41q1 63 -16.5 87t-58.5 24h-72l-60 -280h169q106 0 218 196h41l-107 -282q-56 28 -129 28h-455z M393 783q179 196 212 196q17 0 26.5 -17t4.5 -40t-16 -40t-30 -29t-30 -17t-34 -14l-125 -50z" />
<glyph unicode="&#xca;" horiz-adv-x="720" d="M-11 0l20 48l32 8q55 15 66 64l113 532l-98 -9l25 67h422q67 0 140 28l-18 -254h-41q-20 86 -49.5 127t-87.5 41h-134l-56 -260h73q41 0 69 24.5t53 88.5h41l-59 -278h-41q1 63 -16.5 87t-58.5 24h-72l-60 -280h169q106 0 218 196h41l-107 -282q-56 28 -129 28h-455z M329 783q56 67 119 131t79 64t48.5 -62t61.5 -133l-14 -11l-121 95l-165 -95z" />
<glyph unicode="&#xcb;" horiz-adv-x="720" d="M-11 0l20 48l32 8q55 15 66 64l113 532l-98 -9l25 67h422q67 0 140 28l-18 -254h-41q-20 86 -49.5 127t-87.5 41h-134l-56 -260h73q41 0 69 24.5t53 88.5h41l-59 -278h-41q1 63 -16.5 87t-58.5 24h-72l-60 -280h169q106 0 218 196h41l-107 -282q-56 28 -129 28h-455z M344 853q0 30 25.5 54t57.5 24q22 0 36 -14t14 -36q0 -31 -24.5 -55t-54.5 -24q-24 0 -39 14.5t-15 36.5zM513 853q0 30 25.5 54t57.5 24q22 0 36 -14t14 -36q0 -31 -24.5 -55t-54.5 -24q-24 0 -39 14.5t-15 36.5z" />
<glyph unicode="&#xcc;" horiz-adv-x="430" d="M-6 0l20 48l32 8q55 15 66 67l113 529l-98 -9l25 67h330l-19 -48l-34 -9q-48 -13 -59 -67l-113 -528l97 9l-24 -67h-336zM216 920q5 23 21 40.5t34 17.5q19 0 61 -68t70 -127l-12 -11l-104 49q-46 21 -59 38q-18 24 -11 61z" />
<glyph unicode="&#xcd;" horiz-adv-x="430" d="M-6 0l20 48l32 8q55 15 66 67l113 529l-98 -9l25 67h330l-19 -48l-34 -9q-48 -13 -59 -67l-113 -528l97 9l-24 -67h-336zM245 783q179 196 212 196q17 0 26.5 -17t4.5 -40t-16 -40t-30 -29t-30 -17t-34 -14l-125 -50z" />
<glyph unicode="&#xce;" horiz-adv-x="430" d="M-6 0l20 48l32 8q55 15 66 67l113 529l-98 -9l25 67h330l-19 -48l-34 -9q-48 -13 -59 -67l-113 -528l97 9l-24 -67h-336zM181 783q56 67 119 131t79 64t48.5 -62t61.5 -133l-14 -11l-121 95l-165 -95z" />
<glyph unicode="&#xcf;" horiz-adv-x="430" d="M-6 0l20 48l32 8q55 15 66 67l113 529l-98 -9l25 67h330l-19 -48l-34 -9q-48 -13 -59 -67l-113 -528l97 9l-24 -67h-336zM196 853q0 30 25.5 54t57.5 24q22 0 36 -14t14 -36q0 -31 -24.5 -55t-54.5 -24q-24 0 -39 14.5t-15 36.5zM365 853q0 30 26 54t57 24q22 0 36 -14 t14 -36q0 -31 -24.5 -55t-54.5 -24q-24 0 -39 14.5t-15 36.5z" />
<glyph unicode="&#xd0;" horiz-adv-x="844" d="M-11 0l21 48l31 8q57 15 68 67l45 213h-93l9 48h94l57 268l-99 -9l25 67h357q157 0 250.5 -76.5t93.5 -193.5q0 -111 -62.5 -212t-175.5 -164.5t-249 -63.5h-372zM253 58h120q88 0 157.5 58t105 145t35.5 181q0 97 -55 153.5t-162 56.5h-74l-57 -268h120l-10 -48h-121z " />
<glyph unicode="&#xd1;" horiz-adv-x="820" d="M-19 0l20 48l52 5q52 4 63 53l104 490q-41 52 -111 94l8 20h239l303 -474l89 416l-134 -9l25 67h295l-20 -48l-50 -5q-54 -6 -67 -64l-117 -555l-73 -48l-340 534l-99 -466l132 9l-24 -67h-295zM392 817q30 55 74 99.5t75 44.5q18 0 71 -31t67 -31q46 0 94 60l8 -10 q-27 -56 -71 -101t-75 -45q-17 0 -63.5 28t-74.5 28q-22 0 -97 -52z" />
<glyph unicode="&#xd2;" horiz-adv-x="848" d="M51 284q0 111 64.5 211.5t175 162.5t236.5 62q141 0 231 -84.5t90 -209.5q0 -113 -64 -213.5t-174 -161.5t-236 -61q-142 0 -232.5 84.5t-90.5 209.5zM231 301q0 -106 50.5 -177t129.5 -71t139.5 56.5t89 136t28.5 163.5q0 106 -50 177t-129 71t-140 -57.5t-89.5 -137.5 t-28.5 -161zM423 920q5 23 21 40.5t34 17.5q19 0 61 -68t70 -127l-12 -11l-104 49q-46 21 -59 38q-18 24 -11 61z" />
<glyph unicode="&#xd3;" horiz-adv-x="848" d="M51 284q0 111 64.5 211.5t175 162.5t236.5 62q141 0 231 -84.5t90 -209.5q0 -113 -64 -213.5t-174 -161.5t-236 -61q-142 0 -232.5 84.5t-90.5 209.5zM231 301q0 -106 50.5 -177t129.5 -71t139.5 56.5t89 136t28.5 163.5q0 106 -50 177t-129 71t-140 -57.5t-89.5 -137.5 t-28.5 -161zM452 783q179 196 212 196q17 0 26.5 -17t4.5 -40t-16 -40t-30 -29t-30 -17t-34 -14l-125 -50z" />
<glyph unicode="&#xd4;" horiz-adv-x="848" d="M51 284q0 111 64.5 211.5t175 162.5t236.5 62q141 0 231 -84.5t90 -209.5q0 -113 -64 -213.5t-174 -161.5t-236 -61q-142 0 -232.5 84.5t-90.5 209.5zM231 301q0 -106 50.5 -177t129.5 -71t139.5 56.5t89 136t28.5 163.5q0 106 -50 177t-129 71t-140 -57.5t-89.5 -137.5 t-28.5 -161zM388 783q56 67 119 131t79 64t48.5 -62t61.5 -133l-14 -11l-121 95l-165 -95z" />
<glyph unicode="&#xd5;" horiz-adv-x="848" d="M51 284q0 111 64.5 211.5t175 162.5t236.5 62q141 0 231 -84.5t90 -209.5q0 -113 -64 -213.5t-174 -161.5t-236 -61q-142 0 -232.5 84.5t-90.5 209.5zM231 301q0 -106 50.5 -177t129.5 -71t139.5 56.5t89 136t28.5 163.5q0 106 -50 177t-129 71t-140 -57.5t-89.5 -137.5 t-28.5 -161zM386 817q30 55 74 99.5t75 44.5q18 0 71 -31t67 -31q46 0 94 60l8 -10q-27 -56 -71 -101t-75 -45q-17 0 -63.5 28t-74.5 28q-22 0 -97 -52z" />
<glyph unicode="&#xd6;" horiz-adv-x="848" d="M51 284q0 111 64.5 211.5t175 162.5t236.5 62q141 0 231 -84.5t90 -209.5q0 -113 -64 -213.5t-174 -161.5t-236 -61q-142 0 -232.5 84.5t-90.5 209.5zM231 301q0 -106 50.5 -177t129.5 -71t139.5 56.5t89 136t28.5 163.5q0 106 -50 177t-129 71t-140 -57.5t-89.5 -137.5 t-28.5 -161zM403 853q0 30 25.5 54t57.5 24q22 0 36 -14t14 -36q0 -31 -24.5 -55t-54.5 -24q-24 0 -39 14.5t-15 36.5zM572 853q0 30 25.5 54t57.5 24q22 0 36 -14t14 -36q0 -31 -24.5 -55t-54.5 -24q-24 0 -39 14.5t-15 36.5z" />
<glyph unicode="&#xd7;" horiz-adv-x="450" d="M18 95l150 124l-96 122l56 47l96 -123l150 124l40 -51l-150 -123l96 -122l-57 -46l-95 121l-150 -123z" />
<glyph unicode="&#xd8;" horiz-adv-x="854" d="M-28 0l136 110q-57 78 -57 174q0 111 64.5 211.5t175 162.5t236.5 62q140 0 230 -84l93 75h81l-139 -113q56 -75 56 -172q0 -113 -64 -213.5t-174 -161.5t-236 -61q-140 0 -231 83l-90 -73h-81zM231 301q0 -45 9 -84l402 326q-23 53 -63 83.5t-90 30.5q-79 0 -140 -57.5 t-89.5 -137.5t-28.5 -161zM258 166q23 -53 63 -83t90 -30q79 0 139.5 56.5t89 136t28.5 163.5q0 43 -9 82z" />
<glyph unicode="&#xd9;" horiz-adv-x="803" d="M112 222l92 430l-90 -9l25 67h337l-20 -48l-39 -9q-58 -16 -73 -89l-65 -304q-19 -88 24 -137.5t134 -49.5q83 0 139.5 45t74.5 130l86 404l-112 -9l24 67h250l-20 -48l-25 -5q-29 -6 -44.5 -22t-22.5 -50l-69 -321q-27 -131 -116 -202.5t-218 -71.5q-147 0 -220.5 63 t-51.5 169zM462 920q5 23 21 40.5t34 17.5q19 0 61 -68t70 -127l-12 -11l-104 49q-46 21 -59 38q-18 24 -11 61z" />
<glyph unicode="&#xda;" horiz-adv-x="803" d="M112 222l92 430l-90 -9l25 67h337l-20 -48l-39 -9q-58 -16 -73 -89l-65 -304q-19 -88 24 -137.5t134 -49.5q83 0 139.5 45t74.5 130l86 404l-112 -9l24 67h250l-20 -48l-25 -5q-29 -6 -44.5 -22t-22.5 -50l-69 -321q-27 -131 -116 -202.5t-218 -71.5q-147 0 -220.5 63 t-51.5 169zM491 783q179 196 212 196q17 0 26.5 -17t4.5 -40t-16 -40t-30 -29t-30 -17t-34 -14l-125 -50z" />
<glyph unicode="&#xdb;" horiz-adv-x="803" d="M112 222l92 430l-90 -9l25 67h337l-20 -48l-39 -9q-58 -16 -73 -89l-65 -304q-19 -88 24 -137.5t134 -49.5q83 0 139.5 45t74.5 130l86 404l-112 -9l24 67h250l-20 -48l-25 -5q-29 -6 -44.5 -22t-22.5 -50l-69 -321q-27 -131 -116 -202.5t-218 -71.5q-147 0 -220.5 63 t-51.5 169zM427 783q56 67 119 131t79 64t48.5 -62t61.5 -133l-14 -11l-121 95l-165 -95z" />
<glyph unicode="&#xdc;" horiz-adv-x="803" d="M112 222l92 430l-90 -9l25 67h337l-20 -48l-39 -9q-58 -16 -73 -89l-65 -304q-19 -88 24 -137.5t134 -49.5q83 0 139.5 45t74.5 130l86 404l-112 -9l24 67h250l-20 -48l-25 -5q-29 -6 -44.5 -22t-22.5 -50l-69 -321q-27 -131 -116 -202.5t-218 -71.5q-147 0 -220.5 63 t-51.5 169zM442 853q0 30 25.5 54t56.5 24q22 0 36.5 -14t14.5 -36q0 -31 -24.5 -55t-54.5 -24q-24 0 -39 14.5t-15 36.5zM611 853q0 30 25.5 54t57.5 24q22 0 36 -14t14 -36q0 -31 -24.5 -55t-54.5 -24q-24 0 -39 14.5t-15 36.5z" />
<glyph unicode="&#xdd;" horiz-adv-x="769" d="M102 643l25 67h360l-19 -48l-51 -9q-34 -6 -42 -20.5t4 -44.5l90 -225l235 289l-106 -9l24 67h256l-20 -48l-43 -8q-22 -4 -40.5 -17t-44.5 -45l-241 -295l-52 -239l115 9l-24 -67h-358l20 48l25 9q68 25 81 86l34 154l-141 355zM460 783q179 196 212 196q17 0 26.5 -17 t4.5 -40t-16 -40t-30 -29t-30 -17t-34 -14l-125 -50z" />
<glyph unicode="&#xde;" horiz-adv-x="728" d="M-11 0l20 48l32 8q55 15 66 67l113 529l-98 -9l25 67h330l-19 -48l-34 -9q-48 -13 -59 -67l-4 -20h90q135 0 207 -42t72 -124q0 -76 -50 -135.5t-127.5 -90t-164.5 -30.5h-118l-18 -86l97 9l-24 -67h-336zM282 197h77q87 0 140.5 55t53.5 126q0 59 -33.5 94.5t-95.5 35.5 h-76z" />
<glyph unicode="&#xdf;" horiz-adv-x="749" d="M-248 -203q7 31 26.5 60.5t38.5 29.5q17 0 75 -21.5t80 -21.5q33 0 52.5 40t34.5 118l90 453h-101l10 51h102q34 127 126.5 195.5t229.5 68.5q85 0 142.5 -38t57.5 -100q0 -36 -33.5 -70t-73 -56t-73 -46.5t-33.5 -42.5q0 -11 12 -27.5t24.5 -28.5t36 -33t32.5 -29 q81 -78 81 -153q0 -69 -51.5 -112.5t-146.5 -43.5q-59 0 -120 25.5t-61 51.5q0 32 14 60.5t41 28.5q25 0 93.5 -51t89.5 -51q9 0 15 6t6 16q0 49 -82 137q-70 74 -86 100q-16 27 -16 53q0 25 18 52.5t44 52.5t51.5 50.5t43.5 55.5t18 59q0 74 -78 74q-72 0 -106.5 -37.5 t-50.5 -123.5l-99 -499q-30 -153 -136 -221.5t-297 -68.5q-22 0 -33.5 10t-7.5 27z" />
<glyph unicode="&#xe0;" d="M15 137q0 156 87 267.5t221 111.5q37 0 97 -46l95 97h29l-100 -408q-12 -41 21 -41q26 0 81 25l-4 -56q-45 -39 -102.5 -68t-98.5 -29q-57 0 -45 63l17 104h-12q-42 -78 -90 -122.5t-95 -44.5q-52 0 -76.5 40t-24.5 107zM164 147q0 -32 17 -32q34 0 85.5 75t83.5 195 q-55 47 -86 47q-33 0 -66.5 -115t-33.5 -170zM185 710q0 27 15 58.5t37 31.5q9 0 41 -45.5t72.5 -107.5t58.5 -84l-11 -11l-123 59q-90 42 -90 99z" />
<glyph unicode="&#xe1;" d="M15 137q0 156 87 267.5t221 111.5q37 0 97 -46l95 97h29l-100 -408q-12 -41 21 -41q26 0 81 25l-4 -56q-45 -39 -102.5 -68t-98.5 -29q-57 0 -45 63l17 104h-12q-42 -78 -90 -122.5t-95 -44.5q-52 0 -76.5 40t-24.5 107zM164 147q0 -32 17 -32q34 0 85.5 75t83.5 195 q-55 47 -86 47q-33 0 -66.5 -115t-33.5 -170zM241 563q60 81 130.5 159t95.5 78q22 0 31 -23.5t5 -49.5q-5 -23 -26.5 -44t-37.5 -30t-47 -25l-142 -76z" />
<glyph unicode="&#xe2;" d="M15 137q0 156 87 267.5t221 111.5q37 0 97 -46l95 97h29l-100 -408q-12 -41 21 -41q26 0 81 25l-4 -56q-45 -39 -102.5 -68t-98.5 -29q-57 0 -45 63l17 104h-12q-42 -78 -90 -122.5t-95 -44.5q-52 0 -76.5 40t-24.5 107zM164 147q0 -32 17 -32q34 0 85.5 75t83.5 195 q-55 47 -86 47q-33 0 -66.5 -115t-33.5 -170zM188 579q177 221 199 221q5 0 11.5 -8t14.5 -25t15 -32.5t16 -41.5t14.5 -41t14.5 -41t11 -32l-13 -11l-113 107l-161 -107z" />
<glyph unicode="&#xe3;" d="M15 137q0 156 87 267.5t221 111.5q37 0 97 -46l95 97h29l-100 -408q-12 -41 21 -41q26 0 81 25l-4 -56q-45 -39 -102.5 -68t-98.5 -29q-57 0 -45 63l17 104h-12q-42 -78 -90 -122.5t-95 -44.5q-52 0 -76.5 40t-24.5 107zM160 606q31 54 78.5 98.5t78.5 44.5q18 0 71 -31 t67 -31q46 0 94 60l10 -11q-26 -56 -71.5 -100.5t-76.5 -44.5q-17 0 -63.5 28t-74.5 28q-35 0 -103 -52zM164 147q0 -32 17 -32q34 0 85.5 75t83.5 195q-55 47 -86 47q-33 0 -66.5 -115t-33.5 -170z" />
<glyph unicode="&#xe4;" d="M15 137q0 156 87 267.5t221 111.5q37 0 97 -46l95 97h29l-100 -408q-12 -41 21 -41q26 0 81 25l-4 -56q-45 -39 -102.5 -68t-98.5 -29q-57 0 -45 63l17 104h-12q-42 -78 -90 -122.5t-95 -44.5q-52 0 -76.5 40t-24.5 107zM164 147q0 -32 17 -32q34 0 85.5 75t83.5 195 q-55 47 -86 47q-33 0 -66.5 -115t-33.5 -170zM188 661q0 34 28.5 60.5t63.5 26.5q25 0 40.5 -16t15.5 -40q0 -34 -27.5 -61t-60.5 -27q-27 0 -43.5 16.5t-16.5 40.5zM376 661q0 34 28.5 60.5t63.5 26.5q25 0 40.5 -16t15.5 -40q0 -34 -27.5 -61t-60.5 -27q-27 0 -43.5 16.5 t-16.5 40.5z" />
<glyph unicode="&#xe5;" d="M15 137q0 156 87 267.5t221 111.5q37 0 97 -46l95 97h29l-100 -408q-12 -41 21 -41q26 0 81 25l-4 -56q-45 -39 -102.5 -68t-98.5 -29q-57 0 -45 63l17 104h-12q-42 -78 -90 -122.5t-95 -44.5q-52 0 -76.5 40t-24.5 107zM164 147q0 -32 17 -32q34 0 85.5 75t83.5 195 q-55 47 -86 47q-33 0 -66.5 -115t-33.5 -170zM221 638q0 50 45 83.5t110 33.5q51 0 80.5 -21t29.5 -56q0 -50 -47 -83.5t-107 -33.5q-51 0 -81 21t-30 56zM312 633q0 -44 26 -44q24 0 41.5 34t17.5 60q0 44 -27 44q-24 0 -41 -33.5t-17 -60.5z" />
<glyph unicode="&#xe6;" horiz-adv-x="733" d="M11 139q0 159 86.5 268t221.5 109q46 0 127 -70q91 70 189 70q48 0 76.5 -24t28.5 -59q0 -107 -246 -206l-3 50q41 24 67.5 57t26.5 65q0 40 -30 40q-41 0 -74.5 -75.5t-33.5 -156.5q0 -97 78 -97q80 0 168 90l12 -56q-41 -68 -106 -111t-143 -43q-73 0 -119.5 47.5 t-46.5 126.5q0 98 71 195q-68 73 -105 73q-33 0 -64.5 -114.5t-31.5 -170.5q0 -32 17 -32q31 0 76 38l10 -54q-75 -109 -150 -109q-51 0 -76.5 41t-25.5 108z" />
<glyph unicode="&#xe7;" horiz-adv-x="465" d="M24 175q0 77 42 155.5t117.5 132t160.5 53.5q41 0 91 -12.5t50 -30.5q0 -33 -20 -67t-40 -34q-6 0 -52 27t-75 27q-51 0 -85 -70.5t-34 -140.5q0 -49 20.5 -76t58.5 -27q68 0 150 84l12 -56q-35 -66 -90.5 -106.5t-116.5 -43.5l-14 -33q55 -34 55 -73q0 -47 -53 -94 t-114 -67l-9 11q62 53 62 97q0 18 -10.5 31t-35.5 32l75 99q-66 11 -105.5 60.5t-39.5 121.5z" />
<glyph unicode="&#xe8;" horiz-adv-x="469" d="M21 164q0 81 49.5 163t130.5 135.5t165 53.5q48 0 76.5 -24t28.5 -59q0 -31 -21 -61t-49.5 -52t-72.5 -45.5t-75.5 -37.5t-74.5 -30q0 -95 78 -95q82 0 168 88l12 -56q-41 -68 -106 -111t-143 -43q-73 0 -119.5 47.5t-46.5 126.5zM176 710q0 27 15 58.5t37 31.5 q9 0 41 -45.5t72.5 -107.5t58.5 -84l-11 -11l-123 59q-90 42 -90 99zM186 266q61 32 94.5 63t33.5 68q0 40 -30 40t-57.5 -54t-40.5 -117z" />
<glyph unicode="&#xe9;" horiz-adv-x="469" d="M21 164q0 81 49.5 163t130.5 135.5t165 53.5q48 0 76.5 -24t28.5 -59q0 -31 -21 -61t-49.5 -52t-72.5 -45.5t-75.5 -37.5t-74.5 -30q0 -95 78 -95q82 0 168 88l12 -56q-41 -68 -106 -111t-143 -43q-73 0 -119.5 47.5t-46.5 126.5zM186 266q61 32 94.5 63t33.5 68 q0 40 -30 40t-57.5 -54t-40.5 -117zM231 563q60 81 130.5 159t95.5 78q22 0 31 -23.5t5 -49.5q-5 -23 -26.5 -44t-37.5 -30t-47 -25l-142 -76z" />
<glyph unicode="&#xea;" horiz-adv-x="469" d="M21 164q0 81 49.5 163t130.5 135.5t165 53.5q48 0 76.5 -24t28.5 -59q0 -31 -21 -61t-49.5 -52t-72.5 -45.5t-75.5 -37.5t-74.5 -30q0 -95 78 -95q82 0 168 88l12 -56q-41 -68 -106 -111t-143 -43q-73 0 -119.5 47.5t-46.5 126.5zM178 579q177 221 199 221q5 0 11.5 -8 t14.5 -25t15 -32.5t16 -41.5t14.5 -41t14.5 -41t11 -32l-13 -11l-113 107l-161 -107zM186 266q61 32 94.5 63t33.5 68q0 40 -30 40t-57.5 -54t-40.5 -117z" />
<glyph unicode="&#xeb;" horiz-adv-x="469" d="M21 164q0 81 49.5 163t130.5 135.5t165 53.5q48 0 76.5 -24t28.5 -59q0 -31 -21 -61t-49.5 -52t-72.5 -45.5t-75.5 -37.5t-74.5 -30q0 -95 78 -95q82 0 168 88l12 -56q-41 -68 -106 -111t-143 -43q-73 0 -119.5 47.5t-46.5 126.5zM178 661q0 34 28.5 60.5t63.5 26.5 q25 0 40.5 -16t15.5 -40q0 -34 -27.5 -61t-60.5 -27q-27 0 -43.5 16.5t-16.5 40.5zM186 266q61 32 94.5 63t33.5 68q0 40 -30 40t-57.5 -54t-40.5 -117zM366 661q0 34 28.5 60.5t63.5 26.5q25 0 40.5 -16t15.5 -40q0 -34 -27.5 -61t-60.5 -27q-27 0 -43.5 16.5t-16.5 40.5z " />
<glyph unicode="&#xec;" horiz-adv-x="383" d="M36 436q157 80 261 80q24 0 31 -10t-1 -41l-92 -307q-11 -40 21 -40q37 0 92 25l-4 -56q-42 -36 -113.5 -66.5t-114.5 -30.5t-54 29.5t9 98.5l60 204q9 30 -13.5 47.5t-73.5 12.5zM125 710q0 27 15 58.5t37 31.5q9 0 41 -45.5t72.5 -107.5t58.5 -84l-11 -11l-123 59 q-90 42 -90 99z" />
<glyph unicode="&#xed;" horiz-adv-x="383" d="M36 436q157 80 261 80q24 0 31 -10t-1 -41l-92 -307q-11 -40 21 -40q37 0 92 25l-4 -56q-42 -36 -113.5 -66.5t-114.5 -30.5t-54 29.5t9 98.5l60 204q9 30 -13.5 47.5t-73.5 12.5zM181 563q60 81 130.5 159t95.5 78q22 0 31 -23.5t5 -49.5q-5 -23 -26.5 -44t-37.5 -30 t-47 -25l-142 -76z" />
<glyph unicode="&#xee;" horiz-adv-x="383" d="M36 436q157 80 261 80q24 0 31 -10t-1 -41l-92 -307q-11 -40 21 -40q37 0 92 25l-4 -56q-42 -36 -113.5 -66.5t-114.5 -30.5t-54 29.5t9 98.5l60 204q9 30 -13.5 47.5t-73.5 12.5zM128 579q177 221 199 221q5 0 11.5 -8t14.5 -25t15 -32.5t16 -41.5t14.5 -41t14.5 -41 t11 -32l-13 -11l-113 107l-161 -107z" />
<glyph unicode="&#xef;" horiz-adv-x="383" d="M36 436q157 80 261 80q24 0 31 -10t-1 -41l-92 -307q-11 -40 21 -40q37 0 92 25l-4 -56q-42 -36 -113.5 -66.5t-114.5 -30.5t-54 29.5t9 98.5l60 204q9 30 -13.5 47.5t-73.5 12.5zM128 661q0 34 28.5 60.5t63.5 26.5q25 0 40.5 -16t15.5 -40q0 -34 -27.5 -61t-60.5 -27 q-27 0 -43.5 16.5t-16.5 40.5zM316 661q0 34 28.5 60.5t63.5 26.5q25 0 40.5 -16t15.5 -40q0 -34 -27.5 -61t-60.5 -27q-27 0 -43.5 16.5t-16.5 40.5z" />
<glyph unicode="&#xf0;" horiz-adv-x="571" d="M39 187q0 58 19 114t54 103t91.5 75.5t125.5 28.5q17 0 34 -3q-16 62 -52 113l-113 -73l-30 35l113 73q-46 47 -109 68l29 39q81 -23 148 -64l111 72l30 -35l-100 -64q159 -120 159 -309q0 -67 -20.5 -131t-59 -118t-103.5 -87.5t-146 -33.5q-77 0 -129 54.5t-52 142.5z M196 200q0 -153 66 -153q34 0 62.5 57.5t42.5 130.5t14 134q0 24 -1 36q-33 49 -84 49q-100 0 -100 -254z" />
<glyph unicode="&#xf1;" horiz-adv-x="671" d="M32 420q47 37 119 66.5t131 29.5q24 0 31 -10t-1 -41l-64 -212h9q60 114 128.5 188.5t134.5 74.5q51 0 81 -30t16 -78l-76 -250q-12 -40 21 -40q26 0 81 25l-4 -56q-43 -38 -106.5 -67.5t-105.5 -29.5q-44 0 -55.5 29.5t7.5 98.5l73 245q5 22 2.5 27t-12.5 5 q-23 0 -72.5 -64t-98 -156.5t-67.5 -164.5l-152 -20l76 332q7 31 -12.5 43t-75.5 1zM255 606q31 54 78.5 98.5t78.5 44.5q18 0 71 -31t67 -31q46 0 94 60l10 -11q-26 -56 -71.5 -100.5t-76.5 -44.5q-17 0 -63.5 28t-74.5 28q-35 0 -103 -52z" />
<glyph unicode="&#xf2;" horiz-adv-x="502" d="M23 169q0 77 39 156.5t110 135t152 55.5q72 0 112.5 -52.5t40.5 -134.5q0 -79 -38.5 -157t-109 -129.5t-152.5 -51.5q-72 0 -113 49t-41 129zM155 710q0 27 15 58.5t37 31.5q9 0 41 -45.5t72.5 -107.5t58.5 -84l-11 -11l-123 59q-90 42 -90 99zM172 306q0 -73 29.5 -145 t65.5 -72q28 0 44 37t16 79q0 73 -29 143t-64 70q-34 0 -48 -34t-14 -78z" />
<glyph unicode="&#xf3;" horiz-adv-x="502" d="M23 169q0 77 39 156.5t110 135t152 55.5q72 0 112.5 -52.5t40.5 -134.5q0 -79 -38.5 -157t-109 -129.5t-152.5 -51.5q-72 0 -113 49t-41 129zM172 306q0 -73 29.5 -145t65.5 -72q28 0 44 37t16 79q0 73 -29 143t-64 70q-34 0 -48 -34t-14 -78zM210 563q60 81 130.5 159 t95.5 78q22 0 31 -23.5t5 -49.5q-5 -23 -26.5 -44t-37.5 -30t-47 -25l-142 -76z" />
<glyph unicode="&#xf4;" horiz-adv-x="502" d="M23 169q0 77 39 156.5t110 135t152 55.5q72 0 112.5 -52.5t40.5 -134.5q0 -79 -38.5 -157t-109 -129.5t-152.5 -51.5q-72 0 -113 49t-41 129zM157 579q177 221 199 221q5 0 11.5 -8t14.5 -25t15 -32.5t16 -41.5t14.5 -41t14.5 -41t11 -32l-13 -11l-113 107l-161 -107z M172 306q0 -73 29.5 -145t65.5 -72q28 0 44 37t16 79q0 73 -29 143t-64 70q-34 0 -48 -34t-14 -78z" />
<glyph unicode="&#xf5;" horiz-adv-x="502" d="M23 169q0 77 39 156.5t110 135t152 55.5q72 0 112.5 -52.5t40.5 -134.5q0 -79 -38.5 -157t-109 -129.5t-152.5 -51.5q-72 0 -113 49t-41 129zM130 606q31 54 78.5 98.5t78.5 44.5q18 0 71 -31t67 -31q46 0 94 60l10 -11q-26 -56 -71.5 -100.5t-76.5 -44.5q-17 0 -63.5 28 t-74.5 28q-35 0 -103 -52zM172 306q0 -73 29.5 -145t65.5 -72q28 0 44 37t16 79q0 73 -29 143t-64 70q-34 0 -48 -34t-14 -78z" />
<glyph unicode="&#xf6;" horiz-adv-x="502" d="M23 169q0 77 39 156.5t110 135t152 55.5q72 0 112.5 -52.5t40.5 -134.5q0 -79 -38.5 -157t-109 -129.5t-152.5 -51.5q-72 0 -113 49t-41 129zM157 661q0 34 28.5 60.5t63.5 26.5q25 0 40.5 -16t15.5 -40q0 -34 -27.5 -61t-60.5 -27q-27 0 -43.5 16.5t-16.5 40.5zM172 306 q0 -73 29.5 -145t65.5 -72q28 0 44 37t16 79q0 73 -29 143t-64 70q-34 0 -48 -34t-14 -78zM345 661q0 34 28.5 60.5t63.5 26.5q25 0 40.5 -16t15.5 -40q0 -34 -27.5 -61t-60.5 -27q-27 0 -43.5 16.5t-16.5 40.5z" />
<glyph unicode="&#xf7;" horiz-adv-x="508" d="M42 213l14 66h406l-14 -66h-406zM160 81q0 27 22 47.5t49 20.5q21 0 33 -12t12 -32q0 -28 -21 -49t-48 -21q-21 0 -34 13t-13 33zM226 388q0 27 21.5 48t48.5 21q21 0 33.5 -12.5t12.5 -32.5q0 -27 -21.5 -48t-48.5 -21q-21 0 -33.5 12.5t-12.5 32.5z" />
<glyph unicode="&#xf8;" horiz-adv-x="498" d="M-105 0l132 113l3 -3q-7 25 -7 59q0 77 39 156.5t110 135t152 55.5q79 0 121 -65l65 55h67l-112 -97q12 -36 12 -80q0 -79 -38.5 -157t-109 -129.5t-152.5 -51.5q-95 0 -133 80l-82 -71h-67zM172 306q0 -34 8 -76l123 105q-31 83 -69 83q-34 0 -48 -34t-14 -78zM193 184 q32 -95 74 -95q28 0 44 37t16 79q0 41 -11 85z" />
<glyph unicode="&#xf9;" horiz-adv-x="647" d="M24 363l4 56q43 38 106.5 67.5t105.5 29.5q83 0 55 -107q-31 -123 -86 -272q-7 -19 14 -19q30 0 77 63t89 151.5t62 163.5l153 20l-87 -358q-6 -24 0 -32t21 -8q40 0 95 25l-4 -56q-43 -38 -106 -67.5t-105 -29.5q-87 0 -48 128l38 124h-9q-56 -106 -129.5 -179 t-140.5 -73q-51 0 -81.5 30t-11.5 71q54 115 90 257q10 40 -21 40q-26 0 -81 -25zM239 710q0 27 15 58.5t37 31.5q9 0 41 -45.5t72.5 -107.5t58.5 -84l-11 -11l-123 59q-90 42 -90 99z" />
<glyph unicode="&#xfa;" horiz-adv-x="647" d="M24 363l4 56q43 38 106.5 67.5t105.5 29.5q83 0 55 -107q-31 -123 -86 -272q-7 -19 14 -19q30 0 77 63t89 151.5t62 163.5l153 20l-87 -358q-6 -24 0 -32t21 -8q40 0 95 25l-4 -56q-43 -38 -106 -67.5t-105 -29.5q-87 0 -48 128l38 124h-9q-56 -106 -129.5 -179 t-140.5 -73q-51 0 -81.5 30t-11.5 71q54 115 90 257q10 40 -21 40q-26 0 -81 -25zM295 563q60 81 130.5 159t95.5 78q22 0 31 -23.5t5 -49.5q-5 -23 -26.5 -44t-37.5 -30t-47 -25l-142 -76z" />
<glyph unicode="&#xfb;" horiz-adv-x="647" d="M24 363l4 56q43 38 106.5 67.5t105.5 29.5q83 0 55 -107q-31 -123 -86 -272q-7 -19 14 -19q30 0 77 63t89 151.5t62 163.5l153 20l-87 -358q-6 -24 0 -32t21 -8q40 0 95 25l-4 -56q-43 -38 -106 -67.5t-105 -29.5q-87 0 -48 128l38 124h-9q-56 -106 -129.5 -179 t-140.5 -73q-51 0 -81.5 30t-11.5 71q54 115 90 257q10 40 -21 40q-26 0 -81 -25zM242 579q177 221 199 221q5 0 11.5 -8t14.5 -25t15 -32.5t16 -41.5t14.5 -41t14.5 -41t11 -32l-13 -11l-113 107l-161 -107z" />
<glyph unicode="&#xfc;" horiz-adv-x="647" d="M24 363l4 56q43 38 106.5 67.5t105.5 29.5q83 0 55 -107q-31 -123 -86 -272q-7 -19 14 -19q30 0 77 63t89 151.5t62 163.5l153 20l-87 -358q-6 -24 0 -32t21 -8q40 0 95 25l-4 -56q-43 -38 -106 -67.5t-105 -29.5q-87 0 -48 128l38 124h-9q-56 -106 -129.5 -179 t-140.5 -73q-51 0 -81.5 30t-11.5 71q54 115 90 257q10 40 -21 40q-26 0 -81 -25zM242 661q0 34 28.5 60.5t63.5 26.5q25 0 40.5 -16t15.5 -40q0 -34 -27.5 -61t-60.5 -27q-27 0 -43.5 16.5t-16.5 40.5zM430 661q0 34 28.5 60.5t63.5 26.5q25 0 40.5 -16t15.5 -40 q0 -34 -27.5 -61t-60.5 -27q-27 0 -43.5 16.5t-16.5 40.5z" />
<glyph unicode="&#xfd;" horiz-adv-x="569" d="M-105 -161q11 -1 36 -1q80 0 147 25t96 80q31 58 31 150q0 103 -39 200.5t-78 97.5q-33 0 -70 -26l-5 56q36 33 90 64t89 31q60 0 99 -93.5t39 -221.5q0 -21 -4 -91q96 176 104 370q0 16 11 26t28 10q29 0 71.5 -18t41.5 -36q-5 -96 -128 -275t-333 -426q-125 0 -226 31 v47zM270 563q60 81 130.5 159t95.5 78q22 0 31 -23.5t5 -49.5q-5 -23 -26.5 -44t-37.5 -30t-47 -25l-142 -76z" />
<glyph unicode="&#xfe;" horiz-adv-x="555" d="M-95 -239l8 47q39 9 58.5 29t28.5 56l166 719q8 38 -13.5 48t-99.5 2v54q45 22 134.5 38t165.5 16l-123 -425h8q41 80 88 125.5t94 45.5q58 0 86 -44t28 -115q0 -154 -87.5 -260.5t-223.5 -106.5q-14 0 -47 7l-40 -176l156 20l-12 -71zM205 121q60 -47 101 -47 q29 0 54 92.5t25 142.5q0 82 -29 82q-33 0 -76.5 -71.5t-74.5 -198.5z" />
<glyph unicode="&#xff;" horiz-adv-x="569" d="M-105 -161q11 -1 36 -1q80 0 147 25t96 80q31 58 31 150q0 103 -39 200.5t-78 97.5q-33 0 -70 -26l-5 56q36 33 90 64t89 31q60 0 99 -93.5t39 -221.5q0 -21 -4 -91q96 176 104 370q0 16 11 26t28 10q29 0 71.5 -18t41.5 -36q-5 -96 -128 -275t-333 -426q-125 0 -226 31 v47zM217 661q0 34 28.5 60.5t63.5 26.5q25 0 40.5 -16t15.5 -40q0 -34 -27.5 -61t-60.5 -27q-27 0 -43.5 16.5t-16.5 40.5zM405 661q0 34 28.5 60.5t63.5 26.5q25 0 40.5 -16t15.5 -40q0 -34 -27.5 -61t-60.5 -27q-27 0 -43.5 16.5t-16.5 40.5z" />
<glyph unicode="&#x152;" horiz-adv-x="1145" d="M49 278q0 89 43.5 170t114.5 138t164 90.5t190 33.5h432q68 0 140 28l-17 -254h-41q-20 86 -50 127t-88 41h-134l-56 -260h81q41 0 69.5 24.5t53.5 88.5h41l-59 -278h-41q1 63 -17 87t-59 24h-80l-60 -280h170q106 0 218 196h41l-108 -282q-56 28 -129 28h-478 q-153 0 -247 77.5t-94 200.5zM225 274q0 -101 50 -158.5t141 -57.5h101l127 594h-111q-61 0 -113 -23.5t-87 -62.5t-60 -88.5t-36.5 -101.5t-11.5 -102z" />
<glyph unicode="&#x153;" horiz-adv-x="773" d="M23 169q0 77 39 156.5t110 135t152 55.5q94 0 134 -89q102 89 212 89q48 0 76.5 -24t28.5 -59q0 -107 -246 -206l-3 50q41 24 67.5 57t26.5 65q0 40 -30 40q-41 0 -74.5 -75.5t-33.5 -156.5q0 -97 78 -97q80 0 168 90l12 -56q-41 -68 -106 -111t-143 -43q-94 0 -138 71 q-80 -70 -176 -70q-72 0 -113 49t-41 129zM172 306q0 -73 29.5 -145t65.5 -72q24 0 39.5 27.5t19.5 65.5q0 6 1 9v14q0 73 -29 143t-64 70q-34 0 -48 -34t-14 -78z" />
<glyph unicode="&#x178;" horiz-adv-x="769" d="M102 643l25 67h360l-19 -48l-51 -9q-34 -6 -42 -20.5t4 -44.5l90 -225l235 289l-106 -9l24 67h256l-20 -48l-43 -8q-22 -4 -40.5 -17t-44.5 -45l-241 -295l-52 -239l115 9l-24 -67h-358l20 48l25 9q68 25 81 86l34 154l-141 355zM411 853q0 30 25.5 54t57.5 24 q22 0 36 -14t14 -36q0 -31 -24.5 -55t-54.5 -24q-24 0 -39 14.5t-15 36.5zM580 853q0 30 25.5 54t57.5 24q22 0 36 -14t14 -36q0 -31 -24.5 -55t-54.5 -24q-24 0 -39 14.5t-15 36.5z" />
<glyph unicode="&#x2c6;" horiz-adv-x="346" d="M99 579q177 221 199 221q5 0 11.5 -8t14.5 -25t15 -32.5t16 -41.5t14.5 -41t14.5 -41t11 -32l-13 -11l-113 107l-161 -107z" />
<glyph unicode="&#x2dc;" horiz-adv-x="390" d="M100 606q31 54 78.5 98.5t78.5 44.5q18 0 71 -31t67 -31q46 0 94 60l10 -11q-26 -56 -71.5 -100.5t-76.5 -44.5q-17 0 -63.5 28t-74.5 28q-35 0 -103 -52z" />
<glyph unicode="&#x2000;" horiz-adv-x="490" />
<glyph unicode="&#x2001;" horiz-adv-x="980" />
<glyph unicode="&#x2002;" horiz-adv-x="490" />
<glyph unicode="&#x2003;" horiz-adv-x="980" />
<glyph unicode="&#x2004;" horiz-adv-x="326" />
<glyph unicode="&#x2005;" horiz-adv-x="245" />
<glyph unicode="&#x2006;" horiz-adv-x="163" />
<glyph unicode="&#x2007;" horiz-adv-x="163" />
<glyph unicode="&#x2008;" horiz-adv-x="122" />
<glyph unicode="&#x2009;" horiz-adv-x="196" />
<glyph unicode="&#x200a;" horiz-adv-x="54" />
<glyph unicode="&#x2010;" horiz-adv-x="412" d="M43 196l24 114h302l-24 -114h-302z" />
<glyph unicode="&#x2011;" horiz-adv-x="412" d="M43 196l24 114h302l-24 -114h-302z" />
<glyph unicode="&#x2012;" horiz-adv-x="412" d="M43 196l24 114h302l-24 -114h-302z" />
<glyph unicode="&#x2013;" horiz-adv-x="507" d="M42 196l24 114h400l-24 -114h-400z" />
<glyph unicode="&#x2014;" horiz-adv-x="807" d="M42 196l24 114h700l-24 -114h-700z" />
<glyph unicode="&#x2018;" horiz-adv-x="271" d="M125 535q0 29 14.5 59.5t29.5 50t48 47.5t44.5 36t45.5 32l25 -19q-29 -27 -59 -67t-30 -65q0 -16 14 -30.5t27.5 -24t13.5 -15.5q-1 -27 -30 -52.5t-68 -25.5q-36 0 -55.5 20t-19.5 54z" />
<glyph unicode="&#x2019;" horiz-adv-x="272" d="M118 480q29 27 59 67t30 65q0 16 -14 30.5t-27.5 24t-13.5 15.5q1 27 30 52.5t68 25.5q36 0 55.5 -20t19.5 -54q0 -29 -14.5 -59.5t-29.5 -50t-48 -47.5t-44.5 -36t-45.5 -32z" />
<glyph unicode="&#x201a;" horiz-adv-x="278" d="M-44 -194q29 27 59 67t30 65q0 16 -14 30.5t-27.5 24t-13.5 15.5q1 27 30 52.5t68 25.5q36 0 55.5 -20t19.5 -54q0 -29 -14.5 -59.5t-29.5 -50t-48 -47.5t-44.5 -36t-45.5 -32z" />
<glyph unicode="&#x201c;" horiz-adv-x="494" d="M125 534q0 29 14.5 59.5t29.5 50t48 47.5t44.5 36t45.5 32l25 -19q-29 -27 -59 -67t-30 -65q0 -16 14 -30.5t27.5 -24t13.5 -15.5q-1 -27 -30 -52.5t-68 -25.5q-36 0 -55.5 20t-19.5 54zM341 507q0 29 14.5 59.5t29.5 50t48 47.5t44.5 36t45.5 32l25 -19q-29 -27 -59 -67 t-30 -65q0 -16 14 -30.5t27.5 -24t13.5 -15.5q-1 -27 -30 -52.5t-68 -25.5q-36 0 -55.5 20t-19.5 54z" />
<glyph unicode="&#x201d;" horiz-adv-x="494" d="M118 480q29 27 59 67t30 65q0 16 -14 30.5t-27.5 24t-13.5 15.5q1 27 30 52.5t68 25.5q36 0 55.5 -20t19.5 -54q0 -29 -14.5 -59.5t-29.5 -50t-48 -47.5t-44.5 -36t-45.5 -32zM334 453q29 27 59 67t30 65q0 16 -14 30.5t-27.5 24t-13.5 15.5q1 27 30 52.5t68 25.5 q36 0 55.5 -20t19.5 -54q0 -29 -14.5 -59.5t-29.5 -50t-48 -47.5t-44.5 -36t-45.5 -32z" />
<glyph unicode="&#x201e;" horiz-adv-x="500" d="M-38 -169q29 27 59 67t30 65q0 16 -14 30.5t-27.5 24t-13.5 15.5q1 27 30 52.5t68 25.5q36 0 55.5 -20t19.5 -54q0 -29 -14.5 -59.5t-29.5 -50t-48 -47.5t-44.5 -36t-45.5 -32zM178 -196q29 27 59 67t30 65q0 16 -14 30.5t-27.5 24t-13.5 15.5q1 27 30 52.5t68 25.5 q36 0 55.5 -20t19.5 -54q0 -29 -14.5 -59.5t-29.5 -50t-48 -47.5t-44.5 -36t-45.5 -32z" />
<glyph unicode="&#x2022;" horiz-adv-x="404" d="M49 228q0 74 57 128.5t131 54.5q54 0 87.5 -33t33.5 -84q0 -75 -56 -130.5t-128 -55.5q-56 0 -90.5 33.5t-34.5 86.5z" />
<glyph unicode="&#x2026;" horiz-adv-x="783" d="M7 67q0 46 35 79.5t81 33.5q34 0 54.5 -20t20.5 -52q0 -47 -34.5 -81t-79.5 -34q-34 0 -55.5 21t-21.5 53zM255 67q0 46 35 79.5t81 33.5q34 0 54.5 -20t20.5 -52q0 -47 -34.5 -81t-79.5 -34q-34 0 -55.5 21t-21.5 53zM503 67q0 46 35 79.5t81 33.5q34 0 54.5 -20 t20.5 -52q0 -47 -34.5 -81t-79.5 -34q-34 0 -55.5 21t-21.5 53z" />
<glyph unicode="&#x202f;" horiz-adv-x="196" />
<glyph unicode="&#x2039;" horiz-adv-x="328" d="M19 236l1 9l2 9l261 192h43l-158 -201l73 -201h-43z" />
<glyph unicode="&#x203a;" horiz-adv-x="328" d="M-2 44l158 201l-73 201h43l179 -192l-1 -9l-2 -9l-261 -192h-43z" />
<glyph unicode="&#x205f;" horiz-adv-x="245" />
<glyph unicode="&#x20ac;" horiz-adv-x="788" d="M10 247l14 66h58q3 26 11 58h-57l14 66h66q56 125 179 204t272 79q129 0 238 -52l-33 -204h-41q-17 98 -62 145.5t-133 47.5q-92 0 -155.5 -61.5t-96.5 -158.5h277l-19 -66h-275q-6 -27 -9 -58h257l-19 -66h-240q5 -93 50 -143.5t125 -50.5q82 0 141 44.5t131 150.5h41 l-88 -226q-111 -32 -244 -32q-143 0 -233 69.5t-98 187.5h-71z" />
<glyph unicode="&#x2122;" horiz-adv-x="665" d="M120 610l36 120q61 -20 82 -20h130q76 0 123 20l56 -127l80 107h126l-13 -32h-12q-12 0 -18 -10.5t-9 -37.5l-9 -98h38l-13 -32h-148l13 32h13q15 0 19 10.5t6 36.5l5 79l-118 -159h-3l-59 131l-26 -98h29l-12 -32h-98l12 32h18q16 0 22 18l34 122q-6 4 -12 5h-91 l-30 -145h40l-13 -32h-170l13 32h12q35 0 45 41l22 104h-4q-22 0 -32.5 -2t-28 -17.5t-32.5 -47.5h-23z" />
</font>
</defs>
</svg>
